<?xml version='1.0' encoding='utf-8'?>
<svg xmlns="http://www.w3.org/2000/svg" version="1.1" x="0px" y="0px" width="3000px" height="3000px" viewBox="-604.5102539 -355.2109375 3000 3000" enable-background="new -604.5102539 -355.2109375 3000 3000"> <defs> </defs> <path fill="#FFE79F" d="M1599.5913086,2165.3798828c3.9335938-5.2460938,23.3193359-22.4580078,35.9208984-13.1962891 c12.6025391,9.2617188,37.5205078,30.2451172,29.6523438,38.1142578 c-7.8691406,7.8681641-7.8691406,31.4746094-9.1806641,20.9833984 c-0.9384766-7.5126953,45.6542969,67.1757813,65.5722656,104.9169922 c24.9179688,47.2119141,34.0976563,137.703125,31.4746094,171.7998047 c-2.6220703,34.0976563-7.8007813,51.9257813-6.5566406,69.5078125 c1.2041016,17.0048828,36.7207031,40.6552734,44.5917969,40.6552734c7.8691406,0,52.4589844,0,52.4589844,0 s-46.5371094,9.2412109-50.4716797,15.7988281s-39.3457031,7.8691406-49.8378906-2.6230469 c-10.4912109-10.4912109-30.8388672-39.4052734-33.4609375-53.8310547 c-2.6230469-14.4257813-27.5410156-41.9667969-40.6552734-44.5898438 c-13.1152344-2.6230469-38.0332031,11.8027344-45.9013672-6.5576172 c-7.8691406-18.3603516-3.7089844-65.5722656,15.1943359-85.2441406s34.640625-87.8681641,26.7724609-114.0957031 c-7.8691406-26.2294922-44.5898438-70.8193359-51.1474609-83.9345703 c-6.5576172-13.1142578,1.3115234-22.2949219,1.3115234-22.2949219s-15.7373047-9.9267578-15.7373047-18.0771484 C1599.5913086,2174.5605469,1599.5913086,2165.3798828,1599.5913086,2165.3798828z"/> <path fill="#475243" d="M1507.7583008,2042.5410156c0,0,7.8076172-11.234375,37.5351563,8 c29.7285156,19.2333984,89.2666016,60.1943359,92.765625,82.9267578 c3.4990234,22.7314453-20.9833984,52.4580078-43.7138672,48.9609375 c-22.7304688-3.4960938-50.6132813-18.0039063-71.3867188-30.3447266 c-6.7216797-3.9931641-35.4150391-26.9101563-54.5126953-51.8378906 C1457.1040039,2085.4375,1507.7583008,2042.5410156,1507.7583008,2042.5410156z"/> <path fill="#6E2800" d="M1161.5883789,1802.6064453c0,0,87.5625,89.6162109,108.5458984,110.6005859 c10.1386719,10.140625,59.0361328,59.4101563,107.6513672,102.1962891 c51.9775391,45.75,103.6308594,84.8427734,107.2431641,84.8427734c6.9921875,0,55.9521484-33.2246094,22.7294922-57.7050781 c-15.3173828-11.2851563-58.9277344-42.3115234-103.8818359-81.0439453 c-52.5498047-45.2734375-106.9394531-99.1523438-120.1367188-115.1738281 c-24.4814453-29.7285156-47.2167969-76.9414063-47.2167969-76.9414063s-54.1923828-38.4804688-61.8486328-13.9882813 C1167.0170898,1779.8857422,1161.5883789,1802.6064453,1161.5883789,1802.6064453z"/> <path fill="none" stroke="#000000" stroke-width="1.31146" stroke-miterlimit="10" d="M1205.9575195,1817.4707031 c0,0,39.3408203,51.8789063,74.3154297,86.5556641c34.9736328,34.6767578,193.2246094,178.734375,215.953125,190.9736328"/> <path fill="none" stroke="#000000" stroke-width="1.31146" stroke-miterlimit="10" d="M1227.8139648,1813.9716797 c0,0,85.6855469,96.1738281,132.0214844,137.2675781c36.8496094,32.6777344,130.6435547,116.8554688,153.3730469,129.0947266"/> <path d="M1132.503418,1664.4658203c18.3603516-2.6230469,41.9667969,13.1152344,41.9667969,13.1152344 s75.9824219-67.7148438,95.828125-46.5732422c24.0214844,25.5898438,27.3105469,84.9375,1.3574219,96.4072266 c-6.53125,2.8867188-13.2519531,13.1152344-13.2519531,13.1152344s17.9648438,52.4580078-35.4091797,85.2451172 c-69.7695313,42.8544922-114.0976563,3.9345703-114.0976563,3.9345703s-20.5166016,26.2275391-52.2236328,20.9833984 c-31.7089844-5.2460938-51.8369141-41.4550781-56.1992188-65.2285156 c-3.8632813-21.046875,40.2275391-8.2138672,40.2275391-8.2138672s-42.1591797,12.5664063-26.5537109-14.4931641 c15.6035156-27.0585938,34.4228516-45.8339844,55.40625-45.8339844c20.9824219,0,7.2431641-12.3974609,15.7363281-26.5234375 C1093.784668,1676.2734375,1132.503418,1664.4658203,1132.503418,1664.4658203z"/> <path fill="#63614A" d="M1116.7661133,1612.0078125c18.3603516-2.6230469,41.9667969,13.1142578,41.9667969,13.1142578 s39.34375-21.5722656,68.1962891-18.6552734c28.8515625,2.9179688,60.4648438,29.1474609,44.7265625,52.7539063 c-15.7373047,23.6044922-39.4814453,28.8505859-39.4814453,28.8505859s13.8369141,49.6435547-18.3603516,73.4423828 c-38.7265625,28.6240234-52.4589844,36.7207031-97.0478516,31.4746094 c-15.8447266-1.8642578-18.3613281-15.7373047-18.3613281-15.7373047s-25.7617188,36.7207031-57.4697266,31.4755859 c-31.7080078-5.2460938-44.8232422-18.3613281-42.2001953-39.3447266s20.9833984-34.0976563,20.9833984-34.0976563 s-36.9130859,2.0751953-21.3085938-24.9833984c15.6044922-27.0595703,34.4238281-45.8349609,55.4072266-45.8349609 s7.2431641-12.3974609,15.7373047-26.5244141C1078.0473633,1623.8164063,1116.7661133,1612.0078125,1116.7661133,1612.0078125z"/> <g> <path d="M1115.0200195,1771.1318359c5.6923828,1.0068359,11.3066406,1.4355469,16.8564453,1.4785156 c5.5449219,0.0341797,11.0117188-0.3623047,16.3476563-1.2382813c10.6787109-1.7119141,20.7919922-5.3642578,30.03125-10.6875 c9.2705078-5.3037109,17.4814453-12.1396484,23.9814453-20.6689453c3.2597656-4.2480469,6.0888672-8.8955078,8.4765625-13.8623047 c2.3789063-4.9755859,4.3623047-10.234375,5.7236328-15.8525391c0.4931641,2.8681641,0.5566406,5.8183594,0.3876953,8.7480469 c-0.1630859,2.9365234-0.59375,5.8671875-1.2255859,8.7705078c-1.2832031,5.8007813-3.4824219,11.4570313-6.4589844,16.7236328 c-2.9716797,5.2714844-6.7724609,10.109375-11.1289063,14.359375c-2.1777344,2.1289063-4.5214844,4.078125-6.9404297,5.9140625 c-0.6103516,0.4511719-1.2294922,0.8916016-1.8535156,1.3222656l-1.8662109,1.2548828 c-1.3056641,0.8496094-2.5576172,1.6279297-3.8769531,2.3867188c-10.46875,6.0410156-22.5234375,9.5166016-34.5224609,9.7753906 c-5.9960938,0.1318359-11.9677734-0.4833984-17.7099609-1.859375c-2.8701172-0.6962891-5.6875-1.5585938-8.4121094-2.6376953 C1120.1088867,1773.9863281,1117.4545898,1772.7216797,1115.0200195,1771.1318359z"/> </g> <g> <path d="M1232.1743164,1680.2021484c5.0576172-2.9208984,9.7519531-6.1171875,13.6503906-9.8085938 c3.8876953-3.6748047,6.8046875-7.9287109,7.7041016-12.2978516c0.9384766-4.3447266,0.078125-8.8916016-1.9824219-13.3837891 c-0.9736328-2.2626953-2.2919922-4.4560547-3.6992188-6.6435547l-0.5419922-0.8154297l-0.5644531-0.8105469l-0.5292969-0.7197266 l-0.5722656-0.7324219c-0.7783203-0.9589844-1.5878906-1.8857422-2.4453125-2.7597656 c-3.4365234-3.4902344-7.6591797-6.1074219-12.4296875-7.7861328c-4.7685547-1.6943359-10.03125-2.4326172-15.4248047-2.5654297 c-5.4003906-0.1142578-10.9335938,0.4042969-16.4746094,1.2880859c-5.5429688,0.9101563-11.1025391,2.1542969-16.6660156,3.75 c4.7451172-3.3564453,9.9941406-5.9912109,15.46875-8.1289063c5.484375-2.1230469,11.265625-3.6777344,17.2900391-4.3818359 c6.0097656-0.7158203,12.3193359-0.5244141,18.5136719,1.0976563c6.1806641,1.6005859,12.1689453,4.8242188,16.9013672,9.3554688 c1.1953125,1.1162109,2.3066406,2.3134766,3.3339844,3.5693359l0.7597656,0.9482422l0.7529297,0.9980469l0.6738281,0.9414063 l0.6611328,0.9580078c1.7587891,2.5703125,3.2724609,5.3720703,4.5410156,8.3720703 c1.1992188,3.0205078,2.1445313,6.2832031,2.3896484,9.7353516c0.125,1.7216797,0.1054688,3.4775391-0.109375,5.2216797 c-0.2333984,1.7431641-0.6494141,3.4667969-1.2412109,5.1123047c-1.1972656,3.2939453-3.1015625,6.2255859-5.3710938,8.5888672 c-2.2539063,2.390625-4.8359375,4.2783203-7.5205078,5.7900391c-2.6816406,1.5263672-5.5019531,2.6552734-8.3525391,3.5234375 C1238.0317383,1679.4628906,1235.1137695,1680.0419922,1232.1743164,1680.2021484z"/> </g> <g> <path d="M1019.7182617,1747.2382813c-2.0888672,4.5957031-3.7177734,9.0908203-4.6162109,13.4990234 c-0.9052734,4.3974609-0.9550781,8.6318359,0.0371094,12.3808594c0.9550781,3.7607422,2.9345703,7.1240234,5.6767578,10.1894531 c0.6972656,0.7871094,1.3496094,1.4902344,2.2050781,2.2939453c0.71875,0.6816406,1.5673828,1.4238281,2.3847656,2.0722656 c1.6416016,1.3447266,3.3808594,2.5429688,5.2197266,3.5380859c3.65625,2.0351563,7.6933594,3.3291016,11.9609375,3.8740234 c4.2666016,0.5488281,8.7509766,0.3603516,13.2490234-0.3964844c4.5068359-0.7402344,9.0283203-2.0322266,13.4921875-3.6738281 c4.4638672-1.6523438,8.9003906-3.59375,13.2587891-5.8955078c-3.2783203,3.7128906-7.1503906,6.9042969-11.3271484,9.6875 c-4.1933594,2.765625-8.7568359,5.0898438-13.6689453,6.7607422c-4.9091797,1.6425781-10.2001953,2.6181641-15.6376953,2.4785156 c-5.4267578-0.1240234-10.9589844-1.4345703-15.9384766-3.8681641c-2.4873047-1.21875-4.8330078-2.6943359-7.015625-4.3447266 c-1.0947266-0.8496094-2.0908203-1.6914063-3.1494141-2.6679688c-0.9199219-0.8544922-1.9814453-1.8769531-2.8886719-2.9140625 c-1.8300781-2.1220703-3.5166016-4.4804688-4.7480469-7.1318359c-1.2792969-2.6220703-2.0878906-5.5117188-2.4335938-8.4169922 c-0.6660156-5.8652344,0.8369141-11.5820313,3.4199219-16.2255859c1.3046875-2.3359375,2.8496094-4.4648438,4.6162109-6.3535156 C1015.5737305,1750.2373047,1017.5258789,1748.5458984,1019.7182617,1747.2382813z"/> </g> <g> <path d="M1054.8823242,1674.9580078c-1.9931641,0.296875-3.8183594,0.9833984-5.5732422,1.7236328 c-1.7509766,0.7558594-3.4091797,1.6542969-5.0087891,2.6181641c-3.1933594,1.9443359-6.1123047,4.2402344-8.8945313,6.6796875 c-5.5292969,4.9326172-10.4619141,10.5341797-15.140625,16.4199219c-1.1816406,1.4628906-2.3232422,2.9638672-3.453125,4.4785156 c-1.1552734,1.4980469-2.2617188,3.0263672-3.3466797,4.5224609c-2.1416016,2.9765625-4.2578125,6.0419922-5.5751953,8.8378906 c-0.3251953,0.6835938-0.5957031,1.3388672-0.7480469,1.8710938c-0.1503906,0.5380859-0.2226563,0.9013672-0.2929688,1.0439453 c-0.0634766,0.1279297-0.2109375,0.2548828,0.0546875,0.59375c0.2578125,0.3046875,0.8525391,0.6474609,1.5742188,0.9033203 c1.4707031,0.4970703,3.3535156,0.7519531,5.2578125,0.8632813c1.9208984,0.1201172,3.921875,0.1601563,5.9824219,0.1523438 c-1.6552734,1.2460938-3.4628906,2.2714844-5.4003906,3.0927734c-1.9511719,0.7890625-4.0117188,1.4677734-6.4511719,1.5654297 c-1.2226563,0.0429688-2.5761719-0.0527344-4.0644531-0.6533203c-0.7382813-0.3017578-1.5087891-0.7402344-2.2050781-1.3603516 c-0.6904297-0.6191406-1.2832031-1.4091797-1.6953125-2.234375c-0.8339844-1.6757813-1.0214844-3.3339844-0.9912109-4.7382813 c0.0322266-1.421875,0.2412109-2.6816406,0.5244141-3.8613281c0.5996094-2.34375,1.4228516-4.4023438,2.3769531-6.34375 c0.9257813-1.9521484,2.0068359-3.7539063,3.1064453-5.5136719c2.2431641-3.4824219,4.6875-6.6796875,7.3232422-9.8164063 c5.2871094-6.2060547,11.4423828-11.90625,18.6982422-16.1035156c3.609375-2.0996094,7.515625-3.7832031,11.6044922-4.7705078 c2.0400391-0.4970703,4.1337891-0.7949219,6.2226563-0.8427734 C1050.8461914,1674.0537109,1052.9682617,1674.2333984,1054.8823242,1674.9580078z"/> </g> <g> <path d="M1075.1118164,1641.65625c0.7763672-4.1464844,3.0341797-7.9912109,5.8242188-11.3027344 c2.8232422-3.3203125,6.3261719-6.1064453,10.1582031-8.2705078c7.6943359-4.3681641,16.4941406-6.3203125,25.0595703-6.7275391 c4.3007813-0.1826172,8.5761719-0.0410156,12.796875,0.4375c2.1162109,0.2675781,4.2519531,0.5859375,6.4042969,1.09375 c2.1542969,0.5009766,4.3310547,1.1367188,6.5546875,2.1376953c1.1191406,0.4892578,2.2402344,1.1015625,3.3808594,1.9111328 c1.1279297,0.8105469,2.3291016,1.8417969,3.2617188,3.4335938c0.4599609,0.7880859,0.8300781,1.7138672,0.9941406,2.6826172 c0.1748047,0.9658203,0.1191406,1.9453125-0.0664063,2.7958984c-0.3886719,1.7167969-1.1826172,2.9599609-2.015625,3.9462891 c-1.6777344,1.9648438-3.5830078,3.1582031-5.5048828,4.1884766c-1.9384766,0.9960938-3.9501953,1.7460938-6.0390625,2.2197266 c1.3818359-1.6201172,2.6865234-3.2226563,3.8652344-4.8183594c1.1689453-1.5771484,2.2177734-3.2382813,2.7275391-4.7001953 c0.2392578-0.7246094,0.3095703-1.3710938,0.1777344-1.6728516c-0.1572266-0.3115234-0.2773438-0.1865234-0.484375-0.2939453 c-0.2216797-0.0859375-0.6542969-0.3349609-1.2539063-0.5673828c-0.5976563-0.2353516-1.3457031-0.4365234-2.1289063-0.640625 c-3.2246094-0.7333984-7.0517578-1.1240234-10.8632813-1.3789063c-3.8496094-0.2929688-7.6914063-0.4785156-11.4960938-0.4248047 c-7.6035156,0.0878906-15.1113281,0.9335938-22.2197266,3.2939453c-3.5439453,1.1933594-6.9902344,2.7558594-10.2373047,4.8183594 c-1.6171875,1.0361328-3.1933594,2.1855469-4.6884766,3.4814453 C1077.8295898,1638.5996094,1076.3735352,1640.0039063,1075.1118164,1641.65625z"/> </g> <path d="M1178.112793,1678.0488281c8.1044922,10.8554688-1.2324219,35.4736328-27.3408203,54.9785156 c-26.1083984,19.5058594-59.0947266,26.5107422-67.2128906,15.6503906 c-8.1054688-10.8574219,6.4814453-35.4707031,32.5878906-54.9785156 C1142.2495117,1674.1914063,1170.003418,1667.1904297,1178.112793,1678.0488281z"/> <path fill="#2B3856" d="M1090.5366211,1742.4873047c0,0,25.2001953-1.5039063,49.2128906-16.859375 c17.3007813-11.0634766,28.125-36.6025391,28.125-36.6025391s-13.3779297-22.7001953-18.7724609-28.3193359 c-4.3935547-4.578125-18.3564453-24.2783203-18.3564453-24.2783203s-66.6035156-71.4589844-111.0273438-90.6591797 c-54.9013672-23.7314453-34.0976563,31.4755859-34.0976563,31.4755859s40.1777344,61.34375,53.7695313,85.2431641 C1052.980957,1686.3886719,1090.5366211,1742.4873047,1090.5366211,1742.4873047z"/> <path fill="#4E848D" d="M32.9404297,0c0,0-31.5825195,66.6611328-32.9301758,129.6220703 c-1.1474609,53.487793,92.9389648,235.3623047,135.7792969,321.6083984 c42.8398438,86.2490234,311.0297852,489.28125,335.6123047,522.0625 c24.5737305,32.7783203,64.5991211,71.6074219,68.4921875,98.0717773 c3.8945313,26.4624023-2.6943359,52.3867188-2.6943359,52.3867188s34.1875-0.8657227,47.1513672,2.4257813 c12.9628906,3.2915039,130.7490234,164.3051758,148.0102539,186.2036133 c17.2587891,21.9003906,178.6313477,203.5371094,203.2084961,236.3173828 c24.5800781,32.7792969,124.1044922,140.3271484,124.1044922,140.3271484l2.4257813-47.1494141l46.4755859,15.5205078 l22.3125-20.1386719c0,0-258.2885742-294.0273438-285.4882813-326.9443359 c-27.1972656-32.9140625-276.8120117-337.2773438-303.2001953-385.9086914 c-26.3901367-48.6313477-222.4785156-321.3496094-243.628418-369.715332 c-21.1523438-48.3623047-144.3701172-256.9277344-160.6889648-297.1621094 C121.5678711,217.2919922,59.9277344,88.0571289,53.6850586,56.21875C47.4428711,24.3798828,32.9404297,0,32.9404297,0z"/> <path fill="#005D7F" d="M25.6352539,140.5537109c0-28.8515625,21.1855469-109.4604492,21.1855469-109.4604492 s64.4970703,168.0385742,84.3505859,203.9116211c6.4135742,11.5898438,52.340332,102.9873047,103.6176758,195.3115234 c65.762207,118.4003906,138.3891602,242.652832,138.3891602,242.652832s-61.6459961-76.0288086-74.7607422-57.668457 s31.4750977,97.0478516,31.4750977,97.0478516S91.6201172,310.6586914,62.3554688,248.0932617 C38.1245117,196.2885742,25.6352539,172.0288086,25.6352539,140.5537109z"/> <path fill="#005D7F" d="M642.0185547,1152.9980469c9.7524414,33.0703125,180.980957,222.9472656,201.9643555,249.1757813 c20.9833984,26.2294922,175.7353516,188.8505859,175.7353516,188.8505859s-186.2265625-264.9140625-207.2099609-288.5205078 c-20.9838867-23.6064453-131.1455078-175.7353516-141.6376953-178.3583984 C660.3793945,1121.5229492,639.1323242,1143.2133789,642.0185547,1152.9980469z"/> <path fill="#FFE70F" d="M1689.4467773,2307.0791016c0,0-2.6230469,91.8017578-26.2294922,128.5224609 c-23.6064453,36.7216797-18.3603516,52.4580078,0,52.4580078c28.8525391,0,39.34375-76.4169922,39.34375-99.8466797 S1689.4467773,2307.0791016,1689.4467773,2307.0791016z"/> </svg>