<?xml version="1.0" encoding="UTF-8"?>
<svg viewBox="0 0 262.20471 184.25197" xmlns="http://www.w3.org/2000/svg" xmlns:xlink="http://www.w3.org/1999/xlink">
 <defs>
  <filter id="a">
   <feGaussianBlur stdDeviation="5.49646"/>
  </filter>
  <linearGradient id="b">
   <stop stop-color="#fff" offset="0"/>
   <stop stop-color="#fff" stop-opacity="0" offset="1"/>
  </linearGradient>
  <linearGradient id="f" x1="129.97" x2="126.15" y1="927.8" y2="957.25" gradientUnits="userSpaceOnUse" xlink:href="#b"/>
  <linearGradient id="e" x1="204.16" x2="156.81" y1="893.62" y2="960.14" gradientUnits="userSpaceOnUse" xlink:href="#b"/>
  <linearGradient id="d" x1="14.621" x2="10.811" y1="222.81" y2="258.86" gradientUnits="userSpaceOnUse" xlink:href="#b"/>
  <radialGradient id="c" cx="56.035" cy="255.1" r="15.148" gradientTransform="matrix(1.5108 .78825 -.97361 1.866 320.93 430.9)" gradientUnits="userSpaceOnUse">
   <stop stop-color="#d30000" offset="0"/>
   <stop stop-color="#800000" stop-opacity="0" offset="1"/>
  </radialGradient>
 </defs>
 <g transform="translate(0 -868.11)">
  <g transform="matrix(.49719 0 .13097 .14208 91.288 1028.5)" filter="url(#a)" opacity=".599" stroke="#000">
   <path d="m211.62-267.62c4.5961-24.173 5.8634-42.644 20.096-52.506 0.40145-10.711-9.2287-8.0274-10.88-3.0284-3.572 10.815-9.3896 36.063-19.52 49.64 3.4729-1.9629 9.818 1.399 10.304 5.8946z" stroke-width=".27937"/>
   <path d="m266.16-247.46v1.4941c0.83296 0.15479 1.6564 0.30984 2.4585 0.46998 1.7552 0.35043 3.2937 4.458 3.4533 4.2794 0.25153 0.30312 2.6074-2.7391 6.5086-1.2418 3.7783 1.4501 2.4773 2.8138 3.8867 5.0858l0.92372-3.4236c6.1618 0.46933 9.0803 2.4522 10.609 6.1842 1.6176-3.4187 3.9453-7.2111-1.6343-9.1575-8.5778-2.5681-18.145-1.9815-26.205-3.6907z" stroke-width=".29382"/>
   <path d="m269.82-246.56c-1.3006-4.2674-8.9127-16.53-21.63-29.753l-1.7423 0.63633c9.0364 10.351 18.242 24.189 20.601 34.296l1.971-3.808c0.97772 0.57442 1.2279 0.0322 0.80012-1.3712z" stroke-width=".23888"/>
   <path d="m249.62-274.89c-0.2203-6.4156-6.2394-26.292-18.997-49.404l-2.6586 0.23633c8.71 17.749 16.358 40.409 15.877 55.336l4.1563-4.5599c1.1454 1.1622 1.6948 0.50156 1.6223-1.6083z" stroke-width=".34374"/>
  </g>
  <path transform="matrix(.49719 0 .13097 .14208 91.288 1028.5)" d="m133.34-260.74c-0.72005-0.02-1.3136 0.13113-1.7687 0.46608l-3.8242 1.5297c10.001 5.9912 26.856 11.982 24.857 17.974-8.6596 8.5509-16.692 20.225-30.211 22.945 6.3576 2.71 11.59 7.1351 16.707 12.022l-0.46607 9.4051 6.6326-3.394c0.39236 0.38294 0.78705 0.76529 1.1831 1.1473l0.45412 6.6326 3.872-2.6052c0.84797 0.75332 1.7116 1.4962 2.5933 2.2228l0.33463 4.9715 3.2506-2.187c0.57944 0.41877 1.1704 0.82977 1.7687 1.2309 2.6452 2.7085 3.1983 7.2954 5.3539 11.473 1.0977-6.029 0.23504-9.771-1.7209-12.237-4.814-4.4749-10.114-7.9812-15.094-11.676l0.16731-0.0837-1.9121-1.2309c-5.6312-4.3254-10.701-9.0824-13.946-16.074 12.1-8.5377 26.806-17.909 26.769-22.563-8.989-11.351-19.96-19.824-25.001-19.969z" filter="url(#a)" opacity=".599" stroke="#000" stroke-width=".38242"/>
  <path transform="matrix(.49719 0 .13097 .14208 91.288 1028.5)" d="m160.25-281.14c-1.4322-2.8801 46.741-51.6 80.402 15.528 24.644 49.145-97.649 22.92-80.402-15.528z" filter="url(#a)" opacity=".599" stroke="#000" stroke-width=".39906"/>
  <path transform="matrix(.49719 0 .13097 .14208 91.288 1028.5)" d="m38.279-270.17c13.633-23.297 40.408-24.209 48.411-9.6858 10.312 35.797-75.439 48.94-48.411 9.6858z" filter="url(#a)" opacity=".599" stroke="#000" stroke-width=".30881"/>
  <path transform="matrix(.32288 0 .04208 .04565 -49.007 981.12)" d="m540.01 184.36c0 19.332-76.27 63.367-93.012 53.701s-16.742-97.735 0-107.4 93.012 34.368 93.012 53.701z" fill-rule="evenodd" filter="url(#a)" opacity=".599"/>
  <path transform="matrix(.19305 0 .05085 .05516 17.388 973.74)" d="m526 286.36c0 11.598-6.4919 21-14.5 21s-14.5-9.402-14.5-21 6.4919-21 14.5-21 14.5 9.402 14.5 21z" fill-rule="evenodd" filter="url(#a)" opacity=".599"/>
  <path transform="matrix(.19305 0 .05085 .05516 20.091 973.74)" d="m526 286.36c0 11.598-6.4919 21-14.5 21s-14.5-9.402-14.5-21 6.4919-21 14.5-21 14.5 9.402 14.5 21z" fill-rule="evenodd" filter="url(#a)" opacity=".599"/>
  <path transform="matrix(.49719 0 .13097 .14208 91.288 1028.5)" d="m73.578-279.4h26.779a1.171 4.3928 0 0 1 1.171 4.3928v2.086a1.171 4.3928 0 0 1 -1.171 4.3928h-26.779a1.171 4.3928 0 0 1 -1.171 -4.3928v-2.086a1.171 4.3928 0 0 1 1.171 -4.3928" fill-rule="evenodd" filter="url(#a)" opacity=".599"/>
  <path transform="matrix(.13644 -.05293 .23402 .05293 -61.979 978.78)" d="m365 565.86c0 15.74-7.6112 28.5-17 28.5s-17-12.76-17-28.5 7.6112-28.5 17-28.5 17 12.76 17 28.5z" fill-rule="evenodd" filter="url(#a)" opacity=".599"/>
  <path transform="matrix(.23517 -.01937 .13445 .07231 -47.677 956.39)" d="m365 565.86c0 15.74-7.6112 28.5-17 28.5s-17-12.76-17-28.5 7.6112-28.5 17-28.5 17 12.76 17 28.5z" fill-rule="evenodd" filter="url(#a)" opacity=".599"/>
  <path transform="matrix(.49719 0 .13097 .14208 91.288 1028.5)" d="m42.833-259.95c-14.07 4.4573-14.944 12.697-13.556 19.813 4.7767-9.8554 11.745-10.612 18.978-6.6738l-5.4224-13.139z" filter="url(#a)" opacity=".599" stroke="#000" stroke-width=".20856"/>
  <path transform="matrix(.49719 0 .13097 .14208 91.288 1028.5)" d="m-9.6028-313.61c18.902-5.4424 31.473-17.886 55.471-15.976 7.1707 1.4691 4.5313 30.89 20.239 49.731l10.173 8.3514c-4.7991-2.9238-7.7773-1.9306-16.329-12.926-11.924-34.894-7.404-25.17-13.758-39.931-13.025-10.57-53.927 12.71-53.169 17.994-2.4963-1.8572-6.548-3.1798-2.6277-7.2424z" filter="url(#a)" opacity=".599" stroke="#000" stroke-width=".16554"/>
  <path transform="matrix(.49719 0 .13097 .14208 91.288 1028.5)" d="m6.9816-310.54c22.193 0.889 43.23-5.9605 65.132 2.6053 5.9052 3.317-17.583 27.36-15.761 47.799l3.9192 9.9903c-2.5717-3.8563-6.1648-3.8819-6.6316-15.632 13.265-32.879 10.729-23.37 15.072-37.658-5.1057-12.688-61.312-4.9117-64.335-0.23677-1.0984-2.2895-4.0847-4.579 2.6053-6.8685z" filter="url(#a)" opacity=".599" stroke="#000" stroke-width=".16747"/>
  <path transform="matrix(.49719 0 .13097 .14208 91.288 1028.5)" d="m72.208-250.7c15.61-1.2755 21.379-1.7845 28.494-11.198 1.5337 14.91-28.706 11.735-27.205 20.686-3.1455-2.7736-4.872-6.1221-1.2887-9.4878z" filter="url(#a)" opacity=".599" stroke="#000" stroke-width=".1737"/>
  <path transform="matrix(.49719 0 .13097 .14208 91.288 1028.5)" d="m76.061-248.44-3.4511 0.0189c-10.145 7.7283-14.78 15.551-18.22 22.483 1.9619-0.3133 2.851 5.1121 2.1676 7.4972 0.53417-1.034 1.3493-4.5641 1.8899-5.6644 1.1824-0.37889 3.8073-3.5936 6.3333-7.8693 2.7488-4.6528 4.3904-8.8811 3.8425-9.79 2.1357-2.6409 4.5676-4.9557 7.4374-6.6753z" filter="url(#a)" opacity=".599" stroke="#000" stroke-width=".15916"/>
  <path transform="matrix(.49719 0 .13097 .14208 91.288 1028.5)" d="m31.508-207.7c12.469-15.28 27.21-22.327 25.443-19.584l1.7504 1.2947c-6.1452 0.94723-15.526 7.2792-21.111 12.581-0.47024 0.44649 0.01392 2.5542-0.07839 2.4997-0.0079 0.17839-0.61711-1.619-1.493-0.30164-0.84834 1.2759-0.96896 2.4873-0.87748 3.7464l-1.883-0.80585c-1.8302 1.2233-0.72075 0.87701-1.2104 3.7336-0.08562-1.1931-1.8391-1.3686-0.54039-3.1644z" filter="url(#a)" opacity=".599" stroke="#000" stroke-width=".12505"/>
  <path transform="matrix(.49719 0 .13097 .14208 91.288 1028.5)" d="m70.506-231.25c26.18-8.6705 35.844-11.921 44.911-26.57 7.4515 17.357-45.098 27.317-39.636 37.472-6.259-1.9232-10.287-5.1904-5.2744-10.902z" filter="url(#a)" opacity=".599" stroke="#000" stroke-width=".25831"/>
  <path transform="matrix(.49719 0 .13097 .14208 91.288 1028.5)" d="m75.202-227.52-4.0509 1.5402c-8.5342 13.552-10.544 24.792-11.542 34.458 2.1699-1.2314 5.6018 4.759 5.847 7.865 0.17351-1.4511-0.4203-5.9619-0.26837-7.4939 1.2241-0.96573 2.8977-5.9013 3.9882-12.042 1.1867-6.6817 1.258-12.377 0.21375-13.205 1.3505-4.0456 3.1928-7.838 5.812-11.123z" filter="url(#a)" opacity=".599" stroke="#000" stroke-width=".19987"/>
  <path transform="matrix(.49719 0 .13097 .14208 91.288 1028.5)" d="m26.359-175.16c19.365-15.439 39.329-20.171 36.432-17.274l1.8042 2.0542c-7.7939-0.47069-20.99 4.8075-29.253 9.8308-0.6958 0.42299-0.66176 3.1385-0.76055 3.047-0.05703 0.21687-0.32711-2.1511-1.7523-0.76701-1.3803 1.3404-1.8503 2.7952-2.0726 4.3648l-2.0969-1.4895c-2.5713 1.0149-1.1177 0.8848-2.4778 4.2606 0.21201-1.4871-1.8935-2.1684 0.17778-4.0274z" filter="url(#a)" opacity=".599" stroke="#000" stroke-width=".15703"/>
  <g transform="matrix(.4551 0 .11988 .13005 40.847 1024.4)" filter="url(#a)" opacity=".599" stroke="#000">
   <path d="m268.25-214.22c3.341 0.58451 6.5129 1.9535 9.7021 3.5713l1.565 7.1429 3.4261-4.5242 0.94713 0.49594 1.5844 4.8004 1.8858-3.1168c0.6701 0.30392 1.3326 0.5852 2.0184 0.8587l1.1883 3.6002 1.5824-2.6067c0.43915 0.13604 0.86906 0.2693 1.3164 0.38629 2.1612 1.2139 3.4164 4.4511 5.5643 6.9065-0.50697-4.82-1.7886-7.3401-3.4777-8.5827-3.8441-1.871-7.785-2.8754-11.578-4.1155l0.0888-0.11589-1.4221-0.33434c-3.7907-1.3272-7.3782-3.0405-10.479-6.2916l-3.9123 1.9254z" stroke-width=".27525"/>
   <path d="m246.68-226.3c-0.20562 2.8012 1.7128 3.3679 2.8449 4.6397 3.8905 3.5456 7.8591 7.1504 13.199 8.1811 2.8336 0.8299 5.9513 1.0643 9.152 1.0508 0.90698-1.469 1.7731-3.4962 1.2463-4.4943-4.8926 1.1884-9.6435 1.5745-13.392-0.11405-3.2013-1.2175-5.6261-3.7944-7.6262-6.8607-0.97717-1.3802-1.9294-2.793-2.8627-4.2306-0.83467 0.51907-1.7268 0.53533-2.5302 1.632l-0.0288 0.17911-2e-3 0.017z" stroke-width=".28376"/>
   <path d="m236.08-260.09c5.5646 4.3237 5.8969 20.75 7.4108 34.444 3.2864 3.3753 6.3048 5.2767 7.2059-4.4605-7.4667-9.186-4.772-21.411-6.4532-32.327-2.9017-1.463-5.8481-3.4801-8.1636 2.344z" stroke-width=".3984"/>
  </g>
  <path transform="matrix(.49719 0 .13097 .14208 91.288 1028.5)" d="m195.01-256.69c-6.5193 1.5205-28.166 0.85808-54.901-5.71l-0.48403-2.741c20.236 3.9494 45.128 5.4959 60.027 0.9577l-3.4624 5.4231c1.4812 0.83758 0.96525 1.5701-1.1788 2.0702z" filter="url(#a)" opacity=".599" stroke="#000" stroke-width=".35846"/>
  <path transform="matrix(.49719 0 .13097 .14208 91.288 1028.5)" d="m282.31-198.97-0.32078 1.57c0.57621 0.28703 1.1453 0.57318 1.6978 0.86138 1.2089 0.63058 1.4527 5.1767 1.6078 5.013 0.11874 0.35618 2.4957-2.4885 5.0286-0.3319 2.453 2.0886 1.2084 3.3271 1.7516 5.9252l1.4109-3.4594c4.4075 1.4143 6.117 3.9341 6.4339 8.0841 1.9175-3.3505 4.4347-6.9877 0.77039-9.867-5.7244-3.9809-12.85-4.7946-18.38-7.7955z" filter="url(#a)" opacity=".599" stroke="#000" stroke-width=".26294"/>
  <path transform="matrix(.49719 0 .13097 .14208 91.288 1028.5)" d="m284.18-197.03c-2.622-4.2042-14.313-15.171-31.757-25.702l-1.6863 1.1835c12.67 8.5067 26.523 20.706 31.959 30.871l1.0198-4.6518c1.214 0.33519 1.3265-0.31838 0.46419-1.701z" filter="url(#a)" opacity=".599" stroke="#000" stroke-width=".26531"/>
  <path transform="matrix(.49719 0 .13097 .14208 91.288 1028.5)" d="m258.32-220.58c-3.8148-7.0932-21.636-26.102-48.834-45.003l-2.8588 1.7438c19.665 15.12 40.865 36.354 48.623 53.41l2.1393-7.4394c1.9344 0.67031 2.185-0.37815 0.9304-2.7109z" filter="url(#a)" opacity=".599" stroke="#000" stroke-width=".43126"/>
  <path transform="matrix(.49719 0 .16589 .17996 108.04 1044.2)" d="m142.48-298.92c0 2.9289-2.2952 5.3033-5.1265 5.3033s-5.1265-2.3744-5.1265-5.3033 2.2952-5.3033 5.1265-5.3033 5.1265 2.3744 5.1265 5.3033z" fill-rule="evenodd" filter="url(#a)" opacity=".599"/>
  <g transform="matrix(.49307 0 0 .49307 62.836 1091.8)" stroke="#000">
   <path d="m211.62-267.62c4.5961-24.173 5.8634-42.644 20.096-52.506 0.40145-10.711-9.2287-8.0274-10.88-3.0284-3.572 10.815-9.3896 36.063-19.52 49.64 3.4729-1.9629 9.818 1.399 10.304 5.8946z" stroke-width=".27937"/>
   <path d="m266.16-247.46v1.4941c0.83296 0.15479 1.6564 0.30984 2.4585 0.46998 1.7552 0.35043 3.2937 4.458 3.4533 4.2794 0.25153 0.30312 2.6074-2.7391 6.5086-1.2418 3.7783 1.4501 2.4773 2.8138 3.8867 5.0858l0.92372-3.4236c6.1618 0.46933 9.0803 2.4522 10.609 6.1842 1.6176-3.4187 3.9453-7.2111-1.6343-9.1575-8.5778-2.5681-18.145-1.9815-26.205-3.6907z" stroke-width=".29382"/>
   <path d="m269.82-246.56c-1.3006-4.2674-8.9127-16.53-21.63-29.753l-1.7423 0.63633c9.0364 10.351 18.242 24.189 20.601 34.296l1.971-3.808c0.97772 0.57442 1.2279 0.0322 0.80012-1.3712z" stroke-width=".23888"/>
   <path d="m249.62-274.89c-0.2203-6.4156-6.2394-26.292-18.997-49.404l-2.6586 0.23633c8.71 17.749 16.358 40.409 15.877 55.336l4.1563-4.5599c1.1454 1.1622 1.6948 0.50156 1.6223-1.6083z" stroke-width=".34374"/>
  </g>
  <path d="m128.58 963.28c-0.355-0.01-0.64761 0.0646-0.87201 0.22981l-1.8856 0.75422c4.9311 2.9541 13.242 5.9081 12.256 8.8622-4.2698 4.2162-8.2304 9.9723-14.896 11.313 3.1347 1.3362 5.7144 3.5181 8.2376 5.9278l-0.22981 4.6373 3.2703-1.6734 0.58328 0.56567 0.22397 3.2703 1.9091-1.2845c0.41808 0.37144 0.84394 0.73773 1.2787 1.096l0.16506 2.4512 1.6027-1.0783c0.28566 0.20649 0.57702 0.40913 0.872 0.6069 1.3042 1.3355 1.577 3.5971 2.6399 5.6567 0.54118-2.9727 0.11532-4.8177-0.84853-6.0338-2.3737-2.2064-4.9871-3.9352-7.4422-5.7569l0.082-0.0413-0.94286-0.60693c-2.7765-2.1327-5.2765-4.4782-6.8764-7.9253 5.9663-4.2096 13.217-8.8302 13.199-11.125-4.4321-5.5968-9.8417-9.7747-12.327-9.8462z" stroke="#000" stroke-width=".18856"/>
  <path d="m141.85 953.22c-0.7061-1.4201 23.046-25.442 39.643 7.6564 12.151 24.232-48.147 11.301-39.643-7.6564z" stroke="#000" stroke-width=".19676"/>
  <path d="m81.71 958.63c6.7218-11.487 19.924-11.937 23.87-4.7758 5.0847 17.65-37.196 24.13-23.87 4.7758z" stroke="#000" stroke-width=".15226"/>
  <path transform="matrix(.3202 0 0 .15842 -33.02 927.56)" d="m540.01 184.36c0 19.332-76.27 63.367-93.012 53.701s-16.742-97.735 0-107.4 93.012 34.368 93.012 53.701z" fill-rule="evenodd"/>
  <path transform="matrix(.19144 0 0 .19144 39.572 901.94)" d="m526 286.36c0 11.598-6.4919 21-14.5 21s-14.5-9.402-14.5-21 6.4919-21 14.5-21 14.5 9.402 14.5 21z" fill-rule="evenodd"/>
  <path transform="matrix(.19144 0 0 .19144 42.253 901.94)" d="m526 286.36c0 11.598-6.4919 21-14.5 21s-14.5-9.402-14.5-21 6.4919-21 14.5-21 14.5 9.402 14.5 21z" fill-rule="evenodd"/>
  <path d="m99.115 954.08h13.204a0.57736 2.166 0 0 1 0.57736 2.166v1.0286a0.57736 2.166 0 0 1 -0.57736 2.166h-13.204a0.57736 2.166 0 0 1 -0.57736 -2.166v-1.0286a0.57736 2.166 0 0 1 0.57736 -2.166" fill-rule="evenodd"/>
  <path transform="matrix(.1837 -.1837 .1837 .1837 -43.75 919.45)" d="m365 565.86c0 15.74-7.6112 28.5-17 28.5s-17-12.76-17-28.5 7.6112-28.5 17-28.5 17 12.76 17 28.5z" fill-rule="evenodd"/>
  <path transform="matrix(.25093 -.06724 .06724 .25093 -9.093 841.73)" d="m365 565.86c0 15.74-7.6112 28.5-17 28.5s-17-12.76-17-28.5 7.6112-28.5 17-28.5 17 12.76 17 28.5z" fill-rule="evenodd"/>
  <path d="m83.955 963.67c-6.9375 2.1977-7.3682 6.2602-6.684 9.769 2.3552-4.8594 5.7909-5.2325 9.3576-3.2906l-2.6736-6.4784z" stroke="#000" stroke-width=".10283"/>
  <path d="m58.101 937.21c9.3199-2.6834 15.518-8.8191 27.351-7.8772 3.5356 0.72436 2.2342 15.231 9.9792 24.52l5.0159 4.1178c-2.3663-1.4416-3.8347-0.95192-8.0512-6.3733-5.8795-17.205-3.6507-12.41-6.7835-19.689-6.4223-5.2116-26.589 6.2669-26.216 8.872-1.2308-0.91572-3.2286-1.5678-1.2956-3.571z" stroke="#000" stroke-width=".08162"/>
  <path d="m66.278 938.72c10.943 0.43834 21.315-2.9389 32.114 1.2846 2.9116 1.6355-8.6696 13.49-7.7714 23.568l1.9324 4.9259c-1.268-1.9014-3.0397-1.914-3.2698-7.7074 6.5407-16.211 5.2903-11.523 7.4316-18.568-2.5174-6.2558-30.231-2.4218-31.722-0.11672-0.54157-1.1289-2.014-2.2577 1.2846-3.3866z" stroke="#000" stroke-width=".08258"/>
  <path d="m98.439 968.23c7.6966-0.62889 10.541-0.87988 14.049-5.5215 0.75627 7.3516-14.154 5.7863-13.414 10.2-1.5509-1.3676-2.4022-3.0186-0.63541-4.6781z" stroke="#000" stroke-width=".08564"/>
  <path d="m100.34 969.35-1.7016 0.01c-5.0024 3.8106-7.2873 7.6678-8.9834 11.086 0.96735-0.15448 1.4057 2.5206 1.0688 3.6966 0.26338-0.50982 0.6653-2.2504 0.93186-2.7929 0.58302-0.18682 1.8772-1.7719 3.1227-3.8801 1.3553-2.2941 2.1647-4.379 1.8946-4.8271 1.053-1.3021 2.2521-2.4435 3.6671-3.2913z" stroke="#000" stroke-width=".07848"/>
  <path d="m78.37144,989.43435c6.14827-7.53395 13.41618-11.00872 12.54512-9.65614l.86306.63837c-3.03.46705-7.6555,3.58915-10.40897,6.2035-.23187.22016.0069,1.2594-.03863,1.2325-.0042.0879-.30428-.79829-.73617-.14872-.41829.62909-.47777,1.22642-.43267,1.8472l-.92844-.39734c-.90239.60314-.35537.43242-.59681,1.84091-.04224-.58828-.90681-.67479-.26645-1.56028z" stroke="#000" stroke-width=".06166"/>
  <path d="m97.6 977.82c12.908-4.2751 17.674-5.8777 22.144-13.101 3.6741 8.5584-22.236 13.469-19.543 18.476-3.0861-0.94826-5.0722-2.5592-2.6006-5.3756z" stroke="#000" stroke-width=".12736"/>
  <path d="m99.915 979.66-1.9974 0.7594c-4.2079 6.6822-5.199 12.224-5.6908 16.99 1.0699-0.60716 2.7621 2.3465 2.8829 3.878 0.08559-0.7155-0.20723-2.9396-0.13227-3.695 0.60358-0.47617 1.4287-2.9098 1.9664-5.9373 0.58514-3.2945 0.62025-6.1027 0.10546-6.511 0.6659-1.9948 1.5743-3.8646 2.8657-5.4842z" stroke="#000" stroke-width=".09855"/>
  <path d="m75.83266,1005.4761c9.54818-7.61249 19.39167-9.94553 17.96315-8.517l.88959,1.01287c-3.84291-.23207-10.34962,2.37043-14.42384,4.84723-.34308.2086-.32629,1.5475-.37499,1.5024-.02807.107-.16128-1.0606-.864-.3782-.68055.661-.91231,1.3782-1.02194,2.1521l-1.0339-.7344c-1.26782.5004-.55109.4363-1.22174,2.1008 .10448-.7333-.93361-1.0692.08767-1.9858z" stroke="#000" stroke-width=".07743"/>
  <g transform="matrix(.45132 0 0 .45132 16.527 1077.7)" stroke="#000">
   <path d="m268.25-214.22c3.341 0.58451 6.5129 1.9535 9.7021 3.5713l1.565 7.1429 3.4261-4.5242 0.94713 0.49594 1.5844 4.8004 1.8858-3.1168c0.6701 0.30392 1.3326 0.5852 2.0184 0.8587l1.1883 3.6002 1.5824-2.6067c0.43915 0.13604 0.86906 0.2693 1.3164 0.38629 2.1612 1.2139 3.4164 4.4511 5.5643 6.9065-0.50697-4.82-1.7886-7.3401-3.4777-8.5827-3.8441-1.871-7.785-2.8754-11.578-4.1155l0.0888-0.11589-1.4221-0.33434c-3.7907-1.3272-7.3782-3.0405-10.479-6.2916l-3.9123 1.9254z" stroke-width=".27525"/>
   <path d="m246.68-226.3c-0.20562 2.8012 1.7128 3.3679 2.8449 4.6397 3.8905 3.5456 7.8591 7.1504 13.199 8.1811 2.8336 0.8299 5.9513 1.0643 9.152 1.0508 0.90698-1.469 1.7731-3.4962 1.2463-4.4943-4.8926 1.1884-9.6435 1.5745-13.392-0.11405-3.2013-1.2175-5.6261-3.7944-7.6262-6.8607-0.97717-1.3802-1.9294-2.793-2.8627-4.2306-0.83467 0.51907-1.7268 0.53533-2.5302 1.632l-0.0288 0.17911-2e-3 0.017z" stroke-width=".28376"/>
   <path d="m236.08-260.09c5.5646 4.3237 5.8969 20.75 7.4108 34.444 3.2864 3.3753 6.3048 5.2767 7.2059-4.4605-7.4667-9.186-4.772-21.411-6.4532-32.327-2.9017-1.463-5.8481-3.4801-8.1636 2.344z" stroke-width=".3984"/>
  </g>
  <path d="m202.03071,993.73931-.15811.77412c.28414.14153.56466.28261.83713.42472 .59606.31091.71625,2.55247.79266,2.47176 .0584.17561 1.23062-1.22699 2.47943-.16365 1.2095,1.0298.59579,1.64046.86367,2.92154l.69568-1.70571c2.1732.69734 3.01617,1.93981 3.17234,3.98601 .9455-1.652 2.18668-3.44539.37987-4.86508-2.82248-1.96283-6.33606-2.36407-9.06267-3.84369z" stroke="#000" stroke-width=".12965"/>
  <path d="m202.95 994.7c-1.2929-2.073-7.0573-7.4802-15.658-12.673l-0.83143 0.58353c6.2469 4.1943 13.078 10.209 15.758 15.221l0.50284-2.2936c0.59856 0.16527 0.65414-0.15698 0.22897-0.83871z" stroke="#000" stroke-width=".13082"/>
  <path transform="matrix(.49307 0 0 .62455 65.102 1146.3)" d="m142.48-298.92c0 2.9289-2.2952 5.3033-5.1265 5.3033s-5.1265-2.3744-5.1265-5.3033 2.2952-5.3033 5.1265-5.3033 5.1265 2.3744 5.1265 5.3033z" fill-rule="evenodd"/>
  <path d="m143.06 954.01c-0.66887-1.3451 21.829-24.098 37.549 7.252 11.509 22.952-45.604 10.704-37.549-7.252z" fill="url(#c)"/>
  <path d="m161.19 945.71c-3.1418 0.0283-6.0172 1.1442-8.3336 2.5001 0 0.01 0.0139 0.0322 0 0.0361-17.12 6.7575 5.9045 13.014 23.769 19.385 2.4502-1.5407 3.2768-4.2925 1.1232-8.5872-5.1616-10.293-11.211-13.382-16.558-13.334v1.1e-4z" fill="url(#e)"/>
  <path d="m111.71 949.17c-3.2453-0.33595-2.7797 5.41-1.4433 8.6603 13.45 6.6062 28.243-1.383 21.362-4.0415-6.7971-2.626-11.75-3.7732-19.919-4.6188z" fill="url(#f)"/>
  <path transform="matrix(1.5942 -.80725 .80725 1.5942 -129.79 556.56)" d="m15.773 256.31c0 1.8531-2.4924 3.3553-5.567 3.3553s-5.567-1.5022-5.567-3.3553 2.4924-3.3553 5.567-3.3553 5.567 1.5022 5.567 3.3553z" fill="url(#d)"/>
  <path d="m158.99 965.28c-3.2144 0.7497-13.888 0.42308-27.07-2.8154l-0.2387-1.3515c9.9777 1.9473 26.99 1.999 34.336-0.23858 0.99969-0.44462 2.0861-1.2939 2.4787 1.0944 0.73028 0.41298-8.4485 3.0645-9.5056 3.311l-1.4e-4 2e-5z" stroke="#000" stroke-width=".17674"/>
  <path d="m190.21 983.08c-1.881-3.4974-10.668-12.87-24.079-22.19l-1.4096 0.85982c9.696 7.4552 20.149 17.925 23.975 26.334l1.0548-3.6681c0.9537 0.3305 1.0774-0.18646 0.45865-1.3367z" stroke="#000" stroke-width=".21264"/>
 </g>
</svg>
