<?xml version='1.0' encoding='utf-8'?>
<svg xmlns="http://www.w3.org/2000/svg" version="1.1" id="Layer_1" x="0px" y="0px" viewBox="0 0 1800 1920" style="enable-background:new 0 0 1800 1920;"> <style type="text/css"> .st0{fill:#82969E;stroke:#010101;stroke-miterlimit:10;} .st1{fill:#5A7F8A;} .st2{fill:#A3AFB4;} .st3{fill:#9FB6C5;stroke:#010101;stroke-miterlimit:10;} </style> <path class="st0" d="M900.6,1887.7c-3.4,0.9-11.3,0.2-27.3-23.7c-20.6-37.8-33-68.6-23.8-76.5c7.5-6.5,27.6,4,28.4,1.9 c1.2-3-39.2-11.6-56.8-41.6c-12.8-22-11.5-52.2-1.9-56.8c7.5-3.6,20.5,8.1,20.8,7.6c0.4-0.6-26-11-35.9-32.2 c-11.4-24.3,0.8-58.5,13.2-60.5c7.1-1.2,10,9,27,15.8c14.6,5.9,29.3,5.2,29.8,3.1c1-4.5-63.3-7.3-77.6-41.6 c-10.2-24.6,6.9-61.1,24.6-64.3c14.3-2.6,30.7,16.3,32.4,14.2c0.8-0.9-2.3-5.2-6.1-8.8c-10.9-10.1-20.6-7.5-30-14 c-9.4-6.4-16.9-20.6-13.5-28.6c7.8-18.3,73.4-7.2,73.8-11.1c0.2-2-17.9-1.6-31.9-14.7c-4.8-4.4-4.2-5.9-14.2-19.4 c-14.9-20.2-17.3-18.6-18-23.2c-2.9-20.8,49.9-34.9,48.2-60.5c-0.5-8.3-6.6-14.1-4.3-26.5c1.6-8.4,5.2-9.7,5.2-16.1 c0-11.9-12.4-13.5-17-26.5c-5.7-15.8,3.1-39.9,17.5-50.1c4.2-3,8.2-4.3,9.9-9c2.9-7.8-5-12.8-5.7-23.2 c-0.9-14.7,14.3-18.5,12.8-29.8c-1.4-10.3-14.5-10.4-32.2-29.3c-8.7-9.3-15.4-16.5-14.2-24.1c2.6-16.4,40.4-23.6,40.2-24.1 c-0.2-0.4-25.9,11.5-55.8,9.9c-9.1-0.5-33.6-1.7-38.3-14.2c-4.8-12.8,12.8-30.9,23.7-39.3c15.2-11.8,26.3-11.7,56.8-20.8 c38.5-11.4,61.8-23.7,62-23.2c0.2,0.6-30.9,13.6-64.8,25.5c-38.5,13.5-50.3,15-63.4,12.3c-6.9-1.4-27.9-5.8-35.9-21.8 c-7.5-14.8,4.1-24.3-4.3-43.5c-4.7-10.9-13.4-19.3-19.9-25.5c-12.3-12-17.7-12.1-18.9-18c-3.1-15.7,31.6-33.1,29.3-37.4 c-1-2-9.5-0.6-35.5,9.5c-14.7,2.1-32.7,1.9-44.9-9c-17.6-15.5-12.3-43-25.5-46.8c-12.1-3.5-21.3,18.2-36.4,15.1 c-13.3-2.7-19.7-22.4-23.2-33.1c-3.3-10.1-8.1-24.9-0.9-35c7.7-11,25.6-10.9,25.5-11.4c-0.1-0.5-21.1,7.2-44,4.3 c-5.8-0.7-26-3.3-42.1-18c-21-19.1-16.6-41.7-34.3-49c-9.1-3.7-18.9-1.2-25.5,1.4c-5.8-1.2-22-5.3-30.5-19.2 c-12.8-20.9,0.5-50.2,15.6-65.3c12.5-12.4,24.2-13.3,56-23.4c18.7-5.9,41.3-14.1,66.7-25.5c-16.6,4.4-53.1,14.3-86.6,25.5 c-17.2,5.8-23.4,8.5-29.8,12.1c-17.4,9.6-19.3,15.9-31.9,19.2c-17.1,4.5-31.9-2.2-34.8-3.5c-3.3-1.5-18.5-8.7-24.8-24.8 c-6.2-15.7-0.5-30.9,5-44.7c12.8-32.4,32.4-43.2,28.4-50.7c-4.3-7.9-26.1,3.8-58.9-1.1c-11.3-1.7-43.4-6.5-56.8-28.4 c-16.4-27,2.7-68.3,21.8-91.1c7.4-8.8,19.7-20.7,87-48.2c56.6-23.2,95.8-34.3,95.5-35c-0.2-0.8-49.5,6.2-106,34.1 c-54.5,26.9-80.8,56.2-90.8,48.2c-8.1-6.5,0.1-32.9,11.4-52c24-40.9,66.1-55.5,113.5-72.8c159.7-58.4,93.1-43.3,159.9-61.5 c171.2-46.8,350.3-76.1,350.5-74.7c0.4,2.4-583.9,105.7-588.9,83.2c-1.6-7.3,56.5-31.9,392.6-121.1c168.2,4.1,285.5-16.4,366.1-38.8 l0,0c49.5-14.8,94.2-6.8,210,19.9c13.2,3,26.7,6.2,40.7,9.5c3.2,11.7,6.3,23.3,9.5,35c-17-3-41.8-6.3-71.9-6.6 c-36.4-0.3-65.3,3.9-65.3,4.7c0.1,0.9,33.7-4.4,79.5,0.9c18.8,2.2,35.2,6.2,68.1,14.2c32.6,7.9,49.3,12,69.1,20.8 c20.6,9.1,36.2,19.2,46.4,26.5c8.5,15.8,17,31.5,25.5,47.3c2.9,42-6.5,58.5-17,65.3c-12.6,8.1-30,4.2-34.1,14.2 c-2.8,7,4.3,12.4,5.7,24.6c1.6,13.6-5.1,25.7-11.4,34.1c-38.8-9.2-86.7-17.3-141.9-19.9c-54.6-2.5-102.7,1.1-141.9,6.6 c31.5-3.9,68.9-5.6,110.7-1.9c17.2,1.5,33.3,3.8,48.2,6.6c13.7,0.6,30.6,1.5,50.1,2.8c52.2,3.6,65.1,6.3,73.8,17 c8.7,10.8,8.6,24.1,8.5,30.3c-0.3,33.9-30.4,54.4-34.1,56.8c-4.4,19.9-8.8,39.7-13.2,59.6c0.8,16.8-3.6,26.9-9.5,33.1 c-8.7,9.2-19.8,8.8-22.7,17c-2.7,7.5,3.3,16.6,9.5,23.6c1.3,5.1,3,15.3,0,27.4c-3.8,15.4-13.1,24.8-17,28.4 c7.3,2.8,28.2,12.2,37.8,34.1c6.5,14.7,4.8,28.4,2.8,44.5c-1.6,13.3-3.2,26.2-12.3,39.7c-10.3,15.3-24.2,22.5-31.2,25.5 c4.6,2.3,15.6,8.6,23.7,21.8c8.1,13.3,8.6,26,8.5,31.2c-2.8,3.2-5.7,6.3-8.5,9.5c-27.4-5-66-10.6-112.6-12.3 c-92.2-3.3-161.8,10.7-161.8,11.4c0.1,0.6,62.3-11.6,147.6-6.6c46.2,2.7,84.1,9.5,109.7,15.1c2.8,4.5,6,10.9,7.6,18.9 c4.3,21.9-6.3,39.5-9.5,44.5c-11,11.4-22.1,22.7-33.1,34.1c-5.8,1.9-9.6,7.1-9.5,12.3c0.1,6.7,6.8,13,15.1,12.3 c2.2,11,4.4,22.1,6.6,33.1c-20.8,25.9-41.6,51.7-62.4,77.6c0.3,6,0.4,14.5-0.9,24.6c-1.4,10.7-3.7,28-11.4,38.8 c-18.5,26-72,19.1-109.7,14.2c-13.9-1.8-42.7-6.4-42.6-7.6c0.2-1.9,78.5-0.4,84.2,22.7c1.1,4.6-0.9,9.2-4.7,18 c-6.4,14.5-15.9,23.6-21.8,28.4c8.8,18.6,7.1,29.5,3.8,35.9c-8.1,16-29.8,13.3-43.5,31.2c-8.6,11.3-9.8,25-9.5,35 c-20.5,16.4-41,32.8-61.5,49.2c-3.9,16.8-11.1,25.9-17,31.2c-11.4,10.2-22.3,9.8-27.4,20.8c-3,6.4-0.1,8.2-0.9,22.7 c-0.7,12.7-1.7,30.4-13.2,38.8c-2.7,1.9-8.2,5.1-18,4.7c0.6,10.1,1.3,20.2,1.9,30.3c-6.3,12.6-12.6,25.2-18.9,37.8 c-6.6,2.3-15.2,6.6-19.9,15.1c-6.4,11.7-0.1,21.7-5.7,32.2c-3.2,6-10.7,13.1-30.3,16.1c3.1,5.7,7,14.4,8.5,25.5 c2.8,19.9-3.4,35.7-6.6,42.6c2.7,6.5,5.4,15.5,5.7,26.5c0.8,28.6-15.6,48.9-20.8,54.9c2.8,6,6.4,15.1,8.5,26.5 C914.6,1851.7,911.9,1884.6,900.6,1887.7z"/> <path class="st1" d="M894.9,1828.1c-3.7,0.7-12.9-13.9-9.9-27c2.2-9.7,9-10.1,11.8-19.4c3.8-12.7-6.9-18.7-9-35.5 c-2.1-17.4,8.2-18.3,11.4-43.5c1.4-11.3,4.2-32.9-7.1-52c-6.2-10.5-13.4-14.9-11.8-22.2c1.9-8.5,12.8-7.8,17-18 c4.2-10.2-4.2-16.9-0.9-27c1.7-5.4,7-12.3,23.7-17.5c3.4-2.6,15.8-12.9,17.5-29.3c1.9-18.8-11.5-34.1-12.3-35 c-4.8-5.4-9.9-8.3-9-10.4c1.2-2.7,10.1,1.3,22.7-1.4c4.4-0.9,15.9-3.4,20.8-12.8c3.1-5.9,2.3-11.8,1.9-14.2 c-2.5-16.3-19.7-24.2-21.8-25.1c5.6,1.5,14.6,3.4,25.5,2.8c11.1-0.5,21.5-1,27-7.6c6.9-8.3,4.5-24.3-5.4-39.3 c-39.6-17.3-47.8-24.8-46.8-28.4c1.4-5,20.2-0.2,50.4-5.7c22.2-4,50.8-9.2,63.1-29.8c9.3-15.4,3.3-29.2,14.2-35.5 c9.6-5.5,17.3,3.2,30.5-2.8c10.2-4.7,19-16.1,17-24.1c-1.5-6.2-9.1-8.3-8.5-14.2c0.4-4.2,4.4-5.1,4.3-8.5 c-0.3-6.6-16.1-10.1-15.6-12.1c0.4-1.8,13.4,2.1,28.4-1.4c3.3-0.8,17.6-4.1,18.4-10.6c0.6-4.8-7.4-9.7-23.4-19.2 c-35.1-20.8-41-24-40.4-27c1-5.4,21.5-2.1,56-9.9c25.7-5.8,38.1-13,43.3-16.3c7.6-4.8,30.2-19.1,28.4-34.1 c-1.1-9.2-10.8-12.5-9.2-19.2c1.5-6.6,11.7-6.6,21.3-12.1c19.3-11,30.3-41.1,24.8-63.1c-5-20.3-21.8-25.1-19.9-39 c1.6-11.3,14.1-19.1,25.5-24.1c27.6-22,32.6-36.8,30.5-46.8c-4-18.9-34.9-28.3-31.9-39c1.8-6.6,14.2-5.6,17-13.5 c2.8-7.6-5.4-17.7-13.5-25.5c-14.7-9-29.3-18-44-27c7.8-2.7,18.9-7.4,30.5-15.6c9.4-6.6,13-11.1,27.7-26.3 c30.8-31.7,35.5-33,35.5-40.4c0-12.8-14-22.5-34.8-36.9c-16.9-11.7-32.4-18.7-42.6-22.7c19.6-5.4,22.3-14.6,22.7-16.3 c4.4-17.5-30.3-38.1-31.9-39c-23.1-13.4-41.7-10.9-43.3-18.4c-0.9-4.5,4.4-11.9,30.5-24.8c24.4-6.5,39.2-23,37.6-36.2 c-0.7-6.2-5.3-13.2-10.6-17.7c-9.4-7.9-18.8-6.5-19.2-9.2c-0.9-6.6,55.6-7,82.3-41.9c4-5.2,17.6-24.7,11.4-41.2 c-3.3-8.7-11.2-14-54.6-30.5c-37.4-14.2-53.7-18.7-53.2-22.7c0.6-4.6,23.4-3.3,63.9-12.1c32.1-7,37.4-12.1,39-17 c2.9-8.9-7.1-14.7-17.7-36.2c-6.6-13.3-20.3-41.1-10.4-56.3c9.3-14.2,30.5-4,45.4-20.8c9.5-10.7,12.7-28.1,6.6-39.7 c-8.2-15.6-31.7-17.7-47.3-18.9c-80.6-6.3-158.2-5.8-158.9-10.4c-0.8-5.1,93.5-15.3,96.5-42.6c1.8-16.8-31.8-30.1-28.4-37.8 c3.4-7.7,35.1,8.1,92.7,13.2c30,2.7,50.5,1.1,59.6,15.1c5.3,8.2,4.4,18.2,2.8,25.5c21.7,10.9,39.7,19.1,52,24.6 c52.9,23.5,72.6,27.7,88,50.1c6.4,9.3,14,20.4,13.2,35c-2,36.2-54,51.2-50.1,80.4c1.8,13.6,13.9,17.5,11.4,30.3 c-2.8,14-18.7,16.1-19.9,29.3c-0.8,9.6,7.4,11.8,12.3,25.5c5.1,14.2,4.2,33.7-4.7,47.3c-12.3,18.6-32.4,14.9-39.7,32.2 c-4.2,9.7-1.7,20.1,0.9,27.4c-0.9,10.1-1.9,20.2-2.8,30.3c-11,15.5-22.1,30.9-33.1,46.4c8.5,10.3,10.7,20,11.4,24.6 c2.6,17.1-5.2,31.6-7.6,35.9c-5.8,10.5-10.2,11.5-10.4,17c-0.2,6.4,5.4,15.3,30.3,26.5c2.9,7.9,6.7,20.4,8.5,35.9 c2.4,21.1,5.7,49.7-10.4,67.2c-12.1,13.1-30.1,14.6-29.3,20.8c0.6,4.4,9.8,3.5,18,12.3c0.6,0.6,10.7,11.8,8.5,23.6 c-2.5,13.4-18.3,13.3-21.8,26.5c-2.9,10.9,6.9,14.7,8.5,30.3c2.3,21.5-13.5,40.1-18,45.4c-16.6,19.6-33.4,19.9-34.1,32.2 c-0.4,7.6,5.9,10,13.2,27.4c3.7,8.9,5.6,16.6,6.6,21.8c-6.7,12.5-15.9,27.3-28.4,42.6c-10.4,12.7-20.9,23-30.3,31.2 c-2.7,5-5.5,11.3-7.6,18.9c-4.2,15.7-3.3,29.3-1.9,37.8c-19.5,29.3-33.8,34.8-43.5,34.1c-7.7-0.6-15.8-5.3-21.8-0.9 c-4.4,3.2-4,8.6-5.7,16.1c-3.6,15.9-11.4,18-18.9,33.1c-11.1,22.3,0.4,28.9-9.5,43.5c-11.2,16.7-28.2,10.9-40.7,29.3 c-7.9,11.6-1.6,14.6-8.5,28.4c-10.7,21.3-28.5,19.4-62.4,50.1c-6.2,5.6-11.1,10.6-15.1,15.1c-9.5,10.6-19.9,22.1-25.5,37.8 c-5.8,16.2,0.5,17-4.7,30.3c-8.7,22.4-27.2,21.6-33.1,41.6c-4.3,14.4,4.8,16.5,0.9,31.2c-5.8,22.3-27.5,21.5-36.9,46.4 c-5.6,14.8,0.6,19.2-6.6,29.3c-10.6,14.9-29,12.4-31.2,22.7c-1.9,8.6,10.8,11.2,13.2,25.5c2.4,14.1-8.6,19.6-8.5,38.8 c0,11.2,3.8,10.4,4.7,21.8c1.9,22.9-13.1,29-18.9,60.5C895.4,1816.9,898,1827.5,894.9,1828.1z"/> <path class="st2" d="M861.8,1761.9c-3.6-6.4-8-16.2-8.5-28.4c-0.9-20.2,9.7-26.4,8.5-45.4c-1.1-18.8-11.7-17.5-13.2-36.9 c-1.7-21.9,10.8-34.6,2.8-45.4c-4.9-6.6-13.1-6.6-13.2-11.4c-0.2-5.4,10.3-6.5,16.1-15.1c5.3-8,1.2-14.4,0.9-30.3 c0-2-0.4-43,18-51.1c7.2-3.2,12.3,0.8,15.1-2.8c6.5-8.3-17.3-31.9-10.4-41.6c3.9-5.4,13.3-1,17-6.6c5.6-8.4-12.4-23-7.6-34.1 c4.9-11.2,27.7-7,30.3-15.1c1.4-4.6-3.7-12.6-27.4-27.4c12.6-6,25.2-12,37.8-18c-8.1-4.3-11.2-11.7-9.5-15.1c1-2,4.7-4.5,8.7-5.2 c0,0,0.1,0,0.2,0c2.5-0.4,6.1-0.2,11,2.4c-4.3-5.5-7.7-11.7-5.7-16.1c4.7-10.3,35.3-3.5,36.9-9.5c1.7-6.4-32.7-17.6-31.2-26.5 c1.5-9.1,39.2-6.7,41.6-18c1.7-8-16.1-15.2-14.2-22.7c2.5-9.6,33.8-5.2,36.9-15.1c2.9-9.3-22.9-19.6-20.8-30.3 c3-15.4,60.4-13,62.4-27.4c1-7.1-12.3-12.9-10.4-18c2.9-7.8,35.8,1.4,38.8-5.7c3.9-9.1-48.2-32.2-44.5-50.1 c3.2-15.5,45.7-16.2,46.4-29.3c0.5-9.2-20-13.2-19.9-23.6c0.1-13.1,32.8-18.7,32.2-27.4c-0.9-12-63.5-15.2-63.4-21.8 c0.1-5.1,38.6-7,38.8-13.2c0.2-5.7-31.8-8.2-32.2-15.1c-0.7-11.8,91-22.2,90.8-37.8c-0.1-10.8-44-16.8-43.5-30.3 c0.3-7.9,15.6-12.6,14.2-17c-1.7-5.3-24.6-1.1-25.5-4.7c-1.2-4.7,37-15.6,35.9-21.8c-1.4-8.3-73.1-1.5-74.7-11.4 c-0.8-4.7,14.9-8.9,14.2-15.1c-1.1-9.7-40.5-9.3-41.6-18c-1.4-10.5,54.6-24.4,53-34.1c-1.2-6.9-30.5-5.5-33.1-17 c-1.2-5.5,4.5-10.3,1.9-17c-1.5-3.8-4.8-6.2-7.6-7.6c12-7.9,24-15.8,35.9-23.6c-63.5-4.2-80.2-12.8-81.4-20.8 c-1.4-10.2,22.3-19.6,19.9-28.4c-3.5-12.3-53.2-7-53.9-12.3c-0.9-6.8,81.7-9.8,106.9-55.8c2.5-4.5,7.8-14.5,3.8-21.8 c-9.8-17.7-65.8-0.4-68.1-7.6c-1.1-3.5,11.2-12.1,52-30.3c-10.5-7.6-26.4-17.3-47.3-23.6c-44.4-13.5-80.7-2.5-82.3-8.5 c-1-3.6,11.2-12.4,70-35c-6.6-12.5-16.6-25.8-32.2-31.2c-20.2-7-40.1,2.5-42.6-2.8c-3-6.6,27.5-20,25.5-32.2 c-3-19.1-82.7-14.8-85.1-30.3c-1.5-9.1,50.5-11,56.8-33.1c4.1-14.6-12.6-33-34.1-50.1c-30.3-0.8-54.8-3.5-55.8-10.4 c-2.5-17.3,144.3-51.5,142.8-57.7c-1.3-5.4-112,17.1-114.5,7.6c-1.6-6.2,43.7-20.3,41.6-32.2c-1.9-11.3-44.5-10.2-45.4-19.9 c-0.7-7.6,25.3-14.2,24.6-17c-0.8-3.1-34.3-0.6-115.4,18c-35.2,8.1-81.7,19.6-136.2,35.9c-26.7,10.7-48.7,18.5-64.3,23.6 c-17.8,5.9-26.8,8.4-38.8,15.1c-19.6,11-32.6,25.3-40.7,35.9c10.2,2.6,22.3,4.8,35.9,5.7c26.4,1.7,48.6-2.3,64.3-6.6 c16.6,4.8,19.9,8.7,19.9,11.4c0,10.5-52.2,10.2-64.3,38.8c-1.1,2.5-3.8,8.9-0.9,13.2c7.5,11.6,46.6-2.7,48.2,1.9 c1.3,3.7-24.9,13.4-23.6,19.9c1.7,8.9,54-0.1,58.7,12.3c2.4,6.3-6.9,19.3-53.9,48.2c-0.6,6.8-0.5,16.5,4.7,25.5 c24.3,42.1,128.3,15.7,136.2,42.6c2.3,7.7-3.8,18.7-9.5,24.6c-7.7,8-17.5,9.9-21.8,10.4c40.3-0.1,69,2.4,70,9.5 c1.9,13.2-93,35.1-90.8,47.3c2,10.9,80.3,1,84.2,17c3.3,13.7-51.4,32.4-48.2,47.3c4,18.8,96.3,10.4,98.4,24.6 c1.5,10.4-46.1,25-44.5,30.3c1.5,5.1,44.7-9.8,93.7,4.7c8,2.4,27.3,8.1,27.4,16.1c0.2,10.3-31.2,18.6-44.5,21.8 c42.8,11.3,51.5,17.8,51.1,21.8c-0.6,5.5-19.1,5.1-42.6,16.1c-18.5,8.7-31.5,20.5-39.7,29.3c4.4-1.3,78.7-22.2,93.7,2.8 c3.1,5.2,5.2,15,0.9,21.8c-7.6,12.2-31.9,8.5-32.2,11.4c-0.1,1.6,7.4,4.4,36.9,9.5c-56.1,27.4-58.8,42.9-57.7,49.2 c4.3,25.2,91.8,29.4,121.1,30.3c13.7,5.3,16.5,10.8,17,14.2c2.5,17.9-49.8,37.7-57.7,40.7c4.4-0.6,33.6-4.5,50.1,14.2 c3.6,4.1,7.4,8.4,6.6,13.2c-2.8,17.6-59.9,17.3-60.5,27.4c-0.2,3.9,8,9.1,35,16.1c-21.2,15-23.9,21.4-22.7,24.6 c3.7,9.5,46.1-4.3,54.9,10.4c4.3,7.2-1.2,18.3-5.7,25.5c-28.7,2.5-36.3,7.2-36.9,11.4c-1.2,8.2,24,14.8,24.6,29.3 c0.3,7.4-5.9,13.7-11.4,18c18.8,6.2,23.7,11.3,23.7,15.1c-0.2,9.2-28.9,12.9-29.3,24.6c-0.3,7.3,10.8,11.2,9.5,16.1 c-2.2,7.7-31.7,4.9-32.2,8.5c-0.4,3.5,27,6,28.4,15.1c1.1,7.5-17,9-26.5,24.6c-13.3,21.8,5.8,45.4-8.5,60.5 c-7.9,8.4-18.9,6.7-19.9,13.2c-1.3,8.9,19,14.8,18,24.6c-0.9,8.2-15.5,9.1-18.9,20.8c-1.7,5.7,0.1,11.3,1.9,15.1 c-3.8,6-7.6,12-11.4,18c5.2,8.4,9.7,18.8,5.7,25.5c-5.3,8.9-21.2,5.1-24.6,13.2c-3.5,8.5,11.9,17.7,8.5,27.4 c-2.9,8.3-15.7,6.4-20.8,15.1c-3.1,5.3-3.3,14.7,7.6,32.2c-10.1,9.5-20.9,22.8-18.9,36.9c1.9,13.2,13.2,13.9,19.9,31.2 c7.6,20-4.6,26.6,3.8,49.2c4.3,11.6,9.6,15.4,9.5,26.5c-0.1,10.2-4.7,13.8-5.7,21.8C839,1731.6,842.1,1744.3,861.8,1761.9z"/> <path class="st3" d="M856.6,1657.3c-24.3-14.1-45-18.6-60.1-19.9c-18.7-1.6-36.4,1.1-37.4-2.8c-0.7-3,8.7-7.9,17.5-11.8 c9,0,21.9,1,36.4,6.1C835.1,1636.7,849.4,1649.7,856.6,1657.3z"/> <path class="st3" d="M975.8,1629c-5.2-7.4-13.8-17.5-27-26c-10.4-6.8-19.4-9.7-29.3-12.8c-47.4-14.9-66.9-19.9-66.7-20.8 c0.2-0.8,16.7,2.7,83.7,16.1c7.9,1.6,35.9,7.1,65.7,24.1c15.6,8.8,18.7,13.4,18,16.1c-1.2,4.2-12.3,4.8-19.9,5.2 C990.1,1631.4,981.5,1630.2,975.8,1629z"/> <path class="st3" d="M742.1,1401.7c-0.8,5.2,15,14.8,29.8,13.5c8.3-0.8,14-4.7,15.8-5.9c29.3-18.9,100,2.6,100.3,1.2 c0.2-1-31.7-13.2-79.2-15.6C806.1,1394.7,743.7,1391.7,742.1,1401.7z"/> <path class="st3" d="M910.3,1339.3c-0.7,3.2-21.6-1.6-57-0.5c-32.5,1.1-53.2,6.4-54.2,2.8c-0.8-2.9,11.6-8.8,17.7-11.4 c4.8-2,28.5-11.3,61.7-4C893.7,1329.5,910.9,1336.3,910.3,1339.3z"/> <path class="st3" d="M1166.4,1367.9c-0.1-1.7,13.6-1.5,15.1-7.1c2.1-7.8-21-20.6-30.3-25.5c-66.6-35.4-148-53.4-147.6-55.8 c0.3-2,57.1,13.4,137.2,26c15,2.4,50.2,7.7,76.6,34.1c5.7,5.6,15.6,15.7,12.8,23.2C1224.4,1378.3,1166.6,1371.4,1166.4,1367.9z"/> <path class="st3" d="M833.9,1206.1c1.2-3.5-11.5-8-11.4-13.2c0.3-8.9,36.9-17.2,88.9-21.3c61.4-4.8,103-0.4,103.1-1.9 c0.2-1.8-55.8-9.4-123-11.8c-93.5-3.4-67.6,8.1-134.8,13.7c-1.3,0.1-16.1,1.3-28.9,11.4c-2.8,2.2-8.5,6.8-7.6,10.9 c1,4.4,8.9,6.1,14.2,7.1c36.3,7.1,51,3.7,82.8,6.6C823,1208,832.9,1209.1,833.9,1206.1z"/> <path class="st3" d="M1278.5,1195.2c-0.3-2,21-4.2,22.2-12.3c1-6.6-11.9-13.6-15.6-15.6c-45.7-24.8-233.5-66.1-233.7-64.3 c0,0.5,16.1-0.5,95.1,10.9c28.7,4.1,68.4,10.3,117.3,20.3c86.3,17.7,46.1,15.7,81.8,22.2c3.3,0.6,25.3,4.6,44.9,20.8 c5.2,4.3,10.5,8.8,9.5,12.3c-2.1,6.7-25.5,1.5-65.3,2.8C1305.9,1193.4,1278.9,1197.4,1278.5,1195.2z"/> <path class="st3" d="M972,1049.1c0.1,4.3,75.8-5.1,189.4,12.8c148.3,23.3,248.7,75.4,255.4,61.7c2.1-4.2-4.6-14.8-44.7-43.3 c-37.7-12.5-91.8-27.6-158.2-36.2C1084.1,1027.4,971.9,1043.9,972,1049.1z"/> <path class="st3" d="M1232.4,929.9c-0.3-4.6,46.8-10.6,66.7-12.8c45-4.9,68-7.2,90.8,1.4c33.2,12.5,57.6,40.8,53.9,46.8 c-3.1,5.1-25.8-7.7-63.1-18.4C1298,923.1,1232.7,935.3,1232.4,929.9z"/> <path class="st3" d="M702.4,1029.9c-8.4,1.8-31.5,6.4-36.2-2.1c-3.3-6.1,4.4-16.3,7.1-19.9c34.5-45.5,399.5-108.1,399.4-110 c0-0.8-64.8-4.8-176,9.2c-152.8,19.3-133.2,40-270.3,71.7c-16.5,3.8-56.4,12.7-69.5,42.6c-3.5,8.1-4.2,15.7-4.3,20.6 c17.1,4.1,41.3,8,70.2,6.4C657.4,1046.4,684.8,1037.3,702.4,1029.9z"/> <path class="st3" d="M914.8,768.6c0.5,4.1,83.2-0.1,248.8-6.6c80.7-3.2,161.9-2.3,242.2,6.6c42.8,4.8,75.6,14.4,98.4,22.7 c16.3,6,24.8,10.3,24.6,15.1c-0.4,13.7-69.5,19.2-69.1,24.6c0.3,3.8,35.2,4.2,70.9,1.9c54-3.5,90.5-5.8,95.5-21.8 c5.1-16.1-22.2-38.7-35-47.3c-15.2-10.1-29.3-13.4-53.9-18.9c-22.9-5.1-43.9-7.8-54.9-8.5C1408.5,731.5,913.4,756.3,914.8,768.6z"/> <path class="st3" d="M577.5,905.8c7.9,4.7,28.4-17.9,40.4-29.1c64.2-59.4,162.2-45.4,161.8-53.2c-0.4-7.3-86.3-13.7-155.4,16.3 c-20.9,9.1-40.9,21.7-47.5,42.6C574.3,890.2,572.6,902.8,577.5,905.8z"/> <path class="st3" d="M277.2,708c12-12.9,29.3-29.9,52-47.3c112.2-85.8,234.6-87.8,233.7-93.7c-0.8-4.7-80.8-0.2-172.2,30.3 c-52.3,17.5-114.8,39.1-120.1,79.5C268.9,689.4,273.2,700.6,277.2,708z"/> <path class="st3" d="M328.3,630.5c0.4,2.9-23.9,10.3-72.8,18c-68.6,10.7-117.1,18.3-126.8,0c-5.7-10.9,4.6-26.8,11.4-36.9 c29-43.3,74.9-59.8,148.5-84.2c77.9-25.8,116.9-38.7,139.1-44.5c85.4-22.1,153.7-32.8,188.3-37.8c231.8-33.8,565.7-50.3,566.2-43 c0.3,4.1-106.3,8.5-309.3,36.9c-201.9,28.3-248.6,39.4-268.1,45.5c-1.3,0.4-6.8,2.3-14.4,4.7c-30.2,9.4-53.8,14.5-63.8,16.6 c-26.5,5.6-170.1,34.9-235.6,78c-8.7,5.7-21.6,15.4-19.9,24.1c1.5,7.8,14.1,12.2,24.1,15.6C314.7,630.1,328,628.4,328.3,630.5z"/> <path class="st3" d="M931.8,494.2c0.3,3.5,63.4-1,179.7,0.9c87.6,1.4,41.9,3.8,166.5,8.5c1.1,0,55.8,2.1,124.9,19.9 c37,9.5,51.9,16.8,52,24.6c0.3,15.4-57.1,26.1-55.8,32.2c0.8,3.8,23.2,1,64.3-1.9c56.7-4,79.4-3.5,111.6-17c18-7.6,27-11.4,27.4-17 c1.7-23.6-129.8-56.8-238.4-70c-113-13.8-203.6-6.3-292.3,0.9C1001.3,481.1,931.5,490.6,931.8,494.2z"/> <path class="st3" d="M500.9,380.7c1,6.9-90.7,4.7-197.2,63.9c-46.7,26-88.5,59.4-96.5,51.1c-5.7-5.9,9.7-28.8,11.4-31.2 c25.4-37.3,67.5-51,107.8-61C410.6,382.4,499.9,373.9,500.9,380.7z"/> <path class="st3" d="M743.6,315.5c0.4,2.8,49-6.1,190.1-14.2c324.1-18.6,300.9,14.6,407.2-4.3c0,0,61.7-11,154.7,11.4 c10.1,2.4,33.4,8.5,34.1,18.4c0.9,13.6-41.1,22.8-39.7,29.8c1.6,8,59.5,8,119.2-8.5c27.5-7.6,49.2-17,63.9-24.1 c0.1-8.7-1.2-25.2-12.8-36.9c-9.7-9.8-22.1-11.8-28.4-12.8c-31.8-5.1-62.9-16.2-95.1-17c-100.2-2.7-82.5-8.7-143.3-7.1 C1199.9,255.3,742.4,307,743.6,315.5z"/> </svg>