<?xml version="1.0" encoding="UTF-8"?>
<svg viewBox="0 0 300 300" xmlns="http://www.w3.org/2000/svg" xmlns:xlink="http://www.w3.org/1999/xlink">
 <defs>
  <filter id="i" x="-.24685" y="-.4713" width="1.4937" height="1.9426">
   <feGaussianBlur stdDeviation="2.9359"/>
  </filter>
  <filter id="h" x="-.55641" y="-.38975" width="2.1128" height="1.7795">
   <feGaussianBlur stdDeviation="2.4795"/>
  </filter>
  <linearGradient id="a">
   <stop stop-color="#fff" offset="0"/>
   <stop stop-color="#fff" stop-opacity="0" offset="1"/>
  </linearGradient>
  <linearGradient id="g" x1="233.56" x2="177.87" y1="616.62" y2="643.62" gradientUnits="userSpaceOnUse">
   <stop stop-color="#b46734" offset="0"/>
   <stop stop-color="#b46734" stop-opacity="0" offset="1"/>
  </linearGradient>
  <linearGradient id="f" x1="236.83" x2="92.706" y1="501.33" y2="619.44" gradientUnits="userSpaceOnUse">
   <stop stop-color="#fff" stop-opacity=".3959" offset="0"/>
   <stop stop-color="#fff" stop-opacity="0" offset="1"/>
  </linearGradient>
  <linearGradient id="e" x1="213.08" x2="208.17" y1="569.1" y2="581.75" gradientUnits="userSpaceOnUse" xlink:href="#a"/>
  <linearGradient id="d" x1="140.68" x2="137.98" y1="547.32" y2="560.05" gradientUnits="userSpaceOnUse" xlink:href="#a"/>
  <linearGradient id="c" x1="36.475" x2="32.381" y1="525.8" y2="535.36" gradientUnits="userSpaceOnUse" xlink:href="#a"/>
  <radialGradient id="b" cx="399.12" cy="310.91" r="224.76" gradientTransform="matrix(.66047 .72564 -.39418 .38076 -11.887 158.92)" gradientUnits="userSpaceOnUse">
   <stop stop-color="#ffb481" offset="0"/>
   <stop stop-color="#da8044" offset="1"/>
  </radialGradient>
 </defs>
 <g transform="translate(0,-465)">
  <path d="m11.857 523.4c4.8765 5.6243 9.4222 11.79 14.498 17.088 10.218 2.8607 20.431 5.7445 30.653 8.5931 1.0491-3.9165 1.5528-8.4347-0.52717-12.104 6.2909 0.45279 12.225-2.001 17.887-4.4997-21.594-3.7807-43.177-7.6188-64.714-11.735l2.2029 2.6546z"/>
  <path d="m13.87 522.86 13.895 16.701 29.448 8.2628c0.14153-0.58828 0.27525-1.2016 0.37676-1.8602 0.48955-3.1924 0.31234-7.0099-2.2406-9.6403l-0.6402-0.65861 0.90379 0.15093c5.1196 0.78467 10.036-0.4022 14.065-1.9809 0.48462-0.20152 0.95513-0.40218 1.4121-0.57798l-31.745-5.6057-25.475-4.7711z" fill="#ffb380"/>
  <path d="m27.467 538.45-2.1837-7.3111 1.3648-0.56342v-1.9658l3.7359-2.2825-16.292-3.3434z" fill="#ffe8d8"/>
  <path d="m16.569 526.64s6.5625-2.7853 2.3162-3.3785-6.5625-1.1915-6.5625-1.1915z"/>
  <path d="m38.932 537.61-13.102-2.5289 1.9108 4.2181 8.7349 2.5289z" fill="#b2632e"/>
  <path d="m41.116 530.01-12.829-1.9708 3.5486-1.9658 12.556 2.2473z" fill="#ffa162"/>
  <path d="m28.832 528.61 10.1 2.2472-4.0945 4.7813-8.4619-2.2524 1.9108-1.6892z" fill="url(#c)"/>
 </g>
 <g transform="translate(0,-465)">
  <path d="m88.883 479.96c-7.627-0.45279-11.326 7.8022-15.375 12.928-8.4504 10.632-19.638 18.702-29.267 28.193-1.4504 2.549-1.2223 6.0547-3.9917 7.6616-4.6457 6.4403-8.488 13.631-14.603 18.852-6.504 6.4363-15.426 9.6352-13.867 19.745 1.7442 9.4709 12.608 18.925 19.172 24.501 10.738 8.493 26.352 12.779 34.56 24.129 13.07 20.204 19.432 41.505 40.039 54.827 10.262 4.6153 32.66 7.8887 48.129 17.06 9.0983 8.1165 21.78 34.955 30.938 42.929 8.8728 5.7857 9.6688 5.9848 19.74 6.0255 28.681-0.72378 57.485-5.1648 84.578-14.957 4.7762-2.1267 8.9001-8.376 5.7427-13.539-5.424-9.8897-15.304-15.703-23.323-23.127-9.9562-8.0908-18.951-17.412-26.312-28.047-11.754-13.725-22.711-28.667-29.388-45.77-5.8312-17.057-9.6724-34.819-14.095-52.357-4.0876-16.924-7.6303-34.095-12.83-50.658-5.4148-10.115-19.381-14.339-29.034-8.2432-21.03-6.4956-42.721-11.33-63.377-19.203-2.4216-0.63373-4.9259-1.0558-7.4372-0.95017zm8.9435 51.148c3.1764 1.9054 7.9941 2.0161 8.9266 6.3569 1.9911 2.9612 2.6761 7.0889 0.0358 9.9169-4.8698 9.0471-15.539 12.913-25.117 11.251-3.0786-0.4528-7.1035-1.3273-9.2636-2.6797 10.753-5.4006 17.197-16.149 24.835-25.157l0.53543 0.30186 0.04829 0.0171z" fill="#482915"/>
  <path d="m87.772 483.49c-6.1929 0.0429-7.9973 7.3664-11.746 11.08-8.2335 10.005-17.9 18.52-27.906 26.549-1.6668 1.7898-3.0945 4.379-2.3912 6.8857-5.4476 3.0719-6.8214 10.066-11.259 14.276-5.5805 7.6087-14.219 13.197-17.68 22.325-2.1228 6.0532 8.939 12.565 14.365 15.744 12.762 10.54 28.539 18.214 40.371 29.787 11.119 16.041 9.8892 28.784 22.871 43.279 16.555 19.876 61.704 19.17 69.421 26.965 15.144 18.397 22.397 46.024 39.285 49.26 25.43 4.8716 50.236-1.0106 75.076-8.294 4.7442-1.5686 10.944-2.8556 13.318-7.8138 0.58828-5.1106-4.3907-8.6147-7.2549-12.024-13.412-12.861-29.616-22.832-39.789-38.878-7.6564-9.5322-16.211-18.268-21.868-29.283-6.0984-9.2497-11.364-19.165-13.859-30.152-8.782-30.112-15.006-61.057-22.95-91.426-3.8768-9.9822-17.587-14.506-26.059-7.8169-20.153-6.5439-41.065-10.451-60.752-18.414-3.605-1.1865-7.3472-2.2725-11.192-2.0462zm10.073 34.002c4.453 2.6495 9.4314 4.2885 14.291 6.0517 2.8558 7.8616 6.7123 16.986 2.5418 25.099-6.7572 14.47-25.027 19.642-39.107 14.877-6.0012-1.7998-11.552-4.927-16.475-8.8063 3e-4 -6.7162-0.73537-13.513-3.0879-19.804 7.4493 2.8557 15.773 1.2217 22.5-2.6747 7.1788-3.6148 13.793-8.6474 18.923-14.994z" fill="#b46734"/>
  <path d="m195.79 720s-18.304-48.445-22.896-53.965c-10.118-12.162-57.939 2.8419-73.225-17.97-15.284-20.81-17.807-36.578-22.175-41.64s-38.029-25.893-46.218-32.642-11.722-11.711-6.8087-16.772 14.74-15.747 18.016-21.934 8.189-8.4362 11.465 1.1262-6.4991 13.103-6.4991 13.103c0 3.8619 27.244 25.828 47.99 17.267 19.913-8.2176 26.205-22.496 22.383-33.744l-3.8215-11.248s-15.286-5.0617-16.924-7.8736c-9.2808 12.935-25.659 20.246-32.21 20.246s-13.648-3.3735-16.378-6.1864 4.9134-7.8737 9.8268-11.811 21.291-20.246 24.021-25.87 7.643-5.6238 23.475 0.56343 51.863 14.06 54.593 16.309c5.4593-6.749 20.745-4.4996 24.021 8.4363s21.291 93.921 27.842 105.17 13.648 24.746 23.475 35.431 6.5512 9.5609 17.47 21.371 33.302 25.871 36.031 34.869c-26.752 1.1212-81.137 21.369-93.454 7.7639z" fill="url(#b)"/>
  <path d="m57.767 555.6s-8.4884 0.19553-12.157-8.7734c3.5485-10.686 5.8792-16.535 7.517-13.441s6.2782 17.153 4.6404 22.215z" fill="#b46734"/>
  <path d="m97.346 514.55s-3.2756-4.7813-4.9134-10.123c-7.3701 13.498-38.488 25.87-40.945 26.151 10.646 4.4996 6.5512 4.4996 14.74 3.655 6.9831-0.71863 19.654-4.7812 31.118-19.684z" fill="#b46734"/>
  <path d="m114.49 576.4c18.168-3.9165 30.346-21.881 21.62-39.641-4.9922-10.16-21.291-40.493-18.835-26.995s-2.7297 8.7173-2.7297 8.7173l-20.199-8.7173s1.0918 6.186 4.9134 7.5922 14.467 4.4996 14.467 4.4996 6.0052 14.341 4.3674 19.403-12.01 20.246-16.378 21.653-31.911 0.73923-31.911 0.73923c12.509 4.3941 13.898 19.385 44.685 12.749z" fill="#b46734"/>
  <path d="m160.95 513.7s-7.0971-8.9988-12.01-2.8104 0.546 10.686 0.546 10.686 36.031 94.483 40.399 107.98 13.102 28.12 20.745 34.869 46.404 50.053 50.226 51.741 29.658 0.53769 28.934-3.9366c-1.092-6.749-24.294-24.746-30.299-30.37s-21.564-21.934-31.391-35.994-17.743-28.963-19.926-38.524-21.564-83.517-22.656-88.578-3.2756-11.811-9.8268-11.811-14.74-1.1211-14.74 6.749z" fill="url(#g)"/>
  <path d="m102.53 581.75s26.751-0.56343 32.756-19.122 13.648-37.119 18.016-12.373 25.659 75.362 30.026 87.172-26.751-6.7485-41.491-20.809-64.966-33.181-39.307-34.869z" fill="url(#f)" opacity=".6122"/>
  <path d="m54.491 534.23s7.507 9.7149 5.3503 21.245c-3.5485-0.56341-14.277-5.1177-14.55-7.9306s4.327-13.877 5.4188-14.721c-2.7297-2.8104-3.0431-3.3735-3.0431-3.3735l0.54596-1.9658s4.0945 4.2181 7.37 4.2181 16.651-3.0919 21.018-4.4996 5.7323 3.092 5.7323 3.092-6.2782 4.7813-14.467 4.7813c-5.1863 0-13.375-0.8447-13.375-0.8447z" fill="#6f3f20"/>
  <path transform="translate(0,465)" d="m83.417 93.719s24.623 17.337 27.136 20.854c43.13 36.818 97.056 64.325 138.19 83.417-9.6059-12.621-29.155-36.441-31.658-47.739-11.055-0.50251-78.392-43.719-83.417-45.226s-20.1-8.0402-20.1-8.0402-18.886-2.1621-21.106-2.5126c-4.7739-0.75377-9.0452-0.75377-9.0452-0.75377z" opacity=".4531"/>
 </g>
 <g transform="translate(0,-465)">
  <path d="m74.568 533.78c-5.9742 3.1322-13.256 1.6288-19.718 0.88482 3.3087 4.555 3.5706 10.974 4.1987 16.196 62.318 17.483 123.47 34.203 185.79 51.672 16.582-7.8702 23.889-18.705 17.308-37.508-62.507-11.207-122.8-20.947-185.33-32.009z"/>
  <path d="m72.311 535.07c-6.169 1.7647-11.578-0.59344-17.623-0.87481 1.6811 2.3982 4.4118 11.466 3.9594 13.881l184.52 48.156s25.037-7.3859 13.456-27.27c-21.952-3.9919-139.34-25.952-184.31-33.891z" fill="#ffb380"/>
  <path d="m212.71 557.84c-11.316 0.70405-15.781 7.1768-17.24 13.262-1.7748 7.4046 1.1536 12.266 5.2333 17.559l43.878 12.157s27.383-14.642 15.802-34.526c-6.8082-1.2368-24.629-4.3639-47.673-8.4523z"/>
  <path d="m245.63 598.35c2.8444 1.5506 24.755-11.801 14.113-30.703-23.071-0.70836-15.48 25.67-14.113 30.703z" fill="#d35f5f"/>
  <path d="m224.64 592.75 18.43 4.8264s-7.497-24.779 9.0589-30.571c-22.803-2.8959-22.491-2.5742-22.491-2.5742s-12.807 8.3669-4.998 28.319z" fill="#de8787"/>
  <path d="m222.14 591.79-19.992-4.8264s-14.369-18.665 5.9351-26.71c17.493 2.8958 19.68 3.5393 19.68 3.5393s-14.369 8.0446-5.6228 27.996z" fill="#b3b3b3"/>
  <path d="m57.717 542.43 137.38 33.168s0.19621 5.4494 4.5637 10.23c-25.659-6.749-140.98-37.472-140.98-37.472 0.04413-1.6792-0.57007-3.9516-0.96508-5.9255z" fill="#b2632e"/>
  <path d="m204.38 559.55-131.53-24.941s-3.857 0.578-15.628 0.4022c14.194 2.8104 140.85 29.015 140.85 29.015s0.84936-3.0819 6.3087-4.4846z" fill="#ffa162"/>
  <path d="m198.39 574.96 20.074 3.9768s-0.35871-5.7802 2.7297-8.9616c-11.967-2.3881-20.873-3.464-20.873-3.464s-3.9539 4.1427-1.9302 8.4478z" fill="url(#e)"/>
  <path transform="matrix(.60251 0 0 .62069 -37.089 439.35)" d="m433.79 227.84 24.011 4.3039s-0.45305-9.514 3.1713-12.232c-14.724-0.9061-26.05-2.7183-26.05-2.7183s-4.757 6.3426-1.1326 10.647z" fill="#fff" filter="url(#i)" opacity=".2898"/>
  <path transform="matrix(.54496 .26473 -.25698 .5614 5.3241 218.61)" d="m615.72 358.31a4.4849 8.169 0 1 1 -8.9698 0 4.4849 8.169 0 1 1 8.9698 0z" fill="#fff" filter="url(#h)" opacity=".2653"/>
  <path d="m71.579 538.57 124.88 26.048s-3.0883 6.3629-3.0883 8.3518c-8.4927-1.7898-133.37-31.616-133.37-31.616s2.1232-4.7711 11.581-2.7853z" fill="url(#d)"/>
 </g>
</svg>
