<svg width="428.20944" xmlns="http://www.w3.org/2000/svg" height="205.48042" xmlns:xlink="http://www.w3.org/1999/xlink">
<defs>
<filter id="filter4141">
<feGaussianBlur stdDeviation="0.35044" id="feGaussianBlur4143"/>
</filter>
<linearGradient id="linearGradient4241" xlink:href="#linearGradient4089" y1="-Infinity" y2="Infinity" x1="0.221153" x2="0.788462"/>
<linearGradient id="linearGradient4372" xlink:href="#linearGradient4192" y1="0.052928" y2="0.532449" x1="0.620265" x2="0.602845"/>
<linearGradient id="linearGradient4353" xlink:href="#linearGradient4089" y1="-Infinity" y2="Infinity" x1="0.221153" x2="0.788462"/>
<linearGradient id="linearGradient4374" xlink:href="#linearGradient4089" y1="-Infinity" y2="Infinity" x1="0.221153" x2="0.788462"/>
<linearGradient id="linearGradient4237" xlink:href="#linearGradient4089" y1="-Infinity" y2="Infinity" x1="0.221153" x2="0.788462"/>
<linearGradient id="linearGradient4210" xlink:href="#linearGradient4089" y1="-Infinity" y2="Infinity" x1="0.221153" x2="0.788462"/>
<linearGradient id="linearGradient4192">
<stop offset="0" style="stop-color:#888a85" id="stop4194"/>
<stop offset="1" style="stop-color:#888a85;stop-opacity:0" id="stop4196"/>
</linearGradient>
<linearGradient id="linearGradient4208" xlink:href="#linearGradient4192" y1="0.052928" y2="0.532449" x1="0.620265" x2="0.602845"/>
<linearGradient id="linearGradient4089">
<stop offset="0" style="stop-color:#636a72" id="stop4091"/>
<stop offset="0.415797" style="stop-color:#636a72" id="stop4097"/>
<stop offset="0.514924" style="stop-color:#c4c4c6" id="stop4099"/>
<stop offset="1" style="stop-color:#e7e7e7" id="stop4093"/>
</linearGradient>
</defs>
<g>
<g id="layer1" externalResourcesRequired="false">
<g style="stroke-linecap:round;stroke-linejoin:round">
<path style="fill:#c4c4c4;stroke-width:10.3" id="path4341" d="m 98.9588,75.8792 c 0.972382,5.08543 9.39206,16.8168 -1.5957,15.4948 -4.15424,-3.07291 -12.2399,-0.432983 -5.4183,3.68916 6.00317,6.37042 -3.93826,11.8637 -0.972626,18.6018 -1.44092,8.12505 -11.3163,9.93277 -17.4822,13.4131 -1.3548,4.40667 7.38968,-2.13843 10.1911,-1.44222 2.15845,-2.62294 3.6008,1.56367 6.63641,-2.28256 7.16214,1.05374 8.85477,10.4924 16.0603,12.4838 3.79074,3.16228 1.29663,15.5254 6.4729,13.5967 -0.144196,-5.9715 3.51578,-14.0193 10.8113,-11.7597 4.58618,-1.44751 10.02,-5.33695 13.5013,-1.50127 -0.010498,-6.33302 2.8895,-13.9361 10.3924,-13.9544 -8.94235,-5.77475 6.83072,-10.3156 10.6544,-13.0527 -3.71304,-3.66817 -15.9498,0.869934 -16.3756,-8.78118 -1.50473,-6.59293 14.5716,-0.481773 4.22025,-4.29001 -6.2616,-0.292183 -12.9847,-4.50636 -7.478,-10.8462 -2.60712,-5.44628 -10.3253,6.54132 -16.2534,1.65444 -5.38275,-5.35809 -13.8279,4.41687 -17.5027,-4.59314 -1.83639,-2.23959 -3.44977,-4.74573 -5.86179,-6.43045 z  m 13.7925,73.4511 c 0.676788,0.172455 0.052917,-0.760071 0,0 z  m -30.3436,-26.65 c 0.677887,-1.01253 -1.51266,-0.048462 0,0 z  m 8.8833,-11.034 l -.425,-.0832 .425,.0832 z  m -.8883,-2.291 c -0.682159,-0.08625 0.139862,0.532486 0,0 z  m 25.9019,-28.4734 c 0.105652,0.351028 0.105652,-0.351021 0,0 z  m .2338,0 c -0.622131,0.414871 0.411987,0.040337 0,0 z  m -.7481,.3273 c -1.19635,0.956955 0.592041,0.34436 0,0 z  m .6546,.4676 c -0.061005,0.518784 0.46759,-0.647202 0,0 z  m -8.3223,2.4312 c -0.064484,1.29752 0.864288,-0.738991 0,0 z  m .4208,.374 c 0.167023,0.387154 0.276276,-0.432564 0,0 z  m .5143,2.9455 c 0.723907,0.243874 -0.407959,0.095314 0,0 z  m 1.8702,.374 c -0.271393,0.211899 -0.037994,-0.451843 0,0 z  m 1.9637,.1403 c 0.406189,0.267738 -0.358673,0.049187 0,0 z  m .4675,.7013 c -0.504852,0.205177 0.000275,-0.845032 0,0 z  m -.7948,.2805 c -0.466095,0.107056 0.211578,-0.987595 0,0 z  m -13.6523,1.8234 c -0.555664,0.718636 0.681458,0.028595 0,0 z  m 3.4598,.3273 l -.0948,-.1295 .0948,.1295 z  m -3.4598,.2805 v -0.094223 0.094223 z  m 42.4062,6.0781 c -0.970459,0.177177 1.03546,-0.29599 0,0 z  m 2.0572,.4208 c 0.13913,0.69738 0.43045,-0.538651 0,0 z  m -54.0948,11.8289 c 1.11786,0.162041 -1.68515,-0.685196 0,0 z  m .2805,.1403 c 0.235382,0.495079 0.39798,-0.792191 0,0 z  m 1.0753,.7481 c 0.54657,0.419945 0.093689,-0.683464 0,0 z  m -6.2651,10.286 c -0.247345,0.535118 0.233246,-0.520721 0,0 z  m -3.1793,1.3559 c 1.1507,0.141281 -0.238495,-1.0033 0,0 z  m .3741,-.0468 l .0979,-.1083 -.0979,.1083 z  m .3273,.187 c 0.23645,-0.353905 -0.487152,-0.044189 0,0 z  m -.561,.4208 c 0.921326,0.748581 -0.077576,-1.06895 0,0 z  m 67.9341,0 c 0.398865,0.826874 0.607025,-0.719673 0,0 z  m -5.6105,.2805 c 0.334442,0.606583 0.023621,-0.727554 0,0 z  m 8.5093,.374 c 0.624634,-0.112564 -0.335022,-0.589005 0,0 z  m -59.5651,-.0468 l -.1703,-.0723 .1703,.0723 z  m 50.3077,.2805 c -0.104523,0.988144 0.466949,0.067085 0,0 z  m -48.2973,.2338 c -0.463226,1.1283 -0.446167,-0.919373 0,0 z  m -2.665,.2805 c 0.724396,0.683159 0.02478,-0.54763 0,0 z  m -4.6754,.3273 c 0.584229,2.49818 -1.21988,-0.649879 0,0 z  m -2.3845,1.3559 c -1.21317,2.5863 1.3327,-0.543594 0,0 z  m .0468,.7948 c -0.017365,2.71574 1.7178,-1.14909 0,0 z  m 1.0753,.0468 c -1.08316,0.811737 1.32605,0.266365 0,0 z  m -14.7276,2.4312 c 0.57164,-0.388443 -1.25349,-0.52504 0,0 z  m 63.4925,7.1534 c -0.581787,0.893265 0.674744,-0.511002 0,0 z  m 3.7404,.0935 c -0.541718,0.977615 0.411499,-0.26796 0,0 z  m -3.2728,.374 c -0.104492,0.988159 0.466949,0.067078 0,0 z  m 3.5066,1.2624 c -0.920471,1.02481 0.848297,-0.290939 0,0 z  m -.374,.561 c 0.130524,0.865509 0.606628,-0.644653 0,0 z "/>
<path style="fill:url(#linearGradient4237);filter:url(#filter4141);stroke-width:.5" id="path4235" d="m 138.5251,113.089 a 19.6474,19.6474 0 1,1 -39.2947,0 19.6474,19.6474 0 1,1 39.2947,0 z "/>
</g>
<g id="g4366" transform="matrix(1.49614 0 0 1.49614 -4.61091 -112.654)">
<path style="fill:#c4c4c4;stroke:url(#linearGradient4372);stroke-linejoin:round;stroke-linecap:round;stroke-width:.3" id="path3557" d="m 28.5706,90.3568 c -1.78125,3.1875 -3.5625,6.375 -5.34375,9.5625 -2.3125,-2.46875 -4.625,-4.9375 -6.9375,-7.40625 1.59375,4.21875 3.1875,8.4375 4.78125,12.6562 -1.50988,1.63963 -5.12722,3.14985 -5.55104,4.5722 1.91612,-0.002579 4.90902,0.464302 3.52798,3.10629 -0.549011,2.95441 1.5829,6.01287 1.35748,8.54887 -1.67516,1.33494 -2.58281,3.81546 0.46003,3.44803 1.82278,-0.06456 4.29156,0.945747 2.87322,3.11626 -0.486313,1.63892 -1.6165,5.46479 1.43012,3.76015 2.56476,-0.333527 5.56961,-2.04193 7.88382,-1.38806 1.14078,2.90509 -0.504456,6.03415 -0.154503,9.05455 0.842171,-0.971649 1.51057,-3.00566 2.30277,-4.36943 0.974106,-1.37628 1.34499,-3.93919 2.72246,-4.52202 2.51811,-0.198654 6.17758,-3.1851 7.37089,0.7043 0.462852,1.22952 2.02706,3.43861 1.72543,0.576767 -0.606834,-3.27757 0.596451,-6.23023 3.00436,-8.43042 0.779861,-1.8991 3.79971,-0.94825 4.1913,-1.1031 -0.230148,-0.908623 2.26045,0.227097 0.875282,-1.06944 -1.58211,-0.709946 -4.01719,-3.76745 -0.716637,-3.69998 3.15909,0.001892 6.3186,-0.092598 9.47829,-0.148727 -3.48958,-1.35417 -6.97917,-2.70833 -10.4688,-4.0625 0.55838,-0.773438 3.40544,-2.17912 0.831177,-2.01635 -0.857025,-1.31514 3.6803,-1.49983 4.79582,-2.47305 0.863495,-0.174118 3.20899,-1.14129 0.922798,-1.07114 -2.53256,-0.575287 -5.90117,-0.251785 -7.90963,-1.3905 0.103127,-2.63325 2.90115,-4.13888 3.65826,-6.52587 -2.20085,-0.306648 -4.6703,0.899963 -7.00549,0.692802 -1.23194,-0.81562 2.17446,-2.39981 3.12175,-3.12174 0.871498,-0.538918 3.21473,-2.16013 0.87841,-1.3194 -2.23313,0.554268 -4.39223,1.42813 -6.62557,1.87073 -2.04455,-1.495 -0.823189,-5.08926 -2.70073,-6.86032 -1.7111,0.842278 -3.75306,4.23425 -5.30328,3.52101 0.200188,-1.50118 -1.2075,-2.62891 -2.28105,-1.16029 -0.332138,-1.84352 -0.8591,2.17663 -2.2282,1.79716 -2.72639,0.567474 -3.05263,-3.60597 -4.96053,-4.84101 l -.0062,-.0083 z "/>
<g style="stroke-linecap:round;stroke-width:.5;stroke-linejoin:round" id="g4360">
<path style="fill:url(#linearGradient4374);filter:url(#filter4141)" id="path3578" d="m 50.3542,111.7535 a 13.132,13.132 0 1,1 -26.2641,0 13.132,13.132 0 1,1 26.2641,0 z "/>
<path style="fill:#232126" id="path3553" d="m 38.6506,101.6766 c -1.03439,0.88755 -3.30117,3.53298 -4.23631,1.3066 -0.35527,1.72534 -0.91291,-0.106232 -0.9981,1.50362 -0.810478,1.95828 -4.6821,-0.846008 -3.30888,1.45451 -0.14624,2.20936 -1.94717,4.13 -2.43422,5.92727 1.14919,1.43919 0.834,4.0676 2.32412,5.60697 0.570488,1.6653 3.10004,2.07048 4.6908,2.91254 2.037,1.12321 4.47945,-0.749146 6.34477,0.694565 1.35296,1.43263 -0.824173,-2.32675 1.29013,-2.17434 2.52016,0.170738 1.2682,-3.24488 3.89008,-3.04881 1.39632,-0.016586 3.4742,-0.11985 1.01814,-0.681664 -2.53824,-0.782356 -1.03138,-4.09098 -0.02787,-4.43169 -2.31353,0.05378 -2.17679,-3.75689 -2.94555,-4.14181 -1.68366,0.128136 -0.821899,-2.4793 -0.628494,-2.12603 -1.99615,0.964935 -4.24429,-0.218208 -4.76933,-1.8302 -0.03051,-0.329544 -0.057701,-0.669998 -0.20929,-0.971535 z "/>
</g>
</g>
<g style="stroke-linecap:round;stroke-linejoin:round">
<path style="fill:#c4c4c4;stroke:url(#linearGradient4208);stroke-width:.449" id="path4202" d="m 19.7506,131.8991 c -2.665,4.76894 -5.33,9.53789 -7.995,14.3068 -3.45982,-3.6936 -6.91965,-7.38719 -10.3795,-11.0808 2.38447,6.31184 4.76894,12.6237 7.15341,18.9355 -2.25899,2.45311 -7.67103,4.71262 -8.30513,6.84065 2.86678,-0.00386 7.34459,0.694656 5.27836,4.64745 -0.821411,4.4202 2.36824,8.99609 2.03098,12.7903 -2.50629,1.99727 -3.86425,5.70847 0.688263,5.15875 2.72714,-0.096603 6.42078,1.41496 4.29875,4.66237 -0.7276,2.45206 -2.41851,8.17609 2.13965,5.62572 3.83723,-0.499008 8.33293,-3.05502 11.7953,-2.07675 1.70676,4.34645 -0.75473,9.02792 -0.231163,13.5469 1.26,-1.45371 2.26002,-4.49689 3.44527,-6.53728 1.45741,-2.05913 2.01231,-5.8936 4.07318,-6.76559 3.76746,-0.297195 9.24253,-4.76533 11.0279,1.05374 0.69249,1.83955 3.03277,5.14465 2.58149,0.86293 -0.907906,-4.90372 0.892365,-9.32129 4.49493,-12.6131 1.16679,-2.84131 5.68489,-1.4187 6.27078,-1.65039 -0.344337,-1.35942 3.38195,0.339783 1.30954,-1.60002 -2.36706,-1.0622 -6.01028,-5.63663 -1.0722,-5.53569 4.72644,0.002823 9.45353,-0.138535 14.1809,-0.222519 -5.22091,-2.02603 -10.4418,-4.05205 -15.6627,-6.07808 0.835411,-1.15717 5.09502,-3.26027 1.24356,-3.01674 -1.28223,-1.96764 5.50624,-2.24396 7.17522,-3.70003 1.2919,-0.260513 4.80109,-1.70754 1.38063,-1.60259 -3.78906,-0.860703 -8.82897,-0.376709 -11.8339,-2.08037 0.154282,-3.93971 4.34051,-6.19235 5.47325,-9.76363 -3.29278,-0.458786 -6.9874,1.34647 -10.4812,1.03653 -1.84316,-1.22028 3.2533,-3.59045 4.67057,-4.67056 1.30389,-0.806305 4.80969,-3.23187 1.31422,-1.97401 -3.34108,0.829269 -6.57139,2.13669 -9.91277,2.79889 -3.05893,-2.23674 -1.2316,-7.61426 -4.04067,-10.264 -2.56004,1.26015 -5.61511,6.33501 -7.93446,5.26793 0.299507,-2.24599 -1.8066,-3.93323 -3.41277,-1.73596 -0.496933,-2.75816 -1.28534,3.25655 -3.3337,2.68881 -4.07907,0.848999 -4.56716,-5.39505 -7.42165,-7.24283 l -.0093,-.0124 z "/>
<g style="stroke-width:.5">
<path style="fill:url(#linearGradient4210);filter:url(#filter4141)" id="path4204" d="m 52.3419,163.9115 a 19.6474,19.6474 0 1,1 -39.2947,0 19.6474,19.6474 0 1,1 39.2947,0 z "/>
<path style="fill:#232126" id="path4173" d="m 35.2359,148.2087 l -3.6468,3.0858 c -0.809586,0.080917 -1.62479,0.299606 -2.38448,0.514297 l -.2805,-2.3377 -.6078,2.5715 -.8416,-1.6364 .5143,1.7767 c -1.17598,0.45517 -2.24593,1.08725 -3.22605,1.82341 l -3.2728,-1.6364 1.3091,3.4131 c -0.333519,0.379517 -0.649307,0.79805 -0.935089,1.21562 l -.4675,-.187 .4675,.2805 c -0.979355,1.45616 -1.71701,3.12689 -2.01044,4.90921 l -1.3091,.561 -.6078,.187 .0468,.0468 -.2338,.0935 1.9637,.7948 c -0.002563,0.103012 0,0.17691 0,0.280518 0,3.10466 1.1582,5.97333 3.0858,8.18202 l -.7013,1.4961 1.5429,-.6078 c 0.527107,0.498688 1.12244,0.950531 1.7299,1.35588 1.71693,2.85915 4.82412,4.76895 8.36904,4.76895 1.93236,0 3.71871,-0.563156 5.23649,-1.54289 l 1.2624,1.1689 -.7481,-1.5429 c 1.44851,-1.07281 2.58183,-2.50438 3.27281,-4.2079 l .9351,.6546 -.7948,-1.0286 c 0.061958,-0.172852 0.134445,-0.337143 0.187019,-0.514297 0.035957,-0.0439 0.057587,-0.097977 0.093506,-0.140274 l .3273,.1403 -.187,-.2338 c 0.624474,-0.755402 1.10477,-1.59878 1.54289,-2.47798 l 6.0313,-.0935 -5.1897,-2.0572 c 0.296104,-1.05574 0.467545,-2.17442 0.467545,-3.31957 0,-0.358109 -0.016457,-0.724716 -0.046753,-1.07535 l 2.852,-1.0754 -3.039,-.4208 c -0.368935,-1.72946 -1.13074,-3.32587 -2.1507,-4.7222 l .9351,-1.4026 -1.9169,.2338 c -0.343468,-0.368713 -0.689781,-0.695816 -1.07535,-1.02861 l .5611,-1.1221 -.5611,-.0468 1.7299,-1.2624 -3.6468,1.0753 c -1.13416,-0.662766 -2.37025,-1.18326 -3.6936,-1.49614 l 1.0286,-1.5429 -1.2624,.8884 -.6546,-2.7585 z "/>
</g>
<g id="g4355" transform="matrix(1.49614 0 0 1.49614 18.2249 -108.997)">
<path style="fill:#c4c4c4;stroke-width:10.3" id="path4308" d="m 93.1019,73.7943 l 5.125,10.4062 c -0.913017,0.474823 -1.78191,1.01585 -2.59374,1.625 l -1.5625,-.875 .3437,1.0938 -9.0625,-3 5.9062,7.5625 c -1.02837,1.66698 -1.76788,3.50781 -2.15625,5.46875 l -4.75,-.0312 4.5938,.8438 c -0.114212,0.783363 -0.156258,1.59151 -0.156258,2.40625 0,0.982338 0.114639,1.93844 0.281258,2.875 l -.3125,.5 -14.375,8.2188 11.5625,-3.4688 -1.3125,2.25 2.125,-2.4688 3.5312,-1.0625 c 1.11616,2.44014 2.80292,4.58339 4.90625,6.28125 l -1.7187,2.9062 2.1875,-2.5625 c 1.07725,0.813919 2.24355,1.53051 3.49999,2.09375 l 3.25,11.9375 3.3125,-10.375 c 0.353226,0.019707 0.704124,0.0625 1.0625,0.0625 3.71455,0 7.19353,-1.06623 10.0625,-2.90625 l 3.6875,3.9062 -1.4062,-5.6875 c 1.72347,-1.54904 3.10943,-3.41529 4.09374,-5.5 l 7.9063,.5625 -7.3438,-1.8438 c 0.286903,-0.769577 0.518738,-1.55826 0.687508,-2.375 l .6875,-1.0312 10.4375,-5.125 -11.1562,-.6875 c -0.525345,-2.42479 -1.58845,-4.66488 -3.0625,-6.59375 l 9.75,.6875 -11.9062,-3 c -0.314995,-0.286377 -0.632668,-0.57914 -0.96875,-0.84375 l 3.8125,-7.75 -7.8438,5.3438 c -2.03468,-0.879852 -4.27029,-1.40041 -6.62499,-1.5 l -1.875,-3.5625 -.9687,3.6562 c -1.40081,0.148598 -2.74453,0.432198 -4.03126,0.875 l -7.625,-9.3125 z "/>
<g style="stroke-width:.5">
<path style="fill:url(#linearGradient4241);filter:url(#filter4141)" id="path4239" d="m 119.8165,98.1023 a 13.132,13.132 0 1,1 -26.2641,0 13.132,13.132 0 1,1 26.2641,0 z "/>
<path style="fill:#232126" id="path4212" d="m 108.0299,89.421 l -2.0109,1.7327 h -0.018616 c -0.45063,0.045052 -0.899155,0.147049 -1.32201,0.266548 l -.149,-1.2947 -.3538,1.428 -.4469,-.9139 .2793,1.0092 c -0.654587,0.253349 -1.26055,0.59935 -1.80612,1.00913 l -1.8247,-.9139 .7448,1.904 c -0.185654,0.211243 -0.362289,0.43399 -0.521355,0.66642 l -.2607,-.0952 .2421,.1523 c -0.545128,0.810532 -0.935257,1.73069 -1.09859,2.72277 l -.7448,.3237 -.3352,.1142 .0372,.019 -.1303,.0571 1.08,.4189 c -0.001434,0.05735 0,0.113701 0,0.171371 0,1.72812 0.640053,3.32124 1.71301,4.55065 l -.391,.8378 .8751,-.3427 c 0.849213,0.803421 1.89934,1.39814 3.07226,1.73267 h 0.018616 c 0.592575,0.167465 1.21752,0.283272 1.86198,0.304642 l .0558,.2475 v -0.247528 c 0.055801,0.001404 0.111511,0 0.16761,0 0.83651,0 1.63375,-0.133446 2.38329,-0.380806 l 1.6758,1.5423 -.8751,-1.866 c 0.778221,-0.360336 1.48798,-0.841766 2.08541,-1.42803 l .7075,.457 -.5213,-.6474 c 0.084251,-0.089005 0.162865,-0.19236 0.242043,-0.285599 l .1862,.0762 -.1117,-.1333 c 0.347603,-0.420464 0.631271,-0.881516 0.87513,-1.37089 l 3.3329,-.0571 -2.8674,-1.1424 c 0.16481,-0.587646 0.260666,-1.2095 0.260666,-1.84691 0,-0.199341 -0.020386,-0.395081 -0.037224,-0.590248 l 1.6013,-.6093 -1.713,-.2285 c -0.20536,-0.962654 -0.623924,-1.85034 -1.19165,-2.62757 l .5213,-.7997 -1.0613,.1523 c -0.19117,-0.205246 -0.399826,-0.405022 -0.614441,-0.590256 l .3165,-.6283 -.3165,-.0191 .9682,-.6854 -2.0295,.5902 c -0.63131,-0.368919 -1.31157,-0.66362 -2.04819,-0.837784 l .5772,-.8568 -.7075,.495 -.3724,-1.5423 z "/>
</g>
</g>
<path style="fill:#232126;stroke-width:10.3" id="path4219" d="m 114.4687,97.6954 l -.4618,2.5863 c -1.27673,0.431671 -2.40744,1.09077 -3.41763,1.93973 l -3.3253,-.2771 1.4779,2.2168 c -0.79364,1.11448 -1.43408,2.41299 -1.755,3.78711 l -1.1084,.7389 .9237,.2771 c -0.061554,0.464462 -0.092377,0.904366 -0.092377,1.38554 0,4.43457 2.71317,8.25571 6.55814,9.88341 1.16202,2.31782 3.57748,3.97186 6.37344,3.97186 3.92602,0 7.11237,-3.14497 7.11237,-7.02 0,-0.454567 -0.100983,-0.954956 -0.184723,-1.38553 0.956146,-1.6031 1.57025,-3.4495 1.57025,-5.44974 0,-2.52664 -0.936584,-4.81822 -2.40158,-6.65053 l .4619,-.5542 -.8313,.0924 c -1.02017,-1.14004 -2.27371,-2.0577 -3.69473,-2.67869 l .4618,-1.4779 -2.0321,1.0161 c -0.872009,-0.229538 -1.73492,-0.461853 -2.67868,-0.461853 -0.614014,0 -1.2615,0.085373 -1.84738,0.184753 l -1.1084,-2.1245 z "/>
</g>
<g id="g4346" transform="matrix(1.49614 0 0 1.49614 11.8466 -124.623)">
<g style="stroke-linejoin:round;stroke-linecap:round;stroke-width:.5">
<path style="fill:#c4c4c4" id="path4243" d="m 107.9144,170.763 l 4.6875,12.75 c -0.754715,1.09445 -1.39771,2.28863 -1.9092,3.56114 -0.12455,0.309937 -1.92883,0.124496 -2.03752,0.44342 -0.108307,0.317795 1.47891,1.13989 1.38697,1.46599 -0.373833,1.32559 -0.610252,2.71729 -0.690247,4.15445 l -7.0625,3.2812 7.3438,1.375 c 0.418159,2.24747 1.23305,4.33637 2.34375,6.1875 l -7.4375,3.4375 13.4375,2.5313 c 2.23373,1.28778 4.77392,2.03124 7.46874,2.03124 0.310593,0 0.599983,-0.043381 0.906258,-0.0625 l 7.6875,6.2812 -3.2812,-7.2188 c 1.89535,-0.730347 3.62694,-1.84489 5.125,-3.25 l .8125,.1562 8.3438,6.8125 -5.4062,-11.9688 v -0.03125 c 0.444046,-0.899353 0.794525,-1.85916 1.09375,-2.84375 l 2.5625,2.0938 -2.0312,-4.4688 c 0.179337,-1.05954 0.3125,-2.1335 0.3125,-3.25 0,-2.80498 -0.602585,-5.45312 -1.65625,-7.8125 l .2188,-.6562 -.3438,.3438 c -1.00845,-2.15213 -2.41135,-4.06525 -4.09375,-5.59375 l 2.6875,-7.5 -5.5938,5.4062 c -1.73853,-0.981598 -2.53204,-1.80759 -4.56342,-2.03354 -0.28997,-0.032257 -0.582237,-5.68111 -0.876617,-5.69635 -0.257988,-0.013367 -1.64262,5.79239 -1.90372,5.79239 -2.31416,0 -4.50983,0.532715 -6.49999,1.5 l -.7813,-.2188 -10.25,-7 z "/>
<path style="fill:url(#linearGradient4353);filter:url(#filter4141)" id="path4231" d="m 138.8165,192.8523 a 13.132,13.132 0 1,1 -26.2641,0 13.132,13.132 0 1,1 26.2641,0 z "/>
<path style="fill:#2e3436" id="path4214" d="m 128.8113,201.5511 c 2.43498,-0.632385 4.09611,-2.50653 3.89487,-4.27246 l .7518,.1599 -1.1591,-1.6039 c 0.122864,-0.243713 0.226242,-0.503662 0.318985,-0.760834 l .2655,.0279 -.2431,-.066 c 0.314362,-0.894501 0.449295,-1.86618 0.360687,-2.83804 l .6171,-.4831 .3013,-.2074 -.0605,.0157 .1053,-.0919 -1.1003,-.134 c -0.01265,-0.05423 -0.025192,-0.097046 -0.039261,-0.151245 -0.421646,-1.6235 -1.41055,-2.98549 -2.71851,-3.87868 l .1587,-.8807 -.7303,.5448 c -0.993835,-0.547607 -2.14432,-0.851105 -3.32785,-0.879211 -0.597557,-0.012787 -1.21434,0.046204 -1.825,0.18338 l -.1234,-.2263 .0629,.2419 c -0.052757,0.012299 -0.098549,0.025604 -0.151237,0.039276 -0.785881,0.204086 -1.50016,0.528992 -2.14399,0.944244 l -1.9499,-1.0434 1.2723,1.5422 c -0.643204,0.528397 -1.20218,1.1449 -1.62039,1.84145 l -.7754,-.2506 .641,.4792 c -0.057449,0.104187 -0.089401,0.220306 -0.141029,0.327209 l -.205,-.0436 .1603,.1198 c -0.223984,0.479828 -0.407265,0.971054 -0.516975,1.49033 l -3.0997,.8696 2.9669,.3595 c -0.011467,0.592285 0.058113,1.21832 0.213615,1.81715 0.048637,0.187271 0.108192,0.35733 0.171654,0.536575 l -1.3631,.9675 1.6581,-.2046 c 0.427811,0.854263 1.04025,1.59792 1.76324,2.18957 l -.2876,.8819 .9589,-.4105 c 0.229691,0.146179 0.469269,0.273544 0.71608,0.395203 l -.1454,.6835 .3025,-.0785 -.7346,.9011 1.3643,-.8386 c 0.713882,1.60211 3.02924,2.40967 5.43563,1.78473 z "/>
<path id="path4302" d="m 125.7224,186.9729 c -0.43396,-0.009262 -0.878395,0.054169 -1.34375,0.15625 -0.010422,0.000107 -0.020828,0.000107 -0.03125,0 -0.020622,0.010834 -0.041466,0.02124 -0.0625,0.03125 -0.191162,0.04451 -0.205414,0.029007 -0.093742,0 -0.010429,0.000107 -0.020836,0.000107 -0.03125,0 -0.581688,0.154205 -1.10311,0.402298 -1.59376,0.71875 -0.090034,0.049561 -0.184128,0.0914 -0.28125,0.125 -0.010284,0.010559 -0.020706,0.020966 -0.031242,0.03125 -0.056595,0.077789 -0.119301,0.15094 -0.1875,0.21875 -0.508125,0.417435 -0.926613,0.888428 -1.21876,1.375 -0.02861,0.053619 -0.059906,0.105789 -0.09375,0.15625 0.054192,-0.098236 -0.00602,0.003616 -0.124992,0.25 0.000359,0.020844 0.000359,0.041687 0,0.0625 -0.192268,0.41188 -0.338791,0.77446 -0.40625,1.09376 -0.03788,0.130447 -0.090294,0.256241 -0.15625,0.374985 8.4e-05,0.010437 8.4e-05,0.020828 0,0.03125 0.041206,0.152863 0.062218,0.310455 0.062492,0.468765 -0.008026,0.415451 0.041954,0.872299 0.15625,1.31249 0.058853,0.2267 0.112007,0.400787 0.125008,0.4375 0.028252,0.091949 0.049164,0.186005 0.0625,0.28125 0.058769,0.078949 0.111031,0.162567 0.15625,0.25 0.312393,0.62384 0.752899,1.16138 1.28125,1.59375 0.066978,0.057861 0.129646,0.120529 0.1875,0.1875 0.021019,0.010025 0.041862,0.020432 0.0625,0.03125 0.086418,0.035187 0.170006,0.076981 0.25,0.125015 0.179893,0.114487 0.382835,0.223923 0.562492,0.312485 0.279564,0.145081 0.516518,0.360489 0.6875,0.625 0.414063,0.175385 0.748207,0.498383 0.937508,0.90625 0.212029,0.475876 1.54632,1.23993 3.31249,0.78125 1.77939,-0.462128 2.59053,-1.79236 2.53125,-2.3125 -0.009964,-0.156921 0.000549,-0.314499 0.03125,-0.46875 l -.0938,-.125 c -0.397675,-0.546951 -0.457916,-1.26978 -0.15625,-1.875 0.107086,-0.212433 0.172531,-0.357086 0.21875,-0.46875 0.009567,-0.031525 0.019974,-0.06279 0.03125,-0.09375 0.236893,-0.674072 0.343155,-1.41463 0.28125,-2.09375 -0.010895,-0.114304 -0.010895,-0.229431 0,-0.34375 -0.040573,-0.101135 -0.071945,-0.205719 -0.09375,-0.3125 -0.044388,-0.190399 -0.058594,-0.199081 -0.03125,-0.09375 -0.310074,-1.19391 -1.04738,-2.19321 -2,-2.84375 -0.043671,-0.039612 -0.085388,-0.081329 -0.125,-0.124985 -0.021027,-0.010025 -0.04187,-0.020432 -0.0625,-0.031265 -0.07489,-0.026428 -0.147964,-0.057739 -0.21875,-0.09375 -0.713287,-0.39299 -1.59358,-0.634705 -2.5,-0.65625 z "/>
</g>
<path style="fill:#e2e2e3;fill-rule:evenodd" id="path4304" d="m 112.1024,204.1195 c 10.3255,9.96526 12.6262,7.62485 14.0502,7.61517 -5.90632,-1.86911 -17.465,-11.9579 -14.0502,-7.61517 z "/>
</g>
</g>
</g>
</svg>
