<?xml version="1.0" encoding="UTF-8"?>
<svg viewBox="0 0 286.93 179.71" xmlns="http://www.w3.org/2000/svg">
 <defs>
  <filter id="x">
   <feGaussianBlur stdDeviation="1.566493"/>
  </filter>
  <filter id="z" x="-.51866" y="-.1281" width="2.0373" height="1.2562">
   <feGaussianBlur stdDeviation="1.012616"/>
  </filter>
  <filter id="ac" x="-.23833" y="-.062674" width="1.4767" height="1.1253">
   <feGaussianBlur stdDeviation="0.458075"/>
  </filter>
  <filter id="ad" x="-.20218" y="-.058861" width="1.4044" height="1.1177">
   <feGaussianBlur stdDeviation="0.458075"/>
  </filter>
  <filter id="ab" x="-.13197" y="-.050618" width="1.2639" height="1.1012">
   <feGaussianBlur stdDeviation="0.329922"/>
  </filter>
  <filter id="aa" x="-.3635" y="-.11588" width="1.727" height="1.2318">
   <feGaussianBlur stdDeviation="1.012616"/>
  </filter>
  <filter id="w">
   <feGaussianBlur stdDeviation="0.495427"/>
  </filter>
  <filter id="u" x="-.12177" y="-.052298" width="1.2435" height="1.1046">
   <feGaussianBlur stdDeviation="1.214068"/>
  </filter>
  <filter id="v">
   <feGaussianBlur stdDeviation="1.041304"/>
  </filter>
  <filter id="an" x="-.41776" y="-.16802" width="1.8355" height="1.336">
   <feGaussianBlur stdDeviation="0.927503"/>
  </filter>
  <filter id="am" x="-.58109" y="-.12081" width="2.1622" height="1.2416">
   <feGaussianBlur stdDeviation="0.927503"/>
  </filter>
  <filter id="af" x="-.30291" y="-.11234" width="1.6058" height="1.2247">
   <feGaussianBlur stdDeviation="0.927503"/>
  </filter>
  <filter id="y">
   <feGaussianBlur stdDeviation="0.847997"/>
  </filter>
  <filter id="ae" x="-.34653" y="-.17129" width="1.6931" height="1.3426">
   <feGaussianBlur stdDeviation="0.927503"/>
  </filter>
  <filter id="ag" x="-.28356" y="-.11234" width="1.5671" height="1.2247">
   <feGaussianBlur stdDeviation="0.927503"/>
  </filter>
  <filter id="al" x="-.53176" y="-.11234" width="2.0635" height="1.2247">
   <feGaussianBlur stdDeviation="0.927503"/>
  </filter>
  <filter id="ah" x="-.35979" y="-.12422" width="1.7196" height="1.2484">
   <feGaussianBlur stdDeviation="0.927503"/>
  </filter>
  <filter id="ak" x="-.42053" y="-.11234" width="1.8411" height="1.2247">
   <feGaussianBlur stdDeviation="0.927503"/>
  </filter>
  <filter id="ai" x="-.4341" y="-.1269" width="1.8682" height="1.2538">
   <feGaussianBlur stdDeviation="0.927503"/>
  </filter>
  <filter id="aj" x="-.38284" y="-.11528" width="1.7657" height="1.2306">
   <feGaussianBlur stdDeviation="0.927503"/>
  </filter>
 </defs>
 <g transform="rotate(34.804 34.714 113.18)" fill-rule="evenodd">
  <path d="m-96.59-55.376l18.322 2.0026-10.993 19.359 23.207-18.024 18.322 5.3404-1.8321 7.343-21.986 24.032-19.543 22.696s-15.268 20.694-18.322 28.704c-3.0536 8.0105-8.55 18.024-9.7715 26.034-1.2215 8.0106-2.4429 18.691-0.61076 21.362 1.8322 2.6702 18.932 8.6781 18.932 8.6781l13.436-0.6676 6.1072 3.3377 152.07-2.6702 3.6644-8.0106 71.454-9.3456 78.782 0.6676 23.818-2.0027 3.0536-1.3351 11.604 0.6675s14.046 8.6781 15.879 15.354c1.8322 6.6754 1.8322 18.691 0.61069 25.367-1.2215 6.6755-5.4965 18.024-9.7714 22.029-4.275 4.0053-14.657 6.0079-14.657 6.0079l-9.1608-4.6728-37.254-0.6675-66.568 4.6728-67.179-4.0053-6.1072-4.6729-148.4 4.0053-3.0536 4.0052-10.382 0.6676-26.261 15.354s-10.993 11.348-14.047 18.691c-3.0535 7.343-9.1608 21.362-9.1608 30.707 0 9.3456 4.275 23.364 4.275 23.364l0.6107 12.683-4.275 28.037s-3.6643 6.6754-9.7714 9.3457c-6.1072 2.6701-34.811 1.335-39.086-1.3351-4.2751-2.6702-15.879-10.681-18.322-15.354-2.4429-4.6728 5.4964-39.385 5.4964-39.385l11.604-14.686s3.6643-12.683 3.6643-19.359c0-6.6755-9.1608-24.699-9.1608-24.699l-5.4965-11.348 2.4429-26.702s8.55-42.723 10.382-50.066c1.8322-7.343 14.046-36.048 18.322-45.393 4.275-9.3456 25.039-37.383 29.314-41.388 4.275-4.0053 46.414-44.058 45.804-44.726v-2.3e-5z" fill="#1d1d1d"/>
  <path d="m-96.59-55.376l-46.414 47.396-16.489 18.024-7.9393 13.351 30.536 13.351 15.268-22.697 17.1-14.686 36.643-32.042 18.932-12.683-18.932-7.343-55.575 50.066-21.986 20.694 9.7715-14.018 24.429-25.367 23.818-22.029 7.9393-10.013-17.1-2.0026z" fill="#fff" filter="url(#x)"/>
  <path d="m-167.43 22.726l30.536 14.018-6.6068 13.155-20.265-5.8124-11.098-5.2998 7.4334-16.062z" fill="#a9a9a9" filter="url(#w)"/>
  <path d="m-88.04-35.35l-29.314 24.032-25.039 26.702 41.529-45.393 18.322-16.689-5.4964 11.348z" fill="#707070"/>
  <path d="m-174.76 39.415l29.925 10.013-17.1 44.058-0.6107-12.683-6.1071-8.6781-9.7715-4.6728-9.1608-0.6675 12.825-27.369h-1.5e-5z" fill="#f7f7f7" filter="url(#v)"/>
  <path d="m-162.12 95.098l-6.8226 25.562-3.4854 20.08-1.1167 23.506-12.825 6.6755-16.489-18.024 4.275-37.383 6.7179-32.042 4.275-16.689 12.825 2.0026 7.3286 5.3404 5.4965 9.3456-0.1789 11.625z" fill="#9d9d9d" filter="url(#u)"/>
  <path d="m-136.9 182.27l-18.322 3.3378-17.1-16.021" fill="none" stroke="#626262"/>
  <path d="m-175.37 206.3l15.879-1.0681 0.6107 38.184-27.238-4.6728 8.9164-22.43 1.8322-10.013z" fill="#515151"/>
  <path d="m-138.12 239.01l-9.7715 1.6021-12.825 1.0681-23.207-6.0079 9.5271-27.636 14.291-0.4005 4.8857-4.0053 15.879-10.681 6.1071-18.024 8.0104-12.154 8.3742-8.108 23.923-13.782 2.4428-16.021-0.6107-10.013-1.2214-7.343-4.275-2.6702-12.214-2.6701-6.1072-3.3378-3.0536-3.3377v-11.348l-2.4429-0.6675 0.506-17.754 2.4429-11.463 6.8227-15.508 9.1608-16.689 10.993-15.468 12.356-14.686 16.348-16.574 12.214-14.686 0.8637-7.5385-30.789 24.895-23.818 21.362-21.375 21.362-15.879 20.694-11.604 30.04-12.825 33.377-6.1072 34.045-1.8322 20.026-0.6107 4.9398-13.436 6.008-14.336-14.767 11.283 25.848-0.0394 19.399-3.0142 8.6376-11.604 13.351-5.4965 41.388 19.543 12.683 31.757 3.3377 10.382-4.0053s7.3286-4.6728 7.3286-7.343 4.8858-29.372 3.0536-29.372h-1.5e-5z" fill="#9a9a9a"/>
  <g fill="none">
   <path d="m-192.47 271.05l7.3286-34.712" filter="url(#aa)" stroke="#fcfcfc" stroke-width="2.4"/>
   <path d="m-185.75 232.34c2.4429-2.6702 5.4965-13.351 5.4965-13.351l3.0536-14.018" filter="url(#ab)" stroke="#c9c9c9"/>
   <path d="m-152.17 277.06l3.9086-30.974" filter="url(#z)" stroke="#cecece" stroke-width="2.4"/>
  </g>
  <path d="m-158.88 241.01l-1.2214-33.418 14.583-10.64-2.3688 16.021-0.6107 10.681 4.8857 16.689-7.9393 0.6675h-7.3286z" fill="#dbdbdb"/>
  <path d="m-144.23 239.68l7.3286-0.6676-1.2214-10.013-3.6273-15.549-0.8266-7.4981-0.0381-4.6921 3.637-8.7088-6.4736 2.0027-3.6643 20.427 0.6107 8.0106 4.275 16.689h1.5e-5z" fill="#7f7f7f"/>
  <path d="m-92.687 140.78h10.58l2.3751-4.2483 13.819-0.472 4.1025-4.9563 2.3751-6.1364 0.6477-7.0804v-4.9563l-0.8636-4.0122-0.8637-3.0682-24.831-2.8321-6.2617 1.6521 0.6478 10.385-0.4318 14.161-1.2955 11.565v-3.1e-5z" fill="#e0e0e0"/>
  <path d="m-61.594 128.75l-18.569-0.2361s-3.0229 4.0122-4.5343 4.0122c-1.5115 0-7.1254 0.23604-7.1254 0.23604l-0.4319 7.5524 10.58 0.4721 2.3751-4.2483 14.035-0.944 3.6707-6.8444z" fill="#959595"/>
  <g fill="none" stroke="#6f6f6f">
   <path d="m-87.073 138.42s6.2617-6.8444 7.3413-14.633c1.0796-7.7884-1.7274-18.409-1.7274-18.409" filter="url(#ad)"/>
   <path d="m-91.175 137.01s5.398-8.0245 6.0458-13.925c0.64776-5.9004-1.2955-16.993-1.2955-16.993" filter="url(#ac)"/>
  </g>
  <path d="m-117.95 85.794l-0.4318 8.7325 2.1591 3.3042 6.4777 3.3042 13.819 4.0122 2.807 1.4161 2.591 10.149-0.2159-10.621v-1.6521h1.9433l0.8636 1.8881 2.5911-3.0682 2.3752 0.7081 1.0796 2.1241 1.5114-2.3601 3.2388 0.944 5.398 0.9441 11.444-0.9441 0.2159-5.1923 129.98-6.1363-0.216-1.4161-150.5 2.8322-6.4776-3.7762-13.171 0.472-11.228-4.2482-6.0458-2.5962-0.2159 1.1801z" fill="#454545" stroke="#4e4e4e"/>
  <path d="m-65.049 135.83l120.48-3.3042s9.2846-10.857 9.0687-21.713c-0.2159-10.857-7.3413-16.521-7.3413-16.521l-116.17 6.3724-1.0796 4.7203s2.807 8.4965 1.2955 16.049c-1.5114 7.5524-6.6936 14.633-6.2617 14.397z" fill="#2b2b2b"/>
  <path d="m55.651 132.52l15.546-0.236s11.444-3.3042 13.171-13.453c1.7274-10.149-1.7274-20.533-1.7274-20.533l-16.626 0.7081-5.1821-0.944s6.0458 8.4964 2.807 17.937c-3.2388 9.4405-7.9891 16.285-7.9891 16.521z" fill="#d0d0d0"/>
  <path d="m83.289 98.774s-3.2388-5.1923-6.2617-6.3724c-3.0229-1.18-5.614 0.23603-5.614 0.23603l-2.1592 1.1801-10.58 0.472 2.5911 4.0123 4.3184 1.18 17.706-0.708z" fill="#707070"/>
  <g fill="none" stroke="#000">
   <path d="m147.85 104.67s5.1821 6.3724 3.6706 12.981c-1.5114 6.6084-7.1254 9.9126-7.1254 9.9126" filter="url(#an)"/>
   <path d="m172.46 105.85s5.614 7.7884 4.7503 16.757c-0.86371 8.9685-4.3184 15.813-4.3184 15.813" filter="url(#am)"/>
   <path d="m182.83 103.02s5.8298 7.7884 5.1821 18.645c-0.6478 10.857-5.398 16.521-5.398 16.521" filter="url(#al)"/>
   <path d="m194.06 102.55s6.9095 7.5524 5.3981 17.229c-1.5115 9.6766-7.1255 17.937-7.1255 17.937" filter="url(#ak)"/>
   <path d="m205.72 102.55s4.7503 5.9003 4.3185 15.577c-0.43188 9.6765-8.2051 18.645-8.2051 18.645" filter="url(#aj)"/>
   <path d="m217.81 104.2s3.6707 7.5524 2.1592 16.757c-1.5114 9.2045-6.6935 14.161-6.6935 14.161" filter="url(#ai)"/>
   <path d="m228.17 103.97s4.5343 8.0244 3.2388 14.869c-1.2956 6.8444-8.6369 16.757-8.6369 16.757" filter="url(#ah)"/>
   <path d="m237.24 101.37s5.398 6.3724 4.7502 16.993c-0.64777 10.62-11.66 18.173-11.66 18.173l1.2955-0.236" filter="url(#ag)"/>
   <path d="m248.47 101.13s5.1822 7.3164 3.6707 16.757c-1.5114 9.4405-10.58 18.409-10.58 18.409" filter="url(#af)"/>
   <path d="m251.49 98.774s7.3413 4.4842 8.6368 11.565c1.2955 7.0804 0.21597 10.857 0.21597 10.857" filter="url(#ae)"/>
   <path d="m-172.93 166.25c0-3.3378 4.8858-46.728 4.8858-46.728l5.4964-18.691 8.55-26.702 9.7715-24.032 7.9393-13.351" filter="url(#y)"/>
  </g>
 </g>
 <g fill="#ff0" font-size="24" stroke-width="0" text-anchor="middle">
  <text x="79.463196" y="66.29274" font-family="Impact" font-weight="bold" xml:space="preserve"/>
  <text x="-147.536804" y="26.29274" font-family="Arial" xml:space="preserve"/>
 </g>
 <text x="-111.536804" y="15.29274" fill="#ff0" font-family="Arial" font-size="24" stroke-width="0" text-anchor="middle" xml:space="preserve"/>
</svg>
