<?xml version="1.0" encoding="UTF-8"?>
<svg viewBox="0 0 286.92639 179.70726" xmlns="http://www.w3.org/2000/svg">
 <defs>
  <filter id="p">
   <feGaussianBlur stdDeviation=".848"/>
  </filter>
  <filter id="s">
   <feGaussianBlur stdDeviation="1.0413"/>
  </filter>
  <filter id="r">
   <feGaussianBlur stdDeviation=".49543"/>
  </filter>
  <filter id="q">
   <feGaussianBlur stdDeviation="1.56649"/>
  </filter>
  <filter id="j" x="-.34653" y="-.17129" width="1.6931" height="1.3426">
   <feGaussianBlur stdDeviation=".9275"/>
  </filter>
  <filter id="i" x="-.30291" y="-.11234" width="1.6058" height="1.2247">
   <feGaussianBlur stdDeviation=".9275"/>
  </filter>
  <filter id="h" x="-.28356" y="-.11234" width="1.5671" height="1.2247">
   <feGaussianBlur stdDeviation=".9275"/>
  </filter>
  <filter id="g" x="-.35979" y="-.12422" width="1.7196" height="1.2484">
   <feGaussianBlur stdDeviation=".9275"/>
  </filter>
  <filter id="f" x="-.4341" y="-.1269" width="1.8682" height="1.2538">
   <feGaussianBlur stdDeviation=".9275"/>
  </filter>
  <filter id="e" x="-.38284" y="-.11528" width="1.7657" height="1.2306">
   <feGaussianBlur stdDeviation=".9275"/>
  </filter>
  <filter id="d" x="-.42053" y="-.11234" width="1.8411" height="1.2247">
   <feGaussianBlur stdDeviation=".9275"/>
  </filter>
  <filter id="c" x="-.53176" y="-.11234" width="2.0635" height="1.2247">
   <feGaussianBlur stdDeviation=".9275"/>
  </filter>
  <filter id="b" x="-.58109" y="-.12081" width="2.1622" height="1.2416">
   <feGaussianBlur stdDeviation=".9275"/>
  </filter>
  <filter id="a" x="-.41776" y="-.16802" width="1.8355" height="1.336">
   <feGaussianBlur stdDeviation=".9275"/>
  </filter>
  <filter id="l" x="-.23833" y="-.06267" width="1.4767" height="1.1254">
   <feGaussianBlur stdDeviation=".45808"/>
  </filter>
  <filter id="k" x="-.20218" y="-.05886" width="1.4044" height="1.1177">
   <feGaussianBlur stdDeviation=".45808"/>
  </filter>
  <filter id="o" x="-.51866" y="-.1281" width="2.0373" height="1.2562">
   <feGaussianBlur stdDeviation="1.01262"/>
  </filter>
  <filter id="m" x="-.13197" y="-.05062" width="1.2639" height="1.1012">
   <feGaussianBlur stdDeviation=".32992"/>
  </filter>
  <filter id="n" x="-.3635" y="-.11589" width="1.727" height="1.2318">
   <feGaussianBlur stdDeviation="1.01262"/>
  </filter>
  <filter id="t" x="-.12177" y="-.0523" width="1.2435" height="1.1046">
   <feGaussianBlur stdDeviation="1.21407"/>
  </filter>
 </defs>
 <g transform="translate(151.04 -162.53)">
  <path d="m-84.61 162.53 10.714 1.0714-6.4286 10.357 13.571-9.6429 10.714 2.8572-1.0714 3.9286-12.857 12.857-11.429 12.143s-8.9286 11.071-10.714 15.357-5 9.6429-5.7143 13.929-1.4286 10-0.35715 11.429 11.071 4.6429 11.071 4.6429l7.8572-0.35714 3.5714 1.7857 88.929-1.4286 2.1428-4.2857 41.786-5 46.071 0.35715 13.929-1.0714 1.7857-0.71429 6.7857 0.35715s8.2143 4.6428 9.2857 8.2143 1.0714 10 0.35714 13.571-3.2143 9.6429-5.7143 11.786-8.5714 3.2143-8.5714 3.2143l-5.3571-2.5-21.786-0.35714-38.929 2.5-39.286-2.1429-3.5714-2.5-86.786 2.1429-1.7857 2.1428-6.0714 0.35715-15.357 8.2143s-6.4286 6.0714-8.2143 10-5.3571 11.429-5.3571 16.429 2.5 12.5 2.5 12.5l0.35714 6.7857-2.5 15s-2.1429 3.5714-5.7143 5-20.357 0.71428-22.857-0.71429-9.2857-5.7143-10.714-8.2143 3.2143-21.071 3.2143-21.071l6.7857-7.8571s2.1428-6.7857 2.1428-10.357-5.3571-13.214-5.3571-13.214l-3.2143-6.0714 1.4286-14.286s5-22.857 6.0714-26.786 8.2143-19.286 10.714-24.286 14.643-20 17.143-22.143 27.143-23.571 26.786-23.929z" fill="#1d1d1d" fill-rule="evenodd"/>
  <path d="m-84.61 162.53-27.143 25.357-9.6429 9.6429-4.6429 7.1428 17.857 7.1429 8.9286-12.143 10-7.8571 21.429-17.143 11.071-6.7857-11.071-3.9286-32.5 26.786-12.857 11.071 5.7143-7.5 14.286-13.571 13.929-11.786 4.6428-5.3571-10-1.0714z" fill="#fff" fill-rule="evenodd" filter="url(#q)"/>
  <path d="m-126.04 204.31 17.857 7.5-3.8636 7.0383-11.851-3.1097-6.4898-2.8355 4.347-8.5931z" fill="#a9a9a9" fill-rule="evenodd" filter="url(#r)"/>
  <path d="m-79.61 173.24-17.143 12.857-14.643 14.286 24.286-24.286 10.714-8.9286-3.2143 6.0714z" fill="#707070" fill-rule="evenodd"/>
  <path d="m-130.32 213.24 17.5 5.3572-10 23.571-0.35715-6.7857-3.5714-4.6429-5.7143-2.5-5.3571-0.35714 7.5-14.643z" fill="#f7f7f7" fill-rule="evenodd" filter="url(#s)"/>
  <path d="m-122.93 243.03-3.9898 13.676-2.0382 10.743-0.65301 12.576-7.5 3.5714-9.6428-9.6429 2.5-20 3.9286-17.143 2.5-8.9286 7.5 1.0714 4.2857 2.8571 3.2143 5-0.10461 6.2194z" fill="#9d9d9d" fill-rule="evenodd" filter="url(#t)"/>
  <path d="m-108.18 289.67-10.714 1.7857-10-8.5714" fill="none" stroke="#626262"/>
  <path d="m-130.68 302.53 9.2857-0.57143 0.35714 20.429-15.929-2.5 5.2143-12 1.0714-5.3571z" fill="#515151" fill-rule="evenodd"/>
  <path d="m-108.9 320.03-5.7143 0.85714-7.5 0.57143-13.571-3.2143 5.5714-14.786 8.3572-0.21429 2.8571-2.1428 9.2857-5.7143 3.5714-9.6429 4.6844-6.5027 4.8972-4.3378 13.99-7.3737 1.4286-8.5714-0.35714-5.3571-0.71429-3.9286-2.5-1.4286-7.1428-1.4286-3.5714-1.7857-1.7857-1.7857v-6.0714l-1.4286-0.35714 0.29587-9.4986 1.4286-6.1327 3.9898-8.2972 5.3571-8.9286 6.4286-8.2756 7.2258-7.8571 9.5599-8.8673 7.1428-7.8571 0.50508-4.0332-18.005 13.319-13.929 11.429-12.5 11.429-9.2857 11.071-6.7857 16.071-7.5 17.857-3.5714 18.214-1.0714 10.714-0.35715 2.6429-7.8571 3.2143-8.3839-7.9005 6.5982 13.829-0.02303 10.379-1.7627 4.6212-6.7857 7.1429-3.2143 22.143 11.429 6.7857 18.571 1.7857 6.0714-2.1429s4.2857-2.5 4.2857-3.9286 2.8572-15.714 1.7857-15.714z" fill="#9a9a9a" fill-rule="evenodd"/>
  <path d="m-140.68 337.17 4.2857-18.571" fill="none" filter="url(#n)" stroke="#fcfcfc" stroke-width="2.4"/>
  <path d="m-136.75 316.45c1.4286-1.4286 3.2143-7.1429 3.2143-7.1429l1.7857-7.5" fill="none" filter="url(#m)" stroke="#c9c9c9"/>
  <path d="m-117.11 340.38 2.2857-16.571" fill="none" filter="url(#o)" stroke="#cecece" stroke-width="2.4"/>
  <path d="m-121.04 321.1-0.71428-17.879 8.5281-5.6926-1.3852 8.5714-0.35714 5.7143 2.8571 8.9286-4.6428 0.35715h-4.2857z" fill="#dbdbdb" fill-rule="evenodd"/>
  <path d="m-112.47 320.38 4.2857-0.35714-0.71428-5.3572-2.1212-8.3189-0.48341-4.0115-0.0223-2.5103 2.1269-4.6593-3.7857 1.0714-2.1428 10.929 0.35714 4.2857 2.5 8.9286z" fill="#7f7f7f" fill-rule="evenodd"/>
  <path d="m-82.327 267.47h6.1872l1.389-2.2728 8.0812-0.25254 2.3991-2.6516 1.389-3.283 0.37881-3.7881v-2.6516l-0.50508-2.1466-0.50508-1.6415-14.521-1.5152-3.6618 0.88388 0.3788 5.5558-0.25253 7.5762-0.75762 6.1872z" fill="#e0e0e0" fill-rule="evenodd"/>
  <path d="m-64.145 261.03-10.859-0.12627s-1.7678 2.1466-2.6516 2.1466-4.1669 0.12627-4.1669 0.12627l-0.25254 4.0406 6.1872 0.25254 1.389-2.2728 8.2075-0.50508 2.1466-3.6618z" fill="#959595" fill-rule="evenodd"/>
  <path d="m-79.044 266.21s3.6618-3.6618 4.2932-7.8287-1.0102-9.849-1.0102-9.849" fill="none" filter="url(#k)" stroke="#6f6f6f"/>
  <path d="m-81.444 265.45s3.1567-4.2932 3.5355-7.4499-0.75761-9.0914-0.75761-9.0914" fill="none" filter="url(#l)" stroke="#6f6f6f"/>
  <path d="m-97.101 238.05-0.25254 4.672 1.2627 1.7678 3.7881 1.7678 8.0812 2.1466 1.6415 0.75762 1.5152 5.4296-0.12627-5.6821v-0.88389h1.1364l0.50507 1.0102 1.5152-1.6415 1.389 0.37881 0.63135 1.1364 0.88388-1.2627 1.894 0.50507 3.1567 0.50508 6.6923-0.50508 0.12627-2.7779 76.014-3.283-0.12627-0.75762-88.01 1.5152-3.7881-2.0203-7.7024 0.25254-6.566-2.2728-3.5355-1.389-0.12627 0.63135z" fill="#454545" fill-rule="evenodd" stroke="#4e4e4e"/>
  <path d="m-66.165 264.82 70.458-1.7678s5.4296-5.8084 5.3033-11.617-4.2931-8.8388-4.2931-8.8388l-67.933 3.4093-0.63135 2.5254s1.6415 4.5457 0.75762 8.5863-3.9144 7.8287-3.6618 7.7024z" fill="#2b2b2b" fill-rule="evenodd"/>
  <path d="m4.4194 263.05 9.0914-0.12627s6.6923-1.7678 7.7024-7.1973-1.0102-10.985-1.0102-10.985l-9.7227 0.37881-3.0305-0.50507s3.5355 4.5457 1.6415 9.5964-4.672 8.7126-4.672 8.8388z" fill="#d0d0d0" fill-rule="evenodd"/>
  <path d="m20.582 245s-1.894-2.7779-3.6618-3.4093-3.283 0.12627-3.283 0.12627l-1.2627 0.63135-6.1872 0.25253 1.5152 2.1466 2.5254 0.63134 10.354-0.3788z" fill="#707070" fill-rule="evenodd"/>
  <path d="m58.336 248.15s3.0305 3.4093 2.1466 6.9448-4.1669 5.3033-4.1669 5.3033" fill="none" filter="url(#a)" stroke="#000"/>
  <path d="m72.731 248.79s3.283 4.1669 2.7779 8.9651-2.5254 8.46-2.5254 8.46" fill="none" filter="url(#b)" stroke="#000"/>
  <path d="m78.792 247.27s3.4093 4.1669 3.0305 9.9753-3.1567 8.8388-3.1567 8.8388" fill="none" filter="url(#c)" stroke="#000"/>
  <path d="m85.358 247.02s4.0406 4.0406 3.1567 9.2176-4.1669 9.5964-4.1669 9.5964" fill="none" filter="url(#d)" stroke="#000"/>
  <path d="m92.176 247.02s2.7779 3.1567 2.5254 8.3338-4.7982 9.9753-4.7982 9.9753" fill="none" filter="url(#e)" stroke="#000"/>
  <path d="m99.247 247.9s2.1466 4.0406 1.2627 8.9651-3.9143 7.5761-3.9143 7.5761" fill="none" filter="url(#f)" stroke="#000"/>
  <path d="m105.31 247.78s2.6516 4.2931 1.894 7.955-5.0508 8.9651-5.0508 8.9651" fill="none" filter="url(#g)" stroke="#000"/>
  <path d="m110.61 246.39s3.1567 3.4093 2.7779 9.0914-6.8185 9.7227-6.8185 9.7227l0.75761-0.12627" fill="none" filter="url(#h)" stroke="#000"/>
  <path d="m117.18 246.26s3.0305 3.9143 2.1466 8.9651-6.1872 9.849-6.1872 9.849" fill="none" filter="url(#i)" stroke="#000"/>
  <path d="m118.95 245s4.2932 2.3991 5.0508 6.1872 0.12627 5.8084 0.12627 5.8084" fill="none" filter="url(#j)" stroke="#000"/>
  <path d="m-129.25 281.1c0-1.7857 2.8571-25 2.8571-25l3.2143-10 5-14.286 5.7143-12.857 4.6429-7.1429" fill="none" filter="url(#p)" stroke="#000"/>
 </g>
</svg>
