<?xml version="1.0" encoding="UTF-8"?>
<svg viewBox="0 0 1239.5291 1071.5601" xmlns="http://www.w3.org/2000/svg">
 <defs>
  <filter id="t">
   <feGaussianBlur stdDeviation="3.17528"/>
  </filter>
  <filter id="s">
   <feGaussianBlur stdDeviation=".97794"/>
  </filter>
  <filter id="r">
   <feGaussianBlur stdDeviation=".39061"/>
  </filter>
  <filter id="q">
   <feGaussianBlur stdDeviation=".43976"/>
  </filter>
  <filter id="p">
   <feGaussianBlur stdDeviation=".39213"/>
  </filter>
  <filter id="n">
   <feGaussianBlur stdDeviation=".47725"/>
  </filter>
  <filter id="l">
   <feGaussianBlur stdDeviation=".30562"/>
  </filter>
  <filter id="k">
   <feGaussianBlur stdDeviation="1.29365"/>
  </filter>
  <filter id="j">
   <feGaussianBlur stdDeviation=".23779"/>
  </filter>
  <filter id="i">
   <feGaussianBlur stdDeviation=".21079"/>
  </filter>
  <filter id="f">
   <feGaussianBlur stdDeviation=".22313"/>
  </filter>
  <filter id="e">
   <feGaussianBlur stdDeviation="1.88564"/>
  </filter>
  <filter id="d">
   <feGaussianBlur stdDeviation="1.0618"/>
  </filter>
  <filter id="c">
   <feGaussianBlur stdDeviation=".44965"/>
  </filter>
  <filter id="w">
   <feGaussianBlur stdDeviation="10.7621"/>
  </filter>
  <filter id="u"/>
  <filter id="a" x="-.13276" y="-.17613" width="1.2655" height="1.3523">
   <feGaussianBlur stdDeviation=".71979"/>
  </filter>
  <filter id="b" x="-.11847" y="-.09923" width="1.2369" height="1.1985">
   <feGaussianBlur stdDeviation=".79594"/>
  </filter>
  <filter id="o" x="-.07856" y="-.12338" width="1.1571" height="1.2468">
   <feGaussianBlur stdDeviation=".58715"/>
  </filter>
  <filter id="m" x="-.14561" y="-.22412" width="1.2912" height="1.4482">
   <feGaussianBlur stdDeviation="1.39835"/>
  </filter>
  <filter id="h" x="-.39383" y="-.40252" width="1.7877" height="1.805">
   <feGaussianBlur stdDeviation="7.15334"/>
  </filter>
  <filter id="g" x="-.16571" y="-.29838" width="1.3314" height="1.5968">
   <feGaussianBlur stdDeviation=".59499"/>
  </filter>
  <linearGradient id="v" x1="269.78" x2="238.64" y1="684.12" y2="683.16" gradientUnits="userSpaceOnUse">
   <stop stop-color="#fff" offset="0"/>
   <stop stop-color="#fff" stop-opacity="0" offset="1"/>
  </linearGradient>
 </defs>
 <g transform="translate(201.87 152.12)">
  <path d="m642.01 957.64z" fill="none" stroke="#000"/>
  <g transform="translate(-317.55 312.95)">
   <g transform="translate(-8)" filter="url(#w)">
    <g transform="translate(665.78 -372.78)" fill-rule="evenodd" filter="url(#d)" stroke="#000">
     <path d="m688.93 971.96c-36.209-18.147-74.591-36.35-111.48-53.053-45.128-24.351-87.922-52.831-129.95-82.121-22.769-16.081-43.984-34.135-64.757-52.681 22.572 4.3394 46.396 4.8954 68.265-3.0681-12.064-2.5905-23.208-5.1697-34.668-11.6-17.847-9.4492-31.535-24.889-45.103-39.512-21.623 3.5374-44.572 0.52309-63.706-10.525-17.67-8.8072-34.345-19.917-49.47-32.54-21.937-20.858-48.876-35.154-75.397-49.266 12.093 21.659 22.82 44.518 38.195 64.028 20.567 19.021 37.466 42.607 57.568 62.129 14.302 17.1 30.456 33.825 47.581 48.673 25.152 22.953 47.163 46.311 72.146 69.323 19.571 18.027 40.981 34.41 63.261 48.995 19.391 12.694 39.312 21.028 60.819 28.941 19.2 7.0641 40.811 13.344 60.982 16.118 23.226 3.194 47.671 4.1007 70.856 1.2772 11.827-1.4403 23.31-2.1219 34.857-5.1179z"/>
     <path d="m375.23 765.14c-2.5268-1.605-4.1867 0.70125-3.9365 2.2457 0.48372 2.985 4.2184 5.282 6.7837 5.0215 6.1012-0.61958 5.33-6.8125 3.77-10.802-1.1988-3.0662-7.1285-7.1007-13.121-3.9982-7.5336 3.9006-5.6827 12.968-0.28018 18.464 1.3592 1.3826 8.8316 6.3254 14.204 8.0041"/>
    </g>
    <path d="m1304.7 585.09c-17.637 2.8056-35.279 5.7535-53.15 2.6312-13.901 0.35622-27.053-3.0882-39.93-7.8974-21.18-6.1408-41.571-14.647-61.35-24.289-18.99-11.514-37.744-23.365-54.822-37.626-24.318-18.585-46.398-39.952-68.43-61.152-18.736-15.704-32.406-33.789-50.69-48.482-20.975-23.856-46.165-43.495-67.239-67.239-11.341-10.474-18.666-21.768-28.782-33.454-6.8079-5.9721-12.789-23.649-17.038-31.344 10.132 3.8149 17.653 10.392 31.956 22.172 18.855 17.784 34.809 30.977 55.147 43.561 24.288 14.824 55.376 25.503 85.004 20.316 2.2976 4.0298 5.8468 8.4824 12.628 15.329 12.105 10.219 24.619 19.778 38.88 25.419 7.1035 3.7398 11.829 4.8006 14.916 5.4615-15.747 2.9696-22.114 1.1505-30.373 0.77438-11.481-1.8461-20.028-2.8744-27.384-9.3572 5.0412-1.7633 5.1882-5.7179 4.2085-9.4671-0.0063-1.465-5.5661-10.014-14.887-5.1609-5.4121 3.5087-4.0545 10.971-1.3936 14.249 6.4035 6.5551 11.765 10.249 16.299 12.069 9.8872 8.8882 18.99 22.424 29.206 31.512 13.707 14.548 30.506 25.703 46.459 37.602 29.593 19.682 59.265 39.406 91.115 55.296 22.078 12.683 44.275 25.14 67.07 36.474 7.4596 4.3228 14.991 8.5139 22.581 12.603z" fill-rule="evenodd" filter="url(#e)"/>
    <path d="m1033.3 447.38c-9.437-3.138-17.581-8.3699-25.929-13.315-6.2205-4.1947-10.482-10.425-15.059-16.156-4.7628-6.0782-7.9936-12.311-15.007-17.217-4.0402-3.433-7.6682-6.6181-13.469-8.0588-7.8847-2.7043-17.456-8.7798-18.361-17.738-3.2559-8.5154-10.035-15.427-18.445-18.939-5.1234-2.789-8.8439-7.5694-12.603-11.995-1.5561-1.6592-7.7908-5.1528-3.6656-6.6905 4.4206-1.9313-2.2826-11.003-7.0414-12.861-6.177-2.8207-12.385-5.347-17.822-10.622-4.4342-3.6373-6.9289-8.1433-11.176-13.166-2.3671-2.7998-5.8707-5.4147-8.5575-7.4184-5.7377-4.2789-16.315-2.2532-16.568-12.268-1.7173-3.7816 2.072-5.0557 4.6022-6.9033 4.9979-1.2926 10.326 3.1048 15.799 3.9576 3.9488-0.38049 5.3137 3.5769 7.278 6.2724 0.83363 4.5137 3.0977 9.2104 6.8374 12.014 3.9545 4.8503 5.5394 11.495 10.595 15.581 3.3553 3.7476 8.3957 5.7984 13.433 5.1292 3.507-0.60659 5.6282 3.048 8.0821 4.9909 1.9964 2.6354 4.3256 5.0055 7.7754 5.364 5.6152 2.5822 11.88 5.2439 14.71 11.135 3.2978 5.654 5.1163 12.327 10.229 16.797 2.9615 2.4252 7.3502 2.6479 10.399 5.1958 4.0053 1.8809 6.9463 1.0048 9.8116 3.4371 5.1005 2.5038 9.4507 6.0123 13.523 9.9324 3.4635 3.6137 7.816 6.7977 9.7534 11.513-4.2537-3.1503-2.6254-1.901-4.2448-3.6331-7.4248-7.3311-10.603-8.2283-16.251-12.018-4.142-3.1266-9.7028-4.0116-14.325-6.4036-5.4318-2.733-10.134-7.0354-14.69-11.046-3.4719-4.2047-6.4646-8.7759-10.79-12.181-3.6728-4.2705-8.9692-6.4145-13.878-8.8926 0.69204 3.9441 1.3801 7.1557 4.5017 10.153 4.9965 6.9549 12.293 12.098 17.983 18.514 5.7766 6.7735 10.431 14.778 18.168 19.656 4.8576 2.9611 9.5242 4.7587 13.903 9.6844 5.6697 5.4804 11.238 11.12 15.868 17.402 3.5149 3.8871 5.3347 9.0077 9.1618 13.303 2.7042 3.9914 7.3157 7.283 11.65 10.611 3.3914 4.6325 8.7911 6.8099 13.396 10.014 3.5405 2.3968 6.3229 4.475 10.423 6.8674z" fill-rule="evenodd" filter="url(#c)" stroke="#000"/>
    <path d="m856.58 283.07c5.1671 3.2852 14.397 6.55 17.083 11.468 2.9145 5.3367 9.0218 8.269 12.844 13.154 4.5378 4.7759 8.0136 10.271 14.078 12.611 5.596 2.1592 11.441 4.94 12.911 10.388 0.71797 2.6606 1.1832 8.375-0.72363 8.2695-2.849-0.15755 3.5138 4.6403 6.233 7.148 4.6981 4.3327 11.965 8.2259 17.251 12.273 5.8119 4.2379 8.6459 11.51 11.876 17.879 1.8219 2.6165 3.7222 7.0961 9.7912 10.662 6.633 3.8972 16.715 8.0228 17.848 8.211-6.5139-7.2651-15.158-11.691-16.879-12.823-5.6731-3.4409-11.288-7.5412-14.182-13.699-4.8163-8.1852-12.193-14.32-19.654-20.139-5.9362-4.6302-7.6795-7.494-8.5227-12.768-0.92295-5.082-0.56876-8.7882 4.2694-5.5256 6.0396 1.5357 19.524 15.048 18.841 14.061-1.827-4.6423-11.427-12.809-18.05-15.648-4.295-1.1127-6.4954-7.1584-11.964-8.5257-5.2768-1.3194-13.21-1.4916-16.764-6.3844-4.7047-4.0844-6.1652-10.629-11.208-14.346-5.018-3.5454-7.0222-8.6319-10.751-13.266-3.3244-4.1312-6.9432-7.3639-12.008-8.4502-7.4482-0.41033-2.8716 5.1002-2.3191 5.4515z" fill-rule="evenodd" filter="url(#n)"/>
    <path d="m753.78 180.14s-609.73-609.81-622.83-619.76c-12.492-9.4902-8.3513-33.493 17.984-21.817 28.397 12.59 632.46 632.37 632.46 632.37s-24.545-12.272-27.613 9.2043z" fill-rule="evenodd" filter="url(#s)" stroke="#000"/>
    <path d="m756.25 172.96s-474.03-472.14-628.65-626.77c-5.177-5.177 8.0281-14.062 20.591-1.9998 10.606 10.183 621.24 622.18 621.24 622.18s-16.002-2.8238-13.178 6.5889z" fill-rule="evenodd" filter="url(#t)"/>
    <g transform="translate(.95878 1.7258)" filter="url(#r)">
     <g transform="matrix(1.0272 0 0 1.0197 5.6896 6.0951)">
      <path d="m738.46 138.81c-2.5537 0.11584-5.8432 1.4173-11.039 5.018-13.533 9.3788-13.714 13.284-13.561 18.476 0.12462 4.2108 5.1678 8.5972 11.385 6.6819l0.03515-0.00104c1.0159-3.3855 4.0709-7.2018 13.076-13.443 3.9272-2.7217 6.7859-4.1334 9.0428-4.7044 2.0468-3.4742 0.69453-6.2389-3.764-10.69-1.6285-0.78716-3.1897-1.428-5.1759-1.3379z" stroke="#000" stroke-width=".86744"/>
      <path d="m736.56 141.13c-2.1684 0.25529-3.8091 1.6794-8.2498 4.6859-5.7833 3.9156-9.3942 7.9729-10.531 10.222s-1.4895 4.0789-0.58904 6.467c1.2315 3.2661 4.7471 3.7563 7.2552 3.6762 2.7749-0.08869 2.2171-0.27174 2.7121-0.89351 1.6656-2.092 3.1649-4.2052 10.783-9.6028 3.3097-2.3449 4.161-2.5589 5.8632-3.8868 1.9345-1.5092 1.7052-4.3421 1.4215-5.2896-0.62505-2.0868-1.5137-3.3073-3.0129-4.4042-1.1157-0.81637-1.8707-0.85031-2.7916-1.0255-0.74532-0.14177-1.4316-0.117-2.8612 0.05132z"/>
      <path d="m746.3 148.45c-2.3782 0.03799-5.4734 1.174-10.405 4.426-12.844 8.4704-13.12 12.149-13.12 17.052 0 3.9761 4.5696 8.2551 10.405 6.6218h0.03272c1.038-3.1656 3.9843-6.6807 12.531-12.317 3.7274-2.4581 6.4249-3.7102 8.5396-4.1858 1.9992-3.2205 0.81764-5.8666-3.2064-10.19-1.4929-0.7881-2.9272-1.4362-4.7769-1.4067z" stroke="#000" stroke-width=".81289"/>
      <path d="m744.47 150.58c-2.0237 0.18031-3.5888 1.478-7.8015 4.1905-5.4864 3.5326-8.9562 7.2596-10.075 9.3498s-1.4976 3.8066-0.72582 6.0847c1.0554 3.1157 4.3115 3.6764 6.6464 3.6708 2.5832-0.00619 2.0694-0.19446 2.5469-0.76724 1.6066-1.9272 3.0592-3.879 10.293-8.7586 3.1426-2.1199 3.9402-2.298 5.5599-3.5032 1.8407-1.3698 1.7054-4.0489 1.4676-4.9507-0.52387-1.9862-1.3167-3.1625-2.6808-4.2392-1.0152-0.80133-1.7164-0.85443-2.568-1.0454-0.68927-0.15457-1.3282-0.15036-2.6624-0.03148z"/>
      <path transform="matrix(.62761 -.4723 .43038 .68875 526.62 51.507)" d="m162.2 259.19a7.65 2.7988 0 1 1 -15.3 0 7.65 2.7988 0 1 1 15.3 0z" filter="url(#a)"/>
      <path transform="matrix(.51724 -.30734 .35469 .44818 554.13 78.842)" d="m162.2 259.19a7.65 2.7988 0 1 1 -15.3 0 7.65 2.7988 0 1 1 15.3 0z" filter="url(#a)"/>
     </g>
     <path d="m779.11 166.98c-2.3571 0.03597-5.4248 1.1116-10.312 4.1907-12.73 8.0202-13.004 11.504-13.004 16.146 0 3.7648 4.529 7.8163 10.312 6.2698h0.03243c1.0288-2.9974 3.949-6.3256 12.42-11.663 3.6943-2.3274 6.3679-3.513 8.4638-3.9633 1.9815-3.0493 1.061-5.8964-3.178-9.6484-1.2291-1.0879-2.9013-1.3599-4.7346-1.3319z" stroke="#000" stroke-width=".78748"/>
     <path d="m777.45 169.24c-2.105 0.17902-3.7329 1.4674-8.1149 4.1605-5.7068 3.5073-9.316 7.2075-10.48 9.2827s-1.5577 3.7793-0.75496 6.0411c1.0978 3.0934 4.4847 3.65 6.9133 3.6444 2.6869-0.00614 2.1525-0.19307 2.6492-0.76174 1.6711-1.9133 3.1821-3.8511 10.706-8.6957 3.2689-2.1047 4.0985-2.2815 5.7832-3.4781 1.9146-1.36 1.774-4.0198 1.5265-4.9152-0.54491-1.9719-1.3696-3.1398-2.7885-4.2088-1.056-0.79557-1.7854-0.84829-2.6712-1.0379-0.71695-0.15345-1.3816-0.14927-2.7694-0.03125z"/>
     <path transform="matrix(.7853 -.56555 .53851 .82472 506.97 49.757)" d="m162.2 259.19a7.65 2.7988 0 1 1 -15.3 0 7.65 2.7988 0 1 1 15.3 0z" filter="url(#a)"/>
     <path d="m782.83 175.23c-2.1183 0.03709-6.8579 1.6262-10.381 4.369-8.5949 6.6912-7.9703 13.487-6.2574 14.075 4.2678-2.0173 5.262-7.0595 13.809-12.696 3.7274-2.4581 5.6708-3.9152 7.7855-4.3909-0.38669-1.1735-3.0106-1.3911-4.956-1.357z" stroke="#000" stroke-width=".81289"/>
     <g transform="translate(630.13 -38.088)" fill-rule="evenodd">
      <path d="m136.15 231.93s15.436 18.401 20.997 23.874c0.47939-8.8208 14.454-20.878 23.97-17.642-5.537-6.8313-23.49-23.107-23.49-23.107s-18.025-1.9176-21.477 16.875z" stroke="#000"/>
      <path d="m138.07 233.9s4.4584-18.199 21.908-16.665" stroke="#000"/>
      <path d="m139.5 234.42 16.062 17.812 0.0625-1.5625-16.062-17.688-0.0625 1.4375z" filter="url(#b)" opacity=".53738"/>
      <path transform="matrix(.99581 -.091403 .091403 .99581 -19.904 15.95)" d="m159.44 219.3 16.062 17.812 0.0625-1.5625-16.062-17.688-0.0625 1.4375z" filter="url(#b)" opacity=".53738"/>
     </g>
     <path transform="matrix(1.1088 -.28347 .17004 1.0305 617.83 4.4133)" d="m126.56 217.07a8.3414 7.7662 0 1 1 -16.683 0 8.3414 7.7662 0 1 1 16.683 0z" filter="url(#u)"/>
     <path transform="matrix(1.013 -.26359 .15327 .95821 632.79 17.75)" d="m126.56 217.07a8.3414 7.7662 0 1 1 -16.683 0 8.3414 7.7662 0 1 1 16.683 0z"/>
     <path transform="matrix(.91616 -.23543 .13995 .85583 647.14 36.498)" d="m126.56 217.07a8.3414 7.7662 0 1 1 -16.683 0 8.3414 7.7662 0 1 1 16.683 0z"/>
     <path transform="matrix(.4588 -.12277 .0679 .44631 716.83 112.17)" d="m126.56 217.07a8.3414 7.7662 0 1 1 -16.683 0 8.3414 7.7662 0 1 1 16.683 0z"/>
     <path transform="matrix(.32558 -.08301 .05003 .30177 736.46 138.85)" d="m126.56 217.07a8.3414 7.7662 0 1 1 -16.683 0 8.3414 7.7662 0 1 1 16.683 0z"/>
     <g transform="matrix(1.1248 -.03329 .03441 1.1627 614.34 -84.902)">
      <path d="m166.01 247.26c-2.2714 0.0346-5.2277 1.0693-9.9375 4.0312-12.268 7.715-12.531 11.066-12.531 15.531 0 3.6215 4.3644 7.5189 9.9375 6.0312h0.03125c0.9914-2.8833 3.8054-6.0849 11.969-11.219 3.5601-2.2389 6.1365-3.3793 8.1562-3.8125 1.9095-2.9333 0.78094-5.3434-3.0625-9.2812-1.4259-0.71781-2.7958-1.3082-4.5625-1.2812z" stroke="#000" stroke-width=".75818"/>
      <path d="m164.26 249.2c-1.9329 0.16423-3.4277 1.3462-7.4513 3.8168-5.2402 3.2176-8.5542 6.6121-9.6229 8.516s-1.4303 3.4671-0.69324 5.5421c1.0081 2.8378 4.118 3.3485 6.348 3.3434 2.4672-0.00564 1.9765-0.17712 2.4326-0.69882 1.5345-1.7553 2.9219-3.533 9.8309-7.9774 3.0016-1.9308 3.7634-2.093 5.3103-3.1908 1.7581-1.2476 1.6289-3.6878 1.4017-4.5092-0.50036-1.809-1.2576-2.8804-2.5605-3.8611-0.96963-0.72987-1.6394-0.77823-2.4527-0.95217-0.65833-0.14078-1.2686-0.13695-2.5429-0.02867z"/>
     </g>
     <g transform="matrix(1.047 0 0 1.0979 644.5 -63.753)">
      <path d="m166.01 247.26c-2.2714 0.0346-5.2277 1.0693-9.9375 4.0312-12.268 7.715-12.531 11.066-12.531 15.531 0 3.6215 4.3644 7.5189 9.9375 6.0312h0.03125c0.9914-2.8833 3.8054-6.0849 11.969-11.219 3.5601-2.2389 6.1365-3.3793 8.1562-3.8125 1.9095-2.9333 0.78094-5.3434-3.0625-9.2812-1.4259-0.71781-2.7958-1.3082-4.5625-1.2812z" stroke="#000" stroke-width=".75818"/>
      <path d="m164.26 249.2c-1.9329 0.16423-3.4277 1.3462-7.4513 3.8168-5.2402 3.2176-8.5542 6.6121-9.6229 8.516s-1.4303 3.4671-0.69324 5.5421c1.0081 2.8378 4.118 3.3485 6.348 3.3434 2.4672-0.00564 1.9765-0.17712 2.4326-0.69882 1.5345-1.7553 2.9219-3.533 9.8309-7.9774 3.0016-1.9308 3.7634-2.093 5.3103-3.1908 1.7581-1.2476 1.6289-3.6878 1.4017-4.5092-0.50036-1.809-1.2576-2.8804-2.5605-3.8611-0.96963-0.72987-1.6394-0.77823-2.4527-0.95217-0.65833-0.14078-1.2686-0.13695-2.5429-0.02867z"/>
     </g>
     <g transform="translate(661.3 -28.758)">
      <path d="m166.01 247.26c-2.2714 0.0346-5.2277 1.0693-9.9375 4.0312-12.268 7.715-12.531 11.066-12.531 15.531 0 3.6215 4.3644 7.5189 9.9375 6.0312h0.03125c0.9914-2.8833 3.8054-6.0849 11.969-11.219 3.5601-2.2389 6.1365-3.3793 8.1562-3.8125 1.9095-2.9333 0.78094-5.3434-3.0625-9.2812-1.4259-0.71781-2.7958-1.3082-4.5625-1.2812z" stroke="#000" stroke-width=".75818"/>
      <path d="m164.26 249.2c-1.9329 0.16423-3.4277 1.3462-7.4513 3.8168-5.2402 3.2176-8.5542 6.6121-9.6229 8.516s-1.4303 3.4671-0.69324 5.5421c1.0081 2.8378 4.118 3.3485 6.348 3.3434 2.4672-0.00564 1.9765-0.17712 2.4326-0.69882 1.5345-1.7553 2.9219-3.533 9.8309-7.9774 3.0016-1.9308 3.7634-2.093 5.3103-3.1908 1.7581-1.2476 1.6289-3.6878 1.4017-4.5092-0.50036-1.809-1.2576-2.8804-2.5605-3.8611-0.96963-0.72987-1.6394-0.77823-2.4527-0.95217-0.65833-0.14078-1.2686-0.13695-2.5429-0.02867z"/>
     </g>
     <path transform="matrix(.7853 -.56555 .53851 .82472 554.6 101.97)" d="m162.2 259.19a7.65 2.7988 0 1 1 -15.3 0 7.65 2.7988 0 1 1 15.3 0z" filter="url(#a)"/>
     <path transform="matrix(.62761 -.4723 .43038 .68875 597.66 111.54)" d="m162.2 259.19a7.65 2.7988 0 1 1 -15.3 0 7.65 2.7988 0 1 1 15.3 0z" filter="url(#a)"/>
     <path transform="matrix(.51724 -.30734 .35469 .44818 627.25 136.52)" d="m162.2 259.19a7.65 2.7988 0 1 1 -15.3 0 7.65 2.7988 0 1 1 15.3 0z" filter="url(#a)"/>
    </g>
    <path d="m847.17 231.78c-1.2914 3.0523-0.63685 6.4833 1.3747 9.2129-1.887-1.2961-5.1882-1.3465-5.9515 1.3077 0.36423 1.5625 4.0296 1.4508 5.4829 2.6139 3.1126 1.3967 4.5357 5.7094 6.3259 8.7151 0.19067 0.37021 0.33827 0.74995 0.4845 1.1386l3.4492 1.39c-0.0585-0.29389-0.14053-0.5825-0.18342-0.88252 0.31403-6.2892 4.3523-5.1201 5.3593-7.9478-0.15689-2.4316-3.6545-0.89258-5.2787-0.77967-0.80711-2.0324 1.5009-5.2715-0.69552-7.0524-3.1478 0.83221-1.7403 6.3544-3.2814 5.5508-0.24384-2.6025-2.2645-5.6324-2.8979-8.1085-1.1486-1.9185-2.2964-3.8638-4.188-5.1581z" fill-rule="evenodd" stroke="#000"/>
    <path d="m837.53 228.28c-3.2022 0.11472-7.527 1.7157-11.969 4.6562-7.8964 5.2276-13.154 12.72-11.719 16.75 0.69428 1.95 2.84 2.7453 5.75 2.4375-0.44885 1.5533-0.5003 2.9517-0.0625 4.0625 0.71226 1.8071 2.5923 2.5628 5.125 2.375-0.37807 1.6364-0.36386 3.1082 0.1875 4.2188 0.82013 1.652 2.6524 2.3054 5.0312 2.0938-0.35212 1.62-0.28203 3.0463 0.28125 4.1562 0.81362 1.6032 2.5303 2.3406 4.8125 2.25-0.45944 2.1646-0.32789 4.0186 0.53125 5.3438 2.7756 4.281 11.952 1.3933 20.469-6.4375s13.151-17.656 10.375-21.938c-1.0532-1.6244-3.0228-2.2233-5.5312-1.9062-0.07408-0.52116-0.18679-1.0051-0.40625-1.4375-1.0249-2.0195-3.5096-2.6345-6.7188-2 0.18439-1.2856 0.07866-2.4299-0.375-3.3438-0.81495-1.6416-2.6121-2.3243-4.9688-2.125 0.05931-0.82182 0.00709-1.5665-0.25-2.2188-0.74081-1.8796-2.7486-2.6185-5.4375-2.3438 0.08372-0.77095 0.035-1.5001-0.1875-2.125-0.62771-1.7631-2.4469-2.558-4.9375-2.4688z" filter="url(#i)" stroke="#000" stroke-width=".76255"/>
    <path d="m836.17 230.55c-2.5436 0.09677-5.9789 1.4472-9.507 3.9275-6.2723 4.4094-10.448 10.729-9.3085 14.128 0.55148 1.6448 2.2558 2.3156 4.5674 2.056-0.35653 1.3102-0.39741 2.4897-0.04964 3.4266 0.56576 1.5243 3.3281 2.9631 5.3399 2.8048-0.3003 1.3803-0.35581 3.5567 0.08214 4.4935 0.65146 1.3934 2.7747 2.2118 4.6643 2.0332-0.2797 1.3664-0.22402 3.5713 0.2234 4.5076 0.64628 1.3523 3.2121 2.2414 5.0249 2.165-0.36494 1.8258-0.5276 4.0575 0.15484 5.1752 2.2047 3.611 9.8948 0.37378 16.659-6.2314s12.516-15.294 10.312-18.905c-0.83656-1.3702-2.8686-1.2074-4.8611-0.94001-0.05886-0.43959-0.38913-3.2325-1.8588-4.0176-1.3816-0.73805-2.7877-1.3539-5.4036-0.15083 0.14649-1.0844-0.60539-4.1868-1.5-4.8908-1.2012-0.9452-2.9431-1.0255-4.815-0.85738 0.04711-0.69319 0.13921-2.8574-0.06501-3.4076-0.58843-1.5854-3.4523-1.6744-5.5881-1.4426 0.06652-0.65027 0.02783-1.2653-0.14891-1.7924-0.4986-1.4871-1.9436-2.1576-3.922-2.0824z" filter="url(#j)" stroke="#000" stroke-width=".62418"/>
    <path d="m835.97 232.46c-2.0906 0.08672-4.914 1.1633-7.8138 3.386-5.1552 3.9515-9.5892 8.7467-8.6525 11.793 0.45327 1.474 2.3216 2.0751 4.2214 1.8425-0.29303 1.1741 0.00732 2.9658 0.29313 3.8054 0.465 1.366 3.6704 1.3864 5.3239 1.2445-0.24682 1.2369-0.09206 4.6567 0.26788 5.4962 0.53543 1.2487 3.0152 2.0489 4.5683 1.8889-0.22988 1.2245-0.91879 3.5344-0.55107 4.3734 0.5312 1.2118 3.5751 2.8769 5.065 2.8084-0.29995 1.6362-0.43365 3.6361 0.12725 4.6378 1.812 3.236 8.1326 0.33496 13.692-5.5842s11.957-13.238 10.145-16.474c-0.68757-1.2279-2.4913-1.1489-4.1289-0.90919-0.04837-0.39393-1.0545-3.4979-2.2624-4.2015-1.1355-0.66142-3.0927-1.013-5.2427 0.0652 0.12041-0.97182-0.69792-4.1527-1.4332-4.7836-0.98728-0.84705-3.8215-1.3197-5.36-1.1691 0.0387-0.62119 1.183-3.4957-0.65451-4.5898-1.2895-0.76783-2.971-0.69908-4.6597 0.10972 0.18824-1.8517 0.49036 0.09339-0.18919-2.5413-0.34823-1.3501-1.1299-1.2657-2.7559-1.1982z" filter="url(#k)"/>
    <path transform="matrix(1.1677 .1013 -.09603 1.1069 654.13 -93.058)" d="m174.32 291.15a2.1706 2.1706 0 1 1 -4.3412 0 2.1706 2.1706 0 1 1 4.3412 0z"/>
    <path transform="matrix(1.1677 .1013 -.09603 1.1069 659.9 -97.533)" d="m174.32 291.15a2.1706 2.1706 0 1 1 -4.3412 0 2.1706 2.1706 0 1 1 4.3412 0z"/>
    <path transform="matrix(1.0357 .15279 -.14776 .99401 696.93 -63.212)" d="m174.32 291.15a2.1706 2.1706 0 1 1 -4.3412 0 2.1706 2.1706 0 1 1 4.3412 0z"/>
    <path transform="matrix(1.0472 .15274 -.14698 .97721 700.35 -62.765)" d="m174.32 291.15a2.1706 2.1706 0 1 1 -4.3412 0 2.1706 2.1706 0 1 1 4.3412 0z"/>
    <path transform="matrix(.69429 .82078 -.83785 .67435 994.04 -85.674)" d="m142.31 314.68a2.4553 2.8683 0 1 1 -4.9106 0 2.4553 2.8683 0 1 1 4.9106 0z"/>
    <path transform="matrix(.6056 .8437 -.85341 .59863 1016.4 -58.912)" d="m142.31 314.68a2.4553 2.8683 0 1 1 -4.9106 0 2.4553 2.8683 0 1 1 4.9106 0z"/>
    <path transform="matrix(.58333 .82409 -.82402 .58615 1015.1 -46.575)" d="m142.31 314.68a2.4553 2.8683 0 1 1 -4.9106 0 2.4553 2.8683 0 1 1 4.9106 0z"/>
    <path transform="matrix(1.185 .45609 -.37345 1.4472 838.41 -843.92)" d="m252.02 687.76a9.4156 4.6076 0 1 1 -18.831 0 9.4156 4.6076 0 1 1 18.831 0z"/>
    <path transform="matrix(.99768 .28501 -.13787 1.3185 722.23 -713.54)" d="m252.02 687.76a9.4156 4.6076 0 1 1 -18.831 0 9.4156 4.6076 0 1 1 18.831 0z"/>
    <path transform="matrix(.72735 .06092 .07809 .81399 640.54 -311.81)" d="m252.02 687.76a9.4156 4.6076 0 1 1 -18.831 0 9.4156 4.6076 0 1 1 18.831 0z"/>
    <path transform="matrix(1.6995 -.07034 .22925 1.2447 298.48 -576.33)" d="m246.22 688.21a1.3874 1.5724 0 1 1 -2.7748 0 1.3874 1.5724 0 1 1 2.7748 0z"/>
    <path d="m835.97 232.46c-2.0906 0.08672-4.914 1.1633-7.8138 3.386-5.1552 3.9515-9.5892 8.7467-8.6525 11.793 0.45327 1.474 2.3216 2.0751 4.2214 1.8425-0.29303 1.1741 0.00732 2.9658 0.29313 3.8054 0.465 1.366 3.6704 1.3864 5.3239 1.2445-0.24682 1.2369-0.09206 4.6567 0.26788 5.4962 0.53543 1.2487 3.0152 2.0489 4.5683 1.8889-0.22988 1.2245-0.91879 3.5344-0.55107 4.3734 0.5312 1.2118 3.5751 2.8769 5.065 2.8084-0.29995 1.6362-0.43365 3.6361 0.12725 4.6378 1.812 3.236 8.1326 0.33496 13.692-5.5842s11.957-13.238 10.145-16.474c-0.68757-1.2279-2.4913-1.1489-4.1289-0.90919-0.04837-0.39393-1.0545-3.4979-2.2624-4.2015-1.1355-0.66142-3.0927-1.013-5.2427 0.0652 0.12041-0.97182-0.69792-4.1527-1.4332-4.7836-0.98728-0.84705-3.8215-1.3197-5.36-1.1691 0.0387-0.62119 1.183-3.4957-0.65451-4.5898-1.2895-0.76783-2.971-0.69908-4.6597 0.10972 0.18824-1.8517 0.49036 0.09339-0.18919-2.5413-0.34823-1.3501-1.1299-1.2657-2.7559-1.1982z" filter="url(#h)" opacity=".35047"/>
    <g transform="matrix(1.0843 .094061 -.091793 1.0581 700.82 -106.26)" filter="url(#l)">
     <path transform="matrix(1.0769 0 0 1.0462 -41.698 16.183)" d="m174.32 291.15a2.1706 2.1706 0 1 1 -4.3412 0 2.1706 2.1706 0 1 1 4.3412 0z"/>
     <path transform="matrix(1.0769 0 0 1.0462 -36.767 11.515)" d="m174.32 291.15a2.1706 2.1706 0 1 1 -4.3412 0 2.1706 2.1706 0 1 1 4.3412 0z"/>
     <path transform="matrix(.9602 .059042 -.056321 .94443 -.14834 40.696)" d="m174.32 291.15a2.1706 2.1706 0 1 1 -4.3412 0 2.1706 2.1706 0 1 1 4.3412 0z"/>
     <path transform="matrix(.97076 .058053 -.05694 .92861 3.0245 40.836)" d="m174.32 291.15a2.1706 2.1706 0 1 1 -4.3412 0 2.1706 2.1706 0 1 1 4.3412 0z"/>
     <path transform="matrix(.70074 .71342 -.71342 .70074 270.05 -4.5516)" d="m142.31 314.68a2.4553 2.8683 0 1 1 -4.9106 0 2.4553 2.8683 0 1 1 4.9106 0z"/>
     <path transform="matrix(.62137 .74213 -.73367 .63098 292.65 18.731)" d="m142.31 314.68a2.4553 2.8683 0 1 1 -4.9106 0 2.4553 2.8683 0 1 1 4.9106 0z"/>
     <path transform="matrix(.59942 .72555 -.70776 .61688 292.45 30.408)" d="m142.31 314.68a2.4553 2.8683 0 1 1 -4.9106 0 2.4553 2.8683 0 1 1 4.9106 0z"/>
    </g>
    <g filter="url(#f)">
     <path d="m888.25213,284.91577c-.04192.6639-.01741.77714-.26794,2.0327-.37413,1.57377-.80054,1.60425-1.5422,3.97375-.39671.88405.06476,1.04901-.36841,2.00563-.3046.67884-.32773.67903-.91379,2.03651 1.16654-.41923 1.85967-1.50297 2.26889-1.86009 1.49117-1.09646.70603.00036 2.96506-1.80495 .64612-.75372.88672-1.43998 1.2624-2.38024 .10201-.4664.53085-1.40426.63286-1.87066-.34386-.41346-.48352-.64557-1.15953-1.18214-.28949-.26926-.13361-.22388-1.03805-.58498-.60281-.10893-.57338-.13677-1.83929-.36553z" fill-rule="evenodd" stroke="#000" stroke-width=".70025"/>
     <path d="m884.69927,284.74085c.10519.4059.14731.46778.21547,1.27525 .03951,1.02609-.35445,1.06629-.02003,2.62021-.12026.61979-.31912.60151-.45222,1.27307-.09234.47591.13887.60041-.02815,1.54673 .80423-.52145 1.5751-1.68864 1.81382-1.99692 .9122-1.00104.07376.19536 1.42587-1.40723 .33768-.60002.3796-1.06547.47218-1.7139-.01848-.30202.1152-.96139.09673-1.26342-.34806-.16675-.50268-.27277-1.12983-.43575-.27673-.09335-.14831-.10251-.91364-.10766-.48288.07519-.46616.05173-1.4802.20962z" fill-rule="evenodd" stroke="#000" stroke-width=".49701"/>
     <path d="m879.25906,319.71833c-.04302-.025-.50972-.54185 2.6928-.12988 1.91493-.15301 1.70858-.32965 4.15493-.25986 .96586-.08246.98889.49341 2.03576.40066 .90386-.45992 2.7711-.60697 3.95551-.06371-1.14343.31087-2.27629.30114-3.11919,1.04634-1.36969,1.58262-.90547,1.04449-4.24016,1.40532-1.87911.9797-4.32113-1.12864-5.47965-2.39887z" fill-rule="evenodd" stroke="#000" stroke-width=".6813"/>
     <path d="m861.11896,255.34167c-.83217-.39544-1.63416-.86966-2.53105-1.10793-.41566-.10496-.81011-.3475-1.24855-.30193-.6606-.02409-1.33995-.04206-1.95975.2257-.42789.07125-.87051.31433-.58032.81166 .2655.50739.77258.82023 1.2281,1.13774 .17785.43189-.7137.39214-.98698.54578-.51003.20745-1.06503.70457-1.08802,1.28104 .21725.46267.7492.6398 1.20966.772 .39817.1196.762.39117.98947.72089 .02984.58321-.72072.60861-1.0842.87205-.49333.35471.01837,1.05427.50955,1.08375 1.24699.49211 2.6132.49965 3.93163.41146 .53287-.12023.85431-.63277 1.17611-1.03001 .20085-.46641.24184-.98725.47395-1.44469 .18535-.4834.53011-.91277 1.01955-1.10901 .49458-.19479 1.0195-.57094.92192-1.17843 .05212-.71366-.61923-1.09232-1.14463-1.40706-.24008-.10132-.5796-.36666-.83644-.28301z" fill-rule="evenodd" stroke="#000" stroke-width=".93938"/>
     <path d="m885.55834,259.72344c-.15718,1.23414-.82482,3.03541-2.32941,2.97549-2.7145.4147-5.25436-1.01436-7.23543-2.73466-.85573-.82106-1.78212-1.5388-2.80735-2.13554-.73327-.41966-1.40155-1.00416-2.1751-1.3217-1.33302-.22948-2.65489-.58271-4.01879-.46981-.80796-.03728-1.69926.18387-2.34661-.44354-1.24165-1.00106-2.53493-1.96757-3.68465-3.06583-.47139-.62675-1.15866-1.13932-1.24255-1.97104-.12477-.80419-.52258-1.54853-1.37993-1.77325-.76821.29997-.23626,1.48568-.63656,2.15439-.19785.43611-.03907,1.20247-.67519,1.23273-.46201.04984-1.11084.6742-1.34493.02313-.31038-.5024-.78307-.96253-.99538-1.49048 .04048-.77309.26617-1.5658.1873-2.32625-.26514-.59222-.23844-1.40735-.93822-1.66759-.64759-.42091-1.35571-.85642-1.77228-1.50552-.0102-.43213-.30815-1.13133-.15206-1.40911 .93347.12529 1.91194.09244 2.81693.31786 2.05701.86918 3.65528,2.60433 5.82653,3.22507 1.2304.07612.75334-1.34348.31952-1.95649-.45439-.48317-.14003-.93682.18064-1.39022 .14659-.68848.78585-.34184 1.27499-.31062 .62919-.02736 1.09934.32922 1.55761.71448 .62592.45728 1.19356,1.03699 2.00856,1.09699 1.79915.65063.55995-1.5699.36866-2.42346-.25012-1.00543-1.13311-2.36171-.6875-3.03125 .59784-.89826 3.40553-.7354 3.84863.97168 1.20325,1.54646.4369,3.48292.595,5.24152 .00285,1.17487 1.03004,1.74625 2.06601,1.5368 .60268-.02765 1.15765-.34927 1.74036-.5 .14143-1.71417 2.50608-2.61238 3.3455-.85114 .49576,1.09371.03576,2.29829.1545,3.45161-.13797.57199.21653.97981.55707,1.39229 .41225.56973 1.35854.10527 1.95855.16349 1.42303-.43739 1.80116.75727 1.91862,1.83071 .16098.72009.30711,1.44675.81576,2.01304 .44955.73195.88987,1.46897 1.25,2.25 .72061.54296 1.51316,1.23597 1.6312,2.18622z" fill-rule="evenodd" stroke="#000"/>
     <path d="m878.91 257.77c-1.2062-1.897-4.2866-2.9899-6.6501-4.2804-1.2964-0.51593-2.708-0.10052-4.0499-0.38479-0.76932-0.16298-1.5721-0.36268-2.3272-0.41629-0.52717-0.03743-2.1514-1.6293-2.5691-1.8704-0.6632-0.44615-1.3208-1.3196-1.1605-1.9801 0.13719-0.56508 1.3408-0.24942 1.1187-1.5474-0.12357-0.7223 2.2097-0.36166 3.1324 0.17391 0.88892 0.51592 2.0047 0.33683 2.8501 0.81269 1.1093 0.62437 1.9257 1.8871 3.29 2.0274 1.0127 0.19593 1.9514 0.62408 2.8008 1.2 0.94981 0.55769 1.6418 1.4358 2.4088 2.2076 0.7443 0.84305 1.4443 1.7288 2.1006 2.6406 0.52923 0.91407 0.00364 2.9083-0.94463 1.417z" fill-rule="evenodd" filter="url(#o)"/>
     <path d="m883.73 322.95c-2.8773-1.8859-5.0214-3.2526-6.6912-6.3744-1.4556-2.7329-1.4202-6.144-2.5426-9.0864-1.2956-3.7558-2.8042-7.6136-4.4869-11.14-2.3516-2.0644-5.5926-3.4529-6.2457-6.808-1.6653-4.6921-6.89-6.7776-9.6538-10.585-1.7877-3.1165 0.73723-2.8658 3.1575-2.6969 5.1078-0.30896 9.5856 2.7875 13.011 6.2511 1.4286 2.1563 4.5093 2.86 6.9108 2.7676 5.2263-1.4587 13.057-1.1642 15.429 1.7502 0.50215 0.61684-2.226 3.2836-3.776 4.0431 4.0017 0.40649 2.1006-0.12858 5.67-0.1943 4.2769-1.2436-1.8885 2.9461-2.7386 3.2517 3.3421 0.97326 3.8949 1.0794 4.6577 1.2694 2.8495-0.3203 1.1623 1.8304-1.4141 4.0788 4.9302 1.8093 5.6194-0.85612 7.001-0.34301 3.3182-0.0949 5.2574 3.8704 7.8536 2.8972 4.5477-1.7046 6.4669-1.0819 8.5135-0.59611 2.0653-1.6724 0.50475-0.48758 1.1389-3.5648-2.711-1.5833 3.0786-2.1329 1.71-5.4701-4.211-1.2382-6.3272-3.178-3.3683-8.3497 0.16117-3.1501-0.18676-4.3342-2.9856-6.2158-3.2836-0.89909-4.4585-4.3798-7.3693-5.794-2.2423-0.2302-4.3513 0.04178-6.1362 1.534-2.9447 1.0236-6.3568 0.15889-7.8216-2.7585-1.5676-1.929-4.2422-2.4699-6.3684-1.0766-2.3028 0.42687-4.8445-0.16726-4.9447-2.9451-0.43247-2.4986-1.6004-4.0111-3.8761-2.0405 0.13573 2.3363-2.4757 3.9356-4.59 3.2784-5.201-0.15313-10.358-1.4964-14.586-4.429-3.7209-0.5811-6.4146-2.9398-8.2377-6.0869-2.0596-5.9506 2.1034-6.3639 1.9805-9.3631-1.0544-2.1967-3.7224 0.52766-5.1867 1.2395-1.5083-1.5834-0.56026-5.4449-3.2632-6.2758-2.6086 1.9486 0.75881 6.5338-0.97096 6.3646-1.199-2.3227-4.2205-4.3569-5.7336-6.4167-1.7824-1.3501-3.5796-2.7459-5.8178-3.2393-0.05689 3.3138 1.8461 6.2723 4.7321 8.0522-2.2347-0.49675-5.3308 0.67581-5.0466 3.4229 0.92188 1.3131 4.2768-0.14816 6.0594 0.38741 3.4091 0.13198 6.3599 3.5923 9.1439 5.7109 2.0259 1.7487 3.4258 4.2316 3.1364 6.9715-3.183-0.29405-5.6104-6.1932-8.3623-7.6786 0.35149 3.2739 3.7324 8.0838 2.9931 9.2126-0.63989 0.97694-5.8217-4.5692-9.9783-5.8417 3.5834 6.4539 7.2336 6.7325 7.4214 8.7766 0.10928 1.1899-4.8113 1.3604-7.4176 1.2789 3.451 1.0458 6.6232 3.9982 9.4216 5.4685 3.0814 1.8529-0.58897 2.6964-2.5126 2.2065-2.6482-0.27775 0.76246 3.7734 2.2909 3.5466 1.2438 0.34313 5.7496 0.68292 4.7401 1.4801-0.91258 0.97094-4.7163 3.5642-2.8394 4.3633 2.152 0.26006 5.1283-0.32069 6.1608-2.4867-2.118 4.6218-2.4626 4.0642-1.0379 6.3838 1.1454 1.4222 3.6245 1.9631 4.4844 4.3477 2.5922 3.8638 6.4066 7.0634 7.244 11.848 1.4066 1.8005 4.0404 2.4176 4.6501 5.0336 0.92038 3.534 2.8528 6.2705 5.5115 8.7212 2.5818 3.5877 16.19 5.9297 14.925 4.9217-1.2841-1.0236-0.86752-1.0495-3.9488-3.0023z" fill-rule="evenodd" stroke="#000"/>
     <path d="m855.32 276.15c0.07968 0.69561 0.15419 0.80832-0.02478 2.1559-0.34007 1.7004-0.30228 1.7175-1.1576 4.311-0.253 1.462-0.47322 1.1688-1.076 2.241-0.42237 0.76026-0.46686 0.76479-1.2671 2.2808 2.1442-0.65268 2.1243-0.65268 2.8258-1.0992 2.4483-2.3762 2.1195-1.7687 6.0319-4.0618 1.0617-0.90177 1.6912-1.2733 2.1872-2.3176 0.08371-0.50225 0.68269-1.5541 0.7664-2.0564-0.76175-0.36395-1.0867-0.57826-2.5175-1.0076-0.62229-0.22474-0.31125-0.20691-2.1395-0.41168-1.1867 0-1.1368-0.03435-3.6288-0.03435z" fill-rule="evenodd" stroke="#000"/>
     <path d="m876.56125,314.14477c.41894.01758.4883.04576 1.29207-.05722 1.01149-.17691.83048-.52122 2.36536-.92945 .58069-.24776.84895-.03714 1.47757-.30834 .44589-.19025.48047-.03209 1.37059-.39417-.34088.89583-.44422,1.28371-.69547,1.58186-.78709,1.10213-1.7148,1.02284-2.61989,1.8195-.36678.12931-.29428,1.07607-.90879,1.3028-.29917.04537-.91574.31457-1.21492.35995-.23614-.30526-.37228-.43416-.66335-1.01309-.1494-.25094-.13138-.12346-.29718-.87064-.02793-.4879-.04735-.46662-.10599-1.4912z" fill-rule="evenodd" stroke="#000" stroke-width=".49701"/>
     <path d="m903.4 275.66c-1.5424-0.36356-5.6012 1.3228-8.4938 1.0818-3.0188 0.13022-6.0411-0.08335-8.985-0.78105-2.246-0.62903-4.5796-0.08408-6.8214-0.61599-2.2931-0.54054-4.5931-1.1731-6.7985-1.9703-2.2541-1.4696-4.8517-2.2152-7.1921-3.4804-2.5192-1.6354-5.5377-2.157-8.1448-3.5857-1.395-0.94201-4.0603-3.5344-3.8893-0.32413-0.27855 1.8217-0.97238 4.4373-3.3582 3.7878-1.8316-0.60019-4.3537-0.59855-3.9334 2.0852-0.74204 2.9326 1.2548 1.6129 2.1297 3.3455-0.44022 1.2337 1.694 1.216-0.54202 4.0463-0.59081 0.7478 3.6148 1.7728 5.1035-5.157 1.1042-1.9784 0.14415-4.4797 4.0558-3.0907 2.3822 0.86501 4.9556 1.3615 7.0219 2.9181 2.1166 1.5527 4.2628 3.0858 6.7232 4.0537 2.8933 1.6832 6.2453 2.1648 9.5355 2.2962 2.794 2.2705 6.6711 1.4955 9.8398 2.8419 3.5589 1.0319 7.3408 1.327 11.02 1.1374 1.707-0.36951 1.6408-2.6928-0.36732-2.2141-2.2555-0.70951-4.5988-0.67163-6.9129-0.65791-2.4454-0.27403-4.8241-0.93038-7.2416-1.3656-2.232-1.0744-5.0463-1.1557-7.3755-2.5987 2.691-0.51274 5.9258 0.57043 8.5422 1.0565 2.6594 0.86067 5.6532-0.1773 8.2653 0.78907 2.1224 0.19286 4.139-0.48959 6.2794-0.6449 2.1652-0.29628 3.0864-2.5883 1.5398-2.9528z" fill-rule="evenodd" filter="url(#p)"/>
     <path d="m910.99 294.92c-1.5672 0.96561-3.4881 1.4487-5.3048 1.0008-1.6086-0.19337-3.2529-0.21026-4.8154-0.67264-1.2142-0.14949-1.728-1.3983-2.4249-2.2333-0.49657-0.90638-0.21531-1.9923-0.45501-2.9697-0.15057-1.2128-0.36609-2.4191-0.68227-3.6003-0.67008-0.88753-0.1671-1.9901-0.03075-2.9513 0.35616-0.91354 1.2569-1.4524 1.9933-2.0364 0.93732-0.49045 2.0455-0.51873 2.9633-1.0646 1.2117-0.50766 2.4588-1.0016 3.7539-1.2265l3.6469-0.2431c1.1899 0.73747 2.4494 1.3737 3.7828 1.797 0.75466 0.69323 0.56395 1.8901 0.78937 2.7975 0.22502 0.93116 0.0359 1.9673-0.94543 2.3542-1.1456 0.42764-1.3695-0.99902-2.0321-1.5621-0.58358-0.59214-1.4117-1.3374-1.1025-2.25-0.17498-1.2403-1.9216-0.369-2.6415-1.1172-1.2748-0.13889-1.5723 1.3978-2.3848 2.0504-0.59554 1.1177-1.9489 0.93506-2.9927 1.2308-1.0862-0.01245-2.4164 0.12424-2.4984 1.5107-0.20371 0.892-0.80042 1.8616-0.25498 2.7524 0.3638 1.161 0.78607 2.3367 1.4791 3.3416 0.82103 0.63506 1.9248 0.32189 2.8672 0.57476 2.1288 0.1141 4.269 0.11964 6.3963 0.01378 0.59806-0.05148 1.9831-0.58942 2.103 0.10422-0.42993 0.78599-0.79632 1.6044-1.2097 2.3989z" fill-rule="evenodd" filter="url(#q)"/>
     <path d="m911.28124,290.11028c-.49449-.81225-1.13447-1.68471-2.12568-1.88266-.71909-.1952-1.58108-.33715-2.21402.16219-1.09416.69999-2.48748,1.04196-3.7548.65242-.46661-.24879-.48815-.87493-.3414-1.32174 .15767-1.25065 1.32454-2.18008 2.53351-2.32714 1.27082-.20258 2.54467.08984 3.80046.26167 .53261.13124.89201.588 1.14295,1.04665 .44683.63489 1.00967,1.26483 1.05582,2.07979 .03049.44657-.12728.88227-.09684,1.32882z" fill-rule="evenodd" filter="url(#g)"/>
     <g transform="matrix(.61632 -.058388 .051419 .54276 675.68 -93.379)" filter="url(#m)">
      <path transform="matrix(1.185 .45609 -.37345 1.4472 228.53 -422.01)" d="m252.02 687.76a9.4156 4.6076 0 1 1 -18.831 0 9.4156 4.6076 0 1 1 18.831 0z"/>
      <path transform="matrix(.99768 .28501 -.13787 1.3185 112.35 -291.63)" d="m252.02 687.76a9.4156 4.6076 0 1 1 -18.831 0 9.4156 4.6076 0 1 1 18.831 0z"/>
      <path transform="matrix(.72735 .060922 .078088 .81399 30.655 110.1)" d="m252.02 687.76a9.4156 4.6076 0 1 1 -18.831 0 9.4156 4.6076 0 1 1 18.831 0z"/>
      <path transform="matrix(1.6995 -.070337 .22925 1.2447 -311.4 -154.42)" d="m246.22 688.21a1.3874 1.5724 0 1 1 -2.7748 0 1.3874 1.5724 0 1 1 2.7748 0z"/>
     </g>
    </g>
   </g>
   <g transform="translate(665.78 -372.78)" filter="url(#d)" stroke="#000">
    <path d="m688.93 971.96c-36.209-18.147-74.591-36.35-111.48-53.053-45.128-24.351-87.922-52.831-129.95-82.121-22.769-16.081-43.984-34.135-64.757-52.681 22.572 4.3394 46.396 4.8954 68.265-3.0681-12.064-2.5905-23.208-5.1697-34.668-11.6-17.847-9.4492-31.535-24.889-45.103-39.512-21.623 3.5374-44.572 0.52309-63.706-10.525-17.67-8.8072-34.345-19.917-49.47-32.54-21.937-20.858-48.876-35.154-75.397-49.266 12.093 21.659 22.82 44.518 38.195 64.028 20.567 19.021 37.466 42.607 57.568 62.129 14.302 17.1 30.456 33.825 47.581 48.673 25.152 22.953 47.163 46.311 72.146 69.323 19.571 18.027 40.981 34.41 63.261 48.995 19.391 12.694 39.312 21.028 60.819 28.941 19.2 7.0641 40.811 13.344 60.982 16.118 23.226 3.194 47.671 4.1007 70.856 1.2772 11.827-1.4403 23.31-2.1219 34.857-5.1179z" fill="#87cdde" fill-rule="evenodd"/>
    <path d="m375.23 765.14c-2.5268-1.605-4.1867 0.70125-3.9365 2.2457 0.48372 2.985 4.2184 5.282 6.7837 5.0215 6.1012-0.61958 5.33-6.8125 3.77-10.802-1.1988-3.0662-7.1285-7.1007-13.121-3.9982-7.5336 3.9006-5.6827 12.968-0.28018 18.464 1.3592 1.3826 8.8316 6.3254 14.204 8.0041" fill="none"/>
   </g>
   <path d="m1304.7 585.09c-17.637 2.8056-35.279 5.7535-53.15 2.6312-13.901 0.35622-27.053-3.0882-39.93-7.8974-21.18-6.1408-41.571-14.647-61.35-24.289-18.99-11.514-37.744-23.365-54.822-37.626-24.318-18.585-46.398-39.952-68.43-61.152-18.736-15.704-32.406-33.789-50.69-48.482-20.975-23.856-46.165-43.495-67.239-67.239-11.341-10.474-18.666-21.768-28.782-33.454-6.8079-5.9721-12.789-23.649-17.038-31.344 10.132 3.8149 17.653 10.392 31.956 22.172 18.855 17.784 34.809 30.977 55.147 43.561 24.288 14.824 55.376 25.503 85.004 20.316 2.2976 4.0298 5.8468 8.4824 12.628 15.329 12.105 10.219 24.619 19.778 38.88 25.419 7.1035 3.7398 11.829 4.8006 14.916 5.4615-15.747 2.9696-22.114 1.1505-30.373 0.77438-11.481-1.8461-20.028-2.8744-27.384-9.3572 5.0412-1.7633 5.1882-5.7179 4.2085-9.4671-0.0063-1.465-5.5661-10.014-14.887-5.1609-5.4121 3.5087-4.0545 10.971-1.3936 14.249 6.4035 6.5551 11.765 10.249 16.299 12.069 9.8872 8.8882 18.99 22.424 29.206 31.512 13.707 14.548 30.506 25.703 46.459 37.602 29.593 19.682 59.265 39.406 91.115 55.296 22.078 12.683 44.275 25.14 67.07 36.474 7.4596 4.3228 14.991 8.5139 22.581 12.603z" fill="#1b251c" fill-rule="evenodd" filter="url(#e)"/>
   <path d="m1033.3 447.38c-9.437-3.138-17.581-8.3699-25.929-13.315-6.2205-4.1947-10.482-10.425-15.059-16.156-4.7628-6.0782-7.9936-12.311-15.007-17.217-4.0402-3.433-7.6682-6.6181-13.469-8.0588-7.8847-2.7043-17.456-8.7798-18.361-17.738-3.2559-8.5154-10.035-15.427-18.445-18.939-5.1234-2.789-8.8439-7.5694-12.603-11.995-1.5561-1.6592-7.7908-5.1528-3.6656-6.6905 4.4206-1.9313-2.2826-11.003-7.0414-12.861-6.177-2.8207-12.385-5.347-17.822-10.622-4.4342-3.6373-6.9289-8.1433-11.176-13.166-2.3671-2.7998-5.8707-5.4147-8.5575-7.4184-5.7377-4.2789-16.315-2.2532-16.568-12.268-1.7173-3.7816 2.072-5.0557 4.6022-6.9033 4.9979-1.2926 10.326 3.1048 15.799 3.9576 3.9488-0.38049 5.3137 3.5769 7.278 6.2724 0.83363 4.5137 3.0977 9.2104 6.8374 12.014 3.9545 4.8503 5.5394 11.495 10.595 15.581 3.3553 3.7476 8.3957 5.7984 13.433 5.1292 3.507-0.60659 5.6282 3.048 8.0821 4.9909 1.9964 2.6354 4.3256 5.0055 7.7754 5.364 5.6152 2.5822 11.88 5.2439 14.71 11.135 3.2978 5.654 5.1163 12.327 10.229 16.797 2.9615 2.4252 7.3502 2.6479 10.399 5.1958 4.0053 1.8809 6.9463 1.0048 9.8116 3.4371 5.1005 2.5038 9.4507 6.0123 13.523 9.9324 3.4635 3.6137 7.816 6.7977 9.7534 11.513-4.2537-3.1503-2.6254-1.901-4.2448-3.6331-7.4248-7.3311-10.603-8.2283-16.251-12.018-4.142-3.1266-9.7028-4.0116-14.325-6.4036-5.4318-2.733-10.134-7.0354-14.69-11.046-3.4719-4.2047-6.4646-8.7759-10.79-12.181-3.6728-4.2705-8.9692-6.4145-13.878-8.8926 0.69204 3.9441 1.3801 7.1557 4.5017 10.153 4.9965 6.9549 12.293 12.098 17.983 18.514 5.7766 6.7735 10.431 14.778 18.168 19.656 4.8576 2.9611 9.5242 4.7587 13.903 9.6844 5.6697 5.4804 11.238 11.12 15.868 17.402 3.5149 3.8871 5.3347 9.0077 9.1618 13.303 2.7042 3.9914 7.3157 7.283 11.65 10.611 3.3914 4.6325 8.7911 6.8099 13.396 10.014 3.5405 2.3968 6.3229 4.475 10.423 6.8674z" fill="#afbdac" fill-rule="evenodd" filter="url(#c)" stroke="#000"/>
   <path d="m856.58 283.07c5.1671 3.2852 14.397 6.55 17.083 11.468 2.9145 5.3367 9.0218 8.269 12.844 13.154 4.5378 4.7759 8.0136 10.271 14.078 12.611 5.596 2.1592 11.441 4.94 12.911 10.388 0.71797 2.6606 1.1832 8.375-0.72363 8.2695-2.849-0.15755 3.5138 4.6403 6.233 7.148 4.6981 4.3327 11.965 8.2259 17.251 12.273 5.8119 4.2379 8.6459 11.51 11.876 17.879 1.8219 2.6165 3.7222 7.0961 9.7912 10.662 6.633 3.8972 16.715 8.0228 17.848 8.211-6.5139-7.2651-15.158-11.691-16.879-12.823-5.6731-3.4409-11.288-7.5412-14.182-13.699-4.8163-8.1852-12.193-14.32-19.654-20.139-5.9362-4.6302-7.6795-7.494-8.5227-12.768-0.92295-5.082-0.56876-8.7882 4.2694-5.5256 6.0396 1.5357 19.524 15.048 18.841 14.061-1.827-4.6423-11.427-12.809-18.05-15.648-4.295-1.1127-6.4954-7.1584-11.964-8.5257-5.2768-1.3194-13.21-1.4916-16.764-6.3844-4.7047-4.0844-6.1652-10.629-11.208-14.346-5.018-3.5454-7.0222-8.6319-10.751-13.266-3.3244-4.1312-6.9432-7.3639-12.008-8.4502-7.4482-0.41033-2.8716 5.1002-2.3191 5.4515z" fill="#21221a" fill-rule="evenodd" filter="url(#n)"/>
   <path d="m753.78 180.14s-609.73-609.81-622.83-619.76c-12.492-9.4902-8.3513-33.493 17.984-21.817 28.397 12.59 632.46 632.37 632.46 632.37s-24.545-12.272-27.613 9.2043z" fill="#999" fill-rule="evenodd" filter="url(#s)" stroke="#000"/>
   <path d="m756.25 172.96s-474.03-472.14-628.65-626.77c-5.177-5.177 8.0281-14.062 20.591-1.9998 10.606 10.183 621.24 622.18 621.24 622.18s-16.002-2.8238-13.178 6.5889z" fill="#2b1100" fill-rule="evenodd" filter="url(#t)"/>
   <g transform="translate(.95878 1.7258)" filter="url(#r)">
    <g transform="matrix(1.0272 0 0 1.0197 5.6896 6.0951)">
     <path d="m738.46 138.81c-2.5537 0.11584-5.8432 1.4173-11.039 5.018-13.533 9.3788-13.714 13.284-13.561 18.476 0.12462 4.2108 5.1678 8.5972 11.385 6.6819l0.03515-0.00104c1.0159-3.3855 4.0709-7.2018 13.076-13.443 3.9272-2.7217 6.7859-4.1334 9.0428-4.7044 2.0468-3.4742 0.69453-6.2389-3.764-10.69-1.6285-0.78716-3.1897-1.428-5.1759-1.3379z" fill="#a3b2a4" stroke="#000" stroke-width=".86744"/>
     <path d="m736.56 141.13c-2.1684 0.25529-3.8091 1.6794-8.2498 4.6859-5.7833 3.9156-9.3942 7.9729-10.531 10.222s-1.4895 4.0789-0.58904 6.467c1.2315 3.2661 4.7471 3.7563 7.2552 3.6762 2.7749-0.08869 2.2171-0.27174 2.7121-0.89351 1.6656-2.092 3.1649-4.2052 10.783-9.6028 3.3097-2.3449 4.161-2.5589 5.8632-3.8868 1.9345-1.5092 1.7052-4.3421 1.4215-5.2896-0.62505-2.0868-1.5137-3.3073-3.0129-4.4042-1.1157-0.81637-1.8707-0.85031-2.7916-1.0255-0.74532-0.14177-1.4316-0.117-2.8612 0.05132z" fill="#150e06"/>
     <path d="m746.3 148.45c-2.3782 0.03799-5.4734 1.174-10.405 4.426-12.844 8.4704-13.12 12.149-13.12 17.052 0 3.9761 4.5696 8.2551 10.405 6.6218h0.03272c1.038-3.1656 3.9843-6.6807 12.531-12.317 3.7274-2.4581 6.4249-3.7102 8.5396-4.1858 1.9992-3.2205 0.81764-5.8666-3.2064-10.19-1.4929-0.7881-2.9272-1.4362-4.7769-1.4067z" fill="#a3b2a4" stroke="#000" stroke-width=".81289"/>
     <path d="m744.47 150.58c-2.0237 0.18031-3.5888 1.478-7.8015 4.1905-5.4864 3.5326-8.9562 7.2596-10.075 9.3498s-1.4976 3.8066-0.72582 6.0847c1.0554 3.1157 4.3115 3.6764 6.6464 3.6708 2.5832-0.00619 2.0694-0.19446 2.5469-0.76724 1.6066-1.9272 3.0592-3.879 10.293-8.7586 3.1426-2.1199 3.9402-2.298 5.5599-3.5032 1.8407-1.3698 1.7054-4.0489 1.4676-4.9507-0.52387-1.9862-1.3167-3.1625-2.6808-4.2392-1.0152-0.80133-1.7164-0.85443-2.568-1.0454-0.68927-0.15457-1.3282-0.15036-2.6624-0.03148z" fill="#150e06"/>
     <path transform="matrix(.62761 -.4723 .43038 .68875 526.62 51.507)" d="m162.2 259.19a7.65 2.7988 0 1 1 -15.3 0 7.65 2.7988 0 1 1 15.3 0z" fill="#cbdcd2" filter="url(#a)"/>
     <path transform="matrix(.51724 -.30734 .35469 .44818 554.13 78.842)" d="m162.2 259.19a7.65 2.7988 0 1 1 -15.3 0 7.65 2.7988 0 1 1 15.3 0z" fill="#cbdcd2" filter="url(#a)"/>
    </g>
    <path d="m779.11 166.98c-2.3571 0.03597-5.4248 1.1116-10.312 4.1907-12.73 8.0202-13.004 11.504-13.004 16.146 0 3.7648 4.529 7.8163 10.312 6.2698h0.03243c1.0288-2.9974 3.949-6.3256 12.42-11.663 3.6943-2.3274 6.3679-3.513 8.4638-3.9633 1.9815-3.0493 1.061-5.8964-3.178-9.6484-1.2291-1.0879-2.9013-1.3599-4.7346-1.3319z" fill="#a3b2a4" stroke="#000" stroke-width=".78748"/>
    <path d="m777.45 169.24c-2.105 0.17902-3.7329 1.4674-8.1149 4.1605-5.7068 3.5073-9.316 7.2075-10.48 9.2827s-1.5577 3.7793-0.75496 6.0411c1.0978 3.0934 4.4847 3.65 6.9133 3.6444 2.6869-0.00614 2.1525-0.19307 2.6492-0.76174 1.6711-1.9133 3.1821-3.8511 10.706-8.6957 3.2689-2.1047 4.0985-2.2815 5.7832-3.4781 1.9146-1.36 1.774-4.0198 1.5265-4.9152-0.54491-1.9719-1.3696-3.1398-2.7885-4.2088-1.056-0.79557-1.7854-0.84829-2.6712-1.0379-0.71695-0.15345-1.3816-0.14927-2.7694-0.03125z" fill="#150e06"/>
    <path transform="matrix(.7853 -.56555 .53851 .82472 506.97 49.757)" d="m162.2 259.19a7.65 2.7988 0 1 1 -15.3 0 7.65 2.7988 0 1 1 15.3 0z" fill="#cbdcd2" filter="url(#a)"/>
    <path d="m782.83 175.23c-2.1183 0.03709-6.8579 1.6262-10.381 4.369-8.5949 6.6912-7.9703 13.487-6.2574 14.075 4.2678-2.0173 5.262-7.0595 13.809-12.696 3.7274-2.4581 5.6708-3.9152 7.7855-4.3909-0.38669-1.1735-3.0106-1.3911-4.956-1.357z" fill="#a3b2a4" stroke="#000" stroke-width=".81289"/>
    <g transform="translate(630.13 -38.088)">
     <path d="m136.15 231.93s15.436 18.401 20.997 23.874c0.47939-8.8208 14.454-20.878 23.97-17.642-5.537-6.8313-23.49-23.107-23.49-23.107s-18.025-1.9176-21.477 16.875z" fill="#10150e" fill-rule="evenodd" stroke="#000"/>
     <path d="m138.07 233.9s4.4584-18.199 21.908-16.665" fill="none" stroke="#000"/>
     <path d="m139.5 234.42 16.062 17.812 0.0625-1.5625-16.062-17.688-0.0625 1.4375z" fill="#edd9d9" fill-rule="evenodd" filter="url(#b)" opacity=".53738"/>
     <path transform="matrix(.99581 -.091403 .091403 .99581 -19.904 15.95)" d="m159.44 219.3 16.062 17.812 0.0625-1.5625-16.062-17.688-0.0625 1.4375z" fill="#edd9d9" fill-rule="evenodd" filter="url(#b)" opacity=".53738"/>
    </g>
    <path transform="matrix(1.1088 -.28347 .17004 1.0305 617.83 4.4133)" d="m126.56 217.07a8.3414 7.7662 0 1 1 -16.683 0 8.3414 7.7662 0 1 1 16.683 0z" fill="#cbdcd2" filter="url(#u)"/>
    <path transform="matrix(1.013 -.26359 .15327 .95821 632.79 17.75)" d="m126.56 217.07a8.3414 7.7662 0 1 1 -16.683 0 8.3414 7.7662 0 1 1 16.683 0z" fill="#ccc"/>
    <path transform="matrix(.91616 -.23543 .13995 .85583 647.14 36.498)" d="m126.56 217.07a8.3414 7.7662 0 1 1 -16.683 0 8.3414 7.7662 0 1 1 16.683 0z" fill="#1a1a1a"/>
    <path transform="matrix(.4588 -.12277 .0679 .44631 716.83 112.17)" d="m126.56 217.07a8.3414 7.7662 0 1 1 -16.683 0 8.3414 7.7662 0 1 1 16.683 0z" fill="#ccc"/>
    <path transform="matrix(.32558 -.08301 .05003 .30177 736.46 138.85)" d="m126.56 217.07a8.3414 7.7662 0 1 1 -16.683 0 8.3414 7.7662 0 1 1 16.683 0z"/>
    <g transform="matrix(1.1248 -.03329 .03441 1.1627 614.34 -84.902)">
     <path d="m166.01 247.26c-2.2714 0.0346-5.2277 1.0693-9.9375 4.0312-12.268 7.715-12.531 11.066-12.531 15.531 0 3.6215 4.3644 7.5189 9.9375 6.0312h0.03125c0.9914-2.8833 3.8054-6.0849 11.969-11.219 3.5601-2.2389 6.1365-3.3793 8.1562-3.8125 1.9095-2.9333 0.78094-5.3434-3.0625-9.2812-1.4259-0.71781-2.7958-1.3082-4.5625-1.2812z" fill="#a3b2a4" stroke="#000" stroke-width=".75818"/>
     <path d="m164.26 249.2c-1.9329 0.16423-3.4277 1.3462-7.4513 3.8168-5.2402 3.2176-8.5542 6.6121-9.6229 8.516s-1.4303 3.4671-0.69324 5.5421c1.0081 2.8378 4.118 3.3485 6.348 3.3434 2.4672-0.00564 1.9765-0.17712 2.4326-0.69882 1.5345-1.7553 2.9219-3.533 9.8309-7.9774 3.0016-1.9308 3.7634-2.093 5.3103-3.1908 1.7581-1.2476 1.6289-3.6878 1.4017-4.5092-0.50036-1.809-1.2576-2.8804-2.5605-3.8611-0.96963-0.72987-1.6394-0.77823-2.4527-0.95217-0.65833-0.14078-1.2686-0.13695-2.5429-0.02867z" fill="#150e06"/>
    </g>
    <g transform="matrix(1.047 0 0 1.0979 644.5 -63.753)">
     <path d="m166.01 247.26c-2.2714 0.0346-5.2277 1.0693-9.9375 4.0312-12.268 7.715-12.531 11.066-12.531 15.531 0 3.6215 4.3644 7.5189 9.9375 6.0312h0.03125c0.9914-2.8833 3.8054-6.0849 11.969-11.219 3.5601-2.2389 6.1365-3.3793 8.1562-3.8125 1.9095-2.9333 0.78094-5.3434-3.0625-9.2812-1.4259-0.71781-2.7958-1.3082-4.5625-1.2812z" fill="#a3b2a4" stroke="#000" stroke-width=".75818"/>
     <path d="m164.26 249.2c-1.9329 0.16423-3.4277 1.3462-7.4513 3.8168-5.2402 3.2176-8.5542 6.6121-9.6229 8.516s-1.4303 3.4671-0.69324 5.5421c1.0081 2.8378 4.118 3.3485 6.348 3.3434 2.4672-0.00564 1.9765-0.17712 2.4326-0.69882 1.5345-1.7553 2.9219-3.533 9.8309-7.9774 3.0016-1.9308 3.7634-2.093 5.3103-3.1908 1.7581-1.2476 1.6289-3.6878 1.4017-4.5092-0.50036-1.809-1.2576-2.8804-2.5605-3.8611-0.96963-0.72987-1.6394-0.77823-2.4527-0.95217-0.65833-0.14078-1.2686-0.13695-2.5429-0.02867z" fill="#150e06"/>
    </g>
    <g transform="translate(661.3 -28.758)">
     <path d="m166.01 247.26c-2.2714 0.0346-5.2277 1.0693-9.9375 4.0312-12.268 7.715-12.531 11.066-12.531 15.531 0 3.6215 4.3644 7.5189 9.9375 6.0312h0.03125c0.9914-2.8833 3.8054-6.0849 11.969-11.219 3.5601-2.2389 6.1365-3.3793 8.1562-3.8125 1.9095-2.9333 0.78094-5.3434-3.0625-9.2812-1.4259-0.71781-2.7958-1.3082-4.5625-1.2812z" fill="#a3b2a4" stroke="#000" stroke-width=".75818"/>
     <path d="m164.26 249.2c-1.9329 0.16423-3.4277 1.3462-7.4513 3.8168-5.2402 3.2176-8.5542 6.6121-9.6229 8.516s-1.4303 3.4671-0.69324 5.5421c1.0081 2.8378 4.118 3.3485 6.348 3.3434 2.4672-0.00564 1.9765-0.17712 2.4326-0.69882 1.5345-1.7553 2.9219-3.533 9.8309-7.9774 3.0016-1.9308 3.7634-2.093 5.3103-3.1908 1.7581-1.2476 1.6289-3.6878 1.4017-4.5092-0.50036-1.809-1.2576-2.8804-2.5605-3.8611-0.96963-0.72987-1.6394-0.77823-2.4527-0.95217-0.65833-0.14078-1.2686-0.13695-2.5429-0.02867z" fill="#150e06"/>
    </g>
    <path transform="matrix(.7853 -.56555 .53851 .82472 554.6 101.97)" d="m162.2 259.19a7.65 2.7988 0 1 1 -15.3 0 7.65 2.7988 0 1 1 15.3 0z" fill="#cbdcd2" filter="url(#a)"/>
    <path transform="matrix(.62761 -.4723 .43038 .68875 597.66 111.54)" d="m162.2 259.19a7.65 2.7988 0 1 1 -15.3 0 7.65 2.7988 0 1 1 15.3 0z" fill="#cbdcd2" filter="url(#a)"/>
    <path transform="matrix(.51724 -.30734 .35469 .44818 627.25 136.52)" d="m162.2 259.19a7.65 2.7988 0 1 1 -15.3 0 7.65 2.7988 0 1 1 15.3 0z" fill="#cbdcd2" filter="url(#a)"/>
   </g>
   <path d="m847.17 231.78c-1.2914 3.0523-0.63685 6.4833 1.3747 9.2129-1.887-1.2961-5.1882-1.3465-5.9515 1.3077 0.36423 1.5625 4.0296 1.4508 5.4829 2.6139 3.1126 1.3967 4.5357 5.7094 6.3259 8.7151 0.19067 0.37021 0.33827 0.74995 0.4845 1.1386l3.4492 1.39c-0.0585-0.29389-0.14053-0.5825-0.18342-0.88252 0.31403-6.2892 4.3523-5.1201 5.3593-7.9478-0.15689-2.4316-3.6545-0.89258-5.2787-0.77967-0.80711-2.0324 1.5009-5.2715-0.69552-7.0524-3.1478 0.83221-1.7403 6.3544-3.2814 5.5508-0.24384-2.6025-2.2645-5.6324-2.8979-8.1085-1.1486-1.9185-2.2964-3.8638-4.188-5.1581z" fill="#97a293" fill-rule="evenodd" stroke="#000"/>
   <path d="m837.53 228.28c-3.2022 0.11472-7.527 1.7157-11.969 4.6562-7.8964 5.2276-13.154 12.72-11.719 16.75 0.69428 1.95 2.84 2.7453 5.75 2.4375-0.44885 1.5533-0.5003 2.9517-0.0625 4.0625 0.71226 1.8071 2.5923 2.5628 5.125 2.375-0.37807 1.6364-0.36386 3.1082 0.1875 4.2188 0.82013 1.652 2.6524 2.3054 5.0312 2.0938-0.35212 1.62-0.28203 3.0463 0.28125 4.1562 0.81362 1.6032 2.5303 2.3406 4.8125 2.25-0.45944 2.1646-0.32789 4.0186 0.53125 5.3438 2.7756 4.281 11.952 1.3933 20.469-6.4375s13.151-17.656 10.375-21.938c-1.0532-1.6244-3.0228-2.2233-5.5312-1.9062-0.07408-0.52116-0.18679-1.0051-0.40625-1.4375-1.0249-2.0195-3.5096-2.6345-6.7188-2 0.18439-1.2856 0.07866-2.4299-0.375-3.3438-0.81495-1.6416-2.6121-2.3243-4.9688-2.125 0.05931-0.82182 0.00709-1.5665-0.25-2.2188-0.74081-1.8796-2.7486-2.6185-5.4375-2.3438 0.08372-0.77095 0.035-1.5001-0.1875-2.125-0.62771-1.7631-2.4469-2.558-4.9375-2.4688z" fill="#6b7463" filter="url(#i)" stroke="#000" stroke-width=".76255"/>
   <path d="m836.17 230.55c-2.5436 0.09677-5.9789 1.4472-9.507 3.9275-6.2723 4.4094-10.448 10.729-9.3085 14.128 0.55148 1.6448 2.2558 2.3156 4.5674 2.056-0.35653 1.3102-0.39741 2.4897-0.04964 3.4266 0.56576 1.5243 3.3281 2.9631 5.3399 2.8048-0.3003 1.3803-0.35581 3.5567 0.08214 4.4935 0.65146 1.3934 2.7747 2.2118 4.6643 2.0332-0.2797 1.3664-0.22402 3.5713 0.2234 4.5076 0.64628 1.3523 3.2121 2.2414 5.0249 2.165-0.36494 1.8258-0.5276 4.0575 0.15484 5.1752 2.2047 3.611 9.8948 0.37378 16.659-6.2314s12.516-15.294 10.312-18.905c-0.83656-1.3702-2.8686-1.2074-4.8611-0.94001-0.05886-0.43959-0.38913-3.2325-1.8588-4.0176-1.3816-0.73805-2.7877-1.3539-5.4036-0.15083 0.14649-1.0844-0.60539-4.1868-1.5-4.8908-1.2012-0.9452-2.9431-1.0255-4.815-0.85738 0.04711-0.69319 0.13921-2.8574-0.06501-3.4076-0.58843-1.5854-3.4523-1.6744-5.5881-1.4426 0.06652-0.65027 0.02783-1.2653-0.14891-1.7924-0.4986-1.4871-1.9436-2.1576-3.922-2.0824z" fill="#21221a" filter="url(#j)" stroke="#000" stroke-width=".62418"/>
   <path d="m835.97 232.46c-2.0906 0.08672-4.914 1.1633-7.8138 3.386-5.1552 3.9515-9.5892 8.7467-8.6525 11.793 0.45327 1.474 2.3216 2.0751 4.2214 1.8425-0.29303 1.1741 0.00732 2.9658 0.29313 3.8054 0.465 1.366 3.6704 1.3864 5.3239 1.2445-0.24682 1.2369-0.09206 4.6567 0.26788 5.4962 0.53543 1.2487 3.0152 2.0489 4.5683 1.8889-0.22988 1.2245-0.91879 3.5344-0.55107 4.3734 0.5312 1.2118 3.5751 2.8769 5.065 2.8084-0.29995 1.6362-0.43365 3.6361 0.12725 4.6378 1.812 3.236 8.1326 0.33496 13.692-5.5842s11.957-13.238 10.145-16.474c-0.68757-1.2279-2.4913-1.1489-4.1289-0.90919-0.04837-0.39393-1.0545-3.4979-2.2624-4.2015-1.1355-0.66142-3.0927-1.013-5.2427 0.0652 0.12041-0.97182-0.69792-4.1527-1.4332-4.7836-0.98728-0.84705-3.8215-1.3197-5.36-1.1691 0.0387-0.62119 1.183-3.4957-0.65451-4.5898-1.2895-0.76783-2.971-0.69908-4.6597 0.10972 0.18824-1.8517 0.49036 0.09339-0.18919-2.5413-0.34823-1.3501-1.1299-1.2657-2.7559-1.1982z" fill="#050" filter="url(#k)"/>
   <path transform="matrix(1.1677 .1013 -.09603 1.1069 654.13 -93.058)" d="m174.32 291.15a2.1706 2.1706 0 1 1 -4.3412 0 2.1706 2.1706 0 1 1 4.3412 0z" fill="#778470"/>
   <path transform="matrix(1.1677 .1013 -.09603 1.1069 659.9 -97.533)" d="m174.32 291.15a2.1706 2.1706 0 1 1 -4.3412 0 2.1706 2.1706 0 1 1 4.3412 0z" fill="#778470"/>
   <path transform="matrix(1.0357 .15279 -.14776 .99401 696.93 -63.212)" d="m174.32 291.15a2.1706 2.1706 0 1 1 -4.3412 0 2.1706 2.1706 0 1 1 4.3412 0z" fill="#778470"/>
   <path transform="matrix(1.0472 .15274 -.14698 .97721 700.35 -62.765)" d="m174.32 291.15a2.1706 2.1706 0 1 1 -4.3412 0 2.1706 2.1706 0 1 1 4.3412 0z" fill="#778470"/>
   <path transform="matrix(.69429 .82078 -.83785 .67435 994.04 -85.674)" d="m142.31 314.68a2.4553 2.8683 0 1 1 -4.9106 0 2.4553 2.8683 0 1 1 4.9106 0z" fill="#778470"/>
   <path transform="matrix(.6056 .8437 -.85341 .59863 1016.4 -58.912)" d="m142.31 314.68a2.4553 2.8683 0 1 1 -4.9106 0 2.4553 2.8683 0 1 1 4.9106 0z" fill="#778470"/>
   <path transform="matrix(.58333 .82409 -.82402 .58615 1015.1 -46.575)" d="m142.31 314.68a2.4553 2.8683 0 1 1 -4.9106 0 2.4553 2.8683 0 1 1 4.9106 0z" fill="#778470"/>
   <path transform="matrix(1.185 .45609 -.37345 1.4472 838.41 -843.92)" d="m252.02 687.76a9.4156 4.6076 0 1 1 -18.831 0 9.4156 4.6076 0 1 1 18.831 0z" fill="#14140a"/>
   <path transform="matrix(.99768 .28501 -.13787 1.3185 722.23 -713.54)" d="m252.02 687.76a9.4156 4.6076 0 1 1 -18.831 0 9.4156 4.6076 0 1 1 18.831 0z" fill="#586150"/>
   <path transform="matrix(.72735 .06092 .07809 .81399 640.54 -311.81)" d="m252.02 687.76a9.4156 4.6076 0 1 1 -18.831 0 9.4156 4.6076 0 1 1 18.831 0z" fill="#a2ae98"/>
   <path transform="matrix(1.6995 -.07034 .22925 1.2447 298.48 -576.33)" d="m246.22 688.21a1.3874 1.5724 0 1 1 -2.7748 0 1.3874 1.5724 0 1 1 2.7748 0z" fill="#030e00"/>
   <path d="m835.97 232.46c-2.0906 0.08672-4.914 1.1633-7.8138 3.386-5.1552 3.9515-9.5892 8.7467-8.6525 11.793 0.45327 1.474 2.3216 2.0751 4.2214 1.8425-0.29303 1.1741 0.00732 2.9658 0.29313 3.8054 0.465 1.366 3.6704 1.3864 5.3239 1.2445-0.24682 1.2369-0.09206 4.6567 0.26788 5.4962 0.53543 1.2487 3.0152 2.0489 4.5683 1.8889-0.22988 1.2245-0.91879 3.5344-0.55107 4.3734 0.5312 1.2118 3.5751 2.8769 5.065 2.8084-0.29995 1.6362-0.43365 3.6361 0.12725 4.6378 1.812 3.236 8.1326 0.33496 13.692-5.5842s11.957-13.238 10.145-16.474c-0.68757-1.2279-2.4913-1.1489-4.1289-0.90919-0.04837-0.39393-1.0545-3.4979-2.2624-4.2015-1.1355-0.66142-3.0927-1.013-5.2427 0.0652 0.12041-0.97182-0.69792-4.1527-1.4332-4.7836-0.98728-0.84705-3.8215-1.3197-5.36-1.1691 0.0387-0.62119 1.183-3.4957-0.65451-4.5898-1.2895-0.76783-2.971-0.69908-4.6597 0.10972 0.18824-1.8517 0.49036 0.09339-0.18919-2.5413-0.34823-1.3501-1.1299-1.2657-2.7559-1.1982z" fill="#fff" filter="url(#h)" opacity=".35047"/>
   <g transform="matrix(1.0843 .094061 -.091793 1.0581 700.82 -106.26)" fill="#f9f9f9" filter="url(#l)">
    <path transform="matrix(1.0769 0 0 1.0462 -41.698 16.183)" d="m174.32 291.15a2.1706 2.1706 0 1 1 -4.3412 0 2.1706 2.1706 0 1 1 4.3412 0z"/>
    <path transform="matrix(1.0769 0 0 1.0462 -36.767 11.515)" d="m174.32 291.15a2.1706 2.1706 0 1 1 -4.3412 0 2.1706 2.1706 0 1 1 4.3412 0z"/>
    <path transform="matrix(.9602 .059042 -.056321 .94443 -.14834 40.696)" d="m174.32 291.15a2.1706 2.1706 0 1 1 -4.3412 0 2.1706 2.1706 0 1 1 4.3412 0z"/>
    <path transform="matrix(.97076 .058053 -.05694 .92861 3.0245 40.836)" d="m174.32 291.15a2.1706 2.1706 0 1 1 -4.3412 0 2.1706 2.1706 0 1 1 4.3412 0z"/>
    <path transform="matrix(.70074 .71342 -.71342 .70074 270.05 -4.5516)" d="m142.31 314.68a2.4553 2.8683 0 1 1 -4.9106 0 2.4553 2.8683 0 1 1 4.9106 0z"/>
    <path transform="matrix(.62137 .74213 -.73367 .63098 292.65 18.731)" d="m142.31 314.68a2.4553 2.8683 0 1 1 -4.9106 0 2.4553 2.8683 0 1 1 4.9106 0z"/>
    <path transform="matrix(.59942 .72555 -.70776 .61688 292.45 30.408)" d="m142.31 314.68a2.4553 2.8683 0 1 1 -4.9106 0 2.4553 2.8683 0 1 1 4.9106 0z"/>
   </g>
   <g filter="url(#f)">
    <path d="m888.25213,284.91577c-.04192.6639-.01741.77714-.26794,2.0327-.37413,1.57377-.80054,1.60425-1.5422,3.97375-.39671.88405.06476,1.04901-.36841,2.00563-.3046.67884-.32773.67903-.91379,2.03651 1.16654-.41923 1.85967-1.50297 2.26889-1.86009 1.49117-1.09646.70603.00036 2.96506-1.80495 .64612-.75372.88672-1.43998 1.2624-2.38024 .10201-.4664.53085-1.40426.63286-1.87066-.34386-.41346-.48352-.64557-1.15953-1.18214-.28949-.26926-.13361-.22388-1.03805-.58498-.60281-.10893-.57338-.13677-1.83929-.36553z" fill="#b1bda7" fill-rule="evenodd" stroke="#000" stroke-width=".70025"/>
    <path d="m884.69927,284.74085c.10519.4059.14731.46778.21547,1.27525 .03951,1.02609-.35445,1.06629-.02003,2.62021-.12026.61979-.31912.60151-.45222,1.27307-.09234.47591.13887.60041-.02815,1.54673 .80423-.52145 1.5751-1.68864 1.81382-1.99692 .9122-1.00104.07376.19536 1.42587-1.40723 .33768-.60002.3796-1.06547.47218-1.7139-.01848-.30202.1152-.96139.09673-1.26342-.34806-.16675-.50268-.27277-1.12983-.43575-.27673-.09335-.14831-.10251-.91364-.10766-.48288.07519-.46616.05173-1.4802.20962z" fill="#b1bda7" fill-rule="evenodd" stroke="#000" stroke-width=".49701"/>
    <path d="m879.25906,319.71833c-.04302-.025-.50972-.54185 2.6928-.12988 1.91493-.15301 1.70858-.32965 4.15493-.25986 .96586-.08246.98889.49341 2.03576.40066 .90386-.45992 2.7711-.60697 3.95551-.06371-1.14343.31087-2.27629.30114-3.11919,1.04634-1.36969,1.58262-.90547,1.04449-4.24016,1.40532-1.87911.9797-4.32113-1.12864-5.47965-2.39887z" fill="#b1bda7" fill-rule="evenodd" stroke="#000" stroke-width=".6813"/>
    <path d="m861.11896,255.34167c-.83217-.39544-1.63416-.86966-2.53105-1.10793-.41566-.10496-.81011-.3475-1.24855-.30193-.6606-.02409-1.33995-.04206-1.95975.2257-.42789.07125-.87051.31433-.58032.81166 .2655.50739.77258.82023 1.2281,1.13774 .17785.43189-.7137.39214-.98698.54578-.51003.20745-1.06503.70457-1.08802,1.28104 .21725.46267.7492.6398 1.20966.772 .39817.1196.762.39117.98947.72089 .02984.58321-.72072.60861-1.0842.87205-.49333.35471.01837,1.05427.50955,1.08375 1.24699.49211 2.6132.49965 3.93163.41146 .53287-.12023.85431-.63277 1.17611-1.03001 .20085-.46641.24184-.98725.47395-1.44469 .18535-.4834.53011-.91277 1.01955-1.10901 .49458-.19479 1.0195-.57094.92192-1.17843 .05212-.71366-.61923-1.09232-1.14463-1.40706-.24008-.10132-.5796-.36666-.83644-.28301z" fill="#a0b3a0" fill-rule="evenodd" stroke="#000" stroke-width=".93938"/>
    <path d="m885.55834,259.72344c-.15718,1.23414-.82482,3.03541-2.32941,2.97549-2.7145.4147-5.25436-1.01436-7.23543-2.73466-.85573-.82106-1.78212-1.5388-2.80735-2.13554-.73327-.41966-1.40155-1.00416-2.1751-1.3217-1.33302-.22948-2.65489-.58271-4.01879-.46981-.80796-.03728-1.69926.18387-2.34661-.44354-1.24165-1.00106-2.53493-1.96757-3.68465-3.06583-.47139-.62675-1.15866-1.13932-1.24255-1.97104-.12477-.80419-.52258-1.54853-1.37993-1.77325-.76821.29997-.23626,1.48568-.63656,2.15439-.19785.43611-.03907,1.20247-.67519,1.23273-.46201.04984-1.11084.6742-1.34493.02313-.31038-.5024-.78307-.96253-.99538-1.49048 .04048-.77309.26617-1.5658.1873-2.32625-.26514-.59222-.23844-1.40735-.93822-1.66759-.64759-.42091-1.35571-.85642-1.77228-1.50552-.0102-.43213-.30815-1.13133-.15206-1.40911 .93347.12529 1.91194.09244 2.81693.31786 2.05701.86918 3.65528,2.60433 5.82653,3.22507 1.2304.07612.75334-1.34348.31952-1.95649-.45439-.48317-.14003-.93682.18064-1.39022 .14659-.68848.78585-.34184 1.27499-.31062 .62919-.02736 1.09934.32922 1.55761.71448 .62592.45728 1.19356,1.03699 2.00856,1.09699 1.79915.65063.55995-1.5699.36866-2.42346-.25012-1.00543-1.13311-2.36171-.6875-3.03125 .59784-.89826 3.40553-.7354 3.84863.97168 1.20325,1.54646.4369,3.48292.595,5.24152 .00285,1.17487 1.03004,1.74625 2.06601,1.5368 .60268-.02765 1.15765-.34927 1.74036-.5 .14143-1.71417 2.50608-2.61238 3.3455-.85114 .49576,1.09371.03576,2.29829.1545,3.45161-.13797.57199.21653.97981.55707,1.39229 .41225.56973 1.35854.10527 1.95855.16349 1.42303-.43739 1.80116.75727 1.91862,1.83071 .16098.72009.30711,1.44675.81576,2.01304 .44955.73195.88987,1.46897 1.25,2.25 .72061.54296 1.51316,1.23597 1.6312,2.18622z" fill="#a0b3a0" fill-rule="evenodd" stroke="#000"/>
    <path d="m878.91 257.77c-1.2062-1.897-4.2866-2.9899-6.6501-4.2804-1.2964-0.51593-2.708-0.10052-4.0499-0.38479-0.76932-0.16298-1.5721-0.36268-2.3272-0.41629-0.52717-0.03743-2.1514-1.6293-2.5691-1.8704-0.6632-0.44615-1.3208-1.3196-1.1605-1.9801 0.13719-0.56508 1.3408-0.24942 1.1187-1.5474-0.12357-0.7223 2.2097-0.36166 3.1324 0.17391 0.88892 0.51592 2.0047 0.33683 2.8501 0.81269 1.1093 0.62437 1.9257 1.8871 3.29 2.0274 1.0127 0.19593 1.9514 0.62408 2.8008 1.2 0.94981 0.55769 1.6418 1.4358 2.4088 2.2076 0.7443 0.84305 1.4443 1.7288 2.1006 2.6406 0.52923 0.91407 0.00364 2.9083-0.94463 1.417z" fill="#58644e" fill-rule="evenodd" filter="url(#o)"/>
    <path d="m883.73 322.95c-2.8773-1.8859-5.0214-3.2526-6.6912-6.3744-1.4556-2.7329-1.4202-6.144-2.5426-9.0864-1.2956-3.7558-2.8042-7.6136-4.4869-11.14-2.3516-2.0644-5.5926-3.4529-6.2457-6.808-1.6653-4.6921-6.89-6.7776-9.6538-10.585-1.7877-3.1165 0.73723-2.8658 3.1575-2.6969 5.1078-0.30896 9.5856 2.7875 13.011 6.2511 1.4286 2.1563 4.5093 2.86 6.9108 2.7676 5.2263-1.4587 13.057-1.1642 15.429 1.7502 0.50215 0.61684-2.226 3.2836-3.776 4.0431 4.0017 0.40649 2.1006-0.12858 5.67-0.1943 4.2769-1.2436-1.8885 2.9461-2.7386 3.2517 3.3421 0.97326 3.8949 1.0794 4.6577 1.2694 2.8495-0.3203 1.1623 1.8304-1.4141 4.0788 4.9302 1.8093 5.6194-0.85612 7.001-0.34301 3.3182-0.0949 5.2574 3.8704 7.8536 2.8972 4.5477-1.7046 6.4669-1.0819 8.5135-0.59611 2.0653-1.6724 0.50475-0.48758 1.1389-3.5648-2.711-1.5833 3.0786-2.1329 1.71-5.4701-4.211-1.2382-6.3272-3.178-3.3683-8.3497 0.16117-3.1501-0.18676-4.3342-2.9856-6.2158-3.2836-0.89909-4.4585-4.3798-7.3693-5.794-2.2423-0.2302-4.3513 0.04178-6.1362 1.534-2.9447 1.0236-6.3568 0.15889-7.8216-2.7585-1.5676-1.929-4.2422-2.4699-6.3684-1.0766-2.3028 0.42687-4.8445-0.16726-4.9447-2.9451-0.43247-2.4986-1.6004-4.0111-3.8761-2.0405 0.13573 2.3363-2.4757 3.9356-4.59 3.2784-5.201-0.15313-10.358-1.4964-14.586-4.429-3.7209-0.5811-6.4146-2.9398-8.2377-6.0869-2.0596-5.9506 2.1034-6.3639 1.9805-9.3631-1.0544-2.1967-3.7224 0.52766-5.1867 1.2395-1.5083-1.5834-0.56026-5.4449-3.2632-6.2758-2.6086 1.9486 0.75881 6.5338-0.97096 6.3646-1.199-2.3227-4.2205-4.3569-5.7336-6.4167-1.7824-1.3501-3.5796-2.7459-5.8178-3.2393-0.05689 3.3138 1.8461 6.2723 4.7321 8.0522-2.2347-0.49675-5.3308 0.67581-5.0466 3.4229 0.92188 1.3131 4.2768-0.14816 6.0594 0.38741 3.4091 0.13198 6.3599 3.5923 9.1439 5.7109 2.0259 1.7487 3.4258 4.2316 3.1364 6.9715-3.183-0.29405-5.6104-6.1932-8.3623-7.6786 0.35149 3.2739 3.7324 8.0838 2.9931 9.2126-0.63989 0.97694-5.8217-4.5692-9.9783-5.8417 3.5834 6.4539 7.2336 6.7325 7.4214 8.7766 0.10928 1.1899-4.8113 1.3604-7.4176 1.2789 3.451 1.0458 6.6232 3.9982 9.4216 5.4685 3.0814 1.8529-0.58897 2.6964-2.5126 2.2065-2.6482-0.27775 0.76246 3.7734 2.2909 3.5466 1.2438 0.34313 5.7496 0.68292 4.7401 1.4801-0.91258 0.97094-4.7163 3.5642-2.8394 4.3633 2.152 0.26006 5.1283-0.32069 6.1608-2.4867-2.118 4.6218-2.4626 4.0642-1.0379 6.3838 1.1454 1.4222 3.6245 1.9631 4.4844 4.3477 2.5922 3.8638 6.4066 7.0634 7.244 11.848 1.4066 1.8005 4.0404 2.4176 4.6501 5.0336 0.92038 3.534 2.8528 6.2705 5.5115 8.7212 2.5818 3.5877 16.19 5.9297 14.925 4.9217-1.2841-1.0236-0.86752-1.0495-3.9488-3.0023z" fill="#97a293" fill-rule="evenodd" stroke="#000"/>
    <path d="m855.32 276.15c0.07968 0.69561 0.15419 0.80832-0.02478 2.1559-0.34007 1.7004-0.30228 1.7175-1.1576 4.311-0.253 1.462-0.47322 1.1688-1.076 2.241-0.42237 0.76026-0.46686 0.76479-1.2671 2.2808 2.1442-0.65268 2.1243-0.65268 2.8258-1.0992 2.4483-2.3762 2.1195-1.7687 6.0319-4.0618 1.0617-0.90177 1.6912-1.2733 2.1872-2.3176 0.08371-0.50225 0.68269-1.5541 0.7664-2.0564-0.76175-0.36395-1.0867-0.57826-2.5175-1.0076-0.62229-0.22474-0.31125-0.20691-2.1395-0.41168-1.1867 0-1.1368-0.03435-3.6288-0.03435z" fill="#b1bda7" fill-rule="evenodd" stroke="#000"/>
    <path d="m876.56125,314.14477c.41894.01758.4883.04576 1.29207-.05722 1.01149-.17691.83048-.52122 2.36536-.92945 .58069-.24776.84895-.03714 1.47757-.30834 .44589-.19025.48047-.03209 1.37059-.39417-.34088.89583-.44422,1.28371-.69547,1.58186-.78709,1.10213-1.7148,1.02284-2.61989,1.8195-.36678.12931-.29428,1.07607-.90879,1.3028-.29917.04537-.91574.31457-1.21492.35995-.23614-.30526-.37228-.43416-.66335-1.01309-.1494-.25094-.13138-.12346-.29718-.87064-.02793-.4879-.04735-.46662-.10599-1.4912z" fill="#b1bda7" fill-rule="evenodd" stroke="#000" stroke-width=".49701"/>
    <path d="m903.4 275.66c-1.5424-0.36356-5.6012 1.3228-8.4938 1.0818-3.0188 0.13022-6.0411-0.08335-8.985-0.78105-2.246-0.62903-4.5796-0.08408-6.8214-0.61599-2.2931-0.54054-4.5931-1.1731-6.7985-1.9703-2.2541-1.4696-4.8517-2.2152-7.1921-3.4804-2.5192-1.6354-5.5377-2.157-8.1448-3.5857-1.395-0.94201-4.0603-3.5344-3.8893-0.32413-0.27855 1.8217-0.97238 4.4373-3.3582 3.7878-1.8316-0.60019-4.3537-0.59855-3.9334 2.0852-0.74204 2.9326 1.2548 1.6129 2.1297 3.3455-0.44022 1.2337 1.694 1.216-0.54202 4.0463-0.59081 0.7478 3.6148 1.7728 5.1035-5.157 1.1042-1.9784 0.14415-4.4797 4.0558-3.0907 2.3822 0.86501 4.9556 1.3615 7.0219 2.9181 2.1166 1.5527 4.2628 3.0858 6.7232 4.0537 2.8933 1.6832 6.2453 2.1648 9.5355 2.2962 2.794 2.2705 6.6711 1.4955 9.8398 2.8419 3.5589 1.0319 7.3408 1.327 11.02 1.1374 1.707-0.36951 1.6408-2.6928-0.36732-2.2141-2.2555-0.70951-4.5988-0.67163-6.9129-0.65791-2.4454-0.27403-4.8241-0.93038-7.2416-1.3656-2.232-1.0744-5.0463-1.1557-7.3755-2.5987 2.691-0.51274 5.9258 0.57043 8.5422 1.0565 2.6594 0.86067 5.6532-0.1773 8.2653 0.78907 2.1224 0.19286 4.139-0.48959 6.2794-0.6449 2.1652-0.29628 3.0864-2.5883 1.5398-2.9528z" fill="#1e2418" fill-rule="evenodd" filter="url(#p)"/>
    <path d="m910.99 294.92c-1.5672 0.96561-3.4881 1.4487-5.3048 1.0008-1.6086-0.19337-3.2529-0.21026-4.8154-0.67264-1.2142-0.14949-1.728-1.3983-2.4249-2.2333-0.49657-0.90638-0.21531-1.9923-0.45501-2.9697-0.15057-1.2128-0.36609-2.4191-0.68227-3.6003-0.67008-0.88753-0.1671-1.9901-0.03075-2.9513 0.35616-0.91354 1.2569-1.4524 1.9933-2.0364 0.93732-0.49045 2.0455-0.51873 2.9633-1.0646 1.2117-0.50766 2.4588-1.0016 3.7539-1.2265l3.6469-0.2431c1.1899 0.73747 2.4494 1.3737 3.7828 1.797 0.75466 0.69323 0.56395 1.8901 0.78937 2.7975 0.22502 0.93116 0.0359 1.9673-0.94543 2.3542-1.1456 0.42764-1.3695-0.99902-2.0321-1.5621-0.58358-0.59214-1.4117-1.3374-1.1025-2.25-0.17498-1.2403-1.9216-0.369-2.6415-1.1172-1.2748-0.13889-1.5723 1.3978-2.3848 2.0504-0.59554 1.1177-1.9489 0.93506-2.9927 1.2308-1.0862-0.01245-2.4164 0.12424-2.4984 1.5107-0.20371 0.892-0.80042 1.8616-0.25498 2.7524 0.3638 1.161 0.78607 2.3367 1.4791 3.3416 0.82103 0.63506 1.9248 0.32189 2.8672 0.57476 2.1288 0.1141 4.269 0.11964 6.3963 0.01378 0.59806-0.05148 1.9831-0.58942 2.103 0.10422-0.42993 0.78599-0.79632 1.6044-1.2097 2.3989z" fill="#060b04" fill-rule="evenodd" filter="url(#q)"/>
    <path d="m911.28124,290.11028c-.49449-.81225-1.13447-1.68471-2.12568-1.88266-.71909-.1952-1.58108-.33715-2.21402.16219-1.09416.69999-2.48748,1.04196-3.7548.65242-.46661-.24879-.48815-.87493-.3414-1.32174 .15767-1.25065 1.32454-2.18008 2.53351-2.32714 1.27082-.20258 2.54467.08984 3.80046.26167 .53261.13124.89201.588 1.14295,1.04665 .44683.63489 1.00967,1.26483 1.05582,2.07979 .03049.44657-.12728.88227-.09684,1.32882z" fill="#1e2418" fill-rule="evenodd" filter="url(#g)"/>
    <g transform="matrix(.61632 -.058388 .051419 .54276 675.68 -93.379)" fill="url(#v)" filter="url(#m)">
     <path transform="matrix(1.185 .45609 -.37345 1.4472 228.53 -422.01)" d="m252.02 687.76a9.4156 4.6076 0 1 1 -18.831 0 9.4156 4.6076 0 1 1 18.831 0z"/>
     <path transform="matrix(.99768 .28501 -.13787 1.3185 112.35 -291.63)" d="m252.02 687.76a9.4156 4.6076 0 1 1 -18.831 0 9.4156 4.6076 0 1 1 18.831 0z"/>
     <path transform="matrix(.72735 .060922 .078088 .81399 30.655 110.1)" d="m252.02 687.76a9.4156 4.6076 0 1 1 -18.831 0 9.4156 4.6076 0 1 1 18.831 0z"/>
     <path transform="matrix(1.6995 -.070337 .22925 1.2447 -311.4 -154.42)" d="m246.22 688.21a1.3874 1.5724 0 1 1 -2.7748 0 1.3874 1.5724 0 1 1 2.7748 0z"/>
    </g>
   </g>
  </g>
 </g>
</svg>
