<?xml version="1.0" encoding="UTF-8"?>
<svg viewBox="0 0 400 400" xmlns="http://www.w3.org/2000/svg" xmlns:xlink="http://www.w3.org/1999/xlink">
 <defs>
  <clipPath id="p">
   <path transform="matrix(2.0737 .66917 -.66917 2.0737 -443.13 -223.64)" d="m546.02 289.18a44.729 44.729 0 1 1 -89.459 0 44.729 44.729 0 1 1 89.459 0z"/>
  </clipPath>
  <filter id="l">
   <feGaussianBlur stdDeviation=".69422"/>
  </filter>
  <filter id="o">
   <feGaussianBlur stdDeviation=".3139"/>
  </filter>
  <filter id="c">
   <feGaussianBlur stdDeviation="1.02468"/>
  </filter>
  <filter id="m">
   <feGaussianBlur stdDeviation=".33393"/>
  </filter>
  <filter id="j" x="-.12398" y="-.12398" width="1.248" height="1.248">
   <feGaussianBlur stdDeviation="4.62145"/>
  </filter>
  <filter id="n" x="-.27652" y="-.27652" width="1.553" height="1.553">
   <feGaussianBlur stdDeviation="10.30719"/>
  </filter>
  <filter id="k" x="-.05239" y="-.11506" width="1.1048" height="1.2301">
   <feGaussianBlur stdDeviation=".25494"/>
  </filter>
  <linearGradient id="i" x1="518.12" x2="482.8" y1="229.97" y2="344.96" gradientUnits="userSpaceOnUse">
   <stop stop-color="#fff" offset="0"/>
   <stop stop-color="#fff" stop-opacity="0" offset="1"/>
  </linearGradient>
  <linearGradient id="h" x1="418.02" x2="433.02" y1="803.91" y2="761.91" gradientUnits="userSpaceOnUse">
   <stop stop-color="#666" offset="0"/>
   <stop stop-color="#666" stop-opacity="0" offset="1"/>
  </linearGradient>
  <linearGradient id="g" x1="405.32" x2="397.39" y1="733.75" y2="771.94" gradientUnits="userSpaceOnUse">
   <stop stop-color="#ccc" offset="0"/>
   <stop stop-color="#ccc" stop-opacity="0" offset="1"/>
  </linearGradient>
  <linearGradient id="e" x1="454.19" x2="457.94" y1="722.67" y2="724.49" gradientUnits="userSpaceOnUse">
   <stop offset="0"/>
   <stop stop-color="#3c3c3c" offset="1"/>
  </linearGradient>
  <linearGradient id="b">
   <stop offset="0"/>
   <stop stop-color="#464646" offset="1"/>
  </linearGradient>
  <linearGradient id="f" x1="429.49" x2="460.7" y1="559.35" y2="560.15" gradientUnits="userSpaceOnUse" xlink:href="#b"/>
  <linearGradient id="d" x1="449.59" x2="461.66" y1="711.89" y2="719.11" gradientUnits="userSpaceOnUse" xlink:href="#b"/>
  <radialGradient id="a" cx="483.42" cy="690.38" r="15.668" gradientTransform="matrix(.80128 .46262 -.47046 .81486 419.61 -94.548)" gradientUnits="userSpaceOnUse">
   <stop stop-color="#ddb100" offset="0"/>
   <stop stop-color="#ffa000" offset=".5"/>
   <stop stop-color="#a26001" offset=".75"/>
   <stop stop-color="#c7b00f" offset="1"/>
  </radialGradient>
 </defs>
 <g transform="matrix(3.046 0 0 3.046 -1158.8 -2103.9)">
  <path transform="matrix(1.0688 0 0 .41665 -86.355 668.8)" d="m546.02 289.18c0 24.703-20.026 44.729-44.729 44.729s-44.729-20.026-44.729-44.729 20.026-44.729 44.729-44.729 44.729 20.026 44.729 44.729z" fill="#666" filter="url(#j)"/>
  <path transform="matrix(.97764 0 0 .97764 -57.681 475.99)" d="m546.02 289.18c0 24.703-20.026 44.729-44.729 44.729s-44.729-20.026-44.729-44.729 20.026-44.729 44.729-44.729 44.729 20.026 44.729 44.729z" fill="#1a1a1a"/>
  <path transform="matrix(.95855 0 0 .95855 -48.11 481.51)" d="m546.02 289.18c0 24.703-20.026 44.729-44.729 44.729s-44.729-20.026-44.729-44.729 20.026-44.729 44.729-44.729 44.729 20.026 44.729 44.729z"/>
  <g transform="matrix(.43675 -.14094 .14094 .43675 154.36 505.18)" clip-path="url(#p)" fill="url(#a)" filter="url(#l)" opacity=".18584">
   <path transform="matrix(.32731 .1967 -.1967 .32731 476.51 378.32)" d="m490.72 704.88-8.3018-8.6872-5.644 10.608 1.6158-11.907-11.813 2.2015 10.317-6.1606-9.0863-7.863 11.249 4.2248 0.48232-12.006 3.7105 11.429 9.6877-7.1088-6.622 10.027 11.598 3.1419-11.968 1.0743z" filter="url(#o)"/>
   <path transform="matrix(.35708 .42375 -.42375 .35708 619.16 248.29)" d="m490.72 704.88-8.3018-8.6872-5.644 10.608 1.6158-11.907-11.813 2.2015 10.317-6.1606-9.0863-7.863 11.249 4.2248 0.48232-12.006 3.7105 11.429 9.6877-7.1088-6.622 10.027 11.598 3.1419-11.968 1.0743z" filter="url(#c)"/>
  </g>
  <path transform="matrix(.13447 0 0 .13447 388.87 697.44)" d="m546.02 289.18c0 24.703-20.026 44.729-44.729 44.729s-44.729-20.026-44.729-44.729 20.026-44.729 44.729-44.729 44.729 20.026 44.729 44.729z" fill="#fff" filter="url(#n)"/>
  <path d="m466.45 712.38c-5.5294-0.47024-9.4247-1.9441-11.937 2.2528-1.3207 1.9967-1.8619 4.086 1.8699 4.4849 0.22462 0.0195 0.60387 0.66165 0.57364 0.88214-0.19722 1.4387 1.5542-1.9351 1.5912-2.7938-0.043 0.47216-0.0289 0.15492 0.0625-0.0625s0.22278-0.50259 0.375-0.78125c0.13962-0.2556 0.29532-0.50133 0.40625-0.65625 8.7925-4.0045 8.0019 3.7128 12.959 4.958s9.4035 2.2054 12.447-1.1768c0.66287-0.80992 0.52897-2.15-0.28105-2.8127s-2.1501-0.52864-2.8127 0.28149c-5.3808 3.5307-6.6552 1.495-8.9865 0.64471-2.0613-1.328-4.8245-4.1117-6.2676-5.2207z" fill="#2b1100"/>
  <path d="m464.54 738.94c-1.539-0.56843-4.9694-2.4797-4.5102-3.9025 0.67388-0.46663 3.3962 3.7489 7.9377 2.4543 1.5686 0.29211 2.9396 0.59554 2.9516 1.8698 0.9857 0.48437 0.83126 0.88393 0.46958 0.95745-1.3751-0.98492-1.9628-2.3324-4.0288-1.9725-0.83811 0.0925-2.1918 0.48135-2.8196 0.59341z" fill="#28170b" filter="url(#k)" opacity=".85283"/>
  <path d="m456.35 726.04 6.75 8.8384c-0.25331 0.93439-0.81987 1.8061-3.4001 2.2751l-12.201-10.913z" fill="#1a1a1a" filter="url(#m)"/>
  <path transform="matrix(.69027 0 0 .47788 86.377 601.51)" d="m546.02 289.18c0 24.703-20.026 44.729-44.729 44.729s-44.729-20.026-44.729-44.729 20.026-44.729 44.729-44.729 44.729 20.026 44.729 44.729z" fill="url(#i)"/>
  <path d="m462.42 784.73c-8.3281 6.7553-18.946 10.799-30.505 10.799-10.279 0-19.8-3.2112-27.641-8.6707 6.6022 8.3527 16.798 13.715 28.272 13.715 12.423 0 23.392-6.2816 29.875-15.844z" fill="url(#h)"/>
  <path d="m397.46 741.39c-2.2838 4.4803-3.5607 8.5157-4.0838 12.204 1.0278 0.13595 2.0904 0.31245 3.1763 0.54928 0.79872-4.7023 2.4526-8.4574 4.4898-11.32-1.2294-0.26808-2.4289-0.70877-3.5823-1.4329zm13.135 1.5762c-2.7554 0.064-5.5492 0.42397-8.2392 0.0955-2.1265 2.7459-4.0303 6.487-5.0152 11.272 1.2597 0.30039 2.5623 0.65613 3.8927 1.0986 1.439-3.9546 4.1358-8.0302 9.3617-12.466zm-17.314 11.392c-0.66073 5.7469 0.48252 10.679 2.4121 15.261l1.2657 0.42987c-1.0869-5.8368-1.1509-10.915-0.50152-15.237-1.087-0.20488-2.1496-0.35418-3.1763-0.45375zm3.9405 0.62093c-0.79531 4.2897-0.84322 9.3858 0.2627 15.26l1.7195 0.59705c0.40515-5.1208 0.1959-9.8963 1.8628-14.855-1.3143-0.40706-2.6031-0.7424-3.845-1.003z" fill="url(#g)"/>
  <path transform="matrix(.47713 .26843 -.26843 .47713 393 343.39)" d="m447.09 557.41c0 2.0967-5.0992 3.7965-11.389 3.7965s-11.389-1.6998-11.389-3.7965 5.0992-3.7965 11.389-3.7965 11.389 1.6997 11.389 3.7965z"/>
  <path d="m452.25,713.9375-5.25,9.375 .0625.0312c-.0862.0588-.17077.13346-.21875.21875-.47459.84358 1.188,2.66997 3.71875,4.09375s4.99416,1.90608 5.46875,1.0625c.0445-.0791.0546-.18584.0625-.28125l.0625.0312 5.28125-9.375c-3.0722,1.06924-9.66579-3.34064-9.1875-5.15625z" fill="url(#e)"/>
  <path transform="matrix(.36502 .20536 -.17371 .30877 394.64 454.87)" d="m447.09 557.41c0 2.0967-5.0992 3.7965-11.389 3.7965s-11.389-1.6998-11.389-3.7965 5.0992-3.7965 11.389-3.7965 11.389 1.6997 11.389 3.7965z" fill="url(#f)"/>
  <path d="m454.86736,714.08459c-.12305.17157-.22672.367-.34375.5625-.28675.43351-.54125.85725-.71875,1.28125 .61512.54526 1.42463,1.15283 2.375,1.6875 .67647.38058 1.32752.66948 1.9375.90625 .18901-.43144.34733-.80683.40625-1.09375 .01-.0475.0481-.17254.0937-.28125 .0914-.21742.22278-.50259.375-.78125 .0204-.0373.0416-.0571.0625-.0937-.46401-.33915-.98848-.67706-1.5625-1-.94051-.52913-1.84489-.94408-2.625-1.1875z" fill="#2b1100"/>
  <path d="m453.56 713.47c-0.63124-0.0342-1.1033 0.0899-1.2812 0.40625-0.47459 0.84358 1.188 2.7012 3.7188 4.125s4.9942 1.8748 5.4688 1.0312-1.2192-2.67-3.75-4.0938c-1.5817-0.88987-3.1042-1.4118-4.1562-1.4688zm-0.1875 0.4375c0.84851-0.0642 2.4725 0.459 4.1562 1.4062 2.245 1.263 3.7624 2.8045 3.4062 3.4375s-2.4738 0.138-4.7188-1.125-3.7624-2.8045-3.4062-3.4375c0.089-0.15825 0.27966-0.25985 0.5625-0.28125z" fill="url(#d)"/>
  <path transform="matrix(.50275 .31409 -.31409 .50275 459.47 218.91)" d="m490.72 704.88c-0.10013 0.0664-8.1828-8.7036-8.3018-8.6872s-5.5296 10.645-5.644 10.608 1.7028-11.824 1.6158-11.907-11.77 2.3139-11.813 2.2015 10.306-6.0409 10.317-6.1606-9.1477-7.7597-9.0863-7.863 11.149 4.2912 11.249 4.2248 0.36328-11.99 0.48232-12.006 3.5961 11.392 3.7105 11.429 9.6007-7.1917 9.6877-7.1088-6.6645 9.9144-6.622 10.027 11.609 3.0222 11.598 3.1419-11.907 0.971-11.968 1.0743 4.875 10.96 4.7748 11.027z" fill="url(#a)" filter="url(#c)"/>
  <path d="m455.08988,713.76279c-.0788.10087-.14235.23383-.21875.34375 .77017.23736 1.66894.63596 2.59375,1.15625 .59204.33308 1.10049.68901 1.57031,1.03906 .0737-.13492.13332-.27338.20703-.3909-.48615-.36226-.99322-.6875-1.58984-1.02316-.90273-.50788-1.7748-.87487-2.5625-1.125z" fill="#2b1100"/>
 </g>
</svg>
