<?xml version="1.0" encoding="UTF-8"?>
<svg viewBox="0 0 1000 700" xmlns="http://www.w3.org/2000/svg" xmlns:xlink="http://www.w3.org/1999/xlink">
 <defs>
  <linearGradient id="c">
   <stop stop-color="#fff" offset="0"/>
   <stop stop-color="#fff" stop-opacity="0" offset="1"/>
  </linearGradient>
  <linearGradient id="a">
   <stop stop-color="#efae82" offset="0"/>
   <stop stop-color="#520" stop-opacity="0" offset="1"/>
  </linearGradient>
  <linearGradient id="b">
   <stop stop-color="#281000" offset="0"/>
   <stop stop-color="#520" offset=".3962"/>
   <stop stop-color="#520" offset=".5975"/>
   <stop stop-color="#281000" offset="1"/>
  </linearGradient>
  <linearGradient id="ag" x1="701.2" x2="1254.4" gradientUnits="userSpaceOnUse">
   <stop stop-color="#3f1b02" offset="0"/>
   <stop stop-color="#a05a2c" offset=".6512"/>
   <stop stop-color="#a05a2c" offset=".7722"/>
   <stop stop-color="#4a2207" offset="1"/>
  </linearGradient>
  <linearGradient id="af" x1="1152.4" x2="1174.6" y1="580.68" y2="653.41" gradientUnits="userSpaceOnUse">
   <stop stop-color="#3f1b02" offset="0"/>
   <stop stop-color="#a05a2c" offset=".3809"/>
   <stop stop-color="#a05a2c" offset=".4453"/>
   <stop stop-color="#4a2207" offset="1"/>
  </linearGradient>
  <linearGradient id="ae" x1="1151.4" x2="1088.6" y1="556.07" y2="572.14" gradientUnits="userSpaceOnUse">
   <stop stop-color="#b89c89" offset="0"/>
   <stop stop-color="#2b1100" stop-opacity="0" offset="1"/>
  </linearGradient>
  <linearGradient id="ad" x1="1064.6" x2="1110" y1="544.64" y2="538.93" gradientUnits="userSpaceOnUse">
   <stop stop-color="#333" offset="0"/>
   <stop stop-color="#333" stop-opacity="0" offset="1"/>
  </linearGradient>
  <linearGradient id="ab" x1="1502.1" x2="1745.5" y1="509.08" y2="462.61" gradientUnits="userSpaceOnUse">
   <stop offset="0"/>
   <stop stop-opacity="0" offset="1"/>
  </linearGradient>
  <linearGradient id="t" x1="-506.79" x2="-594.28" y1="1119.6" y2="1174.4" gradientUnits="userSpaceOnUse" xlink:href="#c"/>
  <linearGradient id="aj" x1="-245.16" x2="-332.21" y1="208.48" y2="242.98" gradientUnits="userSpaceOnUse" xlink:href="#c"/>
  <linearGradient id="s" x1="-45.69" x2="-4.2466" gradientUnits="userSpaceOnUse" xlink:href="#b"/>
  <linearGradient id="r" x1="59.46" x2="88.765" y1="1633.5" y2="1662.8" gradientUnits="userSpaceOnUse" xlink:href="#b"/>
  <linearGradient id="q" x1="-620.24" x2="-578.8" gradientTransform="matrix(0 1 -1 0 1140 2348.1)" gradientUnits="userSpaceOnUse" xlink:href="#b"/>
  <linearGradient id="p" x1="-620.24" x2="-578.8" gradientTransform="matrix(-.70711 .70711 -.70711 -.70711 372.46 2997.3)" gradientUnits="userSpaceOnUse" xlink:href="#b"/>
  <linearGradient id="o" x1="-9.0687" x2="-50.512" gradientUnits="userSpaceOnUse" xlink:href="#b"/>
  <linearGradient id="n" x1="-620.24" x2="-578.8" gradientTransform="matrix(-.70711 -.70711 .70711 -.70711 -1278.5 2146)" gradientUnits="userSpaceOnUse" xlink:href="#b"/>
  <linearGradient id="m" x1="-620.24" x2="-578.8" gradientTransform="matrix(0 -1 1 0 -1194.8 1144.3)" gradientUnits="userSpaceOnUse" xlink:href="#b"/>
  <linearGradient id="l" x1="-620.24" x2="-578.8" gradientTransform="matrix(.70711 -.70711 .70711 .70711 -427.22 495.1)" gradientUnits="userSpaceOnUse" xlink:href="#b"/>
  <linearGradient id="ai" x1="-244.46" x2="-333.35" y1="541.4" y2="250.48" gradientUnits="userSpaceOnUse" xlink:href="#c"/>
  <linearGradient id="ah" x1="-382.85" x2="-420.22" y1="399.98" y2="287.85" gradientUnits="userSpaceOnUse" xlink:href="#c"/>
  <linearGradient id="ac" x1="-334.29" x2="-492.86" y1="390" y2="452.86" gradientTransform="matrix(.82507 0 0 .86362 2326.5 -5.0027)" gradientUnits="userSpaceOnUse" xlink:href="#c"/>
  <radialGradient id="aa" cx="-731.93" cy="534.54" r="287.28" gradientTransform="matrix(.54895 0 0 .55301 -61.656 -7.7877)" gradientUnits="userSpaceOnUse">
   <stop stop-color="#ddb194" offset="0"/>
   <stop stop-color="#e1c1ac" stop-opacity=".749" offset=".9361"/>
   <stop stop-color="#e5c9b6" offset=".9739"/>
   <stop stop-color="#502d16" stop-opacity="0" offset="1"/>
  </radialGradient>
  <radialGradient id="z" cx="-186.79" cy="227.14" r="23.929" gradientTransform="matrix(1.3088 -.42702 .18246 1.8244 16.244 -267.02)" gradientUnits="userSpaceOnUse">
   <stop stop-color="#b3adad" offset="0"/>
   <stop stop-opacity="0" offset="1"/>
  </radialGradient>
  <radialGradient id="y" cx="-178.45" cy="231.15" r="23.929" gradientTransform="matrix(1.3583 -3.0163 .61812 3.8515 -75.383 -1197.9)" gradientUnits="userSpaceOnUse">
   <stop stop-color="#a28b8b" offset="0"/>
   <stop stop-opacity="0" offset="1"/>
  </radialGradient>
  <radialGradient id="x" cx="-145.15" cy="593.3" r="97.985" gradientTransform="matrix(.06577 .19711 -.96794 .32299 1753.4 455.04)" gradientUnits="userSpaceOnUse">
   <stop stop-color="#fff" stop-opacity=".75" offset="0"/>
   <stop stop-color="#fff" stop-opacity="0" offset="1"/>
  </radialGradient>
  <radialGradient id="u" cx="-731.93" cy="534.54" r="287.28" gradientTransform="matrix(.82507 0 0 .87001 2326.5 -8.421)" gradientUnits="userSpaceOnUse">
   <stop stop-color="#ddb194" offset="0"/>
   <stop stop-color="#e1c1ac" stop-opacity=".749" offset=".5643"/>
   <stop stop-color="#e5c9b6" offset=".8631"/>
   <stop stop-color="#502d16" stop-opacity="0" offset="1"/>
  </radialGradient>
  <radialGradient id="k" cx="-585.38" cy="1026.3" r="20.722" gradientTransform="matrix(.99999 .00493 -.04875 9.8959 624.58 -8547.8)" gradientUnits="userSpaceOnUse" xlink:href="#a"/>
  <radialGradient id="j" cx="-586.87" cy="1026.1" r="20.722" gradientTransform="matrix(.70361 .71058 -7.0319 6.963 7712.6 -5071.8)" gradientUnits="userSpaceOnUse" xlink:href="#a"/>
  <radialGradient id="i" cx="-604.58" cy="1026.2" r="20.722" gradientTransform="matrix(-.00493 .99999 -9.8959 -.04875 10267 2398.2)" gradientUnits="userSpaceOnUse" xlink:href="#a"/>
  <radialGradient id="h" cx="-613.32" cy="1025.6" r="20.722" gradientTransform="matrix(-.71058 .70361 -6.963 -7.0319 6790.6 9486.2)" gradientUnits="userSpaceOnUse" xlink:href="#a"/>
  <radialGradient id="g" cx="-608.61" cy="1026.3" r="20.722" gradientTransform="matrix(-.99999 -.00493 .04875 -9.8959 -679.33 12040)" gradientUnits="userSpaceOnUse" xlink:href="#a"/>
  <radialGradient id="f" cx="-606.84" cy="1026.6" r="20.722" gradientTransform="matrix(-.70361 -.71058 7.0319 -6.963 -7767.4 8564.2)" gradientUnits="userSpaceOnUse" xlink:href="#a"/>
  <radialGradient id="e" cx="-599.55" cy="1025.8" r="20.722" gradientTransform="matrix(.00493 -.99999 9.8959 .04875 -10321 1094.2)" gradientUnits="userSpaceOnUse" xlink:href="#a"/>
  <radialGradient id="d" cx="-599.72" cy="1026.2" r="20.722" gradientTransform="matrix(.71058 -.70361 6.963 7.0319 -6845.4 -5993.8)" gradientUnits="userSpaceOnUse" xlink:href="#a"/>
  <radialGradient id="w" cx="1114.7" cy="524.94" r="17.173" gradientTransform="matrix(.40259 .91538 -.64472 .28355 1007.2 -637.13)" gradientUnits="userSpaceOnUse" xlink:href="#c"/>
  <radialGradient id="v" cx="1067.1" cy="580.58" r="38.571" gradientTransform="matrix(.99937 -.03542 .06481 1.8287 -36.961 -441.95)" gradientUnits="userSpaceOnUse" xlink:href="#c"/>
 </defs>
 <g transform="translate(0,-100)">
  <g transform="matrix(1.2356 0 0 1.2933 1269.7 61.783)">
   <path transform="matrix(.6083 0 0 .54895 -99.342 -351.31)" d="m-545.71 1167.1c0 29.192-23.665 52.857-52.857 52.857s-52.857-23.665-52.857-52.857 23.665-52.857 52.857-52.857c27.177 0 49.926 20.609 52.601 47.655" fill="#520"/>
   <path transform="matrix(.54153 0 0 .54895 -142.83 -350.53)" d="m-545.71 1167.1c0 29.192-23.665 52.857-52.857 52.857s-52.857-23.665-52.857-52.857 23.665-52.857 52.857-52.857c27.177 0 49.926 20.609 52.601 47.655" fill="#ffb380"/>
   <path transform="matrix(.47477 0 0 .47477 -182.41 -263.95)" d="m-545.71 1167.1c0 29.192-23.665 52.857-52.857 52.857s-52.857-23.665-52.857-52.857 23.665-52.857 52.857-52.857c27.177 0 49.926 20.609 52.601 47.655" fill="#2b1100"/>
   <path transform="matrix(.43026 0 0 .41542 -209.05 -194.68)" d="m-545.71 1167.1c0 29.192-23.665 52.857-52.857 52.857s-52.857-23.665-52.857-52.857 23.665-52.857 52.857-52.857c27.177 0 49.926 20.609 52.601 47.655" fill="url(#t)"/>
   <path d="m-436.43 126.01c-20.842 0-40.677 4.5518-58.652 12.748 9.9738-2.2368 20.321-3.4078 30.93-3.4078 75.841 0 139.31 60.447 146.78 139.77l0.72049 15.254c0 63.721-36.573 118.46-88.861 142.3 66.622-14.933 116.58-77.141 116.58-151.62l-0.70334-15.254c-7.4644-79.328-70.951-139.79-146.79-139.79z" fill="#d38d5f"/>
   <path d="m-507.3 141.6c-60.827 18.987-105.16 77.813-105.16 147.46 0 85.003 66.032 153.9 147.5 153.9 24.171 0 46.993-6.0548 67.126-16.808-13.401 4.1793-27.6 6.4261-42.303 6.4261-81.464 0-147.51-68.901-147.51-153.9 0-59.768 32.649-111.58 80.353-137.08z" fill="#9e623b"/>
   <path d="m-436.43 126.01c-20.842 0-40.677 4.5518-58.652 12.748 9.9738-2.2368 20.321-3.4078 30.93-3.4078 75.841 0 139.31 60.447 146.78 139.77l0.72049 15.254c0 63.721-36.573 118.46-88.861 142.3 66.622-14.933 116.58-77.141 116.58-151.62l-0.70334-15.254c-7.4644-79.328-70.951-139.79-146.79-139.79z" fill="url(#aj)"/>
   <g transform="matrix(.5156 -.1563 .1563 .5156 -722.27 -616.81)">
    <path d="m-36.589 1473.8h20.203c19.744 92.482 12.193 178.14 0 262.64h-20.203c-9.6965-87.547-14.353-175.09 0-262.64z" fill="url(#s)"/>
    <path d="m-36.589 1473.8h20.203c19.744 92.482 12.193 178.14 0 262.64h-20.203c-9.6965-87.547-14.353-175.09 0-262.64z" fill="url(#k)"/>
    <path d="m158.75 1547 14.286 14.286c-51.434 79.356-117.34 134.59-185.71 185.71l-14.286-14.286c55.048-68.761 113.66-133.96 185.71-185.71z" fill="url(#r)"/>
    <path d="m158.75 1547 14.286 14.286c-51.434 79.356-117.34 134.59-185.71 185.71l-14.286-14.286c55.048-68.761 113.66-133.96 185.71-185.71z" fill="url(#j)"/>
    <path d="m245.06 1737v20.203c-92.482 19.744-178.14 12.193-262.64 0v-20.203c87.547-9.6965 175.09-14.353 262.64 0z" fill="url(#q)"/>
    <path d="m245.06 1737v20.203c-92.482 19.744-178.14 12.193-262.64 0v-20.203c87.547-9.6965 175.09-14.353 262.64 0z" fill="url(#i)"/>
    <path d="m171.78 1932.3-14.286 14.286c-79.356-51.434-134.59-117.34-185.71-185.71l14.286-14.286c68.761 55.048 133.96 113.66 185.71 185.71z" fill="url(#p)"/>
    <path d="m171.78 1932.3-14.286 14.286c-79.356-51.434-134.59-117.34-185.71-185.71l14.286-14.286c68.761 55.048 133.96 113.66 185.71 185.71z" fill="url(#h)"/>
    <path d="m-18.17 2018.6h-20.203c-19.744-92.482-12.193-178.14 0-262.64h20.203c9.6965 87.547 14.353 175.09 0 262.64z" fill="url(#o)"/>
    <path d="m-18.17 2018.6h-20.203c-19.744-92.482-12.193-178.14 0-262.64h20.203c9.6965 87.547 14.353 175.09 0 262.64z" fill="url(#g)"/>
    <path d="m-213.51 1945.4-14.286-14.286c51.434-79.356 117.34-134.59 185.71-185.71l14.286 14.286c-55.048 68.761-113.66 133.96-185.71 185.71z" fill="url(#n)"/>
    <path d="m-213.51 1945.4-14.286-14.286c51.434-79.356 117.34-134.59 185.71-185.71l14.286 14.286c-55.048 68.761-113.66 133.96-185.71 185.71z" fill="url(#f)"/>
    <path d="m-299.82 1755.4v-20.203c92.482-19.744 178.14-12.193 262.64 0v20.203c-87.547 9.6965-175.09 14.353-262.64 0z" fill="url(#m)"/>
    <path d="m-299.82 1755.4v-20.203c92.482-19.744 178.14-12.193 262.64 0v20.203c-87.547 9.6965-175.09 14.353-262.64 0z" fill="url(#e)"/>
    <path d="m-226.54 1560.1 14.286-14.286c79.356 51.434 134.59 117.34 185.71 185.71l-14.286 14.286c-68.761-55.048-133.96-113.66-185.71-185.71z" fill="url(#l)"/>
    <path d="m-226.54 1560.1 14.286-14.286c79.356 51.434 134.59 117.34 185.71 185.71l-14.286 14.286c-68.761-55.048-133.96-113.66-185.71-185.71z" fill="url(#d)"/>
   </g>
   <path d="m-463.45 128.95c-87.094 0-157.7 71.116-157.7 158.86s70.606 158.88 157.7 158.88 157.7-71.133 157.7-158.88l-0.77752-15.632c-7.9803-81.291-75.84-143.23-156.92-143.23zm0 12.448c74.727 0 137.26 57.087 144.62 132.01l0.7099 14.406c0 80.865-65.062 146.43-145.33 146.43s-145.34-65.564-145.34-146.43 65.079-146.41 145.34-146.41z" fill="#502d16"/>
   <path d="m-463.45 128.95c-87.094 0-157.7 71.116-157.7 158.86s70.606 158.88 157.7 158.88 157.7-71.133 157.7-158.88l-0.77752-15.632c-7.9803-81.291-75.84-143.23-156.92-143.23zm0 12.448c74.727 0 137.26 57.087 144.62 132.01l0.7099 14.406c0 80.865-65.062 146.43-145.33 146.43s-145.34-65.564-145.34-146.43 65.079-146.41 145.34-146.41z" fill="url(#aa)" opacity=".5615"/>
  </g>
  <g transform="matrix(1.2356 0 0 1.2933 1196 -95.131)">
   <path d="m-654.1 335.15c-15.683 13.662-21.911 28.518-21.764 42.121 0.0109 1.0157 1.1227 2.8284 0.13814 3.0252-18.89 3.7775-10.015 29.32 6.644 20.072 0.96818-0.53746 1.189 1.8688 1.8299 2.7719 9.6941 13.659 26.33 22.435 43.402 21.157 146.77-57.014 292.23-119.74 442.43-161.91-21.157-14.404-31.723-39.587-25.829-62.558-139.83 61.187-297.49 90.933-446.85 135.32z" fill="#1a1a1a"/>
   <path d="m-654.1 335.15c-15.683 13.662-21.911 28.518-21.764 42.121 0.0109 1.0157 1.1227 2.8284 0.13814 3.0252-18.89 3.7775-10.015 29.32 6.644 20.072 0.96818-0.53746 1.189 1.8688 1.8299 2.7719 9.6941 13.659 26.33 22.435 43.402 21.157 146.77-57.014 292.23-119.74 442.43-161.91-21.157-14.404-31.723-39.587-25.829-62.558-139.83 61.187-297.49 90.933-446.85 135.32z" fill="url(#ai)"/>
   <path transform="matrix(.55191 -.54923 .45185 1.0301 -194.82 -105.49)" d="m-162.86 227.14c0 16.174-10.713 29.286-23.929 29.286s-23.929-13.112-23.929-29.286 10.713-29.286 23.929-29.286c12.303 0 22.601 11.419 23.812 26.403"/>
   <path transform="matrix(.55191 -.54923 .45185 1.0301 -194.82 -105.49)" d="m-162.86 227.14c0 16.174-10.713 29.286-23.929 29.286s-23.929-13.112-23.929-29.286 10.713-29.286 23.929-29.286c12.303 0 22.601 11.419 23.812 26.403" fill="url(#z)"/>
   <path transform="matrix(.35486 -.46416 .38095 .85197 -214.63 -49.537)" d="m-162.86 227.14c0 16.174-10.713 29.286-23.929 29.286s-23.929-13.112-23.929-29.286 10.713-29.286 23.929-29.286c12.303 0 22.601 11.419 23.812 26.403"/>
   <path transform="matrix(.35486 -.46416 .38095 .85197 -214.63 -49.537)" d="m-162.86 227.14c0 16.174-10.713 29.286-23.929 29.286s-23.929-13.112-23.929-29.286 10.713-29.286 23.929-29.286c12.303 0 22.601 11.419 23.812 26.403" fill="url(#y)"/>
   <path d="m-642.54 363.97c141.33-42.271 291.99-76.979 412.9-135.8-2.0408 8.3404-5.4848 16.478 7.4922 26.992-139.06 27.925-275.02 90.44-412.07 140.86-30.436-2.7812-13.088-19.215-8.3246-32.053z" fill="url(#ah)" opacity=".6434"/>
  </g>
  <g transform="matrix(1.2356 0 0 1.2933 -848.71 -321)">
   <path d="m740.23 712 354.56-63.64 159.6-81.822-101.02-2.0203-1.0101-23.234-23.234 2.0203c-11.55-54.024-57.862-29.526-51.518 8.0812l-74.751 27.274 9.0914 46.467-259.61 59.599c-38.977-6.8038-54.624 2.4311-50.508 25.254 12.795-11.332 25.591-10.891 38.386 2.0203z" fill="url(#ag)"/>
   <path d="m1069.5 624.12 15.152-9.0914 157.58-49.497 16.162 1.0102 7.0711 29.294-175.77 66.67-9.0913-3.0305z" fill="url(#af)"/>
   <path d="m1069.5 624.12 15.152-9.0914 157.58-49.497 16.162 1.0102 7.0711 29.294-175.77 66.67-9.0913-3.0305z" fill="url(#x)"/>
   <path d="m1129.4 544.43-22.223 6.0609-12.122-36.365c17.784-5.7367 27.258 9.2998 34.345 30.305z" fill="url(#w)"/>
   <path d="m1077.9 552.86 9.2858 53.929-75 18.571-7.5-45.714z" fill="#1a1a1a"/>
   <path d="m1074.5 556.79 8.6828 48.084-70.13 16.559-7.0129-40.76z" fill="url(#v)" opacity=".3811"/>
   <path d="m1152.1 542.14c-1.4286 0-62.143 16.429-62.143 16.429l3.5714 25.714 60-20z" fill="#2b1100"/>
   <path d="m1152.1 541.43-22.143 1.4286c-6.1521 6.682-22.937 9.111-38.214 12.143l-8.9286 3.2143 7.8572 0.71428 3.2143 25-7.1429 0.35714-3.9286-26.429 7.1429 1.7857z" fill="#28170b"/>
   <path d="m1152.1 542.14c-1.4286 0-62.143 16.429-62.143 16.429l3.5714 25.714 60-20z" fill="url(#ae)"/>
   <path d="m1100.9 512.06c-14.013 1.5442-26.779 18.391-23.25 39.312l-2.75 1c7.9226 2.9564 16.492 4.5374 27.281 1.1875-6.0724-13.366-3.8704-27.412-1.2812-41.5z" fill="url(#ad)"/>
  </g>
  <g transform="translate(-1230.4 42.426)">
   <path d="m1763.3 202.07c-31.325 0-61.137 7.1609-88.153 20.055 14.991-3.519 30.543-5.3612 46.488-5.3612 113.99 0 209.38 95.096 220.6 219.9l1.0829 23.998c0 100.25-54.97 186.37-133.56 223.87 100.13-23.493 175.22-121.36 175.22-238.53l-1.0572-23.998c-11.219-124.8-106.64-219.92-220.63-219.92z" fill="#d38d5f"/>
   <path d="m1656.7 226.6c-91.423 29.871-158.05 122.42-158.05 231.99 0 133.73 99.246 242.12 221.69 242.12 36.329 0 70.63-9.5254 100.89-26.443-20.142 6.5749-41.482 10.11-63.582 10.11-122.44 0-221.71-108.4-221.71-242.12 0-94.028 49.072-175.54 120.77-215.65z" fill="#9e623b"/>
   <path d="m1763.3 202.07c-31.325 0-61.137 7.1609-88.153 20.055 14.991-3.519 30.543-5.3612 46.488-5.3612 113.99 0 209.38 95.096 220.6 219.9l1.0829 23.998c0 100.25-54.97 186.37-133.56 223.87 100.13-23.493 175.22-121.36 175.22-238.53l-1.0572-23.998c-11.219-124.8-106.64-219.92-220.63-219.92z" fill="url(#ac)"/>
   <g transform="matrix(.6156 -.55067 .52609 .64437 820.84 -683.64)">
    <path d="m-36.589 1473.8h20.203c19.744 92.482 12.193 178.14 0 262.64h-20.203c-9.6965-87.547-14.353-175.09 0-262.64z" fill="url(#s)"/>
    <path d="m-36.589 1473.8h20.203c19.744 92.482 12.193 178.14 0 262.64h-20.203c-9.6965-87.547-14.353-175.09 0-262.64z" fill="url(#k)"/>
    <path d="m158.75 1547 14.286 14.286c-51.434 79.356-117.34 134.59-185.71 185.71l-14.286-14.286c55.048-68.761 113.66-133.96 185.71-185.71z" fill="url(#r)"/>
    <path d="m158.75 1547 14.286 14.286c-51.434 79.356-117.34 134.59-185.71 185.71l-14.286-14.286c55.048-68.761 113.66-133.96 185.71-185.71z" fill="url(#j)"/>
    <path d="m245.06 1737v20.203c-92.482 19.744-178.14 12.193-262.64 0v-20.203c87.547-9.6965 175.09-14.353 262.64 0z" fill="url(#q)"/>
    <path d="m245.06 1737v20.203c-92.482 19.744-178.14 12.193-262.64 0v-20.203c87.547-9.6965 175.09-14.353 262.64 0z" fill="url(#i)"/>
    <path d="m171.78 1932.3-14.286 14.286c-79.356-51.434-134.59-117.34-185.71-185.71l14.286-14.286c68.761 55.048 133.96 113.66 185.71 185.71z" fill="url(#p)"/>
    <path d="m171.78 1932.3-14.286 14.286c-79.356-51.434-134.59-117.34-185.71-185.71l14.286-14.286c68.761 55.048 133.96 113.66 185.71 185.71z" fill="url(#h)"/>
    <path d="m-18.17 2018.6h-20.203c-19.744-92.482-12.193-178.14 0-262.64h20.203c9.6965 87.547 14.353 175.09 0 262.64z" fill="url(#o)"/>
    <path d="m-18.17 2018.6h-20.203c-19.744-92.482-12.193-178.14 0-262.64h20.203c9.6965 87.547 14.353 175.09 0 262.64z" fill="url(#g)"/>
    <path d="m-213.51 1945.4-14.286-14.286c51.434-79.356 117.34-134.59 185.71-185.71l14.286 14.286c-55.048 68.761-113.66 133.96-185.71 185.71z" fill="url(#n)"/>
    <path d="m-213.51 1945.4-14.286-14.286c51.434-79.356 117.34-134.59 185.71-185.71l14.286 14.286c-55.048 68.761-113.66 133.96-185.71 185.71z" fill="url(#f)"/>
    <path d="m-299.82 1755.4v-20.203c92.482-19.744 178.14-12.193 262.64 0v20.203c-87.547 9.6965-175.09 14.353-262.64 0z" fill="url(#m)"/>
    <path d="m-299.82 1755.4v-20.203c92.482-19.744 178.14-12.193 262.64 0v20.203c-87.547 9.6965-175.09 14.353-262.64 0z" fill="url(#e)"/>
    <path d="m-226.54 1560.1 14.286-14.286c79.356 51.434 134.59 117.34 185.71 185.71l-14.286 14.286c-68.761-55.048-133.96-113.66-185.71-185.71z" fill="url(#l)"/>
    <path d="m-226.54 1560.1 14.286-14.286c79.356 51.434 134.59 117.34 185.71 185.71l-14.286 14.286c-68.761-55.048-133.96-113.66-185.71-185.71z" fill="url(#d)"/>
   </g>
   <path d="m1722.6 206.7c-130.9 0-237.02 111.88-237.02 249.92s106.12 249.95 237.02 249.95 237.02-111.91 237.02-249.95l-1.1686-24.593c-11.994-127.89-113.99-225.33-235.85-225.33zm0 19.583c112.31 0 206.31 89.811 217.36 207.67l1.067 22.664c0 127.22-97.787 230.36-218.43 230.36s-218.45-103.15-218.45-230.36 97.813-230.34 218.45-230.34z" fill="#502d16"/>
   <path d="m1722.6 206.7c-130.9 0-237.02 111.88-237.02 249.92s106.12 249.95 237.02 249.95 237.02-111.91 237.02-249.95l-1.1686-24.593c-11.994-127.89-113.99-225.33-235.85-225.33zm0 19.583c112.31 0 206.31 89.811 217.36 207.67l1.067 22.664c0 127.22-97.787 230.36-218.43 230.36s-218.45-103.15-218.45-230.36 97.813-230.34 218.45-230.34z" fill="url(#u)" opacity=".5615"/>
   <path transform="matrix(.91427 0 0 .86362 2269.9 -548.86)" d="m-545.71 1167.1c0 29.192-23.665 52.857-52.857 52.857s-52.857-23.665-52.857-52.857 23.665-52.857 52.857-52.857c27.177 0 49.926 20.609 52.601 47.655" fill="#520"/>
   <path transform="matrix(.81392 0 0 .86362 2204.5 -547.63)" d="m-545.71 1167.1c0 29.192-23.665 52.857-52.857 52.857s-52.857-23.665-52.857-52.857 23.665-52.857 52.857-52.857c27.177 0 49.926 20.609 52.601 47.655" fill="#ffb380"/>
   <path transform="matrix(.71357 0 0 .74691 2145.1 -411.42)" d="m-545.71 1167.1c0 29.192-23.665 52.857-52.857 52.857s-52.857-23.665-52.857-52.857 23.665-52.857 52.857-52.857c27.177 0 49.926 20.609 52.601 47.655" fill="#2b1100"/>
   <path transform="matrix(.64668 0 0 .65355 2105 -302.45)" d="m-545.71 1167.1c0 29.192-23.665 52.857-52.857 52.857s-52.857-23.665-52.857-52.857 23.665-52.857 52.857-52.857c27.177 0 49.926 20.609 52.601 47.655" fill="url(#t)"/>
   <path d="m1722.6 206.7c-130.9 0-237.02 111.88-237.02 249.92s106.12 249.95 237.02 249.95 237.02-111.91 237.02-249.95l-1.1686-24.593c-11.994-127.89-113.99-225.33-235.85-225.33zm0 19.583c112.31 0 206.31 89.811 217.36 207.67l1.067 22.664c0 127.22-97.787 230.36-218.43 230.36s-218.45-103.15-218.45-230.36 97.813-230.34 218.45-230.34z" fill="url(#ab)" opacity=".5615"/>
  </g>
 </g>
</svg>
