<?xml version="1.0" encoding="UTF-8"?>
<svg viewBox="0 0 599.8573 285.87256" xmlns="http://www.w3.org/2000/svg" xmlns:xlink="http://www.w3.org/1999/xlink">
 <defs>
  <linearGradient id="b">
   <stop stop-color="#685d4c" offset="0"/>
   <stop stop-color="#685d4c" stop-opacity="0" offset="1"/>
  </linearGradient>
  <linearGradient id="f" x1="433.15" x2="460.08" y1="406.52" y2="283.7" gradientUnits="userSpaceOnUse">
   <stop stop-color="#dcbd90" offset="0"/>
   <stop stop-color="#96725d" offset="1"/>
  </linearGradient>
  <radialGradient id="a" cx="258.51" cy="364.83" r="178.65" fx="296.77" fy="354.05" gradientTransform="matrix(1.0559 -.0302 .02745 .95983 -24.462 21.545)" gradientUnits="userSpaceOnUse">
   <stop stop-color="#fff" stop-opacity="0" offset="0"/>
   <stop stop-color="#201009" stop-opacity=".53846" offset="1"/>
  </radialGradient>
  <radialGradient id="d" cx="356.79" cy="790.99" r="365.91" gradientTransform="matrix(1.4312 .21526 -.09249 .78845 -53.802 73.787)" gradientUnits="userSpaceOnUse">
   <stop stop-color="#d0c1b6" offset="0"/>
   <stop stop-color="#b29f99" offset="1"/>
  </radialGradient>
  <radialGradient id="e" cx="400.91" cy="684.55" r="85.069" fx="399.82" fy="674.77" gradientTransform="matrix(1.4239 .19709 -.05446 .39343 -135.18 284.91)" gradientUnits="userSpaceOnUse" xlink:href="#b"/>
  <radialGradient id="c" cx="400.91" cy="684.55" r="85.069" fx="399.82" fy="674.77" gradientTransform="matrix(1.4239 .19709 -.05446 .39343 -241.07 678.06)" gradientUnits="userSpaceOnUse" xlink:href="#b"/>
 </defs>
 <g transform="matrix(.7943 0 0 .83071 -31.436 -244.63)">
  <path transform="matrix(.9995 .0317 -.0317 .9995 146.99 116.08)" d="m460.83 341.84c0 94.74-79.983 171.54-178.65 171.54s-178.65-76.802-178.65-171.54 79.983-171.54 178.65-171.54 178.65 76.802 178.65 171.54z" fill="#dfc497"/>
  <path d="m266.37 555.3c-0.69397-30.837 265.92-8.137 274.21 41.016" fill="none" stroke="#c1b686" stroke-width=".36932"/>
  <path d="m535.95 583.65c-3.9207-3.9589-9.0309-7.706-14.211-10.42-35.848-18.784-111.03-32.908-183.69-34.511-38.593-0.8512-62.541 2.4835-70.968 9.8819l-3.4334 3.0145-5.0628-9.9121c-9.1717-17.957-19.447-52.036-15.69-52.036 0.42199 0 1.3655-1.3516 2.0968-3.0035 2.5186-5.6899 13.284-10.045 31.647-12.802 14.778-2.2188 55.52-3.0172 77.867-1.526 85.972 5.737 162.77 24.332 198.96 48.177 11.502 7.5778 21.594 19.628 21.594 25.785 0 4.3299-20.538 32.252-30.087 40.905l-2.9017 2.6293-6.1224-6.1819z" fill="#b4956f"/>
  <path d="m271.96 565.87c-0.69397-30.837 258.82-2.0468 260 32.896" fill="none" stroke="#3d3f3d" stroke-width=".36932"/>
  <path d="m530.29 593.51c-8.8633-13.367-57.122-27.274-124.23-35.801-37.536-4.7689-85.193-6.5781-107.59-4.0846-11.265 1.2539-21.866 4.3295-24.338 7.0612-2.4455 2.7022-2.658 2.6442-5.4758-1.4934-2.2826-3.3518-2.3213-3.6666-0.74643-6.0702 4.007-6.1155 16.708-9.2769 42.525-10.585 41.892-2.1228 103.35 3.5446 148.92 13.732 40.675 9.0937 67.62 20.446 76.659 32.297 2.3118 3.031 2.5469 3.8721 1.4511 5.1925-3.0171 3.6354-4.6296 3.5795-7.1676-0.24815z" fill="#b39c76"/>
  <path d="m404.53 637.17c-27.838-2.0212-57.377-11.712-82.472-27.057-9.6972-5.9296-9.0872-7.7826 3.4405-10.452 6.0992-1.2997 12.131-1.4941 32.847-1.059 35.342 0.74246 67.737 4.8466 97.951 12.409 14.237 3.5636 28.662 9.8183 29.203 12.663 0.21732 1.1418-2.3206 2.402-9.6325 4.7829-23.087 7.5174-47.217 10.465-71.337 8.7135z" fill="url(#e)"/>
  <path d="m575.06 544.67c0-5.51-14.119-20.384-26.112-27.509-35.131-20.871-103.21-37.408-182.48-44.323-21.501-1.8759-76.069-1.5578-89.323 0.52078-17.72 2.779-27.874 6.7425-32.053 12.512l-2.8801 3.9758-0.80403-2.8846c-1.6334-5.8602-0.83994-38.833 1.1808-49.069 2.1847-11.066 3.7392-13.619 11.635-19.113 24.776-17.237 83.561-22.721 153.35-14.308 96.523 11.635 170.47 44.574 182.12 81.128 3.5488 11.13 3.6529 11.786 2.6697 16.835-2.1014 10.792-8.196 28.017-13.885 39.244-2.6268 5.1838-3.425 5.881-3.425 2.9919z" fill="#f3dbb9"/>
  <path d="m574.75 542.7c-0.69315-3.4658-12.139-16.143-19.442-21.534-9.3526-6.904-30.677-16.826-48.769-22.691-27.611-8.9517-61.734-16.285-99.582-21.402-35.433-4.7903-41.814-5.1748-85.154-5.1309-38.466 0.0389-42.358 0.20416-51.415 2.1827-12.123 2.6486-21.322 6.6857-25.139 11.033l-2.9087 3.3128-0.61661-3.0831c-0.33914-1.6957-0.61661-9.2105-0.61661-16.7 0-11.549 0.30391-14.212 2.0018-17.54 6.2819-12.314 27.349-17.862 72.096-18.99 85.673-2.1586 194.79 21.492 242.09 52.472 16.782 10.992 30.07 28.068 28.648 36.812-0.56824 3.4935-8.1635 21.733-9.6826 23.252-0.55418 0.55418-1.1562-0.24233-1.5064-1.9928z" fill="#dcbd90"/>
  <path d="m590.47 487.3c-3.7777-12.17-11.436-21.782-26.042-32.686-34.51-25.762-96.57-44.44-174.11-52.398-17.184-1.7638-68.438-1.764-82.218-1.8e-4 -29.407 3.7639-52.22 11.945-60.392 21.656-3.2308 3.8396-3.1932 3.2804 0.56057-8.3435 23.736-73.5 96.734-122.77 176.88-119.4 47.816 2.0147 90.026 20.645 122.59 54.11 27.402 28.158 42.768 60.475 47.678 100.27 1.577 12.783 0.15328 44.231-2.0025 44.231-0.35422 0-1.6837-3.3492-2.9544-7.4427z" fill="url(#f)"/>
  <path transform="matrix(.9995 .0317 -.0317 .9995 147.65 115.42)" d="m460.83 341.84c0 94.74-79.983 171.54-178.65 171.54s-178.65-76.802-178.65-171.54 79.983-171.54 178.65-171.54 178.65 76.802 178.65 171.54z" fill="url(#a)"/>
  <g transform="translate(33.496 -285.23)">
   <path d="m234 643.4c-128.94 0.16469-221.49 27.591-227.6 74.452-8.4954 65.197 153.53 143.28 361.89 174.43s384.18 3.562 392.68-61.635-153.53-143.32-361.89-174.46c-58.602-8.7592-114.62-12.844-165.08-12.78zm52.23 62.84c32.846-0.0335 69.308 2.0939 107.46 6.6455 135.65 16.184 241.14 56.784 235.61 90.664s-119.98 48.206-255.62 32.023-241.14-56.748-235.61-90.627c3.9751-24.351 64.227-38.619 148.17-38.705z" fill="url(#d)"/>
   <path d="m253.93 669.49c-111.77 0.12588-192 25.833-197.3 61.65-7.3642 49.832 133.08 109.52 313.7 133.32s333.03 2.7226 340.39-47.11-133.08-115.47-313.7-139.28c-50.799-6.6949-99.36-8.6312-143.1-8.582zm0.39639 3.144c28.472-0.0256 111.21 6.1735 144.28 9.6524 117.59 12.37 315.69 85.458 302.54 136.55-13.367 51.94-222.03 52.507-339.43 38.537-155.14-18.46-301.76-80.826-296.55-126.7 3.6354-31.982 116.4-57.971 189.16-58.037z"/>
   <path transform="matrix(1.0744 .16604 -.16707 1.0371 173.89 -77.717)" d="m656.73 770.69c0 58.021-153.6 105.06-343.08 105.06s-343.08-47.035-343.08-105.06 153.6-105.06 343.08-105.06 343.08 47.035 343.08 105.06z" fill="none" stroke="#000200" stroke-width="1.152"/>
  </g>
  <g transform="translate(105.56 -392.82)">
   <path transform="matrix(.9995 .0317 -.0317 .9995 41.102 509.22)" d="m455.02 385.23c-24.956 91.659-122.57 146.54-218.02 122.57-83.186-20.884-139.08-95.706-133.01-178.06l178.2 12.099z" fill="#dfc497"/>
   <path d="m160.48 948.44c-0.69397-30.837 265.92-8.137 274.21 41.016" fill="none" stroke="#c1b686" stroke-width=".36932"/>
   <path d="m430.05 976.79c-3.9207-3.9589-9.0309-7.706-14.211-10.42-35.848-18.784-111.03-32.908-183.69-34.511-38.593-0.8512-62.541 2.4835-70.968 9.8819l-3.4334 3.0145-5.0628-9.9121c-9.1717-17.957-19.447-52.036-15.69-52.036 0.42199 0 1.3655-1.3516 2.0968-3.0035 2.5186-5.6899 13.284-10.045 31.647-12.802 14.778-2.2188 55.52-3.0172 77.867-1.526 85.972 5.737 162.77 24.332 198.96 48.177 11.502 7.5778 21.594 19.628 21.594 25.785 0 4.3299-20.538 32.252-30.087 40.905l-2.9017 2.6293-6.1224-6.1819z" fill="#b4956f"/>
   <path d="m424.39 986.66c-8.8633-13.367-57.122-27.274-124.23-35.801-37.536-4.7689-85.193-6.5781-107.59-4.0846-11.265 1.2539-21.866 4.3295-24.338 7.0612-2.4455 2.7022-2.658 2.6442-5.4758-1.4934-2.2826-3.3518-2.3213-3.6666-0.74643-6.0702 4.007-6.1155 16.708-9.2769 42.525-10.585 41.892-2.1228 103.35 3.5446 148.92 13.732 40.675 9.0937 67.62 20.446 76.659 32.297 2.3118 3.031 2.5469 3.8721 1.4511 5.1925-3.0171 3.6354-4.6296 3.5795-7.1676-0.24815z" fill="#b39c76"/>
   <path d="m298.64 1030.3c-27.838-2.0212-57.377-11.712-82.472-27.057-9.6972-5.9296-9.0872-7.7826 3.4405-10.452 6.0992-1.2997 12.131-1.4941 32.847-1.059 35.342 0.74246 67.737 4.8466 97.951 12.409 14.237 3.5636 28.662 9.8183 29.203 12.663 0.21732 1.1419-2.3206 2.402-9.6325 4.7829-23.087 7.5174-47.217 10.465-71.337 8.7135z" fill="url(#c)"/>
   <path d="m468.86 935.85c-0.69315-3.4658-12.139-16.143-19.442-21.534-9.3526-6.904-30.677-16.826-48.769-22.691-27.611-8.9517-61.734-16.285-99.582-21.402-35.433-4.7903-41.814-5.1748-85.154-5.1309-38.466 0.0389-42.358 0.20416-51.415 2.1827-12.123 2.6486-21.322 6.6857-25.139 11.033l-2.9087 3.3128-0.61661-3.0831c-0.33914-1.6957-0.61661-9.2105-0.61661-16.7 0-11.549-2.0508-19.886 1.669-19.537 21.257 1.9956-4.5375 0.63911 40.083 4.1886 87.703 6.9767 219.35 37.378 274.43 52.921 19.734 5.568 30.736 8.7669 29.314 17.512-0.56824 3.4935-8.829 19.403-10.348 20.923-0.55418 0.55418-1.1562-0.24233-1.5064-1.9928z" fill="#dcbd90"/>
   <path transform="matrix(.9995 .0317 -.0317 .9995 41.288 509.04)" d="m454.97 385.41c-25.063 91.632-122.74 146.4-218.17 122.34-83.053-20.946-138.84-95.667-132.83-177.92l178.21 12.006z" fill="url(#a)"/>
  </g>
 </g>
</svg>
