<?xml version="1.0" encoding="UTF-8"?>
<svg viewBox="0 0 48 48" xmlns="http://www.w3.org/2000/svg" xmlns:xlink="http://www.w3.org/1999/xlink">
 <defs>
  <filter id="bd" x="-.22795" y="-1.097" width="1.4559" height="3.194">
   <feGaussianBlur stdDeviation="1.61274"/>
  </filter>
  <filter id="bc" x="-.19725" y="-.17069" width="1.3945" height="1.3414"/>
  <filter id="bb" x="-.14551" y="-.09151" width="1.291" height="1.183"/>
  <filter id="ba" x="-.18815" y="-.13053" width="1.3763" height="1.2611"/>
  <filter id="az" x="-.20173" y="-.13721" width="1.4035" height="1.2744"/>
  <filter id="ay" x="-.21133" y="-.18114" width="1.4227" height="1.3623"/>
  <filter id="ax" x="-.15304" y="-.16138" width="1.3061" height="1.3228"/>
  <filter id="aw" x="-.317" y="-.19296" width="1.634" height="1.3859"/>
  <filter id="av" x="-.14793" y="-.08143" width="1.2959" height="1.1629"/>
  <filter id="au" x="-.20642" y="-.12328" width="1.4128" height="1.2466"/>
  <filter id="at" x="-.22501" y="-.04719" width="1.45" height="1.0944"/>
  <filter id="as" x="-.33166" y="-.18656" width="1.6633" height="1.3731"/>
  <filter id="ar" x="-.43739" y="-.11264" width="1.8748" height="1.2253"/>
  <filter id="aq" x="-.10205" y="-.09632" width="1.2041" height="1.1926"/>
  <filter id="ap" x="-.08407" y="-.30626" width="1.1682" height="1.6125"/>
  <filter id="ao" x="-.1066" y="-.30614" width="1.2132" height="1.6123"/>
  <filter id="an" x="-.39574" y="-.07557" width="1.7915" height="1.1511"/>
  <filter id="am" x="-.08844" y="-.12702" width="1.1769" height="1.254"/>
  <filter id="al" x="-.08473" y="-.24946" width="1.1695" height="1.4989"/>
  <filter id="ak" x="-.14385" y="-.15389" width="1.2877" height="1.3078"/>
  <filter id="aj" x="-.15252" y="-.45941" width="1.305" height="1.9188"/>
  <filter id="ai" x="-.69211" y="-.16358" width="2.3842" height="1.3272"/>
  <filter id="ah" x="-.22879" y="-.16054" width="1.4576" height="1.3211"/>
  <filter id="ag" x="-.207" y="-.3339" width="1.414" height="1.6678"/>
  <filter id="af" x="-.15525" y="-.3918" width="1.3105" height="1.7836"/>
  <filter id="ae" x="-.378" y="-.1932" width="1.756" height="1.3864"/>
  <filter id="ad" x="-.40857" y="-.20075" width="1.8171" height="1.4015"/>
  <linearGradient id="a">
   <stop stop-color="#ffd73b" offset="0"/>
   <stop stop-color="#ee8400" offset="1"/>
  </linearGradient>
  <linearGradient id="c">
   <stop stop-color="#ff5959" offset="0"/>
   <stop stop-color="#d90000" offset="1"/>
  </linearGradient>
  <linearGradient id="b">
   <stop stop-color="#d700d7" offset="0"/>
   <stop stop-color="#6e006e" offset="1"/>
  </linearGradient>
  <linearGradient id="ac" x1="34.347" x2="32.533" y1="1016.4" y2="1010.8" gradientUnits="userSpaceOnUse" xlink:href="#b"/>
  <linearGradient id="ab" x1="38.593" x2="35.501" y1="1026" y2="1018.1" gradientUnits="userSpaceOnUse" xlink:href="#b"/>
  <linearGradient id="aa" x1="25.444" x2="31.337" y1="1030.5" y2="1032.2" gradientUnits="userSpaceOnUse" xlink:href="#b"/>
  <linearGradient id="z" x1="33.257" x2="29.866" y1="1040.8" y2="1040.9" gradientUnits="userSpaceOnUse" xlink:href="#b"/>
  <linearGradient id="y" x1="20.901" x2="17.975" y1="1035.9" y2="1030.3" gradientUnits="userSpaceOnUse" xlink:href="#b"/>
  <linearGradient id="x" x1="11.265" x2="9.9098" y1="1034.6" y2="1025.4" gradientUnits="userSpaceOnUse" xlink:href="#b"/>
  <linearGradient id="w" x2="0" y1="1022.7" y2="1018.8" gradientUnits="userSpaceOnUse" xlink:href="#b"/>
  <linearGradient id="v" x2="0" y1="1016" y2="1011" gradientUnits="userSpaceOnUse" xlink:href="#b"/>
  <linearGradient id="u" x1="24.099" x2="21.774" y1="1012.2" y2="1008.9" gradientUnits="userSpaceOnUse" xlink:href="#b"/>
  <linearGradient id="t" x1="11.904" x2="9.4013" y1="1020.1" y2="1016" gradientTransform="matrix(.9478 .40163 -.40163 .9478 405.37 41.419)" gradientUnits="userSpaceOnUse" xlink:href="#a"/>
  <linearGradient id="s" x1="11.281" x2="8.7776" y1="1029.7" y2="1024.9" gradientTransform="matrix(1.3271 -.12629 .12629 1.3271 -138.71 -337.27)" gradientUnits="userSpaceOnUse" xlink:href="#a"/>
  <linearGradient id="r" x1="12.944" x2="9.1059" y1="1039" y2="1035.5" gradientTransform="matrix(1.5666 .48534 -.48534 1.5666 492.78 -593.26)" gradientUnits="userSpaceOnUse" xlink:href="#a"/>
  <linearGradient id="q" x1="21.416" x2="18.913" y1="1039.6" y2="1035.9" gradientTransform="matrix(1.0332 -.42625 .42625 1.0332 -444.42 -25.704)" gradientUnits="userSpaceOnUse" xlink:href="#a"/>
  <linearGradient id="p" x1="27.437" x2="26.086" y1="1035.3" y2="1031.3" gradientTransform="matrix(1.0916 .24019 -.24019 1.0916 247.63 -100.39)" gradientUnits="userSpaceOnUse" xlink:href="#a"/>
  <linearGradient id="o" x1="30.564" x2="28.061" y1="1031.1" y2="1023.7" gradientTransform="matrix(1.1373 -.24736 .24736 1.1373 -255.93 -135.74)" gradientUnits="userSpaceOnUse" xlink:href="#a"/>
  <linearGradient id="n" x1="33.371" x2="30.868" y1="1023.6" y2="1020.1" gradientTransform="matrix(1.3987 .17792 -.17792 1.3987 173.09 -418.29)" gradientUnits="userSpaceOnUse" xlink:href="#a"/>
  <linearGradient id="m" x1="27.394" x2="23.296" y1="1016.6" y2="1011.8" gradientTransform="matrix(.68938 .13405 -.13405 .68938 145.83 306)" gradientUnits="userSpaceOnUse" xlink:href="#a"/>
  <linearGradient id="l" x1="20.161" x2="16.331" y1="1020.9" y2="1013.5" gradientTransform="matrix(1.2309 -.15652 .15652 1.2309 -165.41 -238.48)" gradientUnits="userSpaceOnUse" xlink:href="#a"/>
  <linearGradient id="k" x2="0" y1="1020.8" y2="1015.5" gradientUnits="userSpaceOnUse" xlink:href="#c"/>
  <linearGradient id="j" x2="0" y1="1024.5" y2="1021.5" gradientUnits="userSpaceOnUse" xlink:href="#c"/>
  <linearGradient id="i" x1="18.124" x2="16.045" y1="1029.5" y2="1027.2" gradientUnits="userSpaceOnUse" xlink:href="#c"/>
  <linearGradient id="h" x2="0" y1="1032.8" y2="1027.8" gradientUnits="userSpaceOnUse" xlink:href="#c"/>
  <linearGradient id="g" x1="29.7" x2="26.925" y1="1025.3" y2="1022.1" gradientUnits="userSpaceOnUse" xlink:href="#c"/>
  <linearGradient id="f" x1="30.477" x2="28.804" y1="1021.9" y2="1015.9" gradientUnits="userSpaceOnUse" xlink:href="#c"/>
  <linearGradient id="e" x2="0" y1="1015.1" y2="1013.3" gradientUnits="userSpaceOnUse" xlink:href="#c"/>
  <linearGradient id="d" x1="18.857" x2="19.975" y1="1016.2" y2="1013.3" gradientUnits="userSpaceOnUse" xlink:href="#c"/>
 </defs>
 <g transform="translate(0 -1004.4)">
  <path transform="matrix(1.41 0 0 1.41 -9.4077 992.28)" d="m14.738 14.187c-1.1074-0.75037-2.5334-0.68723-4.1164-0.77182 1.4723 0.29777 2.5372 0.71794 3.8224 1.4334-1.7378-1.0073-0.62688-0.94073 0.29403-0.66156z" fill="#fff" filter="url(#ao)"/>
  <path transform="matrix(.37662 0 0 .58333 21.21 1024.5)" d="m34.989 39.4a8.49 1.7642 0 1 1 -16.98 0 8.49 1.7642 0 1 1 16.98 0z" fill-opacity=".76863" fill-rule="evenodd" filter="url(#bd)"/>
  <path d="m26.475 1025.7c3.081 2.4496 4.2342 6.2755 4.6579 8.6231 0.58262 3.2278 1.0933 7.4134 1.3033 13.006l0.06262 0.036c1.2918-5.1067 0.67621-9.7835 0.04406-13.307s-1.9639-6.7757-6.0366-8.3487l-0.0313-0.014h-6e-6z" fill="url(#z)"/>
  <path d="m25.988 1023.5c4.4937-2.4874 8.1258-1.9245 11.176-1.076s5.8488 2.3877 7.7576 6.7781l0.07814-0.1142c0.26822-4.6279-3.582-7.9325-7.1282-8.9186-4.5268-0.9983-9.4066-0.1026-11.863 3.3408l-0.02052-0.014z" fill="url(#ab)"/>
  <path d="m25.314 1018.6 0.22834 0.1395c2.9478-1.644 5.1493-3.6354 8.2758-3.909 3.5006-0.025 7.4597 2.2693 9.3644 5.3943l0.19731-0.083c-2.2229-3.982-5.0188-7.4018-9.782-7.4466-4.6457 0.6615-5.8972 3.4235-8.2838 5.905z" fill="url(#ac)"/>
  <path d="m23.769 1018.9-0.04103 0.031c-0.70669-5.6869 0.21564-10.189 2.6878-13.615l-0.09561 0.019c-5.1081 3.6248-5.2527 8.3967-2.5512 13.566z" fill="url(#u)"/>
  <path d="m4.7625 1011.2 0.06208-0.1887c7.8316-0.1723 13.097 3.4612 13.439 9.9141l0.02105-0.052c-3.1461-3.8456-5.1058-7.575-13.522-9.6734z" fill="url(#v)"/>
  <path d="m11.478 1021.3c-2.2765 0.1396-4.7678 0.9852-7.4907 2.8641h0.06761c5.3366-1.6737 9.1224-2.1017 13.434-1.366l0.2023-0.093c-1.8966-0.9653-3.9363-1.5489-6.2129-1.41z" fill="url(#w)"/>
  <path d="m22.299 1027.8c-2.6161 1.5606-3.6678 5.5226-1.9723 11.353l0.06262-0.3109c0.55882-6.1846 1.261-8.7187 1.8842-11.104l0.02551 0.062z" fill="url(#y)"/>
  <path d="m18.704 1025.4c-8.3684 0.5449-12.159 6.7098-11.897 11.985l0.06262-0.1026c3.3167-6.0166 4.755-8.6757 11.7-11.715l0.13469-0.1662z" fill="url(#x)"/>
  <path d="m10.397 1017.5 0.02577 0.1297c1.6492 0.8228 3.5738 1.4076 5.4871 3.1619l0.02105-0.089c-1.158-3.2652-2.4711-3.532-5.5339-3.2035z" fill="url(#k)"/>
  <path d="m18.93527,1013.3168-.07814.1142c.14004,1.6026 1.39871,3.5366 1.88418,5.6867l.16627-.052c.42064-1.8591.27202-4.0398-1.9723-5.749z" fill="url(#d)"/>
  <path transform="matrix(1.41 0 0 1.41 -9.4077 992.28)" d="m20.2144,15.50995 .66156,1.65391c-.15961-.50747-.14571-.87614.18377-.99234l-.84533-.66156z" fill="#fff" fill-opacity=".78571" filter="url(#ae)"/>
  <path d="m27.05 1013.3c-1.3301 0.3766-2.2006 0.9159-1.9723 3.6259l0.12996 0.027c0.66679-1.1164 1.4608-2.052 1.8842-3.5689l-0.04184-0.083z" fill="url(#e)"/>
  <path d="m25.64 1021.9 0.09366-0.056c1.212-1.3876 2.3478-1.9323 3.2371-2.3771s2.4521-1.2409 2.9079-0.7855l0.08839-0.1396c-1.3971-0.9949-1.9526-1.121-3.6132-0.308-1.6483 1.0976-2.2475 1.8192-2.7139 3.6665z" fill="url(#f)"/>
  <path d="m26.925 1024.7 0.02768 0.1171c1.8151 0.065 3.8673 0.4308 5.4991 1.7449l0.02385-0.107c-0.81725-2.4549-3.3859-3.2273-5.5506-1.7542l-2.6e-5 3e-4z" fill="url(#g)"/>
  <path d="m24.14062,1027.7957-.14518.1528c-.03676,1.8263-.18431,3.3051.14864,4.8415l.02022-.016c1.11898-1.5956 1.11253-3.0446-.02365-4.9782z" fill="url(#h)"/>
  <path d="m17.206 1027.9c-0.99404 0.7775-1.0597 1.999-1.1614 3.7374l0.06262 0.089c0.64898-1.1412 1.1609-2.5212 1.8842-3.0869s1.6964-1.3113 2.2109-1.3113v-0.1663c-1.1654-0.02-2.0373 0.1722-2.9963 0.7382z" fill="url(#i)"/>
  <path d="m11.8 1025.6c0.59309-0.4212 2.1614-0.9293 3.0748-1.0971s1.9127-0.4159 3.0741-0.192l0.15265 0.1026c-0.99713-0.7968-2.5236-1.1266-3.6802-0.9139-1.1117 0.3091-1.831 1.3295-2.6739 2.0685l0.05266 0.031z" fill="url(#j)"/>
  <path d="m25.444 1026.6 0.03853 0.044c2.7364 3.1917 2.7255 7.6098 1.4593 11.272l0.02631-0.1368c3.1133-3.711 3.1049-7.8094-1.5242-11.179z" fill="url(#aa)"/>
  <path d="m7.4432,1015.9351-1.22093-1.1969-1.70963-.051 .76108-1.5311-.4804-1.6416 1.69127.2508 1.41271-.9643 .2842,1.686 1.3535,1.0456-1.51562.7914-.57619,1.6103z" fill="url(#t)" fill-rule="evenodd"/>
  <path transform="matrix(1.41 0 0 1.41 -9.4077 992.28)" d="m23.449 11.798c-1.0656 1.7441-0.78771 3.7761-0.51455 5.807-0.2812-0.04326-1.4329-4.6252 0.51455-5.807z" fill="#fff" filter="url(#an)"/>
  <path d="m22.637 1014.5-1.9977-0.5062-1.8114 0.9844-0.13587-2.0563-1.496-1.4184 1.9137-0.7647 0.88674-1.8613 1.3186 1.5838 2.0441 0.2683-1.0988 1.7435 0.37659 2.0269z" fill="url(#l)" fill-rule="evenodd"/>
  <path d="m39.379 1023-2.0539-1.1251-2.2729 0.5678 0.43546-2.3011-1.2425-1.9861 2.323-0.2969 1.505-1.7956 1.0003 2.1176 2.1726 0.8766-1.7048 1.6057-0.16226 2.3371z" fill="url(#n)" fill-rule="evenodd"/>
  <path d="m35.635 1029-1.9082-0.3089-1.6116 1.0687-0.29585-1.9103-1.5144-1.2026 1.7254-0.8717 0.67567-1.8119 1.3622 1.3716 1.932 0.083-0.88348 1.7196 0.51835 1.8629z" fill="url(#o)" fill-rule="evenodd"/>
  <path transform="matrix(1.41 0 0 1.41 -9.4077 992.28)" d="m27.712 26.205c1.2807 1.5536 1.9211 8.1732 1.8744 9.2986 0.24554-1.1147-0.03693-7.9388-1.8744-9.2986z" fill="#fff" filter="url(#at)"/>
  <path d="m31.283 1039.5-1.5413-1.0346-1.8349 0.2864 0.50784-1.7857-0.83931-1.6567 1.8552-0.07 1.3162-1.3101 0.6387 1.7431 1.6528 0.8469-1.4604 1.1462-0.29472 1.8334z" fill="url(#p)" fill-rule="evenodd"/>
  <path d="m22.887 1039.8-1.8562 0.031-1.3427 1.2831-0.60291-1.7559-1.6351-0.8804 1.4835-1.116 0.33216-1.8272 1.5198 1.0661 1.8404-0.2487-0.54427 1.7748 0.80522 1.6735z" fill="url(#q)" fill-rule="evenodd"/>
  <path d="m8.6534 1030.7-2.1281-0.6112-1.9786 0.9957-0.07611-2.2129-1.5584-1.5741 2.081-0.7562 1.0154-1.9684 1.3622 1.7453 2.186 0.3576-1.2391 1.8349 0.33557 2.1893z" fill="url(#s)" fill-rule="evenodd"/>
  <path d="m10.615 1043.3-2.1265-1.7026-2.7181 0.193 0.96198-2.5482-1.0236-2.5255 2.721 0.1283 2.0855-1.754 0.71968 2.6273 2.3125 1.4414-2.2762 1.4961-0.65626 2.6449z" fill="url(#r)" fill-rule="evenodd"/>
  <path d="m29.50941,1010.6832-.98413-.6262-1.14819.2081 .29149-1.1296-.55275-1.0275 1.16426-.072 .80656-.8432 .42809,1.0851 1.05121.5066-.89969.7423-.15687,1.1562z" fill="url(#m)" fill-rule="evenodd"/>
  <path transform="matrix(1.41 0 0 1.41 -9.4077 992.28)" d="m11.30505,13.92893c-.10396,0-1.09152-.20791-1.09152-.20791l.28587.98757-.31186.88361 .52257-.77778c-.23111-.60747.06647-.83044.59494-.88549z" fill="#fff" fill-opacity=".86607" filter="url(#au)"/>
  <path transform="matrix(1.41 0 0 1.41 -9.4077 992.28)" d="m10.13556,24.5063-1.16949.38983 1.01356.96158c-.62402-.76593-.23486-1.05905.15593-1.35141z" fill="#fff" fill-opacity=".86607" filter="url(#bc)"/>
  <path transform="matrix(1.41 0 0 1.41 -9.4077 992.28)" d="m20.73891,12.49956-.33785.62373-1.22146.51977 .88361.85762 .02599.83164c0,0 .28595-.90989.18192-.93559-.76704-.18946-.73757-1.16063.31186-1.03954l.15593-.85762z" fill="#fff" fill-opacity=".86607" filter="url(#av)"/>
  <path transform="matrix(1.41 0 0 1.41 -9.4077 992.28)" d="m26.79426,11.33008-.72768.05198 .36384.49378-.2339.64972c.11262-.24633.22524-.49661.33785-.67571-.32563-.48245.07179-.42261.25988-.51977z" fill="#fff" fill-opacity=".86607" filter="url(#aw)"/>
  <path transform="matrix(1.41 0 0 1.41 -9.4077 992.28)" d="m32.642 18.269-1.5073 0.20791 0.9096 1.2215c-0.80424-1.0499 6e-3 -1.1772 0.59774-1.4294z" fill="#fff" fill-opacity=".86607" filter="url(#ax)"/>
  <path transform="matrix(1.41 0 0 1.41 -9.4077 992.28)" d="m29.52306,23.85658-1.09152.49378 .96158.77966c-.71501-.5137-.3079-.89538.12994-1.27344z" fill="#fff" fill-opacity=".86607" filter="url(#ay)"/>
  <path transform="matrix(1.41 0 0 1.41 -9.4077 992.28)" d="m12.552 31.783-1.5853-0.12994 0.59774 1.6893-0.10396 0.83164 0.38983-0.85762c-1.1487-1.5864 0.11063-1.3 0.70169-1.5333z" fill="#fff" fill-opacity=".86607" filter="url(#bb)"/>
  <path transform="matrix(1.41 0 0 1.41 -9.4077 992.28)" d="m20.34908,31.65316-.05198.28587-1.01356.77966 1.11751.70169c0,0-1.11751-.93559.07797-1.40339 .10823-.04235-.10395-.31186-.12994-.36384z" fill="#fff" fill-opacity=".86607" filter="url(#ba)"/>
  <path transform="matrix(1.41 0 0 1.41 -9.4077 992.28)" d="m27.57392,30.63961c-.10396-.05198-1.1435.02599-1.1435.02599l.57175,1.06553-.20791.57175 .36384-.62373c-.52768-.63206.01147-.80692.41582-1.03954z" fill="#fff" fill-opacity=".86607" filter="url(#az)"/>
  <path transform="matrix(1.41 0 0 1.41 -9.4077 992.28)" d="m25.25 18.119c2.095-2.5482 3.5651-3.2956 4.9617-3.4548-1.7832 0.56996-3.3692 2.0268-4.9617 3.4548z" fill="#fff" filter="url(#am)"/>
  <path transform="matrix(1.41 0 0 1.41 -9.4077 992.28)" d="m25.911 21.427c-0.03206-0.33936 5.0818-2.0358 5.1455-1.6539 0.44212-0.29475-3.6173-0.03867-5.1455 1.6539z" fill="#fff" filter="url(#al)"/>
  <path transform="matrix(1.41 0 0 1.41 -9.4077 992.28)" d="m10.548 22.126c1.9788-0.85952 3.6276-1.1416 5.219-1.3231 0.04332-0.0361-2.3879-0.61957-5.219 1.3231z" fill="#fff" filter="url(#ap)"/>
  <path transform="matrix(1.41 0 0 1.41 -9.4077 992.28)" d="m12.055 29.109c0.12811-0.77709 4.2582-4.9033 4.3002-4.4839 0-0.49254-3.4548 1.6064-4.3002 4.4839z" fill="#fff" filter="url(#aq)"/>
  <path transform="matrix(1.41 0 0 1.41 -9.4077 992.28)" d="m21.685 26.389c-0.51248 1.244-0.76049 2.5541-0.88208 3.8959-0.15039-0.02149-0.38488-2.7537 0.88208-3.8959z" fill="#fff" filter="url(#ar)"/>
  <path transform="matrix(1.41 0 0 1.41 -9.4077 992.28)" d="m26.79326,27.01378c-.07351-.14701-1.32312-1.94793-1.32312-1.94793 .36119.80646.79858,1.63832.88208,2.35222-.04716-.84673.2023-.60586.44104-.40429z" fill="#fff" filter="url(#as)"/>
  <path transform="matrix(1.41 0 0 1.41 -9.4077 992.28)" d="m16.35528,18.22971c-.73507-.33078-2.05819-.25727-2.05819-.25727 .69739.49444 1.49713.39121 1.5804.80858-.03176-.23835-.33333-.55903.47779-.5513z" fill="#fff" fill-opacity=".78571" filter="url(#af)"/>
  <path transform="matrix(1.41 0 0 1.41 -9.4077 992.28)" d="m16.90659,22.27259c-.34979-.02874-.85234.40083-1.39663.95559 .51455-.15926.99234-.46554 1.54364-.4778-.81339.03183-.48189-.22256-.14701-.4778z" fill="#fff" fill-opacity=".78571" filter="url(#ag)"/>
  <path transform="matrix(1.41 0 0 1.41 -9.4077 992.28)" d="m18.119 27.161c0.15821-0.46975 1.3285-2.2206 1.3966-1.9479-0.11124-0.20023-1.2334 0.28647-1.3966 1.9479z" fill="#fff" fill-opacity=".78571" filter="url(#ah)"/>
  <path transform="matrix(1.41 0 0 1.41 -9.4077 992.28)" d="m23.85299,27.38132c-.26608-.93424-.05282-2.04036 0-1.94793l.33078.88208c-.32718-.07857-.27719.59723-.33078,1.06585z" fill="#fff" fill-opacity=".78571" filter="url(#ai)"/>
  <path transform="matrix(1.41 0 0 1.41 -9.4077 992.28)" d="m28.07963,22.67688c-.52944-.17583-1.53024-.0035-2.09495.29403 .80258-.05526 1.49873-.0041 1.91118.33078-.46307-.40489-.11286-.5048.18377-.62481z" fill="#fff" fill-opacity=".78571" filter="url(#aj)"/>
  <path transform="matrix(1.41 0 0 1.41 -9.4077 992.28)" d="m25.029 20.619c0.64085-0.81324 1.1924-1.8052 2.2052-1.8744 0.21591-0.64774-1.8161 0.33949-2.2052 1.8744z" fill="#fff" fill-opacity=".78571" filter="url(#ak)"/>
  <path transform="matrix(1.41 0 0 1.41 -9.4077 992.28)" d="m24.62481,16.98009c.02114-1.1617.40017-1.24973.69832-1.5804-.02542-.05084-1.08183.0048-.69832,1.5804z" fill="#fff" fill-opacity=".78571" filter="url(#ad)"/>
 </g>
</svg>
