<?xml version="1.0" encoding="UTF-8"?>
<svg viewBox="0 0 523.76324 509.40536" xmlns="http://www.w3.org/2000/svg" xmlns:xlink="http://www.w3.org/1999/xlink">
 <defs>
  <linearGradient id="b">
   <stop stop-color="#e7e5e4" offset="0"/>
   <stop stop-color="#6e6666" offset="1"/>
  </linearGradient>
  <linearGradient id="d">
   <stop stop-color="#c83737" offset="0"/>
   <stop stop-color="#501616" offset="1"/>
  </linearGradient>
  <linearGradient id="c">
   <stop stop-color="#917c6f" offset="0"/>
   <stop stop-color="#483e37" offset="1"/>
  </linearGradient>
  <linearGradient id="a">
   <stop stop-color="#e3dedb" offset="0"/>
   <stop stop-color="#917c6f" offset="1"/>
  </linearGradient>
  <linearGradient id="ao" x1="318.37" x2="340.14" y1="599.18" y2="402.97" gradientUnits="userSpaceOnUse">
   <stop stop-color="#d3eff6" offset="0"/>
   <stop stop-color="#89b8c5" offset="1"/>
  </linearGradient>
  <linearGradient id="at" x1="231.92" x2="467.2" y1="635.48" y2="658" gradientUnits="userSpaceOnUse" xlink:href="#b"/>
  <linearGradient id="as" x1="312.43" x2="376.16" y1="708.64" y2="725.41" gradientUnits="userSpaceOnUse" xlink:href="#b"/>
  <linearGradient id="ar" x1="339.74" x2="400.59" y1="678.84" y2="707.59" gradientUnits="userSpaceOnUse" xlink:href="#b"/>
  <linearGradient id="aq" x1="376.64" x2="439.41" y1="652.97" y2="656.8" gradientUnits="userSpaceOnUse" xlink:href="#b"/>
  <linearGradient id="ap" x1="361.24" x2="426.47" y1="673.84" y2="667.13" gradientUnits="userSpaceOnUse" xlink:href="#b"/>
  <linearGradient id="an" x1="350.35" x2="362.61" gradientUnits="userSpaceOnUse" xlink:href="#a"/>
  <linearGradient id="am" x1="393.12" x2="412.92" gradientUnits="userSpaceOnUse" xlink:href="#a"/>
  <linearGradient id="al" x1="271.82" x2="301.4" gradientUnits="userSpaceOnUse" xlink:href="#a"/>
  <linearGradient id="ak" x1="356.73" x2="386.45" y1="557.66" y2="558" gradientUnits="userSpaceOnUse" xlink:href="#a"/>
  <linearGradient id="aj" x1="278.18" x2="304.61" y1="508.88" y2="506.84" gradientUnits="userSpaceOnUse" xlink:href="#a"/>
  <linearGradient id="ai" x1="356.18" x2="389.35" y1="511.01" y2="510.67" gradientUnits="userSpaceOnUse" xlink:href="#a"/>
  <linearGradient id="ah" x1="269.37" x2="295.46" y1="497.02" y2="496.34" gradientUnits="userSpaceOnUse" xlink:href="#c"/>
  <linearGradient id="ag" x1="342.86" x2="359.39" gradientUnits="userSpaceOnUse" xlink:href="#a"/>
  <linearGradient id="af" x1="386.27" x2="412.7" y1="357.67" y2="359.03" gradientUnits="userSpaceOnUse" xlink:href="#a"/>
  <linearGradient id="ae" x1="391.43" x2="416.13" gradientUnits="userSpaceOnUse" xlink:href="#a"/>
  <linearGradient id="ad" x1="271.28" x2="305" y1="522.24" y2="521.9" gradientUnits="userSpaceOnUse" xlink:href="#c"/>
  <linearGradient id="ac" x1="397.19" x2="416.13" y1="374.36" y2="374.02" gradientUnits="userSpaceOnUse" xlink:href="#c"/>
  <linearGradient id="ab" x1="356.82" x2="389.35" y1="520.36" y2="519.17" gradientUnits="userSpaceOnUse" xlink:href="#c"/>
  <linearGradient id="aa" x1="459.06" x2="498.18" y1="478.6" y2="479.36" gradientUnits="userSpaceOnUse" xlink:href="#a"/>
  <linearGradient id="z" x1="448.87" x2="461.1" y1="443.39" y2="443.73" gradientUnits="userSpaceOnUse" xlink:href="#a"/>
  <linearGradient id="y" x1="446.32" x2="463.29" y1="418.1" y2="418.44" gradientUnits="userSpaceOnUse" xlink:href="#a"/>
  <linearGradient id="x" x1="451.06" x2="463.29" gradientUnits="userSpaceOnUse" xlink:href="#c"/>
  <linearGradient id="w" x1="269.03" x2="297.83" y1="483.13" y2="483.46" gradientUnits="userSpaceOnUse" xlink:href="#d"/>
  <linearGradient id="v" x1="343.15" x2="361.41" gradientUnits="userSpaceOnUse" xlink:href="#d"/>
  <linearGradient id="u" x1="336.9" x2="368.99" gradientUnits="userSpaceOnUse" xlink:href="#d"/>
  <linearGradient id="t" x1="383.19" x2="420.02" gradientUnits="userSpaceOnUse" xlink:href="#d"/>
  <linearGradient id="s" x1="440.61" x2="464.94" gradientUnits="userSpaceOnUse" xlink:href="#d"/>
  <linearGradient id="r" x1="481.22" x2="508.25" gradientUnits="userSpaceOnUse" xlink:href="#c"/>
  <linearGradient id="q" x1="470.3" x2="495.71" y1="521.24" y2="522.6" gradientUnits="userSpaceOnUse" xlink:href="#a"/>
  <linearGradient id="p" x1="332.37" x2="374" gradientUnits="userSpaceOnUse" xlink:href="#a"/>
  <linearGradient id="o" x1="194.06" x2="456.18" y1="638.49" y2="630.83" gradientUnits="userSpaceOnUse" xlink:href="#b"/>
  <linearGradient id="aw" x1="383" x2="343.59" y1="500.1" y2="501.89" gradientUnits="userSpaceOnUse" xlink:href="#a"/>
  <linearGradient id="av" x1="221.53" x2="695.12" y1="343.81" y2="593.87" gradientUnits="userSpaceOnUse" xlink:href="#b"/>
  <linearGradient id="au" x1="322.66" x2="331.78" y1="270.52" y2="422.99" gradientUnits="userSpaceOnUse" xlink:href="#b"/>
 </defs>
 <g transform="translate(-100.58 -275.2)">
  <path d="m202.98 346.4c-14.408 8.6212-29.539 3.0126-53.221 13.389-32.606 14.287-42.005 74.334-46.081 87.419-12.876 41.337 18.297 172.8 21.685 180.94s12.198 24.396 16.942 34.561 23.041 27.107 68.444 30.495 283.94-14.909 294.78-8.132 48.114 4.7436 57.601-2.033 29.164-43.827 31.85-51.502c4.7436-13.553 27.107-19.652 29.14-67.089s-10.843-52.858-10.843-58.279 6.7766-13.553 10.165-38.627-31.85-67.766-38.627-80.642z" fill="url(#ao)"/>
  <path d="m196.46 350.84s-17.25 18.209-18.688 25.397 8.6252 33.063 14.375 36.418 16.053 8.6252 23.959 4.7918c-1.0941 1.2308 7.5324 12.72 14.375 9.5836 0.35079 7.6161 30.18 4.7926 34.98 4.3126 15.653 4.3126 9.4525 21.738 46.96 12.938 8.9655 0.23353 20.269-0.10108 28.751-10.542 0.31945 6.1495 22.264 12.12 31.147-0.95836-2.4196 6.6965 13.332 11.294 19.646 6.2293 6.5462 8.3866 35.208 12.553 68.523 12.938 12.219 6.3092 45.1 13.477 57.502-9.1044 4.7949 1.4366 21.02-2.7423 13.417-11.021 19.807 3.2123 12.064-5.2754 14.375-10.063-0.032 5.181 10.34 6.442 13.896 0.95836-1.1141 2.8558 5.7473 17.826 20.605 6.7085 19.03 9.3544 22.126 1.8378 20.605-5.271 0 0 12.09-3.6839 13.177-8.8648 3.7105-17.672-28.99-45.762-28.99-45.762l-55.106-26.834-67.085-2.3959-195.51 2.8751z" fill="url(#au)"/>
  <path d="m183.05 348.21c-12.12 10.089-6.2293 35.699-5.7502 39.532s10.063 16.771 10.063 16.771 9.1044 6.2293 12.459 5.7502 9.1044-4.3126 9.1044-4.3126-8.8711-7.9803-10.542-13.417c-2.0225-6.5812 1.4375-20.605 1.4375-20.605s-0.83547 12.461 1.9167 17.73c2.254 4.3152 5.3279 6.8799 11.021 9.5836 7.3404 3.486 11.055-4.1757 11.021-4.3126-5.6604-6.3737-4.1296-19.698 0.95836-22.042-0.0365-9.4571 7.3602-14.036 18.185-15.59-1.93 6.2767 0.29367 8.447 3.8575 9.8402-7.078 6.5823-4.4007 11.074-2.8751 15.813-7.3693 12.959 4.5888 27.675 12.27 24.438 4.5996 4.9061 18.23 2.7582 16.481-3.3543-1.2367-4.3199 1.7693-11.459 6.8007-13.616-1.385-1.6158 10.456-2.1106 16.2 0.19848 3.1438 1.2638 15.813-1.4375 18.209-4.3126s-4.0838-5.6138-10.542-7.6669c-5.5427-1.7621-8.5066-6.7718-5.063-10.525-4.876-4.0044-2.8296-9.1542-1.3308-10.898 3.5346-4.1131 13.666-2.961 13.581-2.5362 0 0 0.29067 3.1558 3.6449 6.51 6.2743 5.1317 9.574 0.20868 12.647-4.5933 9.55 2.3564 24.658-2.9833 26.834 9.5836-9.344 4.7918-0.95836 13.417 5.271 14.855s13.417-10.542 13.417-10.542l3.3543-7.1877s0.97761 4.7353 5.271 6.2293c5.5276 1.9235 15.36-5.9313 13.417-6.7085 6.0696-2.8235 12.139-4.3249 18.209-1.4375 0 0 3.3543 2.8751 5.271 3.3543s9.1044-7.6669 9.1044-7.6669l11.5 4.7918c14.909-8.2738 15.521-6.2224 19.646-6.7085 0 0 10.542 6.7085 15.813 2.8751s3.8264-7.5726 7.1055-10.029c3.4495-2.5837 9.806-8.8821 12.226-4.2063 1.7077 3.2993 3.6808 6.2004 8.94 4.1723 0 0 11.021-6.2293 15.334-4.7918s23.001 11.021 24.438 13.417 9.5836 12.938 9.5836 12.938 25.397 5.7502 29.23 7.6669 21.084 10.063 21.084 10.063 2.8751-17.73-6.2293-24.438-43.605-12.938-43.605-12.938-23.48-14.375-29.709-15.334-13.896 0.47918-13.896 0.47918-11.264-7.4393-17.73-8.1461c-12.021-1.314-35.459 7.6669-35.459 7.6669s-10.031-4.8819-16.771-5.271-18.688 5.7502-22.521 4.3126-42.168-14.855-54.147-12.938-51.751-14.855-57.022-14.855-22.98 0.0284-34.261 1.9167c-13.016 2.1786-26.456 4.5613-38.095 10.782-8.1441 4.3524-16.771 15.573-21.084 17.969s-15.162 0.82731-28.272 11.74z" fill="url(#av)"/>
 </g>
 <g transform="translate(-100.58 -275.2)">
  <path id="k" d="m282.39 420.34h1.7523v23.817h-1.7523z" fill="#784421"/>
  <path id="n" d="m282.45 420.8-10.063-2.3959s0.82623-3.0314-0.83856-3.2345c-3.2653-0.3982-8.3563 1.6442-12.339 4.672-4.6757 3.5548-17.25 3.5938-17.25 3.5938s11.482 1.3058 17.25 1.4375c3.196 0.073 8.9846-2.7553 9.5836-0.35939 0 0-0.71877 1.0782-0.47918 2.0365s14.375 3.3543 14.375 3.3543z" fill="#fea"/>
  <path id="m" d="m256.36 423.15c8.979-4.4048 8.8096-6.7766 15.586-6.4378 1.3553 0 0.16942 3.0495 0.16942 3.0495l9.4873 2.3718 0.33884 6.2684c-4.2072-0.95183-8.9226-0.68725-13.13-3.6424 0 0 1.9483-2.4565-0.42354-2.4565s-6.4378 0.16941-12.029 0.84708z" fill="#3771c8"/>
  <use id="i" transform="translate(69.96 -104.94)" width="744.09448" height="1052.3622" xlink:href="#k"/>
  <use id="f" transform="translate(69.96 -104.94)" width="744.09448" height="1052.3622" xlink:href="#n"/>
  <use id="e" transform="translate(69.96 -104.94)" width="744.09448" height="1052.3622" xlink:href="#m"/>
  <use id="h" width="744.09448" height="1052.3622" xlink:href="#f"/>
  <use id="g" width="744.09448" height="1052.3622" xlink:href="#e"/>
  <use transform="translate(48.637 -34.98)" width="744.09448" height="1052.3622" xlink:href="#i"/>
  <use transform="translate(48.637 -34.98)" width="744.09448" height="1052.3622" xlink:href="#f"/>
  <use transform="translate(48.637 -34.98)" width="744.09448" height="1052.3622" xlink:href="#e"/>
  <use transform="translate(48.637 -34.98)" width="744.09448" height="1052.3622" xlink:href="#h"/>
  <use transform="translate(48.637 -34.98)" width="744.09448" height="1052.3622" xlink:href="#g"/>
  <use transform="translate(100.39 43.605)" width="744.09448" height="1052.3622" xlink:href="#i"/>
  <use transform="translate(100.39 43.605)" width="744.09448" height="1052.3622" xlink:href="#f"/>
  <use transform="translate(100.39 43.605)" width="744.09448" height="1052.3622" xlink:href="#e"/>
  <use transform="translate(100.39 43.605)" width="744.09448" height="1052.3622" xlink:href="#h"/>
  <use transform="translate(100.39 43.605)" width="744.09448" height="1052.3622" xlink:href="#g"/>
  <path d="m400.03 298.19a2.5807 2.5807 0 0 0 -2.4062 1.9375l-9.0938 34.469-7.6875 16.188a2.5807 2.5807 0 0 0 3.0938 3.5625c-0.3724 0.11297 0.58718-0.0762 1.6562-0.15625 0.37759-0.0283 1.0056-0.0354 1.4688-0.0625v7.8438c-0.64432 0.0399-1.2772 0.07-1.9375 0.125a2.5807 2.5807 0 0 0 -2.375 2.5625v7.5312a2.5807 2.5807 0 0 0 1.25 2.2188l2.4688 2.625v19.781l-16.219-0.21875a2.5807 2.5807 0 0 0 1.0312 -3.4688l-9-16.938a2.5807 2.5807 0 0 0 -0.28125 -0.40625v-2.1875a2.5807 2.5807 0 0 0 1.9375 -3.0312l-7.4375-35.531a2.5807 2.5807 0 0 0 -2.7812 -2.0312l-1.625 0.15625a2.5807 2.5807 0 0 0 -2.25 1.9062l-9.1875 35.375a2.5807 2.5807 0 0 0 2.3438 3.25v2.0938a2.5807 2.5807 0 0 0 -0.34375 0.53125l-8.0938 17.281a2.5807 2.5807 0 0 0 2.3125 3.6875c1.4945 0.0233 2.9382 0.0211 4.4062 0.0312v73.719l-8.0625 1.375a2.5807 2.5807 0 0 0 -2.0312 1.7812l-2.3125 7.5625-13.406 1.375a2.5807 2.5807 0 0 0 -2.1875 1.8125l-1.4062 4.5938-12.469-16.312-11.375-33.375a2.5807 2.5807 0 0 0 -2.3125 -1.7188l-4.7812-0.25a2.5807 2.5807 0 0 0 -2.5312 1.625l-13.5 34.375-14.062 17.625a2.5807 2.5807 0 0 0 0.4375 3.625c0.93685 0.73562 1.4598 0.73432 2.125 0.875s1.4071 0.22194 2.2812 0.3125c0.49135 0.0509 1.2782 0.0831 1.8438 0.125a2.5807 2.5807 0 0 0 -1.8438 2.5312l0.46875 18.219a2.5807 2.5807 0 0 0 0.46875 1.4062l6.6875 9.5625-1.75 55.906-22.312 18.031-9.1875 4.375-1.1875 0.0937a2.5807 2.5807 0 0 0 -2.0312 1.25l-4.3125 7.1876a2.5807 2.5807 0 0 0 0.28125 3l2.125 2.4375-3.375 5.5938a2.5807 2.5807 0 0 0 -0.1875 0.40625l-37.875 101.56a2.5807 2.5807 0 0 0 0.0625 1.9688l10.188 22.688c-0.24118 0.70595-0.61772 1.6208-0.96875 3.6875-0.46131 2.7159-0.75606 6.1766 0.96875 9.2812 0.509 0.91619 1.1662 1.3848 1.875 1.7812l0.375 0.875a2.5807 2.5807 0 0 0 4.1875 0.8125c5.538 1.4979 13.809 2.4904 22.375 3.25 9.7922 0.86829 19.478 1.3438 24.219 1.3438 5.7503 0 17.38-1.9251 28.25-3.875 9.8281-1.7629 17.291-3.2827 19.75-3.7812 0.50277 1.2971 0.94409 2.5 1.9688 4.5625 1.4866 2.9924 3.2675 6.2116 5.9375 8.2812 6.0043 4.6542 13.877 5.4978 20.656 5.7188 5.4792 0.17856 12.718-1.3674 18.781-2.875 5.7661-1.4337 9.9018-2.7341 10.344-2.875l29.938 2.9062 0.21875 0.0312v-0.0312c3.6079 0.59002 6.9526-0.88644 8.7812-3.5312 1.4501-2.0973 2.0953-4.7693 2.4688-7.6562 5.3797 0.23677 11.081 0.26202 15.5-0.8125 4.5166-1.0984 9.3279-4.4858 11.219-5.8125 2.3231 0.30171 4.4622 0.52903 6.5 0.71875a2.5807 2.5807 0 0 0 1.25 1.125s2.3878 1.003 5.1562 1.7812c1.3842 0.3891 2.8711 0.76145 4.3438 0.875s3.0741 0.14696 4.625-1.0938c1.7441-1.3952 1.7168-3.0592 1.7812-4.5625s-0.0731-3.1025-0.1875-4.6562-0.19691-3.055-0.15625-4.1562c0.0329-0.89065 0.1377-1.0761 0.0625-1.0625l0.375-0.15625c3.5102-0.84973 13.64-2.73 18.688-3.6562 4.6986 2.4622 9.4175 4.701 13.656 6.1875 4.4921 1.5753 8.3843 2.5624 11.875 1.5 7.2252-2.199 12.672-8.1656 16.25-12.875 2.6624-0.33995 5.5708 0.24927 8.3438 1.0625 1.5029 0.44076 2.9421 0.90881 4.4062 1.1562s3.1651 0.36912 4.75-0.6875c1.5428-1.0285 2.3012-2.3647 3.3125-4s2.0185-3.5397 2.9375-5.375c1.838-3.6706 3.3125-7.0625 3.3125-7.0625a2.5807 2.5807 0 0 0 0.0625 -1.8438l-24.781-74.812c0.0233-0.47187 0.46505-9.5776 0.9375-19.562 0.24227-5.1202 0.50561-10.341 0.6875-14.5s0.3125-7.1005 0.3125-8.1875c0-1.2808-0.32693-1.9644-0.71875-3.1875s-0.92291-2.7289-1.5625-4.4062c-1.2792-3.3546-2.9703-7.4369-4.6562-11.438-3.1635-7.5066-5.9652-13.773-6.3438-14.625l9.7812-30.281a2.5807 2.5807 0 0 0 0.0625 -1.3438s-0.86939-3.6215-2.5938-7.1875c-0.12404-2.0725-0.25-3.9375-0.25-3.9375a2.5807 2.5807 0 0 0 -2.8438 -2.375l1-27.5 9.1562-9.7812a2.5807 2.5807 0 0 0 0.71875 -1.75v-24.406a2.5807 2.5807 0 0 0 -2.3125 -2.5625c-1.4114-0.14846-2.7285-0.25628-4-0.375a2.5807 2.5807 0 0 0 -0.84375 0.0625l-2.6875 0.625a2.5807 2.5807 0 0 0 -0.625 0.25 2.5807 2.5807 0 0 0 -2.1562 -1.4688c-3.8401-0.27294-7.2713-0.4654-10.375-0.53125a2.5807 2.5807 0 0 0 -1.4375 0.40625l-1.4062 0.875a2.5807 2.5807 0 0 0 -1.1875 2.375l0.21875 2.9375h-0.875l-0.0625-4.0312a2.5807 2.5807 0 0 0 -2.6562 -2.5312c-2.1131 0.0549-3.9392 0.21859-5.7812 0.34375l-5.5-13.406a2.5807 2.5807 0 0 0 -1.5625 -1.4688l-3.25-1.0625a2.5807 2.5807 0 0 0 -0.65625 -0.15625v-22.594l1.0625-1.2188a2.5807 2.5807 0 0 0 1.125 -2.125v-5.0312a2.5807 2.5807 0 0 0 1.5625 -3.0625l-9.9062-35.531a2.5807 2.5807 0 0 0 -2.6875 -1.875l-2.1562 0.15625a2.5807 2.5807 0 0 0 -2.25 1.7188l-12.281 35.375a2.5807 2.5807 0 0 0 1.5 3.25v5a2.5807 2.5807 0 0 0 1.2812 2.2188l1.2812 1.25v1.875l-1.7812-0.5625a2.5807 2.5807 0 0 0 -1.3125 -0.0625l-2.7812 0.59375a2.5807 2.5807 0 0 0 -1.6875 1.2188l-19.156-6.6875v-45.156l2.125-2.625a2.5807 2.5807 0 0 0 1.0938 -2.0938v-7.5312a2.5807 2.5807 0 0 0 -2.3438 -2.5625c-0.37829-0.0371-0.72551-0.0625-1.0938-0.0937v-7.75c1.5254 0.18007 3.6122 0.37399 3.875 0.46875a2.5807 2.5807 0 0 0 3.1562 -3.625l-8.8125-17.125-7.625-33.531a2.5807 2.5807 0 0 0 -2.3438 -2l-3.2188-0.21875a2.5807 2.5807 0 0 0 -0.28125 -0.0312zm-23.812 123.81c3.6454-0.0288 6.9502 1.3266 10.25 3.4375v21.219l-1.4688 4.25-4.75-0.8125-0.53125-1.2812a2.5807 2.5807 0 0 0 -1.5625 -1.4375l-3.25-1.0625a2.5807 2.5807 0 0 0 -1.3438 -0.0937l-2.7812 0.59375a2.5807 2.5807 0 0 0 -1.875 1.625l-4.0312 10.656v-33.25c4.3104-2.6998 8.0443-3.8177 11.344-3.8438zm-65.875 72.594-2.75 9v-5.875a2.5807 2.5807 0 0 0 -1.625 -2.4062c1.7454-0.19144 3.1936-0.43499 4.375-0.71875z"/>
  <path d="m387.65 507.04 19.088-51.698 2.7837-0.59651 20.058 51.218-4.3503 0.67887-17.299-44.738-15.907 45.931z" fill="#e9c6af"/>
  <path d="m409.52 454.75 3.2744 1.0663 20.668 50.475-3.884-0.32374z" fill="#784421"/>
  <path d="m354.86 501.28 17.716-47.523 21.371 45.273v26.995h-40.211z" fill="#e3dedb"/>
  <path d="m357.13 402.82h38.627l1.0165 27.784c-10.981-11.087-23.008-18.341-42.015 0z" fill="#c8beb7"/>
  <path d="m345.6 366.57h13.793v17.619h-13.793z" fill="url(#ag)"/>
  <path d="m343.88 391.8h18.408v98.601h-18.408z" fill="url(#an)"/>
  <path d="m389.07 374.77h23.85v99.341h-23.85z" fill="url(#am)"/>
  <path d="m385.33 372.03 3.7387 3.9873c8.196-0.56837 16.809-0.34842 23.85 0l3.2083-3.9873c-9.6795-2.0518-19.842-2.4143-30.797 0z" fill="url(#ac)"/>
  <path d="m376.52 452.07 32.197 5.4834 17.856 42.461-30.369-0.5624z" fill="#501616"/>
  <path d="m389.66 349.63h23.041v18.805h-23.041z" fill="url(#af)"/>
  <path d="m375.53 457.69-13.45 35.7-3.3377 0.42336 13.751-37.905z" fill="#784421"/>
  <path d="m444.81 422.64h16.292v42.18h-16.292z" fill="url(#z)"/>
  <path d="m442.25 413.69h21.038v8.5444h-21.038z" fill="url(#y)"/>
  <path d="m442.25 422.08 2.5539 2.5533c5.1419 0.2888 10.512 0.34891 16.292 0l2.1916-2.5533z" fill="url(#x)"/>
  <path d="m481.22 502.87 0.94054-17.034 26.09 6.4378l-9.8261 10.504" fill="url(#r)"/>
  <path d="m498.42 502.78-1.3553 36.933-17.958 1.3553 2.1089-38.195" fill="url(#q)"/>
  <path d="m504.28 467.5-2.6996 0.62198-0.11979 8.0263 4.5522 0.35939z" fill="#c8beb7"/>
  <path d="m487.78 466.47-1.4136 0.87456 0.53908 6.8283 2.9949 0.35938z" fill="#c8beb7"/>
  <path d="m487.78 466.47 0.46875 6.5-7.625 0.15625-0.125-6.625c-7.1242 0.1851-12.503 0.83979-18.344 1.375v24.406c12.731-0.29977 6.5791-1.9854 46.094 0v-24.406c-1.3779-0.14494-2.6816-0.25482-3.9688-0.375l-0.28125 6.8125-6.0938-0.34375 0.125-7c-3.8058-0.2705-7.1986-0.43526-10.25-0.5z" fill="url(#aa)"/>
  <path d="m417.61 458.06h5.6304v7.0679h-5.6304z" fill="#917c6f"/>
  <path d="m356.53 488.35 14.776-39 2.7837-0.59651 20.058 51.218-4.3503 0.67887-17.299-44.738-13.751 37.905z" fill="#e9c6af"/>
  <path d="m229.05 609.12-4.3126 7.1877 3.3543 3.8334-4.3126 7.1877-37.855 101.59 10.542 23.48s-2.8751 7.6669-0.47918 11.98 40.251 6.7085 50.793 6.7085 50.314-8.1461 50.314-8.1461c55.97 12.665 121.88-9.5813 143.75-11.5 0 0 13.896-6.2293 18.209-6.7085 25.879 6.4024 34.996-4.3534 44.564-3.3543 7.1877-1.4375 14.375 3.8334 17.25 1.9167s8.6252-15.334 8.6252-15.334l-24.917-75.231s1.9167-39.293 1.9167-42.647-13.417-33.543-13.417-33.543l10.063-31.147s-2.3959-10.542-7.1877-11.98-14.855-4.3126-14.855-4.3126l-169.15 42.168-54.147 23.001-21.563 14.375z" fill="url(#at)"/>
  <path d="m267.86 582.29-27.313 22.042-11.98 5.7502 9.1044 0.47918s19.167-7.5647 24.438-5.648 19.646-3.9356 19.646-3.9356l-7.6669 13.896 6.7085 1.4375 13.136-12.308s8.4268 2.2456 16.573 0.80804 31.147-12.938 34.501-13.417 20.6 2.8277 24.917 2.3959c14.375-1.4375 17.25-9.1044 17.25-9.1044l-42.647-34.98-52.231 6.7085z" fill="#f2f2f2"/>
  <path d="m293.43 520.4 24.396-4.066-0.67767 24.057-26.768 2.7107z" fill="#6c5d53"/>
  <path d="m310.37 515.99h26.768v45.742l-26.768 1.3553z" fill="#c8beb7"/>
  <path d="m301.9 585.11 11.52-7.1155v-42.693l-15.247 3.3883z" fill="#6c5d53"/>
  <path d="m265.94 527.42-1.9167 60.856c7.1864 3.2759 27.375 2.5634 37.376 0l-2.8751-61.335z" fill="url(#al)"/>
  <path d="m258.28 498.91c15.303-2.5309 30.781-3.118 46.72-1.198l-20.605 12.698z" fill="#e3dedb"/>
  <path d="m417.78 481.77 19.088-51.698 2.7837-0.59651 20.058 51.218-4.3503 0.67887-17.299-44.738-15.907 45.931z" fill="#e9c6af"/>
  <path d="m374.08 448.75 3.2744 1.0663 20.668 50.475-3.884-0.32374z" fill="#784421"/>
  <path d="m439.65 429.47 3.2744 1.0663 20.668 50.475-3.884-0.32374z" fill="#784421"/>
  <path d="m390.27 459.41 9.8728-36.936 18.267 35.832 1.5466 36.556-29.827 1.3852z" fill="#e3dedb"/>
  <path d="m400.06 424.62-13.198 37.932h3.3125l12.917-36.151z" fill="#784421"/>
  <path d="m401.66 417.47-2.7812 0.59375-14.528 42.912 2.5173 1.5824 13.537-37.932 13.625 35.25 4.0855-1.7483z" fill="#e9c6af"/>
  <path d="m404.08 420.79 35.853 12.513 14.201 35.431-30.369-0.5624z" fill="#501616"/>
  <path d="m401.66 417.47 16.456 40.658 3.5625 0.5624-16.737-40.158z" fill="#784421"/>
  <path d="m441.65 503.04 19.088-51.698 2.7837-0.59651 20.058 51.218-4.3503 0.67887-17.299-44.738-15.907 45.931z" fill="#e9c6af"/>
  <path d="m463.52 450.75 3.2744 1.0663 20.668 50.475-3.884-0.32374z" fill="#784421"/>
  <path d="m408.86 497.28 17.716-47.523 21.371 45.273v26.995h-40.211z" fill="#e3dedb"/>
  <path d="m399.02 537.21 20.129-7.7866v-29.428l-21.09 0.3872z" fill="#917c6f"/>
  <path d="m430.52 448.07 32.197 5.4834 17.856 42.461-30.369-0.5624z" fill="#501616"/>
  <path d="m383.52 466.26 22.909 2.5128 15.068 32.459-21.045 2.9238z" fill="#501616"/>
  <path d="m429.53 453.69-13.45 35.7-3.3377 0.42336 13.751-37.905z" fill="#784421"/>
  <path d="m414.03 459.88 4.0855-1.7483 3.5625 0.5624-3.8952 1.6499z" fill="#784421"/>
  <path d="m410.53 484.35 14.776-39 2.7837-0.59651 20.058 51.218-4.3503 0.67887-17.299-44.738-13.751 37.905z" fill="#e9c6af"/>
  <path d="m428.08 444.75 3.2744 1.0663 20.668 50.475-3.884-0.32374z" fill="#784421"/>
  <path d="m315.75 485.68 23.065-2.386-10.737 34.2-22.27 0.79535z" fill="#a02c2c"/>
  <path d="m327.65 502.78h35.577v35.916h-35.577z" fill="#e3dedb"/>
  <path d="m333.65 474.94 27.869-4.8057-10.737 34.2-26.676 1.6243z" fill="#c83737"/>
  <path d="m367.25 463.06 2.1902 0.64107 1.5907 3.2808-2.5309-0.54689z" fill="#784421"/>
  <path d="m363.87 468.31 17.997-0.84359 17.153 38.805v30.932h-51.178v-33.744z" fill="#e3dedb"/>
  <path d="m380.77 470.56-14.217 1.2924-15.72 34.2-2.0873-0.0872 16.719-35.062 13.125-1.125z" fill="#784421"/>
  <path d="m378.69 462.25-1.5938 3.3438-8.5938 0.84375-1.25-3.375h-3.0938l-21.75 43.281 6.3438-0.375 16.719-35.062 13.125-1.125 15.906 36.977 6.3438-0.41482-19.062-44.094z" fill="#e9c6af"/>
  <path d="m381.78 462.25 2.969 0.43834 18.981 43.094-2.8874 0.5617z" fill="#784421"/>
  <path d="m262.35 490.04h38.814v15.094h-38.814z" fill="url(#ah)"/>
  <path d="m280.8 440.45 4.7918 0.23959 11.5 33.782 13.417 17.49c-7.3078 2.1686-54.911 3.2751-57.63 1.1398l14.264-17.911z" fill="url(#w)"/>
  <path d="m274.48 494.01c-1.3197-1e-3 -2.1463 0.86158-2.1463 2.0559v7.0714h4.2699v-7.0714c0.10489-1.1193-0.75263-2.0547-2.1237-2.0559z"/>
  <path d="m258.28 498.91 0.47918 18.209 7.1877 10.302c8.2482 2.8992 24.101 1.5219 32.584-0.47918l6.4689-10.186v-19.044c-2.8616 1.919-43.881 3.1885-46.72 1.198z" fill="url(#aj)"/>
  <path d="m305.24 516.64c-18.974 2.6797-37.147 2.362-46.49 0.48953l7.1875 10.281c8.2482 2.8992 24.11 1.5323 32.594-0.46875z" fill="url(#ad)"/>
  <path d="m337.16 526.94 3.8776 0.4054 0.67767 7.1155-4.2427-1.0209z" fill="#917c6f"/>
  <path d="m354.34 526.22-9.9688 0.40625 0.71875 6.8125h-7.625l-0.3125-6.5-40.531 1.6875-0.25 15.812 33.062-1.6875 1.9062 42.656h22.281l0.71875-59.188z" fill="url(#p)"/>
  <use id="j" transform="translate(4.6777 -.16942)" width="744.09448" height="1052.3622" xlink:href="#l"/>
  <use transform="translate(4.6777 -.16942)" width="744.09448" height="1052.3622" xlink:href="#j"/>
  <path d="m303.42 555.8 19.313 0.10312v2.2687l-19.652-0.10313z" fill="#241f1c"/>
  <path id="l" d="m307.15 544.96v16.433l0.84708 2.7106 1.0165-2.5412v-17.28z" fill="#241f1c"/>
  <path d="m300.71 589.8 4.4094-2.1472-0.16942-32.02c-0.0335-6.3244 4.066-9.4873 7.7931-9.6567 6.7766-1.0165-13.892-1.5248-13.892-1.5248z" fill="#917c6f"/>
  <path d="m323.94 538.44-28.031 0.46875-0.97916 50.802 5.7812 0.0937 0.22916-31.708c0.0648-4.3716 1.4373-11.76 9.3438-12s10.031 7.9104 10.062 12.469l0.42709 31.583 4.125 0.0625z" fill="#e3dedb"/>
  <path d="m334.43 585.11-2.033-63.7-3.2189-0.16941-5.2372 17.194 0.95834 51.771z" fill="#917c6f"/>
  <path d="m295.91 538.91 28.031-0.46875 5.2372-17.194-25.243 1.5247z" fill="#c83737"/>
  <path d="m347.13 497.95c13.892-0.72002 31.808-0.84708 36.636-0.33883l-0.12706 2.0753-35.923-0.77953z" fill="#e3dedb"/>
  <path d="m374.15625,494.8125-.0312,3.59375c-1.41347-.0467-2.83187-.0727-4.25-.0937l.0312-3.5c-1.37691.008-2.69764.0116-4.09375.0312l-.0312,3.4375c-1.16477.002-2.33236.0134-3.5.0312l.0312-3.4375c-1.26952.0267-2.5866-.005-3.8125.0312l.0312,3.5c-1.26982.0369-2.53958.071-3.8125.125l.0312-3.59375c-1.41268.0565-2.81992.0865-4.0625.15625l-.0624,3.65635c-.9701.0543-1.93452.093-2.90625.15625l.0937-3.65625c-2.56505.19332-4.45154.0791-5.1875.34375l1.96875,12.6875 43.90625.125 .8438-13.40625c-.1813-.33239-2.98375-.0756-7.125-.20043v4.04418c-1.45731-.10278-2.91225-.2084-4.375-.28125v-3.75c-1.22637-.0161-2.35933.004-3.6875,0z" fill="url(#aw)"/>
  <path d="m483.12 491.5-2.3232 0.2656-0.23307 4.2448-8.2377 0.75297-1.7372-5.4196-2.1593 0.25243 0.33883 4.7436-7.8778 0.59296-1.3329-5.7453-2.1401 0.15456v5.5907l-7.2232-1.4848-2.6055-4.448-2.3693 0.25735 0.1777 4.7964-6.4461 0.96371-2.5499-4.9237-3.4644 0.0954 0.50824 6.5225-3.3036 2.2871 1.0723-5.1238-4.3759-0.21284-5.3514 5.5705 0.69243 7.305-2.9648 2.3718 1.5308-4.7846-4.9191-0.72144-3.8966 3.8966 1.0165 7.3696-3.3036 2.7954 1.3216-3.3401-5.4722-1.1494-4.1507 2.7106 0.50824 6.4378-2.4565 1.1012 1.3525-2.6627-5.1643-1.4033-4.5742 1.7789 0.50825 6.3531-3.0495 1.5247 1.4048-4.2847-3.6072-1.306-5.9296 1.9483 0.93179 13.299 102.75-14.824 1.1012-32.02z" fill="#e3dedb"/>
  <path d="m346.99 499.99c11.81 2.5855 32.309 2.015 37.885 0.38936l1.4724 0.56072c-15.051 3.8546-28.769 3.4548-41.344-0.59377z" fill="#e3dedb"/>
  <path d="m440.16 490.91c-1.0936-0.015-2.3588 0.42507-3.75 1.1875l0.53125 6.9688-5.4375 3.375-0.28125-6.5625c-1.7357 1.4878-3.549 3.2069-5.4062 5.0625l0.4375 7.7812-5.25 3.5312-0.25-6.125c-1.6029 1.6821-3.2029 3.362-4.75 4.9688l0.25 6.5938-5.0625 3.2188-0.21875-4.7812c-1.8289 1.7295-3.53 3.2146-5 4.1875l0.28125 5.8438-5.25 2.2188-0.25-5.8125-5.6562 2.0625 0.3125 6.4375-5.25 2.2188-0.28125-6.75-11.062 4.0312 2.375 55.562s27.793-13.534 32.875-15.906 12.182-14.569 18.281-19.312 20.344-6.4375 20.344-6.4375l34.906-9.8438 2.0312-43.031-6.5-0.0937 0.21875 3.5h-5.75l-0.0625-3.5625-6.9375-0.0937 0.21875 3.3125h-5.7812l-0.0625-3.4062-5.4062-0.0625 0.21875 3.4688h-5.75l-0.0625-3.5625-6.375-0.0937 0.1875 3.8125-5.5938 0.5-0.0937-4.375-1.9375-0.0312z" fill="#ac9d93"/>
  <path d="m350.3 524.7-1.6935 62.862c-0.4323 6.3521 38.34 5.6783 37.838-2.851l-3.5605-60.49z" fill="url(#ak)"/>
  <path d="m350.12 494.53-0.11214 3.291 0.61214 0.92779 0.0624-3.6564z" fill="#c8beb7"/>
  <path d="m389.34375,495c-.37859.25388-1.4624.48059-3,.6875v5.25l-3.46875.71875v-5.625c-1.80491.15039-3.86664.26739-6.125.375l.11979,5.86459-3.58854.22916v-5.9375c-2.21581.0783-4.52572.15097-6.84375.1875v5.5h-3.46875v-5.5c-2.34354.0143-4.64677.0343-6.8125,0l-.11979,5.38021-3.72396-.34896 .21875-5.125c-1.42459-.0464-2.74895-.11308-3.9375-.1875v4.71875l-3.59375-.84375 .0625-4.15625c-1.22082-.1607-2.11095-.36477-2.4375-.59375l.46875,18.8125 7.21875,10.28125c8.24822,2.8992 24.07922,1.53233 32.5625-.46875l6.25-11.03125z" fill="url(#ai)"/>
  <path d="m389.11 513.2c-15.038 5.3203-36.137 3.2354-46.01 1.2083l7.1875 10.281c8.2482 2.8992 24.11 1.5323 32.594-0.46875z" fill="url(#ab)"/>
  <path d="m408.15 356.25c-1.1608-1e-3 -1.8878 0.86158-1.8878 2.0559v7.0714h3.7558v-7.0714c0.0923-1.1193-0.662-2.0547-1.8679-2.0559z"/>
  <path d="m385.33 364.67c9.4758-0.78993 19.417-1.1149 30.797 0v7.532c-9.5899-0.28358-21.233-0.46777-30.797 0z" fill="url(#ae)"/>
  <path d="m345 377.41-8.096 17.28c11.273 0.17598 22.087 0.12292 32.084-0.33883l-8.9956-16.942z" fill="url(#u)"/>
  <path d="m362.38 399.1 26.598 0.33883 1.5247 5.0825h-29.817z" fill="#782121"/>
  <path d="m500.26 533.89-15.334 5.7502s13.896 2.3959 13.896 4.7918-4.7918 4.7918-4.7918 4.7918-8.6252-4.7918-18.209-1.4375-14.375 6.7085-14.375 6.7085-1.4375-5.271-11.021-0.95836-23.001 11.5-22.521 14.855 23.959 8.6252 23.959 8.6252l-14.855 153.34s39.772 27.313 50.793 23.959 19.167-18.209 19.167-18.209-6.7085-115.48-6.7085-119.8-12.459-35.938-11.5-39.293 11.5-25.397 11.98-27.313-0.47918-15.813-0.47918-15.813z" fill="url(#o)"/>
  <path d="m383.34 680.52s0-61.814 2.8751-65.168 8.8648-35.699 15.573-37.136 19.167-17.25 21.084-12.459c0 0 3.9488 14.384 9.1721 25.24 3.6654 7.618 9.5283 15.755 10.714 18.126 2.8751 5.7502 9.5836 73.315 11.5 81.94s9.5836 55.106 9.5836 55.106-22.521 1.4375-24.438 3.8334 3.3543 12.459-6.7085 12.459-38.334-5.271-38.334-5.271z" fill="url(#aq)"/>
  <path d="m363.7 681.48 13.417-21.084 14.855 11.021 13.896 50.314 14.603 39.218s-7.4151 5.2555-11.728 6.3042c-9.6239 2.3404-29.709-0.47918-29.709-0.47918z" fill="url(#ar)"/>
  <path d="m296.13 762.46s9.5836-30.188 13.417-36.418 13.896-34.022 15.334-40.73 8.1461-41.689 9.1044-44.085 13.896 1.4375 13.896 1.4375l12.459 9.1044 7.6669 26.834 14.375 31.626 9.1044 50.314c0.95836 11.021-0.95836 20.126-8.6252 18.688l-30.656-3.0123s-18.996 6.1035-28.775 5.7849c-6.6098-0.21539-13.928-1.1169-19.155-5.1684-4.353-3.3742-8.1461-14.375-8.1461-14.375z" fill="url(#as)"/>
  <path d="m424.79 599.78c1.4521-2.995-5.0314-4.073-7.4273-2.6355s-5.7502 12.938-7.1877 15.334-1.4375 40.251 0.47918 46.001 8.6252 60.377 11.98 65.648 6.7085 39.293 6.7085 39.293 9.1044 3.8334 11.5 1.9167-1.4375-13.896 1.9167-14.855 24.438-4.7918 24.438-4.7918-18.209-115-19.167-119.32-8.6252-13.417-10.542-11.021-15.334 15.334-16.292 18.209-5.7502-2.8751-5.7502-5.7502 6.9558-23.106 9.344-28.032z" fill="url(#ap)"/>
  <path d="m241.99 630.68s-6.2293 18.688-8.1461 23.001-13.417 11.98-13.417 11.98l-21.084 78.586-3.8334 16.292 2.8751 6.7085 24.438-99.19c12.739-3.3489 16.032 0.0487 20.126 2.8751 0 0 6.2293-3.8334 5.7502-6.7085s-8.1461-5.7502-8.1461-5.7502l6.2293-27.313 9.5836-6.7085z" fill="#f1f0ef"/>
  <path d="m343.15 371.1 9.195-35.37 1.6174-0.16941 7.4458 35.54c-7.4311-0.44835-12.653-0.16035-18.258 0z" fill="url(#v)"/>
  <path d="m400.13 300.77 3.2089 0.23959 7.7013 33.782 8.9848 17.49c-4.9665-1.7912-34.371-1.1628-36.828-0.41751l7.7872-16.354z" fill="url(#t)"/>
  <path d="m440.61 414.81 12.255-35.37 2.1555-0.16941 9.9234 35.54c-7.3679-0.55749-15.696-0.39492-24.334 0z" fill="url(#s)"/>
  <path d="m436.41 492.09-3.4688 0.0937 0.5 6.5312 3.5 0.34375-0.53125-6.9688zm-10.594 8.8438-4.3125 0.28125 0.6875 7.3125 4.0625 0.1875-0.4375-7.7812zm-13.875 8.375 1 7.3438 3.3125 1.0312-0.25-6.5938-4.0625-1.7812zm-10.594 8.375 0.5 6.4375 4.4062 2.0312-0.28125-5.8438-4.625-2.625zm-10.344 5.25 0.53125 6.3438 3.875 1.7812-0.3125-6.4375-4.0938-1.6875z" fill="#c8beb7"/>
  <path d="m375.21 406.32c-0.93864-1e-3 -1.5265 0.6128-1.5265 1.4622v5.0295h3.037v-5.0295c0.0746-0.7961-0.53531-1.4614-1.5105-1.4622z"/>
  <path d="m367.3 407.28c-0.93864-1e-3 -1.5265 0.6128-1.5265 1.4622v5.0295h3.037v-5.0295c0.0746-0.7961-0.53531-1.4614-1.5105-1.4622z"/>
  <path d="m382.88 407.04c-0.93864-1e-3 -1.5265 0.6128-1.5265 1.4622v5.0295h3.037v-5.0295c0.0746-0.7961-0.53531-1.4614-1.5105-1.4622z"/>
  <path d="m402.28 442.74c-0.93864 0.1468-1.5265 0.85317-1.5265 1.7026v5.0295l3.037-0.47821v-5.0295c0.0746-0.80785-0.53531-1.3771-1.5105-1.2244z"/>
  <path d="m367.78 479.03c-0.93864 0.0729-1.5265 0.73298-1.5265 1.5824v5.0295l3.037-0.2391v-5.0295c0.0746-0.80197-0.53531-1.4193-1.5105-1.3433z"/>
  <path d="m375.33 478.32c-0.93864 0.0729-1.5265 0.73298-1.5265 1.5824v5.0295l3.037-0.2391v-5.0295c0.0746-0.80197-0.53531-1.4193-1.5105-1.3433z"/>
  <path d="m429 471.61c-0.93864 0.0729-1.5265 0.73298-1.5265 1.5824v5.0295l3.037-0.2391v-5.0295c0.0746-0.80197-0.53531-1.4193-1.5105-1.3433z"/>
  <path d="m402.04 383.56c-0.93864-1e-3 -1.5265 0.6128-1.5265 1.4622v5.0295h3.037v-5.0295c0.0746-0.7961-0.53531-1.4614-1.5105-1.4622z"/>
  <path d="m347.18 406.56c-0.93864 0.0729-1.5265 0.73299-1.5265 1.5824v5.0295l3.037-0.23911v-5.0295c0.0746-0.80198-0.53531-1.4192-1.5105-1.3433z"/>
  <path d="m345.06 496.19 1.9237-0.0934v3.8933l-1.9862 0.3563z" fill="#917c6f"/>
  <path d="m352.53 496.66 1.4688-0.625-0.21547 5.0044-1.4721 0.7456z" fill="#917c6f"/>
  <path d="m386.34 495.69-1.4424 0.0173-0.0299 4.672 1.4724 0.56072z" fill="#c8beb7"/>
  <path d="m376.75,496.40625-.6536-.13245 .14974,5.27098 .62365.72606z" fill="#c8beb7"/>
  <path d="m374.125,494.21875 .0312.59375h3.6875l-.0625-.59375h-2.59375-1.0625zm7.46875,0-.0625.625c2.15893.0209 5.22028-.0274 5.5.3125-.90634.0966-1.21717.47986-2.125.5625l1.28125.15625c1.94371-.25997 3.15625-.55426 3.15625-.875 0-.52625-3.02558-.72645-7.75-.78125zm-15.8125.0312 .0312.59375h.28125c1.27179-.003 2.54211-.0245 3.8125-.0312l.0625-.5625c-1.31092.006-2.50068,0-3.875,0h-.3125zm-3.625.0312-3.65625.0312v.59375c1.27932-.009 2.54523-.0268 3.8125-.0312l-.15625-.59375zm-8.09375.0937c-1.41818.0379-2.73386.10074-3.9375.15625l.5625.5625c1.3455-.0676 2.69146-.12673 4.0625-.15625l-.6875-.5625zm-7.53125.375c-2.45099.20621-3.90625.48183-3.90625.84375 0,.28508.96768.48815 2.53125.65625l2.28125-.5-2.875-.15625c1.05945-.13515 2.14837-.25526 3.25-.34375l-1.28125-.5zm34.90625,1c-.9971.0744-3.40742.43897-5.34375.53125l.59375.3125c2.31564-.0917 4.40695-.41958 6.1875-.5625l-1.4375-.2811zm-31.4375.12515-1.40625.59375v.0312c1.18404.0575 2.48037.11959 3.9375.15625h.0312l1.4375-.625c-1.33336-.0482-2.66833-.0937-4-.15625zm6.4375.25-.28125.625c2.07839.0291 4.45753-.007 6.8125,0l.03125-.53125c-2.19044-.0149-4.37359-.0306-6.5625-.0937zm16.53125,0c-2.19818.0744-4.3932.11179-6.59375.125l.0625.5c2.33654.0493 4.77066-.0121 6.8125-.0625 .0945-.22049-.1901-.38019-.28125-.5625z" fill="#e3dedb"/>
 </g>
</svg>
