<?xml version="1.0" encoding="UTF-8"?>
<svg width="449.26" height="582.19" viewBox="0 0 449.263 582.193" xmlns="http://www.w3.org/2000/svg">
 <path d="m217.855,104.267c2.231-1.476 4.355-4.356 6.228-8.928 1.872-4.716 4.104-12.24 5.04-18.252 .72-6.12-1.548-11.808 0-17.496 1.476-5.688 3.708-9.504 9.324-16.308 5.651-6.948 16.308-18 24.479-24.84 8.064-7.02 15.805-13.428 23.652-16.308 7.848-2.808 19.8-2.556 22.932-.792 2.88,1.656-2.088,5.112-5.04,10.512-3.06,5.4-7.704,11.448-12.815,21.744-5.22,10.296-8.856,25.128-17.856,39.204-9.144,14.004-20.916,28.26-36.144,43.884 7.992-2.304 15.876-7.308 24.084-15.156 8.1-7.992 16.128-23.004 24.479-31.824 8.353-8.892 17.28-14.832 25.236-20.592 7.812-5.868 13.392-7.056 21.744-13.968 8.315-7.092 21.852-25.308 27.972-27.576 5.868-2.196 9.288,3.708 7.74,14.364-1.764,10.656-8.28,34.74-17.064,48.924-8.928,13.968-22.067,25.344-34.956,34.56-12.888,9.144-30.924,13.752-41.184,20.196-10.296,6.372-16.668,12.276-19.8,17.856l.792,4.284c7.128.18 12.132,1.476 15.156,3.888 2.987,2.376 2.088,5.544 2.699,10.476 .504,4.86.828,14.184.396,18.648-.468,4.464-1.764,6.876-3.492,7.776 2.052-.972 3.996-1.368 5.437-1.188 1.403.072 2.699.72 3.491,1.944 3.024-7.524 5.688-13.644 8.137-18.648 2.376-5.112 3.06-11.772 6.228-11.232 3.132.612 7.596,10.008 12.42,14.724 4.716,4.5 14.112,7.956 15.552,12.456 1.261,4.428-1.332,9.216-7.775,14.364 3.563-.72 7.271-.504 11.268.648 3.996,1.188 7.992,3.168 12.42,6.228-4.212.108-7.704.576-10.476,1.548-2.844.9-4.824,2.196-6.229,3.888 7.74,3.78 13.86,7.272 19.044,10.476 5.076,3.096 10.261,5.256 11.232,8.568 .72,3.168-2.412,5.22-6.192,10.872-3.852,5.652-9.107,13.14-16.308,22.896 1.656,1.008 3.672,2.592 6.192,5.04 2.447,2.376 5.256,5.436 8.567,9.324 4.429-1.188 8.389-.792 12.024,1.188 3.6,1.908 6.84,5.4 9.72,10.477 7.128-7.632 14.364-14.4 22.141-20.592 7.668-6.264 16.703-13.644 24.048-16.308 7.308-2.736 13.319-3.384 19.439.396 6.048,3.852 13.752,15.264 16.309,22.14 2.268,6.696.792,12.276-2.341,17.855-3.275,5.509-8.712,10.513-16.703,15.156 .827,3.384 2.304,6.48 4.283,9.685 1.98,3.06 4.608,6.084 7.74,8.928-8.316,3.24-16.92,6.084-26.388,8.532-9.576,2.231-21.816,3.527-29.916,5.831-8.064,2.377-14.148,5.005-18.252,8.173v43.092c5.472,2.124 9.647,5.22 13.212,9.72 3.348,4.428 8.208,9.72 7.38,16.704-.937,6.948-6.048,20.556-12.42,24.444-6.48,3.636-19.692,1.044-26.028-1.944-6.408-3.204-10.836-10.26-12.023-16.308-1.225-6.084.647-14.4 4.644-19.801 3.924-5.436 10.044-9.756 18.648-12.815l-.396-38.448c-1.26.504-4.104,2.304-8.532,5.832-4.5,3.456-10.584,8.244-18.252,14.76 .036,2.521.685,5.761 1.944,9.721 1.26,3.924 3.024,8.531 5.436,13.968-6.983,2.664-12.456,5.076-16.703,7.38-4.213,2.268-7.057,4.284-8.532,6.191l3.096,14.005c-7.884,1.62-15.552,2.987-23.292,4.248-7.812,1.296-15.3,2.159-22.896,3.132-1.477,3.42-2.521,7.632-3.528,12.779-.937,5.076.756,12.564-2.304,17.893-3.276,5.147-12.925,9.252-16.704,13.572-3.853,4.283-1.908,7.775-5.832,12.42-4.068,4.536-14.185,9.396-17.856,15.155-3.708,5.832-3.852,12.456-3.888,19.044 0,6.372 1.296,13.5 3.492,19.009 2.052,5.363 4.104,9.216 8.928,13.212 4.752,3.888 15.012,6.552 19.8,10.08 4.788,3.42 8.712,8.676 8.568,10.512-.396,1.692-3.853,1.692-10.512,0-3.385,1.908-6.48,2.808-9.288,2.7-2.881-.145-5.473-1.261-7.776-3.492-2.736.612-4.932.792-6.984.396-2.052-.432-3.743-1.296-5.075-2.735-2.592,1.476-5.437,1.656-8.532.396-3.204-1.367-7.488-4.284-10.08-7.775-2.628-3.528-3.924-9.973-5.436-12.816-1.656-2.88-2.448,1.26-3.889-4.248-1.584-5.616-3.239-26.244-4.68-29.124-1.404-2.88-2.52,5.58-3.492,11.628-.936,6.048-1.188,17.964-2.304,24.084-1.296,5.832-1.836,8.244-5.076,11.269-3.456,3.023-10.836,5.544-14.364,6.588-3.491.828-5.508.576-6.191-1.152-2.196,2.628-5.221,4.212-8.929,5.04-3.852.756-8.243.576-13.607-.396-6.588.504-10.944.684-13.212.396s-2.448-.936-.396-1.944c-4.14-1.26-6.155-2.628-6.191-4.247-.145-1.62 3.275-3.349 5.832-5.473 2.556-2.268 5.615-6.048 9.323-7.74 3.673-1.728 8.46.36 12.42-2.34 3.853-2.88 7.992-6.191 10.477-14.364 2.34-8.388 3.636-19.764 3.888-34.955-6.876-4.788-12.132-9.217-15.912-13.969-3.779-4.788-5.939-9.216-6.624-13.968-8.46-6.768-13.896-11.808-16.704-15.552-2.88-3.78 1.656-3.24 0-6.588-1.691-3.601-8.243-8.46-10.079-13.608-1.872-5.112-2.305-10.548-1.152-16.704-11.232-5.328-22.572-10.224-34.561-14.832-12.06-4.716-29.412-9.54-36.9-12.815-7.416-3.204-6.624-3.924-7.776-6.588-1.368-2.916-2.34-3.097 0-10.116 2.34-7.164 7.056-18.145 14.004-31.824 6.876-13.788 20.053-36.792 27.181-49.716 6.947-12.924 9.828-15.696 14.76-27.072 4.824-11.484 9.612-24.984 14.364-41.184l-8.568,4.68c-2.412,3.132-3.96,6.444-5.04,10.08-1.116,3.6-1.368,7.488-1.152,11.664-9.071-5.832-18.684-9.54-29.124-11.268-10.548-1.764-21.492-1.548-33.408.792l.396-17.496c-4.176.18-7.92-.468-11.664-1.944-3.852-1.476-10.584-1.764-10.476-6.984 .072-5.436 4.572-14.364 11.268-24.84 6.732-10.548 16.164-22.932 28.728-37.692-3.312-.432-5.544-1.548-6.984-3.492-1.44-1.98-1.908-4.645-1.548-8.136-3.384-1.188-7.308-.72-12.06,1.548-4.752,2.196-10.188,6.084-16.308,11.664-.756-2.52-1.008-6.876-.756-13.212 .252-6.48.972-14.58 2.304-24.84 .468,4.68 3.924,8.604 10.512,11.628 6.588,3.096 15.984,5.112 28.728,6.588-.18-2.592.252-4.356 1.152-5.436 .864-1.116 2.34-1.548 4.284-1.152-.575-2.34-.107-3.888 1.549-4.644 1.584-.792 4.355-.792 8.172,0 2.052-2.304 4.067-3.42 6.191-3.492 2.124-.108 4.068.972 6.229,3.096 1.979-1.764 3.996-2.16 6.191-1.188s5.652,4.608 6.624,7.02c.828,2.376.36,4.572-1.548,6.984l43.488,2.7c-.288-4.068.432-7.596 2.304-10.872 1.765-3.24 2.952-4.968 8.568-8.532 5.616-3.672 13.716-8.028 24.84-13.212 .432-6.912 2.844-11.124 7.38-13.176 4.5-2.052 10.872-1.62 19.404,1.152 6.768-3.708 12.6-5.256 17.496-5.04 4.893.246 8.637,2.478 11.625,6.69zm-116.496,49.608 24.876.396 .756,6.192c-3.924,2.448-6.984,5.112-9.324,8.532-2.483,3.312-3.888,6.192-4.644,11.268-.756,5.004-.576,11.124.396,18.648-4.536-6.624-8.063-12.708-11.268-18.648-3.061-5.976-5.652-11.412-7.38-16.704 3.096-1.044 5.04-2.196 6.228-3.852 1.008-1.656 1.261-3.6.36-5.832zm-7.38,0c.756,2.844.504,4.788-.756,5.832-1.368.972-3.601,1.188-6.984.36l-2.736-7.38 10.476,1.188zm-57.06-3.888 10.477.756 .792,4.68-3.889,2.34c-2.412-.252-4.176-1.08-5.436-2.34-1.26-1.332-1.908-3.096-1.944-5.436zm259.776,135.324c.611,3.024 1.908,5.22 3.888,6.984 1.908,1.728 4.5,2.628 7.776,3.096l4.248,4.68c-1.872,2.124-1.872,4.969 0,8.532 1.764,3.601 5.436,7.776 10.872,12.816l-15.912,7.775c-2.412-5.508-4.393-11.628-6.229-19.044-1.835-7.451-3.383-15.551-4.643-24.839z" fill-rule="evenodd" stroke="#000" stroke-miterlimit="10" stroke-width=".036"/>
 <path d="m128.611,147.287c.54-4.68 1.116-8.244 1.872-10.692 .647-2.592 1.476-3.888 2.34-4.284 .145,3.744.432,6.408 1.152,8.532 .576,2.016.792,3.924 2.735,3.492 1.944-.612 7.885-4.572 8.929-6.588 .899-2.052-2.628-3.816-3.097-5.436-.575-1.728-1.367-3.132 0-4.644 1.225-1.62 3.672-3.132 7.74-5.076 4.068-2.088 9.324-4.5 16.308-7.38-.468-4.392.181-7.668 2.341-9.684 2.052-2.052 6.947-2.916 10.115-2.736 3.097.036 5.94,1.08 8.532,3.132 5.4-2.916 10.404-4.392 15.156-4.284 4.644.072 9.504,2.412 13.176,4.644 3.636,2.016 5.328,2.664 8.568,7.776 3.096,5.076 8.855,20.556 10.476,22.14 1.512,1.26-1.8-11.772-.792-13.968 .936-2.16 4.716-.612 6.624.756 1.8,1.152 3.348,3.492 4.644,6.624 1.296,3.06 2.845,7.2 3.097,12.024 .144,4.896.396,10.512-2.305,16.704-2.916,6.084-8.027,14.22-14.363,19.404-6.408,5.004-16.128,8.208-23.328,10.872-7.308,2.628-17.424,4.932-19.8,4.68-2.304-.504 3.708-3.96 5.832-6.624 2.016-2.628 2.016-5.004 6.228-8.928 4.177-4.104 18.756-13.968 18.612-15.156-.324-1.188-16.632,8.892-20.196,8.172-3.636-.9-.036-9.9-1.151-12.816-1.261-2.952-4.824-5.076-5.832-4.284-1.044.864-.324,4.896-.36,9.324-.252,4.32 2.952,13.176-.396,16.308-3.492,2.988-17.244-.432-19.44,1.548-2.088,1.908 7.704,7.596 6.624,9.72-1.332,2.016-9.288,2.664-14.004,2.34-4.824-.396-10.404-1.404-13.968-4.68-3.492-3.348-5.868-8.568-6.984-15.516 3.024.684 5.688.252 8.136-1.152 2.376-1.548 6.12-6.408 6.229-7.38-.036-1.008-3.132,1.584-6.229,1.944-3.24.252-9.18.72-12.42,0-3.275-.828-5.328-2.808-6.983-4.68-1.729-2.016-2.881-4.14-3.313-6.804l6.156.072c1.224,1.728 2.483,2.808 3.78,2.844 1.331.144 3.132-.756 3.852-2.304 .612-1.8.396-6.192-.36-7.776-.972-1.62-3.456-1.584-4.68-1.548-1.224-.072-1.944.468-2.304,1.476l-6.949-.108z" fill="#fff" fill-rule="evenodd" stroke="#000" stroke-miterlimit="10" stroke-width=".036"/>
 <path d="m188.731,143.579c-1.368-.36-4.212-4.428-4.645-8.172-.468-3.816.36-10.188 1.944-13.968 1.512-3.852 3.888-7.02 6.984-8.532 3.06-1.62 6.731-2.988 10.872-.792 3.924,2.124 9.396,9.576 12.815,13.608 3.42,3.924 7.776,8.964 7.38,9.684-.54.576-9.071-6.948-10.476-6.192-1.548.756 1.979,6.516 1.548,10.476-.576,3.852-3.204,12.348-4.284,12.42-1.008-.18-.684-10.98-1.943-12.816-1.477-1.908-3.816,2.304-6.589,1.944-2.916-.396-8.208-4.68-10.476-4.248-2.301.432-1.906,6.696-3.13,6.588z" fill-rule="evenodd" stroke="#000" stroke-miterlimit="10" stroke-width=".036"/>
 <path d="m192.619,129.971c-1.188-1.224-1.439-2.952-.756-5.04 .648-2.232 2.376-6.444 4.644-7.776 2.124-1.368 6.337-1.548 8.173,0 1.764,1.44 2.483,4.428 2.304,8.964-1.908-2.016-3.456-2.88-4.645-2.736-1.26.108-2.268,1.728-2.735,3.492-.648,1.764-.828,4.716-.396,6.624 .433,1.692 3.744,3.672 3.132,3.852-.863.036-5.688-1.872-7.38-3.096-1.621-1.224-2.448-2.7-2.341-4.284z" fill="#fff" fill-rule="evenodd" stroke="#000" stroke-miterlimit="10" stroke-width=".036"/>
 <path d="m151.472,141.635c.396-3.564 1.548-6.372 3.06-8.568 1.476-2.232 3.384-2.952 6.264-4.644 2.916-1.764 6.408-3.708 10.872-5.832-3.168,2.484-5.903,4.68-8.496,6.588-2.664,1.836-5.22,2.448-6.84,4.752-1.728,2.268-3.456,8.352-2.7,8.928 .685.396 3.996-4.428 7.164-5.868 3.097-1.512 8.316-2.556 11.628-2.736 3.204-.216 5.797.252 7.776,1.548-7.632-.144-13.32.504-17.46,1.944-4.104,1.476-5.616,4.968-7.02,6.588-1.584,1.512-1.261,2.664-1.944,2.34-.685-.504-1.548-2.088-2.304-5.04z" fill-rule="evenodd" stroke="#000" stroke-miterlimit="10" stroke-width=".036"/>
 <path d="m159.211,145.523c2.088-2.196 4.896-3.276 8.425-2.952 3.527.288 7.668,1.692 12.563,4.5-4.752-4.176-8.748-6.372-12.276-6.588-3.564-.216-6.371,1.332-8.712,5.04z" fill-rule="evenodd" stroke="#000" stroke-miterlimit="10" stroke-width=".036"/>
 <path d="m156.51 148.62c6.155-0.828 10.943-0.54 14.76 1.152 3.815 1.656 6.228 4.464 7.775 8.568-5.184-4.104-9.359-6.912-13.212-8.568-3.815-1.692-6.876-1.98-9.323-1.152z" fill-rule="evenodd" stroke="#000" stroke-miterlimit="10" stroke-width=".036"/>
 <path d="m136.78 132.42c-0.216-2.988-1.62-6.3-4.644-10.08s-7.38-7.92-13.212-12.42c5.363 5.544 9.323 10.152 12.42 13.968 2.988 3.744 4.753 6.588 5.436 8.532z" fill-rule="evenodd" stroke="#000" stroke-miterlimit="10" stroke-width=".036"/>
 <path d="m134.3 134.54c-1.403-4.716-3.779-8.388-7.416-11.016-3.636-2.7-8.388-4.248-14.256-4.788 3.672 0.972 7.164 2.736 10.872 5.436 3.564 2.628 7.164 6.084 10.8 10.368z" fill-rule="evenodd" stroke="#000" stroke-miterlimit="10" stroke-width=".036"/>
 <path d="m131.6 137.78c-1.944-4.212-4.717-7.272-8.316-9.18-3.672-1.979-8.1-2.808-13.428-2.484 4.968 1.152 9.107 2.664 12.815 4.68 3.673 1.98 6.517 4.212 8.929 6.984z" fill-rule="evenodd" stroke="#000" stroke-miterlimit="10" stroke-width=".036"/>
 <path d="m130.74 141.38c-2.304-3.492-5.184-5.688-8.64-7.128-3.528-1.368-7.488-1.8-12.168-1.152 3.995 0.864 7.739 2.16 11.231 3.492 3.493 1.296 6.589 3.024 9.577 4.788z" fill-rule="evenodd" stroke="#000" stroke-miterlimit="10" stroke-width=".036"/>
 <path d="m221.348,105.815c1.332-.576 2.844-2.988 4.68-7.776 1.764-4.824 5.256-13.716 6.191-20.556 .864-6.804-3.456-13.536-.756-20.196 2.592-6.804 10.944-14.112 16.309-19.836 5.292-5.796 9.504-9.432 15.119-14.364 5.437-5.148 10.765-11.988 17.496-15.516 6.66-3.492 18.396-5.364 22.141-5.04 3.384.324 1.403,2.52-.792,6.984-2.305,4.464-8.353,12.42-12.024,19.404-3.708,6.804-5.472,13.68-9.72,21.744-4.356,8.136-13.5,23.796-15.912,26.424-2.412,2.34 2.736-11.592 1.548-11.664-1.332,0-6.516,5.832-9.324,11.268-2.844,5.292-3.96,13.644-7.775,20.592-3.96,6.948-9.216,13.572-15.912,20.556-1.477-2.736-3.204-4.932-5.04-6.984-1.874-2.088-3.998-3.636-6.229-5.04z" fill="#fff" fill-rule="evenodd" stroke="#000" stroke-miterlimit="10" stroke-width=".036"/>
 <path d="m241.939,119.783c2.34-2.592 11.483-4.716 18.252-11.232 6.695-6.66 14.04-19.044 21.744-27.972 7.56-9.036 15.228-18.828 23.688-25.632 8.46-6.84 24.048-14.4 26.784-14.76 2.556-.36-4.896,6.048-11.269,12.42-6.588,6.264-19.439,16.128-27.18,24.876-7.776,8.748-16.056,21.384-18.612,26.784-2.628,5.184-2.159,9.9 3.492,4.284 5.76-5.976 21.996-28.692 30.672-38.448 8.425-9.648 14.185-11.916 20.196-19.044 5.868-7.344 10.116-17.496 15.516-24.084 5.328-6.696 13.393-15.12 16.704-15.12 3.313.072 4.824,5.796 2.736,15.516-2.268,9.576-9,29.988-16.308,41.94-7.452,11.844-17.101,20.952-27.973,29.124-11.088,8.064-28.188,14.184-37.296,19.044-9.072,4.68-11.988,6.012-16.668,9.288-4.752,3.24-8.604,9.108-11.268,10.116-2.7.792-3.24-2.484-4.681-4.68-1.584-2.34-2.808-6.48-4.248-8.532-1.545-2.088-6.585-1.44-4.281-3.888z" fill="#fff" fill-rule="evenodd" stroke="#000" stroke-miterlimit="10" stroke-width=".036"/>
 <path d="m332.011,303.959c4.177-6.336 8.532-10.296 13.212-12.42 4.645-2.125 9.757-2.125 14.761,0 4.968,2.195 13.176,10.115 14.76,12.779 1.368,2.557-2.664,3.528-5.832,2.341-3.168-1.332-10.872-9.181-12.816-10.08-1.907-.973 2.232,2.987 1.188,4.248-1.296,1.044-5.688.936-8.172,2.735-2.484,1.836-3.564,5.616-6.588,8.137-3.168,2.447-7.093,4.392-12.061,6.228-1.116-2.628-1.368-5.04-1.151-7.38 .215-2.448 1.115-4.464 2.699-6.588z" fill="#fff" fill-rule="evenodd" stroke="#000" stroke-miterlimit="10" stroke-width=".036"/>
 <path d="m260.191,443.135c.144,8.316-.792,15.048-3.097,20.592-2.447,5.364-7.668,7.309-10.512,12.061-2.771,4.716-2.844,11.916-6.192,16.308-3.527,4.248-10.584,5.4-14.363,9.288-3.924,3.852-6.876,8.568-8.172,13.608-1.225,5.004-.504,9.144.792,15.911 1.188,6.732 3.24,17.82 6.588,23.688 3.312,5.616 9.107,7.74 13.212,10.116 3.996,2.231 7.668,2.124 10.872,3.852 3.132,1.692 7.739,5.148 8.136,6.624 .324,1.368-1.512,2.017-5.796,1.944-4.68-4.032-7.74-6.624-9.324-7.38s-1.116.72 0,2.34c1.008,1.404 5.94,4.716 6.192,6.191 .071,1.404-3.492,2.736-5.437,2.341-2.052-.504-3.924-2.412-6.588-5.04-2.844-2.736-9.144-10.944-9.72-10.872-.504.036 1.656,3.779 6.624,11.231-1.332.9-3.096.648-5.437-.359-2.376-1.188-6.335-4.284-8.567-6.229-2.448-1.979-5.148-6.336-5.04-5.436 .216.828 2.196,4.319 6.228,10.476-3.708.973-6.768.504-9.323-1.548-2.521-2.232-4.284-7.2-5.832-10.872-1.765-3.564-3.097-7.056-4.284-10.476-2.412-.504-3.96-2.881-5.04-6.984-1.044-4.284-1.008-11.808-1.152-17.856-.359-6.084-2.987-11.628-.396-17.892 2.628-6.336 11.448-12.348 15.912-19.404 4.284-7.056 7.523-20.268 10.115-22.535 2.557-2.232 3.996,10.476 5.437,8.964 1.332-1.836 1.62-13.464 3.096-19.044 1.548-5.652 4.608-14.292 5.832-13.969 .972.504-.864,15.013.756,16.309 1.692.936 6.696-8.46 9.324-9.721 2.448-1.331 3.276,3.385 5.832,2.341 2.556-1.08 5.616-3.889 9.324-8.568z" fill="#fff" fill-rule="evenodd" stroke="#000" stroke-miterlimit="10" stroke-width=".036"/>
 <path d="m124.651,574.787 10.116-7.776c-5.4,5.616-8.244,9.108-8.532,10.872-.432,1.62 3.06,1.044 6.588-.756 3.456-1.98 13.284-10.116 14.364-10.116 .972.072-1.872,3.528-8.532,10.512 3.564,1.225 6.876,1.296 10.08.36 3.168-1.116 6.516-3.924 8.928-6.192 2.376-2.304 4.428-7.271 5.04-6.983 .433.324-2.844,7.56-1.908,8.928 1.009,1.152 4.933.252 7.74-1.188 2.736-1.439 6.84-3.527 8.568-7.38 1.62-3.924.252-10.476 1.151-15.912 .9-5.615 3.816-13.896 3.889-17.063-.145-3.276-4.393-.685-4.284-1.944 .216-1.368 4.86-2.844 5.04-5.832-.145-3.204-3.313-9.756-5.04-12.42-1.692-2.628-3.096-.288-5.04-3.132-2.088-3.096-4.788-9.828-6.984-14.364-2.304-4.607-6.876-12.672-6.228-12.815 .54-.181 7.848,8.712 10.116,11.664 2.231,2.808 3.491,7.991 3.491,5.436-.071-2.628-4.283-20.592-3.888-20.988 .288-.468 3.384,12.564 5.832,18.252 2.448,5.58 5.112,14.797 8.532,15.156 3.24.145 7.271-9.288 11.268-13.571 3.996-4.32 9.288-6.769 12.42-12.061 2.881-5.58 2.845-16.2 5.437-20.196 2.592-3.924 10.116-.468 10.08-3.096-.288-2.808-4.933-9.9-10.872-13.212-5.868-3.42-15.084-5.436-24.048-6.588-9.181-1.188-22.068-.72-29.916-.396-7.849.181-14.256-.792-16.309,1.944-2.088,2.7 4.896,14.148 3.889,14.364-1.296.036-5.761-11.484-10.477-13.572-4.68-2.16-15.048-1.08-17.1,1.152-2.16,2.231 3.78,9.288 4.644,12.42 .756,2.987-2.304,2.34.396,5.832 2.628,3.456 7.812,8.244 15.552,14.76 2.772,7.452 6.084,13.536 10.476,18.648 4.284,5.111 9.288,8.855 15.156,11.628-.359,8.64-1.404,16.668-3.132,24.084-1.872,7.416-4.284,15.443-7.38,20.195-3.168,4.681-7.813,6.3-10.872,7.776-3.06,1.368-5.004-.18-7.38.756-2.484.9-4.896,2.88-7.38,4.68-2.7,1.692-6.624,3.78-7.74,5.437-1.008,1.548.756,3.348 1.548,3.852 .65.464 1.549.033 2.701-1.155z" fill="#fff" fill-rule="evenodd" stroke="#000" stroke-miterlimit="10" stroke-width=".036"/>
 <path d="m53.623,144.047c-.54-1.224-1.188-3.312-2.34-3.888-1.188-.684-3.996-.684-4.68,0-.756.576-.9,2.268.396,3.528 1.188,1.152 5.832,3.384 6.984,3.492 1.044-.108 0-1.944-.36-3.132z" fill="#fff" fill-rule="evenodd" stroke="#000" stroke-miterlimit="10" stroke-width=".036"/>
 <path d="m53.228,135.911c-.576-1.188-1.08-1.836-.396-2.34 .648-.54 2.628-1.62 4.284-.756 1.512.828 3.888,2.916 5.04,5.436 1.08,2.376 2.052,7.668 1.548,8.928-.684,1.044-3.708-.72-5.04-1.944-1.368-1.296-1.908-3.456-2.735-5.076-.974-1.692-2.198-3.06-2.701-4.248z" fill="#fff" fill-rule="evenodd" stroke="#000" stroke-miterlimit="10" stroke-width=".036"/>
 <path d="m63.703,132.419c.468-.936 1.477-1.296 2.736-.792 1.044.504 2.88,1.152 3.852,3.888 .9,2.592 1.8,10.116 1.584,12.024-.396,1.764-2.268,1.044-3.527-.756-1.332-1.872-3.492-7.74-4.248-10.116-.792-2.521-.829-3.384-.397-4.248z" fill="#fff" fill-rule="evenodd" stroke="#000" stroke-miterlimit="10" stroke-width=".036"/>
 <path d="m73.783,133.175c.756-.252 3.888.576 5.076,1.944 1.224,1.26 2.016,3.348 1.944,5.436-.217,1.98-2.232,6.228-3.133,6.624-1.044.324-2.088-2.988-2.699-4.68-.685-1.872-1.08-4.284-1.188-5.832-.36-1.729-.828-3.168 0-3.492z" fill="#fff" fill-rule="evenodd" stroke="#000" stroke-miterlimit="10" stroke-width=".036"/>
 <path d="m126.596,164.243 12.456,8.172c1.115,5.472 2.844,9.9 5.039,13.572 2.196,3.528 2.916,6.12 8.137,8.172 5.184,1.98 14.688,3.42 22.536,3.888 7.596.396 14.651.072 23.688-1.548 9.18-1.836 22.645-4.968 30.672-8.964 7.776-4.104 11.592-8.964 16.308-15.12 4.717-6.192 8.46-13.392 11.664-21.744 3.996-.252 7.057.216 9.324,1.548 2.196,1.296 3.528,3.636 3.853,6.192 .287,2.448-1.08,6.732-2.305,8.568-1.368,1.692-3.312,2.34-5.832,1.944 1.44,1.332 1.656,2.268.792,3.096-.899.756-3.023,1.224-6.228,1.548 2.124,2.484 2.952,4.212 2.34,5.04s-2.556.828-5.832,0c.468,2.52.252,4.068-.792,5.076-1.08.9-2.844.972-5.436.36 .144,2.232-.288,3.708-1.152,4.284-.9.54-2.376.324-4.284-.792-.36,2.988-1.08,4.752-2.304,5.436-1.332.612-2.88.144-5.076-1.548-.9,2.448-1.98,3.96-3.096,4.68-1.261.684-2.412.324-3.889-.792-.575,2.232-1.655,3.708-3.096,4.284-1.584.54-3.384.324-5.832-.792-1.979,2.304-3.744,3.6-5.436,3.888-1.8.288-3.168-.54-4.645-2.34-1.224,1.764-2.34,2.772-3.888,2.736-1.476.036-3.204-.972-5.04-2.736-1.944,3.348-3.636,5.112-5.076,5.436-1.548.252-2.844-1.08-3.888-3.852-2.448,2.052-4.248,2.952-5.796,3.096-1.512.108-2.556-.936-3.132-2.736-2.412,2.196-4.356,3.24-5.437,3.132-1.116-.144-1.764-1.44-1.548-3.888-4.355,1.728-7.2,2.412-8.928,2.34-1.765-.144-2.017-1.188-1.152-3.132-4.104,2.088-6.696,2.952-8.172,2.736-1.512-.252-1.512-1.728-.396-4.284-3.708,1.584-6.301,2.232-7.381,1.944-1.115-.36-1.115-1.656.396-3.888-4.068,1.008-6.516,1.224-7.74.792-1.188-.468-.936-1.584.756-3.492-4.716,2.124-7.739,3.024-8.928,2.7-1.224-.324-.756-1.872 1.548-4.644-4.788-.216-7.452-.828-8.136-1.548-.72-.792.576-1.836 3.888-3.132-4.428.108-7.02.108-8.172-.396-1.188-.396-.54-1.296 1.548-2.304-3.492-.684-5.436-1.332-5.832-1.944-.504-.684.54-1.332 3.132-1.944-3.096-1.62-4.607-2.736-4.68-3.492-.107-.792 1.368-1.188 4.284-1.188-1.224-2.628-1.656-4.392-1.152-5.436 .396-1.044 1.729-1.296 3.853-.756-1.08-1.872-1.332-3.204-.756-4.284 .578-1.044 1.946-1.692 4.251-1.944z" fill="#fff" fill-rule="evenodd" stroke="#000" stroke-miterlimit="10" stroke-width=".036"/>
 <path d="m114.968,196.103c-.576-3.096-.576-5.472 0-6.984 .539-1.656 1.943-4.104 3.096-2.34 .972,1.836 1.872,11.664 3.096,12.816 1.152.9 2.628-7.812 3.888-6.984 1.116.72 1.836,10.656 3.133,11.628 1.296.9 3.132-6.948 4.248-6.192 .972.72.144,10.188 1.548,10.476 1.296.18 4.716-9.864 6.228-9.324 1.404.54 1.116,11.412 2.34,12.06 1.08.324 3.456-9.864 4.645-9.324 1.151.468 1.008,12.24 2.34,12.816 1.296.54 4.032-9.792 5.436-9.324 1.188.468 1.044,11.88 2.341,12.024 1.26-.036 4.14-12.42 5.436-12.024 1.116.324.288,13.68 1.944,13.968 1.728.036 6.012-12.708 8.136-12.816 1.979.036 2.124,12.78 3.888,12.816 1.656-.108 3.996-13.212 6.192-13.212 2.124-.072 4.572,12.348 6.228,12.816 1.513.252 1.62-10.404 3.097-10.872 1.403-.468 3.672,8.136 5.436,7.776 1.692-.612 2.412-11.088 4.68-10.872 2.232.144 6.841,12.06 8.532,12.024 1.477-.18-.576-11.772.792-12.42 1.404-.756 5.616,8.892 7.38,8.532 1.548-.576.648-10.404 2.305-10.872 1.62-.36 5.651,8.928 7.379,8.568 1.585-.612 2.412-4.356 2.341-11.664 1.151,4.536 2.195,8.244 2.735,11.268 .54,2.988 2.412,6.624.756,6.588-1.836-.288-9.107-8.568-11.268-7.74-2.052.9-.576,11.736-1.548,12.78-1.224.756-4.14-7.848-5.436-7.344-1.225.54-.612,10.188-2.34,10.476-1.98.036-7.093-9.864-8.929-9.72-1.908.216-.288,9.864-1.943,10.476-1.801.252-5.94-8.424-8.137-8.136-2.231.36-2.916,10.008-4.68,10.08-1.728-.18-3.24-10.476-5.796-10.476-2.844,0-7.884,10.296-10.116,10.476-2.124.036-1.224-9.756-2.7-10.08-1.691-.468-5.22,7.812-6.983,7.776-1.692-.144-1.944-7.956-3.528-8.172-1.872-.252-5.868,6.624-6.984,6.588-1.188-.252 1.116-6.732.396-7.38-.828-.684-2.844,4.5-4.645,3.888-1.764-.72-4.355-7.56-5.832-7.74-1.548-.144-2.663,6.912-3.491,6.588-.937-.576-.792-8.172-1.944-9.324-1.296-1.044-4.176,3.06-5.436,2.736-1.297-.54-1.152-4.572-2.341-5.436-1.332-.936-3.096-.684-5.436.36-1.944-.72-3.708-1.872-5.437-3.852-1.803-1.98-3.387-4.572-5.042-7.776z" fill="#fff" fill-rule="evenodd" stroke="#000" stroke-miterlimit="10" stroke-width=".036"/>
 <path d="m245.431,195.311c-.827-2.088-.611-3.204.792-3.492s6.265,2.772 7.381,1.944c.863-1.08-2.988-6.552-1.549-7.38 1.404-.828 8.748,3.6 10.08,2.736 1.188-.972-3.023-7.308-2.34-8.172 .685-.9 5.76,3.708 6.624,2.736 .756-1.116-1.944-7.668-1.584-8.964 .288-1.368 2.88,2.592 3.888,1.188 .937-1.44 1.584-4.68 1.944-9.72 .648,3.348 1.044,6.624 1.188,10.116 .107,3.42.575,8.676-.396,10.476-1.152,1.692-4.572-1.404-5.832-.396-1.296.828-.144,5.22-1.548,5.832-1.548.504-6.408-3.564-7.38-2.34s-.504,4.464 1.548,9.72c-2.521-.36-4.896-.828-6.984-1.548-2.232-.756-4.032-1.62-5.832-2.736z" fill="#fff" fill-rule="evenodd" stroke="#000" stroke-miterlimit="10" stroke-width=".036"/>
 <path d="m263.683,201.935c-2.808.72-6.3.72-10.476,0-4.392-.864-11.628-4.176-14.76-4.68-3.024-.576-3.816-1.728-3.492,1.548 .18,3.276 3.672,12.276 4.644,17.856 .828,5.436-.252,12.024.792,14.76 .937,2.628 1.549,3.168 5.437.792 3.888-2.556 9.792-7.596 17.855-15.552-8.64,4.824-14.327,7.596-17.063,8.172-2.808.54-2.916-2.628.36-4.644 3.312-2.16 15.119-5.364 19.044-7.38 3.672-1.98 3.815-2.484 3.491-4.284-.396-1.836-2.34-4.032-5.832-6.588z" fill="#fff" fill-rule="evenodd" stroke="#000" stroke-miterlimit="10" stroke-width=".036"/>
 <path d="m260.191,207.371c-.648-.54-5.977-1.08-9.324-1.188-3.528-.216-9.288-.18-10.477.396-1.115.54 2.124,2.592 3.889,3.096 1.656.396 4.5-.324 6.191-.36 1.62-.144 1.765-.18 3.492-.396 1.621-.36 6.661-1.152 6.229-1.548z" fill-rule="evenodd" stroke="#000" stroke-miterlimit="10" stroke-width=".036"/>
 <path d="m264.835,199.991c-.792-1.944-.216-4.932 1.584-6.624 1.692-1.764 5.652-3.708 8.532-3.492 2.736.144 5.976,2.772 7.775,4.68 1.656,1.908 3.204,4.104 2.305,6.588-1.044,2.34-5.832,6.696-8.136,7.38-2.412.468-3.853-2.448-5.832-3.888-2.16-1.476-5.4-2.844-6.228-4.644z" fill="#fff" fill-rule="evenodd" stroke="#000" stroke-miterlimit="10" stroke-width=".036"/>
 <path d="m283.087,190.271c-.036-.216.612-1.764 1.944-4.644 1.332-3.096 4.248-9.216 5.832-12.816 1.332-3.6 1.548-7.524 2.735-8.172 1.08-.648 2.484,1.656 4.645,4.284 2.16,2.52 5.004,7.992 8.532,10.872 3.456,2.772 9.792,3.744 12.06,5.832 2.052,1.944 2.484,4.932.756,6.192-1.764,1.116-6.66-.54-11.231,1.152-4.824,1.656-13.356,7.884-16.704,8.964-3.313.936-4.176-.108-2.736-3.132 6.696-3.708 10.404-6.3 11.269-7.38 .756-1.188-5.257,1.116-6.229.396-1.08-.936 1.368-5.256.396-5.04-1.116.36-4.248,6.3-6.192,6.984-1.981.54-3.529-.576-5.077-3.492z" fill="#fff" fill-rule="evenodd" stroke="#000" stroke-miterlimit="10" stroke-width=".036"/>
 <path d="m283.087,209.315c5.616-3.132 12.349-4.896 20.592-5.436 8.208-.612 17.532.288 28.368,2.304-6.84.936-12.672,3.348-17.496,7.38-4.932,4.032-8.676,9.504-11.628,16.704-4.14-4.104-8.063-7.596-12.06-10.476-3.996-2.988-10.368-5.22-11.628-6.984s-.108-2.88 3.852-3.492z" fill="#fff" fill-rule="evenodd" stroke="#000" stroke-miterlimit="10" stroke-width=".036"/>
 <path d="m272.215,213.167c1.872,5.4 2.988,11.268 3.889,17.892 .792,6.624 1.151,14.904.792,21.348-.469,6.336-1.584,11.592-3.492,16.308-3.384-7.416-8.172-12.6-14.761-15.552-6.623-2.952-14.651-3.816-24.479-2.304 3.204-6.588 6.012-10.944 8.568-13.212 2.556-2.304 4.752-.54 6.588-.396 1.691.108 1.188,3.096 3.492,1.188 2.195-2.16 6.407-8.928 9.72-13.212 3.275-4.212 6.371-8.28 9.683-12.06z" fill="#fff" fill-rule="evenodd" stroke="#000" stroke-miterlimit="10" stroke-width=".036"/>
 <path d="m50.888,158.051c1.8.648 5.292,1.116 10.476,1.548 5.22.324 11.988.576 20.592.756 2.952,2.556 4.896,5.868 5.832,10.512 .864,4.608.54,9.648-.396,16.668-1.08,6.948-4.284,17.28-5.437,24.48-1.188,7.02-1.656,10.152-1.548,17.856 0,7.668.468,16.848 1.548,27.972-5.868-4.428-11.771-7.848-17.855-10.116-6.192-2.448-12.132-3.924-18.648-3.852-6.624,0-13.356,1.512-20.592,4.248-2.628-5.904-2.7-14.4-.36-26.028 2.34-11.808 9.864-32.688 14.364-43.488 4.427-10.8 8.387-17.461 12.024-20.556z" fill="#fff" fill-rule="evenodd" stroke="#000" stroke-miterlimit="10" stroke-width=".036"/>
 <path d="m53.623,234.911c-5.688-13.824-9.36-25.02-10.872-34.164-1.548-9.18.036-15.12 1.548-20.196 1.404-5.148 4.104-10.26 6.984-10.476 2.844-.36 6.156,2.484 10.08,8.532 4.572-4.464 8.46-6.48 11.664-6.192 3.132.18 7.02,2.952 7.38,7.776 .288,4.86-1.008,11.664-5.436,20.952-4.535,9.252-11.556,20.232-21.348,33.768z" fill-rule="evenodd" stroke="#000" stroke-miterlimit="10" stroke-width=".036"/>
 <path d="m53.623,230.663c-4.319-13.104-7.128-23.364-8.568-31.464-1.44-8.064-1.26-12.24 0-16.704 1.116-4.608 4.32-10.512 6.984-10.476 2.628-.036 5.437,3.456 8.568,10.476 5.976-5.544 10.224-8.208 13.176-8.136 2.736.108 3.853,4.428 3.888,8.532 .072,3.888.396,7.128-3.491,15.156-4.069,8.1-10.872,18.648-20.557,32.616z" fill="#fff" fill-rule="evenodd" stroke="#000" stroke-miterlimit="10" stroke-width=".036"/>
 <path d="m50.491,149.879 1.188,5.832c2.735,1.332 5.111,1.98 6.983,1.944 1.944-.108 4.608-1.404 4.248-2.34-.576-1.008-5.292-2.628-7.344-3.492-2.087-.936-3.779-1.584-5.075-1.944z" fill="#fff" fill-rule="evenodd" stroke="#000" stroke-miterlimit="10" stroke-width=".036"/>
 <path d="m80.012,149.483 1.151,7.38c-4.607,1.296-7.487,1.692-8.928,1.188-1.44-.576.036-2.7.396-4.284 .288-1.656.252-4.356 1.549-5.04 1.223-.756 3.168-.504 5.832.756z" fill="#fff" fill-rule="evenodd" stroke="#000" stroke-miterlimit="10" stroke-width=".036"/>
 <path d="m136.315,149.483c-1.116-.252-5.904-.504-14.904-1.044-9.036-.54-21.744-1.224-38.664-2.052-.756.576-.972,1.296-.936,2.16 0,.828.54,1.692 1.332,2.736 4.752.576 11.376,1.152 20.268,1.332 8.856.18 19.548.18 32.508,0 .828,1.152 1.872,1.8 2.736,1.944 .864.108 2.412-.108 2.7-1.188 .18-1.224-.792-5.256-1.548-5.832-.791-.685-2.087-.036-3.492,1.944z" fill="#fff" fill-rule="evenodd" stroke="#000" stroke-miterlimit="10" stroke-width=".036"/>
 <path d="m95.419,153.659c.864,1.584 1.152,2.988.864,4.212-.36,1.224-1.152,2.052-2.664,2.88l1.225,1.872c2.231-.937 3.743-2.16 4.68-3.528 .899-1.404 1.08-3.096.684-4.932-1.585-.144-3.169-.324-4.789-.504z" fill="#fff" fill-rule="evenodd" stroke="#000" stroke-miterlimit="10" stroke-width=".036"/>
 <path d="m5.419,132.635c1.512,2.052 4.212,3.924 7.812,5.616 3.672,1.62 8.748,3.096 13.968,4.284 5.112,1.116 10.476,1.944 16.488,2.484 2.7.828 4.428,1.62 5.041,2.376 .576.684.18,1.476-1.332,2.088l-11.161-.684c-.468,1.8-.396,3.204-.18,4.5 .108,1.116.54,2.052 1.728,2.952 1.296.864 3.06,1.656 5.688,2.376l-2.844,2.088c-3.024-.612-5.256-1.908-6.552-3.888-1.404-2.052-1.872-4.68-1.548-8.028-3.672-1.512-6.912-2.088-10.26-1.584-3.42.396-6.588,2.304-9.504,4.356-2.952,2.016-5.616,4.644-7.992,7.884-.288-5.22-.432-9.9-.288-14.436 .072-4.536.432-8.532.936-12.384z" fill="#fff" fill-rule="evenodd" stroke="#000" stroke-miterlimit="10" stroke-width=".036"/>
 <path d="m42.751 163.09c-6.732 6.588-12.816 13.824-18.648 22.14-5.796 8.28-12.996 20.304-15.912 27.18-3.096 6.768-3.924 10.296-1.944 13.212 1.98 2.7 6.588 3.996 13.968 3.492 4.752-18.144 9.072-32.364 12.816-43.488 3.816-11.088 6.876-18.504 9.72-22.536z" fill="#fff" fill-rule="evenodd" stroke="#000" stroke-miterlimit="10" stroke-width=".036"/>
 <path d="m87.787,163.091 4.645-.792c.071,3.636 1.584,8.64 4.68,15.156 2.988,6.516 10.008,16.632 13.572,23.688 3.527,7.02 5.939,12.744 7.38,17.856-11.304,4.896-19.44,9.072-25.236,12.816-5.688,3.672-8.712,6.732-8.928,9.324-.864-8.964-.828-18.216.396-28.332 1.152-10.26 5.94-23.472 6.588-31.86 .504-8.352-.397-14.256-3.097-17.856z" fill="#fff" fill-rule="evenodd" stroke="#000" stroke-miterlimit="10" stroke-width=".036"/>
 <path d="m253.207,255.683c-.792,1.368-.54,4.824.756,10.512 1.296,5.76 3.636,13.248 7.021,23.292 8.567-2.196 17.136-5.472 26.388-10.116 9.144-4.608 19.512-9.972 28.332-17.46 8.676-7.668 16.523-16.848 23.688-27.972l-24.443-15.12c-3.276,3.132-5.868,6.156-7.776,8.928-1.979,2.844-3.275,5.256-3.888,7.776-1.26-2.124-4.104-4.932-8.532-8.568-4.5-3.672-10.584-8.064-18.252-13.176 2.592,7.344 3.708,15.912 3.492,25.992-.252,10.116-1.98,21.313-5.04,34.164-3.708-6.012-7.2-10.584-10.872-13.572-3.71-3.096-7.202-4.608-10.874-4.68z" fill="#fff" fill-rule="evenodd" stroke="#000" stroke-miterlimit="10" stroke-width=".036"/>
 <path d="m103.304,232.391 24.479-14.364c9.685,4.752 19.368,8.1 29.88,10.476 10.477,2.196 18.828,4.068 32.256,3.132 13.248-1.044 28.765-3.924 46.98-8.928-1.44,4.176-2.088,7.308-1.549,9.684 .469,2.268 1.837,3.744 4.248,4.284l-10.871,18.648h-.001c4.248-1.332 8.137-1.98 11.664-1.944 3.528-.036 6.589.612 9.324,1.944-.036,6.372.792,12.528 2.34,18.9 1.513,6.3 3.889,12.42 6.984,18.648l12.816-2.7c2.844,12.096 5.508,22.14 8.136,30.672 2.592,8.424 5.004,14.976 7.38,19.8-6.66,4.32-12.348,8.676-17.46,13.212-5.112,4.5-10.872,7.309-12.816,13.572-1.943,6.12-3.312,14.58 1.152,23.292 4.5,8.64 12.636,17.964 25.236,28.368l23.688-16.309c2.952,3.637 4.896,7.345 5.832,11.269 .937,3.888.756,7.848-.396,12.023-13.717,4.429-26.208,6.624-38.053,6.589-11.88-.181-18.359-7.416-32.615-6.984-14.509.468-36.648,9.216-52.813,9.72-16.235.216-31.607-5.903-43.487-7.38-11.952-1.44-15.876,1.692-27.181-1.151-11.447-3.097-26.531-11.089-40.392-16.345-13.968-5.256-34.884-9.288-42.336-14.724-7.488-5.437-5.22-8.064-1.944-17.893 3.276-10.08 13.645-27.396 21.384-41.544 7.704-14.256 17.101-28.907 24.444-42.695 7.272-13.896 14.508-28.872 18.648-39.24 3.999-10.332 5.547-17.532 5.043-22.032z" fill="#fff" fill-rule="evenodd" stroke="#000" stroke-miterlimit="10" stroke-width=".036"/>
 <path d="m124.291,304.031c-7.092-7.776-11.88-16.957-14.363-27.937-2.557-11.196-4.393-30.06-.792-37.692 3.563-7.596 17.1-8.568 22.14-7.38 4.932,1.152 7.344,5.904 7.38,14.4 7.596-6.408 13.932-9.468 19.008-9.72 4.968-.252 10.944,1.44 11.269,8.532 .216,7.128-2.269,23.22-9.685,33.408-7.524,9.973-19.045,18.72-34.957,26.389z" fill-rule="evenodd" stroke="#000" stroke-miterlimit="10" stroke-width=".036"/>
 <path d="m124.688,299.387c-5.437-5.112-8.928-12.132-10.908-21.744-2.016-9.648-3.24-28.008-.756-35.352 2.52-7.416 11.448-10.08 15.516-8.532 3.996,1.548 6.624,7.452 8.172,17.856 8.316-7.128 15.049-11.268 20.196-12.42 5.076-1.224 10.512-.612 10.476,5.436-.144,6.084-4.176,21.348-11.268,30.672-7.201,9.18-17.533,17.064-31.428,24.084z" fill="#fff" fill-rule="evenodd" stroke="#000" stroke-miterlimit="10" stroke-width=".036"/>
 <path d="m176.31 239.59c-2.124 15.552-3.708 28.764-5.04 40.752-1.368 11.844-2.232 21.636-2.736 29.916 2.34-14.508 4.104-27.36 5.437-39.24 1.258-11.916 2.087-22.212 2.339-31.428z" fill-rule="evenodd" stroke="#000" stroke-miterlimit="10" stroke-width=".036"/>
 <path d="m180.96 239.2c-2.124 15.516-3.708 28.836-5.04 40.788-1.296 11.879-2.195 21.564-2.7 29.879 2.341-14.544 4.104-27.288 5.437-39.204 1.295-11.915 2.015-22.175 2.303-31.463z" fill-rule="evenodd" stroke="#000" stroke-miterlimit="10" stroke-width=".036"/>
 <path d="m170.12 324.62c-2.088 22.392-3.78 41.76-5.076 58.932-1.296 17.064-2.195 31.32-2.699 43.2 2.34-20.916 4.104-39.528 5.436-56.664 1.259-17.136 2.087-32.112 2.339-45.468z" fill-rule="evenodd" stroke="#000" stroke-miterlimit="10" stroke-width=".036"/>
 <path d="m165.84 321.92c-2.124 22.428-3.708 41.688-5.04 58.896-1.367 17.064-2.231 31.32-2.735 43.2 2.34-20.916 4.104-39.527 5.436-56.664 1.259-17.172 2.087-32.041 2.339-45.432z" fill-rule="evenodd" stroke="#000" stroke-miterlimit="10" stroke-width=".036"/>
 <path d="m84.295,304.427c16.38-.108 31.465.72 45.828,2.34s27.288,4.032 39.601,7.38c-24.48-2.808-43.488-4.968-57.853-6.624-14.292-1.692-23.435-2.628-27.576-3.096z" fill-rule="evenodd" stroke="#000" stroke-miterlimit="10" stroke-width=".036"/>
 <path d="m173.972,312.959c16.38-.108 31.464.72 45.827,2.34s27.288,4.032 39.601,7.38c-24.48-2.808-43.488-5.004-57.853-6.588-14.292-1.656-23.436-2.7-27.575-3.132z" fill-rule="evenodd" stroke="#000" stroke-miterlimit="10" stroke-width=".036"/>
 <path d="m173.972,317.639c16.38-.107 31.464.72 45.827,2.34s27.288,4.032 39.601,7.38c-24.48-2.808-43.488-4.968-57.853-6.624-14.292-1.692-23.436-2.629-27.575-3.096z" fill-rule="evenodd" stroke="#000" stroke-miterlimit="10" stroke-width=".036"/>
 <path d="m191.863,308.314c-6.012-7.56-9.684-13.932-10.872-19.404-1.188-5.508.756-11.628 3.492-13.212 2.592-1.62 6.552-.504 12.023,3.492 2.881-3.384 5.725-4.716 8.532-4.284 2.772.432 7.488,3.6 8.172,6.984 .648,3.348-.828,8.316-4.283,12.816-3.672,4.465-9.18,8.82-17.064,13.608z" fill-rule="evenodd" stroke="#000" stroke-miterlimit="10" stroke-width=".036"/>
 <path d="m192.476,305.219c-4.933-6.228-7.885-11.376-8.856-15.84s.576-9.432 2.844-10.728c2.16-1.404 5.292-.324 9.828,2.844 2.305-2.736 4.716-3.852 6.948-3.492 2.232.252 6.012,3.024 6.624,5.688 .504,2.7-.648,6.732-3.456,10.44-2.989,3.636-7.489,7.2-13.932,11.088z" fill="#fff" fill-rule="evenodd" stroke="#000" stroke-miterlimit="10" stroke-width=".036"/>
 <path d="m100.207,376.283c-6.012-7.633-9.684-13.969-10.872-19.44-1.188-5.544.756-11.556 3.492-13.176 2.592-1.62 6.552-.504 12.024,3.492 2.952-3.385 5.76-4.717 8.567-4.284s7.416,3.6 8.137,6.983c.611,3.349-.757,8.316-4.248,12.816-3.6,4.465-9.251,8.821-17.1,13.609z" fill-rule="evenodd" stroke="#000" stroke-miterlimit="10" stroke-width=".036"/>
 <path d="m137.107,351.407c-6.012-7.561-9.685-13.933-10.872-19.404-1.188-5.508.756-11.628 3.492-13.212 2.592-1.62 6.552-.504 12.023,3.492 2.88-3.313 5.725-4.681 8.532-4.248 2.772.432 7.488,3.6 8.172,6.983 .648,3.349-.828,8.316-4.284,12.816-3.671,4.465-9.179,8.856-17.063,13.573z" fill-rule="evenodd" stroke="#000" stroke-miterlimit="10" stroke-width=".036"/>
 <path d="m137.72,348.311c-4.933-6.156-7.885-11.376-8.856-15.804-.972-4.536.576-9.468 2.844-10.764 2.16-1.404 5.292-.324 9.828,2.844 2.304-2.7 4.716-3.853 6.948-3.456 2.231.36 6.012,2.952 6.624,5.688 .504,2.7-.648,6.732-3.456,10.44-2.989,3.599-7.489,7.236-13.932,11.052z" fill="#fff" fill-rule="evenodd" stroke="#000" stroke-miterlimit="10" stroke-width=".036"/>
 <path d="m127.388,411.599c-6.013-7.56-9.685-13.932-10.872-19.404-1.188-5.508.756-11.628 3.491-13.212 2.593-1.62 6.553-.504 12.024,3.492 2.952-3.312 5.76-4.68 8.568-4.248s7.416,3.601 8.136,6.984c.612,3.348-.756,8.315-4.248,12.815-3.599,4.465-9.252,8.857-17.099,13.573z" fill-rule="evenodd" stroke="#000" stroke-miterlimit="10" stroke-width=".036"/>
 <path d="m128.035,408.503c-4.932-6.156-7.884-11.376-8.855-15.804-.973-4.536.575-9.469 2.844-10.765 2.052-1.403 5.364-.324 9.792,2.844 2.34-2.735 4.607-3.852 6.948-3.491 2.304.359 6.048,2.916 6.659,5.724 .505,2.736-.611,6.66-3.491,10.404-2.989,3.636-7.489,7.2-13.897,11.088z" fill="#fff" fill-rule="evenodd" stroke="#000" stroke-miterlimit="10" stroke-width=".036"/>
 <path d="m76.663,343.667c-3.06-7.128-4.428-12.601-4.248-17.101 .216-4.464 2.988-8.676 5.4-9.323 2.304-.721 5.076,1.044 8.46,5.147 2.952-1.908 5.292-2.448 7.416-1.476 2.052.972 4.896,4.248 4.788,7.056-.216,2.736-2.376,6.12-5.94,8.892-3.744,2.664-8.892,4.788-15.876,6.805z" fill-rule="evenodd" stroke="#000" stroke-miterlimit="10" stroke-width=".036"/>
 <path d="m54.127,389.099c-2.987-7.128-4.536-12.6-4.248-17.1 .181-4.464 3.061-8.677 5.437-9.324 2.304-.72 5.076,1.044 8.46,5.147 2.808-1.907 5.4-2.447 7.38-1.476 1.944.972 4.968,4.248 4.788,7.056-.216,2.736-2.376,6.12-5.94,8.893-3.744,2.664-8.893,4.788-15.877,6.804z" fill-rule="evenodd" stroke="#000" stroke-miterlimit="10" stroke-width=".036"/>
 <path d="m185.24 230.27 21.384-1.944c1.584 7.092 1.836 12.564 0.756 17.1-1.115 4.356-3.527 7.452-7.38 9.288-4.536-3.276-8.027-6.768-10.476-10.872-2.52-4.176-3.852-8.568-4.284-13.572z" fill-rule="evenodd" stroke="#000" stroke-miterlimit="10" stroke-width=".036"/>
 <path d="m259.399,286.571c-3.061-3.06-5.904-4.608-8.929-5.04-3.096-.432-7.416-.18-8.928,2.7-1.656,2.844-2.124,8.748 0,13.968 2.088,5.039 6.408,10.439 12.816,16.344 2.664-.433 5.076-2.772 7.38-7.021 2.231-4.319 4.355-10.476 6.228-18.612l-7.38,2.304c-.395-1.547-.791-3.095-1.187-4.643z" fill-rule="evenodd" stroke="#000" stroke-miterlimit="10" stroke-width=".036"/>
 <path d="m271.063,353.747c.827-2.736.144-5.364-2.341-8.172-2.556-2.916-7.812-7.236-12.42-8.532-4.68-1.368-11.195-1.477-15.12.792-3.995,2.304-6.804,6.479-8.567,12.815-7.236-10.151-13.824-15.804-20.196-17.1-6.516-1.296-15.012,2.736-17.855,9.324-2.88,6.516-5.832,17.136 1.151,29.52 7.093,12.384 20.412,26.641 40.788,43.884 6.084-3.96 11.269-7.848 15.552-11.663 4.248-3.889 7.561-7.597 10.08-11.269-3.239-4.355-5.004-8.712-5.436-13.212-.576-4.644.324-9.072 2.7-13.572 2.448-4.463 6.192-8.603 11.664-12.815z" fill-rule="evenodd" stroke="#000" stroke-miterlimit="10" stroke-width=".036"/>
 <path d="m331.651,375.131c-.648-.756-4.645,2.196-12.528,9.144-7.992,6.948-19.188,17.46-34.416,32.076-7.992-5.508-13.932-10.584-18.252-15.768-4.32-5.292-5.94-10.765-7.344-15.048-1.584-4.284-1.836-6.912-1.44-10.404 .396-3.708 1.584-7.884 3.96-10.729 2.269-2.987 6.372-6.191 9.828-6.119 3.384.144 6.984,3.455 10.404,7.164 3.24,3.563 8.676,9.323 9.504,14.363 .684,4.933-2.269,12.276-4.68,15.229-2.484,2.844-6.12,2.88-9.648,1.764-3.672-1.332-9.288-5.112-11.304-9.108-1.98-4.031-.792-11.592-.181-14.903 .576-3.492 1.729-5.292 3.744-5.544 1.836-.324 5.437,1.691 7.884,3.96 2.305,2.231 6.084,5.651 6.48,9.144 .252,3.456-2.16,10.116-4.32,11.088-2.231.685-7.056-3.924-8.784-6.443-1.836-2.557-2.231-7.272-1.764-8.604 .432-1.296 3.132-.972 4.645.54 1.403,1.296 3.779,7.056 3.924,7.704-.072.54-2.592-3.888-3.384-3.96-.757-.072-1.656,1.979-.9,3.24 .72,1.008 4.248,3.996 5.184,3.42 .721-.612.648-4.645-.359-6.84-1.225-2.305-3.96-6.013-5.725-6.805-1.728-.936-3.672.072-4.283,1.62-.721,1.44-.792,4.536.359,7.344 1.116,2.736 4.284,7.2 6.444,8.965 2.052,1.619 4.212,2.088 6.084.72 1.872-1.512 4.5-6.192 4.824-9.324 .144-3.276-1.549-6.516-3.564-9.324-2.124-2.771-6.156-5.939-8.784-7.164-2.735-1.332-5.399-2.195-7.164-.359-1.872,1.908-3.06,7.487-3.42,11.483-.396,3.925-2.376,7.164 1.261,11.809 3.6,4.572 10.26,9.72 20.268,15.588 11.196-9.612 20.412-16.561 28.476-21.672 7.919-5.043 14.147-7.743 18.971-8.247z" fill="#fff" fill-rule="evenodd" stroke="#000" stroke-miterlimit="10" stroke-width=".036"/>
 <path d="m274.951,354.898c5.328-4.536 11.52-8.964 19.008-13.571 7.488-4.681 16.056-8.965 25.272-13.969 9.107-5.184 21.779-11.844 28.728-15.947 6.768-4.068 10.548-6.732 11.628-8.137 3.744,3.564 6.984,5.58 10.116,6.192 3.023.54 8.1-.216 8.136-2.7-.036-2.556-2.7-6.696-8.136-12.42 2.736-4.392 7.056-9 12.816-14.364 5.832-5.544 14.472-13.644 21.743-17.496 7.164-3.852 14.652-6.408 20.952-5.04 6.12,1.368 13.104,8.136 15.948,13.212 2.808,5.076 3.708,10.836.756,16.704-3.204,5.688-11.664,12.204-19.404,17.459-7.956,5.148-17.855,9.072-27.18,13.572-9.288,4.428-18.468,8.568-27.972,12.816 .18-5.328-.504-9.576-2.34-13.176-1.908-3.564-7.488-7.956-8.532-8.173-1.116-.359 1.332,3.853 2.34,6.229 .936,2.304 3.204,4.284 3.888,7.74 .612,3.456.612,7.596 0,12.815-10.439,6.769-18.288,12.42-23.688,17.101s-5.616,8.027-8.568,10.872c-3.132,2.592-7.308,3.563-9.324,5.436-1.979,1.872 2.484,2.016-2.304,5.832-4.968,3.78-13.716,9.216-26.784,16.704 2.736-6.192 3.816-11.628 3.097-16.704-.792-5.22-4.032-10.08-7.381-13.608-3.419-3.562-7.595-5.974-12.815-7.379z" fill="#fff" fill-rule="evenodd" stroke="#000" stroke-miterlimit="10" stroke-width=".036"/>
 <path d="m424.46 311.02c0.18 2.484 1.08 5.256 2.7 8.172 1.656 2.916 3.888 5.977 6.983 9.324-9.035 2.592-18.432 5.004-28.331 7.38-10.044 2.34-24.517 4.68-31.068 6.588-6.552 1.836-9.216 3.168-8.136 4.284l1.548-12.024c15.84-6.228 27.288-10.764 35.315-13.607 7.704-2.952 8.172-1.8 11.664-3.492 3.529-1.729 6.589-3.889 9.325-6.625z" fill="#fff" fill-rule="evenodd" stroke="#000" stroke-miterlimit="10" stroke-width=".036"/>
 <path d="m359.983,343.271c-3.744.937-8.064,3.78-12.816,8.532-4.824,4.788-10.08,11.196-15.912,19.8 6.769-4.859 12.24-9 17.101-12.42 4.68-3.492 8.424-6.12 11.231-8.172 .108-2.556.252-5.149.396-7.74z" fill="#fff" fill-rule="evenodd" stroke="#000" stroke-miterlimit="10" stroke-width=".036"/>
 <path d="m358.831,398.387c-5.544,3.024-9.9,6.3-13.212,10.116-3.42,3.672-6.264,7.992-6.588,12.42-.433,4.428 1.116,9.828 4.644,13.968 3.456,4.068 8.893,7.309 16.309,10.116-7.74-6.12-12.528-11.952-14.364-17.496-1.908-5.76.792-11.016 3.096-15.912 2.231-4.896 5.472-9.252 10.115-13.212z" fill="#fff" fill-rule="evenodd" stroke="#000" stroke-miterlimit="10" stroke-width=".036"/>
 <path d="m328.915,267.167c-.576,1.764-3.168,3.996-7.776,6.984-4.752,2.88-11.34,6.372-20.159,10.476 1.764,2.556 3.348,4.5 5.04,5.832 1.584,1.26 3.132,1.908 4.644,1.943 7.884-5.543 11.88-8.136 12.42-7.775 .36.36-9.396,8.28-9.684,9.72-.288,1.152 7.199-2.556 7.739-1.944 .396.685-4.392,2.664-5.04,5.797-.72,3.096-.144,9.323 1.188,12.455 1.26,2.988 3.456,4.753 6.588,5.437 .396-7.344 2.34-13.176 6.229-17.892 3.852-4.717 11.304-8.532 16.668-10.081 5.256-1.656 9.863-1.476 14.399.396-3.528-3.24-7.271-5.004-11.664-5.436-4.536-.468-12.563,3.168-14.364,2.7-1.691-.612 4.86-5.076 4.248-6.192-.827-1.152-7.56.108-8.531-.792-.937-1.044 2.987-3.096 2.735-5.04-.396-1.944-1.907-4.14-4.68-6.588z" fill="#fff" fill-rule="evenodd" stroke="#000" stroke-miterlimit="10" stroke-width=".036"/>
</svg>
