<?xml version="1.0" encoding="UTF-8"?>
<svg width="32mm" height="30.94mm" version="1.1" viewBox="0 0 113.38582 109.62873" xmlns="http://www.w3.org/2000/svg" xmlns:xlink="http://www.w3.org/1999/xlink">
 <defs>
  <pattern id="l" patternTransform="matrix(1.5329 0 0 1.639 -2.8795 951.79)" xlink:href="#b"/>
  <pattern id="k" patternTransform="matrix(1.4926 0 0 1.5657 -93.605 849.05)" xlink:href="#a"/>
  <pattern id="j" patternTransform="matrix(1.4926 0 0 1.5657 -93.517 848.88)" xlink:href="#a"/>
  <pattern id="i" patternTransform="matrix(1.4926 0 0 1.5657 -93.605 849.05)" xlink:href="#a"/>
  <pattern id="h" patternTransform="matrix(1.4926 0 0 1.5657 -93.605 849.05)" xlink:href="#a"/>
  <pattern id="a" patternTransform="matrix(1.444 0 0 1.5147 -90.51 855.6)" xlink:href="#b"/>
  <pattern id="b" width="10" height="10" patternTransform="translate(0) scale(10)" patternUnits="userSpaceOnUse">
   <circle cx="2.567" cy=".81" r=".45"/>
   <circle cx="3.048" cy="2.33" r=".45"/>
   <circle cx="4.418" cy="2.415" r=".45"/>
   <circle cx="1.844" cy="3.029" r=".45"/>
   <circle cx="6.08" cy="1.363" r=".45"/>
   <circle cx="5.819" cy="4.413" r=".45"/>
   <circle cx="4.305" cy="4.048" r=".45"/>
   <circle cx="5.541" cy="3.045" r=".45"/>
   <circle cx="4.785" cy="5.527" r=".45"/>
   <circle cx="2.667" cy="5.184" r=".45"/>
   <circle cx="7.965" cy="1.448" r=".45"/>
   <circle cx="7.047" cy="5.049" r=".45"/>
   <circle cx="4.34" cy=".895" r=".45"/>
   <circle cx="7.125" cy=".34" r=".45"/>
   <circle cx="9.553" cy="1.049" r=".45"/>
   <circle cx="7.006" cy="2.689" r=".45"/>
   <circle cx="8.909" cy="2.689" r=".45"/>
   <circle cx="9.315" cy="4.407" r=".45"/>
   <circle cx="7.82" cy="3.87" r=".45"/>
   <circle cx="8.27" cy="5.948" r=".45"/>
   <circle cx="7.973" cy="7.428" r=".45"/>
   <circle cx="9.342" cy="8.072" r=".45"/>
   <circle cx="8.206" cy="9.315" r=".45"/>
   <circle cx="9.682" cy="9.475" r=".45"/>
   <circle cx="9.688" cy="6.186" r=".45"/>
   <circle cx="3.379" cy="6.296" r=".45"/>
   <circle cx="2.871" cy="8.204" r=".45"/>
   <circle cx="4.59" cy="8.719" r=".45"/>
   <circle cx="3.181" cy="9.671" r=".45"/>
   <circle cx="5.734" cy="7.315" r=".45"/>
   <circle cx="6.707" cy="6.513" r=".45"/>
   <circle cx="5.73" cy="9.67" r=".45"/>
   <circle cx="6.535" cy="8.373" r=".45"/>
   <circle cx="4.37" cy="7.154" r=".45"/>
   <circle cx=".622" cy="7.25" r=".45"/>
   <circle cx=".831" cy="5.679" r=".45"/>
   <circle cx="1.257" cy="8.519" r=".45"/>
   <circle cx="1.989" cy="6.877" r=".45"/>
   <circle cx=".374" cy="3.181" r=".45"/>
   <circle cx="1.166" cy="1.664" r=".45"/>
   <circle cx="1.151" cy=".093" r=".45"/>
   <circle cx="1.151" cy="10.093" r=".45"/>
   <circle cx="1.302" cy="4.451" r=".45"/>
   <circle cx="3.047" cy="3.763" r=".45"/>
  </pattern>
 </defs>
 <g transform="translate(2.0238 -944.1)" fill-rule="evenodd">
  <path d="m13.743 1034.4c5.3934-2.5655 12.83-3.9904 16.647-3.6242 6.7026 0.6431 13.243 4.4869 17.583 7.4408 2.6473 1.8019 12.577 8.669 19.651 11.143-2.8743 0.7948-15.21-1.5227-19.72-3.0822-6.1228-2.1169-15.223-9.0195-20.481-8.9533-9.4342 0.1186-17.024 2.9967-22.663 5.4666 0 0 2.8285-5.4634 8.9835-8.391z" fill="#002bd2" stroke="#f00" stroke-linejoin="round" stroke-width=".35433"/>
  <path d="m13.743 1034.4c5.3934-2.5655 12.83-3.9904 16.647-3.6242 6.7026 0.6431 13.243 4.4869 17.583 7.4408 2.6473 1.8019 12.577 8.669 19.651 11.143-2.8743 0.7948-15.21-1.5227-19.72-3.0822-6.1228-2.1169-15.223-9.0195-20.481-8.9533-9.4342 0.1186-17.024 2.9967-22.663 5.4666 0 0 2.8285-5.4634 8.9835-8.391z" fill="url(#h)" opacity=".263" stroke="#f00" stroke-linejoin="round" stroke-width=".35433"/>
  <path d="m29.283 1018.8c6.4724 0.2355 12.831 2.0949 17.695 4.6766 6.8745 3.649 16.114 9.105 20.589 11.848 3.3715 2.066 12.632 5.9095 17.271 5.8504 6.0837-0.077 10.956-2.0216 14.125-4.2368 2.6001-1.8176 4.6144-3.8881 7.3678-6.5584 0.11753 9.6601-9.9334 17.619-21.182 18.064-4.5664 0.1809-11.96-1.7812-17.732-5.1926-5.7555-3.4018-16.513-11.043-22.951-13.863-5.525-2.4198-11.271-3.8534-15.603-4.3044-10.373-1.0799-19.8 4.6476-26.116 7.77 5.4512-9.964 18.718-14.338 26.537-14.054z" fill="#418be4" stroke="#f00" stroke-linejoin="round" stroke-width=".35433"/>
  <path d="m29.283 1018.8c6.4724 0.2355 12.831 2.0949 17.695 4.6766 6.8745 3.649 16.114 9.105 20.589 11.848 3.3715 2.066 12.632 5.9095 17.271 5.8504 6.0837-0.077 10.956-2.0216 14.125-4.2368 2.6001-1.8176 4.6144-3.8881 7.3678-6.5584 0.11753 9.6601-9.9334 17.619-21.182 18.064-4.5664 0.1809-11.96-1.7812-17.732-5.1926-5.7555-3.4018-16.513-11.043-22.951-13.863-5.525-2.4198-11.271-3.8534-15.603-4.3044-10.373-1.0799-19.8 4.6476-26.116 7.77 5.4512-9.964 18.718-14.338 26.537-14.054z" fill="url(#i)" opacity=".253" stroke="#f00" stroke-linejoin="round" stroke-width=".35433"/>
  <path d="m34.942 1006.6c4.5783 0.1003 16.578 4.5431 20.517 6.9407 5.0106 3.0494 11.297 7.2232 16.98 10.046 5.6518 2.8077 9.2807 3.6248 13.145 3.654 4.7914 0.036 9.5557-2.0277 12.738-4.2261 3.5349-2.4421 6.1609-4.2982 7.5356-5.6671 0.65921 2.2097-2.5695 8.7758-7.7567 12.012-5.3434 3.3339-7.701 5.2539-14.429 5.0209-3.6556-0.1267-11.275-4.0221-15.742-6.9088-5.615-3.6289-12.6-7.2994-19.039-10.12-5.525-2.4199-13.265-4.1287-17.601-4.546-9.6634-0.9301-18.463 3.4333-27.679 7.5016 7.2072-8.2775 20.571-13.945 31.33-13.708z" fill="#00168c" stroke="#f00" stroke-linejoin="round" stroke-width=".35433"/>
  <path d="m34.942 1006.6c4.5783 0.1003 16.578 4.5431 20.517 6.9407 5.0106 3.0494 11.297 7.2232 16.98 10.046 5.6518 2.8077 9.2807 3.6248 13.145 3.654 4.7914 0.036 9.5557-2.0277 12.738-4.2261 3.5349-2.4421 6.1609-4.2982 7.5356-5.6671 0.65921 2.2097-2.5695 8.7758-7.7567 12.012-5.3434 3.3339-7.701 5.2539-14.429 5.0209-3.6556-0.1267-11.275-4.0221-15.742-6.9088-5.615-3.6289-12.6-7.2994-19.039-10.12-5.525-2.4199-13.265-4.1287-17.601-4.546-9.6634-0.9301-18.463 3.4333-27.679 7.5016 7.2072-8.2775 20.571-13.945 31.33-13.708z" fill="url(#j)" opacity=".259" stroke="#f00" stroke-linejoin="round" stroke-width=".35433"/>
  <path d="m83.393 957.02c-1.9781 0.0319-3.7875 0.17485-5.4872 0.44415 0.82826 2.032 1.8739 4.8158 2.255 6.9609 0.59367 3.341 0.81154 6.9034 0.12517 10.363-1.103 5.5591-2.6276 10.447-6.0666 15.176-0.74183 1.02-1.5922 2.854-3.0464 4.1386-0.85041 0.75123-2.7872 2.5455-4.8542 3.5218-0.20369-1.509 0.06595-3.3496 0.32802-5.1166 0.47239-3.1852 0.20474-7.1051-0.09489-8.8404-0.37902-2.1952-0.70059-4.5671-1.3607-6.2927-0.66009-1.7256-1.3791-2.6373-2.9414-2.8405-1.8034-0.23455-3.2793 0.75519-4.613 2.6225s-2.2931 4.5198-2.6669 6.761c-0.96371 5.7796 2.9452 14.065 6.8256 19.157 3.6121 4.7397 10.576 8.4281 16.391 11.192 2.9048 1.3806 6.4805 1.6596 9.436 1.393 1.2282-0.1108 2.2979-0.3216 3.1998-0.5552-4.2039-4.4194-9.4273-12.19-10.118-19.968-0.63774-7.178 1.5955-12.963 6.2301-14.75 3.3179-1.2788 6.5878-0.13996 8.8728 1.4011 3.4028 2.2949 7.1477 10.086 8.7173 15.813 3.9486-7.7804 1.806-18.813-0.69853-24.807-4.1849-10.017-13.211-15.889-20.433-15.773z" fill="#418be4"/>
  <path d="m88.726 979.73c-0.77152-3.6664-2.0139-6.4706 0-11.375 3.9907-0.15738 5.3006 1.491 7.25 3.25 1.6101-1.1958 2.7033-3.1153 5.875-2.125 2.4324 4.1926 4.5457 8.7043 5 14.875 0.02 4.895-0.17428 9.5757-2.125 12.5-1.5677-5.3807-3.755-10.7-8.625-15.75-3.1462-2.0633-5.1889-1.5518-7.375-1.375z" fill="#f2f2f2"/>
  <path d="m83.393 957.02c-1.9781 0.0321-3.7875 0.17479-5.4872 0.44405 0.82826 2.032 1.8739 4.8158 2.255 6.961 0.59367 3.341 0.81154 6.9034 0.12517 10.363-1.103 5.5591-2.6276 10.447-6.0666 15.176-0.74183 1.02-1.5922 2.8539-3.0464 4.1386-0.85041 0.75115-2.7872 2.5454-4.8542 3.5217-0.20369-1.509 0.06595-3.3496 0.32802-5.1166 0.47239-3.1852 0.20474-7.105-0.09489-8.8404-0.37902-2.1952-0.70059-4.5671-1.3607-6.2927-0.66009-1.7256-1.3791-2.6373-2.9414-2.8405-1.8034-0.23453-3.2793 0.75518-4.613 2.6224s-2.2931 4.5198-2.6669 6.761c-0.96371 5.7796 2.9452 14.065 6.8256 19.157 3.6121 4.7397 10.576 8.4281 16.391 11.192 2.9048 1.3806 6.4805 1.6596 9.436 1.393 1.2282-0.1108 2.2979-0.3216 3.1998-0.5552-4.2039-4.4194-9.4273-12.19-10.118-19.968-0.63774-7.1781 1.5955-12.963 6.2301-14.75 3.3179-1.2787 0.69193-9.802 1.3597-12.476 1.0163-4.0691 6.529 0.0103 8.0986 5.7372 3.9486-7.7803 4.988-2.991 7.4332-0.85411-4.1849-10.017-13.211-15.889-20.433-15.773z" fill="url(#l)"/>
  <path d="m83.934 956.26c-2.3658 0.0381-4.5156 0.23909-6.545 0.60968 0.27689 0.6594 0.5643 1.3585 0.89636 2.2328 1.7304-0.23548 3.5793-0.34263 5.6265-0.34119 6.5424 4e-3 14.748 6.3898 18.721 14.832 2.0378 4.3307 4.1799 14.1 2.4387 20.626-0.54516-1.2914-1.9662-5.7435-2.7496-7.2516-1.6148-3.1085-3.4341-5.0644-5.5336-6.4804-2.4157-1.6292-5.8157-3.4641-9.7489-1.9482-5.5013 2.1203-8.4415 8.9293-7.7462 16.754 0.50368 5.6691 2.788 10.886 5.5982 15.236 1.2396 1.9187 2.9395 3.5907 4.4879 5.0107 0.67747-0.1238 1.2911-0.2695 1.8028-0.4239 0.1627-0.049 0.30252-0.1085 0.44616-0.1656-1.4522-1.459-3.1765-3.5134-4.7321-5.9212-2.6088-4.0381-4.8373-9.0678-5.2671-13.906-0.58026-6.5311 2.6782-12.528 6.4461-13.98 2.7026-1.0416 5.2812 0.20058 7.4353 1.6534 2.7738 1.8707 6.4208 8.0108 7.8997 13.407l1.1124 4.0578 1.6211-3.8458c3.258-7.7249 1.2076-17.636-1.4293-23.947-4.3974-10.525-12.88-16.337-20.78-16.209zm-9.4602 1.286c-6.0597 1.7526-11.231 5.4441-17.99 12.022-6.5782 6.4023-12.81 16.297-12.25 29.461l0.04037 0.97908 0.81157 0.4058c5.9389 2.9823 12.16 7.2519 17.546 11.039 5.3859 3.7869 9.7849 7.0674 12.828 8.2348 7.1898 2.7582 13.167 2.084 18.355 0.2644l3.2887-1.1547-2.9556-1.7382c-0.59569 0.402-1.2688 0.6051-2.1198 0.862-1.2002 0.3623-2.6888 0.6573-4.3546 0.8075-3.3316 0.3005-7.3723 0.04-10.96-1.6655-5.8874-2.799-13.219-6.4986-17.461-12.064-0.30967-0.4063-0.61896-0.8605-0.92866-1.2981-0.1417 0.2701-0.28245 0.5399-0.42799 0.7954-3.3765-2.3003-3.6846-2.5046-7.3102-4.5383 0.40056-2.6944 0.81591-6.0406 1.6797-8.9555-0.36729-1.5468-0.59104-3.1008-0.60767-4.6292-0.15872 0.31113-0.3166 0.62133-0.47039 0.95087-1.5196 3.2562-2.9538 7.147-3.5976 10.859-0.24371-0.12982-0.16424-0.0551-0.4078-0.1817-0.17397-11.453 5.0047-21.135 11.055-27.024 6.7502-6.5696 11.416-9.8867 17.089-11.314-0.31853-0.82514-0.60805-1.5262-0.85195-2.1178zm9.9629 3.7328c-0.88699-0.0225-1.7892 0.032-2.6992 0.15343-0.82083 0.10958-1.6468 0.28883-2.471 0.49865 0.21423 0.6899 0.39012 1.3542 0.53095 1.9865 2.4272-0.61995 4.8107-0.82255 6.8781-0.36137 2.7249 0.60783 5.6133 1.5704 8.0006 3.5067 1.4587 1.1831 3.3673 2.6322 4.6897 4.5989-0.69315-2.6218-2.3329-4.2024-3.7348-5.473-2.8643-2.5959-5.3668-3.8799-8.5901-4.5989-0.84554-0.18861-1.7173-0.28841-2.6043-0.3109zm-7.9824 1.5464c-3.6527 1.3737-7.1077 3.4763-9.7085 5.6103-0.88923 0.72961-2.2604 1.9352-3.8257 3.4522 0.72478 0.15935 1.3716 0.43688 1.9401 0.81359 1.2184-1.1511 2.2781-2.0797 2.9838-2.6588 2.4222-1.9874 5.7284-3.9499 9.1534-5.2409-0.11933-0.56961-0.3066-1.2424-0.54306-1.9764zm10.357 4.0922c-2.2816 0.0539-4.3588 0.53767-6.3835 1.506 0.05225 0.76658 0.07244 1.5388 0.06259 2.3116 2.3868-1.3525 4.6521-1.9448 7.7099-1.7927 2.8355 0.141 6.2182 1.5173 9.113 4.2516 1.3685 1.2927 3.1881 2.7239 4.292 4.9239-0.17868-2.1386-1.1823-3.9159-2.4973-5.2712-3.2798-3.3803-7.0817-5.7209-10.825-5.9071-0.50044-0.0249-0.99074-0.0336-1.4717-0.0222zm-11.45 5.2702c-2.207 1.1552-4.0504 2.8404-5.6371 4.9209-0.45704 0.59928-0.89354 1.1855-1.3122 1.7665 0.2085 0.90192 0.3636 1.7646 0.50673 2.6386 0.65025-0.93454 1.3152-1.8142 1.9764-2.6083 1.792-2.1524 4.0643-4.2656 6.5349-6.113 0.09618-0.87257 0.13824-1.7598-2.0688-0.60462zm15.24 1.0366c-1.0192 0.0168-2.0299 0.17717-3.0081 0.44415-2.6084 0.71197-5.0091 2.1748-6.8701 3.8338-0.53494 0.47687-1.1024 1.106-1.6776 1.827-1.0504 3.8101-2.5347 7.3412-5.039 10.785-0.22616 0.31097-0.63805 0.86583-0.92866 1.2618-0.49293 2.7845-0.47918 6.4492-0.44414 10.274 0.02525 2.7567 0.44728 5.4509 0.60363 8.901 0.02299 0.5071 0.02121 1.0081 0.01211 1.4959 1.052 0.561 2.0964 1.09 3.1272 1.5949-0.16709-0.7411-0.32213-1.4083-0.5148-2.3338-0.6903-3.316-1.3753-7.3013-1.397-9.6782-0.04457-4.8652 0.09279-9.5748 0.84993-11.63 1.6776-4.5548 4.7196-9.2948 6.5652-10.94 1.669-1.4878 3.8675-2.8196 6.1554-3.4441 0.85798-0.23419 1.7243-0.37011 2.5841-0.3856 1.4331-0.0258 2.8482 0.28544 4.177 1.0437 1.3451 0.76764 3.2519 1.8184 4.8391 3.6521 0.90982 1.0511 2.205 2.283 3.7147 5.5982 0.0495-2.7586-0.62035-4.5857-2.3863-6.6258-1.7659-2.0401-3.7994-3.5364-5.3216-4.4051-1.2969-0.74013-2.6575-1.1256-4.0195-1.2355-0.34051-0.0275-0.6818-0.0379-1.0215-0.0323zm-29.227 1.4273c-0.54232 0.0208-1.0505 0.17226-1.5383 0.41587-1.2273 1.3439-2.4626 2.8146-3.6278 4.3667-0.69735 1.4948-1.2046 3.1523-1.4515 4.6332-0.08271 0.49604-0.1172 1.015-0.13122 1.5444 1.0613-2.0107 1.9878-3.534 2.3418-4.0296 1.7692-2.4766 3.8267-4.7956 5.7294-6.7469-0.20409-0.0657-0.41867-0.12-0.66016-0.15141-0.22543-0.0293-0.44662-0.0406-0.66218-0.0323zm4.716 7.7321c-0.37298 0.62468-0.73362 1.2646-1.0841 1.932-1.6436 3.1297-4.1125 8.51-5.0087 14.047-0.11883 0.73419-0.25453 1.3602-0.39771 1.9361 0.64785 1.0429 1.3109 2.0441 1.9825 2.9252 0.12377 0.1624 0.26019 0.3206 0.39165 0.4805 0.02302-1.2855 0.11262-2.8642 0.35531-4.8633 0.60758-5.0049 2.5959-10.235 4.1002-13.195 0.01206-0.7204-0.0097-1.3589-0.09085-1.8291-0.08174-0.47345-0.16794-0.95173-0.24832-1.4334z" color="#000000" color-rendering="auto" image-rendering="auto" shape-rendering="auto" solid-color="#000000" style="block-progression:tb;isolation:auto;mix-blend-mode:normal;text-decoration-color:#000000;text-decoration-line:none;text-decoration-style:solid;text-indent:0;text-transform:none;white-space:normal"/>
  <path d="m4.0926 1012.3c6.3413-15.563 22.46-42.476 30.092-50.581 6.5045-6.9073 11.703-12.681 25.017-12.995 7.2203-0.17064 16.496 7.575 17.454 19.46 0.57501 7.131-3.0857 16.068-7.1146 21.911 0.48056-5.5378-0.33863-12.839-2.1736-15.891-1.707-2.8395-5.3715-3.8161-8.6894-2.5374-4.6346 1.7862-8.1195 8.0802-7.561 15.275 1.0442 13.452 7.3147 20.454 12.432 23.645-7.901-4.1228-16.147-8.2154-31.256-9.4578-8.9167-0.7332-21.253 5.3038-28.201 11.172z" fill="#002bd2" stroke="#00f" stroke-width=".35433"/>
  <path d="m64.476 970.86c-0.98428-2.1303-2.6371-5.3252-0.875-6.875 1.4708-1.2936 6.3596-1.4953 8.125 1.875 1.8897-1.8752 3.75-2.125 4.375 0.25 2.0036 11.214-3.3071 18.639-6.125 23.125 0 0 0.88384-10.333-1.625-14.5-1.1446-1.9009-2.9443-1.8607-3.875-3.875z" fill="#f9f9f9"/>
  <path d="m4.0926 1012.3c6.3413-15.563 22.46-42.476 30.092-50.581 6.5045-6.9073 11.703-12.681 25.017-12.995 7.2203-0.17065 16.761 7.4865 17.72 19.371-2.2784-3.6344-3.1522-0.59057-6.0149-2.9038-2.8539-1.7873-4.7665-3.7466-6.3146-1.9663-1.7474 2.0095-0.99757 5.1523 1.1851 9.8295-2.1489-1.602-3.7805-2.667-7.0984-1.3882-4.6346 1.7862-8.1195 8.0802-7.561 15.275 1.0442 13.452 7.3147 20.454 12.432 23.645-7.901-4.1228-16.147-8.2154-31.256-9.4578-8.9167-0.7332-21.253 5.3038-28.201 11.172z" fill="url(#k)"/>
  <path d="m59.687 947.65c-13.64 0.32237-19.534 5.7279-26.069 12.667-8.0329 8.5303-22.923 33.614-29.376 49.452l-2.0395 5.5077 4.2723-3.3306c4.4775-3.4905 17.774-10.156 26.162-9.4665 14.883 1.2238 23.578 5.2715 31.318 9.8732l0.4502-2.1405c-1.2758-0.8039-2.4477-1.899-3.5332-3.2133-3.6406-4.4078-8.1693-11.02-8.9392-20.938-0.50086-6.4528 3.9057-12.449 7.6857-13.906 2.6036-1.0034 5.6494 0.47154 6.9791 2.6834 1.6045 2.669 2.84 7.3391 2.3903 12.521l-0.48856 5.639 3.1171-4.5196c4.2005-6.0922 6.4642-13.124 5.8546-20.684-1.0177-12.621-9.6805-20.336-17.784-20.145zm15.381 20.428c0.40488 5.021-1.5607 12.363-3.7086 16.769 0.40075-4.5477-0.91779-9.4483-2.3156-11.773-2.0843-3.4671-6.3667-5.5029-10.399-3.9488-5.4891 2.1156-9.731 9.5561-9.115 17.492 0.63646 8.1998 3.8648 14.186 7.4878 18.605-3.5653-1.5076-9.3467-3.3347-11.525-3.9202 0 0-2.1803-6.2414-2.225-11.118-0.04297-4.6906 1.1556-9.2946 2.0148-11.627 1.6586-4.5033 4.895-8.7995 6.8216-10.517 3.2878-2.9309 8.7531-4.6708 13.046-2.2211 2.7046 1.5435 6.4647 4.44 6.9427 9.548 0.57221-2.9861-0.23587-5.5896-1.3014-7.0759-1.413-1.9711-3.207-3.3464-4.7954-4.2529-1.2868-0.73433-2.634-1.1584-3.9912-1.3296-4.0718-0.51359-8.226 1.2543-11.055 3.7763-2.2807 2.0331-5.5564 6.4048-7.3667 11.32-0.94741 2.5723-2.1925 7.3292-2.146 12.4 0.03777 4.1224-0.27623 7.7308-0.39771 9.9417-3.1203-0.67102-4.4454-0.55773-8.1823-0.86503-0.77771-0.0641-1.0539-0.1535-1.8533-0.14554 0.10742-2.0868 0.0061-6.5023 0.94683-11.47 0.896-4.7316 3.4655-9.5832 4.9643-12.035 2.9804-4.8746 7.2239-9.4645 9.3855-11.238 4.7984-3.9371 10.107-5.704 16.12-4.3625 4.3117 0.96178 9.5555 3.5654 10.781 10.948 0.52875-2.4536-0.41991-5.5069-1.5015-7.0781-2.3571-3.4243-5.787-5.1389-8.9157-5.8368-1.6341-0.36451-3.2293-0.51339-4.7846-0.46678-4.6658 0.13983-8.962 2.043-12.797 5.1899-2.44 2.002-6.6801 6.612-9.8075 11.727-1.6642 2.7218-4.3958 7.823-5.6002 12.778-1.1782 4.8467-2.0247 10.091-2.1137 12.054-2.824 0.20197-4.7584 0.73262-7.611 1.6348 0.4698-2.3604 1.5025-6.873 3.3654-11.32 2.8077-6.7026 7.3968-14.565 9.8923-18.058 3.7436-5.2404 8.4547-9.4384 10.556-11.163 4.8087-3.9455 11.386-6.8106 17.283-5.4952 4.4189 0.98571 8.3492 2.2819 11.077 7.5813-0.30244-2.183-1.2226-4.0384-2.819-5.6348-2.238-2.238-4.9265-3.2515-7.8929-3.9132-1.6632-0.37099-3.3483-0.45088-5.0188-0.29865-5.0117 0.45672-9.9004 3.0138-13.728 6.1544-2.1889 1.796-6.9905 6.0601-10.9 11.532-2.6417 3.698-6.999 11.664-10.116 18.459-2.6308 5.7342-5.2444 11.676-5.5195 13.267-3.0634 1.1306-6.6085 3.6531-9.2967 5.3315 7.0785-15.347 21.868-38.376 28.381-45.292 6.4743-6.8753 13.494-11.386 23.159-11.403 9.0814-0.0159 15.676 6.2031 16.575 17.352z" color="#000000" color-rendering="auto" image-rendering="auto" shape-rendering="auto" solid-color="#000000" style="block-progression:tb;isolation:auto;mix-blend-mode:normal;text-decoration-color:#000000;text-decoration-line:none;text-decoration-style:solid;text-indent:0;text-transform:none;white-space:normal"/>
  <path d="m33.3 1006c-17.541 0.6716-30.289 12.248-31.11 15.848 9.2747-4.0943 20.049-8.9627 29.289-8.0734 4.1717 0.4015 10.724 2.1976 16.342 4.2376 5.1504 1.87 10.697 5.1704 17.445 9.3876 2.1932 1.3706 5.4238 3.2699 8.5921 4.8552s7.7226 3.2498 11.221 3.3553c5.1111 0.1541 10.348-2.8593 15.19-7.0518 4.5964-3.98 6.0453-8.1218 6.0686-11.947-4.7939 2.805-6.5361 4.7062-10.286 7.1022-3.3373 2.1324-6.7238 2.8519-11.318 2.669-7.0182-0.2795-11.601-3.0533-16.195-5.8466-5.4055-3.2863-10.391-6.5532-16.262-9.5612-6.7305-3.4482-14.235-5.1559-18.977-4.9744zm-0.04037 1.8311c4.4127 0.097 11.765 1.4853 18.182 4.7725 5.7663 2.9543 10.708 6.1903 16.147 9.4966 4.6419 2.822 9.6444 5.9464 17.073 6.2423 4.9818 0.1983 8.5726-1.0348 12.091-3.1999 2.0481-1.2603 5.7406-4.5057 8.2045-6.21-0.89915 1.8801-2.3102 5.333-5.3701 7.9825-4.6806 4.053-8.042 6.372-14.445 6.7369-3.6454 0.2077-7.3735-1.4882-10.464-3.0344-3.09-1.5461-6.2907-3.4255-8.4427-4.7705-6.765-4.2277-12.388-7.5959-17.79-9.5571-5.7206-2.077-12.291-3.9054-16.791-4.3385-8.8392-0.8507-18.038 2.6819-26.473 7.4193 6.7671-6.8997 18.946-11.74 28.078-11.54z" color="#000000" color-rendering="auto" image-rendering="auto" shape-rendering="auto" solid-color="#000000" style="block-progression:tb;isolation:auto;mix-blend-mode:normal;text-decoration-color:#000000;text-decoration-line:none;text-decoration-style:solid;text-indent:0;text-transform:none;white-space:normal"/>
  <path d="m30.972 1017.8c-4.0255-0.1465-9.7902 0.3986-15.468 2.683-5.6781 2.2845-10.5 6.4712-13.984 13.29 2.5699-0.4072 7.9106-3.5689 13.559-5.5953 4.9919-1.791 10.167-2.5255 14.699-2.1388 4.2478 0.3625 7.7868 1.445 13.264 3.8438 6.2904 2.7552 15.126 8.7572 21.256 12.751 1.9723 1.2848 6.7682 4.0277 10.682 5.261 3.9134 1.2334 7.793 1.6078 10.31 1.5081 5.7987-0.2297 11.091-2.1099 15.171-5.7799 4.0806-3.67 6.0129-8.0735 7.0114-15.27-3.1368 3.0843-8.0721 7.146-10.137 8.5578-3.3108 2.2644-8.7455 3.398-13.294 3.3916-2.609 0-9.0183-1.723-12.165-3.5309-4.5055-2.5883-13.556-8.3129-20.487-11.992-4.9115-2.607-13.592-6.7307-20.416-6.979zm-0.06662 1.829c6.1244 0 14.809 4.211 19.625 6.7672 6.8183 3.6191 15.836 9.3206 20.433 11.961 3.5958 2.0658 9.7629 3.7688 13.074 3.7753 4.775 0.01 10.67-0.7896 14.439-3.7893 2.7412-2.1817 4.9081-3.7118 7.1103-6.5329-1.2902 4.8314-3.393 7.7927-6.3492 10.451-3.7277 3.3525-8.5706 5.094-14.021 5.3095-2.0493 0.081-5.7668-0.2287-9.5571-1.4233-3.7903-1.1945-8.1876-3.7165-10.34-5.0349-4.8412-2.9647-14.956-10.023-21.037-12.686-6.0812-2.6632-9.8908-3.7509-14.315-4.2115-5.3199-0.5539-10.574 0.3341-15.561 2.2115-3.7251 1.4024-7.4152 3.5283-10.254 5.0906 3.204-4.5609 7.5854-7.5452 12.034-9.3351 5.3712-2.161 10.923-2.5538 14.719-2.5538z" color="#000000" color-rendering="auto" image-rendering="auto" shape-rendering="auto" solid-color="#000000" style="block-progression:tb;isolation:auto;mix-blend-mode:normal;text-decoration-color:#000000;text-decoration-line:none;text-decoration-style:solid;text-indent:0;text-transform:none;white-space:normal"/>
  <path d="m13.326 1033.9c-6.3402 3.0051-9.2568 7.8524-10.972 11.21 2.4437-2.0512 6.8009-3.5128 11.61-4.823 4.8094-1.3102 9.9568-2.1052 14.259-1.726 4.8919 0.4311 8.9766 3.6938 14.988 6.6661 4.8448 2.3956 9.9102 4.0768 16.179 4.6803 3.177 0.3059 7.4976 0.5305 10.692-0.3398-1.5749-0.9313-5.1568-2.0058-8.7612-3.8559-3.8696-1.9863-7.7849-4.7678-9.8685-6.2363-4.308-3.0362-13.926-9.1443-20.929-9.616-7.0033-0.4719-11.746 1.4566-17.197 4.0403zm15.686-2.4024c9.2704 0.7346 15.307 5.5356 19.568 8.5659 3.8569 2.7424 11.716 7.825 17.459 9.0564-7.6512-0.4516-16.043-3.031-21.888-5.9212-5.8158-2.8758-9.6662-6.0974-15.25-6.5895-4.6152-0.4067-9.6598 0.1669-14.643 1.5242-1.8614 0.5072-5.8656 2.0861-7.5322 2.7557 1.6699-1.7901 4.4066-4.2191 6.4825-5.2065 5.3393-2.5398 12.865-4.4179 15.803-4.185z" color="#000000" color-rendering="auto" image-rendering="auto" shape-rendering="auto" solid-color="#000000" style="block-progression:tb;isolation:auto;mix-blend-mode:normal;text-decoration-color:#000000;text-decoration-line:none;text-decoration-style:solid;text-indent:0;text-transform:none;white-space:normal"/>
 </g>
</svg>
