<?xml version="1.0" encoding="UTF-8" standalone="no"?>
<svg
   xmlns:dc="http://purl.org/dc/elements/1.1/"
   xmlns:cc="http://creativecommons.org/ns#"
   xmlns:rdf="http://www.w3.org/1999/02/22-rdf-syntax-ns#"
   xmlns:svg="http://www.w3.org/2000/svg"
   xmlns="http://www.w3.org/2000/svg"
   viewBox="0 0 2831.48 3029.5332"
   height="3029.5332"
   width="2831.48"
   xml:space="preserve"
   id="svg2"
   version="1.1"><metadata
     id="metadata8"><rdf:RDF><cc:Work
         rdf:about=""><dc:format>image/svg+xml</dc:format><dc:type
           rdf:resource="http://purl.org/dc/dcmitype/StillImage" /></cc:Work></rdf:RDF></metadata><defs
     id="defs6"><clipPath
       id="clipPath18"
       clipPathUnits="userSpaceOnUse"><path
         id="path16"
         d="M 0,2272.151 H 2123.606 V 0 H 0 Z" /></clipPath><clipPath
       id="clipPath82"
       clipPathUnits="userSpaceOnUse"><path
         id="path80"
         d="M 445.182,1944.24 H 1941.58 V 213.606 H 445.182 Z" /></clipPath><clipPath
       id="clipPath98"
       clipPathUnits="userSpaceOnUse"><path
         id="path96"
         d="M 504.313,2119.5 H 2002.92 V 286.576 H 504.313 Z" /></clipPath></defs><g
     transform="matrix(1.3333333,0,0,-1.3333333,0,3029.5333)"
     id="g10"><g
       id="g12"><g
         clip-path="url(#clipPath18)"
         id="g14"><g
           transform="translate(1485.3445,1406.1711)"
           id="g20"><path
             id="path22"
             style="fill:#dadada;fill-opacity:1;fill-rule:nonzero;stroke:none"
             d="m 0,0 c 10.458,-54.237 -9.201,-114.944 -51.49,-130.948 -118.583,-37.262 -139.057,108.263 -86.467,150.016 70.073,63.174 110.956,82.596 81.064,136.319 -24.428,-16.458 -60.224,-31.434 -108.483,-40.684 2.195,-5.727 4.142,-12.301 5.541,-20.28 6.387,-30.556 -38.271,-75.557 -99.532,-123.292 9.515,-28.742 73.228,-40.302 65.154,-93.212 8.334,-37.342 54.867,-25.676 74.66,-77.624 -3.211,-15.045 -1.311,-29.042 4.617,-42.212 C 96.613,-219.204 82.983,-73.477 0,0 m -631.412,211.814 c 37.85,-61.867 1.886,-164.617 -87.897,-100.499 -38.198,30.13 -42.58,98.331 -4.681,153.887 -58.786,-16.096 -90.729,-44.505 -90.746,-87.555 27.344,-0.691 39.019,-15.21 39.429,-41.552 7.742,-1.325 13.68,-9.098 17.989,-21.556 53.301,-50.402 113.202,-79.687 162.02,-80.101 -0.724,34.929 3.85,72.628 25.697,109.334 -23.85,75.545 18.591,103.682 76.083,121.053 -13.869,9.508 -39.84,17.243 -56.636,33.093 -35.004,35.638 13.45,35.468 73.062,49.559 13.712,20.589 23.314,50.325 21.884,72.865 -121.007,-69.155 -222.887,-138.419 -176.204,-208.528" /></g><g
           transform="translate(1207.5602,1744.0861)"
           id="g24"><path
             id="path26"
             style="fill:#f6f6f6;fill-opacity:1;fill-rule:nonzero;stroke:none"
             d="M 0,0 C -3.032,7.157 -6.464,13.01 -10.106,17.611 -15.021,0.742 -38.331,-25.115 -51.452,-31.611 -40.764,-41.2 -18.17,-41.95 8.355,-40.171 8.355,-20.106 7,-10.585 0,0 m -133.138,50.08 c -0.666,-8.891 -4.276,-18.275 -9.476,-25.336 10.294,3.55 18.237,7.031 24.318,10.503 -4.93,6.458 -9.949,11.394 -14.842,14.833" /></g><g
           transform="translate(1285.9224,1846.1178)"
           id="g28"><path
             id="path30"
             style="fill:#7472ce;fill-opacity:1;fill-rule:nonzero;stroke:none"
             d="M 0,0 C -17.517,19.033 -42.526,35.681 -70.841,33.858 -91.693,32.816 -103.277,6.882 -83.342,-5.73 -49.378,-26.888 -15.106,-40.369 4.167,-76.571 15.366,-60.779 12.241,-8.334 0,0 m -247.543,3.916 c 22.166,15.751 52.505,25.686 73.316,20.676 2.874,-0.692 5.83,-0.037 8.215,1.574 1.541,1.854 3.235,3.743 5.09,5.67 l 6.636,8.649 c 5.17,6.739 8.357,14.732 9.342,23.1 -27.08,-1.458 -55.18,-7.412 -83.514,-18.463 -16.55,-18.169 -23.288,-33.294 -19.085,-41.206" /></g><g
           transform="translate(944.1013,1566.1538)"
           id="g32"><path
             id="path34"
             style="fill:#ededed;fill-opacity:1;fill-rule:nonzero;stroke:none"
             d="M 0,0 0.004,0.002 C 1.458,35.314 20.52,74.73 89.124,75.226 89,77.639 89.07,80.083 89.352,82.547 112.63,8.06 175.918,21.115 238.824,57.544 306.14,3.632 295.983,-90.649 212.641,-136.747 c 72.799,58.09 83.976,116.181 28.865,175.005 -9.977,-110.023 -98.979,-152.865 -111.118,-57.125 l 0.638,0.46 C 119.976,-20.504 109.045,-21.556 98.63,-21.481 9.285,-88.414 16.629,-150.407 29.039,-225.993 5.047,-154.641 -4.199,-84.31 88.983,-21.065 73.978,-19.883 60.412,-16.136 49.616,-9.539 31.29,-44.53 11.402,-44.247 2.713,-13.065 2.26,-16.55 1.848,-20.133 1.507,-23.888 0.298,-16.549 -0.341,-8.398 0.003,-0.017 0.002,-0.011 0.001,-0.006 0,0 m 197.326,169.286 c 9.356,63.777 53.965,56.339 74.488,14.522 7.501,-11.668 10.376,-36.671 7.501,-51.277 -51.568,-7.792 -84.01,2.584 -81.989,36.755 m 94.49,-24.288 c -16.62,57.928 -40.298,92.689 -81.893,68.625 38.242,31.646 73.303,-5.219 81.893,-68.625 m -27.607,182.367 c 30.211,5.469 60.768,-21.542 91.155,-42.192 20.055,-26.497 10.184,-77.092 -2.083,-106.22 -41.151,55.173 -68.212,60.352 -107.824,90.051 -12.902,25.66 -8.229,45.625 18.752,58.361 M -171.6,-225.768 c -9.131,-136.78 230.914,-106.986 371.004,1.859 72.409,54.867 164.342,111.425 162.558,158.35 -4.862,34.031 -19.009,28.627 -15.974,88.898 0,30.619 16.899,69.621 82.428,96.711 1.18,20.426 -0.401,40.058 -4.414,58.628 C 403.981,125.914 367.794,82.197 299.213,56.608 336.563,20.315 332.02,-26.256 320.986,-65.559 320.295,9.693 325.753,70.87 170.621,99.907 166.763,88.144 155.914,81.093 150.134,79.143 c -23.428,-5.798 -22.897,21.012 -38.893,25.802 -36.401,11.015 -42.989,8.674 -29.864,-4.167 -22.461,13.78 -17.403,22.225 34.031,10.765 17.537,-6.424 18.579,-32.468 36.11,-23.247 10.595,6.728 20.554,11.093 10.423,46.514 7.515,-10.199 10.219,-19.08 10.081,-26.591 58.117,-9.379 96,-25.467 119.935,-45.148 59.015,19.246 98.94,67.248 127.854,131.835 -26.833,88.67 -110.637,149.307 -210.394,149 -3.084,-8.506 -7.496,-16.481 -13.11,-23.604 l -20.359,-25.83 C 156.862,242.267 217.141,200.693 75.82,178.217 19.415,169.023 -19.997,162.938 6.369,137.935 24.958,126.9 57.706,114.659 60.523,99.983 l 0.004,-0.003 -0.003,-0.001 c 0.655,-3.416 -0.308,-6.964 -3.456,-10.66 0.565,3.535 -0.441,6.616 -2.583,9.435 -55.093,-12.112 -101.861,-49.41 -71.035,-117.78 -37.353,-72.03 12.501,-229.539 -46.967,-258.361 -33.077,-12.678 -69.871,-0.892 -108.083,51.619" /></g><g
           transform="translate(1095.1265,1587.7202)"
           id="g36"><path
             id="path38"
             style="fill:#ffe0bb;fill-opacity:1;fill-rule:nonzero;stroke:none"
             d="M 0,0 C -31.441,3.164 -56.068,22.858 -61.039,46.961 -84.903,47.645 -103.614,43.905 -117.646,33.323 -101.628,0.302 -53.901,-10.775 0,0 m -121.605,21.983 c -0.314,-74.99 121.759,-86.405 204.357,2.59 l 0.006,0.015 C -6.891,-33.002 -94.01,-23.927 -121.605,21.983 M 94.432,247.438 c -12.902,25.659 -8.229,45.624 18.751,58.36 30.212,5.47 60.769,-21.541 91.156,-42.192 20.054,-26.496 10.184,-77.091 -2.084,-106.219 -41.15,55.172 -68.211,60.352 -107.823,90.051 M 58.898,192.056 c 38.242,31.647 73.303,-5.219 81.893,-68.624 -16.62,57.928 -40.298,92.689 -81.893,68.624 m 69.391,-81.091 c -51.568,-7.792 -84.009,2.584 -81.988,36.754 9.356,63.778 53.965,56.339 74.487,14.523 7.501,-11.669 10.376,-36.671 7.501,-51.277 M 268.786,173.34 C 241.953,262.009 158.149,322.647 58.391,322.339 55.308,313.834 50.896,305.859 45.282,298.736 L 24.923,272.905 C 5.837,220.701 66.115,179.127 -75.205,156.651 c -56.405,-9.195 -95.817,-15.28 -69.451,-40.282 18.589,-11.036 51.337,-23.277 54.154,-37.952 l 0.004,-0.004 h -0.003 c -5.824,-17.286 39.948,-17.394 72.528,-17.66 -7.864,6.617 -11.213,19.452 -21.811,22.626 -36.401,11.015 -42.989,8.673 -29.865,-4.167 -22.46,13.78 -17.402,22.225 34.032,10.765 17.537,-6.424 18.578,-32.469 36.109,-23.247 10.596,6.728 20.555,11.093 10.424,46.513 7.515,-10.198 10.219,-19.08 10.08,-26.59 58.118,-9.38 96.001,-25.467 119.936,-45.149 59.015,19.246 98.94,67.248 127.854,131.836 m 287.507,-768.985 c -0.756,-6.29 -2.011,-12.709 -3.832,-19.169 -7.759,-27.561 -23.693,-46.051 -41.699,-54.293 36.32,-25.131 64.91,-66.604 91.536,-38.745 27.324,40.61 5.052,86.596 -46.005,112.207 M -12.503,-38.39 c 5.604,-80.469 81.672,-61.102 94.38,53.798 -22.832,-26.71 -58.741,-45.553 -94.38,-53.798 m 338.687,56.91 c 5.565,41.688 -28.285,49.945 -68.351,22.976 25.9,6.261 46.827,-5.316 49.865,-22.439 -15.159,14.695 -22.765,26.012 -56.79,11.984 28.809,1.456 48.087,-15.56 46.84,-33.738 -11.863,19.055 -16.36,32.344 -59.498,24.112 -13.684,-24.831 0.494,-52.613 38.328,-44.87 C 226.71,-42.57 206.77,7.329 243.355,41.625 293.47,82.356 347.119,67.752 326.184,18.52 m 34.769,13.812 c -14.238,47.574 -38.893,70.146 -68.788,60.864 l -8.216,-3.081 C 249.135,75.709 216.753,44.362 206.77,7.329 c -5.573,-32.079 3.059,-43.745 11.82,-60.529 72.547,2.507 152.211,58.287 142.363,85.532 m 50.848,-758.91 c -32.615,-16.913 -33.495,-46.742 5.408,-72.429 51.187,-30.075 76.805,-9.472 81.044,11.805 -0.914,0.392 -1.829,0.776 -2.737,1.217 -34.202,18.152 -68.207,40.626 -83.715,59.407 m 28.87,117.457 c -10.131,1.334 -22.334,-4.694 -42.561,-24.244 1.098,5.941 4.124,11.731 8.143,16.886 -12.633,8.379 -55.872,37.061 -69.6,46.212 -13.118,-10.431 -27.535,-27.083 -42.374,-50.943 -4.888,-9.864 -8.928,-19.79 -12.214,-29.77 l 79.029,-39.57 v -0.001 c 3.976,17.418 14.59,34.002 26.565,38.434 -13.299,-26.305 -10.492,-41.816 -3.313,-52.365 l 56.216,83.138 c -0.225,3.914 -0.191,7.995 0.109,12.223 m 52.294,-64.726 c -5.737,-0.465 -11.485,0.069 -17.069,1.643 -9.385,2.643 -17.175,7.901 -23.048,15.268 -22.173,-11.511 -43.958,-41.522 -32.34,-59.25 12.414,-15.663 49.121,-41.026 80.347,-54.296 35.541,-15.77 70.208,14.577 65.838,42.244 -16.947,9.13 -38.758,28.682 -73.728,54.391 M -126.294,25.241 c -8.893,-10.197 -15.271,-24.466 -19.327,-43.793 0.08,-41.824 28.19,-41.286 35.536,-6.063 -12.186,11.117 -18.666,27.512 -16.209,49.856 m 606.727,-681.326 c 23.777,-6.696 51.261,8.311 61.383,44.281 10.121,35.97 -0.939,70.544 -24.715,77.24 -23.754,6.697 -51.239,-17.036 -61.36,-53.006 -10.143,-35.948 0.916,-61.818 24.692,-68.515 M -66.702,186.516 c -2.089,-6.28 -4.198,-12.162 -6.169,-17.323 1.96,0.461 3.88,0.92 5.754,1.376 -0.284,5.861 -0.131,11.174 0.415,15.947 M 9.58,205.24 c 10.656,17.801 -8.64,37.324 6.253,66.071 -20.75,4.742 -37.303,2.041 -68.625,-17.523 0.43,-8.684 -1.262,-20.206 -4.029,-32.43 22.021,20.143 47.105,11.111 66.401,-16.118 m -7.12,-7.985 c 1.761,1.451 3.251,2.906 4.501,4.369 -19.014,25.208 -39.948,34.916 -64.184,17.967 -0.966,-4.138 -2.048,-8.342 -3.207,-12.532 13.027,21.911 41.947,15.943 62.89,-9.804 m -703.104,-51.72 c -80.036,-0.899 -161.977,-8.458 -187.983,-36.43 36.595,13.976 94.318,20.779 168.361,23.596 6.405,4.792 12.972,9.092 19.622,12.834 m 86.12,-153.877 c -4.769,73.24 -27.933,77.098 -156.699,54.504 122.975,47.691 177.82,15.329 156.699,-54.504 m 44.693,23.531 c -3.849,-4.236 -8.299,-7.833 -13.353,-10.586 27.457,36.73 20.099,88.228 -10.219,141.029 2.635,-1.897 5.099,-3.92 7.469,-6.005 2.936,25.762 17.465,63.876 36.775,81.629 19.673,20.258 37.263,39.772 -3.289,34.747 -61.4,-9.837 -24.259,-51.865 -68.643,-89.205 2.701,-1.217 4.952,-2.813 6.567,-4.815 -81.756,-17.373 -117.183,-48.758 -163.512,-100.151 2.216,4.732 4.606,9.313 7.147,13.743 -30.837,2.654 -66.711,2.255 -114.832,-5.567 -139.968,-13.967 -119.265,-100.152 -53.102,-74.943 214.609,70.514 207.797,-43.604 280.696,-30.62 l 141.474,-95.683 c 22.107,17.829 35.763,41.043 42.823,59.531 l -96.016,86.861 z M -761.572,90.15 c 8.433,11.985 17.998,22.634 28.253,31.854 -95.619,-4.305 -158.386,-15.904 -184.831,-43.402 9.665,2.452 20.233,4.625 31.827,6.434 61.165,9.386 104.734,11.87 124.751,5.114" /></g><g
           transform="translate(1914.156,1489.5376)"
           id="g40"><path
             id="path42"
             style="fill:#9de1fc;fill-opacity:1;fill-rule:nonzero;stroke:none"
             d="m 0,0 c -55.61,0 -100.698,-45.088 -100.698,-100.719 0,-55.631 45.088,-100.719 100.698,-100.719 55.631,0 100.719,45.088 100.719,100.719 C 100.719,-45.088 55.631,0 0,0" /></g><g
           transform="translate(1921.0074,1474.8993)"
           id="g44"><path
             id="path46"
             style="fill:#c7f8ff;fill-opacity:1;fill-rule:nonzero;stroke:none"
             d="m 0,0 c -45.227,0 -81.897,-36.67 -81.897,-81.914 0,-45.243 36.67,-81.913 81.897,-81.913 45.244,0 81.913,36.669 81.913,81.913 C 81.913,-36.67 45.244,0 0,0" /></g><g
           transform="translate(1872.9192,1454.7755)"
           id="g48"><path
             id="path50"
             style="fill:#ffffff;fill-opacity:1;fill-rule:nonzero;stroke:none"
             d="m 0,0 c -27.214,0 -49.278,-22.065 -49.278,-49.288 0,-27.224 22.064,-49.289 49.278,-49.289 27.224,0 49.288,22.065 49.288,49.288 C 49.288,-22.065 27.224,0 0,0" /></g><g
           transform="translate(1959.3737,1375.2499)"
           id="g52"><path
             id="path54"
             style="fill:#ffffff;fill-opacity:1;fill-rule:nonzero;stroke:none"
             d="m 0,0 c -18.224,0 -32.999,-14.775 -32.999,-33.006 0,-18.23 14.775,-33.006 32.999,-33.006 18.23,0 33.006,14.776 33.006,33.006 C 33.006,-14.776 18.23,0 0,0" /></g><g
           transform="translate(1839.6598,1253.7629)"
           id="g56"><path
             id="path58"
             style="fill:#9d9d9c;fill-opacity:1;fill-rule:nonzero;stroke:none"
             d="m 0,0 c -2.722,-24.857 4.8,-48.646 19.805,-60.111 34.809,3.645 67.14,24.009 70.082,40.406 C 65.967,-20.681 36.243,-15.246 0,0 M 74.496,14.835 C 8.987,14.835 -44.268,67.256 -45.659,132.451 -71.856,117.595 -85.432,69.728 -3.525,15.211 102.094,-42.007 148.671,14.402 153.797,44.733 132.63,26.135 104.892,14.835 74.496,14.835 M -11.621,5.478 c -35.465,21.957 -54.968,50.675 -61.832,76.838 -28.094,-16.739 -27.097,-66.133 1.017,-125.967 43.887,-97.001 88.697,-87.887 93.76,-28.128 -19.287,2.191 -36.144,38.4 -32.945,77.257 m -355.336,-438.197 -397.22,-580.306 c -33.795,-56.222 -1.928,-73.053 39.588,-18.752 l 381.355,562.699 c -13.509,11.306 -21.152,23.909 -23.723,36.359 m 284.624,381.776 c -13.129,29.466 -20.828,53.022 -24.191,72.195 -32.646,-33.593 -55.583,-82.539 -23.21,-123.242 34.88,-36.222 72.083,-35.085 88.455,-10.015 -12.987,11.803 -26.863,31.312 -41.054,61.062 m -57.298,-58.34 c -14.719,19.588 -19.797,41.216 -16.914,63.484 -22.832,-14.239 -38.577,-47.774 12.226,-92.133 37.26,-25.229 69.557,-23.877 75.642,-4.779 -21.265,-1.746 -46.067,7.673 -70.954,33.428 m -28.031,-32.282 -37.094,-54.191 c 9.649,-10.226 15.627,-25.828 17.016,-43.887 l 50.691,74.796 c -6.688,3.476 -13.482,7.736 -20.279,12.851 -3.763,3.548 -7.202,7.024 -10.334,10.431" /></g><g
           transform="translate(1451.802,671.4865)"
           id="g60"><path
             id="path62"
             style="fill:#a4a4ff;fill-opacity:1;fill-rule:nonzero;stroke:none"
             d="m 0,0 c 24.538,-145.665 47.198,-246.794 -33.921,-86.962 -2.682,8.439 -5.515,16.944 -8.43,25.499 l -30.385,-44.096 C -42.954,-141.223 -8.651,-168.172 30.983,-185.3 102.424,-224.141 16.338,-115.177 3.95,5.732 Z m -44.023,-158.095 c -13.086,11.381 -25.873,24.325 -38.211,38.752 L -298.24,-432.82 c 83.929,54.405 182.912,196.836 330.201,203.218 -40.357,18.921 -61.885,43.054 -75.984,71.507 m -875.003,344.447 c 71.852,46.56 152.898,114.309 190.905,204.628 11.755,92.939 28.537,162.403 48.954,214.891 -15.502,23.967 -19.573,57.161 -9.164,99.439 11.441,-17.116 22.673,-33.075 34.179,-46.196 27.407,48.185 59.214,75.829 93.073,93.884 -0.007,0.107 -0.014,0.212 -0.021,0.319 -58.142,-8.542 -116.074,31.841 -156.994,71.187 11.698,-78.996 -9.557,-238.016 -48.891,-311.402 32.373,142.19 53.857,275.11 22.799,331.542 -7.168,-40.84 -29.506,-98.776 -58.751,-170.066 -34.724,-84.647 -37.494,-127.097 -26.555,-325.035 -34.379,188.041 -27.921,247.423 5.302,326.27 69.948,166.004 90.866,246.094 -6.238,212.831 28.892,4.798 55.479,-31.69 -37.492,-123.145 -151.176,-209.249 -3.849,-148.74 -43.178,-521.87 -2.807,-23.762 -5.44,-42.645 -7.928,-57.277 m 33.107,-342.424 c 54.557,-9.208 129.434,-53.745 156.246,-124.621 35.595,-89.784 88.863,-144.004 179.185,-162.388 -103.508,106.516 -157.362,292.179 -181.893,526.541 -7.245,-96.742 -30.504,-177.401 -153.538,-239.532 m 671.579,362.46 -207.548,-435.751 198.515,454.921 c -2.198,4.701 -4.309,9.433 -6.346,14.184 l -301.825,-321.601 294.539,339.642 c -43.497,114.897 -33.969,237.699 121.825,283.794 -2.723,23.832 -55.153,20.32 -70.625,60.753 -93.318,17.121 -302.368,-157.182 -381.948,-319.461 67.82,193.253 282.755,357.348 385.764,337.417 0.506,27.168 -49.017,41.139 -61.902,71.721 -18.63,-13.988 -38.379,-28.111 -58.41,-42.085 -153.532,-91.229 -290.723,-112.563 -354.316,-67.42 -30.577,-76.539 -51.574,-176.841 -61.405,-304.841 -5.092,-31.232 -7.615,-61.386 -9.24,-90.431 22.181,-311.834 86.169,-536.609 210.853,-635.368 29.563,-2.911 62.605,-2.654 99.634,0.78 0.871,2.078 1.844,4.146 2.952,6.192 l 274.448,405.876 c -35.698,65.806 -62.87,147.472 -74.965,241.678 m -416.517,430.964 c 16.239,-11.567 33.552,-15.956 53.128,-8.959 28.317,17.305 23.024,54.24 18.665,99.899 -26.904,-22.939 -50.932,-53.011 -71.793,-90.94 M -40.866,398.507 c -103.484,-47.575 -131.851,-136.82 -113.902,-231.97 -33.336,88.552 -5.903,195.507 111.124,243.082 8.537,3.143 17.012,4.9 25.284,5.525 -51.156,26.138 -84.347,62.166 -86.844,115.092 -146.631,-40.202 -176.881,-148.654 -101.652,-308.137 19.783,-94.076 45.234,-175.402 78.426,-241.2 l 47.962,70.929 c -24.44,82.87 -35.687,168.567 11.126,252.919 65.782,102.963 116.722,64.297 121.97,19.467 32.917,28.625 -19.2,103.694 -93.494,74.293 m 404.21,829.503 c -11.693,59.142 -40.348,115.682 -68.305,157.319 -51.832,77.196 -106.164,106.321 -35.661,18.443 26.903,-42.862 35.388,-100.157 16.527,-158.775 25.894,-7.097 41.135,-22.742 42.295,-41.331 -10.613,12.568 -24.254,23.185 -47.08,27.887 -16.502,4.422 -32.287,1.419 -47.346,-9.106 24.565,-37.827 25.286,-56.618 6.222,-106.503 9.029,54.173 -1.744,79.175 -17.587,97.017 -144.627,179.489 -249.807,204.725 -447.947,103.161 39.714,0.146 70.834,-1.368 91.929,-4.819 -30.733,-0.946 -74.714,-5.12 -125.52,-10.957 v 10e-4 c -52.846,-15.577 -136.745,-9.373 -120.25,-63.901 179.229,61 350.63,-67.999 327.078,-215.444 9.53,2.301 18.509,2.641 26.789,1.017 l 26.593,216.161 -7.409,-224.302 c 15.633,-10.819 27.246,-31.196 33.314,-60.863 48.702,9.133 47.257,79.776 62.599,104.405 37.906,60.858 34.273,107.84 13.591,207.846 34.435,-87.044 43.476,-135.901 5.881,-207.376 47.123,26.346 64.339,50.02 92.046,100.42 -12.834,-38.528 -21.955,-70.457 -70.432,-104.971 174.632,-6.149 262.008,64.103 242.673,174.671" /></g><g
           transform="translate(1392.7578,341.8912)"
           id="g64"><path
             id="path66"
             style="fill:#bd8fff;fill-opacity:1;fill-rule:nonzero;stroke:none"
             d="m 0,0 c -9.713,-9.876 -9.748,-38.026 -0.574,-73.223 9.141,-29.517 -49.042,-8.914 -55.403,-85.575 -3.989,46.417 14.585,60.136 29.479,68.186 -9.592,1.327 -18.747,3.942 -25.926,12.378 -24.2,35.42 -49.528,40.693 -106.5,-18.058 30.657,54.439 77.365,72.183 101.103,48.075 l -8.871,72.361 c -56.621,-39.676 -88.712,-90.133 -128.168,-124.072 -14.171,-42.292 -13.042,-63.157 39.061,-65.816 80.375,-10.195 87.756,-44.82 134.881,-36.924 C 24.46,-140.467 36.071,-70.292 0,0 m -672.275,7.646 c -29.192,-33.252 -52.694,-16.305 -64.489,-33.096 24.975,-13.899 33.203,-39.327 41.671,-64.591 -13.838,21.418 -26.044,48.269 -51.394,57.659 -13.647,22.974 -25.762,50.144 -35.317,84.33 -2.137,-80.348 10.674,-144.143 44.369,-188.907 58.649,-0.673 58.277,25.412 148.879,41.944 -34.311,21.701 -62.243,53.913 -83.719,102.661" /></g><g
           transform="translate(1407.3092,337.1172)"
           id="g68"><path
             id="path70"
             style="fill:#a373ff;fill-opacity:1;fill-rule:nonzero;stroke:none"
             d="m 0,0 c 28.41,-71.917 30.503,-130.062 -19.896,-194.148 20.479,6.241 47.719,18.998 87.164,41.512 C 115.205,-119.425 68.339,-10.381 0,0 m -805.18,64.815 c -57.483,-61.649 -108.631,-168.222 14.972,-193.836 6.919,-0.937 13.249,-1.646 19.103,-2.158 -28.929,43.577 -38.168,109.969 -34.075,195.994" /></g><g
           transform="translate(1417.9462,622.3528)"
           id="g72"><path
             id="path74"
             style="fill:#7575e0;fill-opacity:1;fill-rule:nonzero;stroke:none"
             d="M 0,0 C 2.412,-8.684 4.729,-17.36 6.88,-26.022 61.363,-154.317 56.189,-90.904 21.244,30.829 Z M -896.689,273.317 C -864.37,682 -991.696,611.065 -853.928,818.46 l -38.269,28.417 c -115.897,-108.457 -84.177,-290.684 -42.539,-364.858 29.713,-71.361 24.504,-314.096 38.047,-208.702 m 25.265,-389.504 c -0.089,-0.04 -0.173,-0.081 -0.262,-0.121 l -0.327,0.13 c -3.316,0.059 -6.641,0.039 -9.981,-0.13 -56.225,-39.024 -27.048,-120.42 17.161,-149.936 14.892,25.106 35.505,48.287 58.431,65.204 10.08,-37.312 22.062,-67.388 35.74,-91.005 12.62,13.5 44.715,5.532 64.361,41.25 -1.646,4.495 -3.252,9.096 -4.806,13.839 -35.901,75.141 -95.679,119.371 -160.317,120.769 m 971.716,-79.992 c -79.421,-4.335 -134.959,-24.177 -177.339,-50.349 l 11.758,-108.413 c 9.568,-6.707 18.682,-5.404 30.406,-3.675 0.649,2.051 0.533,4.487 -0.603,7.56 -8.51,27.211 -10.07,72.23 3.473,82.995 53.593,-4.294 86.71,-34.347 104.875,-69.677 37.211,28.219 72.846,144.428 27.43,141.559 m -68.387,602.169 41.009,-26 c -4.494,23.777 -19.911,34.349 -41.009,26 M 44.958,236.384 v -10e-4 c -5.722,5.999 -8.209,14.48 -8.336,23.648 l -83.086,33.727 c -13.005,-57.095 -3.587,-115.803 11.953,-174.899 z" /></g><g
           id="g76"><g
             id="g78" /><g
             id="g90"><g
               style="opacity:0.19999701"
               id="g88"
               clip-path="url(#clipPath82)"><g
                 id="g86"
                 transform="translate(1371.7042,1564.2649)"><path
                   id="path84"
                   style="fill:#512782;fill-opacity:1;fill-rule:nonzero;stroke:none"
                   d="M 0,0 C 12.134,4.089 43.529,27.399 49.606,41.975 62.541,82.483 23.816,102.518 -25.359,64.959 -60.305,32.076 -50.231,-14.273 0,0 m -264.968,24.534 -34.163,10.377 c -33.86,-10.247 -81.083,10.073 -88.442,30.049 0,0 -13.874,-9.193 -13.432,-10.736 31.078,-45.764 84.339,-48.833 136.037,-29.69 m -73.652,-43.71 -39.367,11.526 c -49.706,-47.338 -82.141,-115.401 -20.577,-216.454 -21.95,81.772 -16.136,154.629 59.944,204.928 m 144.801,67.219 -4.04,-59.329 c 8.828,-40.23 4.04,-85.721 -17.103,-123.572 95.843,65.024 75.754,142.027 21.143,182.901 M -735.5,-1084.238 c -74.957,42.025 -132.834,50.046 -141.282,-40.348 177.376,21.996 173.56,-140.299 309.28,-192.803 -88.968,87.45 -70.603,172.949 -167.998,233.151 m 88.336,378.69 c 4.083,-241.108 51.573,-461.206 189.815,-637.373 55.112,-12.379 99.672,-9.105 137.514,4.136 -144.154,84.29 -247.442,316.434 -327.329,633.237 m 963.64,358.894 -19.423,-18.274 c 7.117,-59.465 44.206,-90.741 105.038,-99.687 l 7.225,18.021 c -63.838,-0.212 -93.453,34.459 -92.84,99.94 m 132.161,50.243 -0.468,-1.875 -26.808,22.12 c -19.603,-28.402 -17.926,-71.537 -3.569,-123.452 -20.72,31.388 -44.896,81.298 -54.896,120.137 l -15.291,-12.561 c 1.363,-80.041 48.059,-126.153 79.072,-143.629 l 9.582,11.575 c 27.257,-17.639 49.914,-4.828 68.066,37.822 -22.801,10.575 -37.701,30.915 -44.652,61.076 31.274,-13.133 99.489,-27.211 103.649,-15.36 l 6.554,20.651 c -37.985,-8.894 -78.759,1.425 -121.239,23.496 m -5.196,631.643 C 431.287,255.406 277.292,204.193 242.384,210.323 c -10.079,3.766 -20.033,7.713 -29.935,11.696 16.113,58.927 -3.45,107.127 -39.176,150.468 19.444,-58.959 28.023,-93.27 22.25,-143.637 -55.72,22.474 -110.985,43.53 -178.358,37.503 l 0.175,0.028 c -63.06,87.313 -155.485,142.356 -338.564,97.772 l 6.984,-37.179 c 128.547,58.015 220.352,6.03 294.785,-66.409 9.876,-40.5 25.963,-109.946 20.268,-138.626 52.259,8.996 71.408,-0.173 94.282,-73.896 47.967,8.786 52.134,56.36 72.513,106.263 247.6,-15.199 305.173,61.782 275.833,180.926 M -849.926,-222.126 c 32.822,84.286 165.511,220.281 90.945,186.237 -12.869,-36.006 -33.362,-54.096 -57.087,-64.59 l -29.887,5.444 -61.79,-70.977 c -53.651,-153.686 19.794,-118.341 68.758,-442.855 22.919,203.147 -61.465,300.553 -10.939,386.741 m 977.243,-900.791 -91.243,72.044 c -17.52,16.122 -33.565,35.216 -48.384,57.012 -29.605,-37.718 -52.645,-80.106 -78.871,-120.261 20.513,-22.803 42.652,-41.404 65.892,-54.738 25.282,10.142 46.718,19.474 65.895,26.67 -93.553,-36.394 -170.552,-109.325 -236.519,-196.595 60.664,44.938 114.218,82.376 161.503,108.028 2.475,-51.416 7.274,-94.336 45.769,-69.771 -2.573,31.953 -2.489,61.44 4.35,84.651 37.586,0.174 52.827,-17.536 83.887,-35.095 -3.657,21.887 -13.259,43.717 -23.627,57.556 34.851,1.571 64.762,-10.719 90.409,-40.542 14.987,69.369 24.133,106.277 -39.061,111.041 m -205.936,821.966 -4.037,-7.884 62.506,-42.741 21.276,-60.31 c 108.883,17.786 164.878,57.117 168.869,117.636 -68.818,-73.359 -187.297,-36.411 -227.496,20.202 9.683,60.477 -31.037,98.129 75.897,252.743 l -79.175,-18.752 c 30.668,-30.02 -17.064,-82.89 -95.844,-144.807 l 40.63,-39.24 z m -262.949,563.199 -19.243,-6.842 -40.194,-76.885 c -20.775,-1.11 -32.12,-4.734 -35.969,-10.354 l 81.024,16.106 c 15.146,49.63 22.609,81.714 14.382,77.975 m -95.443,-94.089 c -0.011,-0.03 -0.018,-0.059 -0.029,-0.089 0.021,0.032 0.044,0.064 0.066,0.097 z m -1.191,-7.352 c -0.087,2.368 0.272,4.789 1.162,7.263 -1.429,-2.143 -1.797,-4.57 -1.162,-7.263 m 253.307,-1110.608 c 14.471,-40.559 32.488,-77.936 53.223,-110.575 0.477,0.752 66.845,102.361 87.053,121.957 -35.369,70.147 -62.977,158.925 -87.384,261.724 -38.28,83.943 -41.689,119.817 -43.441,191.359 -50.977,-115.719 -58.318,-245.118 -37.008,-361.283 -35.386,-70.592 -129.338,-275.523 -129.338,-275.523 z M 78.146,-480.729 59.27,-466.82 c -153.717,-35.54 -185.681,-118.781 -133.94,-259.421 -31.124,158.35 46.091,225.128 152.816,245.512 m -836.391,3.234 c -0.245,-0.592 -0.491,-1.171 -0.734,-1.765 -25.956,-12.415 -51.23,-20.987 -72.569,-25.429 0,0 -9.586,-216.113 -11.606,-220.857 0,0 165.906,125.608 195.99,182.311 0.939,1.771 14.527,64.709 24.811,112.725 l 15.879,53.834 c 144.746,-4.819 303.604,48.396 474.854,152.572 l -25.003,39.24 c -121.189,-88.387 -303.768,-171.5 -337.536,-134.834 -40.108,0 -82.36,9.422 -90.091,40.435 l -2.599,-4.877 c -21.304,18.279 -27.705,41.901 -12.607,73.232 l 35.498,-36.462 82.977,107.59 -48.598,13.633 c -72.24,-62.71 -137.929,-154.653 -196.491,-278.397 -8.421,54.613 -4.428,130.983 13.138,231.14 -54.625,-66.242 -54.057,-163.985 -45.313,-304.091 m 276.588,353.839 25.697,109.334 c -10.037,88.876 30.913,109.292 82.842,114.965 -0.613,2.233 -2.997,4.699 -6.506,7.393 4.07,-2.041 8.262,-4.098 12.545,-6.168 -8.826,-12.068 18.349,-17.393 72.529,-17.66 31.129,-2.754 46.772,22.366 28.888,52.491 8.68,-34.903 -133.073,-10.183 -168.768,21.182 -0.656,-0.729 -1.153,-1.479 -1.554,-2.242 -1.077,1.813 -1.835,3.54 -2.218,5.168 0.085,-2.348 0.614,-4.643 1.509,-6.886 -1.566,-5.592 2.945,-12.004 11.605,-18.976 L -513.123,23.492 c 16.331,-89.094 -60.215,-118.604 -113.565,-26.125 -23.475,-5.238 -41.537,-9.045 -42.64,-8.653 23.726,-54.244 110.445,-129.543 187.671,-112.37" /></g></g></g></g><g
           id="g92"><g
             id="g94" /><g
             id="g106"><g
               style="opacity:0.22000098"
               id="g104"
               clip-path="url(#clipPath98)"><g
                 id="g102"
                 transform="translate(1365.3472,703.2872)"><path
                   id="path100"
                   style="fill:#f6f6f6;fill-opacity:1;fill-rule:nonzero;stroke:none"
                   d="M 0,0 18.491,22.919 C 3.905,66.023 -5.383,119.332 -5.504,190.298 38.361,332.41 97.556,380.794 139.083,292.413 c 14.718,-2.485 18.391,10.654 13.809,35.47 C 54.964,435.13 -108.074,251.069 0,0 m 353.962,555.71 -31.129,-41.386 c 5.834,-72.889 31.49,-98.075 68.085,-96.935 -40.027,33.033 -49.184,80.631 -36.956,138.321 M 437.96,689.698 415.673,679.636 C 435.077,533.275 564.2,530.77 637.574,584.812 v 21.139 C 540.967,550.476 451.403,578.937 437.96,689.698 m -604.88,589.804 h 109.766 c 117.034,61.233 237.865,-8.06 341.851,-81.11 -114.526,160.998 -275.539,197.41 -451.617,81.11 m 476.13,136.708 c 49.99,-67.169 70.043,-131.494 52.569,-192.254 l -59.328,-33.009 20.277,-41.34 c 23.392,23.979 50.564,31.976 81.926,22.258 -2.985,147.209 -44.68,206.121 -95.444,244.345 M 101.452,909.021 c -7.354,47.718 -26.248,78.937 -69.407,75.459 -65.892,-16.147 -120.124,-64.57 -91.387,-138.308 -23.989,59.284 102.587,175.612 160.794,62.849 m -854.076,-59.33 c 46.57,-11.681 7.289,-73.045 -68.547,-165.243 -71.913,-121.324 -29.56,-116.241 -4.02,-303.157 4.02,303.157 122.783,278.916 139.452,482.962 -38.699,12.565 -60.103,6.765 -66.885,-14.562 M -645.927,51.659 c -13.692,-84.172 -63.299,-164.947 -171.077,-240.22 176.197,-53.131 122.93,-84.384 228.15,-228.15 -51.953,209.397 -74.117,276.592 -57.073,468.37 M 45.133,404.79 C 9.63,421.514 -6.525,457.97 -18.749,498.435 -186.753,457.372 -194.647,342.713 -120.402,190.298 -191.685,365.845 -67.047,453.857 45.133,404.79 m -470.636,609.023 c 30.62,15.283 158.009,12.85 187.239,39.813 13.895,20.131 3.87,39.282 -10.858,66.685 1.14,-27.057 -9.488,-50.684 -77.512,-72.362 -105.722,-13.273 -122.89,-24.178 -98.869,-34.136 M -600.117,484.302 c -25.834,-121.042 -41.213,-232.357 -40.69,-328.873 38.21,-167.819 91.019,-306.572 154.398,-432.49 -58.839,230.283 -121.447,456.333 -113.708,761.363 m 504.583,104.184 c -162.003,-33.218 -290.592,-145.69 -385.764,-337.417 122.407,144.779 260.055,239.71 407.888,290.21 z" /></g></g></g></g><g
           transform="translate(1215.0815,1879.9756)"
           id="g108"><path
             id="path110"
             style="fill:#3f1d93;fill-opacity:1;fill-rule:nonzero;stroke:none"
             d="m 0,0 c 28.315,1.823 53.324,-14.825 70.841,-33.858 12.241,-8.334 15.366,-60.779 4.167,-76.571 -19.273,36.202 -53.545,49.683 -87.509,70.841 C -32.437,-26.976 -20.852,-1.042 0,0 m 82.3,-134.869 c 12.268,29.129 22.138,79.723 2.084,106.22 C 53.997,-7.998 23.44,19.012 -6.772,13.543 -33.752,0.807 -38.425,-19.158 -25.524,-44.817 14.089,-74.517 41.15,-79.696 82.3,-134.869 m -61.464,-33.955 c -8.591,63.406 -43.651,100.272 -81.893,68.625 41.595,24.064 65.272,-10.697 81.893,-68.625 m -38.463,50.545 c 3.641,-4.601 7.074,-10.453 10.106,-17.611 7,-10.584 8.354,-20.106 8.354,-40.171 -26.524,-1.779 -49.119,-1.028 -59.806,8.561 13.12,6.495 36.43,32.353 41.346,49.221 M 8.334,-181.29 c 2.875,14.605 0,39.608 -7.501,51.276 -20.522,41.817 -65.131,49.255 -74.487,-14.522 -2.021,-34.171 30.42,-44.547 81.988,-36.754 m -254.583,-85.724 c -2.457,-22.345 4.023,-38.739 16.209,-49.856 -7.346,-35.223 -35.456,-35.762 -35.537,6.063 4.057,19.326 10.435,33.596 19.328,43.793 m 1.852,2.028 c 0.005,-0.01 0.01,-0.02 0.015,-0.03 l -0.109,-0.067 c 0.031,0.033 0.063,0.064 0.094,0.097 m 207.2,-2.681 -0.006,-0.015 c -82.598,-88.995 -204.671,-77.58 -204.357,-2.591 27.595,-45.91 114.714,-54.984 204.363,2.606 m -143.797,22.373 c 4.971,-24.104 29.598,-43.797 61.039,-46.961 -53.901,-10.775 -101.628,0.302 -117.646,33.322 14.032,10.582 32.743,14.323 56.607,13.639 m 48.536,-85.351 c 35.639,8.245 71.547,27.088 94.38,53.798 -12.708,-114.9 -88.776,-134.267 -94.38,-53.798 m -137.015,-7.065 c 0.341,3.755 0.752,7.338 1.206,10.823 8.689,-31.181 28.577,-31.465 46.902,3.527 10.797,-6.598 24.363,-10.345 39.368,-11.526 -93.182,-63.246 -83.936,-133.577 -59.944,-204.929 -12.41,75.586 -19.754,137.579 69.591,204.512 10.415,-0.075 21.346,0.978 32.396,3.074 l -0.638,-0.46 c 12.139,-95.74 101.141,-52.897 111.118,57.125 55.11,-58.824 43.934,-116.915 -28.866,-175.005 83.343,46.099 93.5,140.38 26.184,194.292 -62.906,-36.43 -126.194,-49.485 -149.473,25.002 -0.281,-2.464 -0.351,-4.908 -0.227,-7.321 -68.604,-0.496 -87.666,-39.912 -89.12,-75.224 l -0.004,-0.002 c 0.001,-0.005 0.002,-0.011 0.002,-0.017 -0.344,-8.381 0.296,-16.531 1.505,-23.871 m 890.526,-273.292 c -81.907,54.517 -68.331,102.384 -42.134,117.24 1.391,-65.195 54.647,-117.616 120.155,-117.616 30.396,0 58.134,11.3 79.302,29.899 -5.127,-30.331 -51.704,-86.74 -157.323,-29.523 m 23.33,-75.322 c -15.005,11.466 -22.527,35.254 -19.805,60.111 36.244,-15.245 65.967,-20.681 89.888,-19.705 -2.943,-16.396 -35.274,-36.761 -70.083,-40.406 m -92.241,16.46 c -28.114,59.834 -29.111,109.229 -1.016,125.968 6.863,-26.163 26.367,-54.882 61.831,-76.838 -3.199,-38.858 13.658,-75.067 32.945,-77.258 -5.063,-59.759 -49.872,-68.873 -93.76,28.128 m -57.298,-58.339 c -32.373,40.703 -9.436,89.65 23.21,123.242 3.363,-19.173 11.062,-42.729 24.191,-72.195 14.191,-29.75 28.067,-49.258 41.054,-61.062 -16.372,-25.07 -53.575,-26.207 -88.455,10.015 m -14.585,-35.941 c -50.802,44.358 -35.058,77.893 -12.226,92.132 -2.883,-22.268 2.195,-43.895 16.914,-63.483 24.888,-25.756 49.689,-35.174 70.955,-33.429 -6.086,-19.098 -38.383,-20.45 -75.643,4.78 m -43.421,-101.712 c -1.388,18.059 -7.367,33.661 -17.016,43.887 l 37.094,54.191 c 3.133,-3.407 6.571,-6.882 10.334,-10.43 6.797,-5.116 13.591,-9.376 20.28,-12.851 z m 45.505,-134.251 c -26.626,-27.859 -55.216,13.614 -91.536,38.745 18.006,8.242 33.94,26.732 41.698,54.293 1.822,6.459 3.077,12.879 3.833,19.168 51.057,-25.611 73.329,-71.597 46.005,-112.206 m -101.443,-62.63 c -31.227,13.27 -67.933,38.633 -80.347,54.296 -11.619,17.728 10.167,47.739 32.34,59.25 5.873,-7.367 13.663,-12.626 23.048,-15.269 5.584,-1.573 11.332,-2.108 17.069,-1.642 34.97,-25.71 56.781,-45.261 73.728,-54.391 4.37,-27.667 -30.297,-58.015 -65.838,-42.244 m -83.646,-28.526 c -38.903,25.688 -38.023,55.517 -5.408,72.429 15.508,-18.781 49.513,-41.255 83.715,-59.406 0.908,-0.441 1.823,-0.825 2.737,-1.217 -4.239,-21.278 -29.857,-41.88 -81.044,-11.806 m -397.265,-566.727 c -41.515,-54.3 -73.383,-37.47 -39.587,18.752 l 397.219,580.306 c 2.571,-12.449 10.214,-25.053 23.723,-36.359 z m 302.876,400.367 21.243,30.83 c 34.945,-121.734 40.12,-185.147 -14.363,-56.851 -2.152,8.661 -4.468,17.337 -6.88,26.021 m 64.839,-136.166 c -39.634,17.128 -73.938,44.077 -103.72,79.741 l 30.385,44.096 c 2.915,-8.555 5.749,-17.06 8.43,-25.499 81.119,-159.832 58.459,-58.703 33.921,86.962 l 3.951,5.732 c 12.387,-120.91 98.474,-229.873 27.033,-191.032 m 0.978,-44.302 c -147.289,-6.382 -246.273,-148.813 -330.201,-203.219 l 216.005,313.478 c 12.339,-14.427 25.126,-27.371 38.211,-38.752 14.1,-28.453 35.628,-52.586 75.985,-71.507 m 7.045,-157.27 c -18.165,35.33 -51.282,65.383 -104.876,69.677 -13.543,-10.765 -11.982,-55.784 -3.472,-82.995 1.135,-3.073 1.251,-5.508 0.602,-7.56 -11.723,-1.729 -20.837,-3.032 -30.406,3.675 l -11.757,108.413 c 42.38,26.172 97.918,46.015 177.339,50.35 45.416,2.868 9.78,-113.341 -27.43,-141.56 m -16.232,-100.133 c -39.445,-22.515 -66.684,-35.272 -87.163,-41.512 50.399,64.085 48.305,122.231 19.896,194.148 68.338,-10.382 115.204,-119.425 67.267,-152.636 m -237.618,-8.334 c -52.103,2.659 -53.232,23.524 -39.06,65.816 39.455,33.939 71.547,84.396 128.167,124.071 l 8.871,-72.36 c -23.737,24.108 -70.446,6.363 -101.103,-48.075 56.972,58.751 82.3,53.478 106.501,18.057 7.179,-8.435 16.333,-11.051 25.926,-12.377 -14.895,-8.051 -33.469,-21.769 -29.479,-68.187 6.361,76.662 64.543,56.059 55.402,85.576 -9.174,35.197 -9.138,63.347 0.574,73.223 36.071,-70.292 24.461,-140.468 -20.918,-202.669 -47.125,-7.895 -54.506,26.73 -134.881,36.925 m -198.979,54.173 c -1.108,-2.046 -2.081,-4.114 -2.952,-6.192 -37.029,-3.434 -70.072,-3.691 -99.634,-0.78 -124.685,98.759 -188.673,323.534 -210.854,635.368 1.625,29.045 4.149,59.199 9.241,90.431 9.831,128 30.828,228.302 61.404,304.841 63.594,-45.143 200.784,-23.809 354.317,67.42 20.031,13.973 39.779,28.097 58.409,42.085 12.885,-30.582 62.408,-44.553 61.903,-71.721 -103.009,19.931 -317.944,-144.164 -385.764,-337.417 79.58,162.279 288.629,336.582 381.947,319.461 15.473,-40.433 67.902,-36.921 70.626,-60.753 C -34.254,-713.007 -43.781,-835.809 -0.285,-950.706 l -294.538,-339.642 301.824,321.601 c 2.038,-4.751 4.148,-9.483 6.347,-14.184 l -198.515,-454.922 207.548,435.752 c 12.094,-94.206 39.267,-175.872 74.964,-241.678 z m -315.851,160.473 c -26.811,70.875 -101.689,115.413 -156.245,124.62 123.034,62.132 146.292,142.791 153.537,239.533 24.532,-234.362 78.385,-420.025 181.893,-526.541 -90.322,18.384 -143.59,72.604 -179.185,162.388 m -66.806,-185.861 c -33.695,44.763 -46.506,108.558 -44.369,188.907 9.555,-34.186 21.67,-61.356 35.317,-84.33 25.35,-9.39 37.556,-36.242 51.395,-57.659 -8.468,25.264 -16.697,50.691 -41.671,64.59 11.794,16.792 35.296,-0.156 64.488,33.096 21.477,-48.748 49.409,-80.959 83.72,-102.66 -90.602,-16.532 -90.231,-42.617 -148.88,-41.944 m -38.222,3.163 c -123.602,25.614 -72.454,132.188 -14.971,193.836 -4.093,-86.024 5.145,-152.416 34.074,-195.994 -5.854,0.513 -12.184,1.222 -19.103,2.158 m -81.148,297.949 c 3.34,0.169 6.665,0.189 9.981,0.13 l 0.327,-0.13 c 0.089,0.04 0.172,0.082 0.261,0.122 64.638,-1.399 124.417,-45.629 160.317,-120.77 1.555,-4.743 3.161,-9.344 4.806,-13.839 -19.645,-35.718 -51.74,-27.75 -64.36,-41.25 -13.678,23.617 -25.66,53.693 -35.74,91.005 -22.926,-16.917 -43.539,-40.098 -58.432,-65.204 -44.208,29.516 -73.386,110.912 -17.16,149.936 m -3.177,351.793 c 2.489,14.633 5.121,33.516 7.928,57.278 39.329,373.13 -107.997,312.621 43.178,521.87 92.971,91.455 66.384,127.943 37.492,123.145 97.105,33.263 76.187,-46.827 6.239,-212.831 -33.223,-78.847 -39.681,-138.229 -5.303,-326.27 -10.938,197.938 -8.168,240.388 26.556,325.035 29.245,71.29 51.582,129.226 58.751,170.066 31.057,-56.432 9.574,-189.352 -22.8,-331.542 39.335,73.386 60.589,232.406 48.891,311.402 40.921,-39.347 98.852,-79.729 156.994,-71.187 0.007,-0.107 0.015,-0.213 0.021,-0.319 -33.859,-18.056 -65.665,-45.699 -93.072,-93.884 -11.506,13.121 -22.738,29.08 -34.18,46.196 -10.409,-42.279 -6.338,-75.472 9.164,-99.439 -20.417,-52.488 -37.198,-121.952 -48.954,-214.891 -38.006,-90.319 -119.052,-158.068 -190.905,-204.629 m -11.518,37.832 c -13.543,-105.393 -8.334,137.341 -38.047,208.703 -41.638,74.173 -73.358,256.401 42.539,364.857 l 38.269,-28.417 c -137.768,-207.395 -10.443,-136.46 -42.761,-545.143 m 91.466,657.309 14.576,-11.68 v -10e-4 z m -175.724,-0.813 c -72.899,-12.984 -66.087,101.134 -280.696,30.619 -66.163,-25.208 -86.866,60.977 53.102,74.943 48.12,7.823 83.995,8.222 114.832,5.568 -2.541,-4.43 -4.931,-9.012 -7.147,-13.743 46.329,51.393 81.756,82.778 163.512,100.151 -1.615,2.001 -3.866,3.598 -6.567,4.815 44.384,37.34 7.243,79.367 68.643,89.204 40.552,5.025 22.962,-14.489 3.289,-34.746 -19.31,-17.754 -33.839,-55.868 -36.775,-81.629 -2.37,2.085 -4.834,4.108 -7.469,6.005 30.318,-52.801 37.676,-104.3 10.219,-141.03 5.054,2.753 9.504,6.35 13.353,10.587 l -0.015,-0.035 96.016,-86.861 c -7.06,-18.489 -20.716,-41.702 -42.823,-59.531 z m -75.192,157.559 c -10.255,-9.22 -19.82,-19.869 -28.253,-31.854 -20.017,6.756 -63.586,4.272 -124.751,-5.114 -11.594,-1.809 -22.162,-3.982 -31.827,-6.435 26.445,27.499 89.212,39.098 184.831,43.403 m 32.675,23.531 c -6.65,-3.743 -13.217,-8.043 -19.622,-12.834 -74.043,-2.817 -131.766,-9.62 -168.361,-23.597 26.006,27.972 107.947,35.531 187.983,36.431 m 366.872,-61.882 c -37.9,-55.556 -33.517,-123.757 4.681,-153.888 89.783,-64.118 125.747,38.633 87.897,100.5 -46.683,70.109 55.197,139.373 176.204,208.528 1.43,-22.54 -8.173,-52.276 -21.885,-72.865 -59.611,-14.091 -108.065,-13.921 -73.061,-49.56 16.796,-15.849 42.766,-23.584 56.636,-33.092 -57.492,-17.372 -99.933,-45.508 -76.083,-121.054 -21.847,-36.705 -26.421,-74.405 -25.697,-109.333 -48.818,0.414 -108.72,29.699 -162.02,80.1 -4.309,12.458 -10.247,20.231 -17.989,21.556 -0.411,26.342 -12.085,40.862 -39.429,41.552 0.017,43.05 31.96,71.459 90.746,87.556 m 276.549,135.938 c 24.236,16.949 45.17,7.241 64.184,-17.967 -1.25,-1.464 -2.74,-2.919 -4.501,-4.37 -20.943,25.748 -49.863,31.715 -62.89,9.804 1.159,4.191 2.24,8.395 3.207,12.533 m 19.561,83.928 c 28.334,11.051 56.434,17.005 83.514,18.463 -0.985,-8.368 -4.172,-16.361 -9.342,-23.099 l -6.636,-8.65 c -1.855,-1.926 -3.549,-3.816 -5.091,-5.67 -2.384,-1.611 -5.34,-2.265 -8.214,-1.574 -20.811,5.01 -51.151,-4.925 -73.316,-20.676 -4.203,7.913 2.535,23.037 19.085,41.206 m 125.208,80.594 v -0.001 c 50.806,5.837 94.788,10.011 125.521,10.957 -21.096,3.451 -52.216,4.965 -91.93,4.819 198.14,101.564 303.321,76.328 447.948,-103.161 15.842,-17.842 26.615,-42.844 17.586,-97.017 19.065,49.885 18.343,68.676 -6.221,106.503 15.058,10.525 30.843,13.528 47.346,9.106 22.826,-4.702 36.466,-15.319 47.079,-27.888 -1.16,18.59 -16.4,34.235 -42.295,41.332 18.861,58.618 10.377,115.913 -16.526,158.775 -70.503,87.878 -16.171,58.753 35.661,-18.443 27.956,-41.637 56.611,-98.177 68.304,-157.319 19.336,-110.568 -68.041,-180.82 -242.672,-174.671 48.477,34.513 57.598,66.443 70.431,104.971 -27.707,-50.4 -44.923,-74.074 -92.046,-100.42 37.596,71.475 28.554,120.332 -5.881,207.376 20.682,-100.006 24.316,-146.988 -13.591,-207.846 -15.341,-24.629 -13.897,-95.273 -62.598,-104.405 -6.069,29.667 -17.682,50.044 -33.314,60.863 l 7.409,224.302 -26.594,-216.161 c -8.28,1.624 -17.258,1.284 -26.789,-1.017 C 197.971,-40.042 26.57,88.957 -152.658,27.957 -169.154,82.485 -85.254,76.281 -32.409,91.858 M 98.635,-345.455 c -8.761,16.784 -17.393,28.45 -11.82,60.529 9.983,37.033 42.364,68.379 77.179,82.786 l 8.216,3.081 c 29.895,9.282 54.55,-13.29 68.788,-60.865 9.848,-27.245 -69.816,-83.024 -142.363,-85.531 m -271.382,306.988 c 31.322,19.563 47.875,22.264 68.625,17.523 -14.894,-28.747 4.403,-48.27 -6.253,-66.071 -19.296,27.228 -44.38,36.261 -66.401,16.118 2.767,12.224 4.459,23.746 4.029,32.43 m 22.612,-72.678 c 5.2,7.06 8.809,16.444 9.475,25.336 4.894,-3.44 9.912,-8.375 14.842,-14.833 -6.081,-3.472 -14.023,-6.954 -24.317,-10.503 m -36.937,-10.541 c -1.874,-0.457 -3.794,-0.916 -5.755,-1.377 1.972,5.162 4.081,11.044 6.17,17.324 -0.546,-4.773 -0.699,-10.086 -0.415,-15.947 m -207.065,-449.451 c 20.861,37.929 44.889,68.001 71.793,90.939 4.36,-45.658 9.652,-82.594 -18.665,-99.898 -19.575,-6.997 -36.888,-2.608 -53.128,8.959 m 59.639,-20.072 c 59.469,28.823 9.615,186.331 46.967,258.361 -30.826,68.37 15.942,105.668 71.036,117.78 2.142,-2.819 3.148,-5.9 2.583,-9.435 3.148,3.696 4.111,7.244 3.456,10.661 h 0.003 l -0.004,0.004 c -2.817,14.675 -35.565,26.916 -54.155,37.951 -26.365,25.003 13.047,31.088 69.452,40.282 141.32,22.477 81.042,64.05 100.128,116.255 l 20.359,25.83 c 5.614,7.123 10.026,15.098 13.109,23.604 99.758,0.307 183.562,-60.33 210.395,-148.999 -28.914,-64.588 -68.839,-112.59 -127.855,-131.836 -23.934,19.681 -61.817,35.769 -119.935,45.148 0.139,7.511 -2.566,16.392 -10.08,26.591 10.131,-35.42 0.172,-39.786 -10.424,-46.514 -17.531,-9.221 -18.573,16.823 -36.109,23.247 -51.434,11.46 -56.492,3.016 -34.032,-10.765 -13.125,12.841 -6.536,15.182 29.864,4.168 15.996,-4.791 15.465,-31.601 38.894,-25.803 5.78,1.95 16.628,9.001 20.487,20.764 155.132,-29.037 149.674,-90.214 150.364,-165.466 11.035,39.303 15.578,85.874 -21.773,122.167 68.582,25.589 104.769,69.306 124.79,122.071 4.013,-18.571 5.594,-38.203 4.414,-58.629 -65.529,-27.09 -82.428,-66.092 -82.428,-96.71 -3.035,-60.272 11.112,-54.867 15.974,-88.899 1.784,-46.925 -90.149,-103.483 -162.558,-158.35 -140.091,-108.844 -380.135,-138.639 -371.004,-1.859 38.212,-52.511 75.005,-64.297 108.082,-51.619 m 466.804,136.473 c -52.59,-41.753 -32.116,-187.278 86.467,-150.016 42.289,16.004 61.948,76.71 51.49,130.948 82.983,-73.477 96.613,-219.204 -114.936,-241.918 -5.928,13.17 -7.828,27.167 -4.617,42.212 -19.793,51.949 -66.326,40.283 -74.66,77.624 8.074,52.911 -55.639,64.471 -65.154,93.212 61.261,47.735 105.919,92.736 99.532,123.293 -1.399,7.978 -3.346,14.553 -5.541,20.28 48.259,9.25 84.055,24.226 108.483,40.684 29.892,-53.724 -10.991,-73.146 -81.064,-136.319 m 86.054,-338.609 c -8.271,-0.625 -16.747,-2.382 -25.284,-5.525 C 76.05,-846.445 48.616,-953.4 81.953,-1041.952 c -17.95,95.149 10.418,184.395 113.901,231.969 74.294,29.402 126.411,-45.667 93.495,-74.292 -5.248,44.829 -56.188,83.495 -121.97,-19.468 -46.813,-84.351 -35.567,-170.048 -11.126,-252.918 l -47.962,-70.929 c -33.193,65.798 -58.644,147.124 -78.427,241.2 -75.228,159.483 -44.979,267.935 101.652,308.137 2.497,-52.926 35.688,-88.955 86.844,-115.092 m 16.409,-58.288 c 21.098,8.349 36.515,-2.223 41.009,-26 z m 13.054,-169.606 -79.469,-117.525 c -15.54,59.096 -24.958,117.805 -11.953,174.899 l 83.086,-33.727 c 0.126,-9.168 2.613,-17.649 8.335,-23.647 z m 72.893,119.863 c -0.3,-4.229 -0.334,-8.309 -0.109,-12.224 l -56.216,-83.137 c -7.179,10.548 -9.986,26.059 3.313,52.365 -11.975,-4.432 -22.589,-21.017 -26.565,-38.435 v 10e-4 l -79.029,39.571 c 3.286,9.98 7.326,19.905 12.214,29.769 14.839,23.861 29.256,40.513 42.374,50.944 13.728,-9.151 56.967,-37.834 69.599,-46.212 -4.018,-5.156 -7.044,-10.945 -8.142,-16.886 20.227,19.549 32.429,25.578 42.561,24.244 m 15.07,21.551 c 10.121,35.97 37.606,59.702 61.36,53.006 23.776,-6.697 34.836,-41.27 24.715,-77.24 -10.122,-35.97 -37.606,-50.977 -61.383,-44.281 -23.776,6.697 -34.835,32.567 -24.692,68.515 m 363.288,489.387 c 55.631,0 100.719,-45.088 100.719,-100.719 0,-55.631 -45.088,-100.719 -100.719,-100.719 -55.61,0 -100.698,45.088 -100.698,100.719 0,55.631 45.088,100.719 100.698,100.719 m 120.222,-100.719 c 0,66.403 -53.818,120.221 -120.222,120.221 -61.105,0 -111.546,-45.614 -119.184,-104.658 -20.823,-4.452 -32.596,-24.638 -31.563,-50.031 -19.692,-13.077 -32.684,-29.729 -32.265,-59.394 l -0.019,0.042 c -20.392,-21.145 -35.173,-43.42 -42.832,-65.509 l -0.014,0.024 c -33.499,-25.251 -54.061,-53.391 -35.67,-90.225 l -46.401,-68.622 c -26.827,-0.203 -54.857,-27.894 -66.006,-67.506 -1.301,-4.618 -2.32,-9.126 -3.07,-13.506 -4.439,2.43 -12.04,0.484 -19.71,-4.152 l -4.193,2.659 c 36.057,26.096 2.405,82.669 -50.325,95.92 -35.252,19.308 -64.762,39.794 -82.074,62.783 253.236,40.639 194.054,207.292 90.896,289.775 0.414,-37.937 4.858,-122.336 -40.302,-148.383 -79.892,-32.052 -127.791,87.672 -69.904,130.732 102.124,84.268 107.89,84.094 88.423,160.189 6.374,6.486 11.169,12.964 14.418,19.197 45.536,1.133 60.314,67.872 74.283,105.545 2.153,1.175 4.261,2.346 6.313,3.512 169.461,-11.863 314.065,50.638 286.857,194.917 -14.584,70.519 -48.389,123.086 -73.196,162.271 -72.789,114.977 -140.679,105.819 -62.115,1.832 C 512.902,144.981 513.812,88.224 496.099,39.699 476.974,44.59 462.493,39.96 453.044,25.021 319.476,171.31 241.684,251.059 -35.835,107.09 -72.925,90.045 -212.817,103.542 -166.4,16.335 c -15.368,-12.185 -32.25,-41.449 -25.441,-56.586 -121.04,-55.452 -230.755,-154.129 -183.893,-222.798 32.295,-47.693 11.806,-148.456 -67.542,-87.162 -32.106,30.124 -39.524,82.318 9.202,156.267 -53.352,-12.322 -124.663,-42.026 -123.488,-102.815 -16.285,-1.736 -36.769,-7.106 -62.064,-16.4 l -61.253,49.085 c 13.448,26.154 11.252,64.519 -9.618,94.273 0.688,30.291 16.425,76.518 40.618,99.483 17.37,17.834 38.587,53.9 -18.514,49.054 -87.517,-9.606 -36.546,-58.787 -85.795,-101.331 -13.899,0.744 -31.164,-3.85 -42.478,-13.036 l 0.055,0.004 c -0.022,-0.008 -0.044,-0.015 -0.066,-0.023 l 0.011,0.019 c -138.522,7.994 -233.172,-27.311 -228.013,-54.864 l 0.012,-0.012 c -13.162,-7.277 -21.989,-16.078 -26.08,-26.673 -118.677,-36.348 -73.601,-119.767 -12.199,-93.677 195.954,68.511 198.679,-34.366 281.299,-31.34 l 79.973,-59.384 c -96.173,-93.361 -111.629,-288.217 -46.866,-385.482 24.053,-55.771 35.318,-275.965 52.637,-276.703 l -0.005,-0.02 c 0.01,0.01 0.02,0.013 0.03,0.019 0.912,-0.028 1.842,0.556 2.79,1.802 89.666,57.781 158.729,125.226 194.955,182.664 -1.457,-15.679 -2.798,-31.897 -4.004,-48.749 -25.697,-182.659 26.392,-322.951 -187.52,-437.547 -50.461,-45.555 -55.449,-94.422 19.347,-173.798 -29.572,-61.221 -22.729,-128.36 66.773,-142.874 118.737,-14.533 70.779,17.162 205.688,41.586 55.649,-29.755 126.624,-36.021 212.697,-41.171 0.803,-40.381 42.642,-68.422 93.475,-3.222 l 8.658,12.564 c 16.377,3.523 30.653,9.79 43.729,18.016 -15.264,-50.206 15.768,-60.123 53.875,-64.959 93.76,-11.98 83.863,-91.155 271.904,10.406 9.65,19.387 10.642,58.156 -2.697,95.12 57.125,37.955 71.96,163.146 35.846,172.629 -33.662,7.105 -59.052,21.83 -79.561,41.05 9.179,-5.12 18.402,-9.525 27.627,-13.093 108.412,-32.586 17.75,49.932 -9.514,236.011 l 46.903,68.069 c 55.903,-25.175 82.261,-6.168 89.546,25.29 33.498,-4.346 65.437,20.459 67.48,58.033 11.251,-1.414 21.258,4.099 33.767,18.54 34.431,42.13 1.43,95.72 -35.108,124.074 l 56.366,81.801 c 31.755,-5.78 56.084,8.489 57.667,37.413 8.289,3.668 15.662,9.216 21.831,16.195 33.246,-18.093 58.485,13.804 64.305,45.932 0.015,0.007 0.03,0.009 0.046,0.016 33.055,0 74.778,36.353 73.844,58.646 50.533,11.304 66.998,55.267 60.45,80.071 15.074,20.086 24.009,45.045 24.009,72.095 m -1710.474,245.063 c 128.766,22.595 151.93,18.736 156.699,-54.504 21.121,69.834 -33.724,102.196 -156.699,54.504 M 123.4,-250.631 c -36.585,-34.295 -16.645,-84.194 33.223,-65.08 -37.834,-7.743 -52.012,20.039 -38.328,44.871 43.138,8.232 47.635,-5.058 59.498,-24.113 1.247,18.178 -18.031,35.195 -46.84,33.739 34.025,14.028 41.631,2.71 56.79,-11.984 -3.038,17.122 -23.965,28.7 -49.865,22.439 40.065,26.968 73.916,18.712 68.351,-22.977 20.934,49.233 -32.714,63.837 -82.829,23.105" /></g></g></g></g></svg>