<?xml version="1.0" encoding="UTF-8"?>
<svg viewBox="0 0 300 600" xmlns="http://www.w3.org/2000/svg" xmlns:xlink="http://www.w3.org/1999/xlink">
 <defs>
  <filter id="d" x="-.53164" y="-.01138" width="2.0633" height="1.0228">
   <feGaussianBlur stdDeviation="1.5823"/>
  </filter>
  <filter id="c" x="-.29146" y="-.01774" width="1.5829" height="1.0355">
   <feGaussianBlur stdDeviation="2.6023"/>
  </filter>
  <linearGradient id="b" x1="600.5" x2="679.07" gradientUnits="userSpaceOnUse">
   <stop stop-color="#ff6855" offset="0"/>
   <stop stop-color="#620c00" offset="1"/>
  </linearGradient>
  <linearGradient id="e">
   <stop offset="0"/>
   <stop offset=".0625"/>
   <stop stop-color="#545454" offset=".125"/>
   <stop offset=".25"/>
   <stop offset=".5"/>
   <stop offset="1"/>
  </linearGradient>
  <linearGradient id="i" x1="828.57" x2="1077.1" gradientUnits="userSpaceOnUse" xlink:href="#e"/>
  <linearGradient id="h" x1="830" x2="1078.6" gradientUnits="userSpaceOnUse" xlink:href="#e"/>
  <radialGradient id="f" cx="904.29" cy="430.93" r="83.495" gradientUnits="userSpaceOnUse">
   <stop stop-color="#ff4b18" offset="0"/>
   <stop stop-color="#ff4b0b" stop-opacity="0" offset="1"/>
  </radialGradient>
  <radialGradient id="g" cx="904.29" cy="430.93" r="83.495" gradientUnits="userSpaceOnUse">
   <stop stop-color="#ffd65c" offset="0"/>
   <stop stop-color="#ffd65c" stop-opacity="0" offset="1"/>
  </radialGradient>
  <radialGradient id="a" cx="639.11" cy="358.6" r="39.266" gradientTransform="matrix(1 0 0 .94264 0 -24.059)" gradientUnits="userSpaceOnUse">
   <stop stop-color="#231400" offset="0"/>
   <stop stop-color="#985600" stop-opacity=".6708" offset="1"/>
  </radialGradient>
 </defs>
 <g transform="translate(-804.38 -370.68)">
  <path transform="matrix(.39285 .13003 -.13003 .39287 608.2 145.32)" d="m960 488.08-55.361-56.427 11.133 78.262-11.621-78.191-36.995 69.859 36.558-70.088-70.991 34.772 70.773-35.214-77.872-13.596 77.955 13.11-55.008-56.772 55.361 56.427-11.133-78.262 11.621 78.191 36.995-69.859-36.558 70.088 70.991-34.772-70.773 35.214 77.872 13.596-77.955-13.11z" fill="#ffe006" stroke="url(#f)" stroke-linejoin="round" stroke-width="9.6661"/>
  <path transform="matrix(.41381 0 0 .41383 533.21 253.87)" d="m960 488.08-55.361-56.427 11.133 78.262-11.621-78.191-36.995 69.859 36.558-70.088-70.991 34.772 70.773-35.214-77.872-13.596 77.955 13.11-55.008-56.772 55.361 56.427-11.133-78.262 11.621 78.191 36.995-69.859-36.558 70.088 70.991-34.772-70.773 35.214 77.872 13.596-77.955-13.11z" fill="#ffe006" stroke="url(#g)" stroke-linejoin="round" stroke-width="9.6661"/>
  <g transform="translate(359.88 231.16)">
   <path d="m676.28 295.62c0.23945 0.44853 0.375 0.90917 0.375 1.375 0 5.4205-16.758 9.8125-37.438 9.8125s-37.438-4.392-37.438-9.8125c0-0.0794-7e-3 -0.17101 0-0.25-0.79651 0.92309-1.2812 2.1886-1.2812 3.5938v358.31c0 2.7133 1.8241 4.8967 4.1562 5.0938 4.6372 4.0397 18.921 7 35.844 7 18.432 0 33.732-3.4964 36.844-8.0938 1.0415-0.93859 1.7188-2.3612 1.7188-4v-358.31c0-2.1445-1.1511-3.9511-2.7812-4.7188z" fill="url(#b)" stroke="#000"/>
   <path transform="matrix(.88868 0 0 .96519 432.85 97.625)" d="m277.14 208.79c0 5.9173-19.827 10.714-44.286 10.714s-44.286-4.797-44.286-10.714 19.827-10.714 44.286-10.714 44.286 4.797 44.286 10.714z" fill="#decd87" stroke="#000" stroke-width="1.0797"/>
   <path d="m611.43 333.08a3.5714 5.1334 0 0 1 3.5714 5.1334v323.3a3.5714 5.1334 0 0 1 -3.5714 5.1334 3.5714 5.1334 0 0 1 -3.5714 -5.1334v-323.3a3.5714 5.1334 0 0 1 3.5714 -5.1334" fill="#fff" filter="url(#d)" opacity=".2351" stroke="#b7b7b7" stroke-linejoin="round"/>
   <path d="m640.09 291.74c-20.156 0-36.723 3.9917-39.031 9.125 3.8155 4.6623 19.585 8.1875 38.469 8.1875 20.122 0 36.71-3.973 39.062-9.0938-3.7673-4.679-19.571-8.2188-38.5-8.2188z" fill="url(#a)" opacity=".232" stroke="#000" stroke-opacity=".3492"/>
   <path d="m659.5 312.01h12.431a4.4986 5.1334 0 0 1 4.4986 5.1334v341.88a4.4986 5.1334 0 0 1 -4.4986 5.1334h-12.431a4.4986 5.1334 0 0 1 -4.4986 -5.1334v-341.88a4.4986 5.1334 0 0 1 4.4986 -5.1334" filter="url(#c)" opacity=".2351" stroke="#b7b7b7" stroke-linejoin="round"/>
  </g>
  <g transform="translate(278.45 231.16)">
   <path d="m676.28 295.62c0.23945 0.44853 0.375 0.90917 0.375 1.375 0 5.4205-16.758 9.8125-37.438 9.8125s-37.438-4.392-37.438-9.8125c0-0.0794-7e-3 -0.17101 0-0.25-0.79651 0.92309-1.2812 2.1886-1.2812 3.5938v358.31c0 2.7133 1.8241 4.8967 4.1562 5.0938 4.6372 4.0397 18.921 7 35.844 7 18.432 0 33.732-3.4964 36.844-8.0938 1.0415-0.93859 1.7188-2.3612 1.7188-4v-358.31c0-2.1445-1.1511-3.9511-2.7812-4.7188z" fill="url(#b)" stroke="#000"/>
   <path transform="matrix(.88868 0 0 .96519 432.85 97.625)" d="m277.14 208.79c0 5.9173-19.827 10.714-44.286 10.714s-44.286-4.797-44.286-10.714 19.827-10.714 44.286-10.714 44.286 4.797 44.286 10.714z" fill="#decd87" stroke="#000" stroke-width="1.0797"/>
   <path d="m611.43 333.08a3.5714 5.1334 0 0 1 3.5714 5.1334v323.3a3.5714 5.1334 0 0 1 -3.5714 5.1334 3.5714 5.1334 0 0 1 -3.5714 -5.1334v-323.3a3.5714 5.1334 0 0 1 3.5714 -5.1334" fill="#fff" filter="url(#d)" opacity=".2351" stroke="#b7b7b7" stroke-linejoin="round"/>
   <path d="m640.09 291.74c-20.156 0-36.723 3.9917-39.031 9.125 3.8155 4.6623 19.585 8.1875 38.469 8.1875 20.122 0 36.71-3.973 39.062-9.0938-3.7673-4.679-19.571-8.2188-38.5-8.2188z" fill="url(#a)" opacity=".232" stroke="#000" stroke-opacity=".3492"/>
   <path d="m659.5 312.01h12.431a4.4986 5.1334 0 0 1 4.4986 5.1334v341.88a4.4986 5.1334 0 0 1 -4.4986 5.1334h-12.431a4.4986 5.1334 0 0 1 -4.4986 -5.1334v-341.88a4.4986 5.1334 0 0 1 4.4986 -5.1334" filter="url(#c)" opacity=".2351" stroke="#b7b7b7" stroke-linejoin="round"/>
  </g>
  <g transform="translate(315.59 249.73)">
   <path d="m676.28 295.62c0.23945 0.44853 0.375 0.90917 0.375 1.375 0 5.4205-16.758 9.8125-37.438 9.8125s-37.438-4.392-37.438-9.8125c0-0.0794-7e-3 -0.17101 0-0.25-0.79651 0.92309-1.2812 2.1886-1.2812 3.5938v358.31c0 2.7133 1.8241 4.8967 4.1562 5.0938 4.6372 4.0397 18.921 7 35.844 7 18.432 0 33.732-3.4964 36.844-8.0938 1.0415-0.93859 1.7188-2.3612 1.7188-4v-358.31c0-2.1445-1.1511-3.9511-2.7812-4.7188z" fill="url(#b)" stroke="#000"/>
   <path transform="matrix(.88868 0 0 .96519 432.85 97.625)" d="m277.14 208.79c0 5.9173-19.827 10.714-44.286 10.714s-44.286-4.797-44.286-10.714 19.827-10.714 44.286-10.714 44.286 4.797 44.286 10.714z" fill="#decd87" stroke="#000" stroke-width="1.0797"/>
   <path d="m611.43 333.08a3.5714 5.1334 0 0 1 3.5714 5.1334v323.3a3.5714 5.1334 0 0 1 -3.5714 5.1334 3.5714 5.1334 0 0 1 -3.5714 -5.1334v-323.3a3.5714 5.1334 0 0 1 3.5714 -5.1334" fill="#fff" filter="url(#d)" opacity=".2351" stroke="#b7b7b7" stroke-linejoin="round"/>
   <path d="m640.09 291.74c-20.156 0-36.723 3.9917-39.031 9.125 3.8155 4.6623 19.585 8.1875 38.469 8.1875 20.122 0 36.71-3.973 39.062-9.0938-3.7673-4.679-19.571-8.2188-38.5-8.2188z" fill="url(#a)" opacity=".232" stroke="#000" stroke-opacity=".3492"/>
   <path d="m659.5 312.01h12.431a4.4986 5.1334 0 0 1 4.4986 5.1334v341.88a4.4986 5.1334 0 0 1 -4.4986 5.1334h-12.431a4.4986 5.1334 0 0 1 -4.4986 -5.1334v-341.88a4.4986 5.1334 0 0 1 4.4986 -5.1334" filter="url(#c)" opacity=".2351" stroke="#b7b7b7" stroke-linejoin="round"/>
  </g>
  <g transform="translate(231.31 251.16)">
   <path d="m676.28 295.62c0.23945 0.44853 0.375 0.90917 0.375 1.375 0 5.4205-16.758 9.8125-37.438 9.8125s-37.438-4.392-37.438-9.8125c0-0.0794-7e-3 -0.17101 0-0.25-0.79651 0.92309-1.2812 2.1886-1.2812 3.5938v358.31c0 2.7133 1.8241 4.8967 4.1562 5.0938 4.6372 4.0397 18.921 7 35.844 7 18.432 0 33.732-3.4964 36.844-8.0938 1.0415-0.93859 1.7188-2.3612 1.7188-4v-358.31c0-2.1445-1.1511-3.9511-2.7812-4.7188z" fill="url(#b)" stroke="#000"/>
   <path transform="matrix(.88868 0 0 .96519 432.85 97.625)" d="m277.14 208.79c0 5.9173-19.827 10.714-44.286 10.714s-44.286-4.797-44.286-10.714 19.827-10.714 44.286-10.714 44.286 4.797 44.286 10.714z" fill="#decd87" stroke="#000" stroke-width="1.0797"/>
   <path d="m611.43 333.08a3.5714 5.1334 0 0 1 3.5714 5.1334v323.3a3.5714 5.1334 0 0 1 -3.5714 5.1334 3.5714 5.1334 0 0 1 -3.5714 -5.1334v-323.3a3.5714 5.1334 0 0 1 3.5714 -5.1334" fill="#fff" filter="url(#d)" opacity=".2351" stroke="#b7b7b7" stroke-linejoin="round"/>
   <path d="m640.09 291.74c-20.156 0-36.723 3.9917-39.031 9.125 3.8155 4.6623 19.585 8.1875 38.469 8.1875 20.122 0 36.71-3.973 39.062-9.0938-3.7673-4.679-19.571-8.2188-38.5-8.2188z" fill="url(#a)" opacity=".232" stroke="#000" stroke-opacity=".3492"/>
   <path d="m659.5 312.01h12.431a4.4986 5.1334 0 0 1 4.4986 5.1334v341.88a4.4986 5.1334 0 0 1 -4.4986 5.1334h-12.431a4.4986 5.1334 0 0 1 -4.4986 -5.1334v-341.88a4.4986 5.1334 0 0 1 4.4986 -5.1334" filter="url(#c)" opacity=".2351" stroke="#b7b7b7" stroke-linejoin="round"/>
  </g>
  <g transform="translate(278.45 272.58)">
   <path d="m676.28 295.62c0.23945 0.44853 0.375 0.90917 0.375 1.375 0 5.4205-16.758 9.8125-37.438 9.8125s-37.438-4.392-37.438-9.8125c0-0.0794-7e-3 -0.17101 0-0.25-0.79651 0.92309-1.2812 2.1886-1.2812 3.5938v358.31c0 2.7133 1.8241 4.8967 4.1562 5.0938 4.6372 4.0397 18.921 7 35.844 7 18.432 0 33.732-3.4964 36.844-8.0938 1.0415-0.93859 1.7188-2.3612 1.7188-4v-358.31c0-2.1445-1.1511-3.9511-2.7812-4.7188z" fill="url(#b)" stroke="#000"/>
   <path transform="matrix(.88868 0 0 .96519 432.85 97.625)" d="m277.14 208.79c0 5.9173-19.827 10.714-44.286 10.714s-44.286-4.797-44.286-10.714 19.827-10.714 44.286-10.714 44.286 4.797 44.286 10.714z" fill="#decd87" stroke="#000" stroke-width="1.0797"/>
   <path d="m611.43 333.08a3.5714 5.1334 0 0 1 3.5714 5.1334v323.3a3.5714 5.1334 0 0 1 -3.5714 5.1334 3.5714 5.1334 0 0 1 -3.5714 -5.1334v-323.3a3.5714 5.1334 0 0 1 3.5714 -5.1334" fill="#fff" filter="url(#d)" opacity=".2351" stroke="#b7b7b7" stroke-linejoin="round"/>
   <path d="m640.09 291.74c-20.156 0-36.723 3.9917-39.031 9.125 3.8155 4.6623 19.585 8.1875 38.469 8.1875 20.122 0 36.71-3.973 39.062-9.0938-3.7673-4.679-19.571-8.2188-38.5-8.2188z" fill="url(#a)" opacity=".232" stroke="#000" stroke-opacity=".3492"/>
   <path d="m659.5 312.01h12.431a4.4986 5.1334 0 0 1 4.4986 5.1334v341.88a4.4986 5.1334 0 0 1 -4.4986 5.1334h-12.431a4.4986 5.1334 0 0 1 -4.4986 -5.1334v-341.88a4.4986 5.1334 0 0 1 4.4986 -5.1334" filter="url(#c)" opacity=".2351" stroke="#b7b7b7" stroke-linejoin="round"/>
  </g>
  <g transform="translate(397.02 252.58)">
   <path d="m676.28 295.62c0.23945 0.44853 0.375 0.90917 0.375 1.375 0 5.4205-16.758 9.8125-37.438 9.8125s-37.438-4.392-37.438-9.8125c0-0.0794-7e-3 -0.17101 0-0.25-0.79651 0.92309-1.2812 2.1886-1.2812 3.5938v358.31c0 2.7133 1.8241 4.8967 4.1562 5.0938 4.6372 4.0397 18.921 7 35.844 7 18.432 0 33.732-3.4964 36.844-8.0938 1.0415-0.93859 1.7188-2.3612 1.7188-4v-358.31c0-2.1445-1.1511-3.9511-2.7812-4.7188z" fill="url(#b)" stroke="#000"/>
   <path transform="matrix(.88868 0 0 .96519 432.85 97.625)" d="m277.14 208.79c0 5.9173-19.827 10.714-44.286 10.714s-44.286-4.797-44.286-10.714 19.827-10.714 44.286-10.714 44.286 4.797 44.286 10.714z" fill="#decd87" stroke="#000" stroke-width="1.0797"/>
   <path d="m611.43 333.08a3.5714 5.1334 0 0 1 3.5714 5.1334v323.3a3.5714 5.1334 0 0 1 -3.5714 5.1334 3.5714 5.1334 0 0 1 -3.5714 -5.1334v-323.3a3.5714 5.1334 0 0 1 3.5714 -5.1334" fill="#fff" filter="url(#d)" opacity=".2351" stroke="#b7b7b7" stroke-linejoin="round"/>
   <path d="m640.09 291.74c-20.156 0-36.723 3.9917-39.031 9.125 3.8155 4.6623 19.585 8.1875 38.469 8.1875 20.122 0 36.71-3.973 39.062-9.0938-3.7673-4.679-19.571-8.2188-38.5-8.2188z" fill="url(#a)" opacity=".232" stroke="#000" stroke-opacity=".3492"/>
   <path d="m659.5 312.01h12.431a4.4986 5.1334 0 0 1 4.4986 5.1334v341.88a4.4986 5.1334 0 0 1 -4.4986 5.1334h-12.431a4.4986 5.1334 0 0 1 -4.4986 -5.1334v-341.88a4.4986 5.1334 0 0 1 4.4986 -5.1334" filter="url(#c)" opacity=".2351" stroke="#b7b7b7" stroke-linejoin="round"/>
  </g>
  <g transform="translate(362.73 271.16)">
   <path d="m676.28 295.62c0.23945 0.44853 0.375 0.90917 0.375 1.375 0 5.4205-16.758 9.8125-37.438 9.8125s-37.438-4.392-37.438-9.8125c0-0.0794-7e-3 -0.17101 0-0.25-0.79651 0.92309-1.2812 2.1886-1.2812 3.5938v358.31c0 2.7133 1.8241 4.8967 4.1562 5.0938 4.6372 4.0397 18.921 7 35.844 7 18.432 0 33.732-3.4964 36.844-8.0938 1.0415-0.93859 1.7188-2.3612 1.7188-4v-358.31c0-2.1445-1.1511-3.9511-2.7812-4.7188z" fill="url(#b)" stroke="#000"/>
   <path transform="matrix(.88868 0 0 .96519 432.85 97.625)" d="m277.14 208.79c0 5.9173-19.827 10.714-44.286 10.714s-44.286-4.797-44.286-10.714 19.827-10.714 44.286-10.714 44.286 4.797 44.286 10.714z" fill="#decd87" stroke="#000" stroke-width="1.0797"/>
   <path d="m611.43 333.08a3.5714 5.1334 0 0 1 3.5714 5.1334v323.3a3.5714 5.1334 0 0 1 -3.5714 5.1334 3.5714 5.1334 0 0 1 -3.5714 -5.1334v-323.3a3.5714 5.1334 0 0 1 3.5714 -5.1334" fill="#fff" filter="url(#d)" opacity=".2351" stroke="#b7b7b7" stroke-linejoin="round"/>
   <path d="m640.09 291.74c-20.156 0-36.723 3.9917-39.031 9.125 3.8155 4.6623 19.585 8.1875 38.469 8.1875 20.122 0 36.71-3.973 39.062-9.0938-3.7673-4.679-19.571-8.2188-38.5-8.2188z" fill="url(#a)" opacity=".232" stroke="#000" stroke-opacity=".3492"/>
   <path d="m659.5 312.01h12.431a4.4986 5.1334 0 0 1 4.4986 5.1334v341.88a4.4986 5.1334 0 0 1 -4.4986 5.1334h-12.431a4.4986 5.1334 0 0 1 -4.4986 -5.1334v-341.88a4.4986 5.1334 0 0 1 4.4986 -5.1334" filter="url(#c)" opacity=".2351" stroke="#b7b7b7" stroke-linejoin="round"/>
  </g>
  <path d="m954.29 549.51c87.143-188.57-47.143-117.14-47.143-117.14" fill="none" stroke="#000" stroke-width="4"/>
  <path d="m833.07 620.93c68.69 18.637 137.46 26.557 239.57 0 2.3837-0.61991 4.4985 1.9517 4.4985 4.376v48.485c0 2.4243-2.1768 3.6037-4.4985 4.376-73.696 24.516-154.47 20.889-239.57 0-2.3949-0.5878-4.4986-1.9517-4.4986-4.376v-48.485c0-2.4243 2.1238-5.0204 4.4986-4.376z" fill="url(#i)"/>
  <path d="m834.5 796.7c68.69 18.637 137.46 26.557 239.57 0 2.3837-0.61991 4.4985 1.9517 4.4985 4.376v48.485c0 2.4243-2.1768 3.6037-4.4985 4.376-73.696 24.516-154.47 20.889-239.57 0-2.3949-0.5878-4.4986-1.9517-4.4986-4.376v-48.485c0-2.4243 2.1238-5.0204 4.4986-4.376z" fill="url(#h)"/>
 </g>
</svg>
