<?xml version="1.0" encoding="UTF-8"?>
<svg viewBox="0 0 744.09448819 1052.3622047" xmlns="http://www.w3.org/2000/svg" xmlns:xlink="http://www.w3.org/1999/xlink">
 <defs>
  <filter id="h">
   <feGaussianBlur stdDeviation="1.30648"/>
  </filter>
  <filter id="i" x="-.10592" y="-.04579" width="1.2118" height="1.0916">
   <feGaussianBlur stdDeviation="4.96366"/>
  </filter>
  <filter id="g" x="-.16521" y="-.09791" width="1.3304" height="1.1958">
   <feGaussianBlur stdDeviation="8.36331"/>
  </filter>
  <filter id="f" x="-.13565" y="-.05542" width="1.2713" height="1.1108">
   <feGaussianBlur stdDeviation="4.68908"/>
  </filter>
  <linearGradient id="a">
   <stop stop-color="#a00" offset="0"/>
   <stop stop-color="#a00" stop-opacity="0" offset="1"/>
  </linearGradient>
  <linearGradient id="c" x1="383.86" x2="290.92" y1="443.24" y2="597.79" gradientUnits="userSpaceOnUse">
   <stop stop-color="#f00" offset="0"/>
   <stop stop-color="#f00" stop-opacity="0" offset="1"/>
  </linearGradient>
  <linearGradient id="b" x1="382.85" x2="330.32" y1="447.28" y2="604.86" gradientUnits="userSpaceOnUse">
   <stop stop-color="#f55" offset="0"/>
   <stop stop-color="#f55" stop-opacity="0" offset="1"/>
  </linearGradient>
  <linearGradient id="e" x1="180.82" x2="292.94" y1="451.32" y2="660.42" gradientUnits="userSpaceOnUse" xlink:href="#a"/>
  <linearGradient id="d" x1="314.98" x2="358.76" y1="406.87" y2="433.64" gradientUnits="userSpaceOnUse" xlink:href="#a"/>
 </defs>
 <path transform="matrix(1.7802 .13901 -.13901 1.7802 -257.25 12.074)" d="m497.14 386.65-72.251-82.578 45.474 99.857-59.457-92.218 30.45 105.41-45.396-99.893 14.777 108.72-30.368-105.44-1.2109 109.72-14.693-108.74-17.173 108.37 1.2959-109.72-32.769 104.72 17.257-108.36-47.667 98.829 32.85-104.69-61.548 90.836 47.743-98.792-74.118 80.906 61.619-90.788-85.109 69.252 74.181-80.849-94.285 56.123 85.162-69.186-101.45 41.796 94.328-56.049-106.46 26.58 101.48-41.718-109.19 10.796 106.48-26.497-109.6-5.2172 109.2-10.712-107.67-21.12 109.6 5.3021-103.45-36.572 107.66 21.203-97.023-51.244 103.42 36.652-88.527-64.825 96.983 51.32-78.145-77.024 88.477 64.893-66.098-87.581 78.086 77.084-52.642-96.272 66.03 87.632-38.063-102.91 52.567 96.312-22.674-107.36 37.984 102.94-6.8012-109.51 22.591 107.37 9.2166-109.34 6.7163 109.52 25.038-106.83-9.3013 109.33 40.325-102.05-25.121 106.81 54.754-95.086-40.405 102.01 68.015-86.101-54.827 95.044 79.826-75.28-68.082 86.048 89.937-62.855-79.885 75.218 98.13-49.09-89.985 62.785 104.23-34.28-98.168 49.014 108.11-18.738-104.26 34.199 109.69-2.797-108.13 18.654 108.93 13.204-109.69 2.712 105.84 28.923-108.92-13.288 100.5 44.025-105.82-29.005 93.023 58.19-100.47-44.103 83.559 71.114-92.978-58.262 72.315 82.522-83.504-71.179 59.529 92.172z" fill="#cf0" opacity=".7125"/>
 <path transform="matrix(1.7856 0 0 1.7856 -288.73 61.749)" d="m497.14 386.65-72.251-82.578 45.474 99.857-59.457-92.218 30.45 105.41-45.396-99.893 14.777 108.72-30.368-105.44-1.2109 109.72-14.693-108.74-17.173 108.37 1.2959-109.72-32.769 104.72 17.257-108.36-47.667 98.829 32.85-104.69-61.548 90.836 47.743-98.792-74.118 80.906 61.619-90.788-85.109 69.252 74.181-80.849-94.285 56.123 85.162-69.186-101.45 41.796 94.328-56.049-106.46 26.58 101.48-41.718-109.19 10.796 106.48-26.497-109.6-5.2172 109.2-10.712-107.67-21.12 109.6 5.3021-103.45-36.572 107.66 21.203-97.023-51.244 103.42 36.652-88.527-64.825 96.983 51.32-78.145-77.024 88.477 64.893-66.098-87.581 78.086 77.084-52.642-96.272 66.03 87.632-38.063-102.91 52.567 96.312-22.674-107.36 37.984 102.94-6.8012-109.51 22.591 107.37 9.2166-109.34 6.7163 109.52 25.038-106.83-9.3013 109.33 40.325-102.05-25.121 106.81 54.754-95.086-40.405 102.01 68.015-86.101-54.827 95.044 79.826-75.28-68.082 86.048 89.937-62.855-79.885 75.218 98.13-49.09-89.985 62.785 104.23-34.28-98.168 49.014 108.11-18.738-104.26 34.199 109.69-2.797-108.13 18.654 108.93 13.204-109.69 2.712 105.84 28.923-108.92-13.288 100.5 44.025-105.82-29.005 93.023 58.19-100.47-44.103 83.559 71.114-92.978-58.262 72.315 82.522-83.504-71.179 59.529 92.172z" fill="#fc0" opacity=".7125"/>
 <g transform="matrix(1.7345 0 0 1.7345 -247.76 77.434)">
  <g transform="translate(27.398 -114.43)">
   <path d="m330.37 433.33s-6.6345-25.801-19.904-38.333-58.973-54.55-63.396-95.832 30.224-59.711 30.224-59.711 30.961-15.481 53.813 0 11.058 8.846 11.058 8.846 19.904-14.743 39.07-10.32 36.121 28.75 32.435 58.236-18.429 62.659-50.865 95.095-32.435 44.967-32.435 42.019z" fill="#d40000" fill-rule="evenodd" stroke="#000" stroke-width=".72976"/>
   <path d="m327.9 435.7c0.04037-0.20288 0.06483-0.40831 0.08844-0.61367 0.05111-0.40508 0.06296-0.81337 0.07872-1.2209 0.02126-0.54957-0.0329-1.0972-0.10098-1.6417-0.12776-0.92096-0.31347-1.8325-0.50043-2.7429-0.21791-1.0523-0.45853-2.0996-0.71136-3.144-0.26904-1.1437-0.62292-2.2654-0.98161-3.3836-0.38107-1.1971-0.81427-2.3759-1.2675-3.5472-0.49568-1.2627-1.0864-2.4845-1.6863-3.7001-0.63321-1.272-1.2975-2.5283-1.9875-3.7703-0.69299-1.2525-1.4385-2.4748-2.212-3.6789-0.80511-1.2341-1.6589-2.4358-2.5066-3.6409-0.89402-1.2723-1.8337-2.511-2.7912-3.7358-1.1017-1.351-2.24-2.6717-3.3836-3.9872-1.1871-1.3533-2.3942-2.6889-3.6056-4.0204-1.2347-1.3476-2.4824-2.6831-3.7383-4.0109-1.3287-1.4159-2.6767-2.8135-4.0282-4.2076-1.388-1.4109-2.7892-2.8087-4.1851-4.2118-1.4692-1.4861-2.9248-2.9854-4.3694-4.4954-1.4912-1.5426-2.9551-3.1111-4.4228-4.6759-1.5449-1.6433-3.0677-3.307-4.5825-4.978-1.5433-1.6966-3.0615-3.4159-4.5544-5.157-1.4917-1.7259-2.9309-3.4955-4.344-5.286-1.4038-1.8097-2.756-3.6586-4.088-5.5216-1.3075-1.8232-2.5565-3.687-3.7823-5.5658-1.2226-1.8755-2.366-3.8004-3.4793-5.7423-1.1057-1.9343-2.1215-3.9175-3.1208-5.9082-0.97657-1.93-1.8616-3.904-2.7375-5.8811-0.85359-1.944-1.6334-3.9189-2.3765-5.9074-0.72897-1.9504-1.3817-3.9278-2.0202-5.9093-0.60916-1.9146-1.1548-3.8486-1.6847-5.7864-0.52051-1.8687-0.98337-3.7519-1.3974-5.6468-0.43285-1.8891-0.68848-3.8095-0.90439-5.7333-0.2178-1.9447-0.24738-3.9041-0.25598-5.859-0.0059-1.9143 0.09743-3.8266 0.24854-5.7343 0.15465-1.8706 0.39812-3.7316 0.6896-5.5852 0.2643-1.8796 0.73993-3.7159 1.2522-5.5403 0.52469-1.8762 1.1965-3.7064 1.8878-5.5263 0.69591-1.9002 1.5893-3.715 2.5117-5.5129 0.90596-1.7622 1.8808-3.4873 2.8777-5.1992 0.96374-1.6756 2.0308-3.2874 3.1312-4.8754 1.0696-1.5593 2.2305-3.0505 3.4535-4.4915 1.2148-1.4127 2.5232-2.7397 3.8695-4.0262 1.3038-1.2413 2.6992-2.3792 4.1257-3.4751 1.3924-1.0626 2.8597-2.0198 4.3524-2.9338 1.4529-0.88239 2.96-1.669 4.4788-2.4303 1.499-0.74306 3.0347-1.4063 4.5932-2.0136 1.5343-0.60388 3.1133-1.0808 4.6998-1.5249 1.5536-0.42619 3.1291-0.76614 4.7102-1.072 1.5848-0.29364 3.1846-0.49583 4.7864-0.66883 1.5899-0.18195 3.187-0.27074 4.7857-0.32108 1.607-0.05131 3.2141-0.00976 4.8188 0.08034 1.597 0.07753 3.1853 0.25893 4.769 0.47235 1.5649 0.21221 3.1166 0.50449 4.6578 0.84634 1.4945 0.33581 2.9686 0.75236 4.4335 1.1983 1.4467 0.43889 2.8598 0.97769 4.2598 1.546 1.3766 0.55205 2.7188 1.1845 4.0486 1.8402 1.294 0.64223 2.5548 1.348 3.7905 2.0955 1.2034 0.7402 2.3741 1.5313 3.5182 2.3598 1.1304 0.82689 2.2218 1.7042 3.2868 2.6133 1.0471 0.89889 2.047 1.8502 3.0286 2.8195 0.96088 0.95208 1.8757 1.9486 2.7724 2.9609 0.88263 0.99958 1.7198 2.0377 2.5394 3.0891 0.81555 1.042 1.5771 2.1238 2.3153 3.2214 0.71841 1.0852 1.3823 2.2049 2.0323 3.332 0.6448 1.1327 1.2358 2.2945 1.7994 3.4693 0.57057 1.1918 1.0843 2.409 1.5592 3.6417l-3.271 1.261c-0.44237-1.1464-0.92183-2.2779-1.4523-3.3866-0.52401-1.095-1.0786-2.1754-1.6756-3.2326-0.60962-1.0577-1.2321-2.1084-1.9033-3.1285-0.69161-1.0302-1.4037-2.0465-2.169-3.0238-0.7739-0.99422-1.5642-1.9759-2.3975-2.9214-0.84427-0.95488-1.7055-1.8951-2.6101-2.7936-0.92016-0.91094-1.8573-1.8052-2.839-2.6501-0.99348-0.84964-2.0126-1.6683-3.0672-2.4413-1.0656-0.7733-2.1561-1.5115-3.2769-2.2028-1.1492-0.69788-2.3216-1.3571-3.5248-1.9579-1.2526-0.62081-2.5179-1.2181-3.8157-1.7395-1.3028-0.5309-2.6185-1.0332-3.965-1.4432-1.3778-0.42267-2.7646-0.8169-4.1706-1.1359-1.4451-0.32239-2.8996-0.59947-4.3672-0.79972-1.4945-0.20168-2.9933-0.37461-4.5004-0.44867-1.5037-0.08496-3.0096-0.12139-4.5156-0.0745s-3.0205 0.12882-4.5231 0.30094c-1.5064 0.16139-3.0108 0.35085-4.5008 0.62823-1.4886 0.28569-2.9721 0.60281-4.4347 1.0025-1.4772 0.41165-2.9479 0.85252-4.3765 1.4137-1.4592 0.56703-2.8985 1.1837-4.3016 1.8794-1.433 0.71577-2.8548 1.4553-4.2269 2.2836-1.3911 0.84755-2.7558 1.7391-4.0544 2.7241-1.3312 1.0183-2.6353 2.0739-3.8518 3.2288-1.2628 1.199-2.4877 2.4388-3.6257 3.7582-1.1522 1.3554-2.2452 2.7584-3.255 4.2239-1.052 1.512-2.0711 3.0475-2.9925 4.6434-0.96818 1.6581-1.9201 3.3262-2.7976 5.0346-0.8655 1.6846-1.6971 3.388-2.3498 5.1688-0.65423 1.7247-1.287 3.4596-1.7813 5.2382-0.47383 1.6968-0.91981 3.4025-1.1631 5.1506-0.27947 1.7667-0.51526 3.5401-0.66316 5.3231-0.14557 1.8124-0.24634 3.6294-0.24425 5.4483 0.00641 1.8327 0.03244 3.6694 0.23742 5.4926 0.20083 1.8075 0.44241 3.6107 0.84672 5.3859 0.39789 1.8381 0.84454 3.6647 1.3467 5.4773 0.51237 1.8895 1.0393 3.7755 1.63 5.6422 0.61958 1.9322 1.2511 3.861 1.9606 5.7625 0.71981 1.9263 1.4744 3.8399 2.2987 5.7242 0.85093 1.9287 1.7096 3.855 2.6594 5.7376 0.96787 1.9356 1.9526 3.8634 3.0257 5.7434 1.0823 1.8859 2.1941 3.7552 3.3809 5.5777 1.1976 1.84 2.4194 3.6643 3.6955 5.4512 1.2983 1.8204 2.6173 3.6264 3.9904 5.3914 1.3858 1.7541 2.7928 3.4915 4.255 5.183 1.4724 1.7173 2.9688 3.414 4.4914 5.0869 1.5028 1.6555 3.0164 3.3011 4.5544 4.924 1.4626 1.5546 2.9204 3.1137 4.4071 4.6454 1.4292 1.49 2.8672 2.9715 4.3236 4.435 1.4176 1.4067 2.8261 2.8226 4.2284 4.2446 1.3622 1.4031 2.7199 2.8103 4.0688 4.2261 1.2729 1.343 2.5376 2.6937 3.7891 4.0567 1.2284 1.3499 2.4524 2.704 3.6557 4.0764 1.1841 1.358 2.3625 2.7214 3.5118 4.1091 0.99885 1.2684 1.9882 2.5445 2.9152 3.8669 0.87745 1.2444 1.7597 2.4863 2.5924 3.7612 0.81409 1.2667 1.6009 2.5512 2.3303 3.8688 0.71629 1.291 1.4079 2.5956 2.0671 3.9168 0.64708 1.3079 1.2808 2.6235 1.827 3.9775 0.4799 1.2343 0.93898 2.4766 1.3431 3.7381 0.38674 1.1971 0.76959 2.3977 1.0675 3.6205 0.26789 1.0833 0.51761 2.171 0.75052 3.2624 0.20853 0.99188 0.41338 1.9848 0.57947 2.9848 0.10562 0.73945 0.19093 1.4828 0.16829 2.2315-0.01174 0.49665-0.02333 0.99388-0.07628 1.4883-0.03745 0.38781-0.07223 0.77803-0.16976 1.1564l-3.533-0.92165z" fill="#800000"/>
   <path d="m328.6 436.56c0.04439-0.33871 0.15095-0.66497 0.24904-0.99102 0.16087-0.55847 0.41122-1.0824 0.67006-1.6005 0.45424-0.89464 0.95349-1.7654 1.469-2.6259 0.65955-1.0936 1.3281-2.1818 1.9984-3.2689 0.73139-1.1818 1.4759-2.3555 2.241-3.5158 0.90145-1.331 1.8187-2.6512 2.7374-3.9703 1.003-1.4592 2.047-2.889 3.1126-4.303 1.1723-1.5423 2.3561-3.0759 3.5586-4.5948 1.4129-1.783 2.8622-3.5365 4.3238-5.2796 1.6709-1.9959 3.3608-3.9758 5.0603-5.9474 1.7948-2.089 3.5912-4.1766 5.3978-6.2554s3.6111-4.1575 5.4124-6.2399c1.8369-2.1258 3.6748-4.2508 5.5121-6.3762 1.9138-2.2273 3.7876-4.4884 5.6378-6.7687s3.656-4.5911 5.436-6.9241c1.7659-2.3272 3.4508-4.7136 5.106-7.1202 1.6252-2.3712 3.1764-4.7911 4.6905-7.2343 1.4608-2.3702 2.8389-4.7892 4.1895-7.2233 1.3017-2.3535 2.54-4.7414 3.7345-7.1509 1.153-2.3142 2.2208-4.6687 3.2457-7.042 0.98546-2.3048 1.872-4.65 2.7303-7.0045 0.82569-2.2831 1.5964-4.5857 2.3279-6.9006 0.70834-2.2131 1.3247-4.4534 1.8937-6.7059 0.54907-2.1739 0.98056-4.3743 1.3902-6.5779 0.39503-2.1413 0.72208-4.294 1.0222-6.4504 0.28684-2.064 0.48205-4.1387 0.64001-6.216 0.14988-1.9678 0.20772-3.9402 0.20036-5.9133-0.0203-1.8736-0.11758-3.7454-0.24199-5.6146-0.11684-1.7613-0.31688-3.5152-0.54794-5.2648-0.21977-1.6473-0.52159-3.2817-0.85901-4.9084-0.30345-1.5263-0.71946-3.0249-1.1852-4.5085-0.45721-1.4273-1.0301-2.8124-1.6361-4.1817-0.59861-1.3374-1.3002-2.6241-2.0252-3.8961-0.69425-1.2365-1.4802-2.4155-2.3058-3.5672-0.8234-1.1262-1.7109-2.2032-2.6153-3.2647-0.86811-1.0082-1.7964-1.9618-2.7649-2.8733-0.92936-0.87885-1.9329-1.6716-2.9677-2.4213-1.0168-0.73236-2.0806-1.3951-3.1619-2.0271-1.0435-0.61747-2.1356-1.1447-3.2382-1.6466-1.0682-0.49297-2.171-0.90369-3.278-1.2996-1.073-0.38189-2.1654-0.7035-3.2625-1.0077-1.0654-0.29315-2.1448-0.52873-3.2274-0.74784-1.0653-0.21142-2.1399-0.36781-3.2162-0.51003-1.0578-0.13872-2.1232-0.19869-3.1881-0.25004-1.0659-0.05272-2.1331-0.02556-3.1988 0.01672-1.061 0.04623-2.1179 0.1452-3.1715 0.2763-1.0715 0.1318-2.1287 0.34883-3.183 0.57632-1.0516 0.22385-2.0842 0.52255-3.1138 0.82973-1.0236 0.31502-2.036 0.6656-3.0435 1.0288-0.99211 0.35222-1.9715 0.73944-2.9407 1.1502-0.93802 0.40289-1.8529 0.85601-2.7542 1.3347-0.9197 0.47803-1.8127 1.0042-2.6969 1.5444-0.89619 0.55168-1.7632 1.1483-2.6257 1.7509-0.85126 0.60658-1.687 1.2346-2.5053 1.8848-0.53803 0.42961-1.0539 0.8857-1.5732 1.3374l-2.3204-2.6679c0.55939-0.48646 1.1159-0.97662 1.6961-1.4384 0.87574-0.69421 1.769-1.3661 2.6802-2.0131 0.9211-0.64263 1.8471-1.2791 2.8034-1.8686 0.94547-0.57945 1.9018-1.1415 2.886-1.6532 0.99331-0.52557 2-1.0266 3.0342-1.4675 1.0293-0.4336 2.0684-0.84451 3.1213-1.2176 1.0692-0.3836 2.143-0.75552 3.2298-1.0866 1.1171-0.33329 2.2383-0.65468 3.3795-0.8965 1.1558-0.24886 2.3156-0.48186 3.4894-0.63004 1.152-0.14406 2.3079-0.25221 3.4683-0.30009 1.1692-0.04655 2.3401-0.07304 3.5096-0.01628 1.1629 0.05649 2.3264 0.12494 3.4815 0.27647s2.3093 0.32643 3.4534 0.55306c1.164 0.23669 2.3245 0.49209 3.4694 0.81047 1.1793 0.3285 2.3535 0.67692 3.5061 1.091 1.2001 0.43126 2.3945 0.88158 3.5526 1.4174 1.2078 0.55568 2.4051 1.1363 3.5493 1.8156 1.1788 0.69306 2.3395 1.4184 3.4475 2.2211 1.1526 0.8415 2.2731 1.7276 3.3089 2.7113 1.0571 1.0024 2.0739 2.0469 3.0224 3.1535 0.96507 1.1372 1.9083 2.2936 2.7881 3.4986 0.8943 1.2512 1.7478 2.5309 2.4978 3.875 0.77961 1.3754 1.533 2.7669 2.1767 4.2121 0.65622 1.4891 1.2753 2.9955 1.7678 4.548 0.49859 1.5952 0.93908 3.2078 1.2636 4.8484 0.34804 1.7093 0.65844 3.4263 0.88461 5.1564 0.23777 1.8246 0.43965 3.654 0.55718 5.4907 0.12217 1.9409 0.21776 3.8843 0.23306 5.8294 4.2e-4 2.0624-0.06213 4.1241-0.22527 6.1806-0.16756 2.1471-0.37605 4.2912-0.67518 6.4244-0.31113 2.2064-0.65093 4.4089-1.0575 6.6-0.42646 2.2733-0.87666 4.543-1.4466 6.7855-0.58987 2.315-1.2261 4.6179-1.96 6.8919-0.75154 2.3593-1.5407 4.7066-2.3868 7.0339-0.88557 2.4126-1.7968 4.8168-2.812 7.1784-1.0511 2.4257-2.1462 4.8321-3.3303 7.1963-1.2217 2.4525-2.4894 4.8822-3.8183 7.2784-1.379 2.4786-2.7887 4.9404-4.2812 7.3529-1.5439 2.4864-3.1294 4.9464-4.7846 7.3604-1.6885 2.4484-3.4019 4.88-5.2009 7.2489-1.8009 2.3582-3.6282 4.6961-5.4972 7.0009s-3.7698 4.5881-5.6934 6.8499c-1.8343 2.1301-3.6584 4.269-5.5018 6.3912-1.8035 2.084-3.6045 4.1701-5.4173 6.2461-1.8024 2.0724-3.5941 4.154-5.3768 6.2434-1.6777 1.9674-3.352 3.9379-4.9996 5.9306-1.425 1.7321-2.8391 3.4733-4.2184 5.2421-1.173 1.5113-2.3396 3.0276-3.4961 4.5515-1.0347 1.3854-2.033 2.7966-3.0141 4.2205-0.89666 1.2923-1.7937 2.5848-2.6574 3.8995-0.73546 1.142-1.4656 2.2876-2.1763 3.4453-0.65422 1.0698-1.307 2.1406-1.9409 3.2226-0.45096 0.78524-0.89037 1.5777-1.2743 2.3984-0.15612 0.3426-0.30533 0.68888-0.40639 1.0524-0.05277 0.19313-0.11007 0.38506-0.15581 0.57971l-3.592-0.59867z" fill="#800000"/>
   <path transform="matrix(.72976 0 0 .72976 116.59 -49.355)" d="m246.48 400.81s-21.213 28.284-8.0812 66.67 51.518 78.792 59.599 112.13c4.121 16.999 1.9375 37.676-1.1923 53.859-3.0076 15.551-6.8889 26.953-6.8889 26.953s-3.0305-40.406-37.376-80.812-71.721-73.741-63.64-129.3 58.589-50.508 57.579-49.497z" fill="url(#e)" fill-rule="evenodd" filter="url(#i)"/>
   <path transform="matrix(.72976 0 0 .72976 116.59 -49.355)" d="m329.31 428.97s33.84-20.077 53.033-6.9448 20.203 31.315 20.203 31.315-18.183-60.609-61.619-53.538-19.449 9.2693-18.435 17.046c0.9978 7.6528 6.8185 12.122 6.8185 12.122z" fill="url(#d)" fill-rule="evenodd" filter="url(#h)"/>
   <path transform="matrix(.72976 0 0 .72976 116.59 -49.355)" d="m393.96 434.15s19.193 40.406-5.0508 89.904-74.751 104.05-74.751 104.05 10.102-46.467-3.0305-72.731-51.518-45.457-18.183-67.68 43.437-57.579 59.599-61.619 31.315-6.0609 41.416 8.0812z" fill="url(#c)" fill-rule="evenodd" filter="url(#g)"/>
   <path transform="matrix(.72976 0 0 .72976 116.59 -49.355)" d="m390.93 483.65s1.0102 21.213-34.345 73.741-48.487 63.64-48.487 63.64 58.589-76.772 64.65-117.18-1.0102-69.701-13.132-68.69-13.132-11.112-5.0508-15.152 30.099-3.445 33.335 14.142c4.1085 22.325 3.0304 49.497 3.0304 49.497z" fill="url(#b)" fill-rule="evenodd" filter="url(#f)" opacity=".7125"/>
   <path d="m312.53859,307.54236c-.00811-.7565.18591-1.48897.38618-2.21159 .25266-.94108.66402-1.8171 1.13903-2.66344 .52953-.89836 1.18299-1.708 1.84226-2.51192 .67586-.84699 1.42924-1.61948 2.20281-2.37587 .85865-.85824 1.83856-1.57165 2.85753-2.22475 1.07836-.67571 2.23686-1.20359 3.41031-1.68881 1.22234-.49596 2.48359-.88395 3.7517-1.24275 1.29788-.3512 2.6238-.58345 3.95041-.79465l.6917,4.69487c-1.12613.14921-2.23985.3833-3.34366.65022-1.09.31399-2.17457.65144-3.22491,1.08267-.91318.38215-1.81667.79336-2.65732,1.32019-.74218.47594-1.45593.99539-2.07877,1.62356-.6427.63303-1.27509,1.27191-1.83015,1.98591-.48133.59768-.96324,1.19462-1.36027,1.85377-.27258.4805-.48751.98647-.63407,1.52005-.07773.32203-.18369.64784-.1575.98254h-4.94528z" opacity=".7125"/>
   <path d="m360.93 292.29c0.35167 0.24683 0.72509 0.45794 1.0955 0.67489 0.55144 0.29186 1.1148 0.56061 1.672 0.84127 0.73731 0.364 1.4775 0.72178 2.212 1.0914 0.88515 0.45407 1.7364 0.96805 2.5842 1.4872 0.93943 0.58939 1.8185 1.2668 2.6623 1.9848 0.92864 0.79706 1.7146 1.7323 2.4972 2.6674 0.83352 0.97536 1.5321 2.0501 2.1742 3.1577 0.55052 0.96586 0.9998 1.9828 1.4246 3.0085l-4.3762 1.8198c-0.34769-0.83206-0.71342-1.6578-1.1612-2.4419-0.50572-0.87067-1.0563-1.715-1.7144-2.48-0.61183-0.72794-1.217-1.4626-1.9451-2.0808-0.65215-0.55268-1.3395-1.0643-2.058-1.5277-0.73369-0.44283-1.4667-0.88685-2.231-1.2758-0.74496-0.36474-1.498-0.71082-2.2479-1.0653-0.63119-0.31456-1.2792-0.59518-1.905-0.92086-0.43913-0.24159-0.88136-0.47736-1.3108-0.73612l2.6277-4.2043z" opacity=".7125"/>
   <path d="m303.92 329.53c0.1788 0.43182 0.35574 0.86337 0.54921 1.2889 0.29267 0.65053 0.57088 1.3081 0.87838 1.9518 0.36053 0.78805 0.74821 1.5626 1.1418 2.3345 0.45591 0.93069 0.97545 1.8256 1.5251 2.7033 0.64857 1.008 1.2736 2.0349 1.9885 2.9978 0.76124 1.0382 1.6076 2.0099 2.4658 2.9682 0.83888 0.97852 1.7212 1.9158 2.673 2.7848 0.9308 0.88653 1.933 1.6929 2.9513 2.4757 1.0477 0.79711 2.1524 1.5056 3.3061 2.1375 1.3142 0.69291 2.6586 1.3227 4.0249 1.9054 1.3798 0.58281 2.7968 1.0692 4.2228 1.5245 1.4583 0.45954 2.9382 0.8449 4.4261 1.195 1.5489 0.34822 3.1052 0.66809 4.6747 0.90813 1.5291 0.24711 3.0729 0.34861 4.619 0.39983 1.5076 0.00773 3.0137-0.03702 4.5184-0.1253 1.3907-0.11154 2.775-0.27781 4.1519-0.50192 1.333-0.20883 2.644-0.53231 3.9452-0.88457 1.2907-0.33902 2.552-0.77729 3.8054-1.2329 1.2342-0.43714 2.3953-1.0429 3.5365-1.6782 1.1625-0.61969 2.2663-1.3402 3.3496-2.0876 1.1174-0.76908 2.1788-1.6146 3.2291-2.4718 1.0792-0.91349 2.1124-1.8788 3.1305-2.8593 1.0264-1.0037 1.9932-2.062 2.9345-3.1448 0.95866-1.1057 1.8432-2.2686 2.6655-3.4783 0.80536-1.2094 1.4905-2.4927 2.1721-3.7743 0.68865-1.297 1.2728-2.6444 1.8185-4.0064 0.53142-1.3648 1.007-2.7517 1.3937-4.1644l4.496 1.2707c-0.45398 1.5649-0.96147 3.1145-1.561 4.6302-0.60863 1.5154-1.2611 3.0138-2.0276 4.4572-0.76069 1.4349-1.5281 2.8699-2.4388 4.2171-0.92685 1.3529-1.9176 2.6587-2.9879 3.9022-1.0302 1.1965-2.095 2.3624-3.2241 3.467-1.109 1.0615-2.2253 2.1172-3.3966 3.1102-1.1498 0.94731-2.324 1.8667-3.543 2.7238-1.2128 0.8278-2.4423 1.6353-3.7417 2.3225-1.3567 0.74223-2.7368 1.4466-4.1914 1.9798-1.3773 0.50584-2.7699 0.97144-4.1884 1.3494-1.4581 0.39717-2.931 0.74133-4.4245 0.97829-1.5379 0.24957-3.086 0.42863-4.6407 0.53511-1.6437 0.08929-3.2902 0.13287-4.9364 0.10688-1.7323-0.05833-3.4618-0.17732-5.1748-0.45344-1.6831-0.2638-3.3542-0.59822-5.0165-0.9711-1.6116-0.37109-3.2149-0.77776-4.7911-1.281-1.5654-0.50031-3.1204-1.0359-4.6346-1.6771-1.4988-0.64047-2.9748-1.3306-4.4223-2.0805-1.374-0.73804-2.6933-1.5656-3.9384-2.5072-1.1345-0.86312-2.2417-1.7645-3.2749-2.748-1.0621-0.97875-2.0658-2.0164-3.0022-3.1168-0.94802-1.0644-1.8883-2.1385-2.7373-3.2847-0.78659-1.0526-1.5012-2.1552-2.2088-3.2621-0.64034-0.98724-1.2385-1.998-1.7764-3.0452-0.43088-0.81104-0.866-1.6199-1.2596-2.4501-0.30795-0.63996-0.60296-1.2861-0.91192-1.9256-0.23173-0.46332-0.43704-0.9385-0.6702-1.401l4.5275-2.0122z" opacity=".7125"/>
  </g>
  <path d="m271.87 157.39c-1.6639-0.23572-3.3037-0.6278-4.9574-0.93028-2.8279-0.50966-5.6367-1.1226-8.4394-1.7546-2.9823-0.64181-5.8757-1.5719-8.696-2.7257-3.141-1.2867-6.204-2.7517-9.1739-4.3935-2.7782-1.5244-5.2814-3.4652-7.6456-5.561-2.4055-2.1084-4.001-4.7405-4.6786-7.8466-0.49925-3.9702 1.8172-7.0682 4.3526-9.8316 3.3179-3.3431 7.2753-5.9332 11.326-8.2902 5.1869-2.8907 10.608-5.3026 16.109-7.5216 7.3138-2.6888 14.901-4.5138 22.499-6.1859 8.8761-1.9827 17.836-3.5522 26.791-5.1281 9.2381-1.6131 18.551-2.6779 27.878-3.608 9.2544-0.84477 18.533-1.3503 27.821-1.5953 8.4634-0.22134 16.93-0.11225 25.39 0.1536 7.1044 0.23061 14.193 0.76571 21.265 1.4659 5.8063 0.55179 11.558 1.511 17.275 2.6465 4.7438 0.97703 9.4004 2.3127 14.015 3.7708 3.9529 1.2874 7.801 2.8622 11.581 4.5859 3.2826 1.446 6.3315 3.3099 9.252 5.3776 2.5032 1.7947 4.7778 3.8694 6.8798 6.1143 1.8053 1.9126 3.2399 4.1019 4.4808 6.409 1.0709 2.0458 1.7124 4.2479 2.0515 6.5217 0.3811 2.6027-0.32082 4.938-1.5217 7.2162-1.167 1.9935-2.6225 3.7934-4.1511 5.5173-1.4331 1.5788-3.0326 2.9932-4.6704 4.354-1.5746 1.2476-3.1895 2.444-4.8532 3.5701-1.9482 1.324-4.0927 2.2741-6.2597 3.1708-2.1575 0.86042-4.3414 1.6515-6.5133 2.4742l-1.8772-5.0862c2.0971-0.75369 4.1892-1.5228 6.2401-2.3962 1.8221-0.81467 3.6098-1.7064 5.2734-2.8162 1.5163-1.0171 2.9872-2.1002 4.4257-3.2243 1.4278-1.1757 2.8166-2.405 4.0795-3.7587 1.2467-1.3827 2.4328-2.8284 3.3958-4.427 0.6643-1.2158 1.0604-2.3988 0.8698-3.8093-0.21302-1.649-0.6572-3.2433-1.4011-4.7382-0.96537-1.9139-2.1172-3.7188-3.5698-5.3059-1.8065-2.0162-3.7874-3.8651-5.9598-5.4858-2.6331-1.9114-5.3927-3.6255-8.3522-4.9933-3.5624-1.695-7.1927-3.2451-10.933-4.5084-4.4313-1.4535-8.8969-2.8134-13.451-3.8325-5.5546-1.1873-11.142-2.2289-16.791-2.8559-6.9598-0.81475-13.94-1.4476-20.941-1.7752-8.3699-0.3849-16.748-0.60275-25.128-0.43801-9.195 0.23335-18.387 0.63369-27.548 1.4937-9.2359 0.89937-18.45 2.0206-27.587 3.6621-8.8916 1.5056-17.77 3.108-26.557 5.1523-7.3333 1.7921-14.645 3.7496-21.669 6.5491-5.2595 2.1709-10.438 4.5558-15.336 7.466-3.5526 2.1881-7.0724 4.5096-9.9541 7.5624-1.3015 1.5172-2.8716 3.2656-2.8029 5.3884 0.1733 1.9295 1.528 3.5222 2.8594 4.8321 2.0378 1.8662 4.225 3.565 6.6342 4.9313 2.7387 1.552 5.5672 2.9518 8.5022 4.096 2.6083 0.95844 5.2532 1.798 7.9686 2.4032 2.6782 0.61233 5.3622 1.2196 8.0814 1.6216 1.3003 0.16432 2.9812 0.40824 4.1226 0.31443v6.0027z" fill="#fff" opacity=".7125"/>
 </g>
</svg>
