<?xml version="1.0" encoding="UTF-8"?>
<svg width="210mm" height="297mm" version="1.1" viewBox="0 0 744.09448819 1052.3622047" xmlns="http://www.w3.org/2000/svg" xmlns:xlink="http://www.w3.org/1999/xlink">
 <defs>
  <linearGradient id="h" x1="138.33" x2="165.01" y1="477.54" y2="483.24" gradientUnits="userSpaceOnUse" xlink:href="#f"/>
  <linearGradient id="f">
   <stop stop-color="#8a916f" offset="0"/>
   <stop stop-color="#a7ac93" offset="1"/>
  </linearGradient>
  <linearGradient id="i" x1="154.02" x2="160.26" y1="486.58" y2="500" gradientUnits="userSpaceOnUse">
   <stop stop-color="#c4c8b7" offset="0"/>
   <stop stop-color="#c4c8b7" stop-opacity="0" offset="1"/>
  </linearGradient>
  <linearGradient id="g" x1="136.13" x2="159.88" y1="510.73" y2="517.39" gradientUnits="userSpaceOnUse" xlink:href="#f"/>
  <linearGradient id="j" x1="176.58" x2="179.51" y1="435.43" y2="505.04" gradientTransform="translate(.18041 -3.6922)" gradientUnits="userSpaceOnUse">
   <stop stop-color="#8a916f" offset="0"/>
   <stop stop-color="#676c53" offset="1"/>
  </linearGradient>
 </defs>
 <g transform="matrix(2.163 0 0 2.163 -55.106 -486.04)">
  <g transform="matrix(.77286 -.093026 .06608 .54899 108.26 247.92)">
   <path d="m164.87 504.22c1.4374-11.088-7.7621-15.115-17.03-14.773-9.8919 0.36553-15.887 13.457-18.937 22.874-2.9387 9.0718-7.6731 28.547 1.8578 28.547 8.4688 0 6.134-11.01 10.232-15.739 6.9283-7.9956 22.694-11.78 23.878-20.91z" fill="#454837"/>
   <path d="m142.59 492.1c-4.8865-0.77738-11.754 14.313-13.693 20.225-2.9719 9.061-7.6627 28.536 1.8682 28.536 8.4688 0 5.805-11.311 10.232-15.734 7.08-7.0727 24.242-13.374 24.256-22.58 5e-3 -3.5344-1.2855-9.5163-5.5179-9.4912" fill="none" stroke="#000" stroke-width=".54845"/>
  </g>
  <g transform="matrix(.76519 .2044 -.16493 .68665 223.04 133.77)">
   <path d="m141.88 449.3c-10.298 0-17.977 9.467-17.977 19.764s6.7178 19.779 14.221 26.37c6.8028 5.9761 18.14 15.156 25.372 9.7058 11.902-8.9701 3.8792-31.803-3.8516-44.545-3.6398-5.9991-8.557-11.295-17.764-11.295z" fill="#454837"/>
   <path transform="translate(-4.923e-6)" d="m124.25 464c-0.40338 1.6414-0.59206 3.3353-0.625 5.0625-0.24031 12.602 11.507 24.798 19.158 30.415 0.20254 0.17792 0.44588 0.37924 0.65625 0.5625 0.0424-0.20081 0.10479-0.39636 0.15625-0.59375-0.13991-0.12217-0.29236-0.26882-0.4375-0.375-7.4747-5.468-18.987-17.794-18.97-30.008 2e-3 -1.5394 0.16976-3.0598 0.5-4.5312-0.14892-0.17933-0.30183-0.34722-0.4375-0.53125zm37.969 0.59375c-0.12558 0.1503-0.27161 0.29068-0.40625 0.4375 2.9801 5.7486 5.6763 12.657 6.8438 19.281 1.3662 7.7521 0.6236 15.033-4.125 19.562-0.16815 0.40947-0.35533 0.83059-0.5625 1.2188 5.7777-4.6105 6.7163-12.524 5.25-20.844-1.1933-6.7709-3.9573-13.829-7-19.656z" color="#000000" style="block-progression:tb;text-decoration-line:none;text-indent:0;text-transform:none"/>
  </g>
  <g transform="matrix(.85348 0 0 .85348 134.49 68.687)">
   <g transform="translate(2.7649 -2.0481)">
    <path d="m135.57 540.25c-1.2014 0-2.1656 3.9234-2.1656 4.8861h14.03c0-0.9627-0.96425-4.8861-2.1656-4.8861z" fill="#808080" stroke="#000" stroke-width=".54845"/>
    <path d="m138.34 543.22 3.2455 0.33839c0.23658 0.0247 1.1244 1.1018 1.1244 1.1018s-0.63732-1.4869-0.97808-1.4869z" fill="#b3b3b3" opacity=".4084"/>
   </g>
   <path d="m123.78 537.3c-1.9436 0.66068-3.7005 5.3204-3.7005 6.6259-0.12478 1.3896 23.802 1.8875 23.973 0 0-1.3055-1.7633-5.9465-3.7005-6.6259-6.9021-2.4208-9.6701-2.3461-16.572 0z" fill="#676c53"/>
   <path d="m123.78 537.3c-1.9436 0.66068-3.7005 5.3204-3.7005 6.6259-0.12478 1.3896 23.802 1.8875 23.973 0 0-1.3055-1.7633-5.9465-3.7005-6.6259-6.9021-2.4208-9.6701-2.3461-16.572 0z" fill="#454837" stroke="#000" stroke-width=".54845"/>
   <path d="m135.57 540.25c-1.2014 0-2.1656 3.9234-2.1656 4.8861h14.03c0-0.9627-0.96425-4.8861-2.1656-4.8861z" fill="#808080" stroke="#000" stroke-width=".54845"/>
  </g>
 </g>
 <g transform="matrix(2.163 0 0 2.163 -45.082 -483.61)">
  <g transform="matrix(.98291 0 0 .69819 26.304 150.4)">
   <path d="m164.87 504.22c1.4374-11.088-7.7621-15.115-17.03-14.773-9.8919 0.36553-15.887 13.457-18.937 22.874-2.9387 9.0718-7.6731 28.547 1.8578 28.547 8.4688 0 6.134-11.01 10.232-15.739 6.9283-7.9956 22.694-11.78 23.878-20.91z" fill="#454837"/>
   <path d="m142.59 492.1c-4.8865-0.77738-11.754 14.313-13.693 20.225-2.9719 9.061-7.6627 28.536 1.8682 28.536 8.4688 0 5.805-11.311 10.232-15.734 7.08-7.0727 24.242-13.374 24.256-22.58 5e-3 -3.5344-1.2855-9.5163-5.5179-9.4912" fill="none" stroke="#000" stroke-width=".54845"/>
  </g>
  <g transform="matrix(.96385 0 0 .82017 28.69 90.936)">
   <path d="m141.88 449.3c-10.298 0-17.977 9.467-17.977 19.764s6.7178 19.779 14.221 26.37c6.8028 5.9761 18.14 15.156 25.372 9.7058 11.902-8.9701 3.8792-31.803-3.8516-44.545-3.6398-5.9991-8.557-11.295-17.764-11.295z" fill="#454837"/>
   <path transform="translate(-4.923e-6)" d="m124.25 464c-0.40338 1.6414-0.625 3.3358-0.625 5.0625 0 10.417 6.7728 19.939 14.312 26.562 0.20254 0.17792 0.44588 0.37924 0.65625 0.5625 0.0424-0.20081 0.10479-0.39636 0.15625-0.59375-0.13991-0.12217-0.30117-0.25524-0.4375-0.375-7.4658-6.5585-14.125-15.978-14.125-26.156 0-1.5394 0.16976-3.0598 0.5-4.5312-0.14892-0.17933-0.30183-0.34722-0.4375-0.53125zm37.969 0.59375c-0.12558 0.1503-0.27161 0.29068-0.40625 0.4375 2.9801 5.7486 5.6763 12.657 6.8438 19.281 1.3662 7.7521 0.6236 15.033-4.125 19.562-0.16815 0.40947-0.35533 0.83059-0.5625 1.2188 5.7777-4.6105 6.7163-12.524 5.25-20.844-1.1933-6.7709-3.9573-13.829-7-19.656z" color="#000000" style="block-progression:tb;text-decoration-line:none;text-indent:0;text-transform:none"/>
  </g>
  <g transform="translate(25.138 -12.822)">
   <g transform="translate(2.7649 -2.0481)">
    <path d="m135.57 540.25c-1.2014 0-2.1656 3.9234-2.1656 4.8861h14.03c0-0.9627-0.96425-4.8861-2.1656-4.8861z" fill="#808080" stroke="#000" stroke-width=".54845"/>
    <path d="m138.34 543.22 3.2455 0.33839c0.23658 0.0247 1.1244 1.1018 1.1244 1.1018s-0.63732-1.4869-0.97808-1.4869z" fill="#b3b3b3" opacity=".4084"/>
   </g>
   <path d="m123.78 537.3c-1.9436 0.66068-3.7005 5.3204-3.7005 6.6259-0.12478 1.3896 23.802 1.8875 23.973 0 0-1.3055-1.7633-5.9465-3.7005-6.6259-6.9021-2.4208-9.6701-2.3461-16.572 0z" fill="#454837"/>
   <path d="m123.78 537.3c-1.9436 0.66068-3.7005 5.3204-3.7005 6.6259-0.12478 1.3896 23.802 1.8875 23.973 0 0-1.3055-1.7633-5.9465-3.7005-6.6259-6.9021-2.4208-9.6701-2.3461-16.572 0z" fill="none" stroke="#000" stroke-width=".54845"/>
   <path d="m135.57 540.25c-1.2014 0-2.1656 3.9234-2.1656 4.8861h14.03c0-0.9627-0.96425-4.8861-2.1656-4.8861z" fill="#808080" stroke="#000" stroke-width=".54845"/>
  </g>
 </g>
 <g transform="matrix(2.163 0 0 2.163 -43.204 -474.3)">
  <path d="m29.665 495.94c-8.9182-0.68597 52.07-58.935 97.521-73.324 5.158-1.6329 10.296-3.3329 15.398-5.1326 49.325-17.399 81.769-7.3853 120.38 0.47643 6.8936 1.4037 15.452 2.2414 19.546 7.9629 8.5588 11.962 7.7959 30.305 2.5644 44.052-2.1847 5.7409-7.8083 9.7959-13.03 13.03-8.0138 4.9634-18.742 9.059-26.811 8.9942-16.252-0.13039-31.618 6.2288-47.628 6.2028-16.776-0.0272-34.325-3.8114-49.886-6.6616-7.2812-1.4362-15.96-1.408-21.264-6.5992-22.798-22.314-96.269 7.8824-96.788 10.999z" fill="url(#j)"/>
  <path d="m188.14 462.96c-10.548 0.35977-15.043 2.1287-31.3 4.7756-10.896 1.7741-27.791-0.76079-27.791-0.76079-22.424-11.879-73.928 12.041-97.036 22.478-3.096 3.9032-4.13 6.3497-2.3535 6.4863 0.51946-3.1162 73.991-33.313 96.789-10.998 5.3037 5.1911 13.983 5.1634 21.264 6.5996 15.562 2.8501 33.11 6.633 49.887 6.6602 16.01 0.026 31.375-6.3335 47.627-6.2031 8.0683 0.0647 19.356-5.8695 26.81-8.9935 4.7205-1.9783 8.9845-5.7683 11.637-10.26-11.655 0.40407-26.595-3.7314-39.946-5.1477-18.49-1.9615-37.005-5.2704-55.588-4.6366z" fill="#c4c8b7"/>
  <path d="m195.9 407.87c-0.74516 1e-4 -1.4993 0.0199-2.25 0.0312l-2 3.9375 2.625 3.8438-2.8125 1.9688 3.9062 1.6562 0.53125 9.5c4.5131 7.071 7.5709 8.6101 11.344 12.906 0 0-3.523-7.3856-4.0938-11.375-0.45331-3.1684 0.5625-9.5625 0.5625-9.5625l5.7188-2.8125-2.5938-3.8438 4.25-2.2812-0.9375-3.3438c-4.6658-0.41078-9.3994-0.62568-14.25-0.625zm-10.562 0.375c-5.139 0.36817-10.42 1.0366-15.906 2.0312l-0.8125 1.5938 2.375 3.5-2.5625 1.7812 3.5625 1.5625 0.5 8.6562c4.1215 6.4575 6.8982 7.8578 10.344 11.781 0 0-3.1975-6.7317-3.7188-10.375-0.41397-2.8936 0.53125-8.75 0.53125-8.75l5.2188-2.5625-2.4062-3.5312 3.9062-2.0625-1.0312-3.625zm30.531 0.875c-0.0169 0.22191-0.0365 0.4378-0.0625 0.65625l-2.4688 4.8125 2.9062 4.3125-3.125 2.1875 4.3438 1.875 0.625 10.562c5.0351 7.8889 8.4157 9.6444 12.625 14.438 0 0-3.9258-8.2678-4.5625-12.719-0.50574-3.535 0.65625-10.688 0.65625-10.688l6.375-3.0938-2.9062-4.3125 4.75-2.5312-0.7188-2.5938c-6.1141-1.1648-12.236-2.1692-18.437-2.9062zm-55.031 2.9375c-4.8774 1.1647-9.9285 2.6277-15.156 4.375l1.7812 1.9062-2.0938 2.0312 3.5313 0.875 1.7812 7.9375c4.8004 5.3473 7.5872 6.2386 11.375 9.3438 0 0-4.0239-5.7389-5.0625-9.0312-0.82494-2.6148-0.84375-8.1875-0.84375-8.1875l4.4375-3.1562-2.75-2.9062 3.3125-2.5-0.3125-0.6875zm3.5938 5.3125c-1.1445 0-2.0938 0.91796-2.0938 2.0625s0.94921 2.0938 2.0938 2.0938 2.0625-0.94921 2.0625-2.0938-0.91796-2.0625-2.0625-2.0625zm-29.781 2.8438c-2.483 0.82469-4.9746 1.6166-7.4688 2.4062-0.81029 0.25652-1.6178 0.52867-2.4375 0.8125l0.34375 0.3125-1.7812 2.0625 3.3438 0.53125 2.25 7.25c4.8649 4.6161 7.5256 5.2379 11.281 7.8438 0 0-4.163-5.046-5.375-8.0312-0.96259-2.371-1.4062-7.5625-1.4062-7.5625l3.9062-3.25-2.6562-2.375zm75.344 4.5938c-1.0434 0-1.875 0.86287-1.875 1.9062s0.83162 1.875 1.875 1.875 1.9062-0.83162 1.9062-1.875-0.86287-1.9062-1.9062-1.9062zm-93.969 2.0625c-3.5718 1.5638-7.1782 3.3233-10.812 5.25l1.125 0.8125-1.375 1.9375 2.9688 0.1875 2.5938 6.0625c4.6306 3.5607 6.9803 3.8621 10.469 5.7812 0 0-4.0247-3.9917-5.3438-6.4688-1.0476-1.9673-1.9062-6.4375-1.9062-6.4375l3.0625-3.1562-2.625-1.9062 1.8438-2.0625zm72.156 1.5625c-0.73988 0-1.3438 0.60387-1.3438 1.3438s0.60387 1.3438 1.3438 1.3438 1.3438-0.60387 1.3438-1.3438-0.60387-1.3438-1.3438-1.3438zm-42.406 1.2188c-0.94222 0-1.7188 0.77654-1.7188 1.7188s0.77654 1.6875 1.7188 1.6875c0.94221 0 1.6875-0.74529 1.6875-1.6875s-0.74529-1.7188-1.6875-1.7188zm-25.406 6.0625c-0.73988 0-1.3438 0.60387-1.3438 1.3438s0.60387 1.3438 1.3438 1.3438 1.3438-0.60387 1.3438-1.3438-0.60387-1.3438-1.3438-1.3438zm-16.062 1.0312c-0.73988 0-1.3125 0.60387-1.3125 1.3438s0.57262 1.3438 1.3125 1.3438 1.3438-0.60387 1.3438-1.3438-0.60387-1.3438-1.3438-1.3438zm129.03 1.375c-0.8411 0-1.5313 0.6902-1.5313 1.5312s0.6902 1.5312 1.5313 1.5312c0.841 0 1.5-0.6902 1.5-1.5312s-0.659-1.5312-1.5-1.5312zm-140.44 1.0938c-2.686 1.6579-5.3604 3.3628-8 5.125l1.9062 0.125 2.375 5.5c4.193 3.2242 6.31 3.5122 9.4688 5.25 0 0-3.6494-3.632-4.8438-5.875-0.94858-1.7814-1.7188-5.8125-1.7188-5.8125l2.7812-2.875-1.9688-1.4375zm108.22 1.4688c-1.1445 0-2.0625 0.91796-2.0625 2.0625s0.91796 2.0938 2.0625 2.0938 2.0625-0.94921 2.0625-2.0938-0.91796-2.0625-2.0625-2.0625zm-37.656 0.15625c-0.73988 0-1.3438 0.60387-1.3438 1.3438s0.60387 1.3438 1.3438 1.3438 1.3438-0.60387 1.3438-1.3438-0.60387-1.3438-1.3438-1.3438zm-30.375 0.71875c-0.94221 0-1.7188 0.77654-1.7188 1.7188s0.77654 1.7188 1.7188 1.7188 1.6875-0.77654 1.6875-1.7188-0.74529-1.7188-1.6875-1.7188zm-29.812 8.4688c-1.1445 0-2.0625 0.91796-2.0625 2.0625s0.91796 2.0625 2.0625 2.0625 2.0938-0.91796 2.0938-2.0625-0.94921-2.0625-2.0938-2.0625zm-19.156 0.8125c-0.53756 0-0.96875 0.46244-0.96875 1s0.43119 0.96875 0.96875 0.96875c0.53755 0 0.96875-0.43119 0.96875-0.96875s-0.4312-1-0.96875-1zm-10.281 1.25c-1.3042 0.95639-2.5695 1.9115-3.8438 2.875l2 3.1875c4.3097 2.3486 6.2908 2.2705 9.4375 3.4062 0 0-3.8933-2.7732-5.3125-4.6562-1.0465-1.3884-2.118-4.3613-2.2812-4.8125zm-1.6562 12.719c-0.84105 0-1.5 0.6902-1.5 1.5312s0.65895 1.5312 1.5 1.5312c0.84104 0 1.5312-0.6902 1.5312-1.5312s-0.69021-1.5312-1.5312-1.5312zm-14.969 0.3125c-0.96946 0.81012-1.9408 1.6069-2.875 2.4062 3.7683 1.9863 5.6506 2.0028 8.5 3.0312 0 0-3.6395-2.6113-4.9688-4.375-0.21416-0.28414-0.43977-0.66222-0.65625-1.0625zm-5.75 8.5938c-0.63872 0-1.1562 0.51753-1.1562 1.1562s0.51753 1.1562 1.1562 1.1562 1.1562-0.51753 1.1562-1.1562-0.51753-1.1562-1.1562-1.1562zm-9.0938 4.6875c-0.4721 0.45609-0.92364 0.89931-1.375 1.3438 1.6339 0.49953 3.0574 0.77274 4.8125 1.4062 0 0-1.808-1.3119-3.4375-2.75z" fill="#1f241c"/>
  <path d="m102.57 473.86c-26.699 0.65934-62.836 14.324-73.732 20.917-0.11954 0.70801 0.14949 1.1028 0.84375 1.1562 0.51946-3.1162 73.983-33.314 96.781-11 5.3037 5.1911 13.969 5.1888 21.25 6.625 15.562 2.8501 33.13 6.629 49.906 6.6562 16.01 0.026 31.373-6.3491 47.625-6.2188 8.0683 0.0647 19.358-5.876 26.812-9 4.7204-1.9783 8.9727-5.7586 11.625-10.25-2.0396 0.0707-4.1915 0.0122-6.4062-0.15625-1.6345 1.2578-3.3767 2.3217-5.2188 3.0938-7.4541 3.124-20.844 3.1571-28.912 3.0924-16.252-0.13039-33.123 9.8662-50.104 9.3475-24.441-0.74654-44.329-29.967-71.156-17.829-6.5526 3.601-9.6561 3.3274-19.314 3.5659z" fill="#a7ac93"/>
  <path d="m29.665 495.94c-8.9182-0.68597 52.07-58.935 97.521-73.324 5.158-1.6329 10.296-3.3329 15.398-5.1326 49.325-17.399 81.769-7.3853 120.38 0.47643 6.8936 1.4037 15.452 2.2414 19.546 7.9629 8.5588 11.962 7.7959 30.305 2.5644 44.052-2.1847 5.7409-7.8083 9.7959-13.03 13.03-8.0138 4.9634-18.742 9.059-26.811 8.9942-16.252-0.13039-31.618 6.2288-47.628 6.2028-16.776-0.0272-34.325-3.8114-49.886-6.6616-7.2812-1.4362-15.96-1.408-21.264-6.5992-20.287-17.393-74.925-2.7809-95.866 10.116-0.57222 0.3869-0.70862 0.86848-0.92211 0.88221z" fill="none" stroke="#000" stroke-width=".75"/>
 </g>
 <g transform="matrix(2.163 0 0 2.163 -43.204 -474.3)">
  <path d="m292.46 470.38c8.9041-3.7461 21.743 6.184 33.457 11.077 11.713 4.8932 22.301 4.7496 22.301 4.7496 0.8091 0.14904-2.419 8.1893-7.6787 8.1587-11.056-0.0644-52.149-7.5757-53.619-12.345 0 0 0.7308-9.6169 5.5405-11.64z" fill="#c4c8b7"/>
  <path d="m287.29 479.56c-0.26376 1.4212-0.375 2.4688-0.375 2.4688 1.4703 4.7695 42.569 12.279 53.625 12.344 5.2597 0.0306 8.4966-8.0072 7.6875-8.1562 0 0-0.60406-0.026-0.90625-0.0312-1.2716 2.33-3.6612 5.1744-6.7812 5.1562-10.619-0.0618-48.93-7.0074-53.25-11.781z" fill="#a7ac93"/>
  <path d="m292.46 470.38c8.9041-3.7461 21.743 6.184 33.457 11.077 11.713 4.8932 22.301 4.7496 22.301 4.7496 0.8091 0.14904-2.419 8.1893-7.6787 8.1587-11.056-0.0644-52.149-7.5757-53.619-12.345 0 0 0.7308-9.6169 5.5405-11.64z" fill="none" stroke="#000" stroke-width=".75"/>
 </g>
 <g transform="matrix(2.126 0 0 1.5102 -35.8 -156.98)">
  <path d="m164.87 504.22c1.4374-11.088-7.7621-15.115-17.03-14.773-9.8919 0.36553-15.887 13.457-18.937 22.874-2.9387 9.0718-7.6731 28.547 1.8578 28.547 8.4688 0 6.134-11.01 10.232-15.739 6.9283-7.9956 22.694-11.78 23.878-20.91z" fill="url(#g)"/>
  <path transform="translate(-4.923e-6)" d="m147.84 489.44c-9.8919 0.36553-15.887 13.458-18.938 22.875-2.8355 8.7534-7.343 27.185 0.90625 28.469-3.423-5.9442 0.2576-20.268 2.75-27.844 2.8335-8.6128 8.0028-20.096 16.156-23.5-0.2944 2e-3 -0.58012-0.0109-0.875 0z" fill="#676c53"/>
  <path d="m142.59 492.1c-4.8865-0.77738-11.754 14.313-13.693 20.225-2.9719 9.061-7.6627 28.536 1.8682 28.536 8.4688 0 5.805-11.311 10.232-15.734 7.08-7.0727 24.242-13.374 24.256-22.58 5e-3 -3.5344-1.2855-9.5163-5.5179-9.4912" fill="none" stroke="#000" stroke-width=".54845"/>
 </g>
 <g transform="matrix(2.0848 0 0 1.774 -30.64 -285.59)">
  <path d="m141.88 449.3c-10.298 0-17.977 9.467-17.977 19.764s6.7178 19.779 14.221 26.37c6.8028 5.9761 18.14 15.156 25.372 9.7058 11.902-8.9701 3.8792-31.803-3.8516-44.545-3.6398-5.9991-8.557-11.295-17.764-11.295z" fill="url(#h)"/>
  <path transform="translate(-4.923e-6)" d="m141.88 449.31c-10.298 0-17.969 9.4525-17.969 19.75s6.716 19.784 14.219 26.375c0.0678 0.0596 0.15005 0.12732 0.21875 0.1875-7.4845-15.865-10.76-39.015 7.75-45.906-1.3007-0.26849-2.6974-0.40625-4.2188-0.40625z" fill="#676c53" opacity=".574"/>
  <path transform="translate(-4.923e-6)" d="m148.69 503.47c5.2031 3.1143 10.679 4.8028 14.812 1.6875 4.2971-3.2386 5.9771-8.306 6.0312-14.031-13.202-6.4993-21.637 0.31408-20.844 12.344z" fill="url(#i)" opacity=".4664"/>
  <path transform="translate(-4.923e-6)" d="m124.25 464c-0.40338 1.6414-0.625 3.3358-0.625 5.0625 0 10.417 6.7728 19.939 14.312 26.562 0.20254 0.17792 0.44588 0.37924 0.65625 0.5625 0.0424-0.20081 0.10479-0.39636 0.15625-0.59375-0.13991-0.12217-0.30117-0.25524-0.4375-0.375-7.4658-6.5585-14.125-15.978-14.125-26.156 0-1.5394 0.16976-3.0598 0.5-4.5312-0.14892-0.17933-0.30183-0.34722-0.4375-0.53125zm37.969 0.59375c-0.12558 0.1503-0.27161 0.29068-0.40625 0.4375 2.9801 5.7486 5.6763 12.657 6.8438 19.281 1.3662 7.7521 0.6236 15.033-4.125 19.562-0.16815 0.40947-0.35533 0.83059-0.5625 1.2188 5.7777-4.6105 6.7163-12.524 5.25-20.844-1.1933-6.7709-3.9573-13.829-7-19.656z" color="#000000" style="block-progression:tb;text-decoration-line:none;text-indent:0;text-transform:none"/>
  <path d="m149.1 454.45c-0.94221 0-1.7188 0.77654-1.7188 1.7188s0.77654 1.7188 1.7188 1.7188 1.6875-0.77654 1.6875-1.7188-0.74529-1.7188-1.6875-1.7188z" fill="#1f241c"/>
  <path d="m137.3 463.91c-0.44062 0-0.80377 0.36315-0.80377 0.80377s0.36315 0.80377 0.80377 0.80377 0.78916-0.36315 0.78916-0.80377-0.34854-0.80377-0.78916-0.80377z" fill="#1f241c"/>
  <path d="m145.46 472.31c-0.79889 0-1.4573 0.65844-1.4573 1.4573s0.65844 1.4573 1.4573 1.4573 1.4308-0.65844 1.4308-1.4573-0.63195-1.4573-1.4308-1.4573z" fill="#1f241c"/>
  <path d="m154.35 473.53c-0.44062 0-0.80377 0.36315-0.80377 0.80377s0.36315 0.80377 0.80377 0.80377 0.78916-0.36315 0.78916-0.80377-0.34854-0.80377-0.78916-0.80377z" fill="#1f241c"/>
 </g>
 <g transform="matrix(2.163 0 0 2.163 -38.322 -510.02)">
  <g transform="translate(2.7649 -2.0481)">
   <path d="m135.57 540.25c-1.2014 0-2.1656 3.9234-2.1656 4.8861h14.03c0-0.9627-0.96425-4.8861-2.1656-4.8861z" fill="#fff" stroke="#000" stroke-width=".54845"/>
   <path transform="translate(-4.923e-6)" d="m137.47 541.46 6.042 0.62995c0.44042 0.0459 2.0933 2.0513 2.0933 2.0513s-1.1865-2.7681-1.8208-2.7681z" fill="#b3b3b3" opacity=".4084"/>
   <path d="m138.34 543.22 3.2455 0.33839c0.23658 0.0247 1.1244 1.1018 1.1244 1.1018s-0.63732-1.4869-0.97808-1.4869z" fill="#b3b3b3" opacity=".4084"/>
  </g>
  <path d="m123.78 537.3c-1.9436 0.66068-3.7005 5.3204-3.7005 6.6259-0.12478 1.3896 23.802 1.8875 23.973 0 0-1.3055-1.7633-5.9465-3.7005-6.6259-6.9021-2.4208-9.6701-2.3461-16.572 0z" fill="#676c53"/>
  <path transform="translate(-4.923e-6)" d="m132.06 535.5c-0.79189 3e-3 -1.6093 0.0888-2.4375 0.21875 2.2753 0.0707 4.6007 0.78946 7.8438 2.1562 1.6359 0.68945 3.1318 4.739 3.5625 6.9375 1.783-0.2002 2.994-0.4658 3.0312-0.875 0-1.3055-1.7816-5.9456-3.7188-6.625-3.451-1.2104-5.8637-1.8218-8.2812-1.8125z" fill="#a7ac93" opacity=".3732"/>
  <path transform="translate(-4.923e-6)" d="m124.56 537.06c-0.2667 0.0876-0.50152 0.15491-0.78125 0.25-1.9436 0.66068-3.7188 5.3195-3.7188 6.625-0.11308 1.2593 19.533 1.7859 23.344 0.46875-6.0117 0.90356-21.789 0.32596-21.688-0.875 0-1.1835 1.2635-4.9442 2.8438-6.4688z" fill="#454837"/>
  <path d="m123.78 537.3c-1.9436 0.66068-3.7005 5.3204-3.7005 6.6259-0.12478 1.3896 23.802 1.8875 23.973 0 0-1.3055-1.7633-5.9465-3.7005-6.6259-6.9021-2.4208-9.6701-2.3461-16.572 0z" fill="none" stroke="#000" stroke-width=".54845"/>
  <path d="m135.57 540.25c-1.2014 0-2.1656 3.9234-2.1656 4.8861h14.03c0-0.9627-0.96425-4.8861-2.1656-4.8861z" fill="#fff" stroke="#000" stroke-width=".54845"/>
  <path transform="translate(-4.923e-6)" d="m137.47 541.46 6.042 0.62995c0.44042 0.0459 2.0933 2.0513 2.0933 2.0513s-1.1865-2.7681-1.8208-2.7681z" fill="#b3b3b3" opacity=".4084"/>
  <path d="m138.34 543.22 3.2455 0.33839c0.23658 0.0247 1.1244 1.1018 1.1244 1.1018s-0.63732-1.4869-0.97808-1.4869z" fill="#b3b3b3" opacity=".4084"/>
 </g>
 <g transform="matrix(1.6717 -.20121 .14293 1.1874 139.59 51.457)">
  <path d="m164.87 504.22c1.4374-11.088-7.7621-15.115-17.03-14.773-9.8919 0.36553-15.887 13.457-18.937 22.874-2.9387 9.0718-7.6731 28.547 1.8578 28.547 8.4688 0 6.134-11.01 10.232-15.739 6.9283-7.9956 22.694-11.78 23.878-20.91z" fill="url(#g)"/>
  <path transform="translate(-4.923e-6)" d="m147.84 489.44c-9.8919 0.36553-15.887 13.458-18.938 22.875-2.8355 8.7534-7.343 27.185 0.90625 28.469-3.423-5.9442 0.2576-20.268 2.75-27.844 2.8335-8.6128 8.0028-20.096 16.156-23.5-0.2944 2e-3 -0.58012-0.0109-0.875 0z" fill="#676c53"/>
  <path d="m142.59 492.1c-4.8865-0.77738-11.754 14.313-13.693 20.225-2.9719 9.061-7.6627 28.536 1.8682 28.536 8.4688 0 5.805-11.311 10.232-15.734 7.08-7.0727 24.242-13.374 24.256-22.58 5e-3 -3.5344-1.2855-9.5163-5.5179-9.4912" fill="none" stroke="#000" stroke-width=".54845"/>
 </g>
 <g transform="matrix(1.6551 .44211 -.35674 1.4852 384.18 -192.95)">
  <path d="m141.88 449.3c-10.298 0-17.977 9.467-17.977 19.764s6.7178 19.779 14.221 26.37c6.8028 5.9761 18.14 15.156 25.372 9.7058 11.902-8.9701 3.8792-31.803-3.8516-44.545-3.6398-5.9991-8.557-11.295-17.764-11.295z" fill="url(#h)"/>
  <path transform="translate(-4.923e-6)" d="m141.88 449.31c-10.298 0-17.969 9.4525-17.969 19.75s6.716 19.784 14.219 26.375c0.0678 0.0596 0.15005 0.12732 0.21875 0.1875-7.4845-15.865-10.76-39.015 7.75-45.906-1.3007-0.26849-2.6974-0.40625-4.2188-0.40625z" fill="#676c53" opacity=".574"/>
  <path transform="translate(-4.923e-6)" d="m148.69 503.47c5.2031 3.1143 10.679 4.8028 14.812 1.6875 4.2971-3.2386 5.9771-8.306 6.0312-14.031-13.202-6.4993-21.637 0.31408-20.844 12.344z" fill="url(#i)" opacity=".4664"/>
  <path transform="translate(-4.923e-6)" d="m124.25 464c-0.40338 1.6414-0.59206 3.3353-0.625 5.0625-0.24031 12.602 11.507 24.798 19.158 30.415 0.20254 0.17792 0.44588 0.37924 0.65625 0.5625 0.0424-0.20081 0.10479-0.39636 0.15625-0.59375-0.13991-0.12217-0.29236-0.26882-0.4375-0.375-7.4747-5.468-18.987-17.794-18.97-30.008 2e-3 -1.5394 0.16976-3.0598 0.5-4.5312-0.14892-0.17933-0.30183-0.34722-0.4375-0.53125zm37.969 0.59375c-0.12558 0.1503-0.27161 0.29068-0.40625 0.4375 2.9801 5.7486 5.6763 12.657 6.8438 19.281 1.3662 7.7521 0.6236 15.033-4.125 19.562-0.16815 0.40947-0.35533 0.83059-0.5625 1.2188 5.7777-4.6105 6.7163-12.524 5.25-20.844-1.1933-6.7709-3.9573-13.829-7-19.656z" color="#000000" style="block-progression:tb;text-decoration-line:none;text-indent:0;text-transform:none"/>
  <path d="m149.1 454.45c-0.94221 0-1.7188 0.77654-1.7188 1.7188s0.77654 1.7188 1.7188 1.7188 1.6875-0.77654 1.6875-1.7188-0.74529-1.7188-1.6875-1.7188z" fill="#1f241c"/>
  <path d="m137.3 463.91c-0.44062 0-0.80377 0.36315-0.80377 0.80377s0.36315 0.80377 0.80377 0.80377 0.78916-0.36315 0.78916-0.80377-0.34854-0.80377-0.78916-0.80377z" fill="#1f241c"/>
  <path d="m145.46 472.31c-0.79889 0-1.4573 0.65844-1.4573 1.4573s0.65844 1.4573 1.4573 1.4573 1.4308-0.65844 1.4308-1.4573-0.63195-1.4573-1.4308-1.4573z" fill="#1f241c"/>
  <path d="m154.35 473.53c-0.44062 0-0.80377 0.36315-0.80377 0.80377s0.36315 0.80377 0.80377 0.80377 0.78916-0.36315 0.78916-0.80377-0.34854-0.80377-0.78916-0.80377z" fill="#1f241c"/>
 </g>
 <g transform="matrix(1.846 0 0 1.846 196.32 -336.22)">
  <g transform="translate(2.7649 -2.0481)">
   <path d="m135.57 540.25c-1.2014 0-2.1656 3.9234-2.1656 4.8861h14.03c0-0.9627-0.96425-4.8861-2.1656-4.8861z" fill="#fff" stroke="#000" stroke-width=".54845"/>
   <path transform="translate(-4.923e-6)" d="m137.47 541.46 6.042 0.62995c0.44042 0.0459 2.0933 2.0513 2.0933 2.0513s-1.1865-2.7681-1.8208-2.7681z" fill="#b3b3b3" opacity=".4084"/>
   <path d="m138.34 543.22 3.2455 0.33839c0.23658 0.0247 1.1244 1.1018 1.1244 1.1018s-0.63732-1.4869-0.97808-1.4869z" fill="#b3b3b3" opacity=".4084"/>
  </g>
  <path d="m123.78 537.3c-1.9436 0.66068-3.7005 5.3204-3.7005 6.6259-0.12478 1.3896 23.802 1.8875 23.973 0 0-1.3055-1.7633-5.9465-3.7005-6.6259-6.9021-2.4208-9.6701-2.3461-16.572 0z" fill="#676c53"/>
  <path transform="translate(-4.923e-6)" d="m132.06 535.5c-0.79189 3e-3 -1.6093 0.0888-2.4375 0.21875 2.2753 0.0707 4.6007 0.78946 7.8438 2.1562 1.6359 0.68945 3.1318 4.739 3.5625 6.9375 1.783-0.2002 2.994-0.4658 3.0312-0.875 0-1.3055-1.7816-5.9456-3.7188-6.625-3.451-1.2104-5.8637-1.8218-8.2812-1.8125z" fill="#a7ac93" opacity=".3732"/>
  <path transform="translate(-4.923e-6)" d="m124.56 537.06c-0.2667 0.0876-0.50152 0.15491-0.78125 0.25-1.9436 0.66068-3.7188 5.3195-3.7188 6.625-0.11308 1.2593 19.533 1.7859 23.344 0.46875-6.0117 0.90356-21.789 0.32596-21.688-0.875 0-1.1835 1.2635-4.9442 2.8438-6.4688z" fill="#454837"/>
  <path d="m123.78 537.3c-1.9436 0.66068-3.7005 5.3204-3.7005 6.6259-0.12478 1.3896 23.802 1.8875 23.973 0 0-1.3055-1.7633-5.9465-3.7005-6.6259-6.9021-2.4208-9.6701-2.3461-16.572 0z" fill="none" stroke="#000" stroke-width=".54845"/>
  <path d="m135.57 540.25c-1.2014 0-2.1656 3.9234-2.1656 4.8861h14.03c0-0.9627-0.96425-4.8861-2.1656-4.8861z" fill="#fff" stroke="#000" stroke-width=".54845"/>
  <path transform="translate(-4.923e-6)" d="m137.47 541.46 6.042 0.62995c0.44042 0.0459 2.0933 2.0513 2.0933 2.0513s-1.1865-2.7681-1.8208-2.7681z" fill="#b3b3b3" opacity=".4084"/>
  <path d="m138.34 543.22 3.2455 0.33839c0.23658 0.0247 1.1244 1.1018 1.1244 1.1018s-0.63732-1.4869-0.97808-1.4869z" fill="#b3b3b3" opacity=".4084"/>
 </g>
 <g transform="matrix(2.163 0 0 2.163 -43.204 -474.3)">
  <g transform="translate(-.86857 -3.6922)">
   <path d="m358.33 415.62c-27.351 13.442-33.199 16.701-45.689 33.632-7.2088-0.0907-13.013-1.9689-10.892-12.447 14.465-14.318 25.752-18.691 56.581-21.186z" fill="#999"/>
   <path d="m358.33 415.62c-27.351 13.442-33.199 16.701-45.689 33.632-7.2088-0.0907-13.013-1.9689-10.892-12.447 14.465-14.318 25.752-18.691 56.581-21.186z" fill="none" stroke="#000" stroke-width=".75"/>
  </g>
  <path d="m283.55 388.71c-12.553-1.0341-28.232 8.3877-37.061 17.475-7.4985 7.7182-12.309 21.194-8.313 31.186 3.7252 9.3154 13.46 13.225 23.81 16.783 0 0 12.825 9.4574 12.79 12.662-0.043 3.927-9.9973 4.8755-7.9391 8.6894 5.0969 4.5858 12.34 6.652 20.636 7.4926l3.607-8.392c0.1464 0.24862 0.3255 0.4794 0.5583 0.6721 3.6361 3.01 14.065 1.8048 14.065 1.8048l6.4161 4.006s7.6622-1.8434 11.434-1.1919c3.4048 0.58805 9.3591 4.472 9.3591 4.472s5.602-2.1352 8.2632-1.2912c4.1329 1.3106 9.3661 9.0099 9.3661 9.0099s3.2626-10.638 1.4329-15.496c-2.833-7.5215-13.203-9.8002-17.507-16.588-1.6424-2.5905-0.9636-6.3234-2.8777-8.7202-2.1234-2.659-8.7425-5.2682-8.7425-5.2682l0.4978-5.3832s-11.722-5.6464-16.031-10.324c-6.9559-7.5512-12.172-17.173-14.512-27.17-0.8248-3.5232 3.214-8.6598 0.3454-10.865-2.8125-2.1624-6.0833-3.2738-9.5982-3.5634z" fill="#8a916f"/>
  <path d="m333.36 458.32c-1.3628 1.468-2.3272 3.1734-2.3272 5.1403 0 4.8789 3.8605 9.5366 9.9771 9.5366 2.5988 0 4.9813-0.71077 6.8705-1.9062-4.8478-3.7357-10.456-6.9106-13.886-11.708-0.24503-0.34277-0.46798-0.68546-0.6342-1.0625z" fill="#676c53"/>
  <path d="m250.66 449.62c3.4825 1.7516 7.3457 3.1675 11.312 4.5312 0 0 12.847 9.452 12.812 12.656-0.043 3.927-9.9957 4.8735-7.9375 8.6875 0.98318 0.88458 2.0212 1.6999 3.1562 2.4062 0.65656-4.5909 6.6362-5.8338 17.198-9.6635 0.14953-2.1576-11.177-19.149-36.542-18.618z" fill="#676c53"/>
  <circle transform="matrix(1.0103 .89112 -.80312 .73815 364.56 -144.36)" cx="295.64" cy="445.83" r="0" fill="#676c53"/>
  <ellipse transform="matrix(.97595 0 0 .96063 4.7131 13.015)" cx="300.29" cy="437.24" rx="10.065" ry="9.1961" fill="#676c53"/>
  <path d="m299.85 443.12c-0.51354 1.0345-0.87283 2.1826-1.016 3.3953-0.66948 5.6708 3.3874 10.814 9.0583 11.483 3.9668 0.46838 7.6568-1.3817 9.7556-4.4727l-17.798-10.406z" fill="#fff"/>
  <path d="m304.21 445.65c-0.55209 0.82842-0.95482 1.7602-1.0795 2.8166-0.42284 3.582 2.1511 6.8451 5.7331 7.2679 2.7984 0.33034 5.3661-1.1547 6.5685-3.5307l-11.222-6.5538z" fill="#a00"/>
  <path d="m305.32 446.31c-0.50524 0.69907-0.88114 1.5084-0.99015 2.4317-0.33431 2.8317 1.611 5.4192 4.3749 5.7454 2.2622 0.26706 4.3766-1.0779 5.2453-3.1157l-8.63-5.0614z" fill="#ff8080"/>
  <path d="m308.24 448.02c-0.49849 0.50483-0.84423 1.1958-0.93387 1.955-0.21387 1.8121 1.0978 3.4252 2.9099 3.6391 1.6457 0.19426 3.1115-0.843 3.5344-2.395l-5.5104-3.1991z" fill="#a00"/>
  <ellipse transform="matrix(1.7094 1.3455 -.98587 1.0084 -580.87 -618.82)" cx="639.15" cy="208.81" rx="1.0387" ry=".86559" fill="#fff"/>
  <path d="m299.85 443.12c-0.51354 1.0345-0.87283 2.1826-1.016 3.3953-0.66948 5.6708 3.3874 10.814 9.0583 11.483 3.9668 0.46838 7.6568-1.3817 9.7556-4.4727l-17.798-10.406z" fill="none" stroke="#000" stroke-width=".35414"/>
  <ellipse transform="matrix(.67728 -.95791 1.3953 .61945 -569.03 511.98)" cx="347.87" cy="481.15" rx="2.1505" ry="2.6625" fill="#333"/>
  <ellipse transform="matrix(.59169 -.91471 1.219 .59151 -454.91 510.33)" cx="347.87" cy="481.15" rx="2.1505" ry="2.6625"/>
  <ellipse transform="matrix(1.1259 .11744 -.13293 .99479 -380 171.06)" cx="639.15" cy="208.81" rx="1.0387" ry=".86559" fill="#fff"/>
  <path d="m283.55 388.71c-12.553-1.0341-28.232 8.3877-37.061 17.475-7.4985 7.7182-12.309 21.194-8.313 31.186 3.7252 9.3154 13.46 13.225 23.81 16.783 0 0 12.825 9.4574 12.79 12.662-0.043 3.927-9.9973 4.8755-7.9391 8.6894 5.0969 4.5858 12.34 6.652 20.636 7.4926l3.607-8.392c0.1464 0.24862 0.3255 0.4794 0.5583 0.6721 3.6361 3.01 14.065 1.8048 14.065 1.8048l6.4161 4.006s7.6622-1.8434 11.434-1.1919c3.4048 0.58805 9.3591 4.472 9.3591 4.472s5.602-2.1352 8.2632-1.2912c4.1329 1.3106 9.3661 9.0099 9.3661 9.0099s3.2626-10.638 1.4329-15.496c-2.833-7.5215-13.203-9.8002-17.507-16.588-1.6424-2.5905-0.9636-6.3234-2.8777-8.7202-2.1234-2.659-8.7425-5.2682-8.7425-5.2682l0.4978-5.3832s-11.722-5.6464-16.031-10.324c-6.9559-7.5512-12.172-17.173-14.512-27.17-0.8248-3.5232 3.214-8.6598 0.3454-10.865-2.8125-2.1624-6.0833-3.2738-9.5982-3.5634z" fill="none" stroke="#000" stroke-width=".75"/>
  <path d="m352.17 443.72c-6.9491 7.4457-12.678 12.114-17.983 15.819 0.1022 7.2086 1.9897 13.01 12.464 10.872 5.2796-8.8915 7.0055-17.789 5.5193-26.691z" fill="#fff"/>
  <path d="m352.6 453.13c-2.9684 3.0688-4.9158 3.6122-8.4552 5.3486 3.0483 0.49905 5.2354 0.42871 8.0883-0.89688 0.30081-2.1064 0.19389-2.345 0.3669-4.4517z" fill="#999" opacity=".385"/>
  <path d="m352.38 454.4c-2.43 1.6149-4.9463 3.0863-7.8438 4 2.4954 0.2626 4.9146 0.0101 7.25-0.6875 0.24625-1.1084 0.45212-2.2039 0.59375-3.3125z" fill="#1a1a1a"/>
  <path d="m337.94 462.34s-1.8166 0.52167-3.4688 1c0.71591 5.2675 4.1068 8.8742 12.189 6.9827-1.1635-1.3039-1.6261-3.6389-1.6261-3.6389s-2.6847 1.245-3.9688 1.25c-0.96683-1.7062-0.30653-3.164 0-4.9062-1.2241 1.2795-2.4591 2.5668-4.625 3.2812 4e-3 -1.9308 0.73874-2.9847 1.5-3.9688z" fill="#1a1a1a"/>
  <path d="m352.17 443.72c-6.9491 7.4457-12.678 12.114-17.983 15.819 0.1022 7.2086 1.9897 13.01 12.464 10.872 5.2796-8.8915 7.0055-17.789 5.5193-26.691z" fill="none" stroke="#000" stroke-width=".75"/>
  <path d="m350.36 447.21c-0.10165 0.0288-0.19362 0.0569-0.29433 0.085-3.0432 3.2934-7.0228 6.4158-10.992 10.572-0.59542 1.407 0.81403 1.5138 1.696 0.91455 2.9791-4.8882 6.6588-7.9793 9.5904-11.571z" fill="#ccc" opacity=".5"/>
  <circle transform="matrix(.74085 -.91391 .44553 .36116 -115.1 610.32)" cx="344.38" cy="464.68" r="0" fill="#ccc" opacity=".5"/>
  <path d="m280.62 391.33c-10.287 0.18391-24.049 8.3864-31.087 15.631-6.3758 6.5626-12.348 19.615-8.9506 28.111 1.5518 3.8805 4.3198 6.6688 7.7853 8.8482-1.0387-1.274-1.9018-2.6815-2.5508-4.3045-3.3974-8.4957 2.5748-21.548 8.9506-28.111 7.5072-7.7271 22.433-16.483 33.106-15.604 1.3174 0.10853 2.5786 0.37381 3.7997 0.77057 0.0564-0.90914-0.14366-1.6949-0.87685-2.2586-2.3914-1.8386-5.1687-2.7829-8.1573-3.0291-0.6671-0.0549-2.0194 0.63281-2.0194-0.0531z" fill="#676c53"/>
  <circle transform="matrix(.46967 0 0 .46967 161.66 228.63)" cx="258.88" cy="424.42" r="3.2769" fill="#1f241c"/>
  <circle transform="matrix(.2045 0 0 .2045 238.45 332.25)" cx="258.88" cy="424.42" r="3.2769" fill="#1f241c"/>
  <circle transform="matrix(.42548 0 0 .42548 176.53 232.47)" cx="258.88" cy="424.42" r="3.2769" fill="#1f241c"/>
  <circle transform="matrix(.25406 0 0 .25406 213.39 310.17)" cx="258.88" cy="424.42" r="3.2769" fill="#1f241c"/>
  <circle transform="matrix(.30679 -.11928 .11928 .30679 157.94 342.65)" cx="258.88" cy="424.42" r="3.2769" fill="#1f241c"/>
  <circle transform="matrix(.16455 -.063979 .063979 .16455 210.78 383.95)" cx="258.88" cy="424.42" r="3.2769" fill="#1f241c"/>
  <circle transform="matrix(.30679 -.11928 .11928 .30679 141.14 333.95)" cx="258.88" cy="424.42" r="3.2769" fill="#1f241c"/>
  <circle transform="matrix(.64108 0 0 .64108 116.1 175.78)" cx="258.88" cy="424.42" r="3.2769" fill="#1f241c"/>
  <g transform="translate(-.86857 -3.6922)">
   <path d="m351.86 401.36c-22.926 14.993-36.276 25.422-48.802 42.342-7.604-0.29285-14.548-2.754-10.892-12.447 14.465-14.318 32.776-22.692 59.693-29.895z" fill="#fff"/>
   <path d="m307.61 426.87c-5.7024 4.0078-10.776 8.4695-14.438 13.906 0.73943 0.67715 1.6494 1.2106 2.6875 1.625 3.3568-5.1746 7.2498-10.357 11.75-15.531zm-3.4688 9.5312c-1.6561 2.6501-4.1587 4.6292-6.75 6.5312 0.60892 0.16509 1.2491 0.29721 1.9062 0.40625 1.8824-1.8473 3.6864-3.8214 4.8438-6.9375z" fill="#1a1a1a"/>
   <path d="m340.69 406.93c-14.534 3.8893-24.897 8.3514-33.179 15.428 8.2376-6.2722 18.315-10.603 31.593-14.371 0.53895-0.35599 1.0289-0.69302 1.5862-1.0575z" fill="#ccc" opacity=".315"/>
   <path d="m319.7 418.48-10.036 6.2466 10.138-4.6082 2.3021-1.7968z" fill="#ccc" opacity=".315"/>
   <path d="m351.86 401.36c-22.926 14.993-36.276 25.422-48.802 42.342-7.604-0.29285-14.548-2.754-10.892-12.447 14.465-14.318 32.776-22.692 59.693-29.895z" fill="none" stroke="#000" stroke-width=".75"/>
  </g>
 </g>
</svg>
