<?xml version="1.0" encoding="UTF-8"?>
<svg viewBox="0 0 117.67128 233.6123" xmlns="http://www.w3.org/2000/svg">
 <g transform="translate(-441.86 -289.43)">
  <path d="m521.65625,289.4375c-4.07173-.12311-9.55966,1.58572-14.09375,3.4375-2.26705.92589-4.28574,1.89771-5.75,2.71875-.73213.41052-1.31498.76208-1.75,1.09375-.21751.16584-.41082.32511-.5625.5s-.36938.38863-.3125.84375c0,0 .33763,2.21192.40625,3.21875 .14346,2.10444-.61131,4.52067-.34375,7.0625l.3125,2.71875c-.32806.81904-.63719,1.66069-.84375,2.5-.0855.34766-.0544.52328-.0625.5625a.71436,.71436 0 0,0 -.0312.21875 .71436,.71436 0 0,0 0,.0312c-.0198.0619-.0387.14328-.0625.21875-.0343.0185-.0545.007-.0937.0312-.44642.27536-.53786.60786-.65625.96875s-.19319.75427-.21875,1.15625-.021.80238.0937,1.1875c.0574.19256.1523.40796.3125.59375 .0359.0417.11039.0554.15625.0937 .042.17876.0901.36074.15625.53125 .14263.36755.47279,1.22507.75,2.0625 .1386.41871.27834.83705.34375,1.15625s.003.5918.0625.4375c-1.04084,2.6912-.44644,4.99167-.0937,7.625 .38907,2.90584-.47296,6.26538.0312,9.5625 .20991,1.37226.58115,2.1005 1.0625,2.5625 .42301.406.84338.68421 1.375,1.34375-.52179.32996-1.05071.66674-1.5625,1.09375-1.03341.86223-1.55958,1.74637-1.90625,2.59375l-.53125.0937v-.0312l-.0625.0312-.0937.0312a.71436,.71436 0 0,0 -.0312.0312c-.7759.18239-1.46016.53685-2.03125,1.0625l-2.375,1.25a.71436,.71436 0 0,0 -.125.0937c0,0-.74562.63853-1.375,1.90625s-1.19306,3.21323-1,5.84375c.12645,1.72284.33919,3.29008.6875,4.6875a.71436,.71436 0 0,0 -.5.5625l-.90625,5.6875a.71436,.71436 0 0,0 .78125.84375l1.90625-.15625h.0937l4.53125.28125c-1.6769,6.58021-2.01351,12.98098-1.4375,19.75-1.59477.0469-3.25152.15947-4.84375.4375h-.0312a.71436,.71436 0 0,0 -.25-.0312c-.61562.068-1.08292.36148-1.59375.6875h-.0312c-2.54931.11655-5.00373.28906-7.4375.65625a.71436,.71436 0 0,0 -.34375.15625 .71436,.71436 0 0,0 -.0625.0312c-.1621.057-.34443.12919-.46875.1875h-.0937c-.84223.0555-1.62629.1531-2.375.25-.4832-1.32747-1.32009-2.55527-2.53125-3.25l11.25-2.4375a.71436,.71436 0 0,0 .531-.5309l.375-1.59375 .0312-.0937c.21119-.55274.48733-1.17248.28125-1.90625-.10846-.38619-.40636-.75118-.78125-1s-.82295-.43008-1.40625-.53125a.71436,.71436 0 0,0 -.28125.0312l-15.90625,3.5-16.53125-75.53125c-.80593-3.66689-1.29576-7.72241-7.9687-13.5625a.71436,.71436 0 0,0 -1.125.21875c-.0924.19201-.0932.22489-.0312.0937-2.68827,5.63848-2.88182,10.81315-1.5,15.59375v.0312l16.5625,75.46875-15.96875,3.5a.71436,.71436 0 0,0 -.15625.0312c-.52608.2539-.91962.57638-1.15625,1s-.24098.9173-.125,1.3125c.22753.77531.75005,1.33499 1.1875,1.875l.0312.0312 .71875,1.09395a.71436,.71436 0 0,0 .75.28125l14.21875-3.125c.30362.23325.67148.36755 1,.5625-.0462.0153-.10732.0113-.15625.0312a.71436,.71436 0 0,0 -.0312.0312c-.40216.20482-1.09528.55888-1.75.96875-.32736.20493-.66221.42767-.9375.65625s-.52271.44542-.6875.8125c-.0625.13933-.0479.15702-.0625.21875-.0122.0517-.0231.11557-.0312.15625-.002.008.001.024 0,.0312-.009.0562-.0322.0675-.0312.0937-.001.009.001.0227 0,.0312 .002.0187-.00049.0864 0,.0937-.0446.3272-.0715.71836-.0625,1.15625 .00022.0107-.00025.0206 0,.0312 .005.20221.0138.40103.0312.59375 .0201.22216.0814.41822.125.625-.00034.003.0319.12234.0312.1875 .005.0192-.006.0436 0,.0625 .005.0329.0177.0173.0312.0625h-.0312c.005.0155.0256.016.0312.0312 .009.0255.0206.038.0312.0625l.0312.0625c.002.007 4e-005,.0314 0,.0312 .002.008-4e-005,.0311 0,.0312 .0156.0359.0627.0941.0625.0937 .0109.017.0216.049.0312.0625 .002.005-3e-005,.0312 0,.0312 .12006.16791.21062.23955.21875.25-.0442-.057-.0432-.0361.0625.0937 .0527.0651.11074.13477.1875.21875a.71436,.71436 0 0,0 0,.0312c.0525.0566.10125.0706.125.0937 .002-.0118-.0148.003-.0625.125-.0235.0597-.0851.14983-.125.28125-.004.0124.004.0181 0,.0312-.005.0191.003.0146 0,.0312-.002.009.002.0219 0,.0312-.0139.10225-.0325.20738-.0312.21875-.0159.10652-.0534.19465-.0312.34375 .25429,1.71818.60845,2.69288 1.3125,3.40625h.0312c.0107.006.0294.0436.0625.0625l.0625.0312c.007.007-.008.0242 0,.0312 .23681.21818.43166.29264.65625.40625-.002.0158.001.0153 0,.0312-.0355.39134-.0808.84093.0937,1.34375a.71436,.71436 0 0,0 0,.0312c.36438,1.04663 1.177,1.80814 1.90625,2.40625 .0927.076.20173.11775.28125.15625 .0106.005.022.027.0312.0312s.0411-.007.0625,0l.0937.0312c.015.004.0209.0298.0312.0312h.0312c.0437.0158.0218.0163.0937.0312a.71436,.71436 0 0,0 .0312,0c.17485.0373.37569.0702.5625.0625 .14804-.007.22333.008.34375,0 .0905.21147.20349.40311.3125.59375 .006.0315.0543.0682.0625.0937 .002.006-4e-005,.0312 0,.0312 .024.0388.0371.0872.0625.125 .004.008-5e-005,.0312 0,.0312 .25067.36729.54948.67755.875.90625 .35248.24763.71954.3975 1.0625.53125l.0625.0312a.71436,.71436 0 0,0 .06295.03275c.0202.007.0424-.007.0625,0 .18552.0632.35504.11566.53125.15625 .54639,1.62158 1.11825,3.26272 1.6875,4.875-.777,1.23703-1.18277,2.73395-.84375,4.28125 .215.9813.67807,1.83138 1.28125,2.53125 .0858.0995.18036.21343.3125.34375 .17962.17686.29898.23841.3125.25 .15275.13132.31459.26716.46875.375 .11297.0788.26096.17986.4375.28125 .20779.11904.25523.11499.15625.0625 .16528.088.38528.20849.65625.3125 .32093.12326.65464.21588 1,.28125 .74282.13858 1.5277.14064 2.3125-.0312 1.18149-.25886 2.19683-.83769 2.96875-1.65625 .24982-.26254.45416-.55857.65625-.875 .80257-1.25294 1.12423-2.80961.78125-4.375-.0372-.16983-.072-.33158-.125-.5-.003-.01.003-.0213 0-.0312-.005-.0183.007-.0109 0-.0312-.44401-1.3539-1.40982-2.39243-2.5625-3.09375-.17115-1.94112-.34328-3.87079-.53125-5.8125-.006-.0669-.0258-.14787-.0312-.21875 1.01551-.36079 1.93976-.75765 2.53125-1.4375 .45629-.52446.696-1.01582.9375-1.5 .60508.12081 1.22643.2315 1.90625.3125 .56864.37508 1.31771.9692 2.5625,1.0625 2.0401.15291 4.78837-.0274 7.03125-.21875 .27372.16923.49655.40208.875.4375 2.17784.20382 3.93702.036 5.625-.15625-.66366,1.58709-1.24589,3.28116-1.28125,5.25a.71436,.71436 0 0,0 .2812.56235c0,0 .76997.62377 1.375,1.0625-1.24584,2.36901-2.83742,5.61579-3.375,8.125-.0939.43832-.28877,1.03618-.34375,1.65625-.002.0225.002.04 0,.0625-.11775.67527-.25952,1.46934-.0625,2.21875 .17436.66346.63783,1.11447 1.1875,1.40625-.6464,1.80953-1.3785,3.9733-1.6875,5.8125-.002.0114-.0294.0199-.0312.0312a.71436,.71436 0 0,0 0,.0312 .71436,.71436 0 0,0 -.0625.34375 .71436,.71436 0 0,0 0,.0312c-.0151.0779-.0174.15308-.0312.28125a.71436,.71436 0 0,0 .1875.53125c.10099.11097.0929.10497.125.125 .18962.7275.55062,1.6375 1.65625,2.15625 .0377.0177.0581.0163.0937.0312-.4042,5.60794-.47922,10.70483-.6875,15.8125h-.0625a.71436,.71436 0 0,0 -.78125.4375c-.43592,1.06994-1.43045,2.31916-1.34375,4.15625a.71436,.71436 0 0,0 .4375.625l.3125.15625c-.46596,1.03186-.99454,2.22337-1.46875,3.625-.083.2454-.18034.51623-.25.84375-.0611.28735-.0503.70616.1875,1.0625l-.0312.0312 .0937.125 1.90625,3.25-.5625.4375a.71436,.71436 0 0,0 -.28125.6875l.71875,4.3125a.71436,.71436 0 0,0 .46875.5625c0,0 .29485.0976.65625.1875s.78497.20616 1.28125.125c.0653-.0107.12217-.0497.1875-.0625-.10837,1.76187.0305,3.47809.1875,5.15625 0,0 .00037.0859 0,.0937-.004.0759-.0129.41164.0312.90625 .0426.4775.13101,1.03116.5,1.53125-1.99037,3.44089-2.96651,7.27367-3.5625,10.5-.002.0114-.0292.0199-.0312.0312a.71436,.71436 0 0,0 0,.0312 .71436,.71436 0 0,0 -.0312.125c-.002.009.002.0221 0,.0312a.71436,.71436 0 0,0 -.0312.1875 .71436,.71436 0 0,0 0,.0312 .71436,.71436 0 0,0 .0312.0312 .71436,.71436 0 0,0 0,.0312 .71436,.71436 0 0,0 .0312.125 .71436,.71436 0 0,0 .0312.0625c.029.14057.0347.36872.15625.78125 .15619.53011.35839,1.12972.78125,1.625 .0522.0611.10174.12731.15625.1875-1.31432,1.36639-2.58527,2.69741-4.3125,3.59375a.71436,.71436 0 0,0 -.28125.96875c.24116.42001.52582.81224.78125,1.21875-2.60066,1.81489-4.27458,3.66829-10.40625,4.09375-1.40591.0971-2.67292.99554-3.3125,2.21875-.52789,1.0096-.43387,2.27322-.3125,3.34375 .11155.98386.28195,1.65418.3125,1.78125 .001.0605.056.0981.0625.15625 .0799.71558.51632,1.30782 1,1.6875 .523.41055 1.09.68739 1.5625.90625 1.68716.78145 4.15403,1.00562 6.25,1.09375s3.8125,0 3.8125,0a.71436,.71436 0 0,0 .0312,0c2.88885-.233 4.30907-.62812 5.46875-.96875s2.02652-.62063 4.125-.6875c3.26809-.10408 4.06613.52502 10.25-.28125 1.08276-.14118 1.79322-.99705 2.25-1.875s.72463-1.8732.84375-2.6875c.18212-1.24493-.37009-2.71266-.8125-3.90625 .15651-.7417.2295-1.48371.125-2.1875-.26835-1.80818-1.24622-4.16417-1.96875-5.8125 .65628-.59446 1.16954-1.27728 1.34375-2.0625 .64035-2.88634 1.01298-4.68002 1.28125-7.21875 .19957-1.88857.24791-2.98328.3125-4.0625 .59412-.42536.99981-1.0337 1.28125-1.6875 .35362-.82146.63582-1.67722.90625-2.25 .94095-1.99301 1.41329-3.43687 1.78125-4.90625l7.15625,4.125c1.19301.68929 2.39458,1.02614 3.53125,1.125 .0317.43213.0478.86098.0937,1.3125 .00056.01-.00055.0213 0,.0312 .0115.21025.0216.43328.0312.65625a.71436,.71436 0 0,0 .0312.15625 .71436,.71436 0 0,0 .0312.125c.0521.45032.11879.88229.1875,1.375a.71436,.71436 0 0,0 0,.0625c.003.0222-.003.0401 0,.0625a.71436,.71436 0 0,0 0,.0312 .71436,.71436 0 0,0 .0312.0312 .71436,.71436 0 0,0 0,.0937 .71436,.71436 0 0,0 .0625.125 .71436,.71436 0 0,0 .0312.0625 .71436,.71436 0 0,0 .0312,0 .71436,.71436 0 0,0 0,.0312c.20734.27851.34593.74904.59375,1.28125 .18949.40694.52349.83897.96875,1.1875 .10451,3.56051.28681,6.54416.90625,9.65625a.71436,.71436 0 0,0 0,.0312c0,0 .0742.31781.21875.6875 .14052.35945.25989.81646.8125,1.125-1.71937,3.99901-1.81924,7.29809-2,11.8125a.71436,.71436 0 0,0 0,.0937c.0589.61348.17347,1.13531.59375,1.53125 .22593.21285.53885.32369.84375.34375-.30311,1.25783-.61808,2.57599-.90625,4.15625-.18659,1.02323-.0122,2.17259.40625,3.21875s1.06973,2.00171 2.03125,2.53125c.50961.28069 1.10393.41074 1.59375.5s.875.125.875.125c5.68681.59258 10.38502.0256 15.3125-.1875 1.09789-.0474 1.96581-.72079 2.46875-1.59375s.73054-1.94518.8125-3.09375c.16217-2.27258-.25497-4.835-.9375-6.5625 .17694.0109.31817.0735.5.0625 .27778-.0168.53822-.0401.84375-.21875 .15276-.0893.33331-.22496.4375-.4375s.108-.48079.0625-.6875c-.89072-4.04613-2.06415-8.34909-4.40625-12.09375-.34638-.5538-.57715-.91438-.84375-1.3125 .053-.0357.10309-.0165.15625-.0625 .33189-.28688.43247-.81135.375-1.28125h.0312c0,0-.082-1.55109-.28125-3.375s-.4755-3.87063-1.03125-5.125c-.11021-.24874-.25882-.46615-.40625-.6875 .18954-.40708.39577-.82337.4375-1.1875 .47515-4.14837-.52482-7.7058-1.03125-11.34375-.18693-1.34281-1.1184-2.33382-1.96875-3.09375 .0953-.1141.16531-.18937.28125-.34375 .12674-.16877.39188-.45566.4375-.9375s-.20516-.97864-.625-1.40625c.0833.0849.002.004-.0312-.15625s-.054-.3745-.0625-.59375c-.017-.43851.0312-.84375.0312-.84375a.71436,.71436 0 0,0 0-.0937c-.002-.0321.0666-.30975.125-.71875 .0292-.2045.0438-.46521-.0625-.75s-.34672-.55809-.625-.71875c-.36956-.21336-.73331-.55199-1.09375-.90625 .0409-2.57128.13219-5.35166.34375-7.28125 .50997-4.65133.19286-11.95017 0-15.9375 1.17249-.37189 2.27355-.98626 2.625-2.1875 .13446-.4596.0637-.96957.0625-1.46875a.71436,.71436 0 0,0 .3125.40625c.82637.52946 1.76902,1.03525 2.875,1.0625 3.6291.0894 5.74013-.7167 8.1875-2 1.02297-.53641 1.73045-1.43229 2.15625-2.34375s.6606-1.82943.28125-2.65625c-.0822-.17919-.16899-.33346-.25-.5 .0602-.15209.13141-.2894.15625-.46875 .43732-3.1571.26286-4.37952-.5-6.25-.24659-.60462-.71855-1.11458-1.15625-1.59375 .0539-2.98877-.94458-5.14393-1.65625-7.15625-.41402-1.17068-1.12018-2.09145-1.71875-2.8125 .26584-.42953.43376-.87803.4375-1.1875 .0367-3.04318-.69829-4.3771-1.03125-6.34375a.71436,.71436 0 0,0 -.0937-.1875c-.0706-.14128-.17188-.24212-.25-.375 .0494-.0537.14861-.068.1875-.125 .19445-.28497.27179-.571.28125-.875 .0735-2.36612-.34472-4.4347-.625-6.5 .142.004.30796.025.4375.0312a.71436,.71436 0 0,0 .71875-.5625l.71915-3.0303a.71436,.71436 0 0,0 -.125-.59375c-.19881-.26053-.46604-.40338-.71875-.59375 .2401-.45545.45295-.87641.78125-1.78125 .22825-.62909.35174-1.40184.0312-2.1875-.38332-.93975-.84757-1.49905-1.3125-1.96875 .0715-.0878.17149-.0897.21875-.28125a.71436,.71436 0 0,0 0-.3125l-.9375-4.0625a.71436,.71436 0 0,0 -.9375-.5c-.40225-2.57395-.89405-5.16336-1.53125-7.71875 1.50182-.1824 3.01058-.42495 4.5-.8125a.71436,.71436 0 0,0 .5-.90625l-1.625-5.21875c1.22487-1.54343 2.39078-3.51108 3.03125-5.59375 .61587-2.00267.68915-4.10917-.1875-5.875a.71436,.71436 0 0,0 0-.0625 .71436,.71436 0 0,0 -.1875-.5l-.15625-.1875c-.0137-.0191-.0477-.0419-.0625-.0625-.05-.0696-.0886-.16787-.15625-.25a.71436,.71436 0 0,0 -.12495-.09375l-.0312-.0312-3.9688-4.2813a.71436,.71436 0 0,0 -.5-.21875c-2.11831-.12996-3.78758.17087-5.3125.65625 .11888-1.09207.15302-2.22577-.375-3.25a.71436,.71436 0 0,0 -.3125-.3125l-.0312-.0312h-.0312l-4.96875-3.5a.71436,.71436 0 0,0 -.0625-.0312c-.80281-.45376-2.07073-.64267-3.59375-.6875-1.37196-.0404-2.82937.15886-4.09375.6875-.68735-.71166-1.80629-1.20138-3.375-1.5625 .72692-.66919 1.30462-1.41414 1.3125-2.375 .0279-3.39299.46186-5.11437 1.71875-7.25 .82947.0242 1.65875-.21053 2.375-.71875 .91321-.64798 1.74782-1.57736 2.59375-2.5625 .24894-.28991.44193-.59921.59375-.90625l.0312-.0625c1.19066-1.17513 3.01715-3.05161 3.6875-4.9375 2.66164-7.48799 3.09375-20.53125 3.09375-20.53125a.71436,.71436 0 0,0 -.0312-.15625c-.11157-.59054-.31014-1.33898-.875-1.96875-.11697-.48133-.39956-.91162-.78125-1.3125-.46403-.48736-1.06477-.96209-1.8125-1.46875-1.49547-1.01332-3.50267-2.06928-5.75-3.0625-4.49466-1.98644-9.87867-3.69261-13.84375-3.8125zm15.4375,104.9375c.20603.12247.45597.13123.6875.1875l.21875,8.25a.71436,.71436 0 0,0 .40625.59375l.15625.0625 .0312.0312c.0946.0908.14857.20255.3125.375 .0916.0964.29473.17792.4375.28125-.14226,1.33344-.0818,3.71859 1.125,6 .23596.44609.44674.72768.6875,1 .15925.54075.52462.95192.9375,1.3125l-.1875,3.46875a.71436,.71436 0 0,0 .21875.53125c.23929.23086.46725.46365.6875.6875 .0117.28.0261.54368 0,.75-.2636.95854-.50508,1.99711-.34375,3.09375h-.0312c-.022.0829-.0419.22348 0,.40625a.71436,.71436 0 0,0 .0625.1875c-.22244.39286-.41978.76118-.6875,1.34375-.10067-.26791-.20804-.67087-.28125-.875-1.17566-3.27842-4.1948-7.2102-5.78125-9.1875 .15002-.33723.22282-.72136.125-1.1875h.0312c-.003-.0422-.0278-.0828-.0312-.125-.18242-2.21683-1.01739-4.42952-1.875-6.625a.71436,.71436 0 0,0 -.15625-.25c.93754-3.47059 2.06987-6.89182 3.25-10.3125z"/>
  <path d="m476.3 392.96 1.5594 7.0174 8.3016 0.27519-2.6602-7.9805c-2.6463 0.0889-5.359 0.25426-7.2008 0.68797z" fill="#e6e6e6"/>
  <path d="m477.86 399.97 7.4302-1.009-0.59625 6.6504c0.0159-0.0239-4.8484-0.16804-7.3843-0.82557-0.26679-0.0692-0.45865-0.68798-0.45865-0.68798 0.69436-1.1074 0.77184-2.6776 1.009-4.1279z" fill="#999"/>
  <path d="m481.81 392.01c2.9354-0.44287 5.946-0.6206 9.1047-0.73155l3.6463 2.1557 0.11466 4.9993-9.7693 1.9722-0.73384-5.9854c-0.60882-0.92253-1.2166-1.8458-2.3625-2.4102z" fill="#e6e6e6"/>
  <path d="m484.74 399.66s-0.98376 4.0894-2.5945 5.1242c-0.45513 0.2924-2.3096 0.29423-2.3096 0.29423 0.74701 0.40385 1.3982 1.1002 2.6987 1.1977 3.7639 0.28212 10.638-0.58401 10.638-0.58377l1.4918-9.6646c-2.2054 1.8234-6.2414 2.6297-9.9241 3.6323v-4e-5z" fill="#999"/>
  <path d="m494.97 394.7 5.4121 0.1376-2.4007-4.6639c-2.3362 0.0111-5.1161 0.0573-7.5215 0.56903l4.5102 3.9572z" fill="#e6e6e6"/>
  <path d="m492.36 404.51c-1.1427 0.7872-2.4161 1.0789-3.1418 0.9402 0.14158 0.54357 0.36926 0.95278 1.2154 1.032 3.753 0.35124 6.3382-0.37315 9.4941-0.50451l-0.0459-12.384-5.9231 0.70698 7e-3 2.687c-0.53509 2.5073-0.12755 6.504-1.6053 7.522h-4.8e-4z" fill="#999"/>
  <path d="m491.02 500.1c-3.4458 1.9248-4.7368 4.6254-12.108 5.1369-1.0998 0.076-2.2411 0.8576-2.7519 1.8346-0.73688 1.4093 0.0917 4.77 0.0917 4.77 0.0195 1.0162 1.2792 1.6826 2.2015 2.1098 2.9568 1.3695 9.7234 1.009 9.7234 1.009l10.824-9.54-7.9805-5.3203h3e-5z" fill="#e6e6e6"/>
  <path d="m488.27 510.28s3.245 0.1217 4.5865-0.6421c1.5313-0.8718 3.3023-4.1278 3.3023-4.1278l12.934-1.5595s1.6056 3.5669 1.376 5.1369c-0.21943 1.5-0.97348 3.7485-2.4767 3.9445-6.1296 0.7992-6.8224 0.1679-10.182 0.2749-4.3151 0.1375-3.9444 1.1927-9.6317 1.6514-1.1222 0.091-1.1895-1.137 0.0918-4.6785v2e-4z" fill="#999"/>
  <path d="m494.79 493.91c-1.7801 1.7351-3.2884 3.674-5.708 4.9296 2.3359 4.0683 5.4857 7.9814 9.3403 10.573 4.1378 0.3368 8.4322 1.081 10.054-5.1242l-2.9837-7.4593-10.702-2.9188z" fill="#e6e6e6"/>
  <path d="m498.42 509.41c7.2936-1.5096 7.6734-3.6848 7.8484-6.4863 0.0649-1.0378-0.63107-3.5239-2.0108-3.6324-2.8682-0.2257-4.1512-1.7513-4.1512-1.7513l6.9404-1.8162s2.3357 4.8409 2.7242 7.4593c0.11444 0.7711 0.10589 1.592-0.12973 2.3351-1.9718 6.2187-5.2811 8.7156-11.221 3.8918z" fill="#999"/>
  <path d="m492.59 491.7c2.6764 4.7734 6.6907 4.6415 10.767 4.281 0 0 4.6053-4.4756 4.7999-4.8647s0.19459-12.454 0.19459-12.454l-11.416 1.1676c-2.5509 3.6811-3.6804 8.2039-4.3458 11.87z" fill="#e6e6e6"/>
  <path d="m492.59 491.7s0.31909 1.6563 0.84322 2.2702c2.0303 2.3782 6.2139 4.4147 9.3403 4.4756 3.6837 0.072 6.0226-1.575 6.4214-3.3729 0.63901-2.8803 0.96733-4.6265 1.2324-7.1349 0.30594-2.8951 0.30551-3.9519 0.45404-5.9026l-3.8918-0.5838s-0.65059 11.854-3.1134 13.102c-3.4951 1.771-11.286-2.8541-11.286-2.8541z" fill="#999"/>
  <path d="m495.7 471.34c-0.49299 2.3391-0.21707 4.6783 0 7.0174l13.393 3.3023-1.1925-15.824-12.2 5.5038h3e-5z" fill="#e6e6e6"/>
  <path d="m495.7 478.36s10.176 2.8142 11.329 1.8805c1.7396-1.4088 1.2068-10.232-1.6473-10.518-1.318-0.13189-3.877 0.24194-4.2782-0.68945-1.0514-2.4412 2.8525-3.9743 2.8525-3.9743l11.558 5.8708c-0.50452 3.5469-0.80958 5.1593-2.5134 8.7681-0.7123 1.5087-1.1482 4.1295-2.807 3.9824-2.0497-0.1818-2.7845-1.2943-6.7175-1.9963-2.7592-0.4925-6.043 0.1688-7.3172-1.1225-0.52651-0.5335-0.45865-2.2015-0.45865-2.2015z" fill="#999"/>
  <path d="m494.97 434.05c-0.7607 8.2557-0.63586 15.227-1.1008 22.657l6.8798 0.91731-1.8346-24.217-3.9444 0.64212z" fill="#ccc"/>
  <path d="m531.04 509.27s-1.0238 3.7814-1.6605 7.2731c-0.3062 1.6792 0.60084 4.1711 2.096 4.9945 0.71969 0.3964 2.1729 0.5189 2.1729 0.5189l14.919-5.5782-3.6972-14.4-11.675 0.3892-2.1543 6.8022z" fill="#e6e6e6"/>
  <path d="m531.66 496.89c-2.5935 4.8396-2.5878 8.1951-2.7978 13.438 0 0 3.1188-1.6053 3.3023-1.7429s3.5775-4.9993 3.5775-4.9993l7.1091-0.1376 6.6504 5.6873-1.5136-10.87-7.0632-3.6234-9.2648 2.2474z" fill="#e6e6e6"/>
  <path d="m534.51 496.34c0.41278-0.046 8.2766-0.081 10.32 2.8437 2.0664 2.9586 3.1953 5.3815 3.6692 8.2557 0 0-3.106-3.6318-5.7332-4.4489-2.2055-0.6859-4.9133-1.2378-7.2467 0.2751-2.6346 1.7082-3.5225 5.61-6.6504 7.0633 0.10235 1.0652 0.52451 1.4267 1.2384 1.1466 2.9139-1.1435 3.4169-5.8898 6.1918-7.3384 1.6715-0.8725 6.6651-0.5135 8.1181 0.688 0 0 3.0214 4.9232 6.0083 5.7331 0.64284 0.1743 2.1154 0.3295 1.9722-0.321-0.88517-4.0209-2.0436-8.2533-4.3113-11.879-1.0462-1.6728-1.6232-2.3631-2.4309-3.761l-11.145 1.7429z" fill="#999"/>
  <path d="m528.91 485.28c0.11524 4.3587 0.20632 7.6956 0.90808 11.221l15.373-2.6594-2.3999-10.638-13.881 2.0756z" fill="#e6e6e6"/>
  <path d="m529.57 485.9c1.7887-0.5504 8.8437-1.6982 11.984 0.9984 1.7312 1.4866 2.2639 4.6483 1.2973 6.4215-4.3458 1.4672-8.6917 2.1777-13.037 3.1783 0 0 0.25866 1.1258 0.7135 1.3621 1.5615 0.8112 2.0583-0.9145 7.5977-1.6227 4.5157-0.5773 5.8377 0.8043 8.3586 0.1892 0.80834-0.1972 1.3439-0.2795 1.1944-1.098 0 0-0.33333-6.1459-1.2593-8.2358-0.70594-1.5933-3.2432-3.762-3.2432-3.762l-8.4322-1.1027-5.1733 3.6717z" fill="#999"/>
  <path d="m526.89 474.6c-0.32135 3.0282-0.19743 5.7419 0.33214 9.4506l17.448-1.4919-1.1027-9.8592-16.678 1.9005z" fill="#e6e6e6"/>
  <path d="m529.37 481.8c2.8222-0.2133 4.9032-0.8753 7.2467-1.9264l-2.706-2.018-4.3113 0.092c-0.12149 1.2842-0.75836 2.5685-0.22932 3.8527v-3e-4z" fill="#fff"/>
  <path d="m542.13 469.78-10.875 5.9688s2.8267 3.315 4.7812 3.375c2.639 0.081 6.152-6.7278 6.75-4.1562 0 0 1.6298 4.9084 0.9375 6.6875-0.36104 0.9277-2.0938 0.5937-2.0938 0.5937-4.7999-0.9518-9.3127-0.2613-14.406 1.8126 0.69719 0.9365 0.65153 2.4347 2.2188 2.7187 0 0 1.5218-1.7019 2.2812-2 2.2066-0.8661 6.5711-1.6095 10.156-0.5625 1.4198 0.4146 3.5 2.1562 3.5 2.1562 0.49228 0.383 0.96025-0.9116 1.0312-1.5312 0.45677-3.9879-0.51629-7.457-1.0312-11.156-0.28094-2.0181-3.25-3.9062-3.25-3.9062zm-12.25 4.5938-3.1291 0.43632c-0.20094 2.5692 0.11438 5.0093 0.22282 7.5012 0 0 2.1548-1.5995 2.7188-2.9376 0.67018-1.5901 0.1875-5 0.1875-5z" fill="#999"/>
  <path d="m490.96 463.15c-0.26684-0.28191-0.0266-0.81241 0.15568-1.3512 0.88314-2.6103 2.3391-5.5497 2.3391-5.5497l6.4211 7.9576-8.9159-1.0568z" fill="#e6e6e6"/>
  <path d="m490.93 463.13 3.6692 6.1459 6.8798-4.3113-4.1279-3.8527c-1.4274 0.93196-2.417 2.0231-6.4211 2.0181z" fill="#808080"/>
  <path d="m493.15 453.31c-0.49017 1.2031-1.3588 2.2927-1.2853 3.8509l7.7046 3.4939 1.7686-5.7304-8.188-1.6144zm5.7631 9.4698-6.6875 5.125 0.71875 4.3125s1.0416 0.36644 1.5625 0.28125c5.3609-0.87676 14.312-7.8125 14.312-7.8125l-9.9062-1.9062z" fill="#a02c2c"/>
  <path d="m492.72 433.53c0.24462 0.87144 0.19685 1.9507 1.5136 2.5684 2.1107 0.99032 3.7915-0.0459 5.779-0.36693l-0.73384-1.5594-6.5587-0.64211z" fill="#666"/>
  <path d="m495.2 425.5c-0.70998 1.9676-2.2515 5.9688-2.5226 8.4851 1.7882 1.9651 4.1668 1.3465 6.3294 1.009l2.0639-9.7693-5.8707 0.27519z" fill="#ccc"/>
  <path d="m493.52 422.99s-0.45756 2.0289-0.25157 2.8127c0.17594 0.66948 0.71226 1.1244 1.2973 1.2088 2.7495 0.39643 4.3473-0.58907 6.5164-0.88909l-2.2702-2.9188-5.2919-0.21358z" fill="#666"/>
  <path d="m498.55 411.4s-4.0356 6.9618-4.8647 10.832c-0.19023 0.88793-0.6733 2.1149 1e-5 2.7242 2.0944 1.8954 8.4322-0.84323 8.4322-0.84323l-3.5675-12.713z" fill="#ccc"/>
  <path d="m522.86 432.77c0.73384 0 19.172 4.2196 19.172 4.2196s0.79301 12.317 0.0917 18.713c-0.52002 4.7431-0.36689 14.126-0.36689 14.126l-16.787 0.45865-2.1098-37.518h-3e-5z" fill="#808080"/>
  <path d="m527.26 437.08c3.6907 0.77356 4.7543 1.669 9.2648 2.385 1.6514 0.26213 7.4775 0.64206 8.2557-2.0181 0.87679-2.9969-2.0953-8.2043-4.6782-12.017l-13.301-2.6602 0.45865 14.31z" fill="#808080"/>
  <path d="m528.25 411.12-2.1896 13.491s3.4297 3.226 6.5263 3.9426c7.1037 1.644 7.263 1.2052 8.886-0.36395 1.2968-1.2537-0.0833-4.3603-0.62904-5.882-1.4994-4.1813-6.7167-10.278-6.7167-10.278l-5.877-0.90917z" fill="#808080"/>
  <path d="m530.66 413.18c0.96173 0.13185 2.1098 0.38912 2.7812 0.9375 3.1814 2.5984 8.1562 13.042 3.8125 12.594-1.7956-0.18548-5.0662-0.8166-7.2338-2.1664l0.64014-11.365h-5e-5z" fill="#ccc"/>
  <path d="m544.09 420.22c-0.55134 1.0162-0.99312 1.5942-1.654 3.0486-0.59826 1.3166-0.4432 2.0864-0.22698 3.1783l0.84322 4.281c0.19548 0.8068 0.30025 1.343 0.77836 1.5567 0.61848 0.27651 1.1852 0.65653 1.881 0.77836l0.51891 2.9188c0.77797 0.49845 1.6339 0.88602 2.5297 0.90809 3.5246 0.0868 5.4037-0.61609 7.816-1.881 1.6804-0.88114 2.5116-3.2068 2.108-4.0864-2.2677-4.9427-5.0593-7.3512-7.589-11.027l-7.0052 0.32432h-4e-5z" fill="#deaa87"/>
  <path d="m543.54 418c-0.28432 1.0369-0.58473 2.0758-0.39316 3.0531l0.8691-0.10615 4.0188 6.593 4.9534 0.73384-0.64211-9.1272-8.8061-1.1466h4e-5z" fill="#ccc"/>
  <path d="m543.54 416.62c2.8e-4 0.65495 0.10287 1.1682-0.0688 1.7658 2.1799 0.62582 4.8082 2.943 7.132 4.2884 0.84788 0.49088-0.62091 4.9878-1.6512 4.3572-2.5329-1.5504-3.5305-4.95-5.114-6.467-0.34756-0.33295-0.82252 0.19875-0.71091 0.68797 0.58756-0.18482 1.0024 0.16175 1.2893 0.7231 1.3855 2.7105 3.014 5.4843 5.0401 7.9454 1.2728 1.1774 8.6656 2.634 9.0813-0.36692 0.43201-3.1188 0.28261-4.0532-0.45865-5.8708-0.41396-1.015-2.1098-2.5226-2.1098-2.5226l-12.429-4.5406h3e-5z" fill="#808080"/>
  <path d="m542.81 411.99-0.17535 3.9905 0.72319 0.62566 7.2492 5.6576 5.5956 0.82558-4.5406-11.833-8.852 0.73384z" fill="#ccc"/>
  <path d="m542.6 415.94c1.1243 1.081 1.884 1.9926 3.3729 3.2432 2.0828 1.7494 3.8221 3.014 6.616 4.4107 1.6302 0.81492 4.1123 0.63931 4.262-0.63098 0.41056-3.4839-0.77011-5.707-1.6007-8.0555-0.70813-2.0023-2.5964-3.7672-2.5964-3.7672l-6.9404 1.6216 5.3836 1.7513c1.6623 2.2328 4.3187 8.9036 0.58377 7.5241-3.2147-1.1874-6.0888-3.9078-9.0808-6.0971z" fill="#808080"/>
  <path d="m523.5 363.14 19.722 9.4482c-2.7487 12.108-8.5393 23.957-11.21 36.455l-7.5952-0.86358-0.9173-45.04z" fill="#808080"/>
  <path d="m540.13 403.45c-0.22702 0.49728-0.433 3.6986 0.97295 6.3566 0.41449 0.78362 0.56564 0.98026 1.2648 1.5243l2.9513 1.5243 7.4268-1.3297-2.108-8.8862-10.508 0.81079z" fill="#ccc"/>
  <path d="m495.79 363.14-2.7519 5.5956-2.2933 0.18346 0.9173-5.6873 4.1279-0.0917z" fill="#a02c2c"/>
  <path d="m494.79 362.23c-0.77038 2.1833-0.28033 4.9967-2.385 6.5128l7.0632 0.45865 0.73385-7.2467-5.4121 0.2752z" fill="#500"/>
  <path d="m530.38 439.46c0.45865 0.98622 9.3565 1.6711 9.3565 1.009 0.82861 10.07-1.2182 17.436-1.5594 25.868-3.2332 2.061-6.2345 3.0554-8.2557-0.45865l0.45865-26.418z" fill="#ccc"/>
  <path d="m502.86 357.18 6.788 6.4211 15.778-6.0542 4.77 8.4392-5.3204 28.62 2.7519 18.346-1.6511 63.477-31.739-16.695 5.5038-51.736c-4.4649-19.616-5.6525-33.376 3.1188-50.819z" fill="#f4eed7"/>
  <path d="m497.45 348.47c3.2954-0.78473 4.2868-0.18709 6.4211-0.27519l-4.8617 9.9986-5.779-0.0917 1.1008-7.6136 3.1188-2.0181-3e-5 -3e-5z" fill="#500"/>
  <path d="m498.09 348.28c-2.6496 0.3975-3.9819 3.6191-4.0361 5.9625-0.0709 3.0634 2.7528 5.3114 4.2196-2.385 0.45579-2.3916-0.12452-4.1591 2.4767-6.3294 4.3781-3.6528 9.1189-3.2622 12.292-2.7519l-9.7234 7.0632-2.385 13.943-6.2377 2.2933c-2.2015-0.55038-2.9033-4.0692-3.2106-8.2557-0.36779-5.0112 2.1098-7.155 2.1098-7.155l4.4948-2.385z" fill="#a02c2c"/>
  <path d="m538.27 459.92c2.3688 1.7157 3.2665 3.6461 4.9692 4.6291 0.66919 0.38634 0.16174 1.0672 0.18997 1.6086 0 0-0.12496 1.7289 0.28629 2.1478 0.68284 0.69548 0.39834 1.0664 0.13243 1.4205-2.5993 3.4612-3.489 4.0205-5.8531 6.1552-2.1881 1.9757-4.997 1.6741-7.155 0.64211-2.6864-1.2848-2.9649-2.8705-4.4031-4.3113l0.45865-9.4482c2.6155-3.1716 7.2129-5.8579 11.375-2.8436z" fill="#a02c2c"/>
  <path d="m528.91 465.61c0.85212-2.1524 3.987-4.7938 6.9256-3.2106 2.5868 2.7018 2.9548 4.1495 2.7519 5.2745-3.8659-1.0774-6.3932-1.5611-10.503 0.0459l0.82557-2.1098v-4e-5z" fill="#e6e6e6"/>
  <path d="m535.8 462.38c1.1546 1.3749 3.391 4.1472 1.5144 4.3312-3.4401-0.48953-8.3321-0.25638-8.5312-0.15625l-0.875 5c5.2632 2.656 8.4104 2.0143 11.781-0.875 0.64211-0.55039 0.94594-1.7035 0.875-2.7792-0.054-0.81941-0.29189-1.9363-0.8361-2.5393-1.2406-1.1772-2.5472-2.1308-3.9283-2.9813z" fill="#999"/>
  <path d="m506.4 367.19c-0.93774 3.6882-1.5486 7.5599-2.025 11.248l-6.6065-1.8828c-0.69991 2.3637-1.246 4.1072-0.27519 6.2106 1.5672-0.80385 4.0034-0.37185 6.1112-0.81861-1.1154 4.6213-2.1185 9.3672-1.1489 14.22 2.3637 0.69991 4.1072 1.8881 6.2106 0.91731-0.42094-3.7751-1.8871-10.72-1.6442-15.193l11.56 2.8918c0.69991-2.3637 1.7046-5.4832 0.73384-7.5866l-11.615 1.5524c1.2087-5.0303 3.1996-7.3738 5.2768-11.101-1.7232-1.2089-3.4989-2.2997-6.5776-0.45865zm-1.7287-13.504-1.3209 6.1476c5.9853 8.801 13.656 5.8178 20.691-0.38918l1.6864-5.708s-5.4247 3.412-8.1728 5.0593c-9.6681 5.7956-13.045-4.9342-12.884-5.1098zm22.938 10.234c-4.0903 16.504-8.31 33.051-1.9459 46.183-2.0133 19.934-1.8397 41.35-2.0602 60.711-0.0237 2.0847-1.7019 1.9465-1.7019 1.9465l-25.686-14.4c2.5073-5.013 1.5552-10.653 1.7751-15.688 0.51194-11.722 1.3203-21.757 2.2464-32.96-0.96683-3.3255-1.4146-6.8829-2.1844-10.345 0.50823 4.6577 0.31316 9.0341 0.23854 13.459-1.4612 14.626-1.5336 29.53-4.5404 43.847-0.19984 1.8113-1.9687 3.9218 1e-5 5.0593l29.188 16.864c3.0713 1.7745 6.36 1.5244 6.4863-1.1676 0.53652-11.437-0.38161-25.321-0.45045-39.18-0.0469-9.4358 0.78708-18.721 0.83963-27.759-6.2913-13.964-0.75175-29.618 2.0756-44.885l-4.281-1.6864z" fill="#800000"/>
  <path d="m504.69 354.25c-0.20173 2.1158-0.50413 4.4364-0.82554 6.0542-1.0216 5.142-2.7978 5.812-5.1369 6.5128l-4.77-0.9173c8.2557-0.36692 5.9998-16.654 8.4392-19.63 2.5456-3.1062 6.6994-4.2134 11.466-3.4858l-0.73384 4.8617c-6.2801-0.24139-7.2618-0.1126-8.4392 6.6046z" fill="#500"/>
  <path d="m524.57 340.53-0.375 1.4375c4.8146-0.26368 6.4434 0.65651 7.1562 2.5625 0.11247 0.30072 1.875-0.5 1.875-0.5-0.86616-2.1392-1.9757-2.8927-8.6562-3.5zm-1.125 0.78125s-13.014 2.3328-17.406 6.75c-0.81882 0.82352-1.7545 2.3433-1.25 3.0312l7.4375 0.375 11.219-10.156z" fill="#808080"/>
  <path d="m523.44 341.31 0.15625 10.469 8.625-7.4688s-1.3784-1.5144-2.2838-1.9324c-1.9927-0.92007-6.4975-1.0676-6.4975-1.0676zm-11.406 4.2812c-2.509 1.1856-4.7578 2.2646-5.4935 5.3417l5.181 2.3145z" fill="#4d4d4d"/>
  <path d="m546.55 356.91c0.32432 0.38918 3.5675 9.0808 3.5675 9.0808l5.5782-7.1998-2.854-4.4756c-2.5283 0.23001-4.5161 0.79545-6.2917 2.5945z"/>
  <path d="m538.4 391.63 0.32106 11.145 1.1008 0.59625 10.503 0.0917-0.50452-8.0264-8.7144-4.403-2.706 0.59624z" fill="#ccc"/>
  <path d="m541.75 410.66c-0.0135 0.86075 1.4987 2.0283 2.3326 2.195 3.3077 0.66117 5.8055-0.0667 8.7121-0.75975 0.99137-0.23638 1.1496-0.95439 1.1555-1.4353 0.0353-2.9244-0.70302-4.1593-1.0549-6.2377-0.42161-0.84322-1.1008-1.5594-1.1008-1.5594l-10.87 0.64211s2.9626 1.8805 4.3572 1.8805c0 0 4.2488-0.24142 4.5406 0.50451 0.66801 1.59 1.5455 5.6753 0.87144 5.8707-3.1486 0.35768-4.5652 1.2164-6.9715 0.18347-0.75947-0.32601-1.3148-0.85615-1.9722-1.2842z" fill="#808080"/>
  <path d="m538.26613,389.92872 .36692,4.31134c.92344-.04 1.73588-.42205 2.28886-2.09741 2.42421.86027 5.9338,4.93359 6.19619,5.72076 .96865,1.76458.454,3.34375.55039,4.9993-4.40891.2224-6.75485.13537-8.78319-.0459 .52492.38222.42071.6347 1.22004,1.01691 3.76095.22438 8.44455.16373 12.19553-.2372 .49112-.0525.73491-.51483.74593-.86913 .099-3.18555-.82953-5.94949-.88353-9.03774l-7.38429-4.86171-6.51285,1.10078z" fill="#808080"/>
  <path d="m525.86 388.44 1.0233 18.326 2.0864-0.43071c-1.2656-8.7199 2.6732-19.958 4.2644-19.743 2.7812 0.37599 2.8064 3.0498 3.7824 5.286l3.6972-13.362-8.2376-13.038-6.616 22.962z" fill="#4d4d4d"/>
  <path d="m532.4 371.12c1.3092 6.5537 2.8138 12.39 5.8708 19.722l10.035-1.6289c-0.9379-7.601-3.0668-10.853-4.8682-16.9l-11.038-1.1936z" fill="#ccc"/>
  <path d="m546.94 355.49c3.5152 3.1451 3.5559 7.6959 4.6702 11.87l-14.854 2.2053-2.0756-6.9404 12.259-7.1349z" fill="#808080"/>
  <path d="m532.74 371.7c4.0431 2.508 9.1872 1.5926 12.129 7.5241 1.7571 3.5423 1.9891 6.9187 2.9837 10.378l4.6053-0.77836c-0.78511-6.5008-1.5979-12.998-3.5675-19.329l-16.151 2.2054z" fill="#808080"/>
  <path d="m537.34 362.82c0.90535 1.8865 1.8724 3.9322 4.0864 3.6972 6.7087-0.71213 6.7674-1.4918 11.351-1.8162l2.0108 6.4863c-6.4138 1.6689-13.085 1.0215-19.654 1.2973-6.1883 0.25978-6.0971-4.5404-6.3566-5.8377l8.5619-3.8269z" fill="#a02c2c"/>
  <path d="m544.09 348.81 6.162 5.2539-17.643 9.2754-6.4214-5.0593 10.573-11.935 7.3295 2.4648z" fill="#b3b3b3"/>
  <path d="m551.53 351.09-15.5 10.031-11.938 4.0938 4.2812 3.3125c2.4648 0.71349 7.8047-0.77666 11.625-4.1562 2.2154-1.9599 4.0531-4.5374 6.4062-6.0938 6.918-4.5756 9.1787-0.46933 5.9688 3.75-0.47472 0.62401-1.0642 1.0821-1.5938 1.5625 0.0863 0.42657 0.16576 0.85141 0.25 1.2812 0.51985-0.0664 1.0622-0.10759 1.75-0.15625l0.28125 0.90625c2.6121-3.138 5.1135-8.7669 2.5-11.938l-4.0312-2.5938z" fill="#500"/>
  <path d="m510.38 355.44 16.053-0.64211-1.8346-22.566-14.126 8.0723" fill="#deaa87"/>
  <path d="m524.6 332.24-14.125 8.0625-0.0312 5.5312c2.7901 0.78625 5.9744 1.063 9.4688 0.65625 2.0686-0.24078 3.9872-0.64932 5.75-1.2188l-1.0625-13.031z" fill="#784421"/>
  <path d="m516.25 360.21 7.5317-8.8664c0.48177-0.12268-0.57611-1.0423-0.52341-1.2795-1.1328 0.36649-3.0817 0.68026-3.8521 0.83341-2.3419 0.46559-10.289 1.7708-12.609-0.31904-0.68503-0.61708-2.3989-0.52072-2.1533 0.40923-0.37284 3.0558-0.37443 4.5607 2.5126 8.0348 2.6941 2.4872 5.9063 2.4959 9.0938 1.1875z" fill="#ccc"/>
  <path d="m528.69 347.47c-2.4066 1.2718-3.8581 1.8113-5.4539 2.5698 0.0796 0.58722-0.1136 1.1116-0.57338 1.3927-1.2052 0.73683-5.0318 0.76846-5.1247 2.0624-0.17613 2.4524-1.7041 3.8826-1.2873 6.7138 3.1861-2.0473 4.3597-3.9318 8.4062-5.1562l4.033-7.5824z" fill="#999"/>
  <path d="m545.33 350.62c0.20469-1.4371 0.46423-3.1439-0.13759-4.3113l-4.426-2.6143-8.9208 2.5226-6.0542 13.622 10.228 0.55038c-3.5921-0.0115-8.1357 0.88308-4.3113-6.1918 1.3467-2.4913 3.9292-4.626 6.6963-5.2286 2.3189-0.50505 4.1279-0.59624 6.9256 1.6512z" fill="#500"/>
  <path d="m536.37 345.82c-3.9338 1.5165-9.8567 10.419-7.589 12.519 1.1465 1.0614 4.0532 1.8831 8.043-1.5567 5.2117-4.4933 7.6106-7.8917 14.659-7.4593l4.4756 4.8647c-2.859-2.7295-7.3068-0.44066-10.573 1.9459-2.9881 2.1836-4.8911 5.7142-8.043 7.6538-6.7907 4.1788-16.227 5.4018-14.789-5.4485 0.8052-6.076 4.5808-12.553 9.9889-15.437 2.2897-1.221 6.4764-0.74172 7.5313-0.14547l5.0443 3.5295c-2.7471-1.7953-4.4857-2.1086-8.7487-0.46518z" fill="#a02c2c"/>
  <path d="m515.61 413.6c5.611-0.0517 11.422-0.56982 17.29-1.2226 1.6222-0.18042 1.7398 0.47222 1.9783 0.64864 0.25328-0.33138 0.48627-0.67494 0.3156-1.2607l-5.9911-2.0473-13.593 3.8819z" fill="#502d16"/>
  <path d="m508.09 409.15c8.4239-1.3148 20.03-3.9313 25.272-3.9444 0.87088 2.2295 1.6851 4.4495 1.8346 6.5587-4.3576-0.49055-18.193 2.2321-27.29 3.3482l0.18346-5.9625z" fill="#a05a2c"/>
  <path d="m498.38728,405.32897c.09-.11051-.88677-.0667-.94116.10219l.55736,2.84471 2.21875.1875 3.125,1.375 15.1875,2.625 2.25-.96875-9.56928-1.8087c-2.70319-.22594-4.16793-.55518-6.19735-1.60159-.99379.004-1.98757.14148-2.98135-.0169-1.55767-.24821-2.84471-1.1667-3.63985-2.16368-.015-.13901.0323-.25158-.01-.57478z" fill="#d38d5f"/>
  <path d="m518.94 421.32 0.85573-9.3361 0.98786-0.48881c5.1069 3.6911 0.95044 10.385-0.42598 9.8953l-1.4176-0.0704z" fill="#502d16"/>
  <path d="m497.45 405.43c1.38 2.0179 3.2051 3.0403 6.7832 2.8602 2.5506 1.7956 4.5359 1.7284 6.4863 1.7411l8.7458 1.8198c1.0814 0.22502 2.2134 1.8848 2.4767 3.2106 0.41798 2.1048 0.12431 3.4868-0.9173 5.2286-0.80402 1.3446-1.9599 1.4726-4.9534-0.45865l-5.6873-3.6692c-2.5708 0.19049-5.0678 0.15953-7.155-1.1008 0 0-4.3547-0.26805-6.2377-1.5594-0.57557-0.39474-1.5594-1.1925-1.5594-1.1925 0.0468-2.6062 1.0126-4.7529 2.0181-6.8798z" fill="#a05a2c"/>
  <path d="m511.89141,409.01616 .0246-.47048-8.91869-2.01076c.0233-.14801.2801-.26268.90809-.32431 3.01612.47565 5.57715.49621 9.04841,1.42699 .27145.0728.53708.16835.63824.67365" fill="#e9c6af"/>
  <path d="m513.59205,408.31125c.0282.14082.0436.31346.0428.52631-.0819,2.86735-.90902,5.67537-1.45942,8.46464-.18484.56658-.70763.66221-.97295.74593l.68891-9.03197" fill="#c87137"/>
  <path d="m502.4398,407.18755c-1.02026,3.06767-1.16941,5.34143-1.48582,8.07419-.0705.60865.40359.86867.53596.93237 2.97744,1.43286 5.94467,1.93635 9.6031,1.8666 .40879.0417.46444-.29925.59166-.81112 .67705-2.72432 1.0496-5.28674 1.2551-8.44413 .0392-.60188-.29085-.86236-.66488-.92203l-9.02361-1.43951c-.34666-.0553-.62176.1731-.81151.74363zm1.46166,1.32603 7.22466,1.26825-1.03479,6.39325c-2.6361.14877-4.88118.31638-7.2034-1.43632 .21563-2.12911.20404-4.09607 1.01353-6.22518z" fill="#deaa87"/>
  <path transform="translate(-26.173 -523.03)" d="m531.00223,933.60583c0,.36271-.30492.65674-.68106.65674s-.68107-.29403-.68107-.65674 .30493-.65673.68107-.65673 .68106.29403.68106.65673z" fill="#2b1100"/>
  <path d="m504.45483,410.2553c-.23524.10608-.47681.23735-.75.25-.61041.0282-1.67849-.38941-1.91098-.48497-.0957.10038-.14494.16821.005.35997 .33625.52634.8246.5536 1.28125.71875 .55146.12902.77019.0871 1.03125.0312 .47081-.10088.45796-.71978.34375-.875z" fill="#d38d5f"/>
  <path d="m501.98608,409.8178-.19223.20253c.23249.0956 1.30057.5132 1.91098.48497 .27319-.0127.51476-.14392.75-.25-.009-.0117.0101-.057 0-.0625-.10731-.0589-.47104-.1501-.59375-.0937-.2461.11306-.52637.0225-.6875-.0312l-1.1875-.25z" fill="#e9c6af"/>
  <path transform="translate(-26.529 -520.37)" d="m531.00223,933.60583c0,.36271-.30492.65674-.68106.65674s-.68107-.29403-.68107-.65674 .30493-.65673.68107-.65673 .68106.29403.68106.65673z" fill="#2b1100"/>
  <path d="m504.09808,412.91469c-.23524.10608-.47681.23735-.75.25-.61041.0282-1.67849-.38941-1.91098-.48497-.0957.10038-.14494.16821.005.35997 .33625.52634.8246.5536 1.28125.71875 .55146.12902.77019.0871 1.03125.0312 .47081-.10088.45796-.71978.34375-.875z" fill="#d38d5f"/>
  <path d="m501.62933,412.47719-.19223.20253c.23249.0956 1.30057.5132 1.91098.48497 .27319-.0127.51476-.14392.75-.25-.009-.0117.0101-.057 0-.0625-.10731-.0589-.47104-.1501-.59375-.0937-.2461.11306-.52637.0225-.6875-.0312l-1.1875-.25z" fill="#e9c6af"/>
  <path transform="matrix(1.1097 0 0 1.1045 -87.597 -618.13)" d="m565.87 913.56c0 1.5762-0.84217 2.854-1.881 2.854s-1.881-1.2778-1.881-2.854 0.84216-2.854 1.881-2.854 1.881 1.2778 1.881 2.854z" fill="#999"/>
  <path transform="translate(-26.059 -522.91)" d="m565.87 913.56c0 1.5762-0.84217 2.854-1.881 2.854s-1.881-1.2778-1.881-2.854 0.84216-2.854 1.881-2.854 1.881 1.2778 1.881 2.854z" fill="#ccc"/>
  <path d="m546.02 387.91c0 0.18347 2.8895 4.8158 2.8895 4.8158h3.8068c0.51993-1.0845 0.87523-1.3708 1.5594-3.2564 0.20496-0.56489 0.29884-1.031 0.0459-1.6511-0.74679-1.8308-1.7312-2.1727-2.6143-3.1188l-5.6873 3.2106z" fill="#808080"/>
  <path d="m544.37 392.5c2.5374 2.2143 6.1368 2.9242 9.2189 3.073l0.73388-3.0271c-0.24962-0.32712-0.66287-0.66427-1.026-0.85773l-0.26891 0.39477c-1.989-0.21404-3.8277-0.59891-4.8969-1.3258-0.85396-0.58055-0.92257-2.4436-0.18346-3.1647 0.91554-0.89325 3.1734-2.1185 4.3789-2.2278l0.36988 0.23757c0.18041-0.12445 0.44213-0.33355 0.47987-0.48653l-0.91731-4.0361c-3.7457 1.6206-7.2473 3.7871-8.9437 6.6504-0.90841 1.5333-0.39683 3.5031 1.0549 4.77z" fill="#a02c2c"/>
  <path d="m551.15 386.67c-1.3821 0.44508-1.9094 1.1321-2.4767 1.9263l3.8068-0.13759c-0.20875-0.6549-0.63227-1.2561-1.3301-1.7887z" fill="#ececec"/>
  <path d="m543.8 413.18c-0.0987 0.90425-0.24099 1.8012 0.16217 2.7891 0.39554 0.8095 0.88308 0.97498 1.3621 1.2 0.0948-1.213-0.0302-2.4626-0.45404-3.7621l-1.0702-0.22703z" fill="#fff"/>
  <path d="m540.81253,405.27009c-.13421,2.124.25775,3.32722.81079,4.24854 .48647.5848.97295.70817 1.45942.87565 .14361-1.26176-.14373-2.95447-.32431-4.54042-.6109-.34552-1.17232-.88897-1.9459-.58377z" fill="#fff"/>
  <path d="m539.16 395.25c-0.13421 2.124-0.35845 5.6623 0.19459 6.5836 0.68106 0.45507 1.427 0.092 1.9459-0.0649 0.14361-1.2618-0.17616-5.6787-0.35674-7.2647-0.67576-0.34552-1.0102 1.0894-1.7837 0.74593z" fill="#fff"/>
  <path d="m533.9 373.88c0.50303 4.3334 1.9128 8.454 3.308 12.486l1.3876 0.38131c-0.6592-4.2064-1.7016-8.5306-3.0597-12.583-0.57487-0.29799-1.1866-0.4542-1.636-0.28401z" fill="#fff"/>
  <path d="m530.1 428.27c2.8748 0.74825 5.3107 2.1548 9.0813 1.5594 1.5594 2.966 3.2245 7.7178 0.82557 8.0723-3.1238 0.46158-6.7301-0.82427-10.09-2.1098l0.18346-7.5219z" fill="#ccc"/>
  <path d="m530.97356,487.34632c.00018,1.9997-.2437,4.097.32106,5.8708 0,0 2.04472-.1346 3.21056-1.1008 .54223-.4494.96317-1.8804.96317-1.8804 .4703-.9182.20051-2.2115-.36693-3.073-.36925-.5606-1.07355-.9575-1.74287-1.009-1.42063-.1093-1.32069.4703-2.38499,1.1924z" fill="#fff"/>
  <path d="m531.8 500.46c2.3851-0.72 4.8473-2.14 4.8473-2.14 1.3573-0.9366 1.5014-1.3039 0.97757-1.4834 0 0-3.6792 0.3913-5.3204 1.2843-0.70066 0.3812-1.1541 2.5352-0.50452 2.3391z" fill="#fff"/>
  <path d="m533.65 522.06c5.5996 0.5835 10.281 0.02 15.243-0.1946 3.4173-0.1476 2.9636-7.1401 1.6864-10.313-1.2933-3.2133-6.8106-7.8485-6.8106-7.8485s1.6486 3.1667 2.9837 11.092c0.4547 2.6989-3.8484 2.7028-7.135 2.6594-0.82382-0.011-4.1538 0.038-4.4107 2.0756-0.12383 0.9823-1.5567 2.5297-1.5567 2.5297z" fill="#999"/>
  <path d="m535.07 506.42c-0.50809 3.3971-1.0162 4.8647-1.5243 7.2971-0.17107 0.8189 1.2778 1.4652 2.108 1.3621 1.5504-0.1925 3.0717-0.5445 3.4378-0.8757 1.0118-0.9153-0.18362-4.3313-0.64864-7.5241-0.2001-1.3739-3.2086-1.3576-3.3729-0.2594z" fill="#fff"/>
  <path d="m497.07784,472.91458c-.60273.54292-.52163,3.44316-.0917,3.80681 .33114.28008.33531-.0462 1.0549-.45865 .34089-.19539.94074-2.70889.41279-3.62335-.23386-.40507-1.37596.27519-1.37596.27519h-3e-005z" fill="#fff"/>
  <path d="m496.93 482.94c-1.0206 2.0053-1.6453 4.501-1.7513 6.4863-0.0638 1.1943 2.5141 1.4517 3.5026 0.7784 1.9536-1.3308 1.1027-7.0052 1.1027-7.0052s-2.6421-0.6758-2.854-0.2595z" fill="#fff"/>
  <path d="m492.65 499.29c0.12271 1.4917 2.3358 3.9626 2.9837 3.5026 1.2436-0.883 1.1246-3.2571 0.64864-4.7999-0.17151-0.5559-0.69148-1.6316-1.1676-1.2973-1.1928 0.8379-2.4942 2.2366-2.4648 2.5946z" fill="#fff"/>
  <path d="m478.71 506.36c3.9999 4.2042 8.018 3.1318 12 2.5945 0.73174-0.099-2.3581-6.2403-3.1134-5.7079-2.5055 1.7658-5.6185 2.5647-8.8862 3.1134z" fill="#fff"/>
  <path d="m493.96 396.99c0-3.7454-3.1542-5.8762-4.7929-5.5955 0.64158-0.51777 0.98845-0.65766 1.7199-0.73845 2.355 0.53081 4.1229 3.4526 3.9379 6.2613-0.039 0.59189-0.57663 0.3903-0.86495 0.0727v-3e-5z" fill="#fff"/>
  <path d="m485.22959,400.07562c-.28013-4.18549-.84216-7.89664-2.73691-8.0353-.99229-.0726-1.12459.16739-1.7441.39081 0,0 .99368-.14167 1.46009.0608 2.42063,1.05079 2.38276,7.71249 2.38276,7.71249 .31394.31144.45556.14584.63816-.12854v-.00025z" fill="#fff"/>
  <path d="m470.24798,387.86851c-1.19078.063-1.51554.50218-1.64605,1.93998-.0292.32167-.0109,1.3148-.11757,1.96938-2.08115.58269-7.817,1.59989-8.5159,1.88565-.79156.40315-2.73322,1.40844-3.03582,2.0825-.19321.43036-.1934,2.60175.12646,3.04928 .3755.52537.57847.73719.87959.8907 0,0-.4624.83219-.4104,1.18353 .26332,1.77919.57564,2.50723 1.21786,3.09894 .30266.27885.65037.41514.97555.5607 0,0-.16474,1.05112.003,1.53403 .29131.83674.96099,1.5251 1.64605,2.08696 .43127.35371 1.05817.098 1.58726.14696 .33228,1.0028.76655,1.59055 1.26393,1.93999 1.45745,1.02395 3.38761.89357 3.99754.82302 .47211-.0546 2.36226-.8138 3.14513-1.8812 .1141-.15557 0-.41151 0-.41151 2.06099-.46556 4.35273-1.17319 5.17329-2.11634 1.61622-1.85773 1.46445-3.40818 1.64604-4.29148 .22596-1.0991 1.09812-1.58713.9406-4.08572-.0901-1.42845-.60837-3.76177-1.35211-5.96692-.51356-1.5227-1.47455-2.86472-2.88058-3.35088-2.30479-.79693-4.1424-1.1141-4.6442-1.08757h-5e-005z" fill="#deaa87"/>
  <path d="m472.62887,391.95423c-1.20548,2.36239-.28423,6.89086-4.84996,5.81995l.41151-4.29148c-.80351.62804-1.33843.82063-2.17513.91121-.81145.0878-4.02694.17636-4.02694.17636l.11758.38212c0-.007 3.53107.11391 4.23269.64666s1.48336,2.62032.32333,2.90998l-4.73239,1.17574-4.61481-.55848c.21721.2681.39969.44756.61727.55848 0,0-.25098.494-.35272.88181 1.44879.24636 3.77348.57664 5.20268.35273 1.54862-.24263 3.00629-1.53444 4.32087-1.82241 .81684-.17894 2.13057,1.1539 1.20515,2.11634-1.26929,1.32007-2.44296,1.86344-3.87997,2.29271-1.59213.47562-4.50641.41284-5.79056.35273l.11758.11757c.30264.27885.6448.41292.96999.55848 0,0-.0379.23668-.0588.4703 1.46681.13927 4.07058.30024 5.46723-.17636 1.50676-.51419 2.31695-1.61199 3.43906-2.29271 .82422-.50003 1.62374,1.89073.85242,2.46907-.95598.71679-1.71677,1.45772-3.11574,1.99877-1.60214.61963-4.58499.9193-5.0851.99939 .053.0453.0937.10324.14696.14697 .43128.35371 1.05818.098 1.58726.14696 .0618.18659.13712.34071.20576.4997 1.19121-.29438 2.66643-.66392 3.7036-.99939 1.08163-.34984 2.47252-1.34932 3.05695-1.17575 .75604.22461 1.30295,1.68684.76423,2.29271l-2.3221.9406c-1.12784.47749-2.26066.69894-3.2333.85242 1.25925.48773 2.59865.40913 3.08633.35272 .47211-.0547 2.36226-.8138 3.14513-1.8812 .1141-.15557 0-.41151 0-.41151 2.06099-.46556 4.35273-1.17319 5.17329-2.11634 1.61622-1.85773 1.46445-3.40818 1.64605-4.29148 .22595-1.0991 1.09812-1.58713.94059-4.08572-.001-.0168.001-.0418 0-.0588-.81154,1.2608-3.32037,4.62316-5.32025,3.32149-2.41187-1.56983-.35991-5.79912.85241-5.73177-1.76851-.24838-1.49769-2.43699-2.02816-3.85058z" fill="#784421"/>
  <path d="m499.9 297.95s0.33139 2.1567 0.40549 3.2439c0.15628 2.2926-0.57084 4.7141-0.32438 7.0554l0.48657 4.6225 39.17 4.5414c0.94612-6.1093 3.9589-10.805 3.5682-17.963-0.14459-2.6493-14.018-9.0572-21.572-9.2856-7.6919-0.23257-21.876 6.6473-21.734 7.7853z" fill="#502d16"/>
  <path d="m521.83 297.23c-3.8826 0.16581-7.6207 1.5035-11.107 2.9599-5.8874 2.4597-9.9942 8.1812-11.304 13.503-0.0469 0.19071-0.0458 0.3772-0.0845 0.56379h0.0845c-0.0311 0.0757-1.1543 2.8109-0.45103 4.623 0.27233 0.70178 1.4139 3.4763 1.1558 4.1438-0.95701 2.4744-0.38727 4.6189-0.0281 7.301 0.41525 3.1014-0.44496 6.4631 0.0281 9.5562 0.3996 2.6123 1.0385 1.7984 2.4806 3.7774 3.7524 5.149 11.736 4.9042 16.378 1.4095 2.3229-1.749 10.938-3.5507 10.966-6.8782 0.0317-3.8543 0.55561-5.799 2.2551-8.4004 1.8939-1.4414 5.722-4.572 7.3574-7.6393 3.2057-6.0126 1.0234-16.767-7.8648-22.298-2.7624-1.719-5.4874-2.4901-8.1749-2.6216-0.55989-0.0274-1.1367-0.0237-1.6914 0z" fill="#deaa87"/>
  <path d="m506.70655,332.89789c-1.71574.0149-3.35352,1.22614-3.74105,2.45482-.69686,2.20942-1.17213,7.13713-1.17213,7.13713l.68374-.23443 .57629,4.30759 .97679,1.31865 .16605-.6349 4.24898,3.55547 .0586-.74236 .91817.85957 .10745-.69352 3.67268-1.5433-.16605.62514 3.20383-2.46149 .11721.34188 .51769-5.39181 .28327.17582c0,0-.28984-4.16245-1.42609-5.79229-.29435-.42221-1.03539-.85957-1.03539-.85957-1.12565-1.53072-2.17706-1.51756-3.43825-2.0317-.8702-.35473-2.65173-.33384-3.7899-.38093-.26335-.0109-.51679-.0119-.76189-.01v-1e-005zm3.97549,5.17691c1.38358.79208 1.86581,1.59084 1.8874,2.49078l.0873,2.47062c-.43294.30315-.62545.55896-.91976.40111l-.50793-.51769c-.12883.48377-.34523.44222-.54699.48839 0,0-.27826-1.10669-.57631-1.58238-.24084-.38439-.94747-.97677-.94747-.97677l-.42221.26027c-.50352-.38094-.92585-.356-1.35552-.36773l-1.14283,1.88519c-.33313.24847-.70467.62875-1.05775.34911-.68351-.54133-.76971-1.58304-.77859-2.43942 .37443-.78468-.0961-1.67498 1.12329-2.35403 .94449.0542 1.74374.0115 2.89253.20196l.11343-.0794 2.15144-.22998-1e-005-2e-005z" fill="#502d16"/>
  <path d="m502.17 304.03s1.0389 2.8278 5.7579 3.0006c5.2095 0.19078 11.066-4.084 15.571-1.4597l13.241 1.8369-3.2304-12.902-30.139 2.419z" fill="#502d16"/>
  <path d="m524.49 299.04c10.762 2.27 13.279 0.89233 18.72 0.40956 0.54229 0.5132 0.69393 1.1241 0.81097 1.7436 0 0-0.46058 13.055-3.0411 20.315-0.8643 2.4315-4.582 5.7173-4.582 5.7173-1.0795-8.711-4.7398-4.5592-6.4689-5.3643-0.58744-4.2822-2.0796-14.157-6.4255-16.289 0.97927-1.7221 1.5294-3.7446 0.98638-6.5324z" fill="#28170b"/>
  <path d="m531.32 323.54c0.0811-1.7436 2.3924-5.3929 4.7036-4.7847s2.6096 6.2923 0.77042 8.4341c-1.8243 2.1245-3.6348 3.849-5.3524 2.8789l-0.12164-6.5283z" fill="#deaa87"/>
  <path d="m532.91 324.19c-0.36187-1.3133 1.1602-3.5889 2.6762-3.6899 1.3439-0.0896 1.5155 1.9776 1.4598 1.9869 0 0-1.0902-0.82433-1.703-0.40549-1.4882 1.0172-0.14787 4.1201-1.5003 5.3118-0.32514 0.28651-1.2976 0.0811-1.2976 0.0811 0.73535-0.71978 0.78071-1.7756 0.36493-3.2844z" opacity=".5"/>
  <path d="m500.27 316.81c0.66683 1.1729 2.0056 2.3946 3.321 2.4322l1.6215 1.1331c0.55043 0.93014-1.61 1.4908-2.0708 1.0158 0 0 0.40678 0.48932 0.69351 0.52746 0.63694 0.0847 1.7875-0.73258 1.7875-0.73258-0.0973 0.97267-1.1483 2.6299-1.6508 3.282 0.62644-0.61775 2.2094-2.0885 2.3736-2.5494 0.46457-1.3044 0.71316-2.1225 1.1422-3.5262 0.11486-0.37574-0.13567-1.1064-0.52746-1.136l-6.6904-0.44636zm3.702 7.6579c-0.17845 0.17598-0.28993 0.29226-0.25396 0.28327 0.0325-8e-3 0.12803-0.11984 0.25396-0.28327zm13.694-7.1305-6.9351 0.32233s0.0372 2.5025 0.64467 3.2429c0.91056 1.1098 2.7545 3.0768 2.7545 3.0768-0.54606-1.0529-1.4726-2.0028-1.6214-3.155 1.1588 1.0927 1.7799 0.5938 2.3931 0.32234-0.7499 0.0666-1.4841 0.088-2.0219-0.69351l1.2112-1.1331c1.1894-0.28379 2.6694-0.89966 3.575-1.9829z" opacity=".5"/>
  <path d="m503.54997,314.11445c-1.79354.0191-3.69445.44922-4.70806,1.07446-.60749.37472-.87588,3.24598.12698,2.95963 3.96012-1.13073 4.82091-.37945 7.82398-.28326 .79496.0255 1.22531-2.28855.28327-2.95964-.79849-.56882-2.13118-.80603-3.52617-.79119zm11.80924.2442c-1.81548-.006-3.50156.23599-5.0011.62513-.85433.22171-.60474,3.38278.41025,3.11592 2.39959-.63088 6.73834-.52034 8.46866.2442 .15292.0676 1.72581-3.23103.5763-3.4871-1.5449-.34414-3.04207-.49381-4.45411-.49815z"/>
  <path d="m504.07743,318.72484c-.15197.0209-.31766.0853-.48839.19536-.57697.3717-.5981.75461-.64468,1.13307l-.81072.32233c1.92127-.0497 2.6104-.0186 2.92057.0391l.6056.52746c.071-.55668-.51857-2.36335-1.58238-2.21729zm9.22078.0293c-.52765.0759-.84841.85354-.98655,1.17213l-.44931.44933c1.3065-.0132 2.40593.10501 3.80943.3614l-.97678-.48839c0,0-.25795-1.45248-1.28934-1.49447-.037-.002-.0723-.005-.10745,0z"/>
  <path transform="matrix(.31257 0 0 .31257 408.67 278.48)" d="m304.85682,131.11078c0,.4657-.2904.84322-.64863.84322s-.64863-.37752-.64863-.84322 .2904-.84322.64863-.84322 .64863.37752.64863.84322z" fill="#fff"/>
  <path transform="matrix(.31257 0 0 .31257 417.87 278.48)" d="m304.85682,131.11078c0,.4657-.2904.84322-.64863.84322s-.64863-.37752-.64863-.84322 .2904-.84322.64863-.84322 .64863.37752.64863.84322z" fill="#fff"/>
  <path d="m505.63 333.03 1.2616 0.97485 1.5196 0.34407 1.921-1.0895 2.007-0.14336 0.34406-1.6916-2.3224-2.1504-5.505 0.60211-0.94617 2.5231 0.7168 0.68813 1.0035-0.0574z" fill="#deaa87"/>
  <path d="m510.4 320.7c0.8526 2.8644 0.21244 5.8284-0.52713 8.799 1.6728 0.63068 3.0929 2.2014 2.1491 3.0817-0.60175 0.5612-1.159 0.34806-1.8652 0.20273-0.72704-0.14961-1.5451 1.3391-2.4329 1.2165-1.9835-0.27393-1.315-1.5481-2.1491-1.3786-1.2702 0.59088-2.0545-0.12039-1.2164-1.2976 0 0-0.71971 1.095-0.36494 1.6625 0.31977 0.51154 0.61778 0.19668 1.4192 0.44603 1.1594 0.36073 1.741 1.1346 2.9195 1.1759 1.2215 0.0428 1.5501-0.95166 2.4734-1.0543 1.3463-0.0291 1.9175 0.36031 2.1896-0.93261 0.22515-1.0698-0.33595-2.4652-2.1085-3.2439 0 0 1.2646-3.4512 1.1354-5.2308-0.0837-1.1518-1.2164-3.2439-1.2164-3.2439l-0.40548-0.20274z" fill="#6f5543"/>
  <path d="m505.56299,339.69195c.37039.1571.52526.0307.79437-.0641 1.52889-.53846 3.03666.0382 4.51036.43017 .34875.0928.48239-.0578.83108-.065 0,0-.36295.78111-.75981.68812-1.5146-.35482-3.02012-.82153-4.53017-.45875-.25805.12903-.64514-.24371-.84583-.53043z" opacity=".5"/>
  <path d="m514.54849,335.12494c1.63313,2.82173 1.89802,5.83005 1.86564,8.8789-.80563-.36211-1.63622-.73671-2.29543-1.02561 .442.78107 1.38604,1.49042 1.31865,2.34426-.1194,1.51296-1.04422,1.73501-1.63122,2.50055l-.31257-.72281c-.75305.28699-1.49793.54132-2.32473,1.12329l-.31256-.91817c-.24013.52149-.62814.94439-.66421,1.60192-.66554.70314-1.5504.30966-2.35404.32233l-.31257-.66421c-1.15586-.0585-1.91062-.94738-2.92497-1.57198l-.46099-.77763-.63836.95282 .52746.71305 .16605-.6349 4.24899,3.55547 .0586-.74236 .91818.85957 .10744-.69352 3.67268-1.5433-.16605.62514 3.20383-2.46149 .11722.34188 .51769-5.39181 .28327.17582c0,0-.28985-4.16245-1.4261-5.79229-.29434-.42221-1.03538-.85957-1.03538-.85957l-.14652-.19535zm-8.96682,2.19774c-.42596.49392-.82201,1.10748-1.31865,1.31866l-.26373-.50792c-.13031,1.20789-.38977,2.32969-.97678,3.23313l-.16606-.74235c-.29922.62966-.68219.92434-1.05492,1.26004-.005.26031-.01.6056-.01.6056l.68375-.23443 .0391.31257 1.23074-.68374 1.07445.68374c-.35542-.56919-.41303-1.3583-.42001-2.0317 .37443-.78468-.0961-1.67498 1.12329-2.35403 .94449.0542 1.74247.0147 2.89126.20512v-.28326c-1.03492.0237-.0659-.26204-2.60801-.26372l-.22466-.51771zm3.43825,3.64338 .94748,2.87173 .37117.45908 .14652-.6349 .22466.11721-.0195-.37117h-.01c0,0-.27825-1.10669-.5763-1.58238-.20018-.3195-.64997-.71229-.82049-.85957h-.26373-2e-005z" fill="#28170b"/>
  <path transform="matrix(.82381 -.1805 .1805 .82381 79.096 -302.22)" d="m278.13 935.68c0 3.3436-2.7106 6.0542-6.0542 6.0542s-6.0542-2.7106-6.0542-6.0542 2.7106-6.0542 6.0542-6.0542 6.0542 2.7106 6.0542 6.0542z" fill="#fea"/>
  <path d="m444.97 295.53c-2.6696 5.5478-2.8502 10.554-1.4946 15.22l17.018 77.67 9.2421-2.025-17.018-77.67c-0.81785-3.7209-1.1796-7.4472-7.7475-13.195z" fill="#ececec"/>
  <path d="m444.97 295.53c-0.014 0.0291-0.0207 0.0593-0.0346 0.0885l20.114 91.803 4.6854-1.0266-17.018-77.67c-0.81785-3.7209-1.1796-7.4472-7.7475-13.195z" fill="#4d4d4d"/>
  <path d="m446.02 300.45c-1.1718 3.7484-1.1048 7.1101-0.15098 10.393 0.0129 0.0511 0.0242 0.10263 0.0338 0.15446l16.852 76.916 4.7112-1.0322-16.852-76.916c-0.71339-3.2442-1.0044-5.6813-4.594-9.5156z" fill="#b3b3b3"/>
  <path d="m462.61 391.64 6.3477-1.3908c4.3951 8.2698 4.703 16.528 5.4308 24.786l-6.3478 1.3908c-2.7991-7.9123-5.6839-15.794-5.4308-24.786z" fill="#800000"/>
  <path d="m466.21 390.85c2.6422 8.3717 4.5 16.625 5.6378 24.746l2.5487-0.55842c-0.72778-8.2589-1.0368-16.522-5.4319-24.792l-2.7546 0.60354z" fill="#500"/>
  <path d="m443.54 390.58c-2.377 1.1472 0.30009 2.7998 0.93069 4.2478l14.494-3.1756c1.9984 1.6681 4.7067 2.4492 7.4468 1.8488s4.8933-2.4444 6.0173-4.7988l14.494-3.1756c-0.18926-1.4522 2.2566-3.695-0.9307-4.2478z" fill="#c8ab37"/>
  <path d="m487.33 383.84-16.017 3.7506c-0.90367 2.8037-3.5207 4.8125-6.625 4.8125-2.0032 0-3.8218-0.83489-5.0938-2.1875l-15.972 3.3668 0.8475 1.2582 14.5-3.1875c1.9984 1.6681 4.6973 2.4441 7.4375 1.8438s4.9073-2.4581 6.0312-4.8125l14.5-3.1562z" fill="#a0892c"/>
  <path d="m470.25347,387.86967c-.8007.0424-1.18444.27198-1.40625.84375l-.3125,2.5c-.0138.19636-.035.39382-.0625.5625h-.0312l-.65625,5.34375c-.37689-.84547.16712-2.04852-4.90625-2.15625l-6,1.03125c-.13482.68008-.0984,2.41245.1875,2.8125 .3755.52537.57388.72149.875.875 0,0-.45825.83616-.40625,1.1875 .26332,1.77919.57653,2.50204 1.21875,3.09375 .30266.27885.64357.41694.96875.5625 0,0-.16774,1.04834 0,1.53125 .29131.83674.97119,1.53189 1.65625,2.09375 .43127.35371 1.06466.10729 1.59375.15625 .33228,1.0028.75262,1.58806 1.25,1.9375 1.45745,1.02395 3.39007.88305 4,.8125 .46187-.0534 2.28202-.78153 3.09375-1.8125 .0198-.15754.0555-.2917.0625-.46875 .0229-.57615-.0534-1.21264-.375-1.65625-.39281-.54189-.96875-1.3125-.96875-1.3125s.7389-.80771.6875-1.40625c-.13428-1.56539-1.5-2.53125-1.5-2.53125s.4597-.72361.375-1.125c-.24318-1.15222-1.6875-2.125-1.6875-2.125 .99457.15474 2.00543.45313 3-.3125 1.47619-1.13638 1.8938-2.7026 2-4.5625 .0933-1.63465 2.46697-3.23915 1.8523-4.83312-.61007-.11813-4.29947-1.05293-4.50855-1.04188h-5e-005z" fill="#deaa87"/>
  <path d="m472.62847,391.96342c-1.20548,2.36239-.27802,6.88341-4.84375,5.8125l.25-2.75-.25,2.09375c-.37689-.84547.16712-2.04852-4.90625-2.15625l-.21875.0312c.77839.0321 3.09105.14085 3.6875.59375 .70162.53276 1.47253,2.61659.3125,2.90625l-4.71875,1.1875-4.625-.5625c.21721.2681.40742.45158.625.5625 0,0-.27326.48719-.375.875 1.44879.24636 3.78955.59891 5.21875.375 1.54862-.24263 2.99792-1.55578 4.3125-1.84375 .81684-.17894 2.14417,1.16256 1.21875,2.125-1.26929,1.32007-2.43799,1.85198-3.875,2.28125-1.59213.47562-4.52835.43511-5.8125.375 .0375.0381.085.0569.125.0937 .30264.27885.64356.41694.96875.5625 0,0-.0416.23513-.0625.46875 1.46681.13927 4.0721.32035 5.46875-.15625 1.50676-.51419 2.31539-1.63178 3.4375-2.3125 .82422-.50003 1.61507,1.89041.84375,2.46875-.95598.71679-1.69478,1.45895-3.09375,2-1.60214.61963-4.59364.91991-5.09375,1 .053.0453.10299.11252.15625.15625 .43128.35371 1.06467.10729 1.59375.15625 .0618.18659.11886.34101.1875.5 1.19121-.29438 2.68158-.66453 3.71875-1 1.08163-.34984 2.44682-1.36107 3.03125-1.1875 .75604.22461 1.31997,1.67538.78125,2.28125l-2.3125.96875c-1.12784.47749-2.27736.69027-3.25.84375 1.25925.48773 2.60607.40016 3.09375.34375 .46187-.0535 2.28202-.78153 3.09375-1.8125 .0198-.15754.0555-.2917.0625-.46875 .0229-.57615-.0534-1.21264-.375-1.65625-.39281-.54189-.96875-1.3125-.96875-1.3125s.7389-.80771.6875-1.40625c-.13428-1.56539-1.5-2.53125-1.5-2.53125s.4597-.72361.375-1.125c-.24318-1.15222-1.6875-2.125-1.6875-2.125 .99457.15474 2.00543.45313 3-.3125 1.47619-1.13638 1.8938-2.7026 2-4.5625 .0128-.22392-.0108-.46371-.0312-.71875-.0717-.3737-.12811-.73769-.25-1.0625z" fill="#784421"/>
  <path d="m476.81 417.47-8.7812 5.0625c1.1624 1.5553 3.1673 2.3801 5.1875 1.9375 2.7545-0.60352 4.4785-3.308 3.875-6.0625-0.0705-0.32191-0.15617-0.64533-0.28125-0.9375z" fill="#a0892c"/>
  <path transform="matrix(.57938 -.12694 .12694 .57938 195.71 -88.088)" d="m278.13 935.68c0 3.3436-2.7106 6.0542-6.0542 6.0542s-6.0542-2.7106-6.0542-6.0542 2.7106-6.0542 6.0542-6.0542 6.0542 2.7106 6.0542 6.0542z" fill="#c8ab37"/>
 </g>
</svg>
