<?xml version="1.0" encoding="UTF-8"?>
<svg viewBox="0 0 251.25 120" xmlns="http://www.w3.org/2000/svg">
 <defs>
  <clipPath id="a">
   <path d="m0 0h837v400h-837v-400z"/>
  </clipPath>
 </defs>
 <g transform="matrix(1.25,0,0,-1.25,0,120)">
  <g transform="scale(.24)">
   <g clip-path="url(#a)">
    <path d="m814.711,106.418 .555-4.703-.555-4.1447-1.52-5.6914-4.605-6.0312-10.176-8.1954-11.047-6.996-11.91-5.4727-12.59-4.0508-12.898-2.293-13-.6484-13.238.8672-13.793,2.5312-14.973,4.2461-14.324,5.9063-13.672,7.332-22.981,14.4453 12.926-6.0312 81.695-21.1953 76.106,40.125" fill="#b5a8a4"/>
    <path d="m814.711,106.418 .555-4.703-.555-4.1447-1.52-5.6914-4.605-6.0312-10.176-8.1954-11.047-6.996-11.91-5.4727-12.59-4.0508-12.898-2.293-13-.6484-13.238.8672-13.793,2.5312-14.973,4.2461-14.324,5.9063-13.672,7.332-22.981,14.4453 12.926-6.0312 81.695-21.1953 76.106,40.125z" fill="none" stroke="#363639" stroke-width=".76458"/>
    <path d="m418.371,123.031 4.055-25.4607 .867-4.4883 1.086-3.6172 2.41-13.1171-2.726-4.6055-1.11-5.2344 .34-5.1601-1.641-1.6368-8.32-13.3359-6.652-8.418-5.043-3.2773-5.039-1.6406-5.016-1.6407-1.641-1.6367-1.636-1.7617 13.332-8.3203 4.801-1.5195 5.16.0976 4.703,1.6641 2.07,1.3984 3.379-.7461 3.277.8672 2.75,2.2891 .653.8945 4.265,2.0742 3.282,3.375 1.976,4.3867 .531,3.4961 .555,2.7266 3.184,8.1992 4.461,7.4492 4.941,4.3672 3.379,5.4727 2.07,6.125 .438,6.4609-.75,4.2461 4.582,10.5156 2.965,11.0435 1.64,10.273-.336,11.043-.316,3.062-.117,15.747h-46.809v-21.657" fill="#1a6e6d"/>
    <path d="m418.371,123.031 4.055-25.4607 .867-4.4883 1.086-3.6172 2.41-13.1171-2.726-4.6055-1.11-5.2344 .34-5.1601-1.641-1.6368-8.32-13.3359-6.652-8.418-5.043-3.2773-5.039-1.6406-5.016-1.6407-1.641-1.6367-1.636-1.7617 13.332-8.3203 4.801-1.5195 5.16.0976 4.703,1.6641 2.07,1.3984 3.379-.7461 3.277.8672 2.75,2.2891 .653.8945 4.265,2.0742 3.282,3.375 1.976,4.3867 .531,3.4961 .555,2.7266 3.184,8.1992 4.461,7.4492 4.941,4.3672 3.379,5.4727 2.07,6.125 .438,6.4609-.75,4.2461 4.582,10.5156 2.965,11.0435 1.64,10.273-.336,11.043-.316,3.062-.117,15.747h-46.809v-21.657z" fill="none" stroke="#363639" stroke-width=".76458"/>
    <path d="m495.25,141.406-35.98-6.773-4.051-1.641-17.047-5.789-17.387-4.172h-1.64l-18.93-2.601-18.254-.774-18.375.774-18.063,2.601h-13.886l-13.676-1.515-.988-.121-7.305-2.172-4.27-.891-5.039.891-49.433,8.968-11.817,9.286-6.656,4.918-10.078,4.921-8.418,5.137-1.637,1.637-7.644,4.269-14.106,9.407-13.144,10.609-12.031,12.031-10.829,13.024-9.5,13.984-8.101,15-11.699,26.574-19.7,39.379-7.523,12.996-8.3203,12.707-9.836,13.434-9.5273,11.5-5.3516,5.016-1.543.218-3.8125,1.762-2.8437,3.059-2.5313-.649-2.3867.649-1.8828,1.738-2.8203-1.086-3.1836.652-2.4101,2.075 .2148,12.25h25.1523l162.3091-166.676h530.535l66.843-86.617-1.64-12.563-.676-3.066-5.234-8.4144-1.543-1.9766-8.969-9.5273 3.496,6.0312 1.109,3.5938 .219,3.1796-9.961,25.2737-8.969,8.754-10.179,7.523-10.922,6.125-21.559,10.512-20.015,7.984-20.446,6.34-20.882,4.824-21.317,3.157-21.898,1.546h-13.551l-13.336-1.64-13.02-3.305-12.683-4.918-11.914-6.344-10.949-7.765-3.18-2.629-3.379-1.637-8.414-1.738h-3.281l-5.039,3.375-8.414.34-8.418-1.422-8.754-2.074-27.68-9.528" fill="#dad1ce"/>
    <path d="m495.25,141.406-35.98-6.773-4.051-1.641-17.047-5.789-17.387-4.172h-1.64l-18.93-2.601-18.254-.774-18.375.774-18.063,2.601h-13.886l-13.676-1.515-.988-.121-7.305-2.172-4.27-.891-5.039.891-49.433,8.968-11.817,9.286-6.656,4.918-10.078,4.921-8.418,5.137-1.637,1.637-7.644,4.269-14.106,9.407-13.144,10.609-12.031,12.031-10.829,13.024-9.5,13.984-8.101,15-11.699,26.574-19.7,39.379-7.523,12.996-8.3203,12.707-9.836,13.434-9.5273,11.5-5.3516,5.016-1.543.218-3.8125,1.762-2.8437,3.059-2.5313-.649-2.3867.649-1.8828,1.738-2.8203-1.086-3.1836.652-2.4101,2.075 .2148,12.25h25.1523l162.3091-166.676h530.535l66.843-86.617-1.64-12.563-.676-3.066-5.234-8.4144-1.543-1.9766-8.969-9.5273 3.496,6.0312 1.109,3.5938 .219,3.1796-9.961,25.2737-8.969,8.754-10.179,7.523-10.922,6.125-21.559,10.512-20.015,7.984-20.446,6.34-20.882,4.824-21.317,3.157-21.898,1.546h-13.551l-13.336-1.64-13.02-3.305-12.683-4.918-11.914-6.344-10.949-7.765-3.18-2.629-3.379-1.637-8.414-1.738h-3.281l-5.039,3.375-8.414.34-8.418-1.422-8.754-2.074-27.68-9.528z" fill="none" stroke="#363639" stroke-width=".76458"/>
    <path d="m284.492,126.313h30.094l.75-5.45 1.637-4.05 1.328-5.258-.34-5.137 .773-.988 1.086-2.508-.433-3.1837v-.7461l1.203-2.0977v-3.7148l-.988-1.7344 1.855-3.957-.215-2.8438 2.75-21.5351-.433-5.6914-.461-6.125 1.64-3.5938 2.532-5.5937 .773-4.3633-.988-4.3906-2.414-3.5899-1.637-6.8008-.774-3.2812-2.195-3.0625-3.375-1.7344-3.832-.5547-6.898-2.2929-1.086-.4336h-1.641l-1.301.4336-.773.9882-9.957,1.6407 .121,8.6328 1.641,1.6406 2.074.7695 4.484,7.3321-.773.4336-.434,1.207v1.207l.434,1.3008 .773.7695-1.64,10.0586-5.907,19.918-4.148,20.0117-.555,4.0274-2.847,4.9218 .097,29.4185" fill="#1a6e6d"/>
    <path d="m284.492,126.313h30.094l.75-5.45 1.637-4.05 1.328-5.258-.34-5.137 .773-.988 1.086-2.508-.433-3.1837v-.7461l1.203-2.0977v-3.7148l-.988-1.7344 1.855-3.957-.215-2.8438 2.75-21.5351-.433-5.6914-.461-6.125 1.64-3.5938 2.532-5.5937 .773-4.3633-.988-4.3906-2.414-3.5899-1.637-6.8008-.774-3.2812-2.195-3.0625-3.375-1.7344-3.832-.5547-6.898-2.2929-1.086-.4336h-1.641l-1.301.4336-.773.9882-9.957,1.6407 .121,8.6328 1.641,1.6406 2.074.7695 4.484,7.3321-.773.4336-.434,1.207v1.207l.434,1.3008 .773.7695-1.64,10.0586-5.907,19.918-4.148,20.0117-.555,4.0274-2.847,4.9218 .097,29.4185z" fill="none" stroke="#363639" stroke-width=".76458"/>
    <path d="m445.285,154.645-1.328-2.942-5.039-7.762-6.125-6.679-7.426-5.571-8.101-4.05-8.852-2.629-9.066-1.086-10.828-.895-13.891,1.641-14.441,1.762-14.11,3.398-13.574,5.016-12.902,6.558-71.739,3.282h-3.281l-11.043,1.109-10.609,2.844-10.176,4.367 10.055-6.125 10.078-5.016 6.562-4.945 11.91-9.281 49.434-8.973 5.039-.77 4.27.77 7.332,2.195 .964.098 13.672,1.543h13.793l18.157-2.535 18.375-.867 18.253.867 18.93,2.535h1.641l17.386,4.144 17.047,5.79 4.051,1.64 35.981,6.801 27.464,10.055 8.754,2.074 8.414,1.422 8.418-.34 5.039-3.375h3.278l8.418,1.738 3.277,1.637 3.281,2.629 10.95,7.765 11.91,6.344 12.59,4.918 13.117,3.305 13.336,1.64h13.574l21.871-1.546 21.219-3.157 20.98-4.824 20.449-6.34 20.016-7.984 21.559-10.512 10.922-6.125 10.175-7.523 8.969-8.754 9.961-25.2737-.555,2.6287 1.762,5.477v5.664l-1.543,5.379-2.941,4.703-2.196,2.168l-12.129,11.07-13.144,9.621-14.106,8.414-12.468,5.911l-24.039,9.066-24.5,7.547-24.961,6.027-25.367,4.367-25.465,2.723-25.606.988-25.707-.648-1.738-.121h-.649l-7.668.457-7.21,2.172-6.68,3.617-5.692,5.039-4.582,6.004-3.062,6.992-1.543,7.453 .121,7.547-9.621,9.066-87.051-83.339" fill="#b5a8a4"/>
    <path d="m445.285,154.645-1.328-2.942-5.039-7.762-6.125-6.679-7.426-5.571-8.101-4.05-8.852-2.629-9.066-1.086-10.828-.895-13.891,1.641-14.441,1.762-14.11,3.398-13.574,5.016-12.902,6.558-71.739,3.282h-3.281l-11.043,1.109-10.609,2.844-10.176,4.367 10.055-6.125 10.078-5.016 6.562-4.945 11.91-9.281 49.434-8.973 5.039-.77 4.27.77 7.332,2.195 .964.098 13.672,1.543h13.793l18.157-2.535 18.375-.867 18.253.867 18.93,2.535h1.641l17.386,4.144 17.047,5.79 4.051,1.64 35.981,6.801 27.464,10.055 8.754,2.074 8.414,1.422 8.418-.34 5.039-3.375h3.278l8.418,1.738 3.277,1.637 3.281,2.629 10.95,7.765 11.91,6.344 12.59,4.918 13.117,3.305 13.336,1.64h13.574l21.871-1.546 21.219-3.157 20.98-4.824 20.449-6.34 20.016-7.984 21.559-10.512 10.922-6.125 10.175-7.523 8.969-8.754 9.961-25.2737-.555,2.6287 1.762,5.477v5.664l-1.543,5.379-2.941,4.703-2.196,2.168l-12.129,11.07-13.144,9.621-14.106,8.414-12.468,5.911l-24.039,9.066-24.5,7.547-24.961,6.027-25.367,4.367-25.465,2.723-25.606.988-25.707-.648-1.738-.121h-.649l-7.668.457-7.21,2.172-6.68,3.617-5.692,5.039-4.582,6.004-3.062,6.992-1.543,7.453 .121,7.547-9.621,9.066-87.051-83.339z" fill="none" stroke="#b5a8a4" stroke-width=".10833"/>
    <path d="m212.969,152.574 10.082-6.246 10.054-4.922 6.559-5.015 11.914-9.305 49.434-8.973 5.039-.746 4.265.746 7.332,2.317h.965l13.578,1.636h13.887l18.16-2.625 18.375-.894 18.254.894 18.809,2.625h1.64l17.387,4.028 17.168,5.812 4.051,1.739 35.976,6.679 27.469,10.055 8.75,2.195 8.418,1.301 8.414-.312 5.039-3.403h3.282l8.414,1.762 3.281,1.641 3.183,2.628 11.043,7.762 11.914,6.344 12.586,4.918 13.118,3.281 13.336,1.641h13.578l21.75-1.547 21.34-3.063 20.882-4.918 20.571-6.222 19.988-7.981 21.437-10.609 11.071-6.125 10.152-7.547 8.969-8.633 9.961-25.3943" fill="none" stroke="#363639" stroke-width=".76458"/>
    <path d="m643.02,94.2891-23.848,12.9959-24.5,11.602-25.274,10.054-2.168.891 8.196-2.098 25.926-7.546 25.582-9.165 24.812-10.73 24.285-12.25 12.25-5.3516 12.805-3.8359 13.238-2.2891 13.453-.5547 8.418.4336 10.489.1211 10.175,1.7344 9.743,3.4023 9.187,4.918 8.297,6.3437 7.113,7.4492 5.906,8.512 4.368,9.308 1.636,4.918 7.887-9.308 1.977-3.156 1.207-3.93v-4.172l-1.422-3.8126-2.098-2.5312-7.984-7.332-11.696-8.0782-11.812-6.8945-13.121-5.4727-14.227-3.7148-13.672-1.8555-12.347-.5547-13.02,1.7579-12.347,3.1601-11.938,4.2695-11.141,4.918-14.226,7.4492-6.895,3.7149-13.214,6.6797" fill="#1a6e6d"/>
    <path d="m643.02,94.2891-23.848,12.9959-24.5,11.602-25.274,10.054-2.168.891 8.196-2.098 25.926-7.546 25.582-9.165 24.812-10.73 24.285-12.25 12.25-5.3516 12.805-3.8359 13.238-2.2891 13.453-.5547 8.418.4336 10.489.1211 10.175,1.7344 9.743,3.4023 9.187,4.918 8.297,6.3437 7.113,7.4492 5.906,8.512 4.368,9.308 1.636,4.918 7.887-9.308 1.977-3.156 1.207-3.93v-4.172l-1.422-3.8126-2.098-2.5312-7.984-7.332-11.696-8.0782-11.812-6.8945-13.121-5.4727-14.227-3.7148-13.672-1.8555-12.347-.5547-13.02,1.7579-12.347,3.1601-11.938,4.2695-11.141,4.918-14.226,7.4492-6.895,3.7149-13.214,6.6797z" fill="none" stroke="#363639" stroke-width=".76458"/>
    <path d="m49.1406,368.031 7.8828-2.629 9.2852-4.484 8.1992-5.91 7.2344-7.207 6.0039-7.766 4.918-5.472 4.9218-6.778 6.8941-9.308 6.778-9.934 6.246-9.863 5.57-9.934 5.571-10.516 5.039-10.488 5.57-10.515 4.918-9.934 5.691-9.863 6.125-9.285 7.547-9.957 7.453-9.286 4.27-4.918 10.586-11.816 11.164-11.695 13.672-9.961 13.672-8.657 3.714-2.507 6.895-3.063 7.43-1.855 8.437-.653-1.324-5.691-1.977-2.723-.964-3.496 .433-3.957 1.301-6.558h1.641l-.868-3.161 .77-3.277 2.172-2.531 2.41-.867-4.703-10.735-3.278-10.9216-.433-3.3985-7.668-8.9726-6.344-9.836-4.703-10.8281-1.422-3.7148-4.363-5.5703-.774-2.8438-1.207-1.6406-2.07-.3399-1.305-1.3007-1.976-2.75v-2.0743l-1.641-1.5156v-1.9804l-2.074-1.4219-.336-1.9766-1.301-.7461-4.824-7.0195-4.484-2.8438-3.715-.9648h-1.641l-1.637-1.6406-3.281-6.8008 1.543-3.2774v-1.6406l-1.64-4.91795l1.64-1.30469 2.606-.55468 2.843.77343 .774,1.30079 6.992-.4336h1.641l1.636,1.207 .219-.98825 3.399-1.73828h3.281l1.762,1.73828 2.507,2.96485 .77,1.9531 1.738,3.3985 3.277,3.2812 4.27,2.6289 3.184,3.832 .988,1.8594 10.055,9.9336 6.558,8.4414 16.832,21.6524 2.196,1.5195 1.324,2.4102-.215,2.7265 5.785,5.5938 4.27,6.0039 2.074.6523 1.519,1.4219 .555,2.1953-.555,2.0742-.218.4336 1.64,1.6406 7.766,9.9571 6.461,10.828 .867,1.977 12.156,5.015 4.051,2.41 2.941,3.5 1.422,4.051 .121,5.039-1.664,7.332-.867,1.95-13.238,17.293 18.832-14.786 16.277,4.946h10.949l16.516,11.14 10.609-4.703 14.204,7.985 5.257,13.886h21.536l11.285-8.847 5.136-7.332 9.5-11.043 7.45-6.993-.555-2.968 .992-2.844 2.289-1.953 2.195-4.27 3.063-4.703 4.363-3.496 2.629-1.422 2.965-3.062 3.813-1.641 3.277-.215 1.64-.34 3.836-1.636 2.844-3.184 7.547-5.234 8.32-3.832 14.973-7.211 13.121-4.9222 7.981-2.0976 5.906-2.3868 6.125-1.1093 3.062.2187 5.356-5.2344 6.367-4.0507 1.637-.7696 4.922-11.6015 1.734-11.6953-1.734-5.0391-6.559-8.1992-5.164-3.375h-1.637l-1.64-3.3985v-5.0429l24.933-6.9922 2.965,2.0742h2.074l2.629.9883 .988,1.0859 .75,2.0977 2.411,5.9062 2.074,3.2813 1.758,2.9414 1.304,2.6289 1.11,6.2226-.895,6.2422-2.387,5.9102-1.207,2.6289-3.398,21.75 1.109,4.2695-.554,4.3867-2.075,3.9296-3.398,2.727-3.402,1.328-5.45,3.711-6.339,5.91-4.922,7.113-9.09,8.633-10.274,7.426-11.043,6.125-6.464,2.75-1.977.531-1.855,1.203-1.18,1.977 .215,2.195-.215.75-.242,3.734 .121,11.481 1.855,11.476 10.176,5.04 13.238,5.789 13.989,4.918 14.441,3.496 14.543,1.64 22.641,1.328 14.879-.675 16.179-.532 31.496-3.714 15.746-3.301 23.196-6.125 22.742-7.766 22.086-9.406 5.812-2.723 13.457-8.418 10.586-7.449 12.922-11.695 11.141-11.043 8.105-11.817 1.856-6.777 .652-3.711-.652-3.066 1.761,6.441 1.954,7.981 .336,8.101-1.329,8.102-3.062,7.765-4.363,6.992-.215.219-7.332,13.02-8.633,11.816-9.961,11.047-11.043,9.715-12.129,8.441-4.605,2.727-24.379,14.008-25.274,12.468-25.922,11.043-26.574,9.5-27.008,7.887-27.464,6.34-2.29.437-20.015,3.278-18.473,5.039-25.054,11.574-11.598,8.008-12.348,6.558-13.238,5.016-1.324.434-19.461,3.281-19.582,1.758-19.797-.121-19.555-1.735-10.176-1.543-5.136-2.941-7.332-2.629-7.668-.988-24.934-7.547-24.379-9.188-23.726-10.613-23.079-12.129-.988-.433-1.207-1.856-4.387-4.172-5.234-2.82-5.812-1.207-15.071-6.801l-6.125-4.148-3.953-4.051-2.726-2.844-4.27-2.387-4.918-.675-4.703.89h-15.215l-13.336,1.641-8.32,5.015-8.414,8.321-15.313,14.226-16.398,17.266-15.094,18.496-9.961,16.18-11.258,15.191-12.468,14.227-13.77,12.902-14.8788,11.816-15.8672,10.391-10.4883,5.91-7.332,2.844-7.7618,1.086-7.8867-.434-.4336-.121-2.9414,1.543-3.1836-.121-2.8476-1.515-1.0821-1.641-3.2812-1.641-3.3984-2.195-2.8477-3.832-1.0859-2.293-1.0821-2.195-3.0625-4.485-3.40232-4.363-1.51953-3.93-.33594-1.64 .1211-3.403 1.51953-1.636 2.84376-.989 2.4101-.218 1.7383.218 3.8321,1.758 4.7031,2.074 4.0508,1.977 6.3437.652 5.7852,1.207l2.6289.867 3.4961,2.075 2.3164,2.074 .5312-.098" fill="#0e8a4a"/>
    <path d="m49.1406,368.031 7.8828-2.629 9.2852-4.484 8.1992-5.91 7.2344-7.207 6.0039-7.766 4.918-5.472 4.9218-6.778 6.8941-9.308 6.778-9.934 6.246-9.863 5.57-9.934 5.571-10.516 5.039-10.488 5.57-10.515 4.918-9.934 5.691-9.863 6.125-9.285 7.547-9.957 7.453-9.286 4.27-4.918 10.586-11.816 11.164-11.695 13.672-9.961 13.672-8.657 3.714-2.507 6.895-3.063 7.43-1.855 8.437-.653-1.324-5.691-1.977-2.723-.964-3.496 .433-3.957 1.301-6.558h1.641l-.868-3.161 .77-3.277 2.172-2.531 2.41-.867-4.703-10.735-3.278-10.9216-.433-3.3985-7.668-8.9726-6.344-9.836-4.703-10.8281-1.422-3.7148-4.363-5.5703-.774-2.8438-1.207-1.6406-2.07-.3399-1.305-1.3007-1.976-2.75v-2.0743l-1.641-1.5156v-1.9804l-2.074-1.4219-.336-1.9766-1.301-.7461-4.824-7.0195-4.484-2.8438-3.715-.9648h-1.641l-1.637-1.6406-3.281-6.8008 1.543-3.2774v-1.6406l-1.64-4.91795l1.64-1.30469 2.606-.55468 2.843.77343 .774,1.30079 6.992-.4336h1.641l1.636,1.207 .219-.98825 3.399-1.73828h3.281l1.762,1.73828 2.507,2.96485 .77,1.9531 1.738,3.3985 3.277,3.2812 4.27,2.6289 3.184,3.832 .988,1.8594 10.055,9.9336 6.558,8.4414 16.832,21.6524 2.196,1.5195 1.324,2.4102-.215,2.7265 5.785,5.5938 4.27,6.0039 2.074.6523 1.519,1.4219 .555,2.1953-.555,2.0742-.218.4336 1.64,1.6406 7.766,9.9571 6.461,10.828 .867,1.977 12.156,5.015 4.051,2.41 2.941,3.5 1.422,4.051 .121,5.039-1.664,7.332-.867,1.95-13.238,17.293 18.832-14.786 16.277,4.946h10.949l16.516,11.14 10.609-4.703 14.204,7.985 5.257,13.886h21.536l11.285-8.847 5.136-7.332 9.5-11.043 7.45-6.993-.555-2.968 .992-2.844 2.289-1.953 2.195-4.27 3.063-4.703 4.363-3.496 2.629-1.422 2.965-3.062 3.813-1.641 3.277-.215 1.64-.34 3.836-1.636 2.844-3.184 7.547-5.234 8.32-3.832 14.973-7.211 13.121-4.9222 7.981-2.0976 5.906-2.3868 6.125-1.1093 3.062.2187 5.356-5.2344 6.367-4.0507 1.637-.7696 4.922-11.6015 1.734-11.6953-1.734-5.0391-6.559-8.1992-5.164-3.375h-1.637l-1.64-3.3985v-5.0429l24.933-6.9922 2.965,2.0742h2.074l2.629.9883 .988,1.0859 .75,2.0977 2.411,5.9062 2.074,3.2813 1.758,2.9414 1.304,2.6289 1.11,6.2226-.895,6.2422-2.387,5.9102-1.207,2.6289-3.398,21.75 1.109,4.2695-.554,4.3867-2.075,3.9296-3.398,2.727-3.402,1.328-5.45,3.711-6.339,5.91-4.922,7.113-9.09,8.633-10.274,7.426-11.043,6.125-6.464,2.75-1.977.531-1.855,1.203-1.18,1.977 .215,2.195-.215.75-.242,3.734 .121,11.481 1.855,11.476 10.176,5.04 13.238,5.789 13.989,4.918 14.441,3.496 14.543,1.64 22.641,1.328 14.879-.675 16.179-.532 31.496-3.714 15.746-3.301 23.196-6.125 22.742-7.766 22.086-9.406 5.812-2.723 13.457-8.418 10.586-7.449 12.922-11.695 11.141-11.043 8.105-11.817 1.856-6.777 .652-3.711-.652-3.066 1.761,6.441 1.954,7.981 .336,8.101-1.329,8.102-3.062,7.765-4.363,6.992-.215.219-7.332,13.02-8.633,11.816-9.961,11.047-11.043,9.715-12.129,8.441-4.605,2.727-24.379,14.008-25.274,12.468-25.922,11.043-26.574,9.5-27.008,7.887-27.464,6.34-2.29.437-20.015,3.278-18.473,5.039-25.054,11.574-11.598,8.008-12.348,6.558-13.238,5.016-1.324.434-19.461,3.281-19.582,1.758-19.797-.121-19.555-1.735-10.176-1.543-5.136-2.941-7.332-2.629-7.668-.988-24.934-7.547-24.379-9.188-23.726-10.613-23.079-12.129-.988-.433-1.207-1.856-4.387-4.172-5.234-2.82-5.812-1.207-15.071-6.801l-6.125-4.148-3.953-4.051-2.726-2.844-4.27-2.387-4.918-.675-4.703.89h-15.215l-13.336,1.641-8.32,5.015-8.414,8.321-15.313,14.226-16.398,17.266-15.094,18.496-9.961,16.18-11.258,15.191-12.468,14.227-13.77,12.902-14.8788,11.816-15.8672,10.391-10.4883,5.91-7.332,2.844-7.7618,1.086-7.8867-.434-.4336-.121-2.9414,1.543-3.1836-.121-2.8476-1.515-1.0821-1.641-3.2812-1.641-3.3984-2.195-2.8477-3.832-1.0859-2.293-1.0821-2.195-3.0625-4.485-3.40232-4.363-1.51953-3.93-.33594-1.64 .1211-3.403 1.51953-1.636 2.84376-.989 2.4101-.218 1.7383.218 3.8321,1.758 4.7031,2.074 4.0508,1.977 6.3437.652 5.7852,1.207l2.6289.867 3.4961,2.075 2.3164,2.074 .5312-.098z" fill="none" stroke="#0e8a4a" stroke-width=".10833"/>
    <path d="m525.559,181.559 10.054,5.039 13.676,5.882 8.512,3.063-.867.34-5.692,5.039-4.488,6.004-3.063,6.992-1.515,7.453 .094,7.547 2.097,8.078-.215-.098-10.828-25.269-2.531-6.441-1.086-5.688-4.051-16.641-.097-1.086v-.214" fill="#1a6e6d"/>
    <path d="m525.559,181.559 10.054,5.039 13.676,5.882 8.512,3.063-.867.34-5.692,5.039-4.488,6.004-3.063,6.992-1.515,7.453 .094,7.547 2.097,8.078-.215-.098-10.828-25.269-2.531-6.441-1.086-5.688-4.051-16.641-.097-1.086v-.214z" fill="none" stroke="#1a6e6d" stroke-width=".10833"/>
    <path d="m378.125,166.246 4.148.77 3.715.964 2.844,2.196 1.762,3.617 .219,2.195 .648,1.953 2.629,5.039 4.051,3.715 5.234,2.508 5.254.434 6.125-.75 5.574-2.532 4.699-3.929 1.977-3.16 7.117-10.512-13.023,9.742-5.016,2.942-5.16,1.542h-5.234l-3.399-.867-2.844-1.543-2.074-1.859-1.086-3.063-.773-4.363-1.758-4.051-3.063-3.183-4.027-1.735-3.836-.339-3.93-3.161-1.109-.457-1.301-.097-1.328.652-.746,1.086-.773,2.41-1.422,1.328-3.281.746-2.625-.312-3.063-1.543-2.074-2.293-1.422-1.422-1.547-1.422-.867-.867-4.266-2.969-4.922-1.422-5.136.121-5.137.868-3.617-.532-2.289-1.203-4.27-3.617-3.183-1.422-4.024.336-2.098.867-1.183,1.207-1.762,4.051-4.605,5.906-3.93,3.282-2.195,2.507v1.208l3.183.312 3.715-1.086 3.063-2.629 2.531-2.41 1.519-2.941 2.075-2.414 3.183-.989 3.156.774 1.543.988 6.657,1.641 6.679.433 4.485-.773 4.269,1.109 3.496,2.727 1.207,1.543 1.641,2.605 3.277,3.063 4.606,1.422 4.922-.313 3.929-1.859 4.266-.77" fill="#1a6e6d"/>
    <path d="m378.125,166.246 4.148.77 3.715.964 2.844,2.196 1.762,3.617 .219,2.195 .648,1.953 2.629,5.039 4.051,3.715 5.234,2.508 5.254.434 6.125-.75 5.574-2.532 4.699-3.929 1.977-3.16 7.117-10.512-13.023,9.742-5.016,2.942-5.16,1.542h-5.234l-3.399-.867-2.844-1.543-2.074-1.859-1.086-3.063-.773-4.363-1.758-4.051-3.063-3.183-4.027-1.735-3.836-.339-3.93-3.161-1.109-.457-1.301-.097-1.328.652-.746,1.086-.773,2.41-1.422,1.328-3.281.746-2.625-.312-3.063-1.543-2.074-2.293-1.422-1.422-1.547-1.422-.867-.867-4.266-2.969-4.922-1.422-5.136.121-5.137.868-3.617-.532-2.289-1.203-4.27-3.617-3.183-1.422-4.024.336-2.098.867-1.183,1.207-1.762,4.051-4.605,5.906-3.93,3.282-2.195,2.507v1.208l3.183.312 3.715-1.086 3.063-2.629 2.531-2.41 1.519-2.941 2.075-2.414 3.183-.989 3.156.774 1.543.988 6.657,1.641 6.679.433 4.485-.773 4.269,1.109 3.496,2.727 1.207,1.543 1.641,2.605 3.277,3.063 4.606,1.422 4.922-.313 3.929-1.859 4.266-.77z" fill="none" stroke="#1a6e6d" stroke-width=".10833"/>
    <path d="m532.988,285.129-8.539,5.57-9.402,4.266-4.703,1.422-15.625,4.488-15.77,2.723-16.183,1.207-16.18-.532-15.965-2.195-10.609-2.289-21.559-4.172-21.098-5.789-20.57-7.207-20.015-8.875-19.336-10.394-11.168-6.872-13.672-4.269-13.453-5.813-12.782-7.207-11.718-8.632-2.629-2.293v.433l14.226,8.852 11.164,5.258 8.731,3.496 15.215,3.375 7.113,1.761 6.992,4.145 5.91,4.703 8.754,4.703 29.418,14.66 30.625,10.516 31.156,6.437 10.512,2.411 22.957,2.847 22.426-.554 21.656-4.704 21.75-6.992 21.121-12.683-8.75,8.199" fill="#1a6e6d"/>
    <path d="m532.988,285.129-8.539,5.57-9.402,4.266-4.703,1.422-15.625,4.488-15.77,2.723-16.183,1.207-16.18-.532-15.965-2.195-10.609-2.289-21.559-4.172-21.098-5.789-20.57-7.207-20.015-8.875-19.336-10.394-11.168-6.872-13.672-4.269-13.453-5.813-12.782-7.207-11.718-8.632-2.629-2.293v.433l14.226,8.852 11.164,5.258 8.731,3.496 15.215,3.375 7.113,1.761 6.992,4.145 5.91,4.703 8.754,4.703 29.418,14.66 30.625,10.516 31.156,6.437 10.512,2.411 22.957,2.847 22.426-.554 21.656-4.704 21.75-6.992 21.121-12.683-8.75,8.199z" fill="none" stroke="#1a6e6d" stroke-width=".10833"/>
    <path d="m138.508,257.133 4.144-9.742 6.465-10.059 6.223-9.309 7.449-9.933 7.426-9.188 4.367-5.039 10.512-11.816 11.261-11.695 13.672-9.957 13.672-8.633 3.715-2.508 6.777-3.063 7.45-1.859 9.066-.769 3.836,11.042-3.496,6.438-.457-.215-7.309-2.387-7.547-.773-7.668.867-7.113,1.86-5.015,2.312-11.262,6.875-9.961,7.016-9.402,9.402-9.622,10.059-11.722,13.886-13.332,18.258-12.129,18.93" fill="#1a6e6d"/>
    <path d="m138.508,257.133 4.144-9.742 6.465-10.059 6.223-9.309 7.449-9.933 7.426-9.188 4.367-5.039 10.512-11.816 11.261-11.695 13.672-9.957 13.672-8.633 3.715-2.508 6.777-3.063 7.45-1.859 9.066-.769 3.836,11.042-3.496,6.438-.457-.215-7.309-2.387-7.547-.773-7.668.867-7.113,1.86-5.015,2.312-11.262,6.875-9.961,7.016-9.402,9.402-9.622,10.059-11.722,13.886-13.332,18.258-12.129,18.93z" fill="none" stroke="#1a6e6d" stroke-width=".10833"/>
    <path d="m397.926,28.2148 3.711.2188 .773-3.4961-.34-3.375-.433-1.543h-10.055l.219.8672h-5.043l-3.617.8906h-3.278l.77,1.8594 2.414,2.9414 3.496,1.8555 2.074.6523 2.508-.9648 1.203,1.3008 3.281-2.5078 2.317,1.3007" fill="#dad1ce"/>
    <path d="m397.926,28.2148 3.711.2188 .773-3.4961-.34-3.375-.433-1.543h-10.055l.219.8672h-5.043l-3.617.8906h-3.278l.77,1.8594 2.414,2.9414 3.496,1.8555 2.074.6523 2.508-.9648 1.203,1.3008 3.281-2.5078 2.317,1.3007z" fill="none" stroke="#363639" stroke-width=".10833"/>
    <path d="m13.5,369.117-1.4219-1.738v-.457l1.6367.457 .75,1.519-.9648.219" fill="#363639"/>
    <path d="m13.5,369.117-1.4219-1.738v-.457l1.6367.457 .75,1.519-.9648.219z" fill="none" stroke="#363639" stroke-width=".10833"/>
    <path d="m291.293,23.418v-1.543l2.387,1.207l1.879.336h2.293l1.086-.5547 2.191-2.7227 .871-3.2812-.871-3.3985h-9.957l-5.039-1.6406-1.641,1.6406h-3.375v1.6368h-1.64l.312.7734 2.098,3.7148 3.496,2.625 4.148,1.2071h1.762" fill="#dad1ce"/>
    <path d="m291.293,23.418v-1.543l2.387,1.207l1.879.336h2.293l1.086-.5547 2.191-2.7227 .871-3.2812-.871-3.3985h-9.957l-5.039-1.6406-1.641,1.6406h-3.375v1.6368h-1.64l.312.7734 2.098,3.7148 3.496,2.625 4.148,1.2071h1.762z" fill="none" stroke="#363639" stroke-width=".10833"/>
    <path d="m419.02 43.965 1.762-0.75" fill="none" stroke="#363639" stroke-width=".10833"/>
    <path d="m422.09 48.352 1.641-0.9883" fill="none" stroke="#363639" stroke-width=".10833"/>
    <path d="m424.59 52.402 1.859-0.9882" fill="none" stroke="#363639" stroke-width=".10833"/>
    <path d="m427.12 56.43 1.859-0.6524" fill="none" stroke="#363639" stroke-width=".10833"/>
    <path d="m416.52 40.586 1.64-0.9882" fill="none" stroke="#363639" stroke-width=".10833"/>
    <path d="m312.945,233.5-2.965,2.965-3.832,1.738-1.519.215" fill="none" stroke="#363639" stroke-width=".10833"/>
    <path d="m309.55 223.44 2.508 3.614 0.988 4.246-0.098 2.195" fill="none" stroke="#363639" stroke-width=".10833"/>
    <path d="m383.14 190.09 5.257 5.906 3.618 6.996 2.293 7.426 0.554 6.246" fill="none" stroke="#363639" stroke-width=".10833"/>
    <path d="m418.37 265.11-8.414-1.761-5.594-0.434-5.136-2.172-4.364-3.613-1.64-1.981" fill="none" stroke="#363639" stroke-width=".10833"/>
    <path d="m451.84 150.07 3.277-3.281" fill="none" stroke="#363639" stroke-width=".10833"/>
    <path d="m428.43 248.38-0.098-10.395 1.52-10.175 3.062-9.934 3.93-7.766" fill="none" stroke="#363639" stroke-width=".10833"/>
    <path d="m436.84 210.11 8.199-21.656" fill="none" stroke="#363639" stroke-width=".10833"/>
    <path d="m425.03 245.1 3.403-5.039" fill="none" stroke="#363639" stroke-width=".10833"/>
    <path d="m543.81 236.78-10.825-25.246-2.508-6.461" fill="none" stroke="#363639" stroke-width=".76458"/>
    <path d="m256.06 185.18 3.398 6.34 1.953 7.089 0.242 7.235-0.554 4.269" fill="none" stroke="#363639" stroke-width=".10833"/>
    <path d="m256.06 185.18-5.016-15" fill="none" stroke="#363639" stroke-width=".10833"/>
    <path d="m249.504,131.57-.774-3.16 .676-3.183 2.172-2.508 3.063-.989" fill="none" stroke="#363639" stroke-width=".10833"/>
    <path d="m304.63 138.46-6.777 6.68-4.606 3.062-5.355 1.641-1.758 0.218" fill="none" stroke="#363639" stroke-width=".10833"/>
    <path d="m301.9 125.01 3.715 0.867 3.063 2.312 1.636 3.379" fill="none" stroke="#363639" stroke-width=".10833"/>
    <path d="m311.19 125.13 4.05 2.387 2.942 3.519 1.422 4.027" fill="none" stroke="#363639" stroke-width=".76458"/>
    <path d="m319.39 99.738-3.063-1.3008" fill="none" stroke="#363639" stroke-width=".10833"/>
    <path d="m319.6 91.758h-1.641" fill="none" stroke="#363639" stroke-width=".10833"/>
    <path d="m314.586,103.355-.77-2.074-.773-2.9646-.215-2.6055 .336-2.7461 .313-2.1953 1.109-2.3867" fill="none" stroke="#363639" stroke-width=".10833"/>
    <path d="m319.6 85.102-3.278 1.6406" fill="none" stroke="#363639" stroke-width=".10833"/>
    <path d="m282.85 95.035-3.375-1.6368" fill="none" stroke="#363639" stroke-width=".10833"/>
    <path d="m279.48 88.383-5.137-0.8945" fill="none" stroke="#363639" stroke-width=".10833"/>
    <path d="m8.2422 356.99 2.5078 1.082 2.75 1.543 2.3867 2.172 2.3164 1.762 2.625 1.637 2.7266 1.64 4.918 1.641 2.5078 0.652 2.414 1.324 3.3985 2.825 3.375 1.757h1.6406" fill="none" stroke="#363639" stroke-width=".10833"/>
    <path d="m38.531 374.25h2.0703" fill="none" stroke="#363639" stroke-width=".10833"/>
    <path d="m40.168,386.719 .5547-1.735 .6523-1.543 1.207-.992 .9883-.648" fill="none" stroke="#363639" stroke-width=".10833"/>
    <path d="m48.4883,381.27-.1211,1.64-.4336,1.735-.8672,1.859-1.4219,1.422-1.5195,1.109-1.543.867-1.4218.434" fill="none" stroke="#363639" stroke-width=".10833"/>
    <path d="m48.609 368.46 1.5195 2.726-0.1211 3.399-1.6406 2.726-1.4219 1.204" fill="none" stroke="#363639" stroke-width=".10833"/>
    <path d="m48.609 368.46-2.3164-2.074-3.4961-2.075-2.6289-0.89" fill="none" stroke="#363639" stroke-width=".10833"/>
    <path d="m242.73 156.84 1.64 6.558" fill="none" stroke="#363639" stroke-width=".10833"/>
    <path d="m239.23 158.48 11.817 34.895" fill="none" stroke="#363639" stroke-width=".10833"/>
    <path d="m231.03 158.48 1.641 8.2" fill="none" stroke="#363639" stroke-width=".10833"/>
    <path d="m227.51 160.12 5.16 23.293" fill="none" stroke="#363639" stroke-width=".10833"/>
    <path d="m219.22 163.4 5.015 29.977" fill="none" stroke="#363639" stroke-width=".10833"/>
    <path d="m215.94 166.68 1.636 5.136" fill="none" stroke="#363639" stroke-width=".10833"/>
    <path d="m207.5 170.18 3.399 6.558" fill="none" stroke="#363639" stroke-width=".10833"/>
    <path d="m200.84 178.38 8.32 16.734" fill="none" stroke="#363639" stroke-width=".10833"/>
    <path d="m196.14 181.87 2.289 4.824" fill="none" stroke="#363639" stroke-width=".10833"/>
    <path d="m190.02 189.1 2.507 2.629" fill="none" stroke="#363639" stroke-width=".10833"/>
    <path d="m186.95 192.7 4.266 4.266" fill="none" stroke="#363639" stroke-width=".10833"/>
    <path d="m183.24 195.76 10.922 11.066" fill="none" stroke="#363639" stroke-width=".10833"/>
    <path d="m179.07 202.44 6.68 6.028" fill="none" stroke="#363639" stroke-width=".10833"/>
    <path d="m175.69 206.83 13.454 11.695" fill="none" stroke="#363639" stroke-width=".10833"/>
    <path d="m169.35 214.47 2.293 2.507" fill="none" stroke="#363639" stroke-width=".10833"/>
    <path d="m165.61 216.67 8.442 6.777" fill="none" stroke="#363639" stroke-width=".10833"/>
    <path d="m159.05 226.72 1.64 1.64" fill="none" stroke="#363639" stroke-width=".10833"/>
    <path d="m155.68 230 3.375 3.496" fill="none" stroke="#363639" stroke-width=".10833"/>
    <path d="m154.04 233.5 9.934 8.32" fill="none" stroke="#363639" stroke-width=".10833"/>
    <path d="m149.22 239.53 3.062 2.293" fill="none" stroke="#363639" stroke-width=".10833"/>
    <path d="m148.01 243.12 9.308 7.016" fill="none" stroke="#363639" stroke-width=".10833"/>
    <path d="m140.58 255.15 3.379 1.641" fill="none" stroke="#363639" stroke-width=".10833"/>
    <path d="m138.94 258.43 8.414 3.277" fill="none" stroke="#363639" stroke-width=".10833"/>
    <path d="m135.76 264.9 4.269 2.507" fill="none" stroke="#363639" stroke-width=".10833"/>
    <path d="m133.9 268.51 8.317 3.281" fill="none" stroke="#363639" stroke-width=".10833"/>
    <path d="m128.88 281.85 1.738 1.64" fill="none" stroke="#363639" stroke-width=".10833"/>
    <path d="m125.48 283.49 8.418 4.918" fill="none" stroke="#363639" stroke-width=".10833"/>
    <path d="m120.57 290.05 3.278 3.398" fill="none" stroke="#363639" stroke-width=".10833"/>
    <path d="m118.93 295.09 3.277 1.641" fill="none" stroke="#363639" stroke-width=".10833"/>
    <path d="m117.16 296.73 8.32 5.015" fill="none" stroke="#363639" stroke-width=".10833"/>
    <path d="m110.51 311.7 1.636 1.762" fill="none" stroke="#363639" stroke-width=".10833"/>
    <path d="m108.87 313.46 6.559 6.656" fill="none" stroke="#363639" stroke-width=".10833"/>
    <path d="m105.35 318.48 1.878 1.64" fill="none" stroke="#363639" stroke-width=".10833"/>
    <path d="m102.07 321.76 3.282 1.637" fill="none" stroke="#363639" stroke-width=".10833"/>
    <path d="m95.414 331.28 1.7382 0.867" fill="none" stroke="#363639" stroke-width=".10833"/>
    <path d="m93.773 333.48 6.6566 4.918" fill="none" stroke="#363639" stroke-width=".10833"/>
    <path d="m87.094 340.04 8.3203 6.004" fill="none" stroke="#363639" stroke-width=".10833"/>
    <path d="m85.457 343.41 3.0625 2.317" fill="none" stroke="#363639" stroke-width=".10833"/>
    <path d="m80.32 348.45 5.1367 3.281" fill="none" stroke="#363639" stroke-width=".10833"/>
    <path d="m78.461 351.08 1.8594 1.422" fill="none" stroke="#363639" stroke-width=".10833"/>
    <path d="m73.641 355.13 5.4727 5.016" fill="none" stroke="#363639" stroke-width=".10833"/>
    <path d="m70.359 356.77 3.2812 3.281" fill="none" stroke="#363639" stroke-width=".10833"/>
    <path d="m68.719 360.05 1.6406 1.734" fill="none" stroke="#363639" stroke-width=".10833"/>
    <path d="m65.32 361.78 5.4727 8.32" fill="none" stroke="#363639" stroke-width=".10833"/>
    <path d="m62.5 363.43 1.9531 3.496" fill="none" stroke="#363639" stroke-width=".10833"/>
    <path d="m58.664 370.1 1.6406 3.278" fill="none" stroke="#363639" stroke-width=".10833"/>
    <path d="m53.527 368.46 1.5196 1.855 0.2187 3.063" fill="none" stroke="#363639" stroke-width=".10833"/>
    <path d="m60.305 358.41-1.6406 3.375" fill="none" stroke="#363639" stroke-width=".10833"/>
    <path d="m48.707 366.92 1.0821-1.301 2.1953-0.773h3.4023" fill="none" stroke="#363639" stroke-width=".10833"/>
    <path d="m50.25 368.46 1.3008 3.281 0.3398 3.496v3.278" fill="none" stroke="#363639" stroke-width=".10833"/>
    <path d="m51.891 383.44v3.278" fill="none" stroke="#363639" stroke-width=".10833"/>
    <path d="m53.527 383.44v1.637" fill="none" stroke="#363639" stroke-width=".10833"/>
    <path d="m58.664 381.8v3.277" fill="none" stroke="#363639" stroke-width=".10833"/>
    <path d="m61.945 380.16v1.641" fill="none" stroke="#363639" stroke-width=".10833"/>
    <path d="m68.719 378.52 1.6406 1.64" fill="none" stroke="#363639" stroke-width=".10833"/>
    <path d="m72 376.78v1.735" fill="none" stroke="#363639" stroke-width=".10833"/>
    <path d="m78.68 370.1 1.6406 3.278" fill="none" stroke="#363639" stroke-width=".10833"/>
    <path d="m82.055 366.82 1.6406 1.641" fill="none" stroke="#363639" stroke-width=".10833"/>
    <path d="m85.457 363.43 1.6368 1.64" fill="none" stroke="#363639" stroke-width=".10833"/>
    <path d="m87.094 361.78 3.2812 3.281" fill="none" stroke="#363639" stroke-width=".10833"/>
    <path d="m95.414 355.13 1.7382 1.641" fill="none" stroke="#363639" stroke-width=".10833"/>
    <path d="m98.789 350.09 2.4139 2.074" fill="none" stroke="#363639" stroke-width=".10833"/>
    <path d="m100.43 348.45 3.281 3.281" fill="none" stroke="#363639" stroke-width=".10833"/>
    <path d="m112.15 338.4 2.075 1.519" fill="none" stroke="#363639" stroke-width=".10833"/>
    <path d="m115.43 333.48 1.855 2.074" fill="none" stroke="#363639" stroke-width=".10833"/>
    <path d="m117.28 329.96 4.367 3.734" fill="none" stroke="#363639" stroke-width=".10833"/>
    <path d="m127.22 318.48 3.179 1.543" fill="none" stroke="#363639" stroke-width=".10833"/>
    <path d="m130.4 313.77 2.414 1.86" fill="none" stroke="#363639" stroke-width=".10833"/>
    <path d="m132.26 310.06 5.039 3.398" fill="none" stroke="#363639" stroke-width=".10833"/>
    <path d="m140.58 298.46 2.195 1.109" fill="none" stroke="#363639" stroke-width=".10833"/>
    <path d="m143.43 293.98 3.929 2.75" fill="none" stroke="#363639" stroke-width=".10833"/>
    <path d="m149 285.13 1.641 1.637" fill="none" stroke="#363639" stroke-width=".10833"/>
    <path d="m150.64 281.85 5.039 3.281" fill="none" stroke="#363639" stroke-width=".10833"/>
    <path d="m160.69 266.75 4.918 3.398" fill="none" stroke="#363639" stroke-width=".10833"/>
    <path d="m163.97 265.11 1.64 1.641" fill="none" stroke="#363639" stroke-width=".10833"/>
    <path d="m174.05 255.15 3.277 4.922" fill="none" stroke="#363639" stroke-width=".10833"/>
    <path d="m175.69 253.42 1.637 1.734" fill="none" stroke="#363639" stroke-width=".10833"/>
    <path d="m187.39 245.1 1.758 1.64" fill="none" stroke="#363639" stroke-width=".10833"/>
    <path d="m190.78 241.82 1.738 3.278" fill="none" stroke="#363639" stroke-width=".10833"/>
    <path d="m207.5 229.45 1.664 3.278" fill="none" stroke="#363639" stroke-width=".10833"/>
    <path d="m212.54 226.72 1.641 5.039" fill="none" stroke="#363639" stroke-width=".10833"/>
    <path d="m217.57 210.11 3.379 11.696" fill="none" stroke="#363639" stroke-width=".10833"/>
    <path d="m222.59 213.39 1.64 8.418" fill="none" stroke="#363639" stroke-width=".10833"/>
    <path d="m227.51 211.75 3.519 8.414" fill="none" stroke="#363639" stroke-width=".10833"/>
    <path d="m231.03 221.8 0.532 3.496" fill="none" stroke="#363639" stroke-width=".10833"/>
    <path d="m237.59 221.8v6.558" fill="none" stroke="#363639" stroke-width=".10833"/>
    <path d="m241.09 221.8v3.277" fill="none" stroke="#363639" stroke-width=".10833"/>
    <path d="m229.27 200.03 3.402 16.641" fill="none" stroke="#363639" stroke-width=".10833"/>
    <path d="m235.95 195.11 3.281 23.414" fill="none" stroke="#363639" stroke-width=".10833"/>
    <path d="m237.59 180.14 8.418 40.027" fill="none" stroke="#363639" stroke-width=".10833"/>
    <path d="m252.69 225.08v4.922" fill="none" stroke="#363639" stroke-width=".10833"/>
    <path d="m239.23 175.09 11.817 35.015" fill="none" stroke="#363639" stroke-width=".10833"/>
    <path d="m85.02 330.73 1.7383 1.64" fill="none" stroke="#363639" stroke-width=".10833"/>
    <path d="m86.758 327.35 3.2813 1.64" fill="none" stroke="#363639" stroke-width=".10833"/>
    <path d="m88.398 324.07 5.0391 3.282" fill="none" stroke="#363639" stroke-width=".10833"/>
    <path d="m99.898 308.98 1.8596 1.734" fill="none" stroke="#363639" stroke-width=".10833"/>
    <path d="m102.07 303.38 2.844 1.758" fill="none" stroke="#363639" stroke-width=".10833"/>
    <path d="m105.47 299.57 1.98 1.953" fill="none" stroke="#363639" stroke-width=".10833"/>
    <path d="m112.15 286.77 1.641 1.64" fill="none" stroke="#363639" stroke-width=".10833"/>
    <path d="m115.43 280.09 1.734 1.762" fill="none" stroke="#363639" stroke-width=".10833"/>
    <path d="m117.28 275.5 3.281 2.945" fill="none" stroke="#363639" stroke-width=".10833"/>
    <path d="m123.84 260.07 3.379 1.637" fill="none" stroke="#363639" stroke-width=".10833"/>
    <path d="m129.1 251.22 3.16 2.195" fill="none" stroke="#363639" stroke-width=".10833"/>
    <path d="m130.62 246.74 4.918 3.399" fill="none" stroke="#363639" stroke-width=".10833"/>
    <path d="m135.54 233.5 3.402 1.641" fill="none" stroke="#363639" stroke-width=".10833"/>
    <path d="m138.94 230 1.637 1.758" fill="none" stroke="#363639" stroke-width=".10833"/>
    <path d="m140.58 226.72 6.777 3.281" fill="none" stroke="#363639" stroke-width=".10833"/>
    <path d="m149 212.95 3.281 2.074" fill="none" stroke="#363639" stroke-width=".10833"/>
    <path d="m150.64 210.11 6.679 4.918" fill="none" stroke="#363639" stroke-width=".10833"/>
    <path d="m160.81 196.22 3.156 2.172" fill="none" stroke="#363639" stroke-width=".10833"/>
    <path d="m163.97 193.38 6.801 5.016" fill="none" stroke="#363639" stroke-width=".10833"/>
    <path d="m174.05 181.77 1.64 1.641" fill="none" stroke="#363639" stroke-width=".10833"/>
    <path d="m192.52 166.68 1.637 3.496" fill="none" stroke="#363639" stroke-width=".10833"/>
    <path d="m195.8 165.04 1.64 3.281" fill="none" stroke="#363639" stroke-width=".10833"/>
    <path d="m209.91 155.97 0.989 2.507" fill="none" stroke="#363639" stroke-width=".10833"/>
    <path d="m213.62 152.91 2.317 5.57" fill="none" stroke="#363639" stroke-width=".10833"/>
    <path d="m220.95 148.43 1.637 1.64" fill="none" stroke="#363639" stroke-width=".10833"/>
    <path d="m229.27 144.69 1.761 3.277" fill="none" stroke="#363639" stroke-width=".10833"/>
    <path d="m232.67 141.75 4.918 8.32" fill="none" stroke="#363639" stroke-width=".10833"/>
    <path d="m237.59 138.46 3.496 5.043" fill="none" stroke="#363639" stroke-width=".10833"/>
    <path d="m381.504,168.32 3.738.989 2.942,2.289 1.757,3.402v.094" fill="none" stroke="#363639" stroke-width=".10833"/>
    <path d="m373.086,168.32-3.93,1.856-4.148.219-1.879-.219" fill="none" stroke="#363639" stroke-width=".10833"/>
    <path d="m336.34 155.08-5.137-2.172-4.265-3.738-0.532-0.746" fill="none" stroke="#363639" stroke-width=".10833"/>
    <path d="m263.3 244.54 2.82-4.484" fill="none" stroke="#363639" stroke-width=".10833"/>
    <path d="m267.66 244.54 1.207-2.508" fill="none" stroke="#363639" stroke-width=".10833"/>
    <path d="m281.33 254.38 3.16-6.004" fill="none" stroke="#363639" stroke-width=".10833"/>
    <path d="m286.13 251.78 1.664-1.64" fill="none" stroke="#363639" stroke-width=".10833"/>
    <path d="m302.99 265.11 3.278-5.039" fill="none" stroke="#363639" stroke-width=".10833"/>
    <path d="m306.27 263.35 1.64-1.641" fill="none" stroke="#363639" stroke-width=".10833"/>
    <path d="m324.64 280.09 3.402-6.652" fill="none" stroke="#363639" stroke-width=".10833"/>
    <path d="m329.68 276.71 1.636-3.277" fill="none" stroke="#363639" stroke-width=".10833"/>
    <path d="m349.79 290.05 3.281-6.559" fill="none" stroke="#363639" stroke-width=".10833"/>
    <path d="m354.83 288.41 3.281-4.918" fill="none" stroke="#363639" stroke-width=".10833"/>
    <path d="m376.49 300.1 1.735-8.293" fill="none" stroke="#363639" stroke-width=".10833"/>
    <path d="m379.86 295.09 1.641-3.277" fill="none" stroke="#363639" stroke-width=".10833"/>
    <path d="m396.6 305.02 1.64-8.293" fill="none" stroke="#363639" stroke-width=".10833"/>
    <path d="m401.64 300.1v-3.375" fill="none" stroke="#363639" stroke-width=".10833"/>
    <path d="m416.73 310.06 3.278-9.961" fill="none" stroke="#363639" stroke-width=".10833"/>
    <path d="m421.65 308.42 1.641-6.68" fill="none" stroke="#363639" stroke-width=".10833"/>
    <path d="m426.79 306.78 1.641-3.398" fill="none" stroke="#363639" stroke-width=".10833"/>
    <path d="m448.44 315.1v-11.719" fill="none" stroke="#363639" stroke-width=".10833"/>
    <path d="m450.2 310.06 1.641-5.043" fill="none" stroke="#363639" stroke-width=".10833"/>
    <path d="m463.54 308.42v-3.402" fill="none" stroke="#363639" stroke-width=".10833"/>
    <path d="m476.88 313.46v-10.078" fill="none" stroke="#363639" stroke-width=".10833"/>
    <path d="m480.27 308.42-1.64-5.039" fill="none" stroke="#363639" stroke-width=".10833"/>
    <path d="m490.33 305.02-1.64-3.278" fill="none" stroke="#363639" stroke-width=".10833"/>
    <path d="m513.74 303.38-3.398-6.656" fill="none" stroke="#363639" stroke-width=".10833"/>
    <path d="m518.66 305.02-1.641-4.918" fill="none" stroke="#363639" stroke-width=".10833"/>
    <path d="m542.18 288.41-1.641-4.918" fill="none" stroke="#363639" stroke-width=".10833"/>
    <path d="m547.09 286.77-1.641-3.278" fill="none" stroke="#363639" stroke-width=".10833"/>
    <path d="m562.28 270.15v-5.039" fill="none" stroke="#363639" stroke-width=".10833"/>
    <path d="m567.23 276.71-1.64-11.598" fill="none" stroke="#363639" stroke-width=".10833"/>
    <path d="m587.34 271.79-3.281-10.082" fill="none" stroke="#363639" stroke-width=".10833"/>
    <path d="m588.98 265.11-1.64-5.039" fill="none" stroke="#363639" stroke-width=".10833"/>
    <path d="m592.38 263.35v-3.278" fill="none" stroke="#363639" stroke-width=".10833"/>
    <path d="m605.72 266.75-1.641-9.961" fill="none" stroke="#363639" stroke-width=".10833"/>
    <path d="m609.11 260.07-1.758-4.922" fill="none" stroke="#363639" stroke-width=".10833"/>
    <path d="m612.49 258.43v-3.282" fill="none" stroke="#363639" stroke-width=".10833"/>
    <path d="m629.13 261.71-1.641-9.934" fill="none" stroke="#363639" stroke-width=".10833"/>
    <path d="m630.77 255.15v-5.015" fill="none" stroke="#363639" stroke-width=".10833"/>
    <path d="m635.91 253.42v-3.281" fill="none" stroke="#363639" stroke-width=".10833"/>
    <path d="m650.88 255.15v-8.414" fill="none" stroke="#363639" stroke-width=".10833"/>
    <path d="m654.28 250.14-1.761-3.399" fill="none" stroke="#363639" stroke-width=".10833"/>
    <path d="m662.57 248.38-1.64-4.922" fill="none" stroke="#363639" stroke-width=".10833"/>
    <path d="m676.03 248.38-1.738-9.961" fill="none" stroke="#363639" stroke-width=".10833"/>
    <path d="m679.31 243.46v-5.039" fill="none" stroke="#363639" stroke-width=".10833"/>
    <path d="m699.44 241.82-1.64-10.058" fill="none" stroke="#363639" stroke-width=".10833"/>
    <path d="m701.09 235.14-1.641-3.379" fill="none" stroke="#363639" stroke-width=".10833"/>
    <path d="m704.36 231.76v-1.758" fill="none" stroke="#363639" stroke-width=".10833"/>
    <path d="m721.2 230-1.734-6.559" fill="none" stroke="#363639" stroke-width=".10833"/>
    <path d="m722.84 225.08v-1.637" fill="none" stroke="#363639" stroke-width=".10833"/>
    <path d="m727.88 223.44-1.641-3.281" fill="none" stroke="#363639" stroke-width=".10833"/>
    <path d="m742.85 220.16-1.641-6.777" fill="none" stroke="#363639" stroke-width=".10833"/>
    <path d="m744.61 215.03v-3.277" fill="none" stroke="#363639" stroke-width=".10833"/>
    <path d="m751.29 211.75-1.637-1.641" fill="none" stroke="#363639" stroke-width=".10833"/>
    <path d="m764.62 206.83-1.641-6.801" fill="none" stroke="#363639" stroke-width=".10833"/>
    <path d="m768.03 201.79-1.761-3.398" fill="none" stroke="#363639" stroke-width=".10833"/>
    <path d="m773.04 198.39-1.641-1.641" fill="none" stroke="#363639" stroke-width=".10833"/>
    <path d="m778.08 195.11v-1.734" fill="none" stroke="#363639" stroke-width=".10833"/>
    <path d="m525.44 181.77 10.058 21.657" fill="none" stroke="#363639" stroke-width=".10833"/>
    <path d="m535.5 191.73 3.277 8.293 6.68 13.36" fill="none" stroke="#363639" stroke-width=".10833"/>
    <path d="m548.86 203.43 3.375 6.679" fill="none" stroke="#363639" stroke-width=".10833"/>
    <path d="m552.23 201.79 3.278 8.32 5.039 8.414 1.738 8.2" fill="none" stroke="#363639" stroke-width=".10833"/>
    <path d="m563.93 231.76v3.379" fill="none" stroke="#363639" stroke-width=".10833"/>
    <path d="m563.93 201.79 3.304 11.598" fill="none" stroke="#363639" stroke-width=".10833"/>
    <path d="m572.24 210.11 5.043 25.032" fill="none" stroke="#363639" stroke-width=".10833"/>
    <path d="m590.62 203.43v8.32" fill="none" stroke="#363639" stroke-width=".10833"/>
    <path d="m597.4 205.07 3.281 24.934" fill="none" stroke="#363639" stroke-width=".10833"/>
    <path d="m609.11 205.07 3.379 23.293" fill="none" stroke="#363639" stroke-width=".10833"/>
    <path d="m614.13 206.83v4.922" fill="none" stroke="#363639" stroke-width=".10833"/>
    <path d="m619.05 206.83v3.281" fill="none" stroke="#363639" stroke-width=".10833"/>
    <path d="m632.41 203.43 1.735 11.597 1.761 13.336" fill="none" stroke="#363639" stroke-width=".10833"/>
    <path d="m635.91 205.07v3.399" fill="none" stroke="#363639" stroke-width=".10833"/>
    <path d="m640.82 203.43v3.398" fill="none" stroke="#363639" stroke-width=".10833"/>
    <path d="m654.28 203.43 3.278 18.375" fill="none" stroke="#363639" stroke-width=".10833"/>
    <path d="m657.56 201.79v5.039" fill="none" stroke="#363639" stroke-width=".10833"/>
    <path d="m662.57 201.79v1.641" fill="none" stroke="#363639" stroke-width=".10833"/>
    <path d="m676.03 200.03 1.641 8.442v8.199" fill="none" stroke="#363639" stroke-width=".10833"/>
    <path d="m677.67 200.03 1.637 3.403" fill="none" stroke="#363639" stroke-width=".10833"/>
    <path d="m691.03 195.11 3.375 6.68 1.758 11.598" fill="none" stroke="#363639" stroke-width=".10833"/>
    <path d="m694.41 195.11 1.758 4.918" fill="none" stroke="#363639" stroke-width=".10833"/>
    <path d="m714.42 191.73 1.758 6.657 3.281 8.437" fill="none" stroke="#363639" stroke-width=".10833"/>
    <path d="m716.18 190.09 1.64 5.015" fill="none" stroke="#363639" stroke-width=".10833"/>
    <path d="m726.23 186.81 1.641 3.281" fill="none" stroke="#363639" stroke-width=".10833"/>
    <path d="m732.91 185.18 3.281 4.918 1.735 8.297" fill="none" stroke="#363639" stroke-width=".10833"/>
    <path d="m736.2 183.41 1.735 3.399" fill="none" stroke="#363639" stroke-width=".10833"/>
    <path d="m748.01 176.73 1.64 5.039 3.278 6.68" fill="none" stroke="#363639" stroke-width=".10833"/>
    <path d="m751.29 176.73 1.641 1.641" fill="none" stroke="#363639" stroke-width=".10833"/>
    <path d="m756.3 173.46 3.402 4.918 1.641 8.438" fill="none" stroke="#363639" stroke-width=".10833"/>
    <path d="m759.71 173.46 1.641 4.918" fill="none" stroke="#363639" stroke-width=".10833"/>
    <path d="m774.68 165.04 3.402 6.777 3.375 6.559" fill="none" stroke="#363639" stroke-width=".10833"/>
    <path d="m778.08 163.4 1.641 3.282" fill="none" stroke="#363639" stroke-width=".10833"/>
    <path d="m786.4 156.84 3.375 3.281 1.641 3.277 1.758 6.778" fill="none" stroke="#363639" stroke-width=".10833"/>
    <path d="m788.04 155.08 3.379 3.398" fill="none" stroke="#363639" stroke-width=".10833"/>
    <path d="m798.1 150.07 2.41 3.59 1.207 6.246-0.242 6.778" fill="none" stroke="#363639" stroke-width=".10833"/>
    <path d="m799.83 145.14 3.738 4.921 1.856 3.59 1.086 6.465" fill="none" stroke="#363639" stroke-width=".10833"/>
    <path d="m804.75 141.75 1.762 3.399" fill="none" stroke="#363639" stroke-width=".10833"/>
    <path d="m811.55 135.07 3.808 6.895 0.676 3.715 0.531 6.027" fill="none" stroke="#363639" stroke-width=".10833"/>
    <path d="m813.5 132.77 3.062 5.692" fill="none" stroke="#363639" stroke-width=".10833"/>
    <path d="m814.83 130.05 1.734 3.375" fill="none" stroke="#363639" stroke-width=".10833"/>
    <path d="m819.97 123.49 1.636 3.278 1.641 3.281 1.641 3.375" fill="none" stroke="#363639" stroke-width=".10833"/>
    <path d="m821.6 120.09 1.641 3.402" fill="none" stroke="#363639" stroke-width=".10833"/>
    <path d="m598.29 174.1-1.207 5.594-1.328 8.633" fill="none" stroke="#363639" stroke-width=".10833"/>
    <path d="m608.9 177.84 0.215 7.332-1.758 9.933" fill="none" stroke="#363639" stroke-width=".10833"/>
    <path d="m612.49 178.38v3.398" fill="none" stroke="#363639" stroke-width=".10833"/>
    <path d="m629.35 180.91-0.219 10.828" fill="none" stroke="#363639" stroke-width=".10833"/>
    <path d="m632.41 181.56v4.265" fill="none" stroke="#363639" stroke-width=".10833"/>
    <path d="m645.96 181.77v3.403l1.641 6.558" fill="none" stroke="#363639" stroke-width=".10833"/>
    <path d="m649.24 181.77v3.403" fill="none" stroke="#363639" stroke-width=".10833"/>
    <path d="m659.08 180.91 0.555 6.223 1.301 6.246" fill="none" stroke="#363639" stroke-width=".10833"/>
    <path d="m662.57 180.14 0.774 3.832" fill="none" stroke="#363639" stroke-width=".10833"/>
    <path d="m677.14 179.05 0.531 2.722 1.637 8.321" fill="none" stroke="#363639" stroke-width=".10833"/>
    <path d="m680.2 178.38 0.746 5.039" fill="none" stroke="#363639" stroke-width=".10833"/>
    <path d="m694.41 175.09 1.324 6.465" fill="none" stroke="#363639" stroke-width=".10833"/>
    <path d="m698.79 174.66 1.305 8.754 1.203 3.715" fill="none" stroke="#363639" stroke-width=".10833"/>
    <path d="m707.86 173.46 0.871 3.063" fill="none" stroke="#363639" stroke-width=".10833"/>
    <path d="m719.46 170.18 1.734 4.918 1.641 5.043" fill="none" stroke="#363639" stroke-width=".10833"/>
    <path d="m721.2 168.32 1.641 5.137" fill="none" stroke="#363639" stroke-width=".10833"/>
    <path d="m737.93 163.4 1.64 8.418" fill="none" stroke="#363639" stroke-width=".10833"/>
    <path d="m739.57 161.76 1.641 3.277" fill="none" stroke="#363639" stroke-width=".10833"/>
    <path d="m753.36 156.19 2.942 8.848" fill="none" stroke="#363639" stroke-width=".10833"/>
    <path d="m756.3 155.08 1.98 4.82" fill="none" stroke="#363639" stroke-width=".10833"/>
    <path d="m769.76 148.43 4.918 10.054" fill="none" stroke="#363639" stroke-width=".10833"/>
    <path d="m773.04 146.78 1.637 4.918" fill="none" stroke="#363639" stroke-width=".10833"/>
    <path d="m783.77 140.76 1.856 2.508 2.41 5.16" fill="none" stroke="#363639" stroke-width=".10833"/>
    <path d="m785.63 139.45 3.715 4.367" fill="none" stroke="#363639" stroke-width=".10833"/>
    <path d="m794.82 131.69 3.161 3.497 1.203 4.917" fill="none" stroke="#363639" stroke-width=".10833"/>
    <path d="m796.77 130.27 3.062 3.16" fill="none" stroke="#363639" stroke-width=".10833"/>
    <path d="m803.11 123.49 2.317 3.063 2.726 3.496" fill="none" stroke="#363639" stroke-width=".10833"/>
    <path d="m804.75 121.85 3.402 3.281" fill="none" stroke="#363639" stroke-width=".10833"/>
    <path d="m811 114.18 2.195 2.507 1.641 3.399" fill="none" stroke="#363639" stroke-width=".10833"/>
    <path d="m812.3 111.77 2.535 3.278" fill="none" stroke="#363639" stroke-width=".10833"/>
    <path d="m677.14 77.77 1.734 3.0625" fill="none" stroke="#363639" stroke-width=".10833"/>
    <path d="m679.31 76.781 2.101 2.7265" fill="none" stroke="#363639" stroke-width=".10833"/>
    <path d="m682.71 75.144v1.6368l3.398 3.2812" fill="none" stroke="#363639" stroke-width=".10833"/>
    <path d="m691.03 71.742 1.637 2.8476" fill="none" stroke="#363639" stroke-width=".10833"/>
    <path d="m695.73 69.113 1.86 4.2695" fill="none" stroke="#363639" stroke-width=".10833"/>
    <path d="m699.44 68.367 1.207 5.0156 2.075 3.3985" fill="none" stroke="#363639" stroke-width=".10833"/>
    <path d="m709.5 65.086 1.086 5.2344" fill="none" stroke="#363639" stroke-width=".10833"/>
    <path d="m713.12 64.098 0.653 4.3671" fill="none" stroke="#363639" stroke-width=".10833"/>
    <path d="m718.69 73.383-1.204-5.4492-0.652-4.3906" fill="none" stroke="#363639" stroke-width=".10833"/>
    <path d="m727.88 63.449v3.2774" fill="none" stroke="#363639" stroke-width=".10833"/>
    <path d="m733.44 63.543-0.531 3.1836" fill="none" stroke="#363639" stroke-width=".10833"/>
    <path d="m737.93 63.449-1.301 3.1563-0.434 5.1367" fill="none" stroke="#363639" stroke-width=".10833"/>
    <path d="m749.65 65.086-0.675 3.3789" fill="none" stroke="#363639" stroke-width=".10833"/>
    <path d="m753.36 66.051-0.433 4.0508" fill="none" stroke="#363639" stroke-width=".10833"/>
    <path d="m758.07 66.727-1.761 5.0156v5.0391" fill="none" stroke="#363639" stroke-width=".10833"/>
    <path d="m769.54 70.32-1.516 3.1836-0.339 1.7344-0.653 4.9453" fill="none" stroke="#363639" stroke-width=".10833"/>
    <path d="m771.4 71.742-0.652 3.4961" fill="none" stroke="#363639" stroke-width=".10833"/>
    <path d="m774.68 73.504-0.867 1.7344" fill="none" stroke="#363639" stroke-width=".10833"/>
    <path d="m779.72 75.144-0.871 2.625" fill="none" stroke="#363639" stroke-width=".10833"/>
    <path d="m788.04 80.062v1.6406l-1.637 8.4141" fill="none" stroke="#363639" stroke-width=".10833"/>
    <path d="m791.42 81.703-1.641 5.0391" fill="none" stroke="#363639" stroke-width=".10833"/>
    <path d="m793.71 83.894-0.531 2.8477" fill="none" stroke="#363639" stroke-width=".10833"/>
    <path d="m798.1 86.742-3.715 9.5" fill="none" stroke="#363639" stroke-width=".10833"/>
    <path d="m801.16 89.465-1.328 3.0625" fill="none" stroke="#363639" stroke-width=".10833"/>
    <path d="m803.11 91.758-3.929 10.078" fill="none" stroke="#363639" stroke-width=".10833"/>
    <path d="m806.51 93.398-3.403 5.0391" fill="none" stroke="#363639" stroke-width=".10833"/>
    <path d="m808.15 95.035-1.64 1.7617" fill="none" stroke="#363639" stroke-width=".10833"/>
    <path d="m809.79 96.894-3.156 4.2655-2.41 6.246" fill="none" stroke="#363639" stroke-width=".10833"/>
    <path d="m811.55 100.08-1.641 3.277" fill="none" stroke="#363639" stroke-width=".10833"/>
    <path d="m456.76 151.7 5.015-3.277" fill="none" stroke="#363639" stroke-width=".10833"/>
    <path d="m475.23 128.41-0.531 5.57-2.195 5.258-3.617 4.27-2.075 1.637" fill="none" stroke="#363639" stroke-width=".10833"/>
    <path d="m466.82 128.41 0.555 5.235-1.203 5.253-2.629 4.61" fill="none" stroke="#363639" stroke-width=".10833"/>
    <path d="m527.08 120.09 8.418-5.039 25.051-8.293 8.32-5.043" fill="none" stroke="#363639" stroke-width=".10833"/>
    <path d="m548.86 108.49 11.692-8.414 6.683-8.3202" fill="none" stroke="#363639" stroke-width=".10833"/>
    <path d="m568.87 90.117 3.16-2.6289 1.977-0.7461" fill="none" stroke="#363639" stroke-width=".10833"/>
    <path d="m580.56 108.49-1.641-1.734" fill="none" stroke="#363639" stroke-width=".10833"/>
    <path d="m587.34 103.36-3.281-3.277" fill="none" stroke="#363639" stroke-width=".10833"/>
    <path d="m590.62 90.117h-3.277" fill="none" stroke="#363639" stroke-width=".10833"/>
    <path d="m582.3 95.035-1.738-1.6368" fill="none" stroke="#363639" stroke-width=".10833"/>
    <path d="m577.28 86.742 1.637 1.6406" fill="none" stroke="#363639" stroke-width=".10833"/>
    <path d="m577.28 85.102h3.278" fill="none" stroke="#363639" stroke-width=".10833"/>
    <path d="m431.707,70.1016-.094-3.375 1.422-2.8438 2.723-1.9805 3.16-.3125 1.207.2188" fill="none" stroke="#363639" stroke-width=".10833"/>
    <path d="m448.44 86.742-1.761 10.055 1.761 9.9611" fill="none" stroke="#363639" stroke-width=".10833"/>
    <path d="m438.48 80.062 8.2 16.734" fill="none" stroke="#363639" stroke-width=".10833"/>
    <path d="m301.012,50.207 .554-1.8554 2.844-.9883 1.52-1.207 1.207-1.8555 .336-2.5078" fill="none" stroke="#363639" stroke-width=".10833"/>
    <path d="m307.47 39.91v-1.5157l-0.653-1.8593-1.543-1.543" fill="none" stroke="#363639" stroke-width=".10833"/>
    <path d="m301.01 45.168 1.855-1.2032 1.762-2.1718 0.434-1.8828" fill="none" stroke="#363639" stroke-width=".10833"/>
    <path d="m299.37 38.394 1.324-0.9922" fill="none" stroke="#363639" stroke-width=".10833"/>
    <path d="m299.49 33.352 1.52-0.5274h1.203l1.543 1.2031" fill="none" stroke="#363639" stroke-width=".10833"/>
    <path d="m570.94 70.754 3.063 0.9883" fill="none" stroke="#363639" stroke-width=".10833"/>
    <path d="m572.15 64.531 3.278 0.5546" fill="none" stroke="#363639" stroke-width=".10833"/>
    <path d="m572.68 58.84 3.062 0.6524" fill="none" stroke="#363639" stroke-width=".10833"/>
    <path d="m571.81 53.27 3.933 0.3164" fill="none" stroke="#363639" stroke-width=".10833"/>
    <path d="m577.16 71.863 3.399-0.1211" fill="none" stroke="#363639" stroke-width=".10833"/>
    <path d="m578.59 65.402 3.715-0.3164" fill="none" stroke="#363639" stroke-width=".10833"/>
    <path d="m578.92 60.168 4.488-0.3399" fill="none" stroke="#363639" stroke-width=".10833"/>
    <path d="m578.92 53.586 5.137-0.2187" fill="none" stroke="#363639" stroke-width=".10833"/>
    <path d="m581 48.57 3.063-0.1211" fill="none" stroke="#363639" stroke-width=".10833"/>
    <path d="m582.3 71.742 0.457-3.375" fill="none" stroke="#363639" stroke-width=".10833"/>
    <path d="m584.06 64.195 0.554-3.2812" fill="none" stroke="#363639" stroke-width=".10833"/>
    <path d="m585.14 58.406 0.554-3.3985" fill="none" stroke="#363639" stroke-width=".10833"/>
    <path d="m586.04 53.27-0.34-3.1797" fill="none" stroke="#363639" stroke-width=".10833"/>
    <path d="m568.87 45.074h1.641" fill="none" stroke="#363639" stroke-width=".10833"/>
    <path d="m573.35 44.52 4.464-0.6523" fill="none" stroke="#363639" stroke-width=".10833"/>
    <path d="m583.07 43.867 2.629-0.4336" fill="none" stroke="#363639" stroke-width=".10833"/>
    <path d="m565.59,42.6602 1.734-.5547 .989-.9883 3.281.6758 2.629-.8907 1.203-.871" fill="none" stroke="#363639" stroke-width=".10833"/>
    <path d="m579.91 41.117 2.844-1.0859 1.301-1.6368 1.64 1.6368" fill="none" stroke="#363639" stroke-width=".10833"/>
    <path d="m558.91,41.793 .77-.336 .965-.8711h1.976l1.762-.5546 1.207-1.5196 1.734.3164 1.86-.3164 2.07-.8906 1.762-1.4219" fill="none" stroke="#363639" stroke-width=".10833"/>
    <path d="m575.09,37.957 3.062.3164 1.762-.6523 1.734-1.4219" fill="none" stroke="#363639" stroke-width=".10833"/>
    <path d="m413.33 46.809 3.402-1.6406" fill="none" stroke="#363639" stroke-width=".10833"/>
    <path d="m411.69 38.394-5.011-3.2812-3.403-1.7617-6.679-1.6368h-1.735l-3.281-3.2812" fill="none" stroke="#363639" stroke-width=".10833"/>
    <path d="m418.37 38.394-1.637-1.6406-1.761-3.4023-5.016-1.6368-5.039-1.6406-3.281-1.6406" fill="none" stroke="#363639" stroke-width=".10833"/>
    <path d="m406.68 38.394 1.636-1.6406" fill="none" stroke="#363639" stroke-width=".10833"/>
    <path d="m401.86 35.211 1.52-1.8593" fill="none" stroke="#363639" stroke-width=".10833"/>
    <path d="m396.6 33.352 1.207-0.8672" fill="none" stroke="#363639" stroke-width=".10833"/>
    <path d="m391.58 31.715 1.734-1.4257" fill="none" stroke="#363639" stroke-width=".10833"/>
    <path d="m411.69 38.394 3.282-3.2812" fill="none" stroke="#363639" stroke-width=".10833"/>
    <path d="m406.68 35.113 3.277-3.3985" fill="none" stroke="#363639" stroke-width=".10833"/>
    <path d="m401.52 32.824 2.535-2.8476" fill="none" stroke="#363639" stroke-width=".10833"/>
    <path d="m396.6 31.715 2.41-3.2812" fill="none" stroke="#363639" stroke-width=".10833"/>
    <path d="m414.97 33.352 1.761-1.6368 1.637-1.7382" fill="none" stroke="#363639" stroke-width=".10833"/>
    <path d="m409.96 31.715 3.375-3.2812" fill="none" stroke="#363639" stroke-width=".10833"/>
    <path d="m418.37 29.762-1.637-1.3281" fill="none" stroke="#363639" stroke-width=".10833"/>
    <path d="m388.3 28.434-3.403-3.2813-1.761-3.375" fill="none" stroke="#363639" stroke-width=".10833"/>
    <path d="m391.58 28.434-3.062-2.8438-1.762-3.9335-0.336-0.7696" fill="none" stroke="#363639" stroke-width=".10833"/>
    <path d="m394.52 26.48-2.289-2.9649-0.652-3.4961" fill="none" stroke="#363639" stroke-width=".10833"/>
    <path d="m311.957,29.9766-2.289-.5547-4.945-4.4844-3.496.3359h-2.387l-2.629-1.8554" fill="none" stroke="#363639" stroke-width=".10833"/>
    <path d="m301.13 28.434 1.859-1.6406" fill="none" stroke="#363639" stroke-width=".10833"/>
    <path d="m304.63 25.059 1.637-1.6406" fill="none" stroke="#363639" stroke-width=".10833"/>
    <path d="m302.99 25.059 1.641-1.6406" fill="none" stroke="#363639" stroke-width=".10833"/>
    <path d="m299.8 119.75 5.16-0.867 4.148 0.867 7.211 2.098" fill="none" stroke="#363639" stroke-width=".10833"/>
    <path d="m14.4648,369.551 .6758-.434-.6758-1.519" fill="none" stroke="#363639" stroke-width=".10833"/>
    <path d="m36.8906,390.121-2.9414,1.516-3.1836-.094-2.8476-1.543-1.0821-1.641-3.2812-1.64-3.3984-2.172-2.8477-3.832-1.0859-2.289-1.0821-2.196-3.0625-4.484-3.40232-4.367-1.51953-3.953-.33594-1.641 .1211-3.375 1.51953-1.64 2.84376-1.11 2.4101-.215 1.7383.215 3.8321,1.762 4.7031,2.191 4.0508,1.86 6.3437.746 5.7852,1.207" fill="none" stroke="#363639" stroke-width=".76458"/>
    <path d="m27.0508,388.359-.5547-1.953-.4336-.988-.6523-.871" fill="none" stroke="#363639" stroke-width=".10833"/>
    <path d="m825.656,106.297 .992,6.246 1.954,7.887 .336,8.199-1.329,8.078-3.062,7.762-4.363,6.898-.215.336-7.332,12.902-8.633,11.915-9.961,11.043-11.043,9.742-12.129,8.414-4.605,2.75-24.379,13.89-25.274,12.563-25.922,11.043-26.574,9.406-27.008,7.981-27.464,6.343-2.29.457-20.015,3.282-18.473,5.015-25.054,11.598-11.598,7.98-12.348,6.559-13.238,5.039-1.324.438-19.461,3.277-19.582,1.64h-19.797l-19.555-1.738-10.176-1.543-5.136-2.941-7.332-2.629-7.668-1.109-24.934-7.547-24.379-9.067-23.726-10.609-23.079-12.129-.988-.555-1.207-1.761-4.387-4.27-5.234-2.723-5.812-1.207-15.071-6.773l-6.125-4.149-3.953-4.171-2.726-2.727-4.27-2.41-4.918-.774-4.703.993h-15.215l-13.336,1.636-8.32,5.043-8.414,8.317-15.313,14.203-16.398,17.289-15.094,18.473-9.961,16.203-11.258,15.195-12.468,14.227-13.77,12.898-14.8788,11.816-15.8672,10.372-10.4883,5.906-7.332,2.847-7.7618,1.106-7.8867-.457" fill="none" stroke="#363639" stroke-width=".76458"/>
    <path d="m276.078,146.785-6.898-3.953-6.004-5.234-4.703-6.34-3.399-7.332-.652-2.074l-4.703-10.731-3.278-10.926-.433-3.3981-7.668-8.9688-6.344-9.9609-4.703-10.707-1.422-3.711-4.363-5.5976-.774-2.8438-1.207-1.6406-2.07-.4336-1.305-1.207-1.976-2.8438v-1.9531l-1.641-1.6406v-1.8555l-2.074-1.4219-.336-1.9804-1.301-.7696-4.824-6.9922-4.484-2.8476-3.715-.9883h-1.641l-1.637-1.6406-3.281-6.7735 1.543-3.2812v-1.6406l-1.64-4.918l1.64-1.42189 2.606-.43359 2.843.74609 .774,1.20699 6.992-.31636h1.641l1.636,1.20706 .219-.9883 3.399-1.76173h3.281l1.762,1.76173 2.507,2.9414 .77,1.9766 1.738,3.4023 3.277,3.2773 4.27,2.6055 3.184,3.832 .988,1.8594 10.055,9.9571 6.558,8.4179 16.832,21.6524 2.196,1.5429 1.324,2.293-.215,2.8438 5.785,5.5703 4.27,6.0312 2.074.6485 1.519,1.4218 .555,2.1953-.555,2.0743-.218.3125 1.64,1.7617 7.766,9.9611 6.461,10.824 4.922,11.574 .988,2.535" fill="none" stroke="#363639" stroke-width=".76458"/>
    <path d="m248.078,131.57-1.203,6.559-.531,3.953 .965,3.496 1.976,2.727 5.473,16.519" fill="none" stroke="#363639" stroke-width=".76458"/>
    <path d="m319.6 140.1-1.641 7.211-3.277 6.895-4.582 5.91-3.836 3.277-2.289 2.629-2.532 4.801-0.867 5.375 0.551 5.57" fill="none" stroke="#363639" stroke-width=".76458"/>
    <path d="m289.96 20.887-2.629-3.2812-1.203-4.0508v-0.0938" fill="none" stroke="#363639" stroke-width=".10833"/>
    <path d="m281.12 15.098 1.856 2.414 3.715 2.8438 4.484 1.4218 1.762 1.6407 3.277 1.6406 6.777 5.0156" fill="none" stroke="#363639" stroke-width=".10833"/>
    <path d="m300.02 42.106 2.844-2.1953" fill="none" stroke="#363639" stroke-width=".10833"/>
    <path d="m448.44 80.062-1.304-11.816-0.676-1.9531-1.422-1.2071" fill="none" stroke="#363639" stroke-width=".10833"/>
    <path d="m416.3 50.859 3.375-1.6406" fill="none" stroke="#363639" stroke-width=".10833"/>
    <path d="m419.02 54.91 3.403-1.6407" fill="none" stroke="#363639" stroke-width=".10833"/>
    <path d="m421.43 59.277 3.5-1.6406" fill="none" stroke="#363639" stroke-width=".10833"/>
    <path d="m410.7 43.094 3.402-1.6368" fill="none" stroke="#363639" stroke-width=".10833"/>
    <path d="m429.08 50.305 2.848-2.8438" fill="none" stroke="#363639" stroke-width=".10833"/>
    <path d="m426.69 45.941 2.727-2.8476" fill="none" stroke="#363639" stroke-width=".10833"/>
    <path d="m424.06 41.574 2.847-2.7461" fill="none" stroke="#363639" stroke-width=".10833"/>
    <path d="m421.87 37.957 2.844-2.7461" fill="none" stroke="#363639" stroke-width=".10833"/>
    <path d="m431.49 54.574 2.844-2.8476" fill="none" stroke="#363639" stroke-width=".10833"/>
    <path d="m410.82 25.926h-1.64l-3.278 3.2812" fill="none" stroke="#363639" stroke-width=".10833"/>
    <path d="m532.336,238.758 .098-5.91-.653-17.168-2.195-16.953-3.93-16.735-1.855-11.383-.121-11.574 .242-3.617 .215-.773-.215-2.192 1.18-1.953 1.855-1.328 1.977-.434 6.464-2.726 11.043-6.121 10.274-7.453 9.09-8.633 4.922-7.114 6.339-6.003 5.45-3.618 3.402-1.304 3.398-2.844 2.075-3.8322 .554-4.3671-1.109-4.2696 3.398-21.7734 1.207-2.6289 2.387-5.8828 .895-6.2461-1.11-6.2227-1.304-2.625-1.758-2.9687-2.074-3.2774-2.411-5.9101-.75-2.0742-.988-1.0821-2.629-.9922h-2.074l-2.965-2.0703-24.933,6.9922v5.0391l1.64,3.375h1.637l5.164,3.2812 6.559,8.3203 1.734,5.0391-1.734,11.5742-4.922,11.7188-1.637.7461-6.367,4.0546-5.356,5.254-3.062-.2149-6.125,1.0859-5.906,2.4102-7.981,2.0742-13.121,4.9178-14.973,7.235-8.32,3.808-7.547,5.258-2.844,3.184-3.836,1.64-1.64.313-3.277.121-3.813,1.734-2.965,3.063-2.629,1.328-4.363,3.594-3.063,4.699-2.195,4.269-2.289,1.977-.992,2.848 .555,2.941-7.45,7.016-9.5,10.925-8.105,12.032-7.113,13.457-7.328,17.265-5.668,17.625-2.965,5.668-4.27,4.824-5.472,3.497-2.387.988" fill="none" stroke="#363639" stroke-width=".76458"/>
    <path d="m454.57 142.3 2.196-0.555 6.777-5.039" fill="none" stroke="#363639" stroke-width=".10833"/>
    <path d="m584.06 93.398-1.758-3.2812" fill="none" stroke="#363639" stroke-width=".10833"/>
    <path d="m584.06 88.383-1.758 1.7344 1.758 3.2812-0.434 3.0625-1.855 2.5313-2.848 1.0858h-1.637" fill="none" stroke="#363639" stroke-width=".10833"/>
    <path d="m312.945,163.398 1.426-.335 2.289-1.856 1.301-2.727 2.195-2.41 3.063-1.086 3.281.77 1.543,1.086 6.559,1.64 6.777.434 4.363-.867 4.27,1.086 3.496,2.722 1.324,1.543" fill="none" stroke="#363639" stroke-width=".10833"/>
    <path d="m359.754,160.121 .988,1.203 3.278,2.629 4.148,1.086 1.422.434 1.855-.434 1.547-1.207 .528-1.855-.434-1.856" fill="none" stroke="#363639" stroke-width=".10833"/>
    <path d="m396.6 180.14-1.086-3.184-0.77-4.367-1.738-4.051-2.965-3.156-4.051-1.762-3.808-0.34-3.957-3.156" fill="none" stroke="#363639" stroke-width=".10833"/>
    <path d="m433.35 170.18-13.02 9.742-5.019 2.844-5.133 1.086-5.258-0.434" fill="none" stroke="#363639" stroke-width=".10833"/>
    <path d="m572.242,35.1133-1.734-3.3985-6.582,5.0391-1.641-1.6406-3.375,3.2812h-1.762l-.988.9883-4.461-1.9805-3.617-3.9296-2.41-4.7032-.219-1.9765 5.692,1.9765-.653-2.0703 8.297,1.4219-.531-1.9766 5.668.6485 5.808,2.2929-1.105-2.3867 9.644.6485 .649,4.3671l-1.422,2.3125-2.508,1.1836-2.75-.0976" fill="#dad1ce"/>
    <path d="m572.242,35.1133-1.734-3.3985-6.582,5.0391-1.641-1.6406-3.375,3.2812h-1.762l-.988.9883-4.461-1.9805-3.617-3.9296-2.41-4.7032-.219-1.9765 5.692,1.9765-.653-2.0703 8.297,1.4219-.531-1.9766 5.668.6485 5.808,2.2929-1.105-2.3867 9.644.6485 .649,4.3671l-1.422,2.3125-2.508,1.1836-2.75-.0976z" fill="none" stroke="#363639" stroke-width=".10833"/>
    <path d="m569.73 29.086 0.871 2.6289 1.637 3.3985l1.981 3.3984 4.05 5.668 0.965 2.6289" fill="none" stroke="#363639" stroke-width=".10833"/>
    <path d="m570.05 50.09-4.461-7.1132-5.258-2.3907-0.652-0.5546-1.11-1.5196-3.711-2.4101-2.847-3.4961-0.989-3.836" fill="none" stroke="#363639" stroke-width=".10833"/>
    <path d="m558.91,28.4336v.3359l.988,3.5 2.387,2.8438 1.641,1.6406 1.664,1.6406 6.652,6.7735 1.762,4.9218" fill="none" stroke="#363639" stroke-width=".10833"/>
    <path d="m33.8281,387.707 .5547-1.203v-.988l-.3398-.75-.8672-.676-1.4219-.215-1.0859.457-.5547.965v.336l.4336.871 .7734.769 .9883.34h1.207l.3125.094" fill="#ddf3e9"/>
    <path d="m33.8281,387.707 .5547-1.203v-.988l-.3398-.75-.8672-.676-1.4219-.215-1.0859.457-.5547.965v.336l.4336.871 .7734.769 .9883.34h1.207l.3125.094z" fill="none" stroke="#ddf3e9" stroke-width=".10833"/>
    <path d="m29.125,382.449 .5547,1.547 .4336,1.52 .4336.89 .7734.746 .9883.34h1.207l.9649-.097 1.8789-.676" fill="none" stroke="#363639" stroke-width=".10833"/>
    <path d="m30.1133,385.199 .5547-.988 1.0859-.434 1.4219.219 .8672.649 .3398.773v.988l-.5547,1.207" fill="none" stroke="#363639" stroke-width=".10833"/>
    <path d="m32.1875,382.789 1.4219.219 1.1094.555 1.0859.984 .4336.652" fill="none" stroke="#363639" stroke-width=".10833"/>
    <path d="m508.609,158.48-2.968,35.641-1.977,41.02 .891,5.808-.891,5.789-3.281,6.68" fill="none" stroke="#363639" stroke-width=".76458"/>
    <path d="m548.86 250.14-4.269 4.367-5.258 3.062-2.195 0.868-14.973 3.277" fill="none" stroke="#363639" stroke-width=".10833"/>
    <path d="m503.664,268.512-11.695,4.922-11.91,2.507-12.25.77-12.036-.77-12.031-2.414-10.394-5.015h-3.282l-5.039-1.758" fill="none" stroke="#363639" stroke-width=".10833"/>
    <path d="m207.62 7.5508 5.039 1.7617l0.746 2.3867-0.648 2.4102-1.738 1.8594-2.629-1.9532-1.203-3.0625 0.312-3.0625 0.121-0.33985" fill="#dad1ce"/>
    <path d="m207.62 7.5508 5.039 1.7617l0.746 2.3867-0.648 2.4102-1.738 1.8594-2.629-1.9532-1.203-3.0625 0.312-3.0625 0.121-0.33985z" fill="none" stroke="#363639" stroke-width=".10833"/>
    <path d="m202.7 15.75 1.203-2.2891 0.434-2.7265-2.625-1.2071-2.414 0.09766-2.168-1.4219-0.774-1.0859v4.0508l1.641 3.2812 2.942 1.9531 1.761-0.6523" fill="#dad1ce"/>
    <path d="m202.7 15.75 1.203-2.2891 0.434-2.7265-2.625-1.2071-2.414 0.09766-2.168-1.4219-0.774-1.0859v4.0508l1.641 3.2812 2.942 1.9531 1.761-0.6523z" fill="none" stroke="#363639" stroke-width=".10833"/>
    <path d="m190.883,17.7266-4.367-2.5313-3.399-3.5937-.773-2.53129 8.539.89063 1.758,2.72656-.118,2.6289-.773,2.4102h-.867" fill="#dad1ce"/>
    <path d="m190.883,17.7266-4.367-2.5313-3.399-3.5937-.773-2.53129 8.539.89063 1.758,2.72656-.118,2.6289-.773,2.4102h-.867z" fill="none" stroke="#363639" stroke-width=".10833"/>
    <path d="m178.32,16.4023 3.496,2.3125 4.918,1.3047 5.016-.3398 1.641,8.4414-4.801-.6758-4.485-2.0742-3.398-3.4961-2.074-4.4844-.313-.9883" fill="#dad1ce"/>
    <path d="m178.32,16.4023 3.496,2.3125 4.918,1.3047 5.016-.3398 1.641,8.4414-4.801-.6758-4.485-2.0742-3.398-3.4961-2.074-4.4844-.313-.9883z" fill="none" stroke="#363639" stroke-width=".10833"/>
    <path d="m266.12 85.102-2.605-3.0625-1.11-3.7383 0.34-3.1563" fill="none" stroke="#363639" stroke-width=".10833"/>
    <path d="m269.42 77-0.676 4.7031" fill="none" stroke="#363639" stroke-width=".10833"/>
    <path d="m222.59 55.008v-1.6406l1.64-3.2774-1.64-1.6406" fill="none" stroke="#363639" stroke-width=".10833"/>
    <path d="m219.22 38.394 3.281 3.2774 1.734 3.4961" fill="none" stroke="#363639" stroke-width=".10833"/>
    <path d="m209.16,38.3945 1.301-1.4257 1.859-.6485 1.856.4336" fill="none" stroke="#363639" stroke-width=".10833"/>
    <path d="m215.94 40.031 3.277 5.0429 1.738 5.0156" fill="none" stroke="#363639" stroke-width=".10833"/>
    <path d="m210.9 41.793 1.64-1.7617" fill="none" stroke="#363639" stroke-width=".10833"/>
    <path d="m214.18 48.449v-3.2812" fill="none" stroke="#363639" stroke-width=".10833"/>
    <path d="m219.22 53.367v-1.6406" fill="none" stroke="#363639" stroke-width=".10833"/>
    <path d="m195.8 28.434v-1.6406" fill="none" stroke="#363639" stroke-width=".10833"/>
    <path d="m199.2 30.074 1.637-3.2812" fill="none" stroke="#363639" stroke-width=".10833"/>
    <path d="m195.8 25.059h1.64" fill="none" stroke="#363639" stroke-width=".10833"/>
    <path d="m205.86 31.715-5.015-6.6562-5.039-3.2813-1.641-1.7578h-3.375v-1.6406" fill="none" stroke="#363639" stroke-width=".10833"/>
    <path d="m200.84 25.059 1.64-1.6406" fill="none" stroke="#363639" stroke-width=".10833"/>
    <path d="m195.8 21.777 1.64-1.7578" fill="none" stroke="#363639" stroke-width=".10833"/>
    <path d="m192.52 20.02 1.637-1.6406" fill="none" stroke="#363639" stroke-width=".10833"/>
    <path d="m195.8 16.738 1.64 1.6406" fill="none" stroke="#363639" stroke-width=".10833"/>
    <path d="m215.94 25.059-0.895-3.2813-2.941-2.9648-2.411-3.1602" fill="none" stroke="#363639" stroke-width=".10833"/>
    <path d="m209.16 26.793-3.305-5.0157-3.375-1.7578-1.64-3.2812" fill="none" stroke="#363639" stroke-width=".10833"/>
    <path d="m208.48 25.707 2.411-0.6484" fill="none" stroke="#363639" stroke-width=".10833"/>
    <path d="m206.41 21.777 2.75-1.7578" fill="none" stroke="#363639" stroke-width=".10833"/>
    <path d="m203.13 20.02 3.277-2.2929" fill="none" stroke="#363639" stroke-width=".10833"/>
   </g>
  </g>
 </g>
</svg>
