<?xml version="1.0" encoding="UTF-8"?>
<svg viewBox="0 0 250 80" xmlns="http://www.w3.org/2000/svg">
 <defs>
  <filter id="c">
   <feGaussianBlur stdDeviation="1.2947"/>
  </filter>
  <linearGradient id="b" x1="-1244.1" x2="1663.2" y1="6761" y2="6920.9" gradientTransform="matrix(-.05186 .00316 -.02224 -.03852 280.92 1267.7)" gradientUnits="userSpaceOnUse">
   <stop stop-color="#fb8b00" offset="0"/>
   <stop stop-color="#980101" offset="1"/>
  </linearGradient>
  <linearGradient id="a" x1="49.138" x2="155.2" y1="997.83" y2="1003.4" gradientTransform="matrix(1 0 0 -1 0 2006.9)" gradientUnits="userSpaceOnUse">
   <stop stop-color="#f30" offset="0"/>
   <stop stop-color="#ff0" offset="1"/>
  </linearGradient>
 </defs>
 <g transform="translate(1.1985 -957.98)" filter="url(#c)" stroke="#fee205" stroke-width=".17734">
  <path d="m214.63 999.83c-8.7002 0.65398-15.09 4.3109-21.878 7.359-9.6518 2.55-22.517-0.4468-34.786-4.5131-9.202-2.1484-22.751-3.073-22.544 5.5836 6.9561 8.5175 13.498 0.9271 17.579-1.455 6.7679-3.5516 18.331 2.1426 27.495 3.5821 4.3171 1.7122 13.333 0.3721 12.686-0.4635-5.8011 6.6771-20.526 0.1762-30.447 0.7128-4.8806-1.1668-16.645 3.2291-7.1457 7.8048 9.2335-1.168 1.0982-8.3257 18.528-4.5821-11.856 0.7231-7.5122 4.1944-9.1849 6.5755-5.0509 2.9865-12.814 3.7578-21.24-0.7589-10.003-4.4468-20.791-11.135-30.145-10.695-11.343-3.4822-4.7151 12.891 3.7066 8.7208 5.4722-1.735 13.659-1.4062 21.08 2.7568-10.263-1.9866-15.929 3.5194-25.239 3.1083-7.4489-0.9414-16.033-6.9446-22.812-5.5706-6.0893-0.9316-13.773 5.2936-2.5981 9.2892 7.8079 0.7232 12.529-4.3876 21.552-1.5473 7.4029 1.7394-6.936-0.3923-7.5292 2.469-3.5968 3.9846-7.0659 8.2405-14.24 8.5468-7.4216 1.4979-17.277 0.4047-26.413-5.9786-44.537-37.894-41.903-17.772-22.095-46.511 4.1884-6.0769 11.536-10.245 20.043-12.176 6.5032-1.4762 19.337 7.6506 22.607 0.69873 5.0334-1.2-2.7811 8.1728-6.6978 7.858-5.424 1.3682-21.153-3.3351-14.527 6.9153 7.8447 5.9638 16.551 3.4932 20.261-0.16888 9.4705-3.0497 10.029-15.233 22.637-14.751 14.72-0.57247 26.543 7.9217 31.849 2.9171-2.1381 7.3997-22.827-1.1668-28.298 4.0482 4.7963 11.833 25-3.8636 43.229-1.5166-17.821 0.027-14.095 18.085-41.661 12.515-6.3792-1.2021-16.893-0.54932-11.483 5.8729 9.4416 4.3205 13.967 0.8473 18.904-2.5637 4.5078-3.1147 14.278-0.44592 18.564-4.3919 26.804-13.547 26.29-4.1721 44.378 0.13693-19.902-5.2897-16.933 4.0983-26.19 1.7648-10.398-2.621-11.012 7.6269 0.71427 6.9184 17.995-5.2485 13.839-13.466 40.978-2.0068 3.3595 1.4915 11.476 0.1497 4.9994 1.385-6.7884 2.2294-18.464-2.5032-24.173 2.4095 1.7616 5.7873 19.155 2.6274 23.36 1.0542"/>
  <path d="m211.63 1008.2c-8.7002-0.654-15.09-4.3109-21.878-7.359-9.6519-2.5499-22.517 0.4469-34.786 4.5131-9.202 2.1484-22.751 3.0729-22.544-5.5835 6.9561-8.5176 13.498-0.9272 17.579 1.4551 6.7679 3.5514 18.331-2.1428 27.495-3.5822 4.3171-1.7123 13.333-0.3721 12.686 0.4634-5.8011-6.6771-20.526-0.1761-30.447-0.7128-4.8806 1.1669-16.645-3.2291-7.1457-7.8048 9.2335 1.1681 1.0982 8.3258 18.528 4.5823-11.857-0.7233-7.5122-4.1946-9.1849-6.5757-5.0509-2.9865-12.814-3.7578-21.24 0.759-10.003 4.4466-20.791 11.135-30.146 10.695-11.343 3.4819-4.7148-12.891 3.7068-8.721 5.472 1.7351 13.659 1.4062 21.08-2.7568-10.263 1.9867-15.93-3.5193-25.239-3.1081-7.4491 0.9412-16.033 6.9444-22.812 5.5705-6.0895 0.9316-13.774-5.2937-2.5983-9.2893 7.8079-0.7231 12.529 4.3877 21.552 1.5474 7.4025-1.7395-6.9361 0.3921-7.5293-2.469-3.5967-3.9847-7.0657-8.2406-14.24-8.5469-7.4219-1.4977-17.277-0.4046-26.413 5.9787-44.537 37.894-41.903 17.772-22.095 46.511 4.1884 6.0768 11.536 10.245 20.043 12.176 6.5031 1.4763 19.337-7.6506 22.607-0.6987 5.0333 1.1999-2.781-8.1729-6.6979-7.8579-5.4238-1.3685-21.153 3.335-14.527-6.9154 7.845-5.9637 16.551-3.4931 20.262 0.1689 9.4703 3.0498 10.029 15.233 22.636 14.751 14.72 0.5724 26.543-7.9217 31.849-2.9172-2.138-7.3997-22.826 1.1668-28.298-4.048 4.7964-11.833 25 3.8636 43.229 1.5163-17.821-0.027-14.095-18.085-41.661-12.515-6.379 1.2019-16.892 0.5493-11.483-5.8729 9.4417-4.3204 13.967-0.8473 18.904 2.5636 4.5077 3.1148 14.278 0.4461 18.564 4.392 26.804 13.547 26.29 4.172 44.378-0.1369-19.902 5.2897-16.933-4.0982-26.19-1.7648-10.398 2.6209-11.012-7.6268 0.71426-6.9183 17.995 5.2485 13.839 13.466 40.978 2.0067 3.3595-1.4915 11.476-0.1497 4.9994-1.3849-6.7884-2.2295-18.464 2.5031-24.173-2.4095 1.7616-5.7874 19.155-2.6275 23.36-1.0543"/>
 </g>
 <g transform="translate(3.1141e-8 -960.98)" stroke="#fee205" stroke-width=".17734">
  <path d="m214.63 999.83c-8.7002 0.65398-15.09 4.3109-21.878 7.359-9.6518 2.55-22.517-0.4468-34.786-4.5131-9.202-2.1484-22.751-3.073-22.544 5.5836 6.9561 8.5175 13.498 0.9271 17.579-1.455 6.7679-3.5516 18.331 2.1426 27.495 3.5821 4.3171 1.7122 13.333 0.3721 12.686-0.4635-5.8011 6.6771-20.526 0.1762-30.447 0.7128-4.8806-1.1668-16.645 3.2291-7.1457 7.8048 9.2335-1.168 1.0982-8.3257 18.528-4.5821-11.856 0.7231-7.5122 4.1944-9.1849 6.5755-5.0509 2.9865-12.814 3.7578-21.24-0.7589-10.003-4.4468-20.791-11.135-30.145-10.695-11.343-3.4822-4.7151 12.891 3.7066 8.7208 5.4722-1.735 13.659-1.4062 21.08 2.7568-10.263-1.9866-15.929 3.5194-25.239 3.1083-7.4489-0.9414-16.033-6.9446-22.812-5.5706-6.0893-0.9316-13.773 5.2936-2.5981 9.2892 7.8079 0.7232 12.529-4.3876 21.552-1.5473 7.4029 1.7394-6.936-0.3923-7.5292 2.469-3.5968 3.9846-7.0659 8.2405-14.24 8.5468-7.4216 1.4979-17.277 0.4047-26.413-5.9786-44.537-37.894-41.903-17.772-22.095-46.511 4.1884-6.0769 11.536-10.245 20.043-12.176 6.5032-1.4762 19.337 7.6506 22.607 0.69873 5.0334-1.2-2.7811 8.1728-6.6978 7.858-5.424 1.3682-21.153-3.3351-14.527 6.9153 7.8447 5.9638 16.551 3.4932 20.261-0.16888 9.4705-3.0497 10.029-15.233 22.637-14.751 14.72-0.57247 26.543 7.9217 31.849 2.9171-2.1381 7.3997-22.827-1.1668-28.298 4.0482 4.7963 11.833 25-3.8636 43.229-1.5166-17.821 0.027-14.095 18.085-41.661 12.515-6.3792-1.2021-16.893-0.54932-11.483 5.8729 9.4416 4.3205 13.967 0.8473 18.904-2.5637 4.5078-3.1147 14.278-0.44592 18.564-4.3919 26.804-13.547 26.29-4.1721 44.378 0.13693-19.902-5.2897-16.933 4.0983-26.19 1.7648-10.398-2.621-11.012 7.6269 0.71427 6.9184 17.995-5.2485 13.839-13.466 40.978-2.0068 3.3595 1.4915 11.476 0.1497 4.9994 1.385-6.7884 2.2294-18.464-2.5032-24.173 2.4095 1.7616 5.7873 19.155 2.6274 23.36 1.0542" fill="url(#b)"/>
  <path d="m211.63 1008.2c-8.7002-0.654-15.09-4.3109-21.878-7.359-9.6519-2.5499-22.517 0.4469-34.786 4.5131-9.202 2.1484-22.751 3.0729-22.544-5.5835 6.9561-8.5176 13.498-0.9272 17.579 1.4551 6.7679 3.5514 18.331-2.1428 27.495-3.5822 4.3171-1.7123 13.333-0.3721 12.686 0.4634-5.8011-6.6771-20.526-0.1761-30.447-0.7128-4.8806 1.1669-16.645-3.2291-7.1457-7.8048 9.2335 1.1681 1.0982 8.3258 18.528 4.5823-11.857-0.7233-7.5122-4.1946-9.1849-6.5757-5.0509-2.9865-12.814-3.7578-21.24 0.759-10.003 4.4466-20.791 11.135-30.146 10.695-11.343 3.4819-4.7148-12.891 3.7068-8.721 5.472 1.7351 13.659 1.4062 21.08-2.7568-10.263 1.9867-15.93-3.5193-25.239-3.1081-7.4491 0.9412-16.033 6.9444-22.812 5.5705-6.0895 0.9316-13.774-5.2937-2.5983-9.2893 7.8079-0.7231 12.529 4.3877 21.552 1.5474 7.4025-1.7395-6.9361 0.3921-7.5293-2.469-3.5967-3.9847-7.0657-8.2406-14.24-8.5469-7.4219-1.4977-17.277-0.4046-26.413 5.9787-44.537 37.894-41.903 17.772-22.095 46.511 4.1884 6.0768 11.536 10.245 20.043 12.176 6.5031 1.4763 19.337-7.6506 22.607-0.6987 5.0333 1.1999-2.781-8.1729-6.6979-7.8579-5.4238-1.3685-21.153 3.335-14.527-6.9154 7.845-5.9637 16.551-3.4931 20.262 0.1689 9.4703 3.0498 10.029 15.233 22.636 14.751 14.72 0.5724 26.543-7.9217 31.849-2.9172-2.138-7.3997-22.826 1.1668-28.298-4.048 4.7964-11.833 25 3.8636 43.229 1.5163-17.821-0.027-14.095-18.085-41.661-12.515-6.379 1.2019-16.892 0.5493-11.483-5.8729 9.4417-4.3204 13.967-0.8473 18.904 2.5636 4.5077 3.1148 14.278 0.4461 18.564 4.392 26.804 13.547 26.29 4.172 44.378-0.1369-19.902 5.2897-16.933-4.0982-26.19-1.7648-10.398 2.6209-11.012-7.6268 0.71426-6.9183 17.995 5.2485 13.839 13.466 40.978 2.0067 3.3595-1.4915 11.476-0.1497 4.9994-1.3849-6.7884-2.2295-18.464 2.5031-24.173-2.4095 1.7616-5.7874 19.155-2.6275 23.36-1.0543" fill="url(#a)"/>
 </g>
</svg>
