<?xml version="1.0" encoding="UTF-8"?>
<svg viewBox="0 0 173.18698 252.96576" xmlns="http://www.w3.org/2000/svg">
 <defs>
  <filter id="j">
   <feGaussianBlur stdDeviation=".277"/>
  </filter>
  <filter id="c"/>
  <filter id="d" x="-.1777" y="-.2089" width="1.3553" height="1.4177">
   <feGaussianBlur stdDeviation=".813"/>
  </filter>
  <filter id="i" x="-4.662" y="-.1295" width="10.324" height="1.259">
   <feGaussianBlur stdDeviation=".491"/>
  </filter>
  <filter id="h" x="-.3882" y="-.1318" width="1.7764" height="1.2636">
   <feGaussianBlur stdDeviation=".784"/>
  </filter>
  <filter id="g" x="-.2526" y="-.1129" width="1.5051" height="1.2257">
   <feGaussianBlur stdDeviation=".837"/>
  </filter>
  <filter id="b" x="-.9092" y="-.1406" width="2.8185" height="1.2813">
   <feGaussianBlur stdDeviation="1.099"/>
  </filter>
  <filter id="a" x="-.3578" y="-.1129" width="1.7156" height="1.2257">
   <feGaussianBlur stdDeviation=".652"/>
  </filter>
  <linearGradient id="f" x1="290.48" x2="359.29" y1="564.41" y2="588.79" gradientUnits="userSpaceOnUse">
   <stop stop-color="#fff" offset="0"/>
   <stop stop-color="#ff0" stop-opacity="0" offset="1"/>
  </linearGradient>
  <radialGradient id="e" cx="356.72" cy="660.33" r="47.003" gradientTransform="matrix(.42664 -.0114 .01017 .38077 198.21 393.12)" gradientUnits="userSpaceOnUse">
   <stop stop-color="#fff" offset="0"/>
   <stop stop-color="#ffd000" stop-opacity="0" offset="1"/>
  </radialGradient>
 </defs>
 <g transform="translate(-270.72 -498.3)">
  <path d="m381.03 618.97c-8.9463-1.0297-15.628-20.785-12.212-37.17 1.3739-6.5908 6.2328-15.412 17.565-14.468 0.0921 7e-3 0.1814 3e-3 0.2742 0.0123 2e-4 1e-5 -2e-3 0.0162-1e-3 0.0162 11.282 1.4291 14.188 11.065 14.164 17.798-0.0598 16.737-10.68 34.677-19.645 33.827l-0.1443-0.0152z" fill="#fff"/>
  <path transform="matrix(.9714 .23746 -.23522 .96224 205.35 -56.762)" d="m334.15 606.64c0 7.3952-3.5715 13.39-7.9771 13.39s-7.9771-5.995-7.9771-13.39 3.5715-13.39 7.9771-13.39c4.321 0 7.8564 5.7749 7.9741 13.025"/>
  <path transform="matrix(.97367 .2122 -.14061 .84663 147.37 22.166)" d="m328.3 595.79c0 2.6577-1.3454 4.8122-3.005 4.8122s-3.005-2.1545-3.005-4.8122 1.3454-4.8122 3.005-4.8122c1.6277 0 2.9595 2.0754 3.0038 4.6811" fill="#fff"/>
  <path d="m330.19 621.49c-8.9048 1.3422-20.513-15.983-21.494-32.691-0.3948-6.7209 1.9919-16.505 13.178-18.553l0.268-0.0597 3e-3 0.0161c11.264-1.5665 16.585 6.9764 18.32 13.482 4.3129 16.172-1.2543 36.263-10.13 37.784l-0.1432 0.0231z" fill="#fff"/>
  <path transform="matrix(.97164 -.23645 .23422 .96248 -127.33 100.22)" d="m334.15 606.64c0 7.3952-3.5715 13.39-7.9771 13.39s-7.9771-5.995-7.9771-13.39 3.5715-13.39 7.9771-13.39c4.321 0 7.8564 5.7749 7.9741 13.025"/>
  <path transform="matrix(.96203 -.25992 .26498 .81629 -142.47 196.98)" d="m328.3 595.79c0 2.6577-1.3454 4.8122-3.005 4.8122s-3.005-2.1545-3.005-4.8122 1.3454-4.8122 3.005-4.8122c1.6277 0 2.9595 2.0754 3.0038 4.6811" fill="#fff"/>
  <path d="m350.03 499.56c-3.8742 4.8941-8.1749 9.0442-8.8438 16.156-4.8018-3.3234-9.1831-4.8866-21.469 0.625 8.2934-0.9527 15.936-1.31 19.938 4.1875-12.753 0.305-17.301 0.1593-26.5 9.8438 5.9532-3.1889 11.371-4.2968 16.656-4.8125-18.91 12.607-25.609 15.825-33.594 38.656-4.7556 14.898-3.3355 30.269-5.0632 45.206-0.3657 3.1617-1.9587 6.6997-4.227 8.9324-4.0251 3.9617-11.571 6.8391-15.408 11.345 5.1964-1.8159 5.5026-2.6595 8.3586-2.6083-4.7537 5.5171-5.2871 9.4927-2.5357 15.781 0.5229-6.4981 3.1794-11.981 5.9643-11.964 0.2738 3.3672-0.1774 6.1909 2.067 9.558-0.6908-3.1146-0.1661-6.2291 1.5-9.3438 1.9623 5.9585 1.0317 12.257 9.8438 17.438-2.2193-4.0406-3.5811-8.0844-3.7813-12.125 6.247 9.9952 11.477 10.192 23.25 13.875 6.3383 1.5975 12.157 3.8634 16.156 8.4688l0.625 1.3438c-6.8033 2.1758-23.984 1.7398-26.296 3.6511-9.7844 8.7769 3.7911 32.596 9.859 32.693l-5.1875 12.5c23.879 32.49 75.423 24.316 92.875-1.25 2.8297-4.1453 2.5357-30.188 3.375-30.188-8.4883-7.4989-16.317-20.196-26.125-20.125 1.6129-1.325 3.3326-2.6921 4.6563-3.5625 10.989-7.0493 25.414-15.526 39.844-11.906-0.1509-10.396-2.2963-10.258-4.4063-14.656 7.4368 2.284 9.711 7.3525 12.312 14.188-0.2319-6.2326-0.9335-11.098-5.0625-16.156 7.1556 0.7156 9.2719 4.0978 14.594 9.3438-3.7091-8.7153-5.629-11.381-15.344-14.375 4.5133 0.3928 7.7833-1.8908 11.344-3.5625-6.3593 0.7481-11.824-2.0893-16.406-6.8125-5.4468-6.7901-5.8502-16.41-8.3438-24.75-2.8542-9.5463-3.6512-19.742-7.5625-28.906-1.9581-4.5877-7.8438-12.75-7.8438-12.75 3.33 0.2329 6.1959 2.3196 9.2188 3.7813-6.9265-7.2735-15.297-15.22-28.656-18.688 3.8024-0.9816 8.6728 0.1507 14.156 2.5313-7.2974-6.3302-17.369-9.8634-28.281-10.344 1.7128-2.8768 9.0553-3.9634 20.188-3.8125-11.824-2.1828-15.568-4.7372-26.25 1.2813-0.904-5.5901 1.4632-8.9188 2.25-13.375-4.8885 1.9404-10.155 5.8572-11.594 14.375-4.9687-6.4497-2.0594-13.076-0.25-19.688zm34.312 68.719c0.6584-0.0144 1.323 4e-3 2.0313 0.0625 0.0921 7e-3 0.1884-9e-3 0.2813 0 2e-4 1e-5 -1e-3 0.0312 0 0.0312 11.282 1.4291 14.18 11.049 14.156 17.781-0.0362 10.147-3.9578 20.742-9.038 27.323-8.0349 0.6261-7.7993 0.4196-16.448 3.0945-5.7779-6.5137-9.1461-21.134-6.5139-33.761 1.288-6.1789 5.6546-14.316 15.531-14.531zm-59.656 2.25c9.8718-0.3284 14.655 7.5577 16.281 13.656 3.4588 12.969 0.5667 28.458-5.2925 34.868-8.8742-2.8065-8.4879-2.5677-16.668-3.83-5.1131-6.3428-9.252-16.231-9.8208-25.913-0.3948-6.7209 2.0016-16.514 13.188-18.562 0.0907-0.0176 0.1892-0.047 0.2813-0.0625 2e-4 -2e-5 0 0.0313 0 0.0312 0.704-0.0979 1.3731-0.1656 2.0313-0.1875z" fill="#ff0" stroke="#000"/>
  <path d="m306.07 702.18c-20.066-1.6269-26.798-3.0092-34.85-11.869 9.0265-2.0289 15.026 0.9432 23.234 4.2931-5.6528-4.2559-11.016-8.5679-12.374-14.142 11.126 0.0652 15.111 5.6514 21.466 12.374-1.6762-5.1349-2.7754-7.3657-2.2729-12.501 3.4505 3.0727 8.1873 7.7065 9.9753 11.112l11.743 9.9753z" fill="#ff0" stroke="#000" stroke-linecap="round" stroke-linejoin="round"/>
  <path d="m396.99 613.83c-7.5335-0.9989-15.49 0.7781-23.36 3.4825" fill="none" stroke="#000" stroke-linecap="round" stroke-linejoin="round" stroke-width="1.4"/>
  <path d="m312.77 616.23c6.6291-0.9437 16.327 0.3514 23.239 3.1676" fill="none" stroke="#000" stroke-linecap="round" stroke-linejoin="round" stroke-width="1.4"/>
  <path d="m313.39 627.36c-2.4615-0.94-5.6957-4.8472-0.3571-5.3571 2.6445-0.2526 8.536 0.9434 11.964 0.7143 11.369-1.6394 15.858-9.4342 26.508-11.681 3.917-0.8909 9.8942-0.1697 13.135 0.7883 5.6681 1.6755 10.896 6.402 16.997 7.1898 5.894 0.7611 14.732-3.0193 17.646-2.547 3.8151-0.8453 4.9394 2.2267 4.1071 3.9286-2.3598 4.8255-10.658 3.9092-19.968 9.1853-9.2198 5.2254-19.429 16.668-26.193 16.35-8.9591-0.421-13.71-7.8986-21.722-12.52-6.1652-3.5561-15.609-4.2194-22.117-6.0512z" fill="#ffd000" stroke="#000" stroke-width=".5"/>
  <path d="m393.72 556.3c-4.7249-6.7236-9.861-9.0341-16.328-6.6369l1.1681 2.0924c7.4919-1.2483 9.042 0.5853 15.16 4.5444z" stroke="#000" stroke-linecap="round" stroke-linejoin="round"/>
  <path d="m368.9731,621.8355c.2454-.1448.778-.1083 1.0154-.2659 .274-.182.5213-.517.5077-.8461-.0106-.2771-.2335-.557-.4835-.677-.262-.1258-.5991-.0559-.8704.0483-.2995.1152-.5559.3484-.7494.6044-.9928,1.3135-1.9341,4.5451-1.9341,4.5451s1.2358-2.6546 2.5143-3.4089z" stroke="#000" stroke-width=".1915"/>
  <path d="m343.9824,621.8355c-.2454-.1448-.778-.1083-1.0154-.2659-.274-.182-.5213-.517-.5077-.8461 .0106-.2771.2335-.557.4835-.677 .262-.1258.5991-.0559.8704.0483 .2995.1152.5559.3484.7494.6044 .9928,1.3135 1.9341,4.5451 1.9341,4.5451s-1.2358-2.6546-2.5143-3.4089z" stroke="#000" stroke-width=".1915"/>
  <path d="m400.93 619.06c-14.903 5.3171-18.189 7.5226-28.427 18.294" fill="none" stroke="#000" stroke-width=".4"/>
  <path d="m397.95 617.9c2.3261 0.1398 4.1662 0.6797 2.5 4.1071" fill="none" stroke="#000" stroke-width=".4"/>
  <path d="m313.01 626.68c-1.691-1.71-1.5167-3.1488 0.7576-4.2931" fill="none" stroke="#000" stroke-width=".4"/>
  <path d="m312.07 623.82c14.254 4.7217 17.979 1.7363 31.275 15.311" fill="none" stroke="#000" stroke-width=".4"/>
  <path d="m413.93 605.58c1.989 7.6625 2.0994 8.1198 7.8571 11.071" fill="none" stroke="#000" stroke-linecap="round" stroke-linejoin="round"/>
  <path d="m292.67 609.95c-1.0441-29.177 3.6683-48.329 12.259-61.581 6.3049-9.726 14.582-15.924 24.794-22.338 21.964-12.977 56.442 3.485 23.618 58.753-2.1354 3.1551-7.0953 13.313-10.473 10.149-0.3654-8.2094-2.2221-14.831-5.2308-18.881-6.9521-9.3572-19.332-7.9239-25.55 0.2065-2.7912 3.6499-3.937 8.5487-3.4903 14.601 0.2732 3.7018 2.2444 10.171 4.1095 14.535 1.7527 5.7333 1.1156 9.737-9.5956 13.533-3.1932 1.1317-15.694 2.5762-17.152 2.6042-1.4458 0.0278 1.5578-0.8973 4.6396-5.6948 1.2505-1.9467 2.1396-3.9904 2.0717-5.8875z" fill="url(#f)"/>
  <path d="m309.64 566.11c3.4126-9.1872 8.6258-13.404 16.786-12.589l-0.7143 2.7679c-8.9936 0.8205-10.225 3.4049-16.071 9.8214z" stroke="#000" stroke-linecap="round" stroke-linejoin="round"/>
  <path d="m330.89 547.36c1.1331-3.8209 3.1821-5.7377 6.0714-8.2143-1.5365 4.2998-1.7476 8.8648-2.1429 13.393 1.3183-5.3178 4.0838-8.1471 7.8571-11.786-2.0629 4.925-4.6939 9.8361-4.2857 14.821 1.0939-1.6327 2.0341-2.359 2.9464-2.5893-1.4705 3.9419-1.5868 8.0531-1.1607 12.232 0.8083-3.0996 1.8124-5.8859 3.2143-8.0357 0.3585 2.4449 0.2682 5.0767 1.9643 6.9643 2.7294-4.489 3.4582-8.9382 4.4643-13.393 0.1552 4.4761-0.1273 9.0715 1.25 13.214 1.6474-3.4832 2.7557-7.3514 3.5714-11.429 1.2614 2.4645 2.6225 4.8792 2.5 8.0357 1.5992-4.0698 2.2601-7.952 2.6786-11.786 4.4977 4.1177 3.5397 9.5848 3.8546 15.359 3.7424-9.9172 3.932-10.837 1.1454-20.538" fill="none" stroke="#000" stroke-linecap="round" stroke-linejoin="round"/>
  <path d="m313.39 627.36c-2.4615-0.94-5.6957-4.8472-0.3571-5.3571 2.6445-0.2526 8.536 0.9434 11.964 0.7143 11.369-1.6394 15.858-9.4342 26.508-11.681 3.917-0.8909 9.8942-0.1697 13.135 0.7883 5.6681 1.6755 10.896 6.402 16.997 7.1898 5.894 0.7611 14.732-3.0193 17.646-2.547 3.8151-0.8453 4.9394 2.2267 4.1071 3.9286-2.3598 4.8255-10.658 3.9092-19.968 9.1853-9.2198 5.2254-19.429 16.668-26.193 16.35-8.9591-0.421-13.71-7.8986-21.722-12.52-6.1652-3.5561-15.609-4.2194-22.117-6.0512z" fill="url(#e)" stroke="#000" stroke-width=".5"/>
  <path d="m421.11 626.2c3.7845 1.628 7.142 2.2293 11.617 11.112" fill="none" filter="url(#d)" stroke="#000" stroke-opacity=".76" stroke-width=".6"/>
  <path d="m428.43 624.56c3.667 1.6666 8.0686-0.3077 13.006 7.7024" fill="none" filter="url(#d)" stroke="#000" stroke-opacity=".738" stroke-width=".6"/>
  <path d="m281.58 626.58c-5.7435 4.9094-5.3535 8.7657-4.672 14.268" fill="none" filter="url(#h)" stroke="#000" stroke-opacity=".729" stroke-width=".7"/>
  <path d="m287.43 629.69c1.0501 9.6891 4.0335 14.174 8.6692 17.982" fill="none" filter="url(#g)" stroke="#000" stroke-opacity=".742" stroke-width=".7"/>
  <path d="m283.82 630.36 0.7883 8.5557" fill="none" filter="url(#i)" stroke="#000" stroke-opacity=".516" stroke-width=".7"/>
  <path d="m348.57 501.29c-3.0107 9.876-2.968 10.226 1.0408 18.876" fill="none" filter="url(#b)" stroke="#000" stroke-opacity=".824" stroke-width=".7"/>
  <path d="m380.23 516.38c-8.246-1.0342-14.841 1.3581-17.016 5.1129" fill="none" filter="url(#b)" stroke="#000" stroke-opacity=".882" stroke-width=".5"/>
  <path d="m361.17 505.27c-1.4929 3.626-3.4678 7.3178-2.4947 13.826" fill="none" filter="url(#b)" stroke="#000" stroke-opacity=".837" stroke-width=".6"/>
  <path d="m392.11 530.08c-6.7308-3.6858-9.9409-4.0345-14.01-2.4262" fill="none" filter="url(#b)" stroke="#000" stroke-opacity=".973" stroke-width=".5"/>
  <path d="m340.65 519.93c-1.4603-3.3556-13.412-6.4991-18.087-4.7085" fill="none" filter="url(#b)" stroke="#000" stroke-width=".5"/>
  <path d="m404.76 544.57c-7.3532-5.4985-21.27-14.356-24.516-13.994" fill="none" filter="url(#b)" stroke="#000" stroke-opacity=".882" stroke-width=".5"/>
  <path d="m340.12 521.53c-8.9603-0.677-18.591 1.1795-24.158 6.3629" fill="none" filter="url(#b)" stroke="#000" stroke-width=".5"/>
  <path d="m363.92 562.14c0.2132-7.0087 0.4532-10.044-3.7565-13.739" fill="none" filter="url(#a)" stroke="#000" stroke-width=".6"/>
  <path d="m357.02 559.58c-0.2288-4.7359-0.0519-4.6776-2.3676-7.6778" fill="none" filter="url(#a)" stroke="#000" stroke-width=".6"/>
  <path d="m340.48 562.17c0.6551-6.3774 0.1375-4.0462 1.7362-9.1299" fill="none" filter="url(#a)" stroke="#000" stroke-width=".6"/>
  <path d="m338.97 553.84c0.9708-5.1778 2.4104-8.4657 3.9459-12.981" fill="none" filter="url(#a)" stroke="#000" stroke-width=".6"/>
  <path d="m335.56 548.66c0.8445-5.2409 0.832-6.1297 1.6099-9.3824" fill="none" filter="url(#a)" stroke="#000" stroke-width=".6"/>
  <path d="m350.9 563.18c-0.2288-6.9456-0.6201-8.0869-0.9155-12.476" fill="none" filter="url(#a)" stroke="#000" stroke-width=".6"/>
  <path d="m345.28 563.56c-1.2389-2.905-0.8095-2.3416-1.5468-6.5414" fill="none" filter="url(#a)" stroke="#000" stroke-width=".6"/>
  <path d="m310.87 741.36c4.1062-12.78 20.96-17.984 36.113-26.138-9.8768 9.4609-20.985 19.021-25.885 30.936-2.4023 5.841-14.325 7.9528-10.228-4.7982z" fill="#fc0" stroke="#fc0"/>
  <path d="m296.67 732.21c10.528-13.838 29.438-13.604 41.353-19.887-7.0296 4.7086-17.223 10.563-24.949 16.527-4.1604 3.2115-6.7134 5.7546-9.4909 9.3264s-12.494 2.2889-6.9132-5.9662z" fill="#fc0" stroke="#fc0"/>
  <path d="m282.27 724.69c10.528-13.838 40.107-8.932 51.392-8.46-22.432 2.9879-37.188 7.1289-44.478 14.426-3.1977 3.201-12.494 2.2889-6.9132-5.9662z" fill="#fc0" stroke="#fc0"/>
  <path d="m403.53 736.44c-4.0431-10.317-23.738-11.419-38.891-19.572 9.8768 9.4609 21.424 14.271 28.158 25.254 3.3493 5.4622 15.62 6.7877 10.733-5.6821z" fill="#fc0" stroke="#fc0"/>
  <path d="m424.74 719.64c-4.1444-9.2654-39.143-9.5245-54.169-2.0203 13.034 0.7483 33.924 0.7602 44.573 7.5761 5.3966 3.4542 13.723 3.6698 9.5965-5.5558z" fill="#fc0" stroke="#fc0"/>
  <path d="m310.6148,742.2254c3.5223.0958 7.4068.7709 11.0474,2.6415-2.357-2.548-6.2517-5.7633-9.3222-6.884 3.3325-.8156 8.1072,1.2329 11.3207,3.0362-1.3287-3.777-4.3615-6.2405-7.232-7.7641 3.8802-.3595 7.0377,1.5941 10.3568,3.03-.9419-2.57-4.7143-5.1044-6.6573-6.6733 3.3741-.5238 7.1577.7603 9.5808,2.9705-.2034-3.396-2.1131-5.0856-4.564-6.2341 2.3531-.7871 5.7345,1.0676 8.2052,2.1609 .4012-2.306-1.9-4.1312-2.8904-5.0456" fill="none" stroke="#907714" stroke-linecap="round" stroke-linejoin="round" stroke-width=".6"/>
  <path d="m303.26 738.54c-3.2062-1.0987-5.8187-2.7167-7.1263-5.4766 3.133 2.4452 6.4996 2.3212 9.8649 2.2114-2.5048-1.9623-3.9205-4.7026-4.7624-7.8527 2.7436 2.1055 6.2169 2.7515 9.9062 2.9655-1.6936-1.9847-2.7116-4.4199-2.2692-7.8286 1.766 3.0252 3.8184 5.1341 6.7674 4.3738-2.4865-1.7838-2.6959-3.8523-3.3808-5.8613 1.5398 2.115 3.4179 3.5534 5.6719 4.24-2.0031-1.936-1.334-3.8719-1.3293-5.8079 1.1666 1.8637 2.8856 2.8068 4.7612 3.4888-0.747-1.6168-0.9395-3.2336-0.0241-4.8504" fill="none" stroke="#907714" stroke-linecap="round" stroke-linejoin="round" stroke-width=".6"/>
  <path d="m303.5 738.34c-3.2062-1.0987-5.8187-2.7167-7.1263-5.4766 3.133 2.4452 6.4996 2.3212 9.8649 2.2114-2.5048-1.9623-3.9205-4.7026-4.7624-7.8527 2.7436 2.1055 6.2169 2.7515 9.9062 2.9655-1.6936-1.9847-2.7116-4.4199-2.2692-7.8286 1.766 3.0252 3.8184 5.1341 6.7674 4.3738-2.4865-1.7838-2.6959-3.8523-3.3808-5.8613 1.5398 2.115 3.4179 3.5534 5.6719 4.24-2.0031-1.936-1.334-3.8719-1.3293-5.8079 1.1666 1.8637 2.8856 2.8068 4.7612 3.4888-0.747-1.6168-0.9395-3.2336-0.0241-4.8504" fill="none" filter="url(#c)" stroke="#000" stroke-linecap="round" stroke-linejoin="round" stroke-width=".1"/>
  <path d="m289.3113,730.5375c-4.9694-.1003-6.0314-3.0798-6.538-6.4684 2.4056,2.4082 5.9772,3.1839 9.5444,3.966-3.0938-1.7082-5.1336-4.0752-6.3232-6.9736 2.7364,1.2673 6.0237,2.6633 9.2214,5.1458-3.8152-2.8941-2.7731-5.7883-2.2265-8.6824 1.3558,2.4876 1.9569,5.2447 6.4762,6.6024-1.608-2.6819-1.0746-5.3639-.8597-8.0458 1.3942,2.1888 2.1803,4.5126 5.5906,6.2533-1.1671-2.0205-1.1784-4.4262-.9306-6.9184 1.3026,1.8261 2.3147,3.6522 5.6766,5.4783-1.2526-1.9545-.2944-3.9089.7885-5.8634 .5161,1.5119 2.1317,3.0239 4.5515,4.5358-.844-1.5088-.4249-3.0176.3869-4.5265" fill="none" stroke="#907714" stroke-linecap="round" stroke-linejoin="round" stroke-width=".6"/>
  <path d="m396.55 745.28c4.4666-1.4981 5.7634-5.0111 7.1164-8.4743-2.8374 2.8556-5.8455 5.481-10.505 5.8518 3.2113-2.9774 5.551-6.5941 6.2426-11.419-2.8434 2.8015-5.5541 5.8242-9.3688 7.0068 3.0329-2.2918 3.6755-6.1772 4.7936-9.7456-2.1218 3.0484-4.3105 5.9366-7.2599 6.9987 2.4154-2.3503 4.2157-4.9642 5.4526-7.8196-2.5087 1.6227-5.0234 3.2032-7.3684 5.9719 1.4324-2.6098 2.512-5.2665 1.45-8.2089-1.6463 2.4125-4.805 2.8084-8.4593 2.5435 2.8217-0.8797 1.9233-2.9431 1.1416-4.9693" fill="none" stroke="#907714" stroke-linecap="round" stroke-linejoin="round" stroke-width=".6"/>
  <path d="m420.0501,727.207c2.5398-.0697 4.2295-1.8398 5.7711-3.9059-2.9547-.007-5.5948,1.4016-8.2195,2.88 3.4843-3.0275 4.5034-6.0772 4.9085-9.1324-1.8757,3.3476-4.1672,5.5516-6.7155,7.0497 1.7547-2.987 2.5294-5.9739 3.1187-8.9608-1.8992,2.0207-3.7253,4.1877-4.9608,7.5357 .4977-2.7663 1.3856-5.5325 2.725-8.2988-2.5867,2.1636-5.0615,4.4838-8.4574,5.5144 .8875-2.3512 1.3638-4.7024.578-7.0536-1.2625,1.6615-2.7538,3.3802-5.8951,5.5114 .1558-2.0611.5807-4.1606-.8599-5.9936l-5.3878,4.872" fill="none" stroke="#907714" stroke-linecap="round" stroke-linejoin="round" stroke-width=".6"/>
  <path d="m373.97 716.51c19.124-2.1371 38.938 1.0018 44.866 9.9553" fill="none" filter="url(#j)" stroke="#000" stroke-width=".4"/>
  <path d="m419.8765,726.986c2.5398-.0697 4.2295-1.8398 5.7711-3.9059-2.9547-.007-5.5948,1.4016-8.2195,2.88 3.4843-3.0275 4.5034-6.0772 4.9085-9.1324-1.8757,3.3476-4.1672,5.5516-6.7155,7.0497 1.7547-2.987 2.5294-5.9739 3.1187-8.9608-1.8992,2.0207-3.7253,4.1877-4.9608,7.5357 .4977-2.7663 1.3856-5.5325 2.725-8.2988-2.5867,2.1636-5.0615,4.4838-8.4574,5.5144 .8875-2.3512 1.3638-4.7024.578-7.0536-1.2625,1.6615-2.7538,3.3802-5.8951,5.5114 .1558-2.0611.5807-4.1606-.8599-5.9936l-5.3878,4.872" fill="none" filter="url(#c)" stroke="#000" stroke-linecap="round" stroke-linejoin="round" stroke-width=".1"/>
  <path d="m418.3 727.47c-4.594-10.622-32.718-12.784-47.225-9.7227 11.392 5.1677 30.894 4.2957 37.628 15.278 3.3493 5.4622 14.241 5.1829 9.5965-5.5558z" fill="#fc0" stroke="#fc0"/>
  <path d="m310.7367,741.9452c3.5223.0958 7.4068.7709 11.0474,2.6415-2.357-2.548-6.2517-5.7633-9.3222-6.884 3.3325-.8156 8.1072,1.2329 11.3207,3.0362-1.3287-3.777-4.3615-6.2405-7.232-7.7641 3.8802-.3595 7.0377,1.5941 10.3568,3.03-.9419-2.57-4.7143-5.1044-6.6573-6.6733 3.3741-.5238 7.1577.7603 9.5808,2.9705-.2034-3.396-2.1131-5.0856-4.564-6.2341 2.3531-.7871 5.7345,1.0676 8.2052,2.1609 .4012-2.306-1.9-4.1312-2.8904-5.0456" fill="none" filter="url(#c)" stroke="#000" stroke-linecap="round" stroke-linejoin="round" stroke-width=".1"/>
  <path d="m412.7436,736.1485c3.415-2.742 4.0509-5.9116 5.4241-8.9677-2.5438,2.5559-4.2325,5.6249-8.3025,7.2651 1.7772-3.8271 2.1086-7.5509 1.5317-11.2099-1.7233,2.1218-2.6515,4.2436-5.5805,6.3655 .6795-2.6546 1.2557-5.3092 1.1048-7.9639-1.6795,1.6719-3.2915,3.3574-5.7855,4.8664 .5179-2.0812.7075-4.1623.0523-6.2435-.8526,1.4821-2.5613,2.9642-4.4117,4.4464 .2346-2.0796-.3398-3.7546-1.1063-5.3337-.4397,1.6916-1.4233,3.0724-3.0413,4.0907 .7576-1.4371 1.4998-2.8741 1.2699-4.3112-1.1736,1.9366-2.6483,2.8194-4.1532,3.5964" fill="none" stroke="#907714" stroke-linecap="round" stroke-linejoin="round" stroke-width=".6"/>
  <path d="m289.5323,730.3796c-4.9694-.1003-6.0314-3.0798-6.538-6.4684 2.4056,2.4082 5.9772,3.1839 9.5444,3.966-3.0938-1.7082-5.1336-4.0752-6.3232-6.9736 2.7364,1.2673 6.0237,2.6633 9.2214,5.1458-3.8152-2.8941-2.7731-5.7883-2.2265-8.6824 1.3558,2.4876 1.9569,5.2447 6.4762,6.6024-1.608-2.6819-1.0746-5.3639-.8597-8.0458 1.3942,2.1888 2.1803,4.5126 5.5906,6.2533-1.1671-2.0205-1.1784-4.4262-.9306-6.9184 1.3026,1.8261 2.3147,3.6522 5.6766,5.4783-1.2526-1.9545-.2944-3.9089.7885-5.8634 .5161,1.5119 2.1317,3.0239 4.5515,4.5358-.844-1.5088-.4249-3.0176.3869-4.5265" fill="none" filter="url(#c)" stroke="#000" stroke-linecap="round" stroke-linejoin="round" stroke-width=".1"/>
  <path d="m396.31 745.13c4.4666-1.4981 5.7634-5.0111 7.1164-8.4743-2.8374 2.8556-5.8455 5.481-10.505 5.8518 3.2113-2.9774 5.551-6.5941 6.2426-11.419-2.8434 2.8015-5.5541 5.8242-9.3688 7.0068 3.0329-2.2918 3.6755-6.1772 4.7936-9.7456-2.1218 3.0484-4.3105 5.9366-7.2599 6.9987 2.4154-2.3503 4.2157-4.9642 5.4526-7.8196-2.5087 1.6227-5.0234 3.2032-7.3684 5.9719 1.4324-2.6098 2.512-5.2665 1.45-8.2089-1.6463 2.4125-4.805 2.8084-8.4593 2.5435 2.8217-0.8797 1.9233-2.9431 1.1416-4.9693" fill="none" filter="url(#c)" stroke="#000" stroke-linecap="round" stroke-linejoin="round" stroke-width=".1"/>
  <path d="m412.4311,736.0815c3.415-2.742 4.0509-5.9116 5.4241-8.9677-2.5438,2.5559-4.2325,5.6249-8.3025,7.2651 1.7772-3.8271 2.1086-7.5509 1.5317-11.2099-1.7233,2.1218-2.6515,4.2436-5.5805,6.3655 .6795-2.6546 1.2557-5.3092 1.1048-7.9639-1.6795,1.6719-3.2915,3.3574-5.7855,4.8664 .5179-2.0812.7075-4.1623.0523-6.2435-.8526,1.4821-2.5613,2.9642-4.4117,4.4464 .2346-2.0796-.3398-3.7546-1.1063-5.3337-.4397,1.6916-1.4233,3.0724-3.0413,4.0907 .7576-1.4371 1.4998-2.8741 1.2699-4.3112-1.1736,1.9366-2.6483,2.8194-4.1532,3.5964" fill="none" filter="url(#c)" stroke="#000" stroke-linecap="round" stroke-linejoin="round" stroke-width=".1"/>
  <path d="m398.63 655.43c3.9075 1.2893 5.7081 3.4385 6.6179 5.9806 2.0301 6.8384-1.6591 16.651-3.2532 17.368-2.8542 1.2834-0.1414-4.5566-2.5473-8.9917-2.474 11.138-11.789 14.223-14.866 13.177-3.713-1.2619 5.7533-8.3137 5.6089-13.905-6.5072 3.1189-6.3178 3.9039-11.34 6.3693-3.1976 1.5699-8.0118 3.2717-8.9564 0.5002-1.3461-6.0053 11.643-9.4877 17.372-14.454 3.1963-2.9805 4.5972-6.179 11.363-6.0445z" fill="#ff0" stroke="#000" stroke-linecap="round" stroke-linejoin="round"/>
  <path d="m299.66 673.94c4.8986 10.304 15.796 8.2857 16.036 5.8192 0.3303-3.3992-1.1357-0.0448-5.69-6.2828 8.0648-0.5532 3.8794-0.0147 9.7588-0.9949 3.5442-0.5909 7.6788-0.5659 7.9807-3.4783 0.2359-2.4763-10.881-3.2269-14.43-5.8403 11.547 0.4028 18.302-4.4563 18.373-5.2156-4.534-0.7279-20.282 2.0743-25.666 1.9518-7.005-0.5558-8.1326 8.1772-6.3621 14.041z" fill="#ff0" stroke="#000" stroke-linecap="round" stroke-linejoin="round"/>
 </g>
</svg>
