<?xml version="1.0" encoding="UTF-8"?>
<!DOCTYPE svg  PUBLIC '-//W3C//DTD SVG 1.1//EN'  'http://www.w3.org/Graphics/SVG/1.1/DTD/svg11.dtd'>
<svg enable-background="new 0 0 101 123.85" version="1.1" viewBox="0 0 101 123.85" xml:space="preserve" xmlns="http://www.w3.org/2000/svg" xmlns:xlink="http://www.w3.org/1999/xlink">
<symbol id="ag" viewBox="-0.016 -32.114 85.027 32.139">
			<linearGradient id="x" x1="15459" x2="15479" y1="682.96" y2="682.96" gradientTransform="matrix(.0923 .9957 -.9957 .0923 -704.71 -15487)" gradientUnits="userSpaceOnUse">
			<stop stop-color="#B3CACC" offset="0"/>
			<stop stop-color="#B3CACC" stop-opacity="0" offset="1"/>
		</linearGradient>
		<path d="m81.6-13.1c0.7-2.066 1.5-4.533 2.4-7.4 0.4-0.833 0.7-2.133 0.9-3.9 0.233-2.033 0.1-3.233-0.4-3.6-0.6-0.467-2.25-0.867-4.95-1.2-4.767-0.566-7.7-0.95-8.8-1.15-5.033-0.9-9.233-1.45-12.6-1.65-2.967-0.167-6.617-0.15-10.95 0.05-3.4 0.167-6.45 0.567-9.15 1.2-1.4 0.333-3.066 0.85-5 1.55-1.833 0.7-4.2 1.217-7.1 1.55-4.434 0.4-8.483 0.8-12.15 1.2-5.767 0.633-9.417 1.133-10.95 1.5-2.2 0.534-3.133 1.35-2.8 2.45 1.633 4.933 4.6 9.917 8.9 14.95 4.833 5.7 8.95 8.183 12.35 7.45 1.733-0.367 3.733-1.6 6-3.7 2.133-2 4.184-3.133 6.15-3.4 3.767-0.5 9.383-1.55 16.85-3.15 6.633-1.133 12.284-1.267 16.95-0.4 0.967 0.2 2.783 1.067 5.45 2.6 2.1 1.233 3.95 1.683 5.55 1.35 0.9-0.2 2.017-2.3 3.35-6.3z" clip-rule="evenodd" fill="url(#x)" fill-rule="evenodd"/>
</symbol>
<symbol id="ah" viewBox="-0.01 -10.67 101.01 10.622">
		<path d="m86.75-3.35c6.267 0.2 11.017-0.383 14.25-1.75-0.267-1.1-2.283-1.917-6.05-2.45-4.5-0.4-7.534-0.717-9.1-0.95-6.567-1-11.267-1.633-14.1-1.9-3.667-0.3-7.717-0.35-12.15-0.15-4.5 0.167-7.883 0.417-10.15 0.75s-5.117 0.966-8.55 1.9c-2.633 0.7-4.467 1.133-5.5 1.3-1.4 0.233-5.117 0.633-11.15 1.2-0.533 0.033-2.417 0.1-5.65 0.2-2.5 0.034-4.883 0.25-7.15 0.65-3.567 0.533-6.117 0.933-7.65 1.2-2.667 0.5-3.933 0.983-3.8 1.45 0.167 0.566 1.8 0.917 4.9 1.05 2.934 0.133 6.017 0.033 9.25-0.3 2.434-0.267 5.967-0.1 10.6 0.5 4.7 0.566 8.283 0.733 10.75 0.5 3.267-0.3 7.65-0.983 13.15-2.05 6.467-1.267 10.85-2.05 13.15-2.35 3.233-0.467 7.4-0.45 12.5 0.05 7.6 0.733 11.75 1.117 12.45 1.15z" clip-rule="evenodd" fill="#757D7D" fill-rule="evenodd"/>
</symbol>
		<use transform="matrix(1 0 0 -1 0 113.2)" x="-0.01" y="-10.67" width="101.01" height="10.622" enable-background="new" opacity=".4688" xlink:href="#ah"/>
		<linearGradient id="y" x1="25.152" x2="109.7" y1="50.806" y2="50.806" gradientTransform="matrix(.9884 .1517 -.1517 .9884 .00021887 .00020918)" gradientUnits="userSpaceOnUse">
		<stop stop-color="#12C4C4" offset="0"/>
		<stop stop-color="#12BEC3" offset=".0902"/>
		<stop stop-color="#12ACC0" offset=".2157"/>
		<stop stop-color="#1290BC" offset=".3608"/>
		<stop stop-color="#1269B6" offset=".5137"/>
		<stop stop-color="#1241B0" offset=".6471"/>
		<stop stop-color="#134AAD" offset=".7333"/>
		<stop stop-color="#1661A4" offset=".8706"/>
		<stop stop-color="#1A7D99" offset="1"/>
	</linearGradient>
	<path d="m84.2 47.25c1.233-4.833 2.55-8.767 3.95-11.8 0.699 2.433 0.949 5.783 0.75 10.05-0.301 6.2-0.434 9.667-0.4 10.4 0.066 1.833 0.217 4.567 0.45 8.2 0.166 3.301 0.217 6.034 0.149 8.2-0.033 1.601-0.35 4.134-0.949 7.601-0.534 3.267-0.801 5.8-0.801 7.6 0 2.2 0.301 4.583 0.9 7.15 0.767 3.3 1.25 5.767 1.45 7.399 0.133 1.101 0.899 4.617 2.3 10.55 0.934 4.034 1.083 6.267 0.45 6.7-0.601 0.467-2.25 0.867-4.95 1.2-4.767 0.566-7.7 0.95-8.8 1.15-5.033 0.899-9.233 1.449-12.601 1.649-2.966 0.167-6.616 0.15-10.949-0.05-3.4-0.167-6.45-0.566-9.15-1.2-1.4-0.333-3.067-0.85-5-1.55-1.833-0.7-4.2-1.217-7.1-1.55-4.433-0.4-8.483-0.8-12.15-1.2-5.767-0.634-9.417-1.134-10.95-1.5-2.2-0.533-3.133-1.35-2.8-2.45 1.2-3.6 2.633-7.533 4.3-11.8 3.333-8.5 6.233-14.384 8.7-17.65 1.067-1.3 2-2.517 2.8-3.649 1.5-2.033 2.917-4.2 4.25-6.5 3.9-7.066 6.867-12.434 8.9-16.1 3.7-6.6 7.15-12.233 10.35-16.9 2.767-4 6.967-8.9 12.601-14.7 5.166-5.267 8.3-8.883 9.399-10.85 1.7-3 3.767-6.233 6.2-9.7 2.333-3.3 3.917-5.284 4.75-5.95-1.066 4.7-1.75 7.433-2.05 8.2-1.434 3.6-3.334 7.267-5.7 11-1.3 2.167-2.4 5.017-3.3 8.55-0.2 0.933-0.8 3.967-1.8 9.1-0.101 0.467-0.65 3.217-1.65 8.25-0.7 3.4-1.167 6.15-1.4 8.25-0.133 1.5-0.116 4.15 0.051 7.95 0.133 3.233-0.017 5.884-0.45 7.95-0.367 1.732-0.95 5.716-1.75 11.949-0.667 4.967-1.45 8.9-2.35 11.8-1 3.233-0.517 4.15 1.45 2.75 1.8-1.267 3.184-2.816 4.15-4.65 0.833-1.566 2.416-5.3 4.75-11.199 1.866-4.634 3.75-8.233 5.649-10.801 2.101-2.833 3.867-6.35 5.301-10.55 0.734-2.2 1.75-5.967 3.05-11.3z" clip-rule="evenodd" fill="url(#y)" fill-rule="evenodd"/>
		<use transform="matrix(1 0 0 -1 7.9502 91.3)" x="-0.016" y="-32.114" width="85.027" height="32.139" enable-background="new" opacity=".3984" xlink:href="#ag"/>
		<linearGradient id="z" x1="-129.22" x2="-109.74" y1="7.7202" y2="7.7202" gradientTransform="matrix(-.204 -.979 .979 -.204 .00012544 -.00070474)" gradientUnits="userSpaceOnUse">
		<stop stop-color="#87D6D4" offset="0"/>
		<stop stop-color="#87D6D4" stop-opacity="0" offset="1"/>
	</linearGradient>
	<path d="m42.85 120.4c-1.833-0.534-3.3-0.95-4.4-1.25-1.934-0.467-3.9-0.784-5.9-0.95-4.633-0.367-8.117-0.667-10.45-0.9-4.267-0.434-5.833-0.783-4.7-1.05 2.533-1.967 5.367-3.866 8.5-5.7 6.3-3.666 10.983-5.2 14.05-4.6 3.066 0.6 5.316 3.35 6.75 8.25 0.7 2.467 1.1 4.866 1.2 7.2-1.3-0.13-2.983-0.47-5.05-1z" clip-rule="evenodd" fill="url(#z)" fill-rule="evenodd"/>
		<linearGradient id="aa" x1="-91.805" x2="-70.075" y1="10.294" y2="10.294" gradientTransform="matrix(-.2036 -.979 .979 -.2036 -.00013927 .00044394)" gradientUnits="userSpaceOnUse">
		<stop stop-color="#87D6D4" offset="0"/>
		<stop stop-color="#87D6D4" stop-opacity="0" offset="1"/>
	</linearGradient>
	<path d="m19 89.15c0.133-0.767 1.483-3.067 4.05-6.9 1.934-2.934 3.934-5.816 6-8.65l5.3-7.35-0.7 2.5c-0.633 2.434-1.383 5.6-2.25 9.5-0.867 3.934-3.2 6.934-7 9-1.867 1.033-3.667 1.667-5.4 1.9z" clip-rule="evenodd" fill="url(#aa)" fill-rule="evenodd"/>
		<linearGradient id="ab" x1="-140.48" x2="-106.72" y1="55.785" y2="55.785" gradientTransform="matrix(-.2037 -.979 .979 -.2037 .00027123 -.00041658)" gradientUnits="userSpaceOnUse">
		<stop stop-color="#87D6D4" offset="0"/>
		<stop stop-color="#87D6D4" stop-opacity="0" offset="1"/>
	</linearGradient>
	<path d="m73.9 112.25c1.867-6.9 3.9-11.65 6.1-14.25 2.533-2.934 4.316-4.25 5.35-3.95 0.9 0.267 1.667 1.983 2.301 5.15 0.8 3.899 2.267 10.083 4.399 18.55l-0.55 0.7c-0.934 0.533-2.8 0.983-5.6 1.35l-14.15 2.05c0.5-2.93 1.217-6.13 2.15-9.6z" clip-rule="evenodd" fill="url(#ab)" fill-rule="evenodd"/>
		<linearGradient id="ac" x1="-134.49" x2="-123.99" y1="34.892" y2="34.892" gradientTransform="matrix(-.2048 -.9788 .9788 -.2048 -1.1772e-5 -.00035739)" gradientUnits="userSpaceOnUse">
		<stop stop-color="#87D6D4" offset="0"/>
		<stop stop-color="#87D6D4" stop-opacity="0" offset="1"/>
	</linearGradient>
	<path d="m57.5 122.65c0.3-1.067 0.75-2.101 1.35-3.101 1.134-1.967 2.384-2.767 3.75-2.399 1.367 0.366 1.967 1.416 1.801 3.149-0.067 0.867-0.267 1.684-0.601 2.45l-6.3-0.1z" clip-rule="evenodd" fill="url(#ac)" fill-rule="evenodd"/>
		<linearGradient id="ad" x1="-86.117" x2="-47.353" y1="30.573" y2="30.573" gradientTransform="matrix(-.2038 -.979 .979 -.2038 -.00012407 .00088826)" gradientUnits="userSpaceOnUse">
		<stop stop-color="#87D6D4" offset="0"/>
		<stop stop-color="#87D6D4" stop-opacity="0" offset="1"/>
	</linearGradient>
	<path d="m49.35 41.2c1.867 0 3.133 2.133 3.8 6.4 0.733 4.767 0.149 10-1.75 15.7-1.767 5.267-4.601 9.45-8.5 12.55-2.767 2.2-4.933 3.301-6.5 3.301-0.867 0-1.333-1.717-1.4-5.15-0.1-3.767 0.467-7.833 1.7-12.2 1.1-3.9 3.533-8.5 7.3-13.8 1.9-2.668 3.683-4.934 5.35-6.801z" clip-rule="evenodd" fill="url(#ad)" fill-rule="evenodd"/>
		<linearGradient id="ae" x1="-93.092" x2="-87.625" y1="12.324" y2="12.324" gradientTransform="matrix(-.2058 -.9786 .9786 -.2058 -.00017884 -.0004459)" gradientUnits="userSpaceOnUse">
		<stop stop-color="#87D6D4" offset="0"/>
		<stop stop-color="#87D6D4" stop-opacity="0" offset="1"/>
	</linearGradient>
	<path d="m27.85 86.5c0.533-0.767 1.15-1.467 1.85-2.1 1.367-1.233 2.417-1.417 3.15-0.551 1.033 1.167 0.6 2.534-1.3 4.101-1.8 1.467-3.033 0.984-3.7-1.45z" clip-rule="evenodd" fill="url(#ae)" fill-rule="evenodd"/>
		<linearGradient id="af" x1="-68.975" x2="-34.374" y1="54.936" y2="54.936" gradientTransform="matrix(-.2038 -.979 .979 -.2038 6.2555e-5 .00038853)" gradientUnits="userSpaceOnUse">
		<stop stop-color="#87D6D4" offset="0"/>
		<stop stop-color="#87D6D4" stop-opacity="0" offset="1"/>
	</linearGradient>
	<path d="m69.1 23.5c-0.8 2.767-1.583 6.4-2.35 10.9-0.3 1.8-0.9 4.533-1.8 8.2-0.733 3.033-1.217 5.517-1.45 7.45-0.134 1.167-0.25 2.934-0.35 5.3-0.034 0.8-0.217 1.083-0.551 0.85-0.933-0.6-2-2.167-3.199-4.7-1.667-3.5-2.367-7.133-2.101-10.9 0.267-3.7 2.316-7.65 6.15-11.85 1.901-2.133 3.784-3.883 5.651-5.25z" clip-rule="evenodd" fill="url(#af)" fill-rule="evenodd"/>
		<linearGradient id="r" x1="-33.931" x2="-20.83" y1="68.095" y2="68.095" gradientTransform="matrix(-.2042 -.9789 .9789 -.2042 5.5343e-5 -.00095618)" gradientUnits="userSpaceOnUse">
		<stop stop-color="#87D6D4" offset="0"/>
		<stop stop-color="#87D6D4" stop-opacity="0" offset="1"/>
	</linearGradient>
	<path d="m76.15 6.45c-0.2 1.767-0.667 3.65-1.4 5.65-1.467 4.033-3.55 6.667-6.25 7.9-0.1-0.233-0.083-0.667 0.05-1.3 0.3-1.233 1.066-2.767 2.3-4.6 1.966-2.933 3.733-5.483 5.3-7.65z" clip-rule="evenodd" fill="url(#r)" fill-rule="evenodd"/>
		<linearGradient id="s" x1="-97.162" x2="-73.284" y1="70.182" y2="70.182" gradientTransform="matrix(-.2042 -.9789 .9789 -.2042 4.5747e-5 .00022978)" gradientUnits="userSpaceOnUse">
		<stop stop-color="#87D6D4" offset="0"/>
		<stop stop-color="#87D6D4" stop-opacity="0" offset="1"/>
	</linearGradient>
	<path d="m87.35 58.6l0.25 4.4c0.2 3.2 0.417 5.45 0.65 6.75 0.366 2.134 0.017 4.983-1.05 8.55s-2 3.267-2.8-0.899c-0.733-3.9-0.467-8.2 0.8-12.9l2.15-5.901z" clip-rule="evenodd" fill="url(#s)" fill-rule="evenodd"/>
		<linearGradient id="t" x1="-107.76" x2="-79.643" y1="59.096" y2="59.096" gradientTransform="matrix(-.2036 -.979 .979 -.2036 -.0001334 .00067285)" gradientUnits="userSpaceOnUse">
		<stop stop-color="#87D6D4" offset="0"/>
		<stop stop-color="#87D6D4" stop-opacity="0" offset="1"/>
	</linearGradient>
	<path d="m81.05 70.85c1.033 3.233 1.367 6.684 1 10.351-0.434 4.399-1.484 7.799-3.15 10.199-1.634 2.399-3.034 2.633-4.2 0.699-3.101-5.033-3.7-10.033-1.8-15 1.733-4.433 3.899-7.767 6.5-10l1.65 3.751z" clip-rule="evenodd" fill="url(#t)" fill-rule="evenodd"/>
		<linearGradient id="u" x1="-103.72" x2="-89.955" y1="22.205" y2="22.205" gradientTransform="matrix(-.7485 -.6631 .6631 -.7485 .00042057 .00032282)" gradientUnits="userSpaceOnUse">
		<stop stop-color="#87D6D4" offset="0"/>
		<stop stop-color="#87D6D4" stop-opacity="0" offset="1"/>
	</linearGradient>
	<path d="m87.65 38.85l0.25 4.6c0.1 3.5 0.017 6.283-0.25 8.35-0.434 1.034-0.983 1.833-1.65 2.4-0.866 0.733-1.5 0.517-1.9-0.65-0.366-1.1 0.117-3.883 1.45-8.35l2.1-6.35z" clip-rule="evenodd" fill="url(#u)" fill-rule="evenodd"/>
		<linearGradient id="v" x1="-123.45" x2="-70.335" y1="38.549" y2="38.549" gradientTransform="matrix(-.2038 -.979 .979 -.2038 -.00010195 .00085029)" gradientUnits="userSpaceOnUse">
		<stop stop-color="#87D6D4" offset="0"/>
		<stop stop-color="#87D6D4" stop-opacity="0" offset="1"/>
	</linearGradient>
	<path d="m62.4 63.4c1-0.5 1.533-0.601 1.6-0.301 0.066 0.301 0.066 1.25 0 2.851 0.1 1.233-0.083 2.8-0.55 4.7-0.266 1.133-0.75 2.95-1.45 5.45-0.2 0.9-0.517 3.051-0.95 6.45-0.366 3.101-0.899 5.8-1.6 8.101 0 0.033-1.15 4.416-3.45 13.149-1.533 5.867-2.533 9.066-3 9.601-0.8 0.933-1.934-2.101-3.4-9.101-1.633-7.533-2.133-14.45-1.5-20.75 0.566-6.033 2.733-10.967 6.5-14.8 1.867-1.9 4.466-3.684 7.8-5.35z" clip-rule="evenodd" fill="url(#v)" fill-rule="evenodd"/>
		<linearGradient id="w" x1="-114.84" x2="-95.486" y1="22.304" y2="22.304" gradientTransform="matrix(-.2041 -.979 .979 -.2041 -1.6779e-5 .00062197)" gradientUnits="userSpaceOnUse">
		<stop stop-color="#87D6D4" offset="0"/>
		<stop stop-color="#87D6D4" stop-opacity="0" offset="1"/>
	</linearGradient>
	<path d="m42.8 92.8c0.233-0.8 0.467-1.5 0.7-2.1 0.5-1.134 0.783-1.084 0.85 0.149 0.133 1.967 1.05 7.267 2.75 15.9-0.1 0.233-0.333 0.3-0.7 0.2-0.767-0.167-1.85-1.017-3.25-2.55-1.6-1.801-2.4-3.934-2.4-6.4 0-2.333 0.683-4.066 2.05-5.2z" clip-rule="evenodd" fill="url(#w)" fill-rule="evenodd"/>
</svg>
