<?xml version="1.0" encoding="UTF-8"?>
<svg viewBox="0 0 282.32748 289.02753" xmlns="http://www.w3.org/2000/svg">
 <g transform="translate(-243.96 -328.66)">
  <path d="m244.46 331.37s74.325-2.2106 140.79-2.2097c66.502 9.4e-4 140.54 2.2097 140.54 2.2097v232.08c-29.787 3.0387-57.976 8.7428-90.332 7.5h-100.31c-31.966 0.5394-62.526-1.3832-90.689-7.5v-232.08z" fill="#eeeeec" stroke="#000"/>
  <path transform="matrix(.94643 0 0 .94643 27.382 34.537)" d="m468.71 548.04a7.0711 7.0711 0 1 1 -14.142 0 7.0711 7.0711 0 1 1 14.142 0z" fill="none" stroke="#000" stroke-width="1.0566"/>
  <path d="m452.20203,552.46295h1.32397a.53757,.53757 0 0,1 .53757.53757v1.07143a.53757,.53757 0 0,1 -.53757.53757h-1.32397a.53757,.53757 0 0,1 -.53757-.53757v-1.07143a.53757,.53757 0 0,1 .53757-.53757" fill="#73d216"/>
  <path transform="translate(-.50508,-.12624)" d="m409.74 554.23a3.6618 3.6618 0 1 1 -7.3236 0 3.6618 3.6618 0 1 1 7.3236 0z" fill="none" stroke="#000"/>
  <path transform="translate(-40.154 -.12624)" d="m409.74 554.23a3.6618 3.6618 0 1 1 -7.3236 0 3.6618 3.6618 0 1 1 7.3236 0z" fill="none" stroke="#000"/>
  <path transform="translate(-.69448,-.37881)" d="m385.5 554.48a4.672 4.672 0 1 1 -9.3439 0 4.672 4.672 0 1 1 9.3439 0z" fill="none" stroke="#000"/>
  <path transform="translate(10.543 -.37881)" d="m385.5 554.48a4.672 4.672 0 1 1 -9.3439 0 4.672 4.672 0 1 1 9.3439 0z" fill="none" stroke="#000"/>
  <path d="m335.18 571.02s5.0776 13.929 50.089 13.929 50.089-13.929 50.089-13.929v-0.0909l-100.18 0.0909z" fill="#eeeeec" stroke="#000"/>
  <path d="m306.96 598.26s4.4902 11.071 77.857 11.071 77.857-11.071 77.857-11.071" fill="none" stroke="#000"/>
  <path d="m306.96 606.11s4.4902 11.071 77.857 11.071 77.857-11.071 77.857-11.071" fill="none" stroke="#000"/>
  <path d="m307.14 606.29v-7.6786" fill="none" stroke="#000"/>
  <path d="m462.5 606.29v-7.6786" fill="none" stroke="#000"/>
  <path d="m345.18 579.15c-14.017 4.0796-26.392 11.114-38.036 19.464" fill="none" stroke="#000"/>
  <path d="m425.18 579.15c14.017 4.0796 26.392 11.114 38.036 19.464" fill="none" stroke="#000"/>
  <path d="m277.86 356.37h216.03a5.1218 5.1218 0 0 1 5.1218 5.1218v159.46a5.1218 5.1218 0 0 1 -5.1218 5.1218h-216.03a5.1218 5.1218 0 0 1 -5.1218 -5.1218v-159.46a5.1218 5.1218 0 0 1 5.1218 -5.1218" fill="#2e3436"/>
  <path d="m361.49 616.06c-26.573-1.0738-46.595-4.5381-52.571-9.0964-1.1703-0.89261-1.1791-0.92185-1.1791-3.9219v-3.0226l1.3782 0.91207c4.2436 2.8082 16.42 5.6349 30.586 7.1002 22.996 2.3787 58.651 2.6136 84.286 0.55532 16.092-1.292 29.025-3.8517 35.217-6.9695l2.462-1.2398v5.9855l-1.3393 0.87075c-7.2179 4.6928-25.844 7.7574-53.839 8.8586-10.55 0.41501-34.355 0.398-45-0.0322z" fill="#d3d7cf"/>
  <path d="m361.49 608.21c-23.089-0.93297-41.51-3.6906-49.568-7.4204-4.0899-1.893-4.1034-1.6952 0.32325-4.7272 9.8252-6.7296 18.532-11.212 28.532-14.689l4.6439-1.6145 2.3204 0.85113c5.5624 2.0403 13.82 3.6361 23.035 4.4513 5.9833 0.52935 22.945 0.52935 28.929 0 9.2328-0.81682 17.821-2.4746 23.099-4.4589l2.2518-0.84653 4.1102 1.4372c9.4652 3.3096 18.119 7.6831 27.608 13.953l4.9266 3.2553-0.81951 0.62987c-4.8103 3.6972-19.096 6.7892-38.429 8.3173-15.17 1.1991-42.901 1.5907-60.962 0.86082z" fill="#eeeeec"/>
  <path d="m360.95 615.87c-17.153-0.91447-26.607-1.8949-36.071-3.7409-7.4499-1.4531-13.629-3.5131-15.667-5.223-1.086-0.91127-1.1796-1.1682-1.3743-3.7728l-0.20892-2.795 2.4643 1.2438c1.3554 0.68412 3.8263 1.6694 5.491 2.1895 4.4263 1.3829 14.411 3.2961 20.723 3.9709l3.2143 0.3478c3.3176 0.3658 13.694 1.2242 14.464 1.1965 0.39286-0.0141 4.4313 0.15882 8.9744 0.38428 6.4155 0.31839 41.41 0.32216 45.49 5e-3 0.29464-0.0229 3.4286-0.19954 6.9643-0.39252 9.4138-0.51378 20.141-1.6399 25.179-2.6431 0.49108-0.0978 1.7513-0.27104 2.8005-0.38497 4.544-0.49346 16.842-4.2219 16.842-5.106 0-0.13629 0.32143-0.27202 0.71429-0.30162 0.65454-0.0493 0.71428 0.16636 0.71428 2.5782 0 2.4658-0.062 2.6757-0.98214 3.3227-6.4383 4.5272-23.307 7.5587-50.089 9.0016-5.7754 0.31116-44.308 0.40393-49.643 0.11953z" fill="#d3d7cf"/>
  <g transform="matrix(.13418 0 0 .13418 438.79 487.41)" fill="none" stroke="#2e3436" stroke-linecap="round" stroke-linejoin="round" stroke-width="7.4529">
   <path transform="translate(-.50508 -15.405)" d="m199.06 494.26c8.1531 4.7072 10.947 15.133 6.2394 23.286s-15.133 10.947-23.286 6.2394-10.947-15.133-6.2394-23.286c1.4961-2.5914 3.648-4.7433 6.2394-6.2394" stroke-dashoffset="19.74"/>
   <path d="m190.03 470.26v21.466"/>
  </g>
  <text x="278.24219" y="366.70407" fill="#fff" font-family="DejaVu Sans Mono" font-size="3.3954" font-weight="bold">
   <tspan x="278.24219" y="366.70407">Linux mydomain 2.6.32-22-server #36-Ubuntu SMP Thu Jun 3 20:38:33 UTC 2010 x86_64 GNU/Linux</tspan>
   <tspan x="278.24219" y="370.94833">Ubuntu 10.04.1 LTS</tspan>
   <tspan x="278.24219" y="375.19257"/>
   <tspan x="278.24219" y="379.43683">Welcome to the Ubuntu Server!</tspan>
   <tspan x="278.24219" y="383.68109">* Documentation:  http://www.ubuntu.com/server/doc</tspan>
   <tspan x="278.24219" y="387.92532"/>
   <tspan x="278.24219" y="392.16959">System information disabled due to load higher than 1</tspan>
   <tspan x="278.24219" y="396.41385"/>
   <tspan x="278.24219" y="400.65811">0 packages can be updated.</tspan>
   <tspan x="278.24219" y="404.90234">0 updates are security updates.</tspan>
   <tspan x="278.24219" y="409.14661"/>
   <tspan x="278.24219" y="413.39087">*** System restart required ***</tspan>
   <tspan x="278.24219" y="417.6351">You have new mail.</tspan>
   <tspan x="278.24219" y="421.87936">Last login: Mon Sep 13 09:23:48 2010 from 127.0.0.1</tspan>
   <tspan x="278.24219" y="426.12363"/>
   <tspan x="278.24219" y="430.36786">user@domain#</tspan>
  </text>
  <path d="m302.86 427.54h1.8156v2.98h-1.8156z" fill="#fff"/>
 </g>
</svg>
